%TF.GenerationSoftware,KiCad,Pcbnew,(6.0.6)*%
%TF.CreationDate,2022-10-19T18:58:46+02:00*%
%TF.ProjectId,test,74657374-2e6b-4696-9361-645f70636258,rev?*%
%TF.SameCoordinates,Original*%
%TF.FileFunction,Copper,L2,Bot*%
%TF.FilePolarity,Positive*%
%FSLAX46Y46*%
G04 Gerber Fmt 4.6, Leading zero omitted, Abs format (unit mm)*
G04 Created by KiCad (PCBNEW (6.0.6)) date 2022-10-19 18:58:46*
%MOMM*%
%LPD*%
G01*
G04 APERTURE LIST*
%TA.AperFunction,ComponentPad*%
%ADD10C,0.400000*%
%TD*%
%TA.AperFunction,SMDPad,CuDef*%
%ADD11C,17.800000*%
%TD*%
%TA.AperFunction,SMDPad,CuDef*%
%ADD12R,2.500000X5.100000*%
%TD*%
%TA.AperFunction,ComponentPad*%
%ADD13R,1.240000X1.240000*%
%TD*%
%TA.AperFunction,ComponentPad*%
%ADD14C,1.240000*%
%TD*%
%TA.AperFunction,ComponentPad*%
%ADD15R,1.700000X1.700000*%
%TD*%
%TA.AperFunction,ComponentPad*%
%ADD16O,1.700000X1.700000*%
%TD*%
%TA.AperFunction,ViaPad*%
%ADD17C,0.400000*%
%TD*%
%TA.AperFunction,Conductor*%
%ADD18C,0.500000*%
%TD*%
%TA.AperFunction,Conductor*%
%ADD19C,0.200000*%
%TD*%
G04 APERTURE END LIST*
D10*
%TO.P,,1*%
%TO.N,GND*%
X146200000Y-101375000D03*
%TD*%
%TO.P,,1*%
%TO.N,GND*%
X143325000Y-104100000D03*
%TD*%
%TO.P,,1*%
%TO.N,GND*%
X140125000Y-101600000D03*
%TD*%
D11*
%TO.P,BATTERY1,N*%
%TO.N,GND*%
X171550000Y-112250000D03*
D12*
%TO.P,BATTERY1,P1*%
%TO.N,Net-(BATTERY1-PadP1)*%
X160100000Y-112250000D03*
%TO.P,BATTERY1,P2*%
X183000000Y-112250000D03*
%TD*%
D13*
%TO.P,HEADER1,1,1*%
%TO.N,GND*%
X150750000Y-95200000D03*
D14*
%TO.P,HEADER1,2,2*%
%TO.N,I2C_SDA*%
X150750000Y-97740000D03*
%TO.P,HEADER1,3,3*%
%TO.N,I2C_SCL*%
X150750000Y-100280000D03*
%TO.P,HEADER1,4,4*%
%TO.N,PA5*%
X150750000Y-102820000D03*
%TO.P,HEADER1,5,5*%
%TO.N,PA4*%
X150750000Y-105360000D03*
%TO.P,HEADER1,6,6*%
%TO.N,PA3*%
X150750000Y-107900000D03*
%TO.P,HEADER1,7,7*%
%TO.N,PA2*%
X150750000Y-110440000D03*
%TO.P,HEADER1,8,8*%
%TO.N,PA1*%
X150750000Y-112980000D03*
%TO.P,HEADER1,9,9*%
%TO.N,PA0*%
X150750000Y-115520000D03*
%TO.P,HEADER1,10,10*%
%TO.N,3V3*%
X150750000Y-118060000D03*
%TD*%
D13*
%TO.P,HEADER2,1,1*%
%TO.N,GND*%
X154600000Y-95207500D03*
D14*
%TO.P,HEADER2,2,2*%
%TO.N,I2C_SDA*%
X154600000Y-97747500D03*
%TO.P,HEADER2,3,3*%
%TO.N,I2C_SCL*%
X154600000Y-100287500D03*
%TO.P,HEADER2,4,4*%
%TO.N,PA5*%
X154600000Y-102827500D03*
%TO.P,HEADER2,5,5*%
%TO.N,PA4*%
X154600000Y-105367500D03*
%TO.P,HEADER2,6,6*%
%TO.N,PA3*%
X154600000Y-107907500D03*
%TO.P,HEADER2,7,7*%
%TO.N,PA2*%
X154600000Y-110447500D03*
%TO.P,HEADER2,8,8*%
%TO.N,PA1*%
X154600000Y-112987500D03*
%TO.P,HEADER2,9,9*%
%TO.N,PA0*%
X154600000Y-115527500D03*
%TO.P,HEADER2,10,10*%
%TO.N,3V3*%
X154600000Y-118067500D03*
%TD*%
D10*
%TO.P,,1*%
%TO.N,GND*%
X137600000Y-103675000D03*
%TD*%
%TO.P,,1*%
%TO.N,GND*%
X134050000Y-111450000D03*
%TD*%
%TO.P,,1*%
%TO.N,GND*%
X167500000Y-89200000D03*
%TD*%
%TO.P,,2*%
%TO.N,3V3*%
X130150000Y-97000000D03*
%TD*%
%TO.P,,1*%
%TO.N,GND*%
X152700000Y-103650000D03*
%TD*%
%TO.P,,1*%
%TO.N,GND*%
X125762700Y-101400000D03*
%TD*%
%TO.P,,1*%
%TO.N,N/C*%
X152700000Y-81550000D03*
%TD*%
%TO.P,,1*%
%TO.N,GND*%
X152700000Y-107050000D03*
%TD*%
%TO.P,,1*%
%TO.N,GND*%
X170550000Y-94300000D03*
%TD*%
%TO.P,,1*%
%TO.N,GND*%
X152700000Y-101950000D03*
%TD*%
%TO.P,,1*%
%TO.N,GND*%
X130050000Y-92700000D03*
%TD*%
%TO.P,,1*%
%TO.N,GND*%
X163800000Y-100950000D03*
%TD*%
%TO.P,,1*%
%TO.N,GND*%
X132500000Y-95600000D03*
%TD*%
%TO.P,,1*%
%TO.N,GND*%
X136600000Y-88000000D03*
%TD*%
%TO.P,,1*%
%TO.N,GND*%
X152700000Y-111300000D03*
%TD*%
%TO.P,,1*%
%TO.N,GND*%
X144200000Y-93200000D03*
%TD*%
%TO.P,,1*%
%TO.N,GND*%
X126812700Y-100550000D03*
%TD*%
%TO.P,,1*%
%TO.N,N/C*%
X152700000Y-86650000D03*
%TD*%
%TO.P,,1*%
%TO.N,GND*%
X158950000Y-115600000D03*
%TD*%
%TO.P,,1*%
%TO.N,GND*%
X125530800Y-91237149D03*
%TD*%
%TO.P,,1*%
%TO.N,GND*%
X129000000Y-94300000D03*
%TD*%
%TO.P,,1*%
%TO.N,GND*%
X152700000Y-92600000D03*
%TD*%
%TO.P,,1*%
%TO.N,GND*%
X152700000Y-95150000D03*
%TD*%
%TO.P,,1*%
%TO.N,GND*%
X137275000Y-107075000D03*
%TD*%
%TO.P,,1*%
%TO.N,GND*%
X136075000Y-110250000D03*
%TD*%
%TO.P,,1*%
%TO.N,GND*%
X139475000Y-108200000D03*
%TD*%
%TO.P,,1*%
%TO.N,GND*%
X132400000Y-101050000D03*
%TD*%
%TO.P,,1*%
%TO.N,GND*%
X137500000Y-90600000D03*
%TD*%
%TO.P,,1*%
%TO.N,GND*%
X144200000Y-91350000D03*
%TD*%
%TO.P,,1*%
%TO.N,GND*%
X152700000Y-109600000D03*
%TD*%
%TO.P,,1*%
%TO.N,GND*%
X136243811Y-92969054D03*
%TD*%
%TO.P,,1*%
%TO.N,N/C*%
X152700000Y-83250000D03*
%TD*%
%TO.P,,1*%
%TO.N,GND*%
X129350000Y-99550000D03*
%TD*%
%TO.P,,1*%
%TO.N,GND*%
X142300000Y-90350000D03*
%TD*%
%TO.P,,1*%
%TO.N,GND*%
X134100000Y-88300000D03*
%TD*%
%TO.P,,1*%
%TO.N,GND*%
X132500000Y-90600000D03*
%TD*%
%TO.P,,1*%
%TO.N,GND*%
X132500000Y-92850000D03*
%TD*%
%TO.P,,1*%
%TO.N,GND*%
X152700000Y-104500000D03*
%TD*%
%TO.P,,1*%
%TO.N,GND*%
X124700000Y-95900000D03*
%TD*%
%TO.P,,1*%
%TO.N,GND*%
X152700000Y-90900000D03*
%TD*%
%TO.P,,1*%
%TO.N,GND*%
X160600000Y-115600000D03*
%TD*%
D15*
%TO.P,BOOT1,1,Pin_1*%
%TO.N,Net-(BOOT1-Pad1)*%
X144610000Y-115150000D03*
D16*
%TO.P,BOOT1,2,Pin_2*%
%TO.N,3V3*%
X147150000Y-115150000D03*
%TD*%
D10*
%TO.P,,1*%
%TO.N,N/C*%
X152700000Y-88350000D03*
%TD*%
%TO.P,,1*%
%TO.N,GND*%
X152700000Y-114700000D03*
%TD*%
%TO.P,,1*%
%TO.N,N/C*%
X152700000Y-82400000D03*
%TD*%
%TO.P,,1*%
%TO.N,GND*%
X139425000Y-99975000D03*
%TD*%
%TO.P,,1*%
%TO.N,GND*%
X152700000Y-112150000D03*
%TD*%
D15*
%TO.P,SCREEN1,1,1*%
%TO.N,GND*%
X132880000Y-82050000D03*
D16*
%TO.P,SCREEN1,2,2*%
%TO.N,I2C_SDA*%
X135420000Y-82050000D03*
%TO.P,SCREEN1,3,3*%
%TO.N,I2C_SCL*%
X137960000Y-82050000D03*
%TO.P,SCREEN1,4,4*%
%TO.N,Net-(SCREEN1-Pad4)*%
X140500000Y-82050000D03*
%TD*%
D10*
%TO.P,,1*%
%TO.N,GND*%
X152700000Y-93450000D03*
%TD*%
%TO.P,,1*%
%TO.N,GND*%
X152700000Y-108750000D03*
%TD*%
%TO.P,,1*%
%TO.N,GND*%
X152700000Y-90050000D03*
%TD*%
%TO.P,,1*%
%TO.N,GND*%
X127500000Y-88750000D03*
%TD*%
%TO.P,,1*%
%TO.N,GND*%
X126900000Y-96370000D03*
%TD*%
%TO.P,,1*%
%TO.N,N/C*%
X152700000Y-84100000D03*
%TD*%
%TO.P,,1*%
%TO.N,GND*%
X131250000Y-102450000D03*
%TD*%
%TO.P,,3*%
%TO.N,3V3*%
X129000000Y-91850000D03*
%TD*%
%TO.P,,1*%
%TO.N,GND*%
X128900000Y-100600000D03*
%TD*%
%TO.P,,1*%
%TO.N,N/C*%
X152700000Y-89200000D03*
%TD*%
%TO.P,,1*%
%TO.N,N/C*%
X152700000Y-85800000D03*
%TD*%
%TO.P,,1*%
%TO.N,GND*%
X152700000Y-96000000D03*
%TD*%
%TO.P,,1*%
%TO.N,GND*%
X131400000Y-110150000D03*
%TD*%
%TO.P,,1*%
%TO.N,3V3*%
X130150000Y-96000000D03*
%TD*%
%TO.P,,1*%
%TO.N,GND*%
X128650000Y-96800000D03*
%TD*%
%TO.P,,1*%
%TO.N,GND*%
X152700000Y-94300000D03*
%TD*%
%TO.P,,1*%
%TO.N,GND*%
X136400000Y-95600000D03*
%TD*%
%TO.P,,1*%
%TO.N,GND*%
X144200000Y-92350000D03*
%TD*%
%TO.P,,1*%
%TO.N,GND*%
X137500000Y-95600000D03*
%TD*%
%TO.P,,1*%
%TO.N,GND*%
X134500000Y-90550000D03*
%TD*%
%TO.P,,1*%
%TO.N,GND*%
X152700000Y-99450000D03*
%TD*%
%TO.P,,1*%
%TO.N,GND*%
X167500000Y-90900000D03*
%TD*%
%TO.P,,1*%
%TO.N,GND*%
X152700000Y-98600000D03*
%TD*%
%TO.P,,1*%
%TO.N,GND*%
X126900000Y-95370000D03*
%TD*%
%TO.P,,1*%
%TO.N,GND*%
X159950000Y-97100000D03*
%TD*%
%TO.P,,1*%
%TO.N,GND*%
X136300000Y-90600000D03*
%TD*%
%TO.P,,1*%
%TO.N,GND*%
X135750000Y-106175000D03*
%TD*%
%TO.P,,1*%
%TO.N,GND*%
X127050000Y-103800000D03*
%TD*%
%TO.P,,1*%
%TO.N,GND*%
X152700000Y-120050000D03*
%TD*%
%TO.P,,1*%
%TO.N,GND*%
X133750000Y-85000000D03*
%TD*%
%TO.P,,1*%
%TO.N,GND*%
X152700000Y-91750000D03*
%TD*%
%TO.P,,1*%
%TO.N,GND*%
X152700000Y-101100000D03*
%TD*%
%TO.P,,1*%
%TO.N,GND*%
X134200000Y-95600000D03*
%TD*%
%TO.P,,1*%
%TO.N,N/C*%
X152700000Y-87500000D03*
%TD*%
%TO.P,,1*%
%TO.N,GND*%
X139200000Y-98300000D03*
%TD*%
%TO.P,,1*%
%TO.N,GND*%
X134300000Y-92900000D03*
%TD*%
%TO.P,,1*%
%TO.N,GND*%
X139100000Y-96450000D03*
%TD*%
%TO.P,,1*%
%TO.N,GND*%
X152700000Y-119200000D03*
%TD*%
%TO.P,,1*%
%TO.N,GND*%
X128650000Y-96000000D03*
%TD*%
%TO.P,,1*%
%TO.N,GND*%
X152700000Y-113850000D03*
%TD*%
%TO.P,,1*%
%TO.N,GND*%
X152700000Y-96850000D03*
%TD*%
%TO.P,,1*%
%TO.N,GND*%
X159150000Y-105800000D03*
%TD*%
%TO.P,,1*%
%TO.N,GND*%
X162300000Y-105300000D03*
%TD*%
%TO.P,,1*%
%TO.N,GND*%
X139050000Y-91400000D03*
%TD*%
%TO.P,,1*%
%TO.N,GND*%
X138650000Y-86850000D03*
%TD*%
%TO.P,,1*%
%TO.N,GND*%
X152700000Y-116300000D03*
%TD*%
%TO.P,,1*%
%TO.N,GND*%
X137450000Y-93100000D03*
%TD*%
%TO.P,,1*%
%TO.N,GND*%
X134900000Y-98400000D03*
%TD*%
%TO.P,,1*%
%TO.N,GND*%
X156300000Y-108950000D03*
%TD*%
%TO.P,,1*%
%TO.N,GND*%
X152700000Y-106200000D03*
%TD*%
%TO.P,,1*%
%TO.N,GND*%
X152700000Y-117150000D03*
%TD*%
%TO.P,,1*%
%TO.N,GND*%
X134500000Y-86900000D03*
%TD*%
%TO.P,,1*%
%TO.N,GND*%
X148050000Y-93000000D03*
%TD*%
%TO.P,,1*%
%TO.N,GND*%
X130189203Y-86407000D03*
%TD*%
%TO.P,,1*%
%TO.N,N/C*%
X152700000Y-84950000D03*
%TD*%
D17*
%TO.N,I2C_SDA*%
X129350500Y-95225000D03*
%TO.N,I2C_SCL*%
X133888102Y-101186898D03*
%TO.N,3V3*%
X164500000Y-91550000D03*
X128739203Y-84507000D03*
X172800000Y-101600000D03*
X166440000Y-99200000D03*
X171220000Y-101600000D03*
X143400000Y-93850000D03*
X136150000Y-100825000D03*
X166450000Y-100400000D03*
X128900000Y-92767500D03*
X141050000Y-95400000D03*
X171200000Y-96800000D03*
X139650000Y-88200000D03*
%TO.N,I2C_SCL*%
X134030090Y-97393026D03*
X135100000Y-85300000D03*
%TO.N,Net-(SCREEN1-Pad4)*%
X135900000Y-85500000D03*
X134686113Y-97160891D03*
%TO.N,I2C_SDA*%
X130876014Y-95225000D03*
X134500000Y-85600000D03*
%TO.N,PA7*%
X139261782Y-94349599D03*
X138049503Y-105400000D03*
%TO.N,Net-(C12-Pad1)*%
X135211298Y-97450000D03*
X138310297Y-96700000D03*
%TO.N,PA4*%
X140400000Y-99900000D03*
X139850000Y-96200000D03*
%TO.N,PA5*%
X140400500Y-99100000D03*
X139995563Y-95618437D03*
%TO.N,PB2*%
X144350000Y-94200000D03*
X138900000Y-92851099D03*
%TO.N,PA6*%
X137450000Y-105400000D03*
X139700000Y-94850000D03*
%TO.N,/USB_P*%
X126430800Y-91987149D03*
X126430800Y-90337149D03*
%TO.N,PA8*%
X139718533Y-93850099D03*
X138649005Y-105400500D03*
%TO.N,PA9*%
X139308009Y-93350599D03*
X139248508Y-105400500D03*
%TO.N,PA10*%
X134850000Y-105550000D03*
X127750000Y-89700000D03*
%TO.N,Net-(C41-Pad1)*%
X166500000Y-95100000D03*
X172900000Y-90250000D03*
%TO.N,Net-(C43-Pad1)*%
X165500000Y-96150000D03*
X163800000Y-90250000D03*
%TO.N,Net-(BATTERY1-PadP1)*%
X175450000Y-102900000D03*
%TD*%
D18*
%TO.N,3V3*%
X128900000Y-84667797D02*
X128739203Y-84507000D01*
X128900000Y-92767500D02*
X128900000Y-84667797D01*
D19*
%TO.N,I2C_SDA*%
X130876014Y-89223986D02*
X134500000Y-85600000D01*
X130876014Y-95225000D02*
X130876014Y-89223986D01*
%TO.N,I2C_SCL*%
X146085686Y-100280000D02*
X150750000Y-100280000D01*
X140065686Y-106300000D02*
X146085686Y-100280000D01*
X137029657Y-106300000D02*
X140065686Y-106300000D01*
X136550000Y-103848796D02*
X136550000Y-105820342D01*
X136550000Y-105820342D02*
X137029657Y-106300000D01*
X133888102Y-101186898D02*
X136550000Y-103848796D01*
%TO.N,PA6*%
X141277817Y-94850000D02*
X139700000Y-94850000D01*
X141600000Y-95172183D02*
X141277817Y-94850000D01*
X141600000Y-101142396D02*
X141600000Y-95172183D01*
X137450000Y-105292396D02*
X141600000Y-101142396D01*
X137450000Y-105400000D02*
X137450000Y-105292396D01*
%TO.N,PA7*%
X142050000Y-101292398D02*
X142050000Y-95056497D01*
X142050000Y-95056497D02*
X141343102Y-94349599D01*
X138049503Y-105292895D02*
X142050000Y-101292398D01*
X141343102Y-94349599D02*
X139261782Y-94349599D01*
X138049503Y-105400000D02*
X138049503Y-105292895D01*
%TO.N,PA8*%
X141409288Y-93850099D02*
X139718533Y-93850099D01*
X142450000Y-94890811D02*
X141409288Y-93850099D01*
X138649005Y-105292896D02*
X142450000Y-101491901D01*
X142450000Y-101491901D02*
X142450000Y-94890811D01*
X138649005Y-105400500D02*
X138649005Y-105292896D01*
%TO.N,PA9*%
X141475473Y-93350599D02*
X139308009Y-93350599D01*
X142850000Y-94725126D02*
X141475473Y-93350599D01*
X142850000Y-101799008D02*
X142850000Y-94725126D01*
X139248508Y-105400500D02*
X142850000Y-101799008D01*
%TO.N,I2C_SDA*%
X129350500Y-97200500D02*
X129350500Y-95225000D01*
X129850000Y-97700000D02*
X129350500Y-97200500D01*
X131107604Y-97700000D02*
X129850000Y-97700000D01*
X136950000Y-103542396D02*
X131107604Y-97700000D01*
X139900000Y-105900000D02*
X137195343Y-105900000D01*
X148060000Y-97740000D02*
X139900000Y-105900000D01*
X137195343Y-105900000D02*
X136950000Y-105654657D01*
X150750000Y-97740000D02*
X148060000Y-97740000D01*
X136950000Y-105654657D02*
X136950000Y-103542396D01*
%TO.N,PA4*%
X139900000Y-96250000D02*
X139850000Y-96200000D01*
X140400000Y-99900000D02*
X139900000Y-99400000D01*
X139900000Y-99400000D02*
X139900000Y-96250000D01*
D18*
%TO.N,3V3*%
X130000000Y-93867500D02*
X128900000Y-92767500D01*
X130550000Y-97000000D02*
X130000000Y-96450000D01*
X132325000Y-97000000D02*
X130550000Y-97000000D01*
X130000000Y-96450000D02*
X130000000Y-93867500D01*
X136150000Y-100825000D02*
X132325000Y-97000000D01*
X141050000Y-100400000D02*
X141050000Y-95400000D01*
X140625000Y-100825000D02*
X141050000Y-100400000D01*
X136150000Y-100825000D02*
X140625000Y-100825000D01*
D19*
%TO.N,I2C_SCL*%
X135100000Y-95894728D02*
X135100000Y-85300000D01*
X134100000Y-96894728D02*
X135100000Y-95894728D01*
X134100000Y-97323116D02*
X134100000Y-96894728D01*
X134030090Y-97393026D02*
X134100000Y-97323116D01*
%TO.N,PA10*%
X127750000Y-101750000D02*
X127750000Y-89700000D01*
X133600000Y-104300000D02*
X130300000Y-104300000D01*
X130300000Y-104300000D02*
X127750000Y-101750000D01*
X134850000Y-105550000D02*
X133600000Y-104300000D01*
D18*
%TO.N,3V3*%
X167950761Y-97670000D02*
X167970000Y-97670000D01*
X164500000Y-94219239D02*
X167950761Y-97670000D01*
X164500000Y-91550000D02*
X164500000Y-94219239D01*
X167970000Y-97670000D02*
X168120000Y-97520000D01*
X166440000Y-99200000D02*
X167970000Y-97670000D01*
X166450000Y-99210000D02*
X166440000Y-99200000D01*
X168840000Y-96800000D02*
X171200000Y-96800000D01*
X171220000Y-101600000D02*
X167650000Y-101600000D01*
X167650000Y-101600000D02*
X166450000Y-100400000D01*
X143400000Y-93850000D02*
X139650000Y-90100000D01*
X172800000Y-101600000D02*
X171220000Y-101600000D01*
X157300000Y-108750000D02*
X165650000Y-100400000D01*
X139650000Y-90100000D02*
X139650000Y-88200000D01*
X157300000Y-115367500D02*
X157300000Y-108750000D01*
X165650000Y-100400000D02*
X166450000Y-100400000D01*
X166450000Y-100400000D02*
X166450000Y-99210000D01*
X168120000Y-97520000D02*
X168840000Y-96800000D01*
X154600000Y-118067500D02*
X157300000Y-115367500D01*
D19*
%TO.N,Net-(SCREEN1-Pad4)*%
X135900000Y-85500000D02*
X135499519Y-85900481D01*
X135499519Y-96347485D02*
X134686113Y-97160891D01*
X135499519Y-85900481D02*
X135499519Y-96347485D01*
%TO.N,Net-(C12-Pad1)*%
X138310297Y-96700000D02*
X135961298Y-96700000D01*
X135961298Y-96700000D02*
X135211298Y-97450000D01*
%TO.N,PA5*%
X140350000Y-95972874D02*
X140350000Y-99049500D01*
X139995563Y-95618437D02*
X140350000Y-95972874D01*
X140350000Y-99049500D02*
X140400500Y-99100000D01*
%TO.N,PB2*%
X144350000Y-94200000D02*
X144150000Y-94400000D01*
X143090560Y-94400000D02*
X141541659Y-92851099D01*
X144150000Y-94400000D02*
X143090560Y-94400000D01*
X141541659Y-92851099D02*
X138900000Y-92851099D01*
%TO.N,/USB_P*%
X126430800Y-91987149D02*
X126430800Y-90337149D01*
%TO.N,Net-(C41-Pad1)*%
X169150000Y-94500000D02*
X172900000Y-90750000D01*
X166500000Y-95100000D02*
X167100000Y-94500000D01*
X172900000Y-90750000D02*
X172900000Y-90250000D01*
X167100000Y-94500000D02*
X169150000Y-94500000D01*
%TO.N,Net-(C43-Pad1)*%
X163800000Y-90250000D02*
X163800000Y-94450000D01*
X163800000Y-94450000D02*
X165500000Y-96150000D01*
D18*
%TO.N,Net-(BATTERY1-PadP1)*%
X167677103Y-102900000D02*
X160100000Y-110477103D01*
X183000000Y-110450000D02*
X175450000Y-102900000D01*
X183000000Y-112250000D02*
X183000000Y-110450000D01*
X160100000Y-110477103D02*
X160100000Y-112250000D01*
X175450000Y-102900000D02*
X167677103Y-102900000D01*
%TD*%
%TA.AperFunction,Conductor*%
%TO.N,GND*%
G36*
X141328579Y-80078502D02*
G01*
X141375072Y-80132158D01*
X141386457Y-80183937D01*
X141387221Y-80354906D01*
X141388735Y-80693800D01*
X141389097Y-80774936D01*
X141369399Y-80843146D01*
X141315952Y-80889878D01*
X141245724Y-80900295D01*
X141202204Y-80885807D01*
X141063320Y-80809139D01*
X141063316Y-80809137D01*
X141058789Y-80806638D01*
X141053920Y-80804914D01*
X141053916Y-80804912D01*
X140853087Y-80733795D01*
X140853083Y-80733794D01*
X140848212Y-80732069D01*
X140843119Y-80731162D01*
X140843116Y-80731161D01*
X140633373Y-80693800D01*
X140633367Y-80693799D01*
X140628284Y-80692894D01*
X140554452Y-80691992D01*
X140410081Y-80690228D01*
X140410079Y-80690228D01*
X140404911Y-80690165D01*
X140184091Y-80723955D01*
X139971756Y-80793357D01*
X139773607Y-80896507D01*
X139769474Y-80899610D01*
X139769471Y-80899612D01*
X139599100Y-81027530D01*
X139594965Y-81030635D01*
X139440629Y-81192138D01*
X139333201Y-81349621D01*
X139278293Y-81394621D01*
X139207768Y-81402792D01*
X139144021Y-81371538D01*
X139123324Y-81347054D01*
X139042822Y-81222617D01*
X139042820Y-81222614D01*
X139040014Y-81218277D01*
X138889670Y-81053051D01*
X138885619Y-81049852D01*
X138885615Y-81049848D01*
X138718414Y-80917800D01*
X138718410Y-80917798D01*
X138714359Y-80914598D01*
X138518789Y-80806638D01*
X138513920Y-80804914D01*
X138513916Y-80804912D01*
X138313087Y-80733795D01*
X138313083Y-80733794D01*
X138308212Y-80732069D01*
X138303119Y-80731162D01*
X138303116Y-80731161D01*
X138093373Y-80693800D01*
X138093367Y-80693799D01*
X138088284Y-80692894D01*
X138014452Y-80691992D01*
X137870081Y-80690228D01*
X137870079Y-80690228D01*
X137864911Y-80690165D01*
X137644091Y-80723955D01*
X137431756Y-80793357D01*
X137233607Y-80896507D01*
X137229474Y-80899610D01*
X137229471Y-80899612D01*
X137059100Y-81027530D01*
X137054965Y-81030635D01*
X136900629Y-81192138D01*
X136793201Y-81349621D01*
X136738293Y-81394621D01*
X136667768Y-81402792D01*
X136604021Y-81371538D01*
X136583324Y-81347054D01*
X136502822Y-81222617D01*
X136502820Y-81222614D01*
X136500014Y-81218277D01*
X136349670Y-81053051D01*
X136345619Y-81049852D01*
X136345615Y-81049848D01*
X136178414Y-80917800D01*
X136178410Y-80917798D01*
X136174359Y-80914598D01*
X135978789Y-80806638D01*
X135973920Y-80804914D01*
X135973916Y-80804912D01*
X135773087Y-80733795D01*
X135773083Y-80733794D01*
X135768212Y-80732069D01*
X135763119Y-80731162D01*
X135763116Y-80731161D01*
X135553373Y-80693800D01*
X135553367Y-80693799D01*
X135548284Y-80692894D01*
X135474452Y-80691992D01*
X135330081Y-80690228D01*
X135330079Y-80690228D01*
X135324911Y-80690165D01*
X135104091Y-80723955D01*
X134891756Y-80793357D01*
X134693607Y-80896507D01*
X134689474Y-80899610D01*
X134689471Y-80899612D01*
X134519100Y-81027530D01*
X134514965Y-81030635D01*
X134360629Y-81192138D01*
X134234743Y-81376680D01*
X134187716Y-81477992D01*
X134147353Y-81564947D01*
X134140688Y-81579305D01*
X134080989Y-81794570D01*
X134057251Y-82016695D01*
X134057548Y-82021848D01*
X134057548Y-82021851D01*
X134060696Y-82076447D01*
X134070110Y-82239715D01*
X134071247Y-82244761D01*
X134071248Y-82244767D01*
X134092275Y-82338069D01*
X134119222Y-82457639D01*
X134203266Y-82664616D01*
X134247491Y-82736785D01*
X134317291Y-82850688D01*
X134319987Y-82855088D01*
X134466250Y-83023938D01*
X134638126Y-83166632D01*
X134831000Y-83279338D01*
X135039692Y-83359030D01*
X135044760Y-83360061D01*
X135044763Y-83360062D01*
X135152017Y-83381883D01*
X135258597Y-83403567D01*
X135263772Y-83403757D01*
X135263774Y-83403757D01*
X135476673Y-83411564D01*
X135476677Y-83411564D01*
X135481837Y-83411753D01*
X135486957Y-83411097D01*
X135486959Y-83411097D01*
X135698288Y-83384025D01*
X135698289Y-83384025D01*
X135703416Y-83383368D01*
X135708366Y-83381883D01*
X135912429Y-83320661D01*
X135912434Y-83320659D01*
X135917384Y-83319174D01*
X136117994Y-83220896D01*
X136299860Y-83091173D01*
X136318590Y-83072509D01*
X136454435Y-82937137D01*
X136458096Y-82933489D01*
X136517594Y-82850689D01*
X136588453Y-82752077D01*
X136589776Y-82753028D01*
X136636645Y-82709857D01*
X136706580Y-82697625D01*
X136772026Y-82725144D01*
X136799875Y-82756994D01*
X136859987Y-82855088D01*
X137006250Y-83023938D01*
X137178126Y-83166632D01*
X137371000Y-83279338D01*
X137579692Y-83359030D01*
X137584760Y-83360061D01*
X137584763Y-83360062D01*
X137692017Y-83381883D01*
X137798597Y-83403567D01*
X137803772Y-83403757D01*
X137803774Y-83403757D01*
X138016673Y-83411564D01*
X138016677Y-83411564D01*
X138021837Y-83411753D01*
X138026957Y-83411097D01*
X138026959Y-83411097D01*
X138238288Y-83384025D01*
X138238289Y-83384025D01*
X138243416Y-83383368D01*
X138248366Y-83381883D01*
X138452429Y-83320661D01*
X138452434Y-83320659D01*
X138457384Y-83319174D01*
X138657994Y-83220896D01*
X138839860Y-83091173D01*
X138858590Y-83072509D01*
X138994435Y-82937137D01*
X138998096Y-82933489D01*
X139057594Y-82850689D01*
X139128453Y-82752077D01*
X139129776Y-82753028D01*
X139176645Y-82709857D01*
X139246580Y-82697625D01*
X139312026Y-82725144D01*
X139339875Y-82756994D01*
X139399987Y-82855088D01*
X139546250Y-83023938D01*
X139718126Y-83166632D01*
X139911000Y-83279338D01*
X140119692Y-83359030D01*
X140124760Y-83360061D01*
X140124763Y-83360062D01*
X140232017Y-83381883D01*
X140338597Y-83403567D01*
X140343772Y-83403757D01*
X140343774Y-83403757D01*
X140556673Y-83411564D01*
X140556677Y-83411564D01*
X140561837Y-83411753D01*
X140566957Y-83411097D01*
X140566959Y-83411097D01*
X140778288Y-83384025D01*
X140778289Y-83384025D01*
X140783416Y-83383368D01*
X140788366Y-83381883D01*
X140992429Y-83320661D01*
X140992434Y-83320659D01*
X140997384Y-83319174D01*
X141197994Y-83220896D01*
X141202205Y-83217892D01*
X141206648Y-83215244D01*
X141207360Y-83216439D01*
X141268358Y-83195265D01*
X141337368Y-83211941D01*
X141386408Y-83263279D01*
X141400466Y-83320554D01*
X141429650Y-89854596D01*
X141430329Y-90006640D01*
X153250000Y-90000000D01*
X153250000Y-89689368D01*
X153273678Y-89615841D01*
X153320992Y-89549998D01*
X153320993Y-89549997D01*
X153325424Y-89543830D01*
X153389385Y-89384720D01*
X153406585Y-89263866D01*
X153412966Y-89219031D01*
X153412966Y-89219027D01*
X153413547Y-89214947D01*
X153413704Y-89200000D01*
X153403381Y-89114698D01*
X153394015Y-89037299D01*
X153394014Y-89037296D01*
X153393102Y-89029758D01*
X153379506Y-88993775D01*
X153335171Y-88876447D01*
X153332487Y-88869344D01*
X153317534Y-88847587D01*
X153295436Y-88780117D01*
X153313323Y-88711410D01*
X153319053Y-88702697D01*
X153320990Y-88700001D01*
X153320991Y-88699999D01*
X153325424Y-88693830D01*
X153389385Y-88534720D01*
X153413547Y-88364947D01*
X153413704Y-88350000D01*
X153393102Y-88179758D01*
X153370032Y-88118703D01*
X153335171Y-88026447D01*
X153332487Y-88019344D01*
X153317534Y-87997587D01*
X153295436Y-87930117D01*
X153313323Y-87861410D01*
X153319053Y-87852697D01*
X153320990Y-87850001D01*
X153320991Y-87849999D01*
X153325424Y-87843830D01*
X153389385Y-87684720D01*
X153413547Y-87514947D01*
X153413704Y-87500000D01*
X153393102Y-87329758D01*
X153332487Y-87169344D01*
X153317534Y-87147587D01*
X153295436Y-87080117D01*
X153313323Y-87011410D01*
X153319053Y-87002697D01*
X153320990Y-87000001D01*
X153320991Y-86999999D01*
X153325424Y-86993830D01*
X153389385Y-86834720D01*
X153399414Y-86764250D01*
X153412966Y-86669031D01*
X153412966Y-86669027D01*
X153413547Y-86664947D01*
X153413704Y-86650000D01*
X153393102Y-86479758D01*
X153389056Y-86469049D01*
X153335171Y-86326447D01*
X153332487Y-86319344D01*
X153317534Y-86297587D01*
X153295436Y-86230117D01*
X153313323Y-86161410D01*
X153319053Y-86152697D01*
X153320990Y-86150001D01*
X153320991Y-86149999D01*
X153325424Y-86143830D01*
X153389385Y-85984720D01*
X153408559Y-85849998D01*
X153412966Y-85819031D01*
X153412966Y-85819027D01*
X153413547Y-85814947D01*
X153413704Y-85800000D01*
X153400606Y-85691764D01*
X153394015Y-85637299D01*
X153394014Y-85637296D01*
X153393102Y-85629758D01*
X153332487Y-85469344D01*
X153317534Y-85447587D01*
X153295436Y-85380117D01*
X153313323Y-85311410D01*
X153319053Y-85302697D01*
X153320990Y-85300001D01*
X153320991Y-85299999D01*
X153325424Y-85293830D01*
X153389385Y-85134720D01*
X153405796Y-85019409D01*
X153412966Y-84969031D01*
X153412966Y-84969027D01*
X153413547Y-84964947D01*
X153413704Y-84950000D01*
X153405463Y-84881904D01*
X153394015Y-84787299D01*
X153394014Y-84787296D01*
X153393102Y-84779758D01*
X153366890Y-84710388D01*
X153335171Y-84626447D01*
X153332487Y-84619344D01*
X153317534Y-84597587D01*
X153295436Y-84530117D01*
X153313323Y-84461410D01*
X153319053Y-84452697D01*
X153320990Y-84450001D01*
X153320991Y-84449999D01*
X153325424Y-84443830D01*
X153389385Y-84284720D01*
X153409777Y-84141440D01*
X153412966Y-84119031D01*
X153412966Y-84119027D01*
X153413547Y-84114947D01*
X153413704Y-84100000D01*
X153409258Y-84063262D01*
X153394015Y-83937299D01*
X153394014Y-83937296D01*
X153393102Y-83929758D01*
X153376102Y-83884767D01*
X153335171Y-83776447D01*
X153332487Y-83769344D01*
X153317534Y-83747587D01*
X153295436Y-83680117D01*
X153313323Y-83611410D01*
X153319053Y-83602697D01*
X153320990Y-83600001D01*
X153320991Y-83599999D01*
X153325424Y-83593830D01*
X153389385Y-83434720D01*
X153405633Y-83320554D01*
X153412966Y-83269031D01*
X153412966Y-83269027D01*
X153413547Y-83264947D01*
X153413704Y-83250000D01*
X153403215Y-83163327D01*
X153394015Y-83087299D01*
X153394014Y-83087296D01*
X153393102Y-83079758D01*
X153332487Y-82919344D01*
X153317534Y-82897587D01*
X153295436Y-82830117D01*
X153313323Y-82761410D01*
X153319053Y-82752697D01*
X153320990Y-82750001D01*
X153320991Y-82749999D01*
X153325424Y-82743830D01*
X153389385Y-82584720D01*
X153413547Y-82414947D01*
X153413704Y-82400000D01*
X153406209Y-82338069D01*
X153394015Y-82237299D01*
X153394014Y-82237296D01*
X153393102Y-82229758D01*
X153332487Y-82069344D01*
X153317534Y-82047587D01*
X153295436Y-81980117D01*
X153313323Y-81911410D01*
X153319053Y-81902697D01*
X153320990Y-81900001D01*
X153320991Y-81899999D01*
X153325424Y-81893830D01*
X153389385Y-81734720D01*
X153413547Y-81564947D01*
X153413704Y-81550000D01*
X153409258Y-81513262D01*
X153394015Y-81387299D01*
X153394014Y-81387296D01*
X153393102Y-81379758D01*
X153380745Y-81347054D01*
X153335171Y-81226447D01*
X153332487Y-81219344D01*
X153272160Y-81131567D01*
X153250000Y-81060201D01*
X153250000Y-80384463D01*
X153269313Y-80317427D01*
X153308178Y-80255574D01*
X153325770Y-80233515D01*
X153383515Y-80175770D01*
X153405574Y-80158178D01*
X153474726Y-80114727D01*
X153500147Y-80102485D01*
X153577228Y-80075513D01*
X153604736Y-80069234D01*
X153660226Y-80062982D01*
X153675868Y-80063077D01*
X153675879Y-80062200D01*
X153684851Y-80062310D01*
X153693724Y-80063691D01*
X153702626Y-80062527D01*
X153702628Y-80062527D01*
X153717958Y-80060522D01*
X153725286Y-80059564D01*
X153741621Y-80058500D01*
X183688520Y-80058500D01*
X183707902Y-80060000D01*
X183731611Y-80063691D01*
X183740518Y-80062526D01*
X183740636Y-80062511D01*
X183771079Y-80062239D01*
X183833149Y-80069231D01*
X183860658Y-80075509D01*
X183937744Y-80102481D01*
X183963165Y-80114722D01*
X184032320Y-80158173D01*
X184054380Y-80175765D01*
X184112127Y-80233510D01*
X184129720Y-80255571D01*
X184173172Y-80324724D01*
X184185414Y-80350144D01*
X184212387Y-80427227D01*
X184218666Y-80454733D01*
X184224908Y-80510128D01*
X184224554Y-80525862D01*
X184225675Y-80525876D01*
X184225565Y-80534848D01*
X184224183Y-80543724D01*
X184225348Y-80552631D01*
X184228290Y-80575131D01*
X184229354Y-80591530D01*
X184228269Y-82850688D01*
X184215675Y-109064181D01*
X184215674Y-109065561D01*
X184195639Y-109133672D01*
X184141961Y-109180139D01*
X184089674Y-109191500D01*
X182866371Y-109191500D01*
X182798250Y-109171498D01*
X182777276Y-109154595D01*
X176033770Y-102411089D01*
X176021384Y-102396677D01*
X176012851Y-102385082D01*
X176012846Y-102385077D01*
X176008508Y-102379182D01*
X176002930Y-102374443D01*
X176002927Y-102374440D01*
X175968232Y-102344965D01*
X175960716Y-102338035D01*
X175955021Y-102332340D01*
X175948880Y-102327482D01*
X175932749Y-102314719D01*
X175929345Y-102311928D01*
X175879297Y-102269409D01*
X175879295Y-102269408D01*
X175873715Y-102264667D01*
X175867199Y-102261339D01*
X175862150Y-102257972D01*
X175857021Y-102254805D01*
X175851284Y-102250266D01*
X175785125Y-102219345D01*
X175781225Y-102217439D01*
X175775115Y-102214319D01*
X175716192Y-102184231D01*
X175709084Y-102182492D01*
X175703441Y-102180393D01*
X175697678Y-102178476D01*
X175691050Y-102175378D01*
X175619583Y-102160513D01*
X175615299Y-102159543D01*
X175584767Y-102152072D01*
X175544390Y-102142192D01*
X175538788Y-102141844D01*
X175538785Y-102141844D01*
X175533236Y-102141500D01*
X175533238Y-102141464D01*
X175529245Y-102141225D01*
X175525053Y-102140851D01*
X175517885Y-102139360D01*
X175451675Y-102141151D01*
X175440479Y-102141454D01*
X175437072Y-102141500D01*
X173581571Y-102141500D01*
X173513450Y-102121498D01*
X173466957Y-102067842D01*
X173456853Y-101997568D01*
X173472617Y-101952215D01*
X173493373Y-101916480D01*
X173500326Y-101904510D01*
X173517787Y-101846860D01*
X173544642Y-101758189D01*
X173551595Y-101735233D01*
X173562547Y-101558702D01*
X173555420Y-101517222D01*
X173533834Y-101391602D01*
X173533834Y-101391601D01*
X173532594Y-101384386D01*
X173463343Y-101221636D01*
X173459010Y-101215748D01*
X173459007Y-101215743D01*
X173368368Y-101092580D01*
X173358508Y-101079182D01*
X173352930Y-101074443D01*
X173352927Y-101074440D01*
X173229294Y-100969406D01*
X173229290Y-100969403D01*
X173223715Y-100964667D01*
X173130133Y-100916881D01*
X173072708Y-100887558D01*
X173072706Y-100887557D01*
X173066192Y-100884231D01*
X173059087Y-100882492D01*
X173059083Y-100882491D01*
X172976762Y-100862348D01*
X172894390Y-100842192D01*
X172888788Y-100841844D01*
X172888785Y-100841844D01*
X172885175Y-100841620D01*
X172885165Y-100841620D01*
X172883236Y-100841500D01*
X168016371Y-100841500D01*
X167948250Y-100821498D01*
X167927276Y-100804595D01*
X167245405Y-100122724D01*
X167211379Y-100060412D01*
X167208500Y-100033629D01*
X167208500Y-99556371D01*
X167228502Y-99488250D01*
X167245405Y-99467276D01*
X168444150Y-98268531D01*
X168452423Y-98260963D01*
X168453732Y-98259868D01*
X168459852Y-98255856D01*
X168513128Y-98199617D01*
X168515506Y-98197175D01*
X169117276Y-97595405D01*
X169179588Y-97561379D01*
X169206371Y-97558500D01*
X171244293Y-97558500D01*
X171314036Y-97550369D01*
X171368411Y-97544030D01*
X171368415Y-97544029D01*
X171375681Y-97543182D01*
X171382556Y-97540687D01*
X171382558Y-97540686D01*
X171535061Y-97485329D01*
X171535062Y-97485329D01*
X171541937Y-97482833D01*
X171548054Y-97478822D01*
X171548057Y-97478821D01*
X171683733Y-97389868D01*
X171683734Y-97389867D01*
X171689852Y-97385856D01*
X171811490Y-97257453D01*
X171900326Y-97104510D01*
X171906688Y-97083506D01*
X171949473Y-96942239D01*
X171951595Y-96935233D01*
X171962547Y-96758702D01*
X171960907Y-96749154D01*
X171933834Y-96591602D01*
X171933834Y-96591601D01*
X171932594Y-96584386D01*
X171863343Y-96421636D01*
X171859010Y-96415748D01*
X171859007Y-96415743D01*
X171772065Y-96297604D01*
X171758508Y-96279182D01*
X171752930Y-96274443D01*
X171752927Y-96274440D01*
X171629294Y-96169406D01*
X171629290Y-96169403D01*
X171623715Y-96164667D01*
X171517417Y-96110388D01*
X171472708Y-96087558D01*
X171472706Y-96087557D01*
X171466192Y-96084231D01*
X171459087Y-96082492D01*
X171459083Y-96082491D01*
X171354162Y-96056818D01*
X171294390Y-96042192D01*
X171288788Y-96041844D01*
X171288785Y-96041844D01*
X171285175Y-96041620D01*
X171285165Y-96041620D01*
X171283236Y-96041500D01*
X168907070Y-96041500D01*
X168888120Y-96040067D01*
X168873885Y-96037901D01*
X168873881Y-96037901D01*
X168866651Y-96036801D01*
X168859359Y-96037394D01*
X168859356Y-96037394D01*
X168813982Y-96041085D01*
X168803767Y-96041500D01*
X168795707Y-96041500D01*
X168792073Y-96041924D01*
X168792067Y-96041924D01*
X168779042Y-96043443D01*
X168767480Y-96044791D01*
X168763132Y-96045221D01*
X168690364Y-96051140D01*
X168683403Y-96053395D01*
X168677463Y-96054582D01*
X168671588Y-96055971D01*
X168664319Y-96056818D01*
X168595670Y-96081736D01*
X168591542Y-96083153D01*
X168529064Y-96103393D01*
X168529062Y-96103394D01*
X168522101Y-96105649D01*
X168515846Y-96109445D01*
X168510372Y-96111951D01*
X168504942Y-96114670D01*
X168498063Y-96117167D01*
X168491943Y-96121180D01*
X168491942Y-96121180D01*
X168437024Y-96157186D01*
X168433320Y-96159523D01*
X168370893Y-96197405D01*
X168362516Y-96204803D01*
X168362492Y-96204776D01*
X168359500Y-96207429D01*
X168356267Y-96210132D01*
X168350148Y-96214144D01*
X168341791Y-96222966D01*
X168296890Y-96270364D01*
X168294512Y-96272806D01*
X168049475Y-96517843D01*
X167987163Y-96551869D01*
X167916348Y-96546804D01*
X167871285Y-96517843D01*
X167063908Y-95710466D01*
X167029882Y-95648154D01*
X167034947Y-95577339D01*
X167050681Y-95547844D01*
X167120992Y-95449998D01*
X167120993Y-95449997D01*
X167125424Y-95443830D01*
X167188894Y-95285940D01*
X167216707Y-95243842D01*
X167315144Y-95145405D01*
X167377456Y-95111379D01*
X167404239Y-95108500D01*
X169101864Y-95108500D01*
X169118307Y-95109578D01*
X169150000Y-95113750D01*
X169158189Y-95112672D01*
X169189874Y-95108501D01*
X169189884Y-95108500D01*
X169189885Y-95108500D01*
X169289457Y-95095391D01*
X169300664Y-95093916D01*
X169300666Y-95093915D01*
X169308851Y-95092838D01*
X169456876Y-95031524D01*
X169478441Y-95014977D01*
X169552072Y-94958477D01*
X169552075Y-94958474D01*
X169577437Y-94939013D01*
X169583987Y-94933987D01*
X169603458Y-94908613D01*
X169614316Y-94896233D01*
X173296234Y-91214315D01*
X173308625Y-91203448D01*
X173327437Y-91189013D01*
X173333987Y-91183987D01*
X173358474Y-91152075D01*
X173358478Y-91152071D01*
X173431524Y-91056876D01*
X173492838Y-90908851D01*
X173498934Y-90862547D01*
X173508500Y-90789885D01*
X173508500Y-90789880D01*
X173513750Y-90750000D01*
X173509578Y-90718307D01*
X173508500Y-90701864D01*
X173508500Y-90655072D01*
X173523558Y-90596427D01*
X173525424Y-90593830D01*
X173589385Y-90434720D01*
X173601960Y-90346362D01*
X173612966Y-90269031D01*
X173612966Y-90269027D01*
X173613547Y-90264947D01*
X173613704Y-90250000D01*
X173603683Y-90167192D01*
X173594015Y-90087299D01*
X173594014Y-90087296D01*
X173593102Y-90079758D01*
X173579009Y-90042460D01*
X173535171Y-89926447D01*
X173532487Y-89919344D01*
X173435357Y-89778019D01*
X173429686Y-89772966D01*
X173312993Y-89668996D01*
X173312990Y-89668994D01*
X173307321Y-89663943D01*
X173299325Y-89659709D01*
X173239767Y-89628175D01*
X173155769Y-89583700D01*
X173138196Y-89579286D01*
X172996822Y-89543775D01*
X172996818Y-89543775D01*
X172989451Y-89541924D01*
X172981852Y-89541884D01*
X172981850Y-89541884D01*
X172910394Y-89541510D01*
X172817969Y-89541026D01*
X172810589Y-89542798D01*
X172810587Y-89542798D01*
X172658602Y-89579286D01*
X172658598Y-89579287D01*
X172651223Y-89581058D01*
X172498839Y-89659709D01*
X172369615Y-89772439D01*
X172271010Y-89912739D01*
X172239864Y-89992624D01*
X172211719Y-90064813D01*
X172208718Y-90072509D01*
X172207726Y-90080042D01*
X172207726Y-90080043D01*
X172197245Y-90159658D01*
X172186335Y-90242526D01*
X172205153Y-90412975D01*
X172207762Y-90420106D01*
X172207763Y-90420108D01*
X172223413Y-90462873D01*
X172228039Y-90533719D01*
X172194182Y-90595269D01*
X168934856Y-93854595D01*
X168872544Y-93888621D01*
X168845761Y-93891500D01*
X167148136Y-93891500D01*
X167131693Y-93890422D01*
X167100000Y-93886250D01*
X167091811Y-93887328D01*
X167060126Y-93891499D01*
X167060117Y-93891500D01*
X167060115Y-93891500D01*
X167060109Y-93891501D01*
X167060107Y-93891501D01*
X166960543Y-93904609D01*
X166949336Y-93906084D01*
X166949334Y-93906085D01*
X166941149Y-93907162D01*
X166793124Y-93968476D01*
X166786573Y-93973503D01*
X166786571Y-93973504D01*
X166722518Y-94022654D01*
X166697928Y-94041523D01*
X166697925Y-94041526D01*
X166666013Y-94066013D01*
X166660983Y-94072568D01*
X166646548Y-94091379D01*
X166635681Y-94103770D01*
X166351583Y-94387868D01*
X166291902Y-94421292D01*
X166258602Y-94429286D01*
X166258598Y-94429287D01*
X166251223Y-94431058D01*
X166098839Y-94509709D01*
X166093111Y-94514706D01*
X166061657Y-94542145D01*
X165997175Y-94571853D01*
X165926868Y-94561983D01*
X165889733Y-94536291D01*
X165295405Y-93941963D01*
X165261379Y-93879651D01*
X165258500Y-93852868D01*
X165258500Y-91505707D01*
X165243182Y-91374319D01*
X165182833Y-91208063D01*
X165170344Y-91189013D01*
X165089868Y-91066267D01*
X165089867Y-91066266D01*
X165085856Y-91060148D01*
X164957453Y-90938510D01*
X164804510Y-90849674D01*
X164797506Y-90847553D01*
X164797502Y-90847551D01*
X164642239Y-90800527D01*
X164642240Y-90800527D01*
X164635233Y-90798405D01*
X164594755Y-90795894D01*
X164526697Y-90791671D01*
X164459946Y-90767489D01*
X164416865Y-90711057D01*
X164408500Y-90665913D01*
X164408500Y-90655072D01*
X164423558Y-90596427D01*
X164425424Y-90593830D01*
X164489385Y-90434720D01*
X164501960Y-90346362D01*
X164512966Y-90269031D01*
X164512966Y-90269027D01*
X164513547Y-90264947D01*
X164513704Y-90250000D01*
X164503683Y-90167192D01*
X164494015Y-90087299D01*
X164494014Y-90087296D01*
X164493102Y-90079758D01*
X164479009Y-90042460D01*
X164435171Y-89926447D01*
X164432487Y-89919344D01*
X164335357Y-89778019D01*
X164329686Y-89772966D01*
X164212993Y-89668996D01*
X164212990Y-89668994D01*
X164207321Y-89663943D01*
X164199325Y-89659709D01*
X164139767Y-89628175D01*
X164055769Y-89583700D01*
X164038196Y-89579286D01*
X163896822Y-89543775D01*
X163896818Y-89543775D01*
X163889451Y-89541924D01*
X163881852Y-89541884D01*
X163881850Y-89541884D01*
X163810394Y-89541510D01*
X163717969Y-89541026D01*
X163710589Y-89542798D01*
X163710587Y-89542798D01*
X163558602Y-89579286D01*
X163558598Y-89579287D01*
X163551223Y-89581058D01*
X163398839Y-89659709D01*
X163269615Y-89772439D01*
X163171010Y-89912739D01*
X163139864Y-89992624D01*
X163111719Y-90064813D01*
X163108718Y-90072509D01*
X163107726Y-90080042D01*
X163107726Y-90080043D01*
X163097245Y-90159658D01*
X163086335Y-90242526D01*
X163105153Y-90412975D01*
X163107762Y-90420106D01*
X163107763Y-90420108D01*
X163149339Y-90533719D01*
X163164085Y-90574015D01*
X163168320Y-90580318D01*
X163168325Y-90580327D01*
X163170083Y-90582943D01*
X163170716Y-90585018D01*
X163171771Y-90587090D01*
X163171404Y-90587277D01*
X163191500Y-90653216D01*
X163191500Y-94401864D01*
X163190422Y-94418307D01*
X163186250Y-94450000D01*
X163191500Y-94489880D01*
X163191500Y-94489885D01*
X163200580Y-94558851D01*
X163207162Y-94608851D01*
X163268476Y-94756876D01*
X163273503Y-94763427D01*
X163273504Y-94763429D01*
X163341520Y-94852069D01*
X163341526Y-94852075D01*
X163366013Y-94883987D01*
X163372568Y-94889017D01*
X163391379Y-94903452D01*
X163403770Y-94914319D01*
X164787055Y-96297604D01*
X164816286Y-96343398D01*
X164825781Y-96369344D01*
X164864085Y-96474015D01*
X164868322Y-96480321D01*
X164868324Y-96480324D01*
X164879313Y-96496677D01*
X164959730Y-96616349D01*
X164999140Y-96652209D01*
X165078490Y-96724412D01*
X165086565Y-96731760D01*
X165237268Y-96813585D01*
X165403139Y-96857101D01*
X165490586Y-96858474D01*
X165567003Y-96859675D01*
X165567006Y-96859675D01*
X165574602Y-96859794D01*
X165582006Y-96858098D01*
X165582008Y-96858098D01*
X165685382Y-96834422D01*
X165741759Y-96821510D01*
X165851938Y-96766096D01*
X165921781Y-96753358D01*
X165987425Y-96780402D01*
X165997646Y-96789566D01*
X166798604Y-97590524D01*
X166832630Y-97652836D01*
X166827565Y-97723651D01*
X166798604Y-97768714D01*
X165923342Y-98643976D01*
X165917655Y-98649322D01*
X165871596Y-98690000D01*
X165839091Y-98735994D01*
X165834368Y-98742677D01*
X165830287Y-98748132D01*
X165790266Y-98798716D01*
X165787167Y-98805347D01*
X165786246Y-98807318D01*
X165774999Y-98826682D01*
X165769516Y-98834440D01*
X165745387Y-98894311D01*
X165742696Y-98900499D01*
X165715378Y-98958950D01*
X165713886Y-98966122D01*
X165713886Y-98966123D01*
X165713445Y-98968244D01*
X165706954Y-98989676D01*
X165703402Y-98998489D01*
X165702302Y-99005719D01*
X165702301Y-99005723D01*
X165693699Y-99062270D01*
X165692492Y-99068978D01*
X165679360Y-99132115D01*
X165679558Y-99139426D01*
X165679617Y-99141594D01*
X165678229Y-99163962D01*
X165676801Y-99173349D01*
X165677394Y-99180640D01*
X165677394Y-99180643D01*
X165682030Y-99237632D01*
X165682399Y-99244441D01*
X165683179Y-99273272D01*
X165684143Y-99308921D01*
X165686578Y-99318104D01*
X165690370Y-99340174D01*
X165691086Y-99348968D01*
X165691500Y-99359176D01*
X165691500Y-99519334D01*
X165671498Y-99587455D01*
X165617842Y-99633948D01*
X165580102Y-99644485D01*
X165578971Y-99644617D01*
X165577498Y-99644789D01*
X165573118Y-99645222D01*
X165507661Y-99650546D01*
X165507658Y-99650547D01*
X165500363Y-99651140D01*
X165493399Y-99653396D01*
X165487440Y-99654587D01*
X165481585Y-99655971D01*
X165474319Y-99656818D01*
X165405673Y-99681735D01*
X165401545Y-99683152D01*
X165339064Y-99703393D01*
X165339062Y-99703394D01*
X165332101Y-99705649D01*
X165325846Y-99709445D01*
X165320372Y-99711951D01*
X165314942Y-99714670D01*
X165308063Y-99717167D01*
X165247016Y-99757191D01*
X165243327Y-99759518D01*
X165223135Y-99771771D01*
X165185693Y-99794491D01*
X165185688Y-99794495D01*
X165180892Y-99797405D01*
X165176685Y-99801121D01*
X165176682Y-99801123D01*
X165172545Y-99804777D01*
X165172516Y-99804803D01*
X165172493Y-99804777D01*
X165169503Y-99807426D01*
X165166264Y-99810134D01*
X165160148Y-99814144D01*
X165155121Y-99819451D01*
X165155117Y-99819454D01*
X165106872Y-99870383D01*
X165104494Y-99872825D01*
X156811089Y-108166230D01*
X156796677Y-108178616D01*
X156785082Y-108187149D01*
X156785077Y-108187154D01*
X156779182Y-108191492D01*
X156774443Y-108197070D01*
X156774440Y-108197073D01*
X156744965Y-108231768D01*
X156738035Y-108239284D01*
X156732340Y-108244979D01*
X156730060Y-108247861D01*
X156714719Y-108267251D01*
X156711928Y-108270655D01*
X156700964Y-108283561D01*
X156664667Y-108326285D01*
X156661339Y-108332801D01*
X156657972Y-108337850D01*
X156654805Y-108342979D01*
X156650266Y-108348716D01*
X156619345Y-108414875D01*
X156617442Y-108418769D01*
X156584231Y-108483808D01*
X156582492Y-108490916D01*
X156580393Y-108496559D01*
X156578476Y-108502322D01*
X156575378Y-108508950D01*
X156573888Y-108516112D01*
X156573888Y-108516113D01*
X156560514Y-108580412D01*
X156559544Y-108584696D01*
X156542192Y-108655610D01*
X156541500Y-108666764D01*
X156541464Y-108666762D01*
X156541225Y-108670755D01*
X156540851Y-108674947D01*
X156539360Y-108682115D01*
X156539558Y-108689432D01*
X156541454Y-108759521D01*
X156541500Y-108762928D01*
X156541500Y-115001129D01*
X156521498Y-115069250D01*
X156504595Y-115090224D01*
X155947673Y-115647146D01*
X155885361Y-115681172D01*
X155814546Y-115676107D01*
X155757710Y-115633560D01*
X155732899Y-115567040D01*
X155732621Y-115554751D01*
X155733238Y-115531202D01*
X155733335Y-115527500D01*
X155717443Y-115354550D01*
X155714886Y-115326720D01*
X155714885Y-115326717D01*
X155714357Y-115320966D01*
X155710842Y-115308500D01*
X155659627Y-115126908D01*
X155659626Y-115126906D01*
X155658059Y-115121349D01*
X155654361Y-115113849D01*
X155568882Y-114940515D01*
X155566327Y-114935334D01*
X155560727Y-114927834D01*
X155445685Y-114773775D01*
X155445684Y-114773774D01*
X155442232Y-114769151D01*
X155289931Y-114628365D01*
X155114523Y-114517691D01*
X154921885Y-114440836D01*
X154916228Y-114439711D01*
X154916222Y-114439709D01*
X154724133Y-114401501D01*
X154724131Y-114401501D01*
X154718466Y-114400374D01*
X154712691Y-114400298D01*
X154712687Y-114400298D01*
X154608848Y-114398939D01*
X154511080Y-114397659D01*
X154505383Y-114398638D01*
X154505382Y-114398638D01*
X154312368Y-114431803D01*
X154312367Y-114431803D01*
X154306671Y-114432782D01*
X154112087Y-114504569D01*
X154107126Y-114507521D01*
X154107125Y-114507521D01*
X154097458Y-114513272D01*
X153933842Y-114610613D01*
X153929502Y-114614419D01*
X153929498Y-114614422D01*
X153847231Y-114686569D01*
X153777908Y-114747364D01*
X153649505Y-114910242D01*
X153646816Y-114915353D01*
X153646814Y-114915356D01*
X153601687Y-115001129D01*
X153552935Y-115093791D01*
X153531364Y-115163261D01*
X153493760Y-115284366D01*
X153491431Y-115291866D01*
X153467053Y-115497833D01*
X153480618Y-115704793D01*
X153531671Y-115905815D01*
X153618503Y-116094167D01*
X153738205Y-116263542D01*
X153742339Y-116267569D01*
X153858965Y-116381181D01*
X153886769Y-116408267D01*
X153891565Y-116411472D01*
X153891568Y-116411474D01*
X153999166Y-116483368D01*
X154059219Y-116523494D01*
X154064522Y-116525772D01*
X154064525Y-116525774D01*
X154232323Y-116597866D01*
X154249780Y-116605366D01*
X154315183Y-116620165D01*
X154446433Y-116649864D01*
X154446438Y-116649865D01*
X154452070Y-116651139D01*
X154457841Y-116651366D01*
X154457843Y-116651366D01*
X154512984Y-116653532D01*
X154637259Y-116658415D01*
X154704541Y-116681076D01*
X154748891Y-116736516D01*
X154756228Y-116807132D01*
X154721406Y-116873413D01*
X154692862Y-116901957D01*
X154630550Y-116935983D01*
X154602117Y-116938851D01*
X154600158Y-116938825D01*
X154511080Y-116937659D01*
X154505384Y-116938638D01*
X154505381Y-116938638D01*
X154312368Y-116971803D01*
X154312367Y-116971803D01*
X154306671Y-116972782D01*
X154112087Y-117044569D01*
X153933842Y-117150613D01*
X153929502Y-117154419D01*
X153929498Y-117154422D01*
X153790801Y-117276057D01*
X153777908Y-117287364D01*
X153649505Y-117450242D01*
X153646816Y-117455353D01*
X153646814Y-117455356D01*
X153594144Y-117555466D01*
X153552935Y-117633791D01*
X153519176Y-117742511D01*
X153493760Y-117824366D01*
X153491431Y-117831866D01*
X153467053Y-118037833D01*
X153480618Y-118244793D01*
X153531671Y-118445815D01*
X153618503Y-118634167D01*
X153738205Y-118803542D01*
X153886769Y-118948267D01*
X153891565Y-118951472D01*
X153891568Y-118951474D01*
X153970684Y-119004337D01*
X154059219Y-119063494D01*
X154064522Y-119065772D01*
X154064525Y-119065774D01*
X154232323Y-119137866D01*
X154249780Y-119145366D01*
X154315183Y-119160165D01*
X154446433Y-119189864D01*
X154446438Y-119189865D01*
X154452070Y-119191139D01*
X154457841Y-119191366D01*
X154457843Y-119191366D01*
X154519612Y-119193793D01*
X154659314Y-119199282D01*
X154767202Y-119183639D01*
X154858858Y-119170350D01*
X154858863Y-119170349D01*
X154864572Y-119169521D01*
X154870040Y-119167665D01*
X155055497Y-119104711D01*
X155055502Y-119104709D01*
X155060969Y-119102853D01*
X155074362Y-119095353D01*
X155144642Y-119055994D01*
X155241928Y-119001511D01*
X155401389Y-118868889D01*
X155534011Y-118709428D01*
X155601663Y-118588626D01*
X155632529Y-118533512D01*
X155632530Y-118533510D01*
X155635353Y-118528469D01*
X155637209Y-118523002D01*
X155637211Y-118522997D01*
X155700165Y-118337540D01*
X155700165Y-118337539D01*
X155702021Y-118332072D01*
X155702849Y-118326363D01*
X155702850Y-118326358D01*
X155731249Y-118130488D01*
X155731782Y-118126814D01*
X155733335Y-118067500D01*
X155732995Y-118063803D01*
X155732988Y-118063580D01*
X155750747Y-117994840D01*
X155769825Y-117970356D01*
X157788911Y-115951270D01*
X157803323Y-115938884D01*
X157814918Y-115930351D01*
X157814923Y-115930346D01*
X157820818Y-115926008D01*
X157825557Y-115920430D01*
X157825560Y-115920427D01*
X157855035Y-115885732D01*
X157861965Y-115878216D01*
X157867661Y-115872520D01*
X157869924Y-115869659D01*
X157869929Y-115869654D01*
X157885285Y-115850244D01*
X157888074Y-115846842D01*
X157930596Y-115796791D01*
X157930597Y-115796790D01*
X157935333Y-115791215D01*
X157938661Y-115784698D01*
X157942027Y-115779650D01*
X157945190Y-115774528D01*
X157949735Y-115768784D01*
X157980664Y-115702605D01*
X157982563Y-115698721D01*
X158015769Y-115633692D01*
X158017510Y-115626577D01*
X158019613Y-115620922D01*
X158021522Y-115615183D01*
X158024622Y-115608550D01*
X158039491Y-115537065D01*
X158040461Y-115532782D01*
X158040848Y-115531202D01*
X158057808Y-115461890D01*
X158058500Y-115450736D01*
X158058535Y-115450738D01*
X158058775Y-115446766D01*
X158059152Y-115442545D01*
X158060641Y-115435385D01*
X158058546Y-115357958D01*
X158058500Y-115354550D01*
X158058500Y-109116371D01*
X158078502Y-109048250D01*
X158095405Y-109027276D01*
X165927276Y-101195405D01*
X165989588Y-101161379D01*
X166016371Y-101158500D01*
X166083629Y-101158500D01*
X166151750Y-101178502D01*
X166172724Y-101195405D01*
X167066230Y-102088911D01*
X167078616Y-102103323D01*
X167087149Y-102114918D01*
X167087154Y-102114923D01*
X167091492Y-102120818D01*
X167097070Y-102125557D01*
X167097073Y-102125560D01*
X167131768Y-102155035D01*
X167139284Y-102161965D01*
X167144979Y-102167660D01*
X167146460Y-102168831D01*
X167183847Y-102228755D01*
X167182897Y-102299745D01*
X167153961Y-102349285D01*
X167133976Y-102370382D01*
X167131597Y-102372825D01*
X160349827Y-109154595D01*
X160287515Y-109188621D01*
X160260732Y-109191500D01*
X158801866Y-109191500D01*
X158739684Y-109198255D01*
X158603295Y-109249385D01*
X158486739Y-109336739D01*
X158399385Y-109453295D01*
X158348255Y-109589684D01*
X158341500Y-109651866D01*
X158341500Y-114848134D01*
X158348255Y-114910316D01*
X158399385Y-115046705D01*
X158486739Y-115163261D01*
X158603295Y-115250615D01*
X158739684Y-115301745D01*
X158801866Y-115308500D01*
X161398134Y-115308500D01*
X161460316Y-115301745D01*
X161596705Y-115250615D01*
X161713261Y-115163261D01*
X161800615Y-115046705D01*
X161851745Y-114910316D01*
X161858500Y-114848134D01*
X161858500Y-109843474D01*
X161878502Y-109775353D01*
X161895405Y-109754379D01*
X167954378Y-103695405D01*
X168016690Y-103661379D01*
X168043473Y-103658500D01*
X175083629Y-103658500D01*
X175151750Y-103678502D01*
X175172724Y-103695405D01*
X181204595Y-109727276D01*
X181238621Y-109789588D01*
X181241500Y-109816371D01*
X181241500Y-114848134D01*
X181248255Y-114910316D01*
X181299385Y-115046705D01*
X181386739Y-115163261D01*
X181503295Y-115250615D01*
X181639684Y-115301745D01*
X181701866Y-115308500D01*
X184086613Y-115308500D01*
X184154734Y-115328502D01*
X184201227Y-115382158D01*
X184212613Y-115434561D01*
X184211322Y-118122988D01*
X184210174Y-120513002D01*
X184210164Y-120533350D01*
X184208663Y-120552673D01*
X184204948Y-120576531D01*
X184206112Y-120585434D01*
X184206112Y-120585437D01*
X184206127Y-120585551D01*
X184206398Y-120616000D01*
X184199402Y-120678079D01*
X184193126Y-120705579D01*
X184166149Y-120782675D01*
X184153912Y-120808086D01*
X184113630Y-120872194D01*
X184110456Y-120877246D01*
X184092867Y-120899302D01*
X184035114Y-120957058D01*
X184013053Y-120974651D01*
X183943903Y-121018102D01*
X183918485Y-121030344D01*
X183841391Y-121057323D01*
X183813883Y-121063602D01*
X183758489Y-121069845D01*
X183742753Y-121069527D01*
X183742740Y-121070613D01*
X183733765Y-121070504D01*
X183724895Y-121069123D01*
X183715996Y-121070287D01*
X183715995Y-121070287D01*
X183713809Y-121070573D01*
X183693341Y-121073250D01*
X183677002Y-121074314D01*
X153730142Y-121074314D01*
X153710752Y-121072813D01*
X153695933Y-121070505D01*
X153687059Y-121069123D01*
X153678156Y-121070287D01*
X153678153Y-121070287D01*
X153678031Y-121070303D01*
X153647586Y-121070573D01*
X153585522Y-121063578D01*
X153558015Y-121057299D01*
X153480930Y-121030323D01*
X153455512Y-121018081D01*
X153386362Y-120974630D01*
X153364302Y-120957038D01*
X153306554Y-120899288D01*
X153288964Y-120877230D01*
X153245515Y-120808081D01*
X153233273Y-120782662D01*
X153227243Y-120765431D01*
X153206297Y-120705571D01*
X153200020Y-120678070D01*
X153193945Y-120624154D01*
X153193664Y-120599396D01*
X153194341Y-120595373D01*
X153194414Y-120589350D01*
X153194456Y-120589083D01*
X153194421Y-120588815D01*
X153194494Y-120582821D01*
X153184714Y-120514525D01*
X153184506Y-120513002D01*
X153176609Y-120452613D01*
X153176608Y-120452611D01*
X153175568Y-120444655D01*
X153174295Y-120441762D01*
X153173847Y-120438634D01*
X153145281Y-120375803D01*
X153144681Y-120374462D01*
X153120128Y-120318666D01*
X153116902Y-120311334D01*
X153114870Y-120308916D01*
X153113561Y-120306038D01*
X153097648Y-120287569D01*
X153068542Y-120253789D01*
X153067547Y-120252620D01*
X153023177Y-120199836D01*
X153020543Y-120198083D01*
X153018483Y-120195692D01*
X152960618Y-120158183D01*
X152959377Y-120157368D01*
X152908592Y-120123565D01*
X152901925Y-120119127D01*
X152898911Y-120118185D01*
X152896257Y-120116465D01*
X152830165Y-120096699D01*
X152828739Y-120096262D01*
X152770561Y-120078086D01*
X152770553Y-120078085D01*
X152762894Y-120075692D01*
X152759732Y-120075634D01*
X152756706Y-120074729D01*
X152687678Y-120074306D01*
X152686283Y-120074289D01*
X152617260Y-120073025D01*
X152614211Y-120073856D01*
X152611051Y-120073837D01*
X152544611Y-120092825D01*
X152543388Y-120093166D01*
X152476732Y-120111340D01*
X152474038Y-120112994D01*
X152471001Y-120113862D01*
X152464221Y-120118140D01*
X152464218Y-120118141D01*
X152412688Y-120150653D01*
X152411409Y-120151449D01*
X152352605Y-120187556D01*
X152350484Y-120189899D01*
X152347812Y-120191585D01*
X152342503Y-120197596D01*
X152342502Y-120197597D01*
X152302172Y-120243261D01*
X152301180Y-120244371D01*
X152254860Y-120295546D01*
X152253481Y-120298393D01*
X152251391Y-120300759D01*
X152247977Y-120308031D01*
X152247976Y-120308032D01*
X152222091Y-120363163D01*
X152221481Y-120364442D01*
X152191353Y-120426630D01*
X152190829Y-120429748D01*
X152189486Y-120432607D01*
X152188249Y-120440551D01*
X152188248Y-120440554D01*
X152178870Y-120500772D01*
X152178625Y-120502286D01*
X152168116Y-120564756D01*
X152167189Y-120570269D01*
X152167116Y-120576262D01*
X152167074Y-120576531D01*
X152167109Y-120576802D01*
X152167036Y-120582821D01*
X152167725Y-120587634D01*
X152168042Y-120592490D01*
X152167754Y-120592509D01*
X152168157Y-120619259D01*
X152162161Y-120672471D01*
X152161531Y-120678061D01*
X152155252Y-120705568D01*
X152155249Y-120705579D01*
X152128279Y-120782649D01*
X152116037Y-120808068D01*
X152075743Y-120872194D01*
X152072590Y-120877211D01*
X152054998Y-120899269D01*
X152026119Y-120928147D01*
X151997250Y-120957014D01*
X151975192Y-120974603D01*
X151906050Y-121018046D01*
X151880626Y-121030289D01*
X151803543Y-121057258D01*
X151776037Y-121063535D01*
X151720181Y-121069827D01*
X151704534Y-121070610D01*
X151695929Y-121070505D01*
X151687059Y-121069123D01*
X151662826Y-121072291D01*
X151655827Y-121073206D01*
X151639357Y-121074269D01*
X121713849Y-121041569D01*
X121689049Y-121039075D01*
X121679306Y-121037107D01*
X121670358Y-121037871D01*
X121661398Y-121037359D01*
X121661400Y-121037320D01*
X121639940Y-121036428D01*
X121557241Y-121022378D01*
X121527529Y-121013456D01*
X121442274Y-120975881D01*
X121434569Y-120972485D01*
X121407942Y-120956577D01*
X121327801Y-120894125D01*
X121305875Y-120872199D01*
X121243423Y-120792058D01*
X121227515Y-120765431D01*
X121186544Y-120672471D01*
X121177622Y-120642759D01*
X121168548Y-120589350D01*
X121164370Y-120564754D01*
X121162657Y-120547764D01*
X121162474Y-120542157D01*
X121163456Y-120533233D01*
X121160422Y-120516061D01*
X121158500Y-120494139D01*
X121158500Y-117642575D01*
X135636404Y-117642575D01*
X135637936Y-117659408D01*
X135652949Y-117824366D01*
X135655218Y-117849303D01*
X135656956Y-117855209D01*
X135656957Y-117855213D01*
X135690846Y-117970356D01*
X135713827Y-118048440D01*
X135809999Y-118232400D01*
X135940071Y-118394177D01*
X135944788Y-118398135D01*
X135944790Y-118398137D01*
X136001611Y-118445815D01*
X136099089Y-118527609D01*
X136104481Y-118530573D01*
X136104485Y-118530576D01*
X136269734Y-118621422D01*
X136280995Y-118627613D01*
X136478861Y-118690379D01*
X136484978Y-118691065D01*
X136484982Y-118691066D01*
X136561598Y-118699659D01*
X136640413Y-118708500D01*
X136752237Y-118708500D01*
X136755293Y-118708200D01*
X136755300Y-118708200D01*
X136900466Y-118693966D01*
X136900469Y-118693965D01*
X136906592Y-118693365D01*
X137038546Y-118653526D01*
X137099407Y-118635152D01*
X137099410Y-118635151D01*
X137105315Y-118633368D01*
X137113677Y-118628922D01*
X137283153Y-118538809D01*
X137283155Y-118538808D01*
X137288599Y-118535913D01*
X137392638Y-118451061D01*
X137444689Y-118408610D01*
X137444692Y-118408607D01*
X137449464Y-118404715D01*
X137505037Y-118337540D01*
X137547272Y-118286486D01*
X137581783Y-118244770D01*
X137584714Y-118239350D01*
X137677584Y-118067590D01*
X137677586Y-118067585D01*
X137680514Y-118062170D01*
X137690369Y-118030333D01*
X149617053Y-118030333D01*
X149630618Y-118237293D01*
X149681671Y-118438315D01*
X149768503Y-118626667D01*
X149888205Y-118796042D01*
X150036769Y-118940767D01*
X150041565Y-118943972D01*
X150041568Y-118943974D01*
X150178155Y-119035238D01*
X150209219Y-119055994D01*
X150214522Y-119058272D01*
X150214525Y-119058274D01*
X150322610Y-119104711D01*
X150399780Y-119137866D01*
X150473521Y-119154552D01*
X150596433Y-119182364D01*
X150596438Y-119182365D01*
X150602070Y-119183639D01*
X150607841Y-119183866D01*
X150607843Y-119183866D01*
X150669612Y-119186293D01*
X150809314Y-119191782D01*
X150911943Y-119176902D01*
X151008858Y-119162850D01*
X151008863Y-119162849D01*
X151014572Y-119162021D01*
X151020040Y-119160165D01*
X151205497Y-119097211D01*
X151205502Y-119097209D01*
X151210969Y-119095353D01*
X151391928Y-118994011D01*
X151551389Y-118861389D01*
X151684011Y-118701928D01*
X151781153Y-118528469D01*
X151782529Y-118526012D01*
X151782530Y-118526010D01*
X151785353Y-118520969D01*
X151787209Y-118515502D01*
X151787211Y-118515497D01*
X151850165Y-118330040D01*
X151850165Y-118330039D01*
X151852021Y-118324572D01*
X151852849Y-118318863D01*
X151852850Y-118318858D01*
X151880162Y-118130488D01*
X151881782Y-118119314D01*
X151883335Y-118060000D01*
X151864357Y-117853466D01*
X151858266Y-117831866D01*
X151809627Y-117659408D01*
X151809626Y-117659406D01*
X151808059Y-117653849D01*
X151802500Y-117642575D01*
X151718882Y-117473015D01*
X151716327Y-117467834D01*
X151708115Y-117456836D01*
X151595685Y-117306275D01*
X151595684Y-117306274D01*
X151592232Y-117301651D01*
X151439931Y-117160865D01*
X151264523Y-117050191D01*
X151071885Y-116973336D01*
X151066228Y-116972211D01*
X151066222Y-116972209D01*
X150874133Y-116934001D01*
X150874131Y-116934001D01*
X150868466Y-116932874D01*
X150862691Y-116932798D01*
X150862687Y-116932798D01*
X150758848Y-116931439D01*
X150661080Y-116930159D01*
X150655383Y-116931138D01*
X150655382Y-116931138D01*
X150462368Y-116964303D01*
X150462367Y-116964303D01*
X150456671Y-116965282D01*
X150262087Y-117037069D01*
X150083842Y-117143113D01*
X150079502Y-117146919D01*
X150079498Y-117146922D01*
X149932249Y-117276057D01*
X149927908Y-117279864D01*
X149924333Y-117284399D01*
X149924332Y-117284400D01*
X149913820Y-117297735D01*
X149799505Y-117442742D01*
X149796816Y-117447853D01*
X149796814Y-117447856D01*
X149744144Y-117547966D01*
X149702935Y-117626291D01*
X149641431Y-117824366D01*
X149617053Y-118030333D01*
X137690369Y-118030333D01*
X137741898Y-117863871D01*
X137743576Y-117847905D01*
X137762952Y-117663554D01*
X137762952Y-117663552D01*
X137763596Y-117657425D01*
X137744782Y-117450697D01*
X137742298Y-117442255D01*
X137687912Y-117257469D01*
X137686173Y-117251560D01*
X137590001Y-117067600D01*
X137459929Y-116905823D01*
X137447371Y-116895285D01*
X137305629Y-116776350D01*
X137300911Y-116772391D01*
X137295519Y-116769427D01*
X137295515Y-116769424D01*
X137124402Y-116675354D01*
X137119005Y-116672387D01*
X136921139Y-116609621D01*
X136915022Y-116608935D01*
X136915018Y-116608934D01*
X136838402Y-116600341D01*
X136759587Y-116591500D01*
X136647763Y-116591500D01*
X136644707Y-116591800D01*
X136644700Y-116591800D01*
X136499534Y-116606034D01*
X136499531Y-116606035D01*
X136493408Y-116606635D01*
X136375066Y-116642364D01*
X136300593Y-116664848D01*
X136300590Y-116664849D01*
X136294685Y-116666632D01*
X136289240Y-116669527D01*
X136289238Y-116669528D01*
X136116847Y-116761191D01*
X136116845Y-116761192D01*
X136111401Y-116764087D01*
X136051529Y-116812917D01*
X135955311Y-116891390D01*
X135955308Y-116891393D01*
X135950536Y-116895285D01*
X135946608Y-116900033D01*
X135946607Y-116900034D01*
X135919502Y-116932798D01*
X135818217Y-117055230D01*
X135815288Y-117060647D01*
X135815286Y-117060650D01*
X135722416Y-117232410D01*
X135722414Y-117232415D01*
X135719486Y-117237830D01*
X135658102Y-117436129D01*
X135657458Y-117442254D01*
X135657458Y-117442255D01*
X135655926Y-117456836D01*
X135636404Y-117642575D01*
X121158500Y-117642575D01*
X121158500Y-116048134D01*
X143251500Y-116048134D01*
X143258255Y-116110316D01*
X143309385Y-116246705D01*
X143396739Y-116363261D01*
X143513295Y-116450615D01*
X143649684Y-116501745D01*
X143711866Y-116508500D01*
X145508134Y-116508500D01*
X145570316Y-116501745D01*
X145706705Y-116450615D01*
X145823261Y-116363261D01*
X145910615Y-116246705D01*
X145944289Y-116156881D01*
X145954598Y-116129382D01*
X145997240Y-116072618D01*
X146063802Y-116047918D01*
X146133150Y-116063126D01*
X146167817Y-116091114D01*
X146196250Y-116123938D01*
X146368126Y-116266632D01*
X146561000Y-116379338D01*
X146769692Y-116459030D01*
X146774760Y-116460061D01*
X146774763Y-116460062D01*
X146882017Y-116481883D01*
X146988597Y-116503567D01*
X146993772Y-116503757D01*
X146993774Y-116503757D01*
X147206673Y-116511564D01*
X147206677Y-116511564D01*
X147211837Y-116511753D01*
X147216957Y-116511097D01*
X147216959Y-116511097D01*
X147428288Y-116484025D01*
X147428289Y-116484025D01*
X147433416Y-116483368D01*
X147438366Y-116481883D01*
X147642429Y-116420661D01*
X147642434Y-116420659D01*
X147647384Y-116419174D01*
X147847994Y-116320896D01*
X148029860Y-116191173D01*
X148059208Y-116161928D01*
X148173616Y-116047918D01*
X148188096Y-116033489D01*
X148222212Y-115986012D01*
X148315435Y-115856277D01*
X148318453Y-115852077D01*
X148321041Y-115846842D01*
X148415136Y-115656453D01*
X148415137Y-115656451D01*
X148417430Y-115651811D01*
X148466491Y-115490333D01*
X149617053Y-115490333D01*
X149630618Y-115697293D01*
X149681671Y-115898315D01*
X149768503Y-116086667D01*
X149888205Y-116256042D01*
X149892339Y-116260069D01*
X150014772Y-116379338D01*
X150036769Y-116400767D01*
X150041565Y-116403972D01*
X150041568Y-116403974D01*
X150161374Y-116484025D01*
X150209219Y-116515994D01*
X150214522Y-116518272D01*
X150214525Y-116518274D01*
X150394473Y-116595586D01*
X150399780Y-116597866D01*
X150459964Y-116611484D01*
X150596433Y-116642364D01*
X150596438Y-116642365D01*
X150602070Y-116643639D01*
X150607841Y-116643866D01*
X150607843Y-116643866D01*
X150669612Y-116646293D01*
X150809314Y-116651782D01*
X150911943Y-116636901D01*
X151008858Y-116622850D01*
X151008863Y-116622849D01*
X151014572Y-116622021D01*
X151045613Y-116611484D01*
X151205497Y-116557211D01*
X151205502Y-116557209D01*
X151210969Y-116555353D01*
X151391928Y-116454011D01*
X151551389Y-116321389D01*
X151684011Y-116161928D01*
X151785353Y-115980969D01*
X151787209Y-115975502D01*
X151787211Y-115975497D01*
X151850165Y-115790040D01*
X151850165Y-115790039D01*
X151852021Y-115784572D01*
X151852849Y-115778863D01*
X151852850Y-115778858D01*
X151872952Y-115640213D01*
X151881782Y-115579314D01*
X151883335Y-115520000D01*
X151864357Y-115313466D01*
X151861052Y-115301745D01*
X151809627Y-115119408D01*
X151809626Y-115119406D01*
X151808059Y-115113849D01*
X151800893Y-115099316D01*
X151718882Y-114933015D01*
X151716327Y-114927834D01*
X151703191Y-114910242D01*
X151595685Y-114766275D01*
X151595684Y-114766274D01*
X151592232Y-114761651D01*
X151452284Y-114632284D01*
X151444171Y-114624784D01*
X151444168Y-114624782D01*
X151439931Y-114620865D01*
X151264523Y-114510191D01*
X151071885Y-114433336D01*
X151066228Y-114432211D01*
X151066222Y-114432209D01*
X150874133Y-114394001D01*
X150874131Y-114394001D01*
X150868466Y-114392874D01*
X150862691Y-114392798D01*
X150862687Y-114392798D01*
X150758848Y-114391439D01*
X150661080Y-114390159D01*
X150655383Y-114391138D01*
X150655382Y-114391138D01*
X150462368Y-114424303D01*
X150462367Y-114424303D01*
X150456671Y-114425282D01*
X150262087Y-114497069D01*
X150257126Y-114500021D01*
X150257125Y-114500021D01*
X150252839Y-114502571D01*
X150083842Y-114603113D01*
X150079502Y-114606919D01*
X150079498Y-114606922D01*
X149988679Y-114686569D01*
X149927908Y-114739864D01*
X149924333Y-114744399D01*
X149924332Y-114744400D01*
X149910732Y-114761651D01*
X149799505Y-114902742D01*
X149796816Y-114907853D01*
X149796814Y-114907856D01*
X149747741Y-115001129D01*
X149702935Y-115086291D01*
X149641431Y-115284366D01*
X149617053Y-115490333D01*
X148466491Y-115490333D01*
X148478521Y-115450738D01*
X148480865Y-115443023D01*
X148480865Y-115443021D01*
X148482370Y-115438069D01*
X148511529Y-115216590D01*
X148512832Y-115163261D01*
X148513074Y-115153365D01*
X148513074Y-115153361D01*
X148513156Y-115150000D01*
X148494852Y-114927361D01*
X148440431Y-114710702D01*
X148351354Y-114505840D01*
X148230014Y-114318277D01*
X148079670Y-114153051D01*
X148075619Y-114149852D01*
X148075615Y-114149848D01*
X147908414Y-114017800D01*
X147908410Y-114017798D01*
X147904359Y-114014598D01*
X147708789Y-113906638D01*
X147703920Y-113904914D01*
X147703916Y-113904912D01*
X147503087Y-113833795D01*
X147503083Y-113833794D01*
X147498212Y-113832069D01*
X147493119Y-113831162D01*
X147493116Y-113831161D01*
X147283373Y-113793800D01*
X147283367Y-113793799D01*
X147278284Y-113792894D01*
X147204452Y-113791992D01*
X147060081Y-113790228D01*
X147060079Y-113790228D01*
X147054911Y-113790165D01*
X146834091Y-113823955D01*
X146621756Y-113893357D01*
X146423607Y-113996507D01*
X146419474Y-113999610D01*
X146419471Y-113999612D01*
X146251363Y-114125831D01*
X146244965Y-114130635D01*
X146188537Y-114189684D01*
X146164283Y-114215064D01*
X146102759Y-114250494D01*
X146031846Y-114247037D01*
X145974060Y-114205791D01*
X145955207Y-114172243D01*
X145913767Y-114061703D01*
X145910615Y-114053295D01*
X145823261Y-113936739D01*
X145706705Y-113849385D01*
X145570316Y-113798255D01*
X145508134Y-113791500D01*
X143711866Y-113791500D01*
X143649684Y-113798255D01*
X143513295Y-113849385D01*
X143396739Y-113936739D01*
X143309385Y-114053295D01*
X143258255Y-114189684D01*
X143251500Y-114251866D01*
X143251500Y-116048134D01*
X121158500Y-116048134D01*
X121158500Y-113945487D01*
X135791500Y-113945487D01*
X135792872Y-113951939D01*
X135792872Y-113951944D01*
X135806745Y-114017211D01*
X135831206Y-114132288D01*
X135833891Y-114138318D01*
X135833891Y-114138319D01*
X135885967Y-114255283D01*
X135908882Y-114306752D01*
X135912762Y-114312093D01*
X135912763Y-114312094D01*
X135949136Y-114362157D01*
X136021134Y-114461253D01*
X136026044Y-114465674D01*
X136026045Y-114465675D01*
X136087237Y-114520772D01*
X136163056Y-114589040D01*
X136328444Y-114684527D01*
X136510072Y-114743542D01*
X136516633Y-114744232D01*
X136516635Y-114744232D01*
X136546436Y-114747364D01*
X136652390Y-114758500D01*
X136747610Y-114758500D01*
X136853564Y-114747364D01*
X136883365Y-114744232D01*
X136883367Y-114744232D01*
X136889928Y-114743542D01*
X137071556Y-114684527D01*
X137236944Y-114589040D01*
X137312764Y-114520772D01*
X137373955Y-114465675D01*
X137373956Y-114465674D01*
X137378866Y-114461253D01*
X137450864Y-114362157D01*
X137487237Y-114312094D01*
X137487238Y-114312093D01*
X137491118Y-114306752D01*
X137514034Y-114255283D01*
X137566109Y-114138319D01*
X137566109Y-114138318D01*
X137568794Y-114132288D01*
X137593255Y-114017211D01*
X137607128Y-113951944D01*
X137607128Y-113951939D01*
X137608500Y-113945487D01*
X137608500Y-113754513D01*
X137599321Y-113711327D01*
X137570166Y-113574169D01*
X137568794Y-113567712D01*
X137564863Y-113558883D01*
X137493803Y-113399278D01*
X137493802Y-113399276D01*
X137491118Y-113393248D01*
X137378866Y-113238747D01*
X137236944Y-113110960D01*
X137071556Y-113015473D01*
X136889928Y-112956458D01*
X136883367Y-112955768D01*
X136883365Y-112955768D01*
X136831652Y-112950333D01*
X149617053Y-112950333D01*
X149630618Y-113157293D01*
X149681671Y-113358315D01*
X149768503Y-113546667D01*
X149888205Y-113716042D01*
X149934475Y-113761116D01*
X150009082Y-113833795D01*
X150036769Y-113860767D01*
X150041565Y-113863972D01*
X150041568Y-113863974D01*
X150178155Y-113955238D01*
X150209219Y-113975994D01*
X150214522Y-113978272D01*
X150214525Y-113978274D01*
X150322610Y-114024711D01*
X150399780Y-114057866D01*
X150473521Y-114074552D01*
X150596433Y-114102364D01*
X150596438Y-114102365D01*
X150602070Y-114103639D01*
X150607841Y-114103866D01*
X150607843Y-114103866D01*
X150669612Y-114106293D01*
X150809314Y-114111782D01*
X150911943Y-114096901D01*
X151008858Y-114082850D01*
X151008863Y-114082849D01*
X151014572Y-114082021D01*
X151020040Y-114080165D01*
X151205497Y-114017211D01*
X151205502Y-114017209D01*
X151210969Y-114015353D01*
X151391928Y-113914011D01*
X151551389Y-113781389D01*
X151684011Y-113621928D01*
X151785353Y-113440969D01*
X151787209Y-113435502D01*
X151787211Y-113435497D01*
X151850165Y-113250040D01*
X151850165Y-113250039D01*
X151852021Y-113244572D01*
X151852849Y-113238863D01*
X151852850Y-113238858D01*
X151880162Y-113050488D01*
X151881782Y-113039314D01*
X151883335Y-112980000D01*
X151881298Y-112957833D01*
X153467053Y-112957833D01*
X153480618Y-113164793D01*
X153531671Y-113365815D01*
X153618503Y-113554167D01*
X153738205Y-113723542D01*
X153742339Y-113727569D01*
X153864151Y-113846233D01*
X153886769Y-113868267D01*
X153891565Y-113871472D01*
X153891568Y-113871474D01*
X154002337Y-113945487D01*
X154059219Y-113983494D01*
X154064522Y-113985772D01*
X154064525Y-113985774D01*
X154232323Y-114057866D01*
X154249780Y-114065366D01*
X154315183Y-114080165D01*
X154446433Y-114109864D01*
X154446438Y-114109865D01*
X154452070Y-114111139D01*
X154457841Y-114111366D01*
X154457843Y-114111366D01*
X154519612Y-114113793D01*
X154659314Y-114119282D01*
X154767202Y-114103639D01*
X154858858Y-114090350D01*
X154858863Y-114090349D01*
X154864572Y-114089521D01*
X154870040Y-114087665D01*
X155055497Y-114024711D01*
X155055502Y-114024709D01*
X155060969Y-114022853D01*
X155074362Y-114015353D01*
X155144642Y-113975994D01*
X155241928Y-113921511D01*
X155401389Y-113788889D01*
X155534011Y-113629428D01*
X155635353Y-113448469D01*
X155637209Y-113443002D01*
X155637211Y-113442997D01*
X155700165Y-113257540D01*
X155700165Y-113257539D01*
X155702021Y-113252072D01*
X155702849Y-113246363D01*
X155702850Y-113246358D01*
X155731249Y-113050488D01*
X155731782Y-113046814D01*
X155733335Y-112987500D01*
X155714357Y-112780966D01*
X155710674Y-112767905D01*
X155659627Y-112586908D01*
X155659626Y-112586906D01*
X155658059Y-112581349D01*
X155654361Y-112573849D01*
X155568882Y-112400515D01*
X155566327Y-112395334D01*
X155560727Y-112387834D01*
X155445685Y-112233775D01*
X155445684Y-112233774D01*
X155442232Y-112229151D01*
X155289931Y-112088365D01*
X155114523Y-111977691D01*
X154921885Y-111900836D01*
X154916228Y-111899711D01*
X154916222Y-111899709D01*
X154724133Y-111861501D01*
X154724131Y-111861501D01*
X154718466Y-111860374D01*
X154712691Y-111860298D01*
X154712687Y-111860298D01*
X154608848Y-111858939D01*
X154511080Y-111857659D01*
X154505383Y-111858638D01*
X154505382Y-111858638D01*
X154312368Y-111891803D01*
X154312367Y-111891803D01*
X154306671Y-111892782D01*
X154112087Y-111964569D01*
X153933842Y-112070613D01*
X153929502Y-112074419D01*
X153929498Y-112074422D01*
X153790801Y-112196057D01*
X153777908Y-112207364D01*
X153649505Y-112370242D01*
X153646816Y-112375353D01*
X153646814Y-112375356D01*
X153594144Y-112475466D01*
X153552935Y-112553791D01*
X153544981Y-112579408D01*
X153493760Y-112744366D01*
X153491431Y-112751866D01*
X153467053Y-112957833D01*
X151881298Y-112957833D01*
X151864357Y-112773466D01*
X151858266Y-112751866D01*
X151809627Y-112579408D01*
X151809626Y-112579406D01*
X151808059Y-112573849D01*
X151800893Y-112559316D01*
X151718882Y-112393015D01*
X151716327Y-112387834D01*
X151703191Y-112370242D01*
X151595685Y-112226275D01*
X151595684Y-112226274D01*
X151592232Y-112221651D01*
X151452284Y-112092284D01*
X151444171Y-112084784D01*
X151444168Y-112084782D01*
X151439931Y-112080865D01*
X151264523Y-111970191D01*
X151071885Y-111893336D01*
X151066228Y-111892211D01*
X151066222Y-111892209D01*
X150874133Y-111854001D01*
X150874131Y-111854001D01*
X150868466Y-111852874D01*
X150862691Y-111852798D01*
X150862687Y-111852798D01*
X150758848Y-111851439D01*
X150661080Y-111850159D01*
X150655383Y-111851138D01*
X150655382Y-111851138D01*
X150462368Y-111884303D01*
X150462367Y-111884303D01*
X150456671Y-111885282D01*
X150262087Y-111957069D01*
X150083842Y-112063113D01*
X150079502Y-112066919D01*
X150079498Y-112066922D01*
X149932249Y-112196057D01*
X149927908Y-112199864D01*
X149924333Y-112204399D01*
X149924332Y-112204400D01*
X149913820Y-112217735D01*
X149799505Y-112362742D01*
X149796816Y-112367853D01*
X149796814Y-112367856D01*
X149744144Y-112467966D01*
X149702935Y-112546291D01*
X149641431Y-112744366D01*
X149617053Y-112950333D01*
X136831652Y-112950333D01*
X136830111Y-112950171D01*
X136747610Y-112941500D01*
X136652390Y-112941500D01*
X136569889Y-112950171D01*
X136516635Y-112955768D01*
X136516633Y-112955768D01*
X136510072Y-112956458D01*
X136328444Y-113015473D01*
X136163056Y-113110960D01*
X136021134Y-113238747D01*
X135908882Y-113393248D01*
X135906198Y-113399276D01*
X135906197Y-113399278D01*
X135835137Y-113558883D01*
X135831206Y-113567712D01*
X135829834Y-113574169D01*
X135800680Y-113711327D01*
X135791500Y-113754513D01*
X135791500Y-113945487D01*
X121158500Y-113945487D01*
X121158500Y-110543250D01*
X121160246Y-110522345D01*
X121162770Y-110507344D01*
X121162770Y-110507341D01*
X121163576Y-110502552D01*
X121163729Y-110490000D01*
X121163040Y-110485188D01*
X121162723Y-110480327D01*
X121163008Y-110480308D01*
X121162607Y-110453549D01*
X121167477Y-110410333D01*
X149617053Y-110410333D01*
X149630618Y-110617293D01*
X149681671Y-110818315D01*
X149768503Y-111006667D01*
X149888205Y-111176042D01*
X150036769Y-111320767D01*
X150041565Y-111323972D01*
X150041568Y-111323974D01*
X150178155Y-111415238D01*
X150209219Y-111435994D01*
X150214522Y-111438272D01*
X150214525Y-111438274D01*
X150322610Y-111484711D01*
X150399780Y-111517866D01*
X150473521Y-111534552D01*
X150596433Y-111562364D01*
X150596438Y-111562365D01*
X150602070Y-111563639D01*
X150607841Y-111563866D01*
X150607843Y-111563866D01*
X150669612Y-111566293D01*
X150809314Y-111571782D01*
X150911943Y-111556901D01*
X151008858Y-111542850D01*
X151008863Y-111542849D01*
X151014572Y-111542021D01*
X151020040Y-111540165D01*
X151205497Y-111477211D01*
X151205502Y-111477209D01*
X151210969Y-111475353D01*
X151391928Y-111374011D01*
X151551389Y-111241389D01*
X151684011Y-111081928D01*
X151785353Y-110900969D01*
X151787209Y-110895502D01*
X151787211Y-110895497D01*
X151850165Y-110710040D01*
X151850165Y-110710039D01*
X151852021Y-110704572D01*
X151852849Y-110698863D01*
X151852850Y-110698858D01*
X151870827Y-110574870D01*
X151881782Y-110499314D01*
X151883335Y-110440000D01*
X151881298Y-110417833D01*
X153467053Y-110417833D01*
X153480618Y-110624793D01*
X153531671Y-110825815D01*
X153618503Y-111014167D01*
X153738205Y-111183542D01*
X153886769Y-111328267D01*
X153891565Y-111331472D01*
X153891568Y-111331474D01*
X153970684Y-111384337D01*
X154059219Y-111443494D01*
X154064522Y-111445772D01*
X154064525Y-111445774D01*
X154232323Y-111517866D01*
X154249780Y-111525366D01*
X154315183Y-111540165D01*
X154446433Y-111569864D01*
X154446438Y-111569865D01*
X154452070Y-111571139D01*
X154457841Y-111571366D01*
X154457843Y-111571366D01*
X154519612Y-111573793D01*
X154659314Y-111579282D01*
X154767202Y-111563639D01*
X154858858Y-111550350D01*
X154858863Y-111550349D01*
X154864572Y-111549521D01*
X154870040Y-111547665D01*
X155055497Y-111484711D01*
X155055502Y-111484709D01*
X155060969Y-111482853D01*
X155074362Y-111475353D01*
X155144642Y-111435994D01*
X155241928Y-111381511D01*
X155401389Y-111248889D01*
X155534011Y-111089428D01*
X155635353Y-110908469D01*
X155637209Y-110903002D01*
X155637211Y-110902997D01*
X155700165Y-110717540D01*
X155700165Y-110717539D01*
X155702021Y-110712072D01*
X155702849Y-110706363D01*
X155702850Y-110706358D01*
X155731249Y-110510488D01*
X155731782Y-110506814D01*
X155733335Y-110447500D01*
X155714357Y-110240966D01*
X155710674Y-110227905D01*
X155659627Y-110046908D01*
X155659626Y-110046906D01*
X155658059Y-110041349D01*
X155654361Y-110033849D01*
X155568882Y-109860515D01*
X155566327Y-109855334D01*
X155560727Y-109847834D01*
X155445685Y-109693775D01*
X155445684Y-109693774D01*
X155442232Y-109689151D01*
X155334630Y-109589684D01*
X155294171Y-109552284D01*
X155294168Y-109552282D01*
X155289931Y-109548365D01*
X155114523Y-109437691D01*
X154921885Y-109360836D01*
X154916228Y-109359711D01*
X154916222Y-109359709D01*
X154724133Y-109321501D01*
X154724131Y-109321501D01*
X154718466Y-109320374D01*
X154712691Y-109320298D01*
X154712687Y-109320298D01*
X154608848Y-109318939D01*
X154511080Y-109317659D01*
X154505383Y-109318638D01*
X154505382Y-109318638D01*
X154312368Y-109351803D01*
X154312367Y-109351803D01*
X154306671Y-109352782D01*
X154112087Y-109424569D01*
X153933842Y-109530613D01*
X153929502Y-109534419D01*
X153929498Y-109534422D01*
X153795580Y-109651866D01*
X153777908Y-109667364D01*
X153649505Y-109830242D01*
X153646816Y-109835353D01*
X153646814Y-109835356D01*
X153632930Y-109861746D01*
X153552935Y-110013791D01*
X153526732Y-110098178D01*
X153493760Y-110204366D01*
X153491431Y-110211866D01*
X153467053Y-110417833D01*
X151881298Y-110417833D01*
X151868152Y-110274770D01*
X151864886Y-110239220D01*
X151864885Y-110239217D01*
X151864357Y-110233466D01*
X151858266Y-110211866D01*
X151809627Y-110039408D01*
X151809626Y-110039406D01*
X151808059Y-110033849D01*
X151800893Y-110019316D01*
X151718882Y-109853015D01*
X151716327Y-109847834D01*
X151703191Y-109830242D01*
X151595685Y-109686275D01*
X151595684Y-109686274D01*
X151592232Y-109681651D01*
X151452284Y-109552284D01*
X151444171Y-109544784D01*
X151444168Y-109544782D01*
X151439931Y-109540865D01*
X151264523Y-109430191D01*
X151071885Y-109353336D01*
X151066228Y-109352211D01*
X151066222Y-109352209D01*
X150874133Y-109314001D01*
X150874131Y-109314001D01*
X150868466Y-109312874D01*
X150862691Y-109312798D01*
X150862687Y-109312798D01*
X150758848Y-109311439D01*
X150661080Y-109310159D01*
X150655383Y-109311138D01*
X150655382Y-109311138D01*
X150462368Y-109344303D01*
X150462367Y-109344303D01*
X150456671Y-109345282D01*
X150262087Y-109417069D01*
X150083842Y-109523113D01*
X150079502Y-109526919D01*
X150079498Y-109526922D01*
X149962218Y-109629775D01*
X149927908Y-109659864D01*
X149924333Y-109664399D01*
X149924332Y-109664400D01*
X149918057Y-109672360D01*
X149799505Y-109822742D01*
X149796816Y-109827853D01*
X149796814Y-109827856D01*
X149776084Y-109867258D01*
X149702935Y-110006291D01*
X149674403Y-110098178D01*
X149651011Y-110173515D01*
X149641431Y-110204366D01*
X149617053Y-110410333D01*
X121167477Y-110410333D01*
X121169234Y-110394736D01*
X121175513Y-110367229D01*
X121202485Y-110290147D01*
X121214727Y-110264726D01*
X121258178Y-110195574D01*
X121275770Y-110173515D01*
X121333515Y-110115770D01*
X121355574Y-110098178D01*
X121424726Y-110054727D01*
X121450147Y-110042485D01*
X121527228Y-110015513D01*
X121554736Y-110009234D01*
X121610226Y-110002982D01*
X121625868Y-110003077D01*
X121625879Y-110002200D01*
X121634851Y-110002310D01*
X121643724Y-110003691D01*
X121652626Y-110002527D01*
X121652628Y-110002527D01*
X121667677Y-110000559D01*
X121675286Y-109999564D01*
X121691621Y-109998500D01*
X131596750Y-109998500D01*
X131617655Y-110000246D01*
X131632656Y-110002770D01*
X131632659Y-110002770D01*
X131637448Y-110003576D01*
X131643687Y-110003652D01*
X131645140Y-110003670D01*
X131645143Y-110003670D01*
X131650000Y-110003729D01*
X131664790Y-110001611D01*
X131673643Y-110000662D01*
X131860742Y-109987280D01*
X131865230Y-109986959D01*
X131916771Y-109975747D01*
X132071682Y-109942049D01*
X132071689Y-109942047D01*
X132076079Y-109941092D01*
X132080294Y-109939520D01*
X132080297Y-109939519D01*
X132177166Y-109903389D01*
X132278254Y-109865685D01*
X132467640Y-109762272D01*
X132640381Y-109632960D01*
X132792960Y-109480381D01*
X132922272Y-109307640D01*
X133025685Y-109118254D01*
X133078585Y-108976424D01*
X133099519Y-108920297D01*
X133099520Y-108920294D01*
X133101092Y-108916079D01*
X133104966Y-108898274D01*
X133146003Y-108709624D01*
X133146959Y-108705230D01*
X133159459Y-108530465D01*
X133160884Y-108518554D01*
X133162769Y-108507352D01*
X133162770Y-108507345D01*
X133163576Y-108502552D01*
X133163729Y-108490000D01*
X133159773Y-108462376D01*
X133158500Y-108444514D01*
X133158500Y-107870333D01*
X149617053Y-107870333D01*
X149630618Y-108077293D01*
X149681671Y-108278315D01*
X149768503Y-108466667D01*
X149888205Y-108636042D01*
X149908292Y-108655610D01*
X150016705Y-108761221D01*
X150036769Y-108780767D01*
X150041565Y-108783972D01*
X150041568Y-108783974D01*
X150176707Y-108874270D01*
X150209219Y-108895994D01*
X150214522Y-108898272D01*
X150214525Y-108898274D01*
X150322610Y-108944711D01*
X150399780Y-108977866D01*
X150466845Y-108993041D01*
X150596433Y-109022364D01*
X150596438Y-109022365D01*
X150602070Y-109023639D01*
X150607841Y-109023866D01*
X150607843Y-109023866D01*
X150669612Y-109026293D01*
X150809314Y-109031782D01*
X150911943Y-109016902D01*
X151008858Y-109002850D01*
X151008863Y-109002849D01*
X151014572Y-109002021D01*
X151020040Y-109000165D01*
X151205497Y-108937211D01*
X151205502Y-108937209D01*
X151210969Y-108935353D01*
X151237854Y-108920297D01*
X151320040Y-108874270D01*
X151391928Y-108834011D01*
X151551389Y-108701389D01*
X151684011Y-108541928D01*
X151785353Y-108360969D01*
X151787209Y-108355502D01*
X151787211Y-108355497D01*
X151850165Y-108170040D01*
X151850165Y-108170039D01*
X151852021Y-108164572D01*
X151852849Y-108158863D01*
X151852850Y-108158858D01*
X151880162Y-107970488D01*
X151881782Y-107959314D01*
X151883335Y-107900000D01*
X151881298Y-107877833D01*
X153467053Y-107877833D01*
X153480618Y-108084793D01*
X153531671Y-108285815D01*
X153618503Y-108474167D01*
X153738205Y-108643542D01*
X153750593Y-108655610D01*
X153859006Y-108761221D01*
X153886769Y-108788267D01*
X153891565Y-108791472D01*
X153891568Y-108791474D01*
X153970684Y-108844337D01*
X154059219Y-108903494D01*
X154064522Y-108905772D01*
X154064525Y-108905774D01*
X154244473Y-108983086D01*
X154249780Y-108985366D01*
X154315183Y-109000165D01*
X154446433Y-109029864D01*
X154446438Y-109029865D01*
X154452070Y-109031139D01*
X154457841Y-109031366D01*
X154457843Y-109031366D01*
X154519612Y-109033793D01*
X154659314Y-109039282D01*
X154767202Y-109023639D01*
X154858858Y-109010350D01*
X154858863Y-109010349D01*
X154864572Y-109009521D01*
X154870040Y-109007665D01*
X155055497Y-108944711D01*
X155055502Y-108944709D01*
X155060969Y-108942853D01*
X155074362Y-108935353D01*
X155144642Y-108895994D01*
X155241928Y-108841511D01*
X155401389Y-108708889D01*
X155534011Y-108549428D01*
X155608267Y-108416834D01*
X155632529Y-108373512D01*
X155632530Y-108373510D01*
X155635353Y-108368469D01*
X155637209Y-108363002D01*
X155637211Y-108362997D01*
X155700165Y-108177540D01*
X155700165Y-108177539D01*
X155702021Y-108172072D01*
X155702849Y-108166363D01*
X155702850Y-108166358D01*
X155731249Y-107970488D01*
X155731782Y-107966814D01*
X155733335Y-107907500D01*
X155714357Y-107700966D01*
X155710674Y-107687905D01*
X155659627Y-107506908D01*
X155659626Y-107506906D01*
X155658059Y-107501349D01*
X155654361Y-107493849D01*
X155568882Y-107320515D01*
X155566327Y-107315334D01*
X155560727Y-107307834D01*
X155445685Y-107153775D01*
X155445684Y-107153774D01*
X155442232Y-107149151D01*
X155289931Y-107008365D01*
X155114523Y-106897691D01*
X154921885Y-106820836D01*
X154916228Y-106819711D01*
X154916222Y-106819709D01*
X154724133Y-106781501D01*
X154724131Y-106781501D01*
X154718466Y-106780374D01*
X154712691Y-106780298D01*
X154712687Y-106780298D01*
X154608848Y-106778939D01*
X154511080Y-106777659D01*
X154505383Y-106778638D01*
X154505382Y-106778638D01*
X154312368Y-106811803D01*
X154312367Y-106811803D01*
X154306671Y-106812782D01*
X154112087Y-106884569D01*
X153933842Y-106990613D01*
X153929502Y-106994419D01*
X153929498Y-106994422D01*
X153790801Y-107116057D01*
X153777908Y-107127364D01*
X153649505Y-107290242D01*
X153646816Y-107295353D01*
X153646814Y-107295356D01*
X153594144Y-107395466D01*
X153552935Y-107473791D01*
X153544981Y-107499408D01*
X153493760Y-107664366D01*
X153491431Y-107671866D01*
X153467053Y-107877833D01*
X151881298Y-107877833D01*
X151864357Y-107693466D01*
X151858266Y-107671866D01*
X151809627Y-107499408D01*
X151809626Y-107499406D01*
X151808059Y-107493849D01*
X151800893Y-107479316D01*
X151718882Y-107313015D01*
X151716327Y-107307834D01*
X151703191Y-107290242D01*
X151595685Y-107146275D01*
X151595684Y-107146274D01*
X151592232Y-107141651D01*
X151452284Y-107012284D01*
X151444171Y-107004784D01*
X151444168Y-107004782D01*
X151439931Y-107000865D01*
X151264523Y-106890191D01*
X151071885Y-106813336D01*
X151066228Y-106812211D01*
X151066222Y-106812209D01*
X150874133Y-106774001D01*
X150874131Y-106774001D01*
X150868466Y-106772874D01*
X150862691Y-106772798D01*
X150862687Y-106772798D01*
X150758848Y-106771439D01*
X150661080Y-106770159D01*
X150655383Y-106771138D01*
X150655382Y-106771138D01*
X150462368Y-106804303D01*
X150462367Y-106804303D01*
X150456671Y-106805282D01*
X150262087Y-106877069D01*
X150083842Y-106983113D01*
X150079502Y-106986919D01*
X150079498Y-106986922D01*
X149932249Y-107116057D01*
X149927908Y-107119864D01*
X149924333Y-107124399D01*
X149924332Y-107124400D01*
X149913820Y-107137735D01*
X149799505Y-107282742D01*
X149796816Y-107287853D01*
X149796814Y-107287856D01*
X149744144Y-107387966D01*
X149702935Y-107466291D01*
X149641431Y-107664366D01*
X149617053Y-107870333D01*
X133158500Y-107870333D01*
X133158500Y-106353501D01*
X133160101Y-106333479D01*
X133162879Y-106316221D01*
X133162879Y-106316216D01*
X133163652Y-106311416D01*
X133163716Y-106298863D01*
X133161427Y-106283648D01*
X133160412Y-106274757D01*
X133160337Y-106273791D01*
X133151185Y-106156951D01*
X133145877Y-106089186D01*
X133145876Y-106089179D01*
X133145527Y-106084724D01*
X133121892Y-105979192D01*
X133099561Y-105879482D01*
X133099561Y-105879481D01*
X133098582Y-105875111D01*
X133022413Y-105674264D01*
X132918557Y-105486234D01*
X132826105Y-105363805D01*
X132791810Y-105318390D01*
X132791806Y-105318385D01*
X132789109Y-105314814D01*
X132686657Y-105213086D01*
X132639859Y-105166618D01*
X132639855Y-105166614D01*
X132636681Y-105163463D01*
X132599217Y-105135587D01*
X132556506Y-105078875D01*
X132551235Y-105008074D01*
X132585079Y-104945663D01*
X132647293Y-104911458D01*
X132674433Y-104908500D01*
X133295761Y-104908500D01*
X133363882Y-104928502D01*
X133384856Y-104945405D01*
X134137055Y-105697604D01*
X134166285Y-105743397D01*
X134214085Y-105874015D01*
X134218322Y-105880321D01*
X134218324Y-105880324D01*
X134222666Y-105886785D01*
X134309730Y-106016349D01*
X134436565Y-106131760D01*
X134587268Y-106213585D01*
X134753139Y-106257101D01*
X134840586Y-106258474D01*
X134917003Y-106259675D01*
X134917006Y-106259675D01*
X134924602Y-106259794D01*
X134932006Y-106258098D01*
X134932008Y-106258098D01*
X135025261Y-106236740D01*
X135091759Y-106221510D01*
X135244958Y-106144459D01*
X135250729Y-106139530D01*
X135250732Y-106139528D01*
X135369578Y-106038023D01*
X135375355Y-106033089D01*
X135475424Y-105893830D01*
X135539385Y-105734720D01*
X135555061Y-105624572D01*
X135562966Y-105569031D01*
X135562966Y-105569027D01*
X135563547Y-105564947D01*
X135563704Y-105550000D01*
X135555556Y-105482667D01*
X135544015Y-105387299D01*
X135544014Y-105387296D01*
X135543102Y-105379758D01*
X135482487Y-105219344D01*
X135446320Y-105166720D01*
X135389659Y-105084278D01*
X135389658Y-105084276D01*
X135385357Y-105078019D01*
X135379686Y-105072966D01*
X135262993Y-104968996D01*
X135262990Y-104968994D01*
X135257321Y-104963943D01*
X135105769Y-104883700D01*
X135057389Y-104871548D01*
X134998987Y-104838439D01*
X134535896Y-104375347D01*
X134064311Y-103903762D01*
X134053445Y-103891371D01*
X134039013Y-103872563D01*
X134033987Y-103866013D01*
X134002075Y-103841526D01*
X134002072Y-103841523D01*
X133906876Y-103768476D01*
X133758851Y-103707162D01*
X133750664Y-103706084D01*
X133750663Y-103706084D01*
X133739458Y-103704609D01*
X133679686Y-103696740D01*
X133639885Y-103691500D01*
X133639882Y-103691500D01*
X133639874Y-103691499D01*
X133608189Y-103687328D01*
X133600000Y-103686250D01*
X133568307Y-103690422D01*
X133551864Y-103691500D01*
X130604239Y-103691500D01*
X130536118Y-103671498D01*
X130515144Y-103654595D01*
X128395405Y-101534856D01*
X128361379Y-101472544D01*
X128358500Y-101445761D01*
X128358500Y-93602871D01*
X128378502Y-93534750D01*
X128432158Y-93488257D01*
X128502432Y-93478153D01*
X128567012Y-93507647D01*
X128573595Y-93513776D01*
X129204595Y-94144776D01*
X129238621Y-94207088D01*
X129241500Y-94233871D01*
X129241500Y-94423170D01*
X129221498Y-94491291D01*
X129167842Y-94537784D01*
X129144913Y-94545689D01*
X129126965Y-94549998D01*
X129101723Y-94556058D01*
X128949339Y-94634709D01*
X128820115Y-94747439D01*
X128721510Y-94887739D01*
X128693930Y-94958477D01*
X128667411Y-95026496D01*
X128659218Y-95047509D01*
X128658226Y-95055042D01*
X128658226Y-95055043D01*
X128641733Y-95180324D01*
X128636835Y-95217526D01*
X128655653Y-95387975D01*
X128658262Y-95395106D01*
X128658263Y-95395108D01*
X128663611Y-95409720D01*
X128714585Y-95549015D01*
X128718820Y-95555318D01*
X128718825Y-95555327D01*
X128720583Y-95557943D01*
X128721216Y-95560018D01*
X128722271Y-95562090D01*
X128721904Y-95562277D01*
X128742000Y-95628216D01*
X128742000Y-97152364D01*
X128740922Y-97168807D01*
X128736750Y-97200500D01*
X128742000Y-97240380D01*
X128742000Y-97240385D01*
X128753010Y-97324015D01*
X128757662Y-97359351D01*
X128818976Y-97507376D01*
X128824003Y-97513927D01*
X128824004Y-97513929D01*
X128892020Y-97602569D01*
X128892026Y-97602575D01*
X128916513Y-97634487D01*
X128923068Y-97639517D01*
X128941879Y-97653952D01*
X128954270Y-97664819D01*
X129385685Y-98096234D01*
X129396552Y-98108625D01*
X129416013Y-98133987D01*
X129422563Y-98139013D01*
X129447921Y-98158471D01*
X129447937Y-98158485D01*
X129496173Y-98195497D01*
X129543124Y-98231524D01*
X129691149Y-98292838D01*
X129850000Y-98313751D01*
X129881699Y-98309578D01*
X129898144Y-98308500D01*
X130803365Y-98308500D01*
X130871486Y-98328502D01*
X130892460Y-98345405D01*
X133241639Y-100694584D01*
X133275665Y-100756896D01*
X133270600Y-100827711D01*
X133263588Y-100843222D01*
X133263483Y-100843417D01*
X133259112Y-100849637D01*
X133256351Y-100856719D01*
X133232895Y-100916881D01*
X133196820Y-101009407D01*
X133195828Y-101016940D01*
X133195828Y-101016941D01*
X133175484Y-101171474D01*
X133174437Y-101179424D01*
X133179396Y-101224337D01*
X133187177Y-101294817D01*
X133193255Y-101349873D01*
X133195864Y-101357004D01*
X133195865Y-101357006D01*
X133215208Y-101409864D01*
X133252187Y-101510913D01*
X133256424Y-101517219D01*
X133256426Y-101517222D01*
X133284300Y-101558702D01*
X133347832Y-101653247D01*
X133392620Y-101694001D01*
X133425922Y-101724303D01*
X133474667Y-101768658D01*
X133625370Y-101850483D01*
X133681533Y-101865217D01*
X133738653Y-101897998D01*
X135904595Y-104063940D01*
X135938621Y-104126252D01*
X135941500Y-104153035D01*
X135941500Y-105772205D01*
X135940422Y-105788651D01*
X135936250Y-105820341D01*
X135941500Y-105860221D01*
X135941500Y-105860227D01*
X135954746Y-105960837D01*
X135957162Y-105979192D01*
X135960322Y-105986822D01*
X135960323Y-105986824D01*
X135976931Y-106026919D01*
X136018476Y-106127217D01*
X136047529Y-106165080D01*
X136091517Y-106222407D01*
X136091535Y-106222429D01*
X136096950Y-106229486D01*
X136116013Y-106254329D01*
X136122563Y-106259355D01*
X136122564Y-106259356D01*
X136141376Y-106273791D01*
X136153767Y-106284658D01*
X136565342Y-106696234D01*
X136576208Y-106708624D01*
X136595670Y-106733987D01*
X136627582Y-106758474D01*
X136627585Y-106758477D01*
X136722780Y-106831523D01*
X136722782Y-106831524D01*
X136870807Y-106892838D01*
X136989772Y-106908500D01*
X136989776Y-106908500D01*
X136989784Y-106908501D01*
X137021467Y-106912672D01*
X137021468Y-106912672D01*
X137029656Y-106913750D01*
X137061349Y-106909578D01*
X137077792Y-106908500D01*
X140017550Y-106908500D01*
X140033993Y-106909578D01*
X140065686Y-106913750D01*
X140073875Y-106912672D01*
X140105560Y-106908501D01*
X140105570Y-106908500D01*
X140105571Y-106908500D01*
X140105587Y-106908498D01*
X140205143Y-106895391D01*
X140216350Y-106893916D01*
X140216352Y-106893915D01*
X140224537Y-106892838D01*
X140372562Y-106831524D01*
X140387960Y-106819709D01*
X140467758Y-106758477D01*
X140467761Y-106758474D01*
X140493120Y-106739015D01*
X140499673Y-106733987D01*
X140504703Y-106727432D01*
X140519138Y-106708621D01*
X140530005Y-106696230D01*
X141895902Y-105330333D01*
X149617053Y-105330333D01*
X149630618Y-105537293D01*
X149681671Y-105738315D01*
X149768503Y-105926667D01*
X149888205Y-106096042D01*
X149926932Y-106133768D01*
X150017945Y-106222429D01*
X150036769Y-106240767D01*
X150041565Y-106243972D01*
X150041568Y-106243974D01*
X150135216Y-106306547D01*
X150209219Y-106355994D01*
X150214522Y-106358272D01*
X150214525Y-106358274D01*
X150322610Y-106404711D01*
X150399780Y-106437866D01*
X150473521Y-106454552D01*
X150596433Y-106482364D01*
X150596438Y-106482365D01*
X150602070Y-106483639D01*
X150607841Y-106483866D01*
X150607843Y-106483866D01*
X150669612Y-106486293D01*
X150809314Y-106491782D01*
X150911943Y-106476902D01*
X151008858Y-106462850D01*
X151008863Y-106462849D01*
X151014572Y-106462021D01*
X151020040Y-106460165D01*
X151205497Y-106397211D01*
X151205502Y-106397209D01*
X151210969Y-106395353D01*
X151391928Y-106294011D01*
X151551389Y-106161389D01*
X151684011Y-106001928D01*
X151759642Y-105866879D01*
X151782529Y-105826012D01*
X151782530Y-105826010D01*
X151785353Y-105820969D01*
X151787209Y-105815502D01*
X151787211Y-105815497D01*
X151850165Y-105630040D01*
X151850165Y-105630039D01*
X151852021Y-105624572D01*
X151852849Y-105618863D01*
X151852850Y-105618858D01*
X151880162Y-105430488D01*
X151881782Y-105419314D01*
X151883335Y-105360000D01*
X151881298Y-105337833D01*
X153467053Y-105337833D01*
X153480618Y-105544793D01*
X153531671Y-105745815D01*
X153618503Y-105934167D01*
X153738205Y-106103542D01*
X153742339Y-106107569D01*
X153860246Y-106222429D01*
X153886769Y-106248267D01*
X153891565Y-106251472D01*
X153891568Y-106251474D01*
X153969783Y-106303735D01*
X154059219Y-106363494D01*
X154064522Y-106365772D01*
X154064525Y-106365774D01*
X154232323Y-106437866D01*
X154249780Y-106445366D01*
X154315183Y-106460165D01*
X154446433Y-106489864D01*
X154446438Y-106489865D01*
X154452070Y-106491139D01*
X154457841Y-106491366D01*
X154457843Y-106491366D01*
X154519612Y-106493793D01*
X154659314Y-106499282D01*
X154767202Y-106483639D01*
X154858858Y-106470350D01*
X154858863Y-106470349D01*
X154864572Y-106469521D01*
X154870040Y-106467665D01*
X155055497Y-106404711D01*
X155055502Y-106404709D01*
X155060969Y-106402853D01*
X155074362Y-106395353D01*
X155149093Y-106353501D01*
X155241928Y-106301511D01*
X155401389Y-106168889D01*
X155534011Y-106009428D01*
X155617576Y-105860212D01*
X155632529Y-105833512D01*
X155632530Y-105833510D01*
X155635353Y-105828469D01*
X155637209Y-105823002D01*
X155637211Y-105822997D01*
X155700165Y-105637540D01*
X155700165Y-105637539D01*
X155702021Y-105632072D01*
X155702849Y-105626363D01*
X155702850Y-105626358D01*
X155722599Y-105490147D01*
X155731782Y-105426814D01*
X155733335Y-105367500D01*
X155714357Y-105160966D01*
X155710674Y-105147905D01*
X155659627Y-104966908D01*
X155659626Y-104966906D01*
X155658059Y-104961349D01*
X155654361Y-104953849D01*
X155568882Y-104780515D01*
X155566327Y-104775334D01*
X155562700Y-104770476D01*
X155445685Y-104613775D01*
X155445684Y-104613774D01*
X155442232Y-104609151D01*
X155350989Y-104524807D01*
X155294171Y-104472284D01*
X155294168Y-104472282D01*
X155289931Y-104468365D01*
X155114523Y-104357691D01*
X154921885Y-104280836D01*
X154916228Y-104279711D01*
X154916222Y-104279709D01*
X154724133Y-104241501D01*
X154724131Y-104241501D01*
X154718466Y-104240374D01*
X154712691Y-104240298D01*
X154712687Y-104240298D01*
X154608848Y-104238939D01*
X154511080Y-104237659D01*
X154505383Y-104238638D01*
X154505382Y-104238638D01*
X154312368Y-104271803D01*
X154312367Y-104271803D01*
X154306671Y-104272782D01*
X154112087Y-104344569D01*
X153933842Y-104450613D01*
X153929502Y-104454419D01*
X153929498Y-104454422D01*
X153806035Y-104562697D01*
X153777908Y-104587364D01*
X153649505Y-104750242D01*
X153646816Y-104755353D01*
X153646814Y-104755356D01*
X153623788Y-104799122D01*
X153552935Y-104933791D01*
X153521436Y-105035235D01*
X153493760Y-105124366D01*
X153491431Y-105131866D01*
X153467053Y-105337833D01*
X151881298Y-105337833D01*
X151864357Y-105153466D01*
X151859060Y-105134682D01*
X151809627Y-104959408D01*
X151809626Y-104959406D01*
X151808059Y-104953849D01*
X151804023Y-104945663D01*
X151718882Y-104773015D01*
X151716327Y-104767834D01*
X151703191Y-104750242D01*
X151595685Y-104606275D01*
X151595684Y-104606274D01*
X151592232Y-104601651D01*
X151466445Y-104485374D01*
X151444171Y-104464784D01*
X151444168Y-104464782D01*
X151439931Y-104460865D01*
X151264523Y-104350191D01*
X151071885Y-104273336D01*
X151066228Y-104272211D01*
X151066222Y-104272209D01*
X150874133Y-104234001D01*
X150874131Y-104234001D01*
X150868466Y-104232874D01*
X150862691Y-104232798D01*
X150862687Y-104232798D01*
X150758848Y-104231439D01*
X150661080Y-104230159D01*
X150655383Y-104231138D01*
X150655382Y-104231138D01*
X150462368Y-104264303D01*
X150462367Y-104264303D01*
X150456671Y-104265282D01*
X150262087Y-104337069D01*
X150083842Y-104443113D01*
X150079502Y-104446919D01*
X150079498Y-104446922D01*
X149947483Y-104562697D01*
X149927908Y-104579864D01*
X149924333Y-104584399D01*
X149924332Y-104584400D01*
X149913820Y-104597735D01*
X149799505Y-104742742D01*
X149796816Y-104747853D01*
X149796814Y-104747856D01*
X149770038Y-104798750D01*
X149702935Y-104926291D01*
X149691244Y-104963943D01*
X149653879Y-105084278D01*
X149641431Y-105124366D01*
X149617053Y-105330333D01*
X141895902Y-105330333D01*
X144435902Y-102790333D01*
X149617053Y-102790333D01*
X149630618Y-102997293D01*
X149681671Y-103198315D01*
X149768503Y-103386667D01*
X149888205Y-103556042D01*
X149892339Y-103560069D01*
X150026150Y-103690422D01*
X150036769Y-103700767D01*
X150041565Y-103703972D01*
X150041568Y-103703974D01*
X150133374Y-103765316D01*
X150209219Y-103815994D01*
X150214522Y-103818272D01*
X150214525Y-103818274D01*
X150394473Y-103895586D01*
X150399780Y-103897866D01*
X150473521Y-103914552D01*
X150596433Y-103942364D01*
X150596438Y-103942365D01*
X150602070Y-103943639D01*
X150607841Y-103943866D01*
X150607843Y-103943866D01*
X150669612Y-103946293D01*
X150809314Y-103951782D01*
X150911943Y-103936901D01*
X151008858Y-103922850D01*
X151008863Y-103922849D01*
X151014572Y-103922021D01*
X151020040Y-103920165D01*
X151205497Y-103857211D01*
X151205502Y-103857209D01*
X151210969Y-103855353D01*
X151391928Y-103754011D01*
X151551389Y-103621389D01*
X151684011Y-103461928D01*
X151785353Y-103280969D01*
X151787209Y-103275502D01*
X151787211Y-103275497D01*
X151850165Y-103090040D01*
X151850165Y-103090039D01*
X151852021Y-103084572D01*
X151852849Y-103078863D01*
X151852850Y-103078858D01*
X151880162Y-102890488D01*
X151881782Y-102879314D01*
X151883335Y-102820000D01*
X151881298Y-102797833D01*
X153467053Y-102797833D01*
X153480618Y-103004793D01*
X153531671Y-103205815D01*
X153618503Y-103394167D01*
X153738205Y-103563542D01*
X153742339Y-103567569D01*
X153868451Y-103690422D01*
X153886769Y-103708267D01*
X153891565Y-103711472D01*
X153891568Y-103711474D01*
X153970684Y-103764337D01*
X154059219Y-103823494D01*
X154064522Y-103825772D01*
X154064525Y-103825774D01*
X154235291Y-103899141D01*
X154249780Y-103905366D01*
X154315183Y-103920165D01*
X154446433Y-103949864D01*
X154446438Y-103949865D01*
X154452070Y-103951139D01*
X154457841Y-103951366D01*
X154457843Y-103951366D01*
X154519612Y-103953793D01*
X154659314Y-103959282D01*
X154767202Y-103943639D01*
X154858858Y-103930350D01*
X154858863Y-103930349D01*
X154864572Y-103929521D01*
X154870040Y-103927665D01*
X155055497Y-103864711D01*
X155055502Y-103864709D01*
X155060969Y-103862853D01*
X155074362Y-103855353D01*
X155144642Y-103815994D01*
X155241928Y-103761511D01*
X155401389Y-103628889D01*
X155534011Y-103469428D01*
X155635353Y-103288469D01*
X155637209Y-103283002D01*
X155637211Y-103282997D01*
X155700165Y-103097540D01*
X155700165Y-103097539D01*
X155702021Y-103092072D01*
X155702849Y-103086363D01*
X155702850Y-103086358D01*
X155731249Y-102890488D01*
X155731782Y-102886814D01*
X155733335Y-102827500D01*
X155714357Y-102620966D01*
X155710674Y-102607905D01*
X155659627Y-102426908D01*
X155659626Y-102426906D01*
X155658059Y-102421349D01*
X155654361Y-102413849D01*
X155568882Y-102240515D01*
X155566327Y-102235334D01*
X155560727Y-102227834D01*
X155445685Y-102073775D01*
X155445684Y-102073774D01*
X155442232Y-102069151D01*
X155289931Y-101928365D01*
X155114523Y-101817691D01*
X154921885Y-101740836D01*
X154916228Y-101739711D01*
X154916222Y-101739709D01*
X154724133Y-101701501D01*
X154724131Y-101701501D01*
X154718466Y-101700374D01*
X154712691Y-101700298D01*
X154712687Y-101700298D01*
X154608848Y-101698939D01*
X154511080Y-101697659D01*
X154505383Y-101698638D01*
X154505382Y-101698638D01*
X154312368Y-101731803D01*
X154312367Y-101731803D01*
X154306671Y-101732782D01*
X154112087Y-101804569D01*
X153933842Y-101910613D01*
X153929502Y-101914419D01*
X153929498Y-101914422D01*
X153886404Y-101952215D01*
X153777908Y-102047364D01*
X153649505Y-102210242D01*
X153646816Y-102215353D01*
X153646814Y-102215356D01*
X153603646Y-102297405D01*
X153552935Y-102393791D01*
X153544981Y-102419408D01*
X153493760Y-102584366D01*
X153491431Y-102591866D01*
X153467053Y-102797833D01*
X151881298Y-102797833D01*
X151864357Y-102613466D01*
X151858266Y-102591866D01*
X151809627Y-102419408D01*
X151809626Y-102419406D01*
X151808059Y-102413849D01*
X151803373Y-102404345D01*
X151718882Y-102233015D01*
X151716327Y-102227834D01*
X151710008Y-102219371D01*
X151595685Y-102066275D01*
X151595684Y-102066274D01*
X151592232Y-102061651D01*
X151452284Y-101932284D01*
X151444171Y-101924784D01*
X151444168Y-101924782D01*
X151439931Y-101920865D01*
X151264523Y-101810191D01*
X151071885Y-101733336D01*
X151066228Y-101732211D01*
X151066222Y-101732209D01*
X150874133Y-101694001D01*
X150874131Y-101694001D01*
X150868466Y-101692874D01*
X150862691Y-101692798D01*
X150862687Y-101692798D01*
X150758848Y-101691439D01*
X150661080Y-101690159D01*
X150655383Y-101691138D01*
X150655382Y-101691138D01*
X150462368Y-101724303D01*
X150462367Y-101724303D01*
X150456671Y-101725282D01*
X150262087Y-101797069D01*
X150083842Y-101903113D01*
X150079502Y-101906919D01*
X150079498Y-101906922D01*
X150027852Y-101952215D01*
X149927908Y-102039864D01*
X149924333Y-102044399D01*
X149924332Y-102044400D01*
X149914497Y-102056876D01*
X149799505Y-102202742D01*
X149796816Y-102207853D01*
X149796814Y-102207856D01*
X149764430Y-102269409D01*
X149702935Y-102386291D01*
X149641431Y-102584366D01*
X149617053Y-102790333D01*
X144435902Y-102790333D01*
X146300830Y-100925405D01*
X146363142Y-100891379D01*
X146389925Y-100888500D01*
X149732825Y-100888500D01*
X149800946Y-100908502D01*
X149835722Y-100941780D01*
X149888205Y-101016042D01*
X150036769Y-101160767D01*
X150041565Y-101163972D01*
X150041568Y-101163974D01*
X150137944Y-101228370D01*
X150209219Y-101275994D01*
X150214522Y-101278272D01*
X150214525Y-101278274D01*
X150322610Y-101324711D01*
X150399780Y-101357866D01*
X150473521Y-101374552D01*
X150596433Y-101402364D01*
X150596438Y-101402365D01*
X150602070Y-101403639D01*
X150607841Y-101403866D01*
X150607843Y-101403866D01*
X150669612Y-101406293D01*
X150809314Y-101411782D01*
X150911943Y-101396902D01*
X151008858Y-101382850D01*
X151008863Y-101382849D01*
X151014572Y-101382021D01*
X151027446Y-101377651D01*
X151205497Y-101317211D01*
X151205502Y-101317209D01*
X151210969Y-101315353D01*
X151238595Y-101299882D01*
X151299352Y-101265856D01*
X151391928Y-101214011D01*
X151551389Y-101081389D01*
X151684011Y-100921928D01*
X151769744Y-100768841D01*
X151782529Y-100746012D01*
X151782530Y-100746010D01*
X151785353Y-100740969D01*
X151787209Y-100735502D01*
X151787211Y-100735497D01*
X151850165Y-100550040D01*
X151850165Y-100550039D01*
X151852021Y-100544572D01*
X151852849Y-100538863D01*
X151852850Y-100538858D01*
X151880162Y-100350488D01*
X151881782Y-100339314D01*
X151883335Y-100280000D01*
X151881298Y-100257833D01*
X153467053Y-100257833D01*
X153480618Y-100464793D01*
X153531671Y-100665815D01*
X153618503Y-100854167D01*
X153738205Y-101023542D01*
X153886769Y-101168267D01*
X153891565Y-101171472D01*
X153891568Y-101171474D01*
X153970684Y-101224337D01*
X154059219Y-101283494D01*
X154064522Y-101285772D01*
X154064525Y-101285774D01*
X154232323Y-101357866D01*
X154249780Y-101365366D01*
X154304073Y-101377651D01*
X154446433Y-101409864D01*
X154446438Y-101409865D01*
X154452070Y-101411139D01*
X154457841Y-101411366D01*
X154457843Y-101411366D01*
X154519612Y-101413793D01*
X154659314Y-101419282D01*
X154767202Y-101403639D01*
X154858858Y-101390350D01*
X154858863Y-101390349D01*
X154864572Y-101389521D01*
X154870040Y-101387665D01*
X155055497Y-101324711D01*
X155055502Y-101324709D01*
X155060969Y-101322853D01*
X155074362Y-101315353D01*
X155144642Y-101275994D01*
X155241928Y-101221511D01*
X155401389Y-101088889D01*
X155534011Y-100929428D01*
X155635353Y-100748469D01*
X155637209Y-100743002D01*
X155637211Y-100742997D01*
X155700165Y-100557540D01*
X155700165Y-100557539D01*
X155702021Y-100552072D01*
X155702849Y-100546363D01*
X155702850Y-100546358D01*
X155731249Y-100350488D01*
X155731782Y-100346814D01*
X155733335Y-100287500D01*
X155714357Y-100080966D01*
X155710674Y-100067905D01*
X155659627Y-99886908D01*
X155659626Y-99886906D01*
X155658059Y-99881349D01*
X155654361Y-99873849D01*
X155568882Y-99700515D01*
X155566327Y-99695334D01*
X155560727Y-99687834D01*
X155445685Y-99533775D01*
X155445684Y-99533774D01*
X155442232Y-99529151D01*
X155345659Y-99439880D01*
X155294171Y-99392284D01*
X155294168Y-99392282D01*
X155289931Y-99388365D01*
X155114523Y-99277691D01*
X154921885Y-99200836D01*
X154916228Y-99199711D01*
X154916222Y-99199709D01*
X154724133Y-99161501D01*
X154724131Y-99161501D01*
X154718466Y-99160374D01*
X154712691Y-99160298D01*
X154712687Y-99160298D01*
X154608848Y-99158939D01*
X154511080Y-99157659D01*
X154505383Y-99158638D01*
X154505382Y-99158638D01*
X154312368Y-99191803D01*
X154312367Y-99191803D01*
X154306671Y-99192782D01*
X154112087Y-99264569D01*
X153933842Y-99370613D01*
X153929502Y-99374419D01*
X153929498Y-99374422D01*
X153836015Y-99456405D01*
X153777908Y-99507364D01*
X153649505Y-99670242D01*
X153646816Y-99675353D01*
X153646814Y-99675356D01*
X153622705Y-99721180D01*
X153552935Y-99853791D01*
X153544981Y-99879408D01*
X153497094Y-100033629D01*
X153491431Y-100051866D01*
X153467053Y-100257833D01*
X151881298Y-100257833D01*
X151864357Y-100073466D01*
X151862393Y-100066500D01*
X151809627Y-99879408D01*
X151809626Y-99879406D01*
X151808059Y-99873849D01*
X151800893Y-99859316D01*
X151718882Y-99693015D01*
X151716327Y-99687834D01*
X151712325Y-99682474D01*
X151595685Y-99526275D01*
X151595684Y-99526274D01*
X151592232Y-99521651D01*
X151452284Y-99392284D01*
X151444171Y-99384784D01*
X151444168Y-99384782D01*
X151439931Y-99380865D01*
X151264523Y-99270191D01*
X151071885Y-99193336D01*
X151066228Y-99192211D01*
X151066222Y-99192209D01*
X150874133Y-99154001D01*
X150874131Y-99154001D01*
X150868466Y-99152874D01*
X150862691Y-99152798D01*
X150862687Y-99152798D01*
X150758848Y-99151439D01*
X150661080Y-99150159D01*
X150655383Y-99151138D01*
X150655382Y-99151138D01*
X150462368Y-99184303D01*
X150462367Y-99184303D01*
X150456671Y-99185282D01*
X150262087Y-99257069D01*
X150083842Y-99363113D01*
X150079502Y-99366919D01*
X150079498Y-99366922D01*
X149977463Y-99456405D01*
X149927908Y-99499864D01*
X149924333Y-99504399D01*
X149924332Y-99504400D01*
X149830436Y-99623506D01*
X149772555Y-99664619D01*
X149731486Y-99671500D01*
X147293239Y-99671500D01*
X147225118Y-99651498D01*
X147178625Y-99597842D01*
X147168521Y-99527568D01*
X147198015Y-99462988D01*
X147204144Y-99456405D01*
X148275144Y-98385405D01*
X148337456Y-98351379D01*
X148364239Y-98348500D01*
X149732825Y-98348500D01*
X149800946Y-98368502D01*
X149835722Y-98401780D01*
X149888205Y-98476042D01*
X150036769Y-98620767D01*
X150041565Y-98623972D01*
X150041568Y-98623974D01*
X150133127Y-98685151D01*
X150209219Y-98735994D01*
X150214522Y-98738272D01*
X150214525Y-98738274D01*
X150355207Y-98798716D01*
X150399780Y-98817866D01*
X150438755Y-98826685D01*
X150596433Y-98862364D01*
X150596438Y-98862365D01*
X150602070Y-98863639D01*
X150607841Y-98863866D01*
X150607843Y-98863866D01*
X150669612Y-98866293D01*
X150809314Y-98871782D01*
X150911943Y-98856901D01*
X151008858Y-98842850D01*
X151008863Y-98842849D01*
X151014572Y-98842021D01*
X151054510Y-98828464D01*
X151205497Y-98777211D01*
X151205502Y-98777209D01*
X151210969Y-98775353D01*
X151391928Y-98674011D01*
X151551389Y-98541389D01*
X151684011Y-98381928D01*
X151785353Y-98200969D01*
X151787209Y-98195502D01*
X151787211Y-98195497D01*
X151850165Y-98010040D01*
X151850165Y-98010039D01*
X151852021Y-98004572D01*
X151852849Y-97998863D01*
X151852850Y-97998858D01*
X151880162Y-97810488D01*
X151881782Y-97799314D01*
X151883335Y-97740000D01*
X151881298Y-97717833D01*
X153467053Y-97717833D01*
X153480618Y-97924793D01*
X153531671Y-98125815D01*
X153618503Y-98314167D01*
X153738205Y-98483542D01*
X153886769Y-98628267D01*
X153891565Y-98631472D01*
X153891568Y-98631474D01*
X154028155Y-98722738D01*
X154059219Y-98743494D01*
X154064522Y-98745772D01*
X154064525Y-98745774D01*
X154231481Y-98817504D01*
X154249780Y-98825366D01*
X154289882Y-98834440D01*
X154446433Y-98869864D01*
X154446438Y-98869865D01*
X154452070Y-98871139D01*
X154457841Y-98871366D01*
X154457843Y-98871366D01*
X154519612Y-98873793D01*
X154659314Y-98879282D01*
X154767202Y-98863639D01*
X154858858Y-98850350D01*
X154858863Y-98850349D01*
X154864572Y-98849521D01*
X154870040Y-98847665D01*
X155055497Y-98784711D01*
X155055502Y-98784709D01*
X155060969Y-98782853D01*
X155074362Y-98775353D01*
X155144642Y-98735994D01*
X155241928Y-98681511D01*
X155401389Y-98548889D01*
X155534011Y-98389428D01*
X155635353Y-98208469D01*
X155637209Y-98203002D01*
X155637211Y-98202997D01*
X155700165Y-98017540D01*
X155700165Y-98017539D01*
X155702021Y-98012072D01*
X155702849Y-98006363D01*
X155702850Y-98006358D01*
X155731249Y-97810488D01*
X155731782Y-97806814D01*
X155733335Y-97747500D01*
X155714357Y-97540966D01*
X155710674Y-97527905D01*
X155659627Y-97346908D01*
X155659626Y-97346906D01*
X155658059Y-97341349D01*
X155654361Y-97333849D01*
X155568882Y-97160515D01*
X155566327Y-97155334D01*
X155562585Y-97150322D01*
X155445685Y-96993775D01*
X155445684Y-96993774D01*
X155442232Y-96989151D01*
X155300460Y-96858098D01*
X155294171Y-96852284D01*
X155294168Y-96852282D01*
X155289931Y-96848365D01*
X155114523Y-96737691D01*
X154921885Y-96660836D01*
X154916228Y-96659711D01*
X154916222Y-96659709D01*
X154724133Y-96621501D01*
X154724131Y-96621501D01*
X154718466Y-96620374D01*
X154712691Y-96620298D01*
X154712687Y-96620298D01*
X154608848Y-96618939D01*
X154511080Y-96617659D01*
X154505383Y-96618638D01*
X154505382Y-96618638D01*
X154312368Y-96651803D01*
X154312367Y-96651803D01*
X154306671Y-96652782D01*
X154112087Y-96724569D01*
X154107126Y-96727521D01*
X154107125Y-96727521D01*
X154093628Y-96735551D01*
X153933842Y-96830613D01*
X153929502Y-96834419D01*
X153929498Y-96834422D01*
X153822876Y-96927928D01*
X153777908Y-96967364D01*
X153649505Y-97130242D01*
X153646816Y-97135353D01*
X153646814Y-97135356D01*
X153608344Y-97208476D01*
X153552935Y-97313791D01*
X153523652Y-97408098D01*
X153501692Y-97478821D01*
X153491431Y-97511866D01*
X153467053Y-97717833D01*
X151881298Y-97717833D01*
X151870707Y-97602569D01*
X151864886Y-97539220D01*
X151864885Y-97539217D01*
X151864357Y-97533466D01*
X151858266Y-97511866D01*
X151809627Y-97339408D01*
X151809626Y-97339406D01*
X151808059Y-97333849D01*
X151803210Y-97324015D01*
X151718882Y-97153015D01*
X151716327Y-97147834D01*
X151703191Y-97130242D01*
X151595685Y-96986275D01*
X151595684Y-96986274D01*
X151592232Y-96981651D01*
X151500989Y-96897307D01*
X151444171Y-96844784D01*
X151444168Y-96844782D01*
X151439931Y-96840865D01*
X151264523Y-96730191D01*
X151071885Y-96653336D01*
X151066228Y-96652211D01*
X151066222Y-96652209D01*
X150874133Y-96614001D01*
X150874131Y-96614001D01*
X150868466Y-96612874D01*
X150862691Y-96612798D01*
X150862687Y-96612798D01*
X150758848Y-96611439D01*
X150661080Y-96610159D01*
X150655383Y-96611138D01*
X150655382Y-96611138D01*
X150462368Y-96644303D01*
X150462367Y-96644303D01*
X150456671Y-96645282D01*
X150262087Y-96717069D01*
X150083842Y-96823113D01*
X150079502Y-96826919D01*
X150079498Y-96826922D01*
X149964324Y-96927928D01*
X149927908Y-96959864D01*
X149924333Y-96964399D01*
X149924332Y-96964400D01*
X149830436Y-97083506D01*
X149772555Y-97124619D01*
X149731486Y-97131500D01*
X148108144Y-97131500D01*
X148091698Y-97130422D01*
X148068188Y-97127327D01*
X148060000Y-97126249D01*
X147901149Y-97147162D01*
X147753124Y-97208476D01*
X147711546Y-97240380D01*
X147657937Y-97281515D01*
X147657921Y-97281529D01*
X147632566Y-97300984D01*
X147632563Y-97300987D01*
X147626013Y-97306013D01*
X147620983Y-97312568D01*
X147606548Y-97331379D01*
X147595681Y-97343770D01*
X143673595Y-101265856D01*
X143611283Y-101299882D01*
X143540468Y-101294817D01*
X143483632Y-101252270D01*
X143458821Y-101185750D01*
X143458500Y-101176761D01*
X143458500Y-95134500D01*
X143478502Y-95066379D01*
X143532158Y-95019886D01*
X143584500Y-95008500D01*
X144101864Y-95008500D01*
X144118307Y-95009578D01*
X144150000Y-95013750D01*
X144158189Y-95012672D01*
X144189874Y-95008501D01*
X144189884Y-95008500D01*
X144189885Y-95008500D01*
X144289457Y-94995391D01*
X144300664Y-94993916D01*
X144300666Y-94993915D01*
X144308851Y-94992838D01*
X144456876Y-94931524D01*
X144489178Y-94906737D01*
X144537754Y-94883879D01*
X144584354Y-94873206D01*
X144591759Y-94871510D01*
X144744958Y-94794459D01*
X144750729Y-94789530D01*
X144750732Y-94789528D01*
X144869578Y-94688023D01*
X144875355Y-94683089D01*
X144975424Y-94543830D01*
X145039385Y-94384720D01*
X145063547Y-94214947D01*
X145063704Y-94200000D01*
X145052059Y-94103770D01*
X145044015Y-94037299D01*
X145044014Y-94037296D01*
X145043102Y-94029758D01*
X144995813Y-93904609D01*
X144985171Y-93876447D01*
X144982487Y-93869344D01*
X144885357Y-93728019D01*
X144825417Y-93674614D01*
X144762993Y-93618996D01*
X144762990Y-93618994D01*
X144757321Y-93613943D01*
X144605769Y-93533700D01*
X144595251Y-93531058D01*
X144446822Y-93493775D01*
X144446818Y-93493775D01*
X144439451Y-93491924D01*
X144431852Y-93491884D01*
X144431850Y-93491884D01*
X144360394Y-93491510D01*
X144267969Y-93491026D01*
X144260589Y-93492798D01*
X144260587Y-93492798D01*
X144184096Y-93511162D01*
X144113188Y-93507615D01*
X144055454Y-93466295D01*
X144046963Y-93454009D01*
X144005504Y-93385686D01*
X144005501Y-93385682D01*
X144002595Y-93380893D01*
X143998886Y-93376694D01*
X143998883Y-93376689D01*
X143996491Y-93373981D01*
X143996488Y-93373977D01*
X143995197Y-93372516D01*
X140445405Y-89822724D01*
X140411379Y-89760412D01*
X140408500Y-89733629D01*
X140408500Y-88155707D01*
X140393182Y-88024319D01*
X140389106Y-88013088D01*
X140335329Y-87864939D01*
X140335329Y-87864938D01*
X140332833Y-87858063D01*
X140327548Y-87850001D01*
X140239868Y-87716267D01*
X140239867Y-87716266D01*
X140235856Y-87710148D01*
X140107453Y-87588510D01*
X139954510Y-87499674D01*
X139947506Y-87497553D01*
X139947502Y-87497551D01*
X139792239Y-87450527D01*
X139792240Y-87450527D01*
X139785233Y-87448405D01*
X139608702Y-87437453D01*
X139601486Y-87438693D01*
X139601484Y-87438693D01*
X139441602Y-87466166D01*
X139434386Y-87467406D01*
X139271636Y-87536657D01*
X139265748Y-87540990D01*
X139265743Y-87540993D01*
X139167416Y-87613355D01*
X139129182Y-87641492D01*
X139124443Y-87647070D01*
X139124440Y-87647073D01*
X139019406Y-87770706D01*
X139019403Y-87770710D01*
X139014667Y-87776285D01*
X138934231Y-87933808D01*
X138932492Y-87940913D01*
X138932491Y-87940917D01*
X138914917Y-88012739D01*
X138892192Y-88105610D01*
X138891500Y-88116764D01*
X138891500Y-90032930D01*
X138890067Y-90051880D01*
X138888006Y-90065429D01*
X138886801Y-90073349D01*
X138887394Y-90080641D01*
X138887394Y-90080644D01*
X138891085Y-90126018D01*
X138891500Y-90136233D01*
X138891500Y-90144293D01*
X138891925Y-90147937D01*
X138894789Y-90172507D01*
X138895222Y-90176882D01*
X138901140Y-90249637D01*
X138903396Y-90256601D01*
X138904587Y-90262560D01*
X138905971Y-90268415D01*
X138906818Y-90275681D01*
X138931735Y-90344327D01*
X138933152Y-90348455D01*
X138955649Y-90417899D01*
X138959445Y-90424154D01*
X138961951Y-90429628D01*
X138964670Y-90435058D01*
X138967167Y-90441937D01*
X138971180Y-90448057D01*
X138971180Y-90448058D01*
X139007186Y-90502976D01*
X139009523Y-90506680D01*
X139047405Y-90569107D01*
X139051121Y-90573315D01*
X139051122Y-90573316D01*
X139054803Y-90577484D01*
X139054776Y-90577508D01*
X139057429Y-90580500D01*
X139060132Y-90583733D01*
X139064144Y-90589852D01*
X139069456Y-90594884D01*
X139120383Y-90643128D01*
X139122825Y-90645506D01*
X140504823Y-92027504D01*
X140538849Y-92089816D01*
X140533784Y-92160631D01*
X140491237Y-92217467D01*
X140424717Y-92242278D01*
X140415728Y-92242599D01*
X139296232Y-92242599D01*
X139237276Y-92227955D01*
X139155769Y-92184799D01*
X139138196Y-92180385D01*
X138996822Y-92144874D01*
X138996818Y-92144874D01*
X138989451Y-92143023D01*
X138981852Y-92142983D01*
X138981850Y-92142983D01*
X138910394Y-92142609D01*
X138817969Y-92142125D01*
X138810589Y-92143897D01*
X138810587Y-92143897D01*
X138658602Y-92180385D01*
X138658598Y-92180386D01*
X138651223Y-92182157D01*
X138498839Y-92260808D01*
X138369615Y-92373538D01*
X138271010Y-92513838D01*
X138243257Y-92585020D01*
X138213886Y-92660354D01*
X138208718Y-92673608D01*
X138207726Y-92681141D01*
X138207726Y-92681142D01*
X138188621Y-92826264D01*
X138186335Y-92843625D01*
X138205153Y-93014074D01*
X138264085Y-93175114D01*
X138359730Y-93317448D01*
X138486565Y-93432859D01*
X138565851Y-93475908D01*
X138616171Y-93525989D01*
X138624052Y-93543333D01*
X138672094Y-93674614D01*
X138707981Y-93728019D01*
X138720601Y-93746799D01*
X138741993Y-93814497D01*
X138723389Y-93883012D01*
X138719106Y-93889526D01*
X138708190Y-93905058D01*
X138632792Y-94012338D01*
X138570500Y-94172108D01*
X138569508Y-94179641D01*
X138569508Y-94179642D01*
X138564323Y-94219031D01*
X138548117Y-94342125D01*
X138556528Y-94418310D01*
X138564430Y-94489880D01*
X138566935Y-94512574D01*
X138569544Y-94519705D01*
X138569545Y-94519707D01*
X138577756Y-94542145D01*
X138625867Y-94673614D01*
X138630104Y-94679920D01*
X138630106Y-94679923D01*
X138635549Y-94688023D01*
X138721512Y-94815948D01*
X138848347Y-94931359D01*
X138855022Y-94934983D01*
X138964920Y-94994653D01*
X139015242Y-95044736D01*
X139023124Y-95062083D01*
X139064085Y-95174015D01*
X139068322Y-95180321D01*
X139068324Y-95180324D01*
X139098346Y-95225000D01*
X139159730Y-95316349D01*
X139165345Y-95321458D01*
X139165350Y-95321464D01*
X139254746Y-95402808D01*
X139291668Y-95463448D01*
X139294868Y-95512447D01*
X139285568Y-95583089D01*
X139281898Y-95610963D01*
X139289474Y-95679584D01*
X139292430Y-95706360D01*
X139280024Y-95776265D01*
X139270278Y-95792638D01*
X139253603Y-95816364D01*
X139221010Y-95862739D01*
X139193499Y-95933302D01*
X139170643Y-95991924D01*
X139158718Y-96022509D01*
X139157726Y-96030042D01*
X139157726Y-96030043D01*
X139137363Y-96184720D01*
X139136335Y-96192526D01*
X139138722Y-96214144D01*
X139141587Y-96240098D01*
X139129181Y-96310003D01*
X139080951Y-96362103D01*
X139012210Y-96379857D01*
X138944783Y-96357629D01*
X138912508Y-96325292D01*
X138849956Y-96234278D01*
X138849955Y-96234276D01*
X138845654Y-96228019D01*
X138822661Y-96207533D01*
X138723290Y-96118996D01*
X138723287Y-96118994D01*
X138717618Y-96113943D01*
X138701954Y-96105649D01*
X138584626Y-96043527D01*
X138566066Y-96033700D01*
X138521513Y-96022509D01*
X138407119Y-95993775D01*
X138407115Y-95993775D01*
X138399748Y-95991924D01*
X138392149Y-95991884D01*
X138392147Y-95991884D01*
X138320691Y-95991510D01*
X138228266Y-95991026D01*
X138220886Y-95992798D01*
X138220884Y-95992798D01*
X138068899Y-96029286D01*
X138068895Y-96029287D01*
X138061520Y-96031058D01*
X137983169Y-96071498D01*
X137971606Y-96077466D01*
X137913816Y-96091500D01*
X136234019Y-96091500D01*
X136165898Y-96071498D01*
X136119405Y-96017842D01*
X136108019Y-95965500D01*
X136108019Y-86266147D01*
X136128021Y-86198026D01*
X136177405Y-86153582D01*
X136288174Y-86097871D01*
X136294958Y-86094459D01*
X136300729Y-86089530D01*
X136300732Y-86089528D01*
X136419578Y-85988023D01*
X136425355Y-85983089D01*
X136525424Y-85843830D01*
X136589385Y-85684720D01*
X136613547Y-85514947D01*
X136613704Y-85500000D01*
X136607361Y-85447587D01*
X136594015Y-85337299D01*
X136594014Y-85337296D01*
X136593102Y-85329758D01*
X136532487Y-85169344D01*
X136435357Y-85028019D01*
X136429686Y-85022966D01*
X136312993Y-84918996D01*
X136312990Y-84918994D01*
X136307321Y-84913943D01*
X136155769Y-84833700D01*
X136092998Y-84817933D01*
X135996822Y-84793775D01*
X135996818Y-84793775D01*
X135989451Y-84791924D01*
X135981852Y-84791884D01*
X135981850Y-84791884D01*
X135910394Y-84791510D01*
X135817969Y-84791026D01*
X135810589Y-84792798D01*
X135810587Y-84792798D01*
X135705462Y-84818036D01*
X135634554Y-84814488D01*
X135592231Y-84789595D01*
X135507321Y-84713943D01*
X135499325Y-84709709D01*
X135385313Y-84649343D01*
X135355769Y-84633700D01*
X135329760Y-84627167D01*
X135196822Y-84593775D01*
X135196818Y-84593775D01*
X135189451Y-84591924D01*
X135181852Y-84591884D01*
X135181850Y-84591884D01*
X135110394Y-84591510D01*
X135017969Y-84591026D01*
X135010589Y-84592798D01*
X135010587Y-84592798D01*
X134858602Y-84629286D01*
X134858598Y-84629287D01*
X134851223Y-84631058D01*
X134698839Y-84709709D01*
X134569615Y-84822439D01*
X134558908Y-84837673D01*
X134503378Y-84881904D01*
X134455162Y-84891221D01*
X134417969Y-84891026D01*
X134410589Y-84892798D01*
X134410587Y-84892798D01*
X134258602Y-84929286D01*
X134258598Y-84929287D01*
X134251223Y-84931058D01*
X134098839Y-85009709D01*
X133969615Y-85122439D01*
X133871010Y-85262739D01*
X133868250Y-85269819D01*
X133813065Y-85411359D01*
X133784767Y-85454684D01*
X130479780Y-88759671D01*
X130467389Y-88770538D01*
X130442027Y-88789999D01*
X130417540Y-88821911D01*
X130417537Y-88821914D01*
X130417531Y-88821922D01*
X130352839Y-88906230D01*
X130344490Y-88917110D01*
X130283176Y-89065135D01*
X130283176Y-89065136D01*
X130267514Y-89184101D01*
X130267514Y-89184106D01*
X130262264Y-89223986D01*
X130263342Y-89232174D01*
X130266436Y-89255676D01*
X130267514Y-89272122D01*
X130267514Y-92758143D01*
X130247512Y-92826264D01*
X130193856Y-92872757D01*
X130123582Y-92882861D01*
X130059002Y-92853367D01*
X130052419Y-92847238D01*
X129695405Y-92490224D01*
X129661379Y-92427912D01*
X129658500Y-92401129D01*
X129658500Y-92135929D01*
X129667592Y-92088933D01*
X129686553Y-92041764D01*
X129689385Y-92034720D01*
X129691181Y-92022100D01*
X129712966Y-91869031D01*
X129712966Y-91869027D01*
X129713547Y-91864947D01*
X129713704Y-91850000D01*
X129693102Y-91679758D01*
X129666634Y-91609712D01*
X129658500Y-91565174D01*
X129658500Y-84734866D01*
X129659933Y-84715915D01*
X129662099Y-84701680D01*
X129662099Y-84701678D01*
X129663199Y-84694448D01*
X129658915Y-84641779D01*
X129658500Y-84631564D01*
X129658500Y-84623504D01*
X129655211Y-84595290D01*
X129654778Y-84590915D01*
X129649454Y-84525458D01*
X129649453Y-84525455D01*
X129648860Y-84518160D01*
X129646604Y-84511196D01*
X129645413Y-84505237D01*
X129644029Y-84499382D01*
X129643182Y-84492116D01*
X129618265Y-84423470D01*
X129616848Y-84419342D01*
X129596607Y-84356861D01*
X129596606Y-84356859D01*
X129594351Y-84349898D01*
X129590555Y-84343643D01*
X129588049Y-84338169D01*
X129585330Y-84332739D01*
X129582833Y-84325860D01*
X129542809Y-84264813D01*
X129540472Y-84261109D01*
X129505509Y-84203490D01*
X129505505Y-84203485D01*
X129502595Y-84198689D01*
X129495197Y-84190313D01*
X129495223Y-84190290D01*
X129492574Y-84187300D01*
X129489866Y-84184061D01*
X129485856Y-84177945D01*
X129480549Y-84172918D01*
X129480546Y-84172914D01*
X129429617Y-84124669D01*
X129427175Y-84122291D01*
X129244224Y-83939340D01*
X129140487Y-83857266D01*
X129133856Y-83854167D01*
X129133853Y-83854165D01*
X128986885Y-83785477D01*
X128986881Y-83785476D01*
X128980253Y-83782378D01*
X128973091Y-83780888D01*
X128973090Y-83780888D01*
X128829131Y-83750945D01*
X128807088Y-83746360D01*
X128630282Y-83751143D01*
X128623200Y-83753021D01*
X128623199Y-83753021D01*
X128466401Y-83794596D01*
X128466399Y-83794597D01*
X128459319Y-83796474D01*
X128452860Y-83799930D01*
X128309829Y-83876461D01*
X128309826Y-83876463D01*
X128303369Y-83879918D01*
X128297881Y-83884765D01*
X128297878Y-83884767D01*
X128255144Y-83922509D01*
X128170799Y-83997000D01*
X128068719Y-84141440D01*
X128065984Y-84148226D01*
X128065982Y-84148230D01*
X128045647Y-84198689D01*
X128002605Y-84305489D01*
X128001504Y-84312726D01*
X127980211Y-84452697D01*
X127976004Y-84480349D01*
X127990343Y-84656637D01*
X127992597Y-84663596D01*
X127992598Y-84663599D01*
X128034769Y-84793775D01*
X128044852Y-84824899D01*
X128048648Y-84831154D01*
X128048649Y-84831157D01*
X128123219Y-84954043D01*
X128141500Y-85019409D01*
X128141500Y-88906230D01*
X128121498Y-88974351D01*
X128067842Y-89020844D01*
X127997568Y-89030948D01*
X127984805Y-89028434D01*
X127846822Y-88993775D01*
X127846818Y-88993775D01*
X127839451Y-88991924D01*
X127831852Y-88991884D01*
X127831850Y-88991884D01*
X127760394Y-88991510D01*
X127667969Y-88991026D01*
X127660589Y-88992798D01*
X127660587Y-88992798D01*
X127508602Y-89029286D01*
X127508598Y-89029287D01*
X127501223Y-89031058D01*
X127348839Y-89109709D01*
X127219615Y-89222439D01*
X127121010Y-89362739D01*
X127118250Y-89369819D01*
X127076838Y-89476035D01*
X127058718Y-89522509D01*
X127057726Y-89530042D01*
X127057726Y-89530043D01*
X127056280Y-89541026D01*
X127040656Y-89659709D01*
X127039517Y-89668357D01*
X127010795Y-89733284D01*
X126951530Y-89772376D01*
X126880538Y-89773221D01*
X126843203Y-89755620D01*
X126838121Y-89751092D01*
X126830125Y-89746858D01*
X126777523Y-89719007D01*
X126686569Y-89670849D01*
X126642219Y-89659709D01*
X126527622Y-89630924D01*
X126527618Y-89630924D01*
X126520251Y-89629073D01*
X126512652Y-89629033D01*
X126512650Y-89629033D01*
X126441194Y-89628659D01*
X126348769Y-89628175D01*
X126341389Y-89629947D01*
X126341387Y-89629947D01*
X126189402Y-89666435D01*
X126189398Y-89666436D01*
X126182023Y-89668207D01*
X126029639Y-89746858D01*
X125900415Y-89859588D01*
X125801810Y-89999888D01*
X125785212Y-90042460D01*
X125744088Y-90147937D01*
X125739518Y-90159658D01*
X125738526Y-90167191D01*
X125738526Y-90167192D01*
X125723339Y-90282553D01*
X125717135Y-90329675D01*
X125735953Y-90500124D01*
X125738562Y-90507255D01*
X125738563Y-90507257D01*
X125788285Y-90643128D01*
X125794885Y-90661164D01*
X125799120Y-90667467D01*
X125799125Y-90667476D01*
X125800883Y-90670092D01*
X125801516Y-90672167D01*
X125802571Y-90674239D01*
X125802204Y-90674426D01*
X125822300Y-90740365D01*
X125822300Y-91581957D01*
X125807343Y-91641500D01*
X125806177Y-91643674D01*
X125801810Y-91649888D01*
X125739518Y-91809658D01*
X125717135Y-91979675D01*
X125723212Y-92034720D01*
X125735070Y-92142125D01*
X125735953Y-92150124D01*
X125738562Y-92157255D01*
X125738563Y-92157257D01*
X125747027Y-92180385D01*
X125794885Y-92311164D01*
X125890530Y-92453498D01*
X126017365Y-92568909D01*
X126168068Y-92650734D01*
X126333939Y-92694250D01*
X126421386Y-92695623D01*
X126497803Y-92696824D01*
X126497806Y-92696824D01*
X126505402Y-92696943D01*
X126512806Y-92695247D01*
X126512808Y-92695247D01*
X126607288Y-92673608D01*
X126672559Y-92658659D01*
X126825758Y-92581608D01*
X126831529Y-92576679D01*
X126831532Y-92576677D01*
X126933669Y-92489443D01*
X126998459Y-92460412D01*
X127068659Y-92471017D01*
X127121982Y-92517892D01*
X127141500Y-92585254D01*
X127141500Y-101701864D01*
X127140422Y-101718307D01*
X127136250Y-101750000D01*
X127137328Y-101758189D01*
X127138706Y-101768658D01*
X127141500Y-101789880D01*
X127141500Y-101789885D01*
X127145161Y-101817691D01*
X127157162Y-101908851D01*
X127218476Y-102056876D01*
X127223503Y-102063427D01*
X127223504Y-102063429D01*
X127291520Y-102152069D01*
X127291526Y-102152075D01*
X127316013Y-102183987D01*
X127322568Y-102189017D01*
X127341379Y-102203452D01*
X127353770Y-102214319D01*
X129723106Y-104583655D01*
X129757132Y-104645967D01*
X129752067Y-104716782D01*
X129709520Y-104773618D01*
X129643000Y-104798429D01*
X129633863Y-104798750D01*
X121719653Y-104789474D01*
X121706302Y-104788009D01*
X121706286Y-104788223D01*
X121697334Y-104787549D01*
X121688571Y-104785613D01*
X121679620Y-104786214D01*
X121679614Y-104786214D01*
X121678859Y-104786265D01*
X121649021Y-104784718D01*
X121594233Y-104775278D01*
X121579794Y-104772790D01*
X121553746Y-104765346D01*
X121470303Y-104731430D01*
X121446450Y-104718592D01*
X121372188Y-104667627D01*
X121351630Y-104649987D01*
X121289975Y-104584324D01*
X121273663Y-104562697D01*
X121227469Y-104485374D01*
X121216156Y-104460758D01*
X121187558Y-104375347D01*
X121181768Y-104348886D01*
X121174937Y-104285704D01*
X121175303Y-104269925D01*
X121174325Y-104269913D01*
X121174435Y-104260943D01*
X121175817Y-104252069D01*
X121171689Y-104220497D01*
X121170626Y-104204162D01*
X121170626Y-80603250D01*
X121172372Y-80582345D01*
X121174896Y-80567344D01*
X121174896Y-80567341D01*
X121175702Y-80562552D01*
X121175855Y-80550000D01*
X121175165Y-80545182D01*
X121174849Y-80540329D01*
X121175136Y-80540310D01*
X121174733Y-80513550D01*
X121181360Y-80454740D01*
X121187639Y-80427234D01*
X121214611Y-80350153D01*
X121226850Y-80324736D01*
X121270304Y-80255583D01*
X121287891Y-80233530D01*
X121345639Y-80175784D01*
X121367698Y-80158193D01*
X121436845Y-80114746D01*
X121462268Y-80102504D01*
X121539347Y-80075535D01*
X121566853Y-80069257D01*
X121573230Y-80068539D01*
X121622541Y-80062984D01*
X121638185Y-80062201D01*
X121646962Y-80062309D01*
X121655837Y-80063691D01*
X121664740Y-80062527D01*
X121664741Y-80062527D01*
X121687412Y-80059563D01*
X121703746Y-80058500D01*
X141260458Y-80058500D01*
X141328579Y-80078502D01*
G37*
%TD.AperFunction*%
%TA.AperFunction,Conductor*%
G36*
X140062278Y-101603502D02*
G01*
X140108771Y-101657158D01*
X140118875Y-101727432D01*
X140089381Y-101792012D01*
X140083252Y-101798595D01*
X137773595Y-104108252D01*
X137711283Y-104142278D01*
X137640468Y-104137213D01*
X137583632Y-104094666D01*
X137558821Y-104028146D01*
X137558500Y-104019157D01*
X137558500Y-103590540D01*
X137559578Y-103574094D01*
X137561588Y-103558827D01*
X137563751Y-103542396D01*
X137542838Y-103383545D01*
X137481524Y-103235520D01*
X137408478Y-103140325D01*
X137408474Y-103140321D01*
X137408471Y-103140317D01*
X137389016Y-103114962D01*
X137389013Y-103114959D01*
X137383987Y-103108409D01*
X137377432Y-103103379D01*
X137358621Y-103088944D01*
X137346230Y-103078077D01*
X136066935Y-101798782D01*
X136032909Y-101736470D01*
X136037974Y-101665655D01*
X136080521Y-101608819D01*
X136152626Y-101583733D01*
X136156370Y-101583632D01*
X136159546Y-101583546D01*
X136162950Y-101583500D01*
X139994157Y-101583500D01*
X140062278Y-101603502D01*
G37*
%TD.AperFunction*%
%TA.AperFunction,Conductor*%
G36*
X139214887Y-96541794D02*
G01*
X139248994Y-96575965D01*
X139270080Y-96607345D01*
X139291500Y-96677621D01*
X139291500Y-99351864D01*
X139290422Y-99368307D01*
X139286250Y-99400000D01*
X139291500Y-99439880D01*
X139291500Y-99439885D01*
X139298896Y-99496057D01*
X139300384Y-99507362D01*
X139300384Y-99507364D01*
X139302874Y-99526275D01*
X139307162Y-99558851D01*
X139368476Y-99706876D01*
X139373503Y-99713427D01*
X139373504Y-99713429D01*
X139441520Y-99802069D01*
X139441526Y-99802075D01*
X139466013Y-99833987D01*
X139472563Y-99839013D01*
X139472566Y-99839016D01*
X139474551Y-99840539D01*
X139475801Y-99842251D01*
X139478405Y-99844855D01*
X139477999Y-99845261D01*
X139516417Y-99897878D01*
X139520637Y-99968749D01*
X139485872Y-100030651D01*
X139423158Y-100063931D01*
X139397845Y-100066500D01*
X136516371Y-100066500D01*
X136448250Y-100046498D01*
X136427276Y-100029595D01*
X134499921Y-98102240D01*
X134465895Y-98039928D01*
X134470960Y-97969113D01*
X134507095Y-97917411D01*
X134507698Y-97916895D01*
X134572460Y-97887803D01*
X134642670Y-97898342D01*
X134674418Y-97919435D01*
X134792242Y-98026646D01*
X134792246Y-98026649D01*
X134797863Y-98031760D01*
X134948566Y-98113585D01*
X135114437Y-98157101D01*
X135201665Y-98158471D01*
X135278301Y-98159675D01*
X135278304Y-98159675D01*
X135285900Y-98159794D01*
X135293304Y-98158098D01*
X135293306Y-98158098D01*
X135356144Y-98143706D01*
X135453057Y-98121510D01*
X135606256Y-98044459D01*
X135612027Y-98039530D01*
X135612030Y-98039528D01*
X135730876Y-97938023D01*
X135736653Y-97933089D01*
X135836722Y-97793830D01*
X135900192Y-97635940D01*
X135928005Y-97593842D01*
X136176442Y-97345405D01*
X136238754Y-97311379D01*
X136265537Y-97308500D01*
X137914111Y-97308500D01*
X137974233Y-97323769D01*
X138047565Y-97363585D01*
X138213436Y-97407101D01*
X138300883Y-97408474D01*
X138377300Y-97409675D01*
X138377303Y-97409675D01*
X138384899Y-97409794D01*
X138392303Y-97408098D01*
X138392305Y-97408098D01*
X138455143Y-97393706D01*
X138552056Y-97371510D01*
X138705255Y-97294459D01*
X138711026Y-97289530D01*
X138711029Y-97289528D01*
X138829875Y-97188023D01*
X138835652Y-97183089D01*
X138935721Y-97043830D01*
X138999682Y-96884720D01*
X139000752Y-96877202D01*
X139023263Y-96719031D01*
X139023263Y-96719027D01*
X139023844Y-96714947D01*
X139024001Y-96700000D01*
X139019327Y-96661380D01*
X139030999Y-96591352D01*
X139078680Y-96538749D01*
X139147231Y-96520274D01*
X139214887Y-96541794D01*
G37*
%TD.AperFunction*%
%TA.AperFunction,Conductor*%
G36*
X134409532Y-86655183D02*
G01*
X134466368Y-86697730D01*
X134491179Y-86764250D01*
X134491500Y-86773239D01*
X134491500Y-95590489D01*
X134471498Y-95658610D01*
X134454595Y-95679584D01*
X133703766Y-96430413D01*
X133691375Y-96441280D01*
X133666013Y-96460741D01*
X133641526Y-96492653D01*
X133641523Y-96492656D01*
X133641517Y-96492664D01*
X133576304Y-96577651D01*
X133568476Y-96587852D01*
X133507162Y-96735877D01*
X133507162Y-96735878D01*
X133505414Y-96749154D01*
X133497048Y-96812701D01*
X133468326Y-96877629D01*
X133409060Y-96916720D01*
X133338069Y-96917565D01*
X133283031Y-96885350D01*
X132908770Y-96511089D01*
X132896384Y-96496677D01*
X132887851Y-96485082D01*
X132887846Y-96485077D01*
X132883508Y-96479182D01*
X132877930Y-96474443D01*
X132877927Y-96474440D01*
X132843232Y-96444965D01*
X132835716Y-96438035D01*
X132830021Y-96432340D01*
X132823880Y-96427482D01*
X132807749Y-96414719D01*
X132804345Y-96411928D01*
X132754297Y-96369409D01*
X132754295Y-96369408D01*
X132748715Y-96364667D01*
X132742199Y-96361339D01*
X132737150Y-96357972D01*
X132732021Y-96354805D01*
X132726284Y-96350266D01*
X132660125Y-96319345D01*
X132656225Y-96317439D01*
X132655906Y-96317276D01*
X132591192Y-96284231D01*
X132584084Y-96282492D01*
X132578441Y-96280393D01*
X132572678Y-96278476D01*
X132566050Y-96275378D01*
X132494583Y-96260513D01*
X132490299Y-96259543D01*
X132419390Y-96242192D01*
X132413788Y-96241844D01*
X132413785Y-96241844D01*
X132408236Y-96241500D01*
X132408238Y-96241464D01*
X132404245Y-96241225D01*
X132400053Y-96240851D01*
X132392885Y-96239360D01*
X132326675Y-96241151D01*
X132315479Y-96241454D01*
X132312072Y-96241500D01*
X130976506Y-96241500D01*
X130908385Y-96221498D01*
X130861892Y-96167842D01*
X130851763Y-96097747D01*
X130853213Y-96087558D01*
X130860204Y-96038440D01*
X130889603Y-95973818D01*
X130949274Y-95935349D01*
X130956816Y-95933374D01*
X131110373Y-95898205D01*
X131110374Y-95898205D01*
X131117773Y-95896510D01*
X131270972Y-95819459D01*
X131276743Y-95814530D01*
X131276746Y-95814528D01*
X131395592Y-95713023D01*
X131401369Y-95708089D01*
X131501438Y-95568830D01*
X131565399Y-95409720D01*
X131589561Y-95239947D01*
X131589718Y-95225000D01*
X131585272Y-95188262D01*
X131570029Y-95062299D01*
X131570028Y-95062296D01*
X131569116Y-95054758D01*
X131553621Y-95013750D01*
X131544524Y-94989678D01*
X131508501Y-94894344D01*
X131504201Y-94888087D01*
X131500679Y-94881350D01*
X131503077Y-94880096D01*
X131484514Y-94820318D01*
X131484514Y-89528225D01*
X131504516Y-89460104D01*
X131521419Y-89439130D01*
X134276405Y-86684144D01*
X134338717Y-86650118D01*
X134409532Y-86655183D01*
G37*
%TD.AperFunction*%
%TD*%
M02*
