%TF.GenerationSoftware,KiCad,Pcbnew,6.0.4-6f826c9f35~116~ubuntu18.04.1*%
%TF.CreationDate,2022-08-05T10:58:23+02:00*%
%TF.ProjectId,test,74657374-2e6b-4696-9361-645f70636258,rev?*%
%TF.SameCoordinates,Original*%
%TF.FileFunction,Legend,Top*%
%TF.FilePolarity,Positive*%
%FSLAX46Y46*%
G04 Gerber Fmt 4.6, Leading zero omitted, Abs format (unit mm)*
G04 Created by KiCad (PCBNEW 6.0.4-6f826c9f35~116~ubuntu18.04.1) date 2022-08-05 10:58:23*
%MOMM*%
%LPD*%
G01*
G04 APERTURE LIST*
%ADD10C,0.150000*%
%ADD11C,0.120000*%
%ADD12C,0.254000*%
%ADD13C,0.127000*%
%ADD14C,0.025400*%
%ADD15C,0.050000*%
%ADD16C,0.025000*%
%ADD17C,0.075000*%
%ADD18C,0.100000*%
%ADD19C,0.300000*%
%ADD20C,0.200000*%
G04 APERTURE END LIST*
D10*
%TO.C,U1*%
X129645871Y-89834897D02*
X129645871Y-90442040D01*
X129681585Y-90513469D01*
X129717300Y-90549183D01*
X129788728Y-90584897D01*
X129931585Y-90584897D01*
X130003014Y-90549183D01*
X130038728Y-90513469D01*
X130074442Y-90442040D01*
X130074442Y-89834897D01*
X130824442Y-90584897D02*
X130395871Y-90584897D01*
X130610157Y-90584897D02*
X130610157Y-89834897D01*
X130538728Y-89942040D01*
X130467300Y-90013469D01*
X130395871Y-90049183D01*
%TO.C,*%
%TO.C,FIXATION_ECRAN1*%
X128898571Y-89828571D02*
X128898571Y-90161904D01*
X129422380Y-90161904D02*
X128422380Y-90161904D01*
X128422380Y-89685714D01*
X129422380Y-89304761D02*
X128422380Y-89304761D01*
X128422380Y-88923809D02*
X129422380Y-88257142D01*
X128422380Y-88257142D02*
X129422380Y-88923809D01*
X129136666Y-87923809D02*
X129136666Y-87447619D01*
X129422380Y-88019047D02*
X128422380Y-87685714D01*
X129422380Y-87352380D01*
X128422380Y-87161904D02*
X128422380Y-86590476D01*
X129422380Y-86876190D02*
X128422380Y-86876190D01*
X129422380Y-86257142D02*
X128422380Y-86257142D01*
X128422380Y-85590476D02*
X128422380Y-85400000D01*
X128470000Y-85304761D01*
X128565238Y-85209523D01*
X128755714Y-85161904D01*
X129089047Y-85161904D01*
X129279523Y-85209523D01*
X129374761Y-85304761D01*
X129422380Y-85400000D01*
X129422380Y-85590476D01*
X129374761Y-85685714D01*
X129279523Y-85780952D01*
X129089047Y-85828571D01*
X128755714Y-85828571D01*
X128565238Y-85780952D01*
X128470000Y-85685714D01*
X128422380Y-85590476D01*
X129422380Y-84733333D02*
X128422380Y-84733333D01*
X129422380Y-84161904D01*
X128422380Y-84161904D01*
X129517619Y-83923809D02*
X129517619Y-83161904D01*
X128898571Y-82923809D02*
X128898571Y-82590476D01*
X129422380Y-82447619D02*
X129422380Y-82923809D01*
X128422380Y-82923809D01*
X128422380Y-82447619D01*
X129327142Y-81447619D02*
X129374761Y-81495238D01*
X129422380Y-81638095D01*
X129422380Y-81733333D01*
X129374761Y-81876190D01*
X129279523Y-81971428D01*
X129184285Y-82019047D01*
X128993809Y-82066666D01*
X128850952Y-82066666D01*
X128660476Y-82019047D01*
X128565238Y-81971428D01*
X128470000Y-81876190D01*
X128422380Y-81733333D01*
X128422380Y-81638095D01*
X128470000Y-81495238D01*
X128517619Y-81447619D01*
X129422380Y-80447619D02*
X128946190Y-80780952D01*
X129422380Y-81019047D02*
X128422380Y-81019047D01*
X128422380Y-80638095D01*
X128470000Y-80542857D01*
X128517619Y-80495238D01*
X128612857Y-80447619D01*
X128755714Y-80447619D01*
X128850952Y-80495238D01*
X128898571Y-80542857D01*
X128946190Y-80638095D01*
X128946190Y-81019047D01*
X129136666Y-80066666D02*
X129136666Y-79590476D01*
X129422380Y-80161904D02*
X128422380Y-79828571D01*
X129422380Y-79495238D01*
X129422380Y-79161904D02*
X128422380Y-79161904D01*
X129422380Y-78590476D01*
X128422380Y-78590476D01*
X129422380Y-77590476D02*
X129422380Y-78161904D01*
X129422380Y-77876190D02*
X128422380Y-77876190D01*
X128565238Y-77971428D01*
X128660476Y-78066666D01*
X128708095Y-78161904D01*
%TO.C,*%
D11*
%TO.C,SB3*%
X129519257Y-101371314D02*
X129547828Y-101285600D01*
X129547828Y-101142742D01*
X129519257Y-101085600D01*
X129490685Y-101057028D01*
X129433542Y-101028457D01*
X129376400Y-101028457D01*
X129319257Y-101057028D01*
X129290685Y-101085600D01*
X129262114Y-101142742D01*
X129233542Y-101257028D01*
X129204971Y-101314171D01*
X129176400Y-101342742D01*
X129119257Y-101371314D01*
X129062114Y-101371314D01*
X129004971Y-101342742D01*
X128976400Y-101314171D01*
X128947828Y-101257028D01*
X128947828Y-101114171D01*
X128976400Y-101028457D01*
X129233542Y-100571314D02*
X129262114Y-100485600D01*
X129290685Y-100457028D01*
X129347828Y-100428457D01*
X129433542Y-100428457D01*
X129490685Y-100457028D01*
X129519257Y-100485600D01*
X129547828Y-100542742D01*
X129547828Y-100771314D01*
X128947828Y-100771314D01*
X128947828Y-100571314D01*
X128976400Y-100514171D01*
X129004971Y-100485600D01*
X129062114Y-100457028D01*
X129119257Y-100457028D01*
X129176400Y-100485600D01*
X129204971Y-100514171D01*
X129233542Y-100571314D01*
X129233542Y-100771314D01*
X128947828Y-100228457D02*
X128947828Y-99857028D01*
X129176400Y-100057028D01*
X129176400Y-99971314D01*
X129204971Y-99914171D01*
X129233542Y-99885600D01*
X129290685Y-99857028D01*
X129433542Y-99857028D01*
X129490685Y-99885600D01*
X129519257Y-99914171D01*
X129547828Y-99971314D01*
X129547828Y-100142742D01*
X129519257Y-100199885D01*
X129490685Y-100228457D01*
D10*
%TO.C,BUZZER1*%
X139938089Y-104816920D02*
X140081098Y-104864590D01*
X140128768Y-104912259D01*
X140176438Y-105007599D01*
X140176438Y-105150608D01*
X140128768Y-105245947D01*
X140081098Y-105293617D01*
X139985759Y-105341286D01*
X139604402Y-105341286D01*
X139604402Y-104340223D01*
X139938089Y-104340223D01*
X140033429Y-104387893D01*
X140081098Y-104435563D01*
X140128768Y-104530902D01*
X140128768Y-104626241D01*
X140081098Y-104721581D01*
X140033429Y-104769250D01*
X139938089Y-104816920D01*
X139604402Y-104816920D01*
X140605465Y-104340223D02*
X140605465Y-105150608D01*
X140653134Y-105245947D01*
X140700804Y-105293617D01*
X140796143Y-105341286D01*
X140986822Y-105341286D01*
X141082161Y-105293617D01*
X141129831Y-105245947D01*
X141177501Y-105150608D01*
X141177501Y-104340223D01*
X141558858Y-104340223D02*
X142226233Y-104340223D01*
X141558858Y-105341286D01*
X142226233Y-105341286D01*
X142512251Y-104340223D02*
X143179627Y-104340223D01*
X142512251Y-105341286D01*
X143179627Y-105341286D01*
X143560984Y-104816920D02*
X143894672Y-104816920D01*
X144037681Y-105341286D02*
X143560984Y-105341286D01*
X143560984Y-104340223D01*
X144037681Y-104340223D01*
X145038744Y-105341286D02*
X144705056Y-104864590D01*
X144466708Y-105341286D02*
X144466708Y-104340223D01*
X144848065Y-104340223D01*
X144943404Y-104387893D01*
X144991074Y-104435563D01*
X145038744Y-104530902D01*
X145038744Y-104673911D01*
X144991074Y-104769250D01*
X144943404Y-104816920D01*
X144848065Y-104864590D01*
X144466708Y-104864590D01*
X145992137Y-105341286D02*
X145420101Y-105341286D01*
X145706119Y-105341286D02*
X145706119Y-104340223D01*
X145610780Y-104483232D01*
X145515440Y-104578572D01*
X145420101Y-104626241D01*
X138005168Y-101141055D02*
X138767631Y-101141055D01*
X138386400Y-101522287D02*
X138386400Y-100759824D01*
%TO.C,*%
%TO.C,BUTTON3*%
X128544018Y-77783757D02*
X128656504Y-77821252D01*
X128693999Y-77858747D01*
X128731495Y-77933738D01*
X128731495Y-78046224D01*
X128693999Y-78121215D01*
X128656504Y-78158710D01*
X128581513Y-78196205D01*
X128281551Y-78196205D01*
X128281551Y-77408803D01*
X128544018Y-77408803D01*
X128619009Y-77446299D01*
X128656504Y-77483794D01*
X128693999Y-77558785D01*
X128693999Y-77633775D01*
X128656504Y-77708766D01*
X128619009Y-77746261D01*
X128544018Y-77783757D01*
X128281551Y-77783757D01*
X129068953Y-77408803D02*
X129068953Y-78046224D01*
X129106448Y-78121215D01*
X129143943Y-78158710D01*
X129218934Y-78196205D01*
X129368915Y-78196205D01*
X129443906Y-78158710D01*
X129481401Y-78121215D01*
X129518897Y-78046224D01*
X129518897Y-77408803D01*
X129781364Y-77408803D02*
X130231308Y-77408803D01*
X130006336Y-78196205D02*
X130006336Y-77408803D01*
X130381289Y-77408803D02*
X130831233Y-77408803D01*
X130606261Y-78196205D02*
X130606261Y-77408803D01*
X131243682Y-77408803D02*
X131393663Y-77408803D01*
X131468654Y-77446299D01*
X131543645Y-77521289D01*
X131581140Y-77671271D01*
X131581140Y-77933738D01*
X131543645Y-78083719D01*
X131468654Y-78158710D01*
X131393663Y-78196205D01*
X131243682Y-78196205D01*
X131168691Y-78158710D01*
X131093701Y-78083719D01*
X131056205Y-77933738D01*
X131056205Y-77671271D01*
X131093701Y-77521289D01*
X131168691Y-77446299D01*
X131243682Y-77408803D01*
X131918598Y-78196205D02*
X131918598Y-77408803D01*
X132368542Y-78196205D01*
X132368542Y-77408803D01*
X132668505Y-77408803D02*
X133155944Y-77408803D01*
X132893477Y-77708766D01*
X133005963Y-77708766D01*
X133080953Y-77746261D01*
X133118449Y-77783757D01*
X133155944Y-77858747D01*
X133155944Y-78046224D01*
X133118449Y-78121215D01*
X133080953Y-78158710D01*
X133005963Y-78196205D01*
X132780991Y-78196205D01*
X132706000Y-78158710D01*
X132668505Y-78121215D01*
X126601996Y-78022722D02*
X126649641Y-77975076D01*
X126744933Y-77927430D01*
X126983161Y-77927430D01*
X127078452Y-77975076D01*
X127126098Y-78022722D01*
X127173744Y-78118013D01*
X127173744Y-78213304D01*
X127126098Y-78356241D01*
X126554350Y-78927989D01*
X127173744Y-78927989D01*
X129077883Y-78929280D02*
X128505456Y-78929280D01*
X128791670Y-78929280D02*
X128791670Y-77927532D01*
X128696265Y-78070639D01*
X128600860Y-78166044D01*
X128505456Y-78213746D01*
%TO.C,*%
D11*
%TO.C,X2*%
X132853913Y-97338839D02*
X133253913Y-97938839D01*
X133253913Y-97338839D02*
X132853913Y-97938839D01*
X133453913Y-97395982D02*
X133482484Y-97367411D01*
X133539627Y-97338839D01*
X133682484Y-97338839D01*
X133739627Y-97367411D01*
X133768199Y-97395982D01*
X133796770Y-97453125D01*
X133796770Y-97510268D01*
X133768199Y-97595982D01*
X133425341Y-97938839D01*
X133796770Y-97938839D01*
D10*
%TO.C,*%
D11*
%TO.C,L6*%
X141456170Y-91246240D02*
X141170456Y-91246240D01*
X141170456Y-90646240D01*
X141913313Y-90646240D02*
X141799027Y-90646240D01*
X141741884Y-90674812D01*
X141713313Y-90703383D01*
X141656170Y-90789097D01*
X141627599Y-90903383D01*
X141627599Y-91131954D01*
X141656170Y-91189097D01*
X141684741Y-91217669D01*
X141741884Y-91246240D01*
X141856170Y-91246240D01*
X141913313Y-91217669D01*
X141941884Y-91189097D01*
X141970456Y-91131954D01*
X141970456Y-90989097D01*
X141941884Y-90931954D01*
X141913313Y-90903383D01*
X141856170Y-90874812D01*
X141741884Y-90874812D01*
X141684741Y-90903383D01*
X141656170Y-90931954D01*
X141627599Y-90989097D01*
D10*
%TO.C,*%
%TO.C,BUTTON2*%
X137744018Y-77783757D02*
X137856504Y-77821252D01*
X137893999Y-77858747D01*
X137931495Y-77933738D01*
X137931495Y-78046224D01*
X137893999Y-78121215D01*
X137856504Y-78158710D01*
X137781513Y-78196205D01*
X137481551Y-78196205D01*
X137481551Y-77408803D01*
X137744018Y-77408803D01*
X137819009Y-77446299D01*
X137856504Y-77483794D01*
X137893999Y-77558785D01*
X137893999Y-77633775D01*
X137856504Y-77708766D01*
X137819009Y-77746261D01*
X137744018Y-77783757D01*
X137481551Y-77783757D01*
X138268953Y-77408803D02*
X138268953Y-78046224D01*
X138306448Y-78121215D01*
X138343943Y-78158710D01*
X138418934Y-78196205D01*
X138568915Y-78196205D01*
X138643906Y-78158710D01*
X138681401Y-78121215D01*
X138718897Y-78046224D01*
X138718897Y-77408803D01*
X138981364Y-77408803D02*
X139431308Y-77408803D01*
X139206336Y-78196205D02*
X139206336Y-77408803D01*
X139581289Y-77408803D02*
X140031233Y-77408803D01*
X139806261Y-78196205D02*
X139806261Y-77408803D01*
X140443682Y-77408803D02*
X140593663Y-77408803D01*
X140668654Y-77446299D01*
X140743645Y-77521289D01*
X140781140Y-77671271D01*
X140781140Y-77933738D01*
X140743645Y-78083719D01*
X140668654Y-78158710D01*
X140593663Y-78196205D01*
X140443682Y-78196205D01*
X140368691Y-78158710D01*
X140293701Y-78083719D01*
X140256205Y-77933738D01*
X140256205Y-77671271D01*
X140293701Y-77521289D01*
X140368691Y-77446299D01*
X140443682Y-77408803D01*
X141118598Y-78196205D02*
X141118598Y-77408803D01*
X141568542Y-78196205D01*
X141568542Y-77408803D01*
X141906000Y-77483794D02*
X141943495Y-77446299D01*
X142018486Y-77408803D01*
X142205963Y-77408803D01*
X142280953Y-77446299D01*
X142318449Y-77483794D01*
X142355944Y-77558785D01*
X142355944Y-77633775D01*
X142318449Y-77746261D01*
X141868505Y-78196205D01*
X142355944Y-78196205D01*
X138277883Y-78929280D02*
X137705456Y-78929280D01*
X137991670Y-78929280D02*
X137991670Y-77927532D01*
X137896265Y-78070639D01*
X137800860Y-78166044D01*
X137705456Y-78213746D01*
X135801996Y-78022722D02*
X135849641Y-77975076D01*
X135944933Y-77927430D01*
X136183161Y-77927430D01*
X136278452Y-77975076D01*
X136326098Y-78022722D01*
X136373744Y-78118013D01*
X136373744Y-78213304D01*
X136326098Y-78356241D01*
X135754350Y-78927989D01*
X136373744Y-78927989D01*
%TO.C,*%
%TO.C,BUTTON1*%
X146944018Y-77783757D02*
X147056504Y-77821252D01*
X147093999Y-77858747D01*
X147131495Y-77933738D01*
X147131495Y-78046224D01*
X147093999Y-78121215D01*
X147056504Y-78158710D01*
X146981513Y-78196205D01*
X146681551Y-78196205D01*
X146681551Y-77408803D01*
X146944018Y-77408803D01*
X147019009Y-77446299D01*
X147056504Y-77483794D01*
X147093999Y-77558785D01*
X147093999Y-77633775D01*
X147056504Y-77708766D01*
X147019009Y-77746261D01*
X146944018Y-77783757D01*
X146681551Y-77783757D01*
X147468953Y-77408803D02*
X147468953Y-78046224D01*
X147506448Y-78121215D01*
X147543943Y-78158710D01*
X147618934Y-78196205D01*
X147768915Y-78196205D01*
X147843906Y-78158710D01*
X147881401Y-78121215D01*
X147918897Y-78046224D01*
X147918897Y-77408803D01*
X148181364Y-77408803D02*
X148631308Y-77408803D01*
X148406336Y-78196205D02*
X148406336Y-77408803D01*
X148781289Y-77408803D02*
X149231233Y-77408803D01*
X149006261Y-78196205D02*
X149006261Y-77408803D01*
X149643682Y-77408803D02*
X149793663Y-77408803D01*
X149868654Y-77446299D01*
X149943645Y-77521289D01*
X149981140Y-77671271D01*
X149981140Y-77933738D01*
X149943645Y-78083719D01*
X149868654Y-78158710D01*
X149793663Y-78196205D01*
X149643682Y-78196205D01*
X149568691Y-78158710D01*
X149493701Y-78083719D01*
X149456205Y-77933738D01*
X149456205Y-77671271D01*
X149493701Y-77521289D01*
X149568691Y-77446299D01*
X149643682Y-77408803D01*
X150318598Y-78196205D02*
X150318598Y-77408803D01*
X150768542Y-78196205D01*
X150768542Y-77408803D01*
X151555944Y-78196205D02*
X151106000Y-78196205D01*
X151330972Y-78196205D02*
X151330972Y-77408803D01*
X151255981Y-77521289D01*
X151180991Y-77596280D01*
X151106000Y-77633775D01*
X147477883Y-78929280D02*
X146905456Y-78929280D01*
X147191670Y-78929280D02*
X147191670Y-77927532D01*
X147096265Y-78070639D01*
X147000860Y-78166044D01*
X146905456Y-78213746D01*
X145001996Y-78022722D02*
X145049641Y-77975076D01*
X145144933Y-77927430D01*
X145383161Y-77927430D01*
X145478452Y-77975076D01*
X145526098Y-78022722D01*
X145573744Y-78118013D01*
X145573744Y-78213304D01*
X145526098Y-78356241D01*
X144954350Y-78927989D01*
X145573744Y-78927989D01*
%TO.C,*%
D11*
%TO.C,SB1*%
X125428685Y-86919257D02*
X125514400Y-86947828D01*
X125657257Y-86947828D01*
X125714400Y-86919257D01*
X125742971Y-86890685D01*
X125771542Y-86833542D01*
X125771542Y-86776400D01*
X125742971Y-86719257D01*
X125714400Y-86690685D01*
X125657257Y-86662114D01*
X125542971Y-86633542D01*
X125485828Y-86604971D01*
X125457257Y-86576400D01*
X125428685Y-86519257D01*
X125428685Y-86462114D01*
X125457257Y-86404971D01*
X125485828Y-86376400D01*
X125542971Y-86347828D01*
X125685828Y-86347828D01*
X125771542Y-86376400D01*
X126228685Y-86633542D02*
X126314400Y-86662114D01*
X126342971Y-86690685D01*
X126371542Y-86747828D01*
X126371542Y-86833542D01*
X126342971Y-86890685D01*
X126314400Y-86919257D01*
X126257257Y-86947828D01*
X126028685Y-86947828D01*
X126028685Y-86347828D01*
X126228685Y-86347828D01*
X126285828Y-86376400D01*
X126314400Y-86404971D01*
X126342971Y-86462114D01*
X126342971Y-86519257D01*
X126314400Y-86576400D01*
X126285828Y-86604971D01*
X126228685Y-86633542D01*
X126028685Y-86633542D01*
X126942971Y-86947828D02*
X126600114Y-86947828D01*
X126771542Y-86947828D02*
X126771542Y-86347828D01*
X126714400Y-86433542D01*
X126657257Y-86490685D01*
X126600114Y-86519257D01*
D12*
X128097528Y-84850057D02*
X128097528Y-84559771D01*
X128170100Y-84414628D01*
X128315242Y-84269485D01*
X128605528Y-84196914D01*
X129113528Y-84196914D01*
X129403814Y-84269485D01*
X129548957Y-84414628D01*
X129621528Y-84559771D01*
X129621528Y-84850057D01*
X129548957Y-84995200D01*
X129403814Y-85140342D01*
X129113528Y-85212914D01*
X128605528Y-85212914D01*
X128315242Y-85140342D01*
X128170100Y-84995200D01*
X128097528Y-84850057D01*
X128605528Y-83543771D02*
X130129528Y-83543771D01*
X128678100Y-83543771D02*
X128605528Y-83398628D01*
X128605528Y-83108342D01*
X128678100Y-82963200D01*
X128750671Y-82890628D01*
X128895814Y-82818057D01*
X129331242Y-82818057D01*
X129476385Y-82890628D01*
X129548957Y-82963200D01*
X129621528Y-83108342D01*
X129621528Y-83398628D01*
X129548957Y-83543771D01*
X129548957Y-81584342D02*
X129621528Y-81729485D01*
X129621528Y-82019771D01*
X129548957Y-82164914D01*
X129403814Y-82237485D01*
X128823242Y-82237485D01*
X128678100Y-82164914D01*
X128605528Y-82019771D01*
X128605528Y-81729485D01*
X128678100Y-81584342D01*
X128823242Y-81511771D01*
X128968385Y-81511771D01*
X129113528Y-82237485D01*
X128605528Y-80858628D02*
X129621528Y-80858628D01*
X128750671Y-80858628D02*
X128678100Y-80786057D01*
X128605528Y-80640914D01*
X128605528Y-80423200D01*
X128678100Y-80278057D01*
X128823242Y-80205485D01*
X129621528Y-80205485D01*
D10*
%TO.C,*%
D11*
%TO.C,L1*%
X150156170Y-91246240D02*
X149870456Y-91246240D01*
X149870456Y-90646240D01*
X150670456Y-91246240D02*
X150327599Y-91246240D01*
X150499027Y-91246240D02*
X150499027Y-90646240D01*
X150441884Y-90731954D01*
X150384741Y-90789097D01*
X150327599Y-90817669D01*
D10*
%TO.C,SW2*%
X115545558Y-101505582D02*
X115652701Y-101541296D01*
X115831272Y-101541296D01*
X115902701Y-101505582D01*
X115938415Y-101469868D01*
X115974129Y-101398439D01*
X115974129Y-101327011D01*
X115938415Y-101255582D01*
X115902701Y-101219868D01*
X115831272Y-101184153D01*
X115688415Y-101148439D01*
X115616986Y-101112725D01*
X115581272Y-101077011D01*
X115545558Y-101005582D01*
X115545558Y-100934153D01*
X115581272Y-100862725D01*
X115616986Y-100827011D01*
X115688415Y-100791296D01*
X115866986Y-100791296D01*
X115974129Y-100827011D01*
X116224129Y-100791296D02*
X116402701Y-101541296D01*
X116545558Y-101005582D01*
X116688415Y-101541296D01*
X116866986Y-100791296D01*
X117116986Y-100862725D02*
X117152701Y-100827011D01*
X117224129Y-100791296D01*
X117402701Y-100791296D01*
X117474129Y-100827011D01*
X117509843Y-100862725D01*
X117545558Y-100934153D01*
X117545558Y-101005582D01*
X117509843Y-101112725D01*
X117081272Y-101541296D01*
X117545558Y-101541296D01*
D11*
%TO.C,L4*%
X146603759Y-96006170D02*
X146603759Y-95720456D01*
X147203759Y-95720456D01*
X147003759Y-96463313D02*
X146603759Y-96463313D01*
X147232330Y-96320456D02*
X146803759Y-96177599D01*
X146803759Y-96549027D01*
D10*
%TO.C,*%
D11*
%TO.C,CN5*%
X148315115Y-96792295D02*
X148286543Y-96820867D01*
X148200829Y-96849438D01*
X148143686Y-96849438D01*
X148057972Y-96820867D01*
X148000829Y-96763724D01*
X147972258Y-96706581D01*
X147943686Y-96592295D01*
X147943686Y-96506581D01*
X147972258Y-96392295D01*
X148000829Y-96335152D01*
X148057972Y-96278010D01*
X148143686Y-96249438D01*
X148200829Y-96249438D01*
X148286543Y-96278010D01*
X148315115Y-96306581D01*
X148572258Y-96849438D02*
X148572258Y-96249438D01*
X148915115Y-96849438D01*
X148915115Y-96249438D01*
X149486543Y-96249438D02*
X149200829Y-96249438D01*
X149172258Y-96535152D01*
X149200829Y-96506581D01*
X149257972Y-96478010D01*
X149400829Y-96478010D01*
X149457972Y-96506581D01*
X149486543Y-96535152D01*
X149515115Y-96592295D01*
X149515115Y-96735152D01*
X149486543Y-96792295D01*
X149457972Y-96820867D01*
X149400829Y-96849438D01*
X149257972Y-96849438D01*
X149200829Y-96820867D01*
X149172258Y-96792295D01*
D10*
%TO.C,*%
D11*
%TO.C,SB5*%
X142469258Y-95271314D02*
X142497829Y-95185600D01*
X142497829Y-95042742D01*
X142469258Y-94985600D01*
X142440686Y-94957028D01*
X142383543Y-94928457D01*
X142326401Y-94928457D01*
X142269258Y-94957028D01*
X142240686Y-94985600D01*
X142212115Y-95042742D01*
X142183543Y-95157028D01*
X142154972Y-95214171D01*
X142126401Y-95242742D01*
X142069258Y-95271314D01*
X142012115Y-95271314D01*
X141954972Y-95242742D01*
X141926401Y-95214171D01*
X141897829Y-95157028D01*
X141897829Y-95014171D01*
X141926401Y-94928457D01*
X142183543Y-94471314D02*
X142212115Y-94385600D01*
X142240686Y-94357028D01*
X142297829Y-94328457D01*
X142383543Y-94328457D01*
X142440686Y-94357028D01*
X142469258Y-94385600D01*
X142497829Y-94442742D01*
X142497829Y-94671314D01*
X141897829Y-94671314D01*
X141897829Y-94471314D01*
X141926401Y-94414171D01*
X141954972Y-94385600D01*
X142012115Y-94357028D01*
X142069258Y-94357028D01*
X142126401Y-94385600D01*
X142154972Y-94414171D01*
X142183543Y-94471314D01*
X142183543Y-94671314D01*
X141897829Y-93785600D02*
X141897829Y-94071314D01*
X142183543Y-94099885D01*
X142154972Y-94071314D01*
X142126401Y-94014171D01*
X142126401Y-93871314D01*
X142154972Y-93814171D01*
X142183543Y-93785600D01*
X142240686Y-93757028D01*
X142383543Y-93757028D01*
X142440686Y-93785600D01*
X142469258Y-93814171D01*
X142497829Y-93871314D01*
X142497829Y-94014171D01*
X142469258Y-94071314D01*
X142440686Y-94099885D01*
D10*
%TO.C,*%
%TO.C,USB1*%
X119363280Y-95043595D02*
X120172804Y-95043595D01*
X120268042Y-94995976D01*
X120315661Y-94948357D01*
X120363280Y-94853119D01*
X120363280Y-94662642D01*
X120315661Y-94567404D01*
X120268042Y-94519785D01*
X120172804Y-94472166D01*
X119363280Y-94472166D01*
X120315661Y-94043595D02*
X120363280Y-93900738D01*
X120363280Y-93662642D01*
X120315661Y-93567404D01*
X120268042Y-93519785D01*
X120172804Y-93472166D01*
X120077566Y-93472166D01*
X119982328Y-93519785D01*
X119934709Y-93567404D01*
X119887090Y-93662642D01*
X119839471Y-93853119D01*
X119791852Y-93948357D01*
X119744233Y-93995976D01*
X119648995Y-94043595D01*
X119553757Y-94043595D01*
X119458519Y-93995976D01*
X119410900Y-93948357D01*
X119363280Y-93853119D01*
X119363280Y-93615023D01*
X119410900Y-93472166D01*
X119839471Y-92710261D02*
X119887090Y-92567404D01*
X119934709Y-92519785D01*
X120029947Y-92472166D01*
X120172804Y-92472166D01*
X120268042Y-92519785D01*
X120315661Y-92567404D01*
X120363280Y-92662642D01*
X120363280Y-93043595D01*
X119363280Y-93043595D01*
X119363280Y-92710261D01*
X119410900Y-92615023D01*
X119458519Y-92567404D01*
X119553757Y-92519785D01*
X119648995Y-92519785D01*
X119744233Y-92567404D01*
X119791852Y-92615023D01*
X119839471Y-92710261D01*
X119839471Y-93043595D01*
X120363280Y-91519785D02*
X120363280Y-92091214D01*
X120363280Y-91805500D02*
X119363280Y-91805500D01*
X119506138Y-91900738D01*
X119601376Y-91995976D01*
X119648995Y-92091214D01*
X116252380Y-97219285D02*
X116252380Y-97790714D01*
X116252380Y-97505000D02*
X115252380Y-97505000D01*
X115395238Y-97600238D01*
X115490476Y-97695476D01*
X115538095Y-97790714D01*
%TO.C,*%
%TO.C,OXYMETER1*%
X131614666Y-105555923D02*
X131736571Y-105555923D01*
X131797523Y-105586400D01*
X131858476Y-105647352D01*
X131888952Y-105769257D01*
X131888952Y-105982590D01*
X131858476Y-106104495D01*
X131797523Y-106165447D01*
X131736571Y-106195923D01*
X131614666Y-106195923D01*
X131553714Y-106165447D01*
X131492761Y-106104495D01*
X131462285Y-105982590D01*
X131462285Y-105769257D01*
X131492761Y-105647352D01*
X131553714Y-105586400D01*
X131614666Y-105555923D01*
X132102285Y-105555923D02*
X132528952Y-106195923D01*
X132528952Y-105555923D02*
X132102285Y-106195923D01*
X132894666Y-105891161D02*
X132894666Y-106195923D01*
X132681333Y-105555923D02*
X132894666Y-105891161D01*
X133108000Y-105555923D01*
X133321333Y-106195923D02*
X133321333Y-105555923D01*
X133534666Y-106013066D01*
X133748000Y-105555923D01*
X133748000Y-106195923D01*
X134052761Y-105860685D02*
X134266095Y-105860685D01*
X134357523Y-106195923D02*
X134052761Y-106195923D01*
X134052761Y-105555923D01*
X134357523Y-105555923D01*
X134540380Y-105555923D02*
X134906095Y-105555923D01*
X134723238Y-106195923D02*
X134723238Y-105555923D01*
X135119428Y-105860685D02*
X135332761Y-105860685D01*
X135424190Y-106195923D02*
X135119428Y-106195923D01*
X135119428Y-105555923D01*
X135424190Y-105555923D01*
X136064190Y-106195923D02*
X135850857Y-105891161D01*
X135698476Y-106195923D02*
X135698476Y-105555923D01*
X135942285Y-105555923D01*
X136003238Y-105586400D01*
X136033714Y-105616876D01*
X136064190Y-105677828D01*
X136064190Y-105769257D01*
X136033714Y-105830209D01*
X136003238Y-105860685D01*
X135942285Y-105891161D01*
X135698476Y-105891161D01*
X136673714Y-106195923D02*
X136308000Y-106195923D01*
X136490857Y-106195923D02*
X136490857Y-105555923D01*
X136429904Y-105647352D01*
X136368952Y-105708304D01*
X136308000Y-105738780D01*
%TO.C,*%
D11*
%TO.C,SB4*%
X126761185Y-94386757D02*
X126846900Y-94415328D01*
X126989757Y-94415328D01*
X127046900Y-94386757D01*
X127075471Y-94358185D01*
X127104042Y-94301042D01*
X127104042Y-94243900D01*
X127075471Y-94186757D01*
X127046900Y-94158185D01*
X126989757Y-94129614D01*
X126875471Y-94101042D01*
X126818328Y-94072471D01*
X126789757Y-94043900D01*
X126761185Y-93986757D01*
X126761185Y-93929614D01*
X126789757Y-93872471D01*
X126818328Y-93843900D01*
X126875471Y-93815328D01*
X127018328Y-93815328D01*
X127104042Y-93843900D01*
X127561185Y-94101042D02*
X127646900Y-94129614D01*
X127675471Y-94158185D01*
X127704042Y-94215328D01*
X127704042Y-94301042D01*
X127675471Y-94358185D01*
X127646900Y-94386757D01*
X127589757Y-94415328D01*
X127361185Y-94415328D01*
X127361185Y-93815328D01*
X127561185Y-93815328D01*
X127618328Y-93843900D01*
X127646900Y-93872471D01*
X127675471Y-93929614D01*
X127675471Y-93986757D01*
X127646900Y-94043900D01*
X127618328Y-94072471D01*
X127561185Y-94101042D01*
X127361185Y-94101042D01*
X128218328Y-94015328D02*
X128218328Y-94415328D01*
X128075471Y-93786757D02*
X127932614Y-94215328D01*
X128304042Y-94215328D01*
D10*
%TO.C,CONNECTEUR_NRST1*%
X131340476Y-104687142D02*
X131292857Y-104734761D01*
X131150000Y-104782380D01*
X131054761Y-104782380D01*
X130911904Y-104734761D01*
X130816666Y-104639523D01*
X130769047Y-104544285D01*
X130721428Y-104353809D01*
X130721428Y-104210952D01*
X130769047Y-104020476D01*
X130816666Y-103925238D01*
X130911904Y-103830000D01*
X131054761Y-103782380D01*
X131150000Y-103782380D01*
X131292857Y-103830000D01*
X131340476Y-103877619D01*
X131959523Y-103782380D02*
X132150000Y-103782380D01*
X132245238Y-103830000D01*
X132340476Y-103925238D01*
X132388095Y-104115714D01*
X132388095Y-104449047D01*
X132340476Y-104639523D01*
X132245238Y-104734761D01*
X132150000Y-104782380D01*
X131959523Y-104782380D01*
X131864285Y-104734761D01*
X131769047Y-104639523D01*
X131721428Y-104449047D01*
X131721428Y-104115714D01*
X131769047Y-103925238D01*
X131864285Y-103830000D01*
X131959523Y-103782380D01*
X132816666Y-104782380D02*
X132816666Y-103782380D01*
X133388095Y-104782380D01*
X133388095Y-103782380D01*
X133864285Y-104782380D02*
X133864285Y-103782380D01*
X134435714Y-104782380D01*
X134435714Y-103782380D01*
X134911904Y-104258571D02*
X135245238Y-104258571D01*
X135388095Y-104782380D02*
X134911904Y-104782380D01*
X134911904Y-103782380D01*
X135388095Y-103782380D01*
X136388095Y-104687142D02*
X136340476Y-104734761D01*
X136197619Y-104782380D01*
X136102380Y-104782380D01*
X135959523Y-104734761D01*
X135864285Y-104639523D01*
X135816666Y-104544285D01*
X135769047Y-104353809D01*
X135769047Y-104210952D01*
X135816666Y-104020476D01*
X135864285Y-103925238D01*
X135959523Y-103830000D01*
X136102380Y-103782380D01*
X136197619Y-103782380D01*
X136340476Y-103830000D01*
X136388095Y-103877619D01*
X136673809Y-103782380D02*
X137245238Y-103782380D01*
X136959523Y-104782380D02*
X136959523Y-103782380D01*
X137578571Y-104258571D02*
X137911904Y-104258571D01*
X138054761Y-104782380D02*
X137578571Y-104782380D01*
X137578571Y-103782380D01*
X138054761Y-103782380D01*
X138483333Y-103782380D02*
X138483333Y-104591904D01*
X138530952Y-104687142D01*
X138578571Y-104734761D01*
X138673809Y-104782380D01*
X138864285Y-104782380D01*
X138959523Y-104734761D01*
X139007142Y-104687142D01*
X139054761Y-104591904D01*
X139054761Y-103782380D01*
X140102380Y-104782380D02*
X139769047Y-104306190D01*
X139530952Y-104782380D02*
X139530952Y-103782380D01*
X139911904Y-103782380D01*
X140007142Y-103830000D01*
X140054761Y-103877619D01*
X140102380Y-103972857D01*
X140102380Y-104115714D01*
X140054761Y-104210952D01*
X140007142Y-104258571D01*
X139911904Y-104306190D01*
X139530952Y-104306190D01*
X140292857Y-104877619D02*
X141054761Y-104877619D01*
X141292857Y-104782380D02*
X141292857Y-103782380D01*
X141864285Y-104782380D01*
X141864285Y-103782380D01*
X142911904Y-104782380D02*
X142578571Y-104306190D01*
X142340476Y-104782380D02*
X142340476Y-103782380D01*
X142721428Y-103782380D01*
X142816666Y-103830000D01*
X142864285Y-103877619D01*
X142911904Y-103972857D01*
X142911904Y-104115714D01*
X142864285Y-104210952D01*
X142816666Y-104258571D01*
X142721428Y-104306190D01*
X142340476Y-104306190D01*
X143292857Y-104734761D02*
X143435714Y-104782380D01*
X143673809Y-104782380D01*
X143769047Y-104734761D01*
X143816666Y-104687142D01*
X143864285Y-104591904D01*
X143864285Y-104496666D01*
X143816666Y-104401428D01*
X143769047Y-104353809D01*
X143673809Y-104306190D01*
X143483333Y-104258571D01*
X143388095Y-104210952D01*
X143340476Y-104163333D01*
X143292857Y-104068095D01*
X143292857Y-103972857D01*
X143340476Y-103877619D01*
X143388095Y-103830000D01*
X143483333Y-103782380D01*
X143721428Y-103782380D01*
X143864285Y-103830000D01*
X144150000Y-103782380D02*
X144721428Y-103782380D01*
X144435714Y-104782380D02*
X144435714Y-103782380D01*
X145578571Y-104782380D02*
X145007142Y-104782380D01*
X145292857Y-104782380D02*
X145292857Y-103782380D01*
X145197619Y-103925238D01*
X145102380Y-104020476D01*
X145007142Y-104068095D01*
D11*
%TO.C,FLT1*%
X144187342Y-90844942D02*
X144187342Y-91044942D01*
X144501628Y-91044942D02*
X143901628Y-91044942D01*
X143901628Y-90759228D01*
X144501628Y-90244942D02*
X144501628Y-90530657D01*
X143901628Y-90530657D01*
X143901628Y-90130657D02*
X143901628Y-89787800D01*
X144501628Y-89959228D02*
X143901628Y-89959228D01*
X144501628Y-89273514D02*
X144501628Y-89616371D01*
X144501628Y-89444942D02*
X143901628Y-89444942D01*
X143987342Y-89502085D01*
X144044485Y-89559228D01*
X144073057Y-89616371D01*
D10*
%TO.C,*%
D11*
%TO.C,X1*%
X136615315Y-85334428D02*
X137015315Y-85934428D01*
X137015315Y-85334428D02*
X136615315Y-85934428D01*
X137558172Y-85934428D02*
X137215315Y-85934428D01*
X137386743Y-85934428D02*
X137386743Y-85334428D01*
X137329601Y-85420142D01*
X137272458Y-85477285D01*
X137215315Y-85505857D01*
D10*
%TO.C,*%
D13*
%TO.C,C20*%
X129420028Y-97381000D02*
X128708828Y-97381000D01*
X130893228Y-96593600D02*
X130182028Y-96593600D01*
X130893228Y-97381000D02*
X130182028Y-97381000D01*
X129420028Y-96593600D02*
X128708828Y-96593600D01*
X130893228Y-96593600D02*
X130893228Y-97381000D01*
X128708828Y-96593600D02*
X128708828Y-97381000D01*
D14*
%TO.C,U1*%
X138102798Y-96601599D02*
X138498799Y-96601599D01*
D15*
X131315598Y-96791639D02*
X131315598Y-96690039D01*
X131036198Y-96664639D02*
X131391798Y-96994839D01*
X131366398Y-96715439D02*
X131417198Y-96690039D01*
X131366398Y-96893239D02*
X131366398Y-96715439D01*
X131264798Y-96690039D02*
X131340998Y-96715439D01*
X138498799Y-96601599D02*
X138498799Y-96179400D01*
X131498798Y-96601599D02*
X131498798Y-96144399D01*
X131188598Y-96690039D02*
X131417198Y-96690039D01*
X131112398Y-96664639D02*
X131391798Y-96918639D01*
X131036198Y-96664639D02*
X131417198Y-97045639D01*
X131036198Y-96664639D02*
X131417198Y-96664639D01*
D14*
X138498799Y-96601599D02*
X138498799Y-96179400D01*
D15*
X138066999Y-89601597D02*
X138498799Y-89601597D01*
X131498798Y-89601597D02*
X131955998Y-89601597D01*
X131498798Y-90022999D02*
X131498798Y-89601597D01*
X131188598Y-96690039D02*
X131391798Y-96867839D01*
X131315598Y-96791639D02*
X131340998Y-96715439D01*
X131417198Y-97045639D02*
X131417198Y-96664639D01*
X131112398Y-96664639D02*
X131366398Y-96944039D01*
X138102798Y-96601599D02*
X138498799Y-96601599D01*
X131391798Y-96994839D02*
X131391798Y-96918639D01*
X138498799Y-90022999D02*
X138498799Y-89601597D01*
D14*
X138066999Y-89601597D02*
X138498799Y-89601597D01*
X131498798Y-96601599D02*
X131510797Y-96601599D01*
X131498798Y-90022999D02*
X131498798Y-89601597D01*
D15*
X131510797Y-96601599D02*
X131981398Y-96601599D01*
X131264798Y-96690039D02*
X131366398Y-96893239D01*
X131366398Y-96944039D02*
X131391798Y-96867839D01*
D14*
X131921113Y-96362899D02*
G75*
G03*
X131921113Y-96362899I-179606J0D01*
G01*
D11*
%TO.C,FIXATION_ECRAN1*%
X129970000Y-85230000D02*
X129970000Y-83900000D01*
X132570000Y-82570000D02*
X140250000Y-82570000D01*
X132570000Y-85230000D02*
X140250000Y-85230000D01*
X132570000Y-85230000D02*
X132570000Y-82570000D01*
X131300000Y-85230000D02*
X129970000Y-85230000D01*
X140250000Y-85230000D02*
X140250000Y-82570000D01*
D13*
%TO.C,L3*%
X136268798Y-99909600D02*
X136268798Y-98690400D01*
X133449398Y-98690400D02*
X134414598Y-98690400D01*
X133449398Y-99909600D02*
X133449398Y-98690400D01*
X135176598Y-99909600D02*
X136268798Y-99909600D01*
X133449398Y-99909600D02*
X134414598Y-99909600D01*
X135176598Y-98690400D02*
X136268798Y-98690400D01*
D16*
%TO.C,D4*%
X138093600Y-98912800D02*
X138093600Y-97287201D01*
D15*
X138093600Y-98963600D02*
X138271400Y-98963600D01*
D16*
X138093600Y-98912800D02*
X138271400Y-98912800D01*
D15*
X138906400Y-98862000D02*
X138906400Y-98811201D01*
X138728600Y-98862000D02*
X138906400Y-98862000D01*
D16*
X138728600Y-97287201D02*
X138906400Y-97287201D01*
D15*
X138881000Y-98836600D02*
X138906400Y-98811201D01*
X138728600Y-98989000D02*
X138881000Y-98989000D01*
D16*
X138906400Y-98912800D02*
X138906400Y-97287201D01*
D15*
X138093600Y-98862000D02*
X138093600Y-98811201D01*
X138728600Y-99014400D02*
X138728600Y-98963600D01*
X138093600Y-98989000D02*
X138246000Y-98989000D01*
X138271400Y-99014400D02*
X138271400Y-98963600D01*
X138728600Y-98862000D02*
X138728600Y-98811201D01*
D16*
X138093600Y-97287201D02*
X138271400Y-97287201D01*
D15*
X138728600Y-98836600D02*
X138881000Y-98836600D01*
D16*
X138728600Y-98912800D02*
X138906400Y-98912800D01*
D15*
X138093600Y-99014400D02*
X138093600Y-98963600D01*
X138246000Y-98836600D02*
X138271400Y-98811201D01*
X138881000Y-98989000D02*
X138906400Y-98963600D01*
X138093600Y-98862000D02*
X138271400Y-98862000D01*
X138728600Y-99014400D02*
X138906400Y-99014400D01*
X138728600Y-98811201D02*
X138906400Y-98811201D01*
X138271400Y-98862000D02*
X138271400Y-98811201D01*
X138906400Y-99014400D02*
X138906400Y-98963600D01*
X138093600Y-98836600D02*
X138246000Y-98836600D01*
X138728600Y-98963600D02*
X138906400Y-98963600D01*
X138093600Y-99014400D02*
X138271400Y-99014400D01*
X138093600Y-98811201D02*
X138271400Y-98811201D01*
X138246000Y-98989000D02*
X138271400Y-98963600D01*
D13*
%TO.C,C28*%
X144407800Y-93719000D02*
X145119000Y-93719000D01*
X146592200Y-94506400D02*
X146592200Y-93719000D01*
X144407800Y-94506400D02*
X144407800Y-93719000D01*
X144407800Y-94506400D02*
X145119000Y-94506400D01*
X145881000Y-93719000D02*
X146592200Y-93719000D01*
X145881000Y-94506400D02*
X146592200Y-94506400D01*
D17*
%TO.C,SB3*%
X128484200Y-101385800D02*
X128484200Y-99887200D01*
X127315800Y-101385800D02*
X128484200Y-101385800D01*
X127315800Y-101385800D02*
X127315800Y-99887200D01*
X127315800Y-99887200D02*
X128484200Y-99887200D01*
D13*
%TO.C,R2*%
X128707800Y-100506400D02*
X128707800Y-99719000D01*
X130181000Y-100506400D02*
X130892200Y-100506400D01*
X130181000Y-99719000D02*
X130892200Y-99719000D01*
X130892200Y-100506400D02*
X130892200Y-99719000D01*
X128707800Y-100506400D02*
X129419000Y-100506400D01*
X128707800Y-99719000D02*
X129419000Y-99719000D01*
%TO.C,BUZZER1*%
X141300000Y-99650000D02*
X145300000Y-99650000D01*
X145300000Y-100150000D02*
X145300000Y-99650000D01*
X141300000Y-103650000D02*
X141300000Y-103150000D01*
X145300000Y-103650000D02*
X145300000Y-103150000D01*
X141300000Y-100150000D02*
X141300000Y-99650000D01*
X145300000Y-103650000D02*
X141300000Y-103650000D01*
D15*
%TO.C,U2*%
X122985200Y-93137550D02*
X123188400Y-93035950D01*
X122985200Y-93213750D02*
X122985200Y-92985150D01*
X123010600Y-93035950D02*
X123188400Y-93035950D01*
X122959800Y-92985150D02*
X123340800Y-92985150D01*
D13*
X122858200Y-92870850D02*
X122858200Y-92489850D01*
D15*
X122959800Y-93289950D02*
X123239200Y-93035950D01*
X122985200Y-93213750D02*
X123163000Y-93010550D01*
X122959800Y-93366150D02*
X122959800Y-92985150D01*
D13*
X122477200Y-92870850D02*
X122858200Y-92870850D01*
D15*
X122959800Y-93289950D02*
X123213800Y-93010550D01*
X122985200Y-93086750D02*
X123086800Y-93086750D01*
X122959800Y-93366150D02*
X123340800Y-92985150D01*
X123163000Y-93010550D02*
X123239200Y-93035950D01*
X123010600Y-93061350D02*
X123086800Y-93086750D01*
X122985200Y-92985150D02*
X123010600Y-93035950D01*
X123213800Y-93010550D02*
X123290000Y-93010550D01*
X122985200Y-93137550D02*
X123010600Y-93061350D01*
X122959800Y-93366150D02*
X123290000Y-93010550D01*
D13*
%TO.C,C26*%
X127809600Y-93990300D02*
X126590400Y-93990300D01*
X127809600Y-93990300D02*
X127809600Y-95082500D01*
X126590400Y-95844500D02*
X126590400Y-96809700D01*
X127809600Y-95844500D02*
X127809600Y-96809700D01*
X126590400Y-93990300D02*
X126590400Y-95082500D01*
X127809600Y-96809700D02*
X126590400Y-96809700D01*
%TO.C,C18*%
X128708828Y-99406400D02*
X128708828Y-98619000D01*
X128708828Y-99406400D02*
X129420028Y-99406400D01*
X130182028Y-98619000D02*
X130893228Y-98619000D01*
X130893228Y-99406400D02*
X130893228Y-98619000D01*
X128708828Y-98619000D02*
X129420028Y-98619000D01*
X130182028Y-99406400D02*
X130893228Y-99406400D01*
%TO.C,C19*%
X141692200Y-93281000D02*
X140981000Y-93281000D01*
X140219000Y-93281000D02*
X139507800Y-93281000D01*
X140219000Y-92493600D02*
X139507800Y-92493600D01*
X141692200Y-92493600D02*
X141692200Y-93281000D01*
X141692200Y-92493600D02*
X140981000Y-92493600D01*
X139507800Y-92493600D02*
X139507800Y-93281000D01*
%TO.C,C7*%
X150157800Y-90417975D02*
X150869000Y-90417975D01*
X152342200Y-91205375D02*
X152342200Y-90417975D01*
X151631000Y-91205375D02*
X152342200Y-91205375D01*
X150157800Y-91205375D02*
X150869000Y-91205375D01*
X151631000Y-90417975D02*
X152342200Y-90417975D01*
X150157800Y-91205375D02*
X150157800Y-90417975D01*
D12*
%TO.C,L2*%
X127147997Y-88482800D02*
X127147997Y-86908000D01*
X128773597Y-85892000D02*
X128773597Y-84317201D01*
X127147997Y-88482800D02*
X128773597Y-88482800D01*
X127147997Y-85892000D02*
X127147997Y-84317201D01*
X127147997Y-84317201D02*
X128773597Y-84317201D01*
X128773597Y-88482800D02*
X128773597Y-86908000D01*
D13*
%TO.C,C8*%
X145619000Y-93541172D02*
X145619000Y-92829972D01*
X146406400Y-93541172D02*
X145619000Y-93541172D01*
X146406400Y-91356772D02*
X145619000Y-91356772D01*
X146406400Y-92067972D02*
X146406400Y-91356772D01*
X145619000Y-92067972D02*
X145619000Y-91356772D01*
X146406400Y-93541172D02*
X146406400Y-92829972D01*
%TO.C,BUTTON3*%
X125620000Y-77840000D02*
X128795000Y-77840000D01*
X130700000Y-80380000D02*
X123715000Y-80380000D01*
X130700000Y-82920000D02*
X130700000Y-80380000D01*
X123715000Y-77840000D02*
X123715000Y-80380000D01*
X130700000Y-77840000D02*
X128795000Y-77840000D01*
X130700000Y-80380000D02*
X130700000Y-77840000D01*
X123715000Y-80380000D02*
X123715000Y-82920000D01*
X125620000Y-77840000D02*
X123715000Y-77840000D01*
%TO.C,X2*%
X131038000Y-98539000D02*
X131038000Y-98285000D01*
X132562000Y-98539000D02*
X132562000Y-98285000D01*
D15*
%TO.C,U3*%
X120888600Y-93749000D02*
X120914000Y-93672800D01*
X120660000Y-93774400D02*
X120939400Y-93520400D01*
X120710800Y-93774400D02*
X120888600Y-93774400D01*
X120914000Y-93825200D02*
X120914000Y-93596600D01*
X120660000Y-93774400D02*
X120736200Y-93799800D01*
X120939400Y-93825200D02*
X120939400Y-93444200D01*
D13*
X121041000Y-93939500D02*
X121422000Y-93939500D01*
D15*
X120888600Y-93774400D02*
X120914000Y-93825200D01*
X120685400Y-93799800D02*
X120939400Y-93520400D01*
X120736200Y-93799800D02*
X120914000Y-93596600D01*
X120609200Y-93799800D02*
X120685400Y-93799800D01*
X120812400Y-93723600D02*
X120914000Y-93723600D01*
X120812400Y-93723600D02*
X120888600Y-93749000D01*
D13*
X124597000Y-95590500D02*
X124597000Y-95209500D01*
D15*
X120558400Y-93825200D02*
X120939400Y-93444200D01*
X120609200Y-93799800D02*
X120939400Y-93444200D01*
D13*
X121041000Y-94320500D02*
X121041000Y-93939500D01*
D15*
X120558400Y-93825200D02*
X120939400Y-93825200D01*
X120710800Y-93774400D02*
X120914000Y-93672800D01*
D13*
%TO.C,C6*%
X148806400Y-92067972D02*
X148806400Y-91356772D01*
X148019000Y-92067972D02*
X148019000Y-91356772D01*
X148019000Y-93541172D02*
X148019000Y-92829972D01*
X148806400Y-93541172D02*
X148019000Y-93541172D01*
X148806400Y-93541172D02*
X148806400Y-92829972D01*
X148806400Y-91356772D02*
X148019000Y-91356772D01*
%TO.C,C4*%
X147842200Y-92231000D02*
X147131000Y-92231000D01*
X147842200Y-91443600D02*
X147842200Y-92231000D01*
X145657800Y-91443600D02*
X145657800Y-92231000D01*
X147842200Y-91443600D02*
X147131000Y-91443600D01*
X146369000Y-92231000D02*
X145657800Y-92231000D01*
X146369000Y-91443600D02*
X145657800Y-91443600D01*
%TO.C,L6*%
X142392200Y-92231000D02*
X142392200Y-91443600D01*
X141681000Y-91443600D02*
X142392200Y-91443600D01*
X140207800Y-92231000D02*
X140207800Y-91443600D01*
X141681000Y-92231000D02*
X142392200Y-92231000D01*
X140207800Y-92231000D02*
X140919000Y-92231000D01*
X140207800Y-91443600D02*
X140919000Y-91443600D01*
%TO.C,C23*%
X120009600Y-96809700D02*
X120009600Y-95717500D01*
X118790400Y-96809700D02*
X118790400Y-95717500D01*
X120009600Y-94955500D02*
X120009600Y-93990300D01*
X118790400Y-93990300D02*
X120009600Y-93990300D01*
X118790400Y-94955500D02*
X118790400Y-93990300D01*
X118790400Y-96809700D02*
X120009600Y-96809700D01*
%TO.C,BUTTON2*%
X134820000Y-77840000D02*
X137995000Y-77840000D01*
X139900000Y-80380000D02*
X139900000Y-77840000D01*
X139900000Y-80380000D02*
X132915000Y-80380000D01*
X139900000Y-77840000D02*
X137995000Y-77840000D01*
X132915000Y-77840000D02*
X132915000Y-80380000D01*
X139900000Y-82920000D02*
X139900000Y-80380000D01*
X134820000Y-77840000D02*
X132915000Y-77840000D01*
X132915000Y-80380000D02*
X132915000Y-82920000D01*
%TO.C,C16*%
X123907800Y-88519000D02*
X124619000Y-88519000D01*
X126092200Y-89306400D02*
X126092200Y-88519000D01*
X125381000Y-88519000D02*
X126092200Y-88519000D01*
X123907800Y-89306400D02*
X123907800Y-88519000D01*
X125381000Y-89306400D02*
X126092200Y-89306400D01*
X123907800Y-89306400D02*
X124619000Y-89306400D01*
%TO.C,BUTTON1*%
X142115000Y-80380000D02*
X142115000Y-82920000D01*
X142115000Y-77840000D02*
X142115000Y-80380000D01*
X149100000Y-80380000D02*
X142115000Y-80380000D01*
X144020000Y-77840000D02*
X147195000Y-77840000D01*
X144020000Y-77840000D02*
X142115000Y-77840000D01*
X149100000Y-80380000D02*
X149100000Y-77840000D01*
X149100000Y-77840000D02*
X147195000Y-77840000D01*
X149100000Y-82920000D02*
X149100000Y-80380000D01*
D17*
%TO.C,SB1*%
X125414200Y-85884200D02*
X126912800Y-85884200D01*
X125414200Y-84715800D02*
X126912800Y-84715800D01*
X126912800Y-84715800D02*
X126912800Y-85884200D01*
X125414200Y-84715800D02*
X125414200Y-85884200D01*
D13*
%TO.C,R1*%
X140143600Y-98692200D02*
X140931000Y-98692200D01*
X140143600Y-97981000D02*
X140143600Y-98692200D01*
X140143600Y-96507800D02*
X140931000Y-96507800D01*
X140931000Y-96507800D02*
X140931000Y-97219000D01*
X140931000Y-97981000D02*
X140931000Y-98692200D01*
X140143600Y-96507800D02*
X140143600Y-97219000D01*
%TO.C,C22*%
X136254026Y-98506400D02*
X136254026Y-97719000D01*
X135542826Y-98506400D02*
X136254026Y-98506400D01*
X134069626Y-97719000D02*
X134780826Y-97719000D01*
X134069626Y-98506400D02*
X134069626Y-97719000D01*
X134069626Y-98506400D02*
X134780826Y-98506400D01*
X135542826Y-97719000D02*
X136254026Y-97719000D01*
%TO.C,C29*%
X145782028Y-98006400D02*
X146493228Y-98006400D01*
X144308828Y-98006400D02*
X144308828Y-97219000D01*
X144308828Y-97219000D02*
X145020028Y-97219000D01*
X144308828Y-98006400D02*
X145020028Y-98006400D01*
X146493228Y-98006400D02*
X146493228Y-97219000D01*
X145782028Y-97219000D02*
X146493228Y-97219000D01*
%TO.C,C30*%
X139269000Y-92343227D02*
X139269000Y-91632027D01*
X140056400Y-92343227D02*
X139269000Y-92343227D01*
X139269000Y-90870027D02*
X139269000Y-90158827D01*
X140056400Y-90870027D02*
X140056400Y-90158827D01*
X140056400Y-90158827D02*
X139269000Y-90158827D01*
X140056400Y-92343227D02*
X140056400Y-91632027D01*
%TO.C,L1*%
X148907800Y-92231000D02*
X149619000Y-92231000D01*
X150381000Y-91443600D02*
X151092200Y-91443600D01*
X150381000Y-92231000D02*
X151092200Y-92231000D01*
X148907800Y-91443600D02*
X149619000Y-91443600D01*
X151092200Y-92231000D02*
X151092200Y-91443600D01*
X148907800Y-92231000D02*
X148907800Y-91443600D01*
D18*
%TO.C,SW2*%
X119554400Y-98795201D02*
X119681400Y-98820601D01*
X119554400Y-98795201D02*
X119656000Y-98668201D01*
X119402000Y-98871401D02*
X119732200Y-98871401D01*
X125117000Y-99328601D02*
X125599600Y-99328601D01*
X119732200Y-98871401D02*
X119732200Y-98515800D01*
X126006000Y-101538401D02*
X126006000Y-100166800D01*
X119402000Y-98871401D02*
X119732200Y-98515800D01*
X123593000Y-99328601D02*
X124278800Y-99328601D01*
X119300400Y-99328601D02*
X119732200Y-99328601D01*
X118868600Y-101487601D02*
X118868600Y-100141401D01*
X119681400Y-98820601D02*
X119732200Y-98515800D01*
X119275000Y-102376601D02*
X125599600Y-102376601D01*
X120621200Y-99328601D02*
X122729400Y-99328601D01*
D13*
%TO.C,C25*%
X126106400Y-95319000D02*
X126106400Y-94607800D01*
X126106400Y-94607800D02*
X125319000Y-94607800D01*
X126106400Y-96792200D02*
X125319000Y-96792200D01*
X125319000Y-96792200D02*
X125319000Y-96081000D01*
X126106400Y-96792200D02*
X126106400Y-96081000D01*
X125319000Y-95319000D02*
X125319000Y-94607800D01*
%TO.C,L4*%
X146406400Y-96231000D02*
X146406400Y-96942200D01*
X146406400Y-94757800D02*
X146406400Y-95469000D01*
X145619000Y-96231000D02*
X145619000Y-96942200D01*
X145619000Y-96942200D02*
X146406400Y-96942200D01*
X145619000Y-94757800D02*
X145619000Y-95469000D01*
X145619000Y-94757800D02*
X146406400Y-94757800D01*
%TO.C,C9*%
X126981000Y-86507800D02*
X126981000Y-87219000D01*
X126981000Y-87981000D02*
X126981000Y-88692200D01*
X126193600Y-86507800D02*
X126193600Y-87219000D01*
X126193600Y-88692200D02*
X126981000Y-88692200D01*
X126193600Y-86507800D02*
X126981000Y-86507800D01*
X126193600Y-87981000D02*
X126193600Y-88692200D01*
D15*
%TO.C,CN5*%
X149850000Y-100350000D02*
X149850000Y-100344600D01*
X149743000Y-100344600D02*
X149850000Y-100344600D01*
X149743000Y-97830000D02*
X149850000Y-97830000D01*
X149565200Y-99404800D02*
X149768400Y-99404800D01*
X147350000Y-97855400D02*
X147350000Y-97850000D01*
X147350000Y-100350000D02*
X147350000Y-99531800D01*
X149850000Y-100350000D02*
X149850000Y-99455600D01*
X149590600Y-98830998D02*
X149768400Y-98830998D01*
X147350000Y-97855400D02*
X147350000Y-97850000D01*
X147350000Y-98668199D02*
X147350000Y-97850000D01*
X147350000Y-100344600D02*
X147457000Y-100344600D01*
X147350000Y-97855400D02*
X147457000Y-97855400D01*
X149850000Y-98795199D02*
X149850000Y-97850000D01*
X147350000Y-100350000D02*
X147350000Y-100344600D01*
X147661657Y-99445705D02*
G75*
G03*
X147656540Y-98768514I938343J345705D01*
G01*
D19*
X147100600Y-98439600D02*
G75*
G03*
X147100600Y-98439600I-50000J0D01*
G01*
D13*
%TO.C,C15*%
X128708828Y-96406400D02*
X129420028Y-96406400D01*
X130182028Y-95619000D02*
X130893228Y-95619000D01*
X128708828Y-96406400D02*
X128708828Y-95619000D01*
X130182028Y-96406400D02*
X130893228Y-96406400D01*
X130893228Y-96406400D02*
X130893228Y-95619000D01*
X128708828Y-95619000D02*
X129420028Y-95619000D01*
%TO.C,C3*%
X143281000Y-91356773D02*
X143281000Y-92067973D01*
X142493600Y-91356773D02*
X143281000Y-91356773D01*
X142493600Y-91356773D02*
X142493600Y-92067973D01*
X142493600Y-92829973D02*
X142493600Y-93541173D01*
X143281000Y-92829973D02*
X143281000Y-93541173D01*
X142493600Y-93541173D02*
X143281000Y-93541173D01*
D17*
%TO.C,SB5*%
X140265801Y-95285800D02*
X141434201Y-95285800D01*
X140265801Y-95285800D02*
X140265801Y-93787200D01*
X141434201Y-95285800D02*
X141434201Y-93787200D01*
X140265801Y-93787200D02*
X141434201Y-93787200D01*
D13*
%TO.C,C10*%
X131192200Y-87281000D02*
X130481000Y-87281000D01*
X129007800Y-86493600D02*
X129007800Y-87281000D01*
X131192200Y-86493600D02*
X131192200Y-87281000D01*
X131192200Y-86493600D02*
X130481000Y-86493600D01*
X129719000Y-86493600D02*
X129007800Y-86493600D01*
X129719000Y-87281000D02*
X129007800Y-87281000D01*
%TO.C,C27*%
X126092200Y-93806400D02*
X126092200Y-93019000D01*
X125381000Y-93019000D02*
X126092200Y-93019000D01*
X123907800Y-93019000D02*
X124619000Y-93019000D01*
X123907800Y-93806400D02*
X123907800Y-93019000D01*
X125381000Y-93806400D02*
X126092200Y-93806400D01*
X123907800Y-93806400D02*
X124619000Y-93806400D01*
%TO.C,C12*%
X139806400Y-97619000D02*
X139806400Y-96907800D01*
X139806400Y-96907800D02*
X139019000Y-96907800D01*
X139019000Y-97619000D02*
X139019000Y-96907800D01*
X139019000Y-99092200D02*
X139019000Y-98381000D01*
X139806400Y-99092200D02*
X139019000Y-99092200D01*
X139806400Y-99092200D02*
X139806400Y-98381000D01*
%TO.C,C21*%
X130481000Y-92831571D02*
X130481000Y-93542771D01*
X129693600Y-92831571D02*
X129693600Y-93542771D01*
X129693600Y-91358371D02*
X129693600Y-92069571D01*
X129693600Y-93542771D02*
X130481000Y-93542771D01*
X130481000Y-91358371D02*
X130481000Y-92069571D01*
X129693600Y-91358371D02*
X130481000Y-91358371D01*
%TO.C,USB1*%
X117700000Y-97200000D02*
X117700000Y-98800000D01*
X117700000Y-88400000D02*
X117700000Y-86800000D01*
X112950000Y-98800000D02*
X112950000Y-86800000D01*
X117700000Y-98800000D02*
X112950000Y-98800000D01*
X117700000Y-86800000D02*
X112950000Y-86800000D01*
%TO.C,OXYMETER1*%
X135800000Y-103830000D02*
X135800000Y-103170000D01*
X128600000Y-103830000D02*
X128600000Y-103170000D01*
D20*
X135360000Y-105300000D02*
G75*
G03*
X135360000Y-105300000I-100000J0D01*
G01*
D13*
%TO.C,C17*%
X128708828Y-98406400D02*
X128708828Y-97619000D01*
X128708828Y-98406400D02*
X129420028Y-98406400D01*
X130182028Y-97619000D02*
X130893228Y-97619000D01*
X130182028Y-98406400D02*
X130893228Y-98406400D01*
X130893228Y-98406400D02*
X130893228Y-97619000D01*
X128708828Y-97619000D02*
X129420028Y-97619000D01*
D17*
%TO.C,SB4*%
X126746700Y-92183300D02*
X126746700Y-93351700D01*
X126746700Y-92183300D02*
X128245300Y-92183300D01*
X128245300Y-92183300D02*
X128245300Y-93351700D01*
X126746700Y-93351700D02*
X128245300Y-93351700D01*
D11*
%TO.C,CONNECTEUR_NRST1*%
X139480000Y-100670000D02*
X136820000Y-100670000D01*
X139480000Y-102000000D02*
X139480000Y-103330000D01*
X139480000Y-103330000D02*
X138150000Y-103330000D01*
X136820000Y-100730000D02*
X136820000Y-100670000D01*
X139480000Y-100730000D02*
X139480000Y-100670000D01*
X139480000Y-100730000D02*
X136820000Y-100730000D01*
D15*
%TO.C,FLT1*%
X145000001Y-92249999D02*
X145000001Y-91450001D01*
X143399999Y-92249999D02*
X145000001Y-92249999D01*
X143399999Y-92249999D02*
X143399999Y-91450001D01*
X143399999Y-91450001D02*
X145000001Y-91450001D01*
D10*
X143862236Y-91850000D02*
G75*
G03*
X143862236Y-91850000I-2235J0D01*
G01*
D13*
%TO.C,C24*%
X121006400Y-96792200D02*
X120219000Y-96792200D01*
X121006400Y-95319000D02*
X121006400Y-94607800D01*
X121006400Y-94607800D02*
X120219000Y-94607800D01*
X120219000Y-95319000D02*
X120219000Y-94607800D01*
X121006400Y-96792200D02*
X121006400Y-96081000D01*
X120219000Y-96792200D02*
X120219000Y-96081000D01*
%TO.C,C1*%
X139107800Y-89119000D02*
X139819000Y-89119000D01*
X141292200Y-89906400D02*
X141292200Y-89119000D01*
X139107800Y-89906400D02*
X139819000Y-89906400D01*
X139107800Y-89906400D02*
X139107800Y-89119000D01*
X140581000Y-89119000D02*
X141292200Y-89119000D01*
X140581000Y-89906400D02*
X141292200Y-89906400D01*
%TO.C,C2*%
X139157800Y-86943600D02*
X139157800Y-87731000D01*
X139869000Y-87731000D02*
X139157800Y-87731000D01*
X141342200Y-87731000D02*
X140631000Y-87731000D01*
X139869000Y-86943600D02*
X139157800Y-86943600D01*
X141342200Y-86943600D02*
X140631000Y-86943600D01*
X141342200Y-86943600D02*
X141342200Y-87731000D01*
D15*
%TO.C,X1*%
X136527801Y-86242400D02*
X136781801Y-86242400D01*
D18*
X135495200Y-86360602D02*
X135682197Y-86360602D01*
X135664201Y-86191600D02*
X135682197Y-86191600D01*
D15*
X135842001Y-87487000D02*
X135842001Y-87029800D01*
X137467601Y-87487000D02*
X137467601Y-87029800D01*
X136527801Y-88274400D02*
X136781801Y-88274400D01*
D18*
X135495200Y-86360602D02*
X135664201Y-86191600D01*
X135682197Y-86360602D02*
X135682197Y-86191600D01*
%TD*%
M02*
