%TF.GenerationSoftware,KiCad,Pcbnew,6.0.4-6f826c9f35~116~ubuntu18.04.1*%
%TF.CreationDate,2022-08-05T10:58:23+02:00*%
%TF.ProjectId,test,74657374-2e6b-4696-9361-645f70636258,rev?*%
%TF.SameCoordinates,Original*%
%TF.FileFunction,Copper,L2,Bot*%
%TF.FilePolarity,Positive*%
%FSLAX46Y46*%
G04 Gerber Fmt 4.6, Leading zero omitted, Abs format (unit mm)*
G04 Created by KiCad (PCBNEW 6.0.4-6f826c9f35~116~ubuntu18.04.1) date 2022-08-05 10:58:23*
%MOMM*%
%LPD*%
G01*
G04 APERTURE LIST*
%TA.AperFunction,ComponentPad*%
%ADD10C,0.400000*%
%TD*%
%TA.AperFunction,ComponentPad*%
%ADD11R,1.700000X1.700000*%
%TD*%
%TA.AperFunction,ComponentPad*%
%ADD12O,1.700000X1.700000*%
%TD*%
%TA.AperFunction,ComponentPad*%
%ADD13C,1.800000*%
%TD*%
%TA.AperFunction,ComponentPad*%
%ADD14C,1.308000*%
%TD*%
%TA.AperFunction,ComponentPad*%
%ADD15C,1.100000*%
%TD*%
%TA.AperFunction,ComponentPad*%
%ADD16C,2.850000*%
%TD*%
%TA.AperFunction,ViaPad*%
%ADD17C,0.400000*%
%TD*%
%TA.AperFunction,Conductor*%
%ADD18C,0.500000*%
%TD*%
%TA.AperFunction,Conductor*%
%ADD19C,0.200000*%
%TD*%
%TA.AperFunction,Conductor*%
%ADD20C,0.250000*%
%TD*%
G04 APERTURE END LIST*
D10*
%TO.P,,2*%
%TO.N,3V3*%
X130150000Y-97000000D03*
%TD*%
D11*
%TO.P,FIXATION_ECRAN1,1,1*%
%TO.N,GND*%
X131300000Y-83900000D03*
D12*
%TO.P,FIXATION_ECRAN1,2,2*%
%TO.N,Net-(FIXATION_ECRAN1-Pad2)*%
X133840000Y-83900000D03*
%TO.P,FIXATION_ECRAN1,3,3*%
%TO.N,Net-(FIXATION_ECRAN1-Pad3)*%
X136380000Y-83900000D03*
%TO.P,FIXATION_ECRAN1,4,4*%
%TO.N,Net-(FIXATION_ECRAN1-Pad4)*%
X138920000Y-83900000D03*
%TD*%
D10*
%TO.P,,1*%
%TO.N,GND*%
X120200000Y-94250000D03*
%TD*%
%TO.P,,1*%
%TO.N,GND*%
X130050000Y-92700000D03*
%TD*%
%TO.P,,1*%
%TO.N,GND*%
X132400000Y-95700000D03*
%TD*%
%TO.P,,1*%
%TO.N,GND*%
X121050000Y-95300000D03*
%TD*%
%TO.P,,1*%
%TO.N,GND*%
X124600000Y-89250000D03*
%TD*%
%TO.P,,1*%
%TO.N,GND*%
X122700000Y-91300000D03*
%TD*%
%TO.P,,1*%
%TO.N,GND*%
X134350000Y-86850000D03*
%TD*%
%TO.P,,1*%
%TO.N,GND*%
X133250000Y-100400000D03*
%TD*%
%TO.P,,1*%
%TO.N,GND*%
X142600000Y-92900000D03*
%TD*%
%TO.P,,1*%
%TO.N,GND*%
X137650000Y-90400000D03*
%TD*%
%TO.P,,1*%
%TO.N,GND*%
X144350000Y-97600000D03*
%TD*%
%TO.P,,1*%
%TO.N,GND*%
X144200000Y-91350000D03*
%TD*%
%TO.P,,1*%
%TO.N,GND*%
X136243811Y-92969054D03*
%TD*%
D13*
%TO.P,BUTTON3,GND1*%
%TO.N,GND*%
X130700000Y-81650000D03*
%TO.P,BUTTON3,GND2*%
X123715000Y-81650000D03*
D14*
%TO.P,BUTTON3,P$1*%
%TO.N,3V3*%
X129430000Y-79110000D03*
%TO.P,BUTTON3,P$2*%
%TO.N,PA9*%
X124985000Y-79110000D03*
%TD*%
D10*
%TO.P,,1*%
%TO.N,GND*%
X142300000Y-99050000D03*
%TD*%
%TO.P,,1*%
%TO.N,GND*%
X129350000Y-99550000D03*
%TD*%
%TO.P,,1*%
%TO.N,GND*%
X142150000Y-90450000D03*
%TD*%
%TO.P,,1*%
%TO.N,GND*%
X132350000Y-90450000D03*
%TD*%
%TO.P,,1*%
%TO.N,GND*%
X132400000Y-92850000D03*
%TD*%
%TO.P,,1*%
%TO.N,GND*%
X136500000Y-101900000D03*
%TD*%
%TO.P,,1*%
%TO.N,GND*%
X125550000Y-92800000D03*
%TD*%
%TO.P,,1*%
%TO.N,GND*%
X142100000Y-95200000D03*
%TD*%
%TO.P,,1*%
%TO.N,GND*%
X139550000Y-90950000D03*
%TD*%
%TO.P,,1*%
%TO.N,GND*%
X130300000Y-101900000D03*
%TD*%
D13*
%TO.P,BUTTON2,GND1*%
%TO.N,GND*%
X139900000Y-81650000D03*
%TO.P,BUTTON2,GND2*%
X132915000Y-81650000D03*
D14*
%TO.P,BUTTON2,P$1*%
%TO.N,3V3*%
X138630000Y-79110000D03*
%TO.P,BUTTON2,P$2*%
%TO.N,PA8*%
X134185000Y-79110000D03*
%TD*%
D10*
%TO.P,,1*%
%TO.N,GND*%
X134150000Y-88250000D03*
%TD*%
D13*
%TO.P,BUTTON1,GND1*%
%TO.N,N/C*%
X149100000Y-81650000D03*
%TO.P,BUTTON1,GND2*%
%TO.N,GND*%
X142115000Y-81650000D03*
D14*
%TO.P,BUTTON1,P$1*%
%TO.N,3V3*%
X147830000Y-79110000D03*
%TO.P,BUTTON1,P$2*%
%TO.N,PA7*%
X143385000Y-79110000D03*
%TD*%
D10*
%TO.P,,1*%
%TO.N,GND*%
X138900000Y-88300000D03*
%TD*%
%TO.P,,1*%
%TO.N,GND*%
X125100000Y-95350000D03*
%TD*%
%TO.P,,3*%
%TO.N,3V3*%
X129000000Y-91850000D03*
%TD*%
%TO.P,,1*%
%TO.N,GND*%
X123000000Y-89450000D03*
%TD*%
D15*
%TO.P,SW2,0*%
%TO.N,N/C*%
X123950000Y-100852601D03*
X120950001Y-100852601D03*
%TD*%
D10*
%TO.P,,1*%
%TO.N,3V3*%
X130150000Y-96000000D03*
%TD*%
%TO.P,,1*%
%TO.N,GND*%
X128650000Y-96800000D03*
%TD*%
%TO.P,,4*%
%TO.N,3V3*%
X141200000Y-87500000D03*
%TD*%
%TO.P,,1*%
%TO.N,GND*%
X144200000Y-92350000D03*
%TD*%
%TO.P,,1*%
%TO.N,GND*%
X145050000Y-93750000D03*
%TD*%
%TO.P,,1*%
%TO.N,GND*%
X137600000Y-95700000D03*
%TD*%
%TO.P,,1*%
%TO.N,GND*%
X134500000Y-90550000D03*
%TD*%
%TO.P,,1*%
%TO.N,GND*%
X142200000Y-93600000D03*
%TD*%
%TO.P,,1*%
%TO.N,GND*%
X136300000Y-90450000D03*
%TD*%
%TO.P,,1*%
%TO.N,GND*%
X150400000Y-99100000D03*
%TD*%
%TO.P,,1*%
%TO.N,GND*%
X136200000Y-87500000D03*
%TD*%
%TO.P,,1*%
%TO.N,GND*%
X134300000Y-92900000D03*
%TD*%
D16*
%TO.P,USB1,SHELL,SHIELD*%
%TO.N,GND*%
X115200000Y-90550000D03*
%TO.P,USB1,SHELL1,SHIELD*%
X115200000Y-95050000D03*
%TD*%
D10*
%TO.P,,1*%
%TO.N,GND*%
X132000000Y-100600000D03*
%TD*%
%TO.P,,1*%
%TO.N,GND*%
X128650000Y-96000000D03*
%TD*%
D11*
%TO.P,CONNECTEUR_NRST1,1,Pin_1*%
%TO.N,NRST*%
X138150000Y-102000000D03*
%TD*%
D10*
%TO.P,,1*%
%TO.N,GND*%
X128000000Y-91600000D03*
%TD*%
%TO.P,,1*%
%TO.N,GND*%
X138850000Y-91350000D03*
%TD*%
%TO.P,,1*%
%TO.N,GND*%
X137600000Y-86850000D03*
%TD*%
%TO.P,,1*%
%TO.N,GND*%
X137450000Y-93100000D03*
%TD*%
%TO.P,,1*%
%TO.N,GND*%
X134900000Y-98400000D03*
%TD*%
%TO.P,,1*%
%TO.N,GND*%
X123450000Y-97250000D03*
%TD*%
%TO.P,,1*%
%TO.N,GND*%
X131100000Y-86800000D03*
%TD*%
%TO.P,,1*%
%TO.N,GND*%
X148050000Y-93000000D03*
%TD*%
%TO.P,,1*%
%TO.N,GND*%
X126350000Y-86650000D03*
%TD*%
D17*
%TO.N,3V3*%
X133700000Y-98150000D03*
X124900000Y-84750000D03*
X127900000Y-99350000D03*
X128900000Y-92767500D03*
X141050000Y-95400000D03*
%TO.N,Net-(FIXATION_ECRAN1-Pad2)*%
X130876014Y-95379292D03*
X134500000Y-85600000D03*
%TO.N,Net-(FIXATION_ECRAN1-Pad3)*%
X134160298Y-97455658D03*
X135100000Y-85300000D03*
%TO.N,Net-(FIXATION_ECRAN1-Pad4)*%
X135800000Y-85500000D03*
X134686113Y-97160891D03*
%TO.N,Net-(C12-Pad1)*%
X135211298Y-97450000D03*
X138570000Y-97030000D03*
%TO.N,PA1*%
X130400000Y-105337500D03*
X137000000Y-97700000D03*
%TO.N,PA2*%
X137450500Y-98100000D03*
X131600000Y-105337500D03*
%TO.N,PA4*%
X135300000Y-105337500D03*
X139605918Y-96599473D03*
%TO.N,PA5*%
X129200000Y-105337500D03*
X139604924Y-95911527D03*
%TO.N,PA6*%
X139604924Y-95312024D03*
X129150000Y-101800000D03*
%TO.N,PA7*%
X139834246Y-94758118D03*
%TO.N,PA8*%
X139554540Y-94163937D03*
%TO.N,PA9*%
X139562625Y-93534767D03*
%TO.N,PB2*%
X139100000Y-99800011D03*
X138900000Y-92851099D03*
%TO.N,/USB_P*%
X123600000Y-92050000D03*
X123600000Y-90400000D03*
%TD*%
D18*
%TO.N,3V3*%
X128900000Y-92767500D02*
X130000000Y-93867500D01*
X130550000Y-97000000D02*
X132550000Y-97000000D01*
X127900000Y-99350000D02*
X128349511Y-98900489D01*
X133700000Y-98500000D02*
X133700000Y-98150000D01*
X141398560Y-95051440D02*
X141398560Y-87698560D01*
X141054468Y-95404468D02*
X141054468Y-102637676D01*
X130000000Y-96450000D02*
X130550000Y-97000000D01*
X141054468Y-102637676D02*
X136893104Y-106799040D01*
X127900000Y-105527138D02*
X127900000Y-99350000D01*
X124900000Y-84750000D02*
X125900000Y-84750000D01*
X136893104Y-106799040D02*
X129171902Y-106799040D01*
X141050000Y-95400000D02*
X141398560Y-95051440D01*
X130000000Y-93867500D02*
X130000000Y-96450000D01*
X128900000Y-87750000D02*
X128900000Y-92767500D01*
X141398560Y-87698560D02*
X141200000Y-87500000D01*
X132550000Y-97000000D02*
X133700000Y-98150000D01*
X133299511Y-98900489D02*
X133700000Y-98500000D01*
X129171902Y-106799040D02*
X127900000Y-105527138D01*
X128349511Y-98900489D02*
X133299511Y-98900489D01*
X141050000Y-95400000D02*
X141054468Y-95404468D01*
X125900000Y-84750000D02*
X128900000Y-87750000D01*
D19*
%TO.N,Net-(FIXATION_ECRAN1-Pad2)*%
X130876014Y-89223986D02*
X130876014Y-95379292D01*
X134500000Y-85600000D02*
X130876014Y-89223986D01*
%TO.N,Net-(FIXATION_ECRAN1-Pad3)*%
X135100000Y-85300000D02*
X135100000Y-95894728D01*
X135100000Y-95894728D02*
X134100000Y-96894728D01*
X134100000Y-97395360D02*
X134160298Y-97455658D01*
X134100000Y-96894728D02*
X134100000Y-97395360D01*
%TO.N,Net-(FIXATION_ECRAN1-Pad4)*%
X135499519Y-85900481D02*
X135499519Y-96347485D01*
X135499519Y-96347485D02*
X134686113Y-97160891D01*
X135800000Y-85600000D02*
X135499519Y-85900481D01*
X135800000Y-85500000D02*
X135800000Y-85600000D01*
%TO.N,Net-(C12-Pad1)*%
X135461298Y-97200000D02*
X138400000Y-97200000D01*
X135211298Y-97450000D02*
X135461298Y-97200000D01*
X138400000Y-97200000D02*
X138570000Y-97030000D01*
%TO.N,PA1*%
X137000000Y-97700000D02*
X130400000Y-104300000D01*
X130400000Y-104300000D02*
X130400000Y-105337500D01*
%TO.N,PA2*%
X137350989Y-98199511D02*
X137450500Y-98100000D01*
X131600000Y-103665006D02*
X137065495Y-98199511D01*
X131600000Y-105337500D02*
X131600000Y-103665006D01*
X137065495Y-98199511D02*
X137350989Y-98199511D01*
%TO.N,PA4*%
X135300000Y-105337500D02*
X135300000Y-100750000D01*
X135750489Y-100299511D02*
X139306916Y-100299511D01*
X135300000Y-100750000D02*
X135750489Y-100299511D01*
X139605918Y-100000509D02*
X139605918Y-96599473D01*
X139306916Y-100299511D02*
X139605918Y-100000509D01*
%TO.N,PA5*%
X136500000Y-105850000D02*
X140105429Y-102244571D01*
X140105429Y-102244571D02*
X140105429Y-96356521D01*
D20*
X139660435Y-95911527D02*
X139604924Y-95911527D01*
D19*
X129200000Y-105337500D02*
X129712500Y-105850000D01*
X140105429Y-96356521D02*
X139660435Y-95911527D01*
X129712500Y-105850000D02*
X136500000Y-105850000D01*
%TO.N,PA6*%
X140504949Y-96104949D02*
X139712024Y-95312024D01*
X128700489Y-102249511D02*
X128700489Y-105550489D01*
X129150000Y-101800000D02*
X128700489Y-102249511D01*
X136665486Y-106249520D02*
X140504948Y-102410058D01*
X128700489Y-105550489D02*
X129399520Y-106249520D01*
X140504948Y-102410058D02*
X140504949Y-96104949D01*
X139712024Y-95312024D02*
X139604924Y-95312024D01*
X129399520Y-106249520D02*
X136665486Y-106249520D01*
%TO.N,PA7*%
X140650481Y-86249519D02*
X143800000Y-83100000D01*
X139834246Y-94758118D02*
X140849040Y-93743324D01*
X140849040Y-93743324D02*
X140849040Y-87926178D01*
X143800000Y-79525000D02*
X143370000Y-79095000D01*
X143800000Y-83100000D02*
X143800000Y-79525000D01*
X140650481Y-87727619D02*
X140650481Y-86249519D01*
X140849040Y-87926178D02*
X140650481Y-87727619D01*
%TO.N,PA8*%
X143400000Y-82200000D02*
X143400000Y-80903634D01*
X139736063Y-94163937D02*
X140449520Y-93450480D01*
X140250961Y-87893105D02*
X140250961Y-85349039D01*
X140449520Y-93450480D02*
X140449520Y-88091664D01*
X140250961Y-85349039D02*
X143400000Y-82200000D01*
X139554540Y-94163937D02*
X139736063Y-94163937D01*
X143400000Y-80903634D02*
X142596855Y-80100489D01*
X136320661Y-79110000D02*
X134185000Y-79110000D01*
X142596855Y-80100489D02*
X137311150Y-80100489D01*
X137311150Y-80100489D02*
X136320661Y-79110000D01*
X140449520Y-88091664D02*
X140250961Y-87893105D01*
%TO.N,PA9*%
X139562625Y-93534767D02*
X140050000Y-93047392D01*
X139851442Y-84679918D02*
X140069511Y-84461849D01*
X136803634Y-80250000D02*
X126125000Y-80250000D01*
X140050000Y-88257150D02*
X139851442Y-88058592D01*
X126125000Y-80250000D02*
X124985000Y-79110000D01*
X140069511Y-84461849D02*
X140069511Y-83423856D01*
X139396144Y-82750489D02*
X139304123Y-82750489D01*
X139304123Y-82750489D02*
X136803634Y-80250000D01*
X140069511Y-83423856D02*
X139396144Y-82750489D01*
X139851442Y-88058592D02*
X139851442Y-84679918D01*
X140050000Y-93047392D02*
X140050000Y-88257150D01*
%TO.N,PB2*%
X139100000Y-99800011D02*
X139206398Y-99693613D01*
X139206398Y-97373792D02*
X139069511Y-97236905D01*
X139069511Y-94385324D02*
X138900000Y-94215813D01*
X138900000Y-94215813D02*
X138900000Y-92851099D01*
X139206398Y-99693613D02*
X139206398Y-97373792D01*
X139069511Y-97236905D02*
X139069511Y-94385324D01*
%TO.N,/USB_P*%
X123600000Y-90400000D02*
X123600000Y-92050000D01*
%TD*%
%TA.AperFunction,Conductor*%
%TO.N,GND*%
G36*
X152633598Y-90020075D02*
G01*
X152680102Y-90073721D01*
X152691500Y-90126088D01*
X152691500Y-107265500D01*
X152671498Y-107333621D01*
X152617842Y-107380114D01*
X152565500Y-107391500D01*
X137677515Y-107391500D01*
X137609394Y-107371498D01*
X137562901Y-107317842D01*
X137552797Y-107247568D01*
X137582291Y-107182988D01*
X137588420Y-107176405D01*
X141543379Y-103221446D01*
X141557791Y-103209060D01*
X141569386Y-103200527D01*
X141569391Y-103200522D01*
X141575286Y-103196184D01*
X141580025Y-103190606D01*
X141580028Y-103190603D01*
X141609503Y-103155908D01*
X141616433Y-103148392D01*
X141622128Y-103142697D01*
X141639749Y-103120425D01*
X141642540Y-103117021D01*
X141685059Y-103066973D01*
X141685060Y-103066971D01*
X141689801Y-103061391D01*
X141693129Y-103054875D01*
X141696496Y-103049826D01*
X141699663Y-103044697D01*
X141704202Y-103038960D01*
X141735123Y-102972801D01*
X141737029Y-102968901D01*
X141745424Y-102952460D01*
X141770237Y-102903868D01*
X141771976Y-102896760D01*
X141774075Y-102891117D01*
X141775992Y-102885354D01*
X141779090Y-102878726D01*
X141793955Y-102807259D01*
X141794925Y-102802975D01*
X141810941Y-102737521D01*
X141812276Y-102732066D01*
X141812968Y-102720912D01*
X141813004Y-102720914D01*
X141813243Y-102716921D01*
X141813617Y-102712729D01*
X141815108Y-102705561D01*
X141813014Y-102628155D01*
X141812968Y-102624748D01*
X141812968Y-95761903D01*
X141832970Y-95693782D01*
X141849873Y-95672808D01*
X141887471Y-95635210D01*
X141901883Y-95622824D01*
X141913478Y-95614291D01*
X141913483Y-95614286D01*
X141919378Y-95609948D01*
X141924117Y-95604370D01*
X141924120Y-95604367D01*
X141953595Y-95569672D01*
X141960525Y-95562156D01*
X141966220Y-95556461D01*
X141983841Y-95534189D01*
X141986632Y-95530785D01*
X142029151Y-95480737D01*
X142029152Y-95480735D01*
X142033893Y-95475155D01*
X142037221Y-95468639D01*
X142040588Y-95463590D01*
X142043755Y-95458461D01*
X142048294Y-95452724D01*
X142079215Y-95386565D01*
X142081121Y-95382665D01*
X142084940Y-95375186D01*
X142114329Y-95317632D01*
X142116068Y-95310524D01*
X142118167Y-95304881D01*
X142120084Y-95299118D01*
X142123182Y-95292490D01*
X142138047Y-95221023D01*
X142139017Y-95216739D01*
X142139053Y-95216591D01*
X142156368Y-95145830D01*
X142157060Y-95134676D01*
X142157096Y-95134678D01*
X142157335Y-95130685D01*
X142157709Y-95126493D01*
X142159200Y-95119325D01*
X142157106Y-95041919D01*
X142157060Y-95038512D01*
X142157060Y-90128296D01*
X142177062Y-90060175D01*
X142230718Y-90013682D01*
X142283033Y-90002296D01*
X152565473Y-90000088D01*
X152633598Y-90020075D01*
G37*
%TD.AperFunction*%
%TA.AperFunction,Conductor*%
G36*
X123899861Y-78428502D02*
G01*
X123946354Y-78482158D01*
X123956458Y-78552432D01*
X123943248Y-78593167D01*
X123906389Y-78663225D01*
X123904675Y-78668746D01*
X123904673Y-78668750D01*
X123890696Y-78713766D01*
X123843032Y-78867267D01*
X123817920Y-79079439D01*
X123831894Y-79292634D01*
X123884485Y-79499713D01*
X123973933Y-79693740D01*
X124097241Y-79868218D01*
X124250281Y-80017302D01*
X124427927Y-80136001D01*
X124433230Y-80138279D01*
X124433233Y-80138281D01*
X124522298Y-80176546D01*
X124624229Y-80220339D01*
X124711630Y-80240116D01*
X124826977Y-80266217D01*
X124826980Y-80266217D01*
X124832613Y-80267492D01*
X124838384Y-80267719D01*
X124838386Y-80267719D01*
X124903363Y-80270272D01*
X125046101Y-80275880D01*
X125196893Y-80254016D01*
X125267179Y-80264036D01*
X125304068Y-80289617D01*
X125660685Y-80646234D01*
X125671552Y-80658625D01*
X125691013Y-80683987D01*
X125722925Y-80708474D01*
X125722928Y-80708477D01*
X125770243Y-80744783D01*
X125818125Y-80781524D01*
X125966150Y-80842838D01*
X126085115Y-80858500D01*
X126085120Y-80858500D01*
X126085129Y-80858501D01*
X126093310Y-80859578D01*
X126109976Y-80861772D01*
X126116812Y-80862672D01*
X126125000Y-80863750D01*
X126156693Y-80859578D01*
X126173136Y-80858500D01*
X136499395Y-80858500D01*
X136567516Y-80878502D01*
X136588490Y-80895405D01*
X138233869Y-82540784D01*
X138267895Y-82603096D01*
X138262830Y-82673911D01*
X138220283Y-82730747D01*
X138202957Y-82741640D01*
X138193607Y-82746507D01*
X138189474Y-82749610D01*
X138189471Y-82749612D01*
X138019100Y-82877530D01*
X138014965Y-82880635D01*
X138011393Y-82884373D01*
X137880083Y-83021781D01*
X137860629Y-83042138D01*
X137753201Y-83199621D01*
X137698293Y-83244621D01*
X137627768Y-83252792D01*
X137564021Y-83221538D01*
X137543324Y-83197054D01*
X137462822Y-83072617D01*
X137462820Y-83072614D01*
X137460014Y-83068277D01*
X137309670Y-82903051D01*
X137305619Y-82899852D01*
X137305615Y-82899848D01*
X137138414Y-82767800D01*
X137138410Y-82767798D01*
X137134359Y-82764598D01*
X136938789Y-82656638D01*
X136933920Y-82654914D01*
X136933916Y-82654912D01*
X136733087Y-82583795D01*
X136733083Y-82583794D01*
X136728212Y-82582069D01*
X136723119Y-82581162D01*
X136723116Y-82581161D01*
X136513373Y-82543800D01*
X136513367Y-82543799D01*
X136508284Y-82542894D01*
X136434452Y-82541992D01*
X136290081Y-82540228D01*
X136290079Y-82540228D01*
X136284911Y-82540165D01*
X136064091Y-82573955D01*
X135851756Y-82643357D01*
X135821443Y-82659137D01*
X135683882Y-82730747D01*
X135653607Y-82746507D01*
X135649474Y-82749610D01*
X135649471Y-82749612D01*
X135479100Y-82877530D01*
X135474965Y-82880635D01*
X135471393Y-82884373D01*
X135340083Y-83021781D01*
X135320629Y-83042138D01*
X135213201Y-83199621D01*
X135158293Y-83244621D01*
X135087768Y-83252792D01*
X135024021Y-83221538D01*
X135003324Y-83197054D01*
X134922822Y-83072617D01*
X134922820Y-83072614D01*
X134920014Y-83068277D01*
X134769670Y-82903051D01*
X134765619Y-82899852D01*
X134765615Y-82899848D01*
X134598414Y-82767800D01*
X134598410Y-82767798D01*
X134594359Y-82764598D01*
X134398789Y-82656638D01*
X134393920Y-82654914D01*
X134393916Y-82654912D01*
X134193087Y-82583795D01*
X134193083Y-82583794D01*
X134188212Y-82582069D01*
X134183119Y-82581162D01*
X134183116Y-82581161D01*
X133973373Y-82543800D01*
X133973367Y-82543799D01*
X133968284Y-82542894D01*
X133894452Y-82541992D01*
X133750081Y-82540228D01*
X133750079Y-82540228D01*
X133744911Y-82540165D01*
X133524091Y-82573955D01*
X133311756Y-82643357D01*
X133281443Y-82659137D01*
X133143882Y-82730747D01*
X133113607Y-82746507D01*
X133109474Y-82749610D01*
X133109471Y-82749612D01*
X132939100Y-82877530D01*
X132934965Y-82880635D01*
X132931393Y-82884373D01*
X132800083Y-83021781D01*
X132780629Y-83042138D01*
X132777720Y-83046403D01*
X132777714Y-83046411D01*
X132692556Y-83171249D01*
X132654743Y-83226680D01*
X132639810Y-83258850D01*
X132567019Y-83415667D01*
X132560688Y-83429305D01*
X132500989Y-83644570D01*
X132477251Y-83866695D01*
X132477548Y-83871848D01*
X132477548Y-83871851D01*
X132486727Y-84031047D01*
X132490110Y-84089715D01*
X132491247Y-84094761D01*
X132491248Y-84094767D01*
X132507013Y-84164719D01*
X132539222Y-84307639D01*
X132623266Y-84514616D01*
X132674495Y-84598215D01*
X132737291Y-84700688D01*
X132739987Y-84705088D01*
X132886250Y-84873938D01*
X133058126Y-85016632D01*
X133251000Y-85129338D01*
X133255825Y-85131180D01*
X133255826Y-85131181D01*
X133328612Y-85158975D01*
X133459692Y-85209030D01*
X133464760Y-85210061D01*
X133464763Y-85210062D01*
X133572017Y-85231883D01*
X133678597Y-85253567D01*
X133683771Y-85253757D01*
X133683773Y-85253757D01*
X133686123Y-85253843D01*
X133687027Y-85254145D01*
X133688899Y-85254368D01*
X133688853Y-85254755D01*
X133753464Y-85276329D01*
X133797959Y-85331653D01*
X133805479Y-85402250D01*
X133770598Y-85468853D01*
X130479780Y-88759671D01*
X130467389Y-88770538D01*
X130442027Y-88789999D01*
X130417540Y-88821911D01*
X130417537Y-88821914D01*
X130344490Y-88917110D01*
X130344490Y-88917111D01*
X130283176Y-89065136D01*
X130267514Y-89184101D01*
X130267514Y-89184106D01*
X130262264Y-89223986D01*
X130263342Y-89232174D01*
X130266436Y-89255676D01*
X130267514Y-89272122D01*
X130267514Y-92758143D01*
X130247512Y-92826264D01*
X130193856Y-92872757D01*
X130123582Y-92882861D01*
X130059002Y-92853367D01*
X130052419Y-92847238D01*
X129695405Y-92490224D01*
X129661379Y-92427912D01*
X129658500Y-92401129D01*
X129658500Y-92135929D01*
X129667592Y-92088933D01*
X129683212Y-92050076D01*
X129689385Y-92034720D01*
X129713547Y-91864947D01*
X129713704Y-91850000D01*
X129698752Y-91726446D01*
X129694015Y-91687299D01*
X129694014Y-91687296D01*
X129693102Y-91679758D01*
X129666634Y-91609712D01*
X129658500Y-91565174D01*
X129658500Y-87817070D01*
X129659933Y-87798120D01*
X129662099Y-87783885D01*
X129662099Y-87783881D01*
X129663199Y-87776651D01*
X129661528Y-87756099D01*
X129658915Y-87723982D01*
X129658500Y-87713767D01*
X129658500Y-87705707D01*
X129655209Y-87677480D01*
X129654778Y-87673121D01*
X129649454Y-87607662D01*
X129649453Y-87607659D01*
X129648860Y-87600364D01*
X129646604Y-87593400D01*
X129645417Y-87587461D01*
X129644030Y-87581590D01*
X129643182Y-87574319D01*
X129640686Y-87567443D01*
X129640684Y-87567434D01*
X129618275Y-87505702D01*
X129616865Y-87501598D01*
X129594352Y-87432101D01*
X129590556Y-87425846D01*
X129588057Y-87420387D01*
X129585329Y-87414939D01*
X129582833Y-87408063D01*
X129542805Y-87347010D01*
X129540481Y-87343327D01*
X129505504Y-87285686D01*
X129505501Y-87285682D01*
X129502595Y-87280893D01*
X129498886Y-87276694D01*
X129498883Y-87276689D01*
X129495197Y-87272516D01*
X129495224Y-87272492D01*
X129492571Y-87269500D01*
X129489868Y-87266267D01*
X129485856Y-87260148D01*
X129429617Y-87206872D01*
X129427175Y-87204494D01*
X126483770Y-84261089D01*
X126471384Y-84246677D01*
X126462851Y-84235082D01*
X126462846Y-84235077D01*
X126458508Y-84229182D01*
X126452930Y-84224443D01*
X126452927Y-84224440D01*
X126418232Y-84194965D01*
X126410716Y-84188035D01*
X126405021Y-84182340D01*
X126388736Y-84169456D01*
X126382749Y-84164719D01*
X126379345Y-84161928D01*
X126329297Y-84119409D01*
X126329295Y-84119408D01*
X126323715Y-84114667D01*
X126317199Y-84111339D01*
X126312150Y-84107972D01*
X126307021Y-84104805D01*
X126301284Y-84100266D01*
X126235125Y-84069345D01*
X126231225Y-84067439D01*
X126166192Y-84034231D01*
X126159084Y-84032492D01*
X126153441Y-84030393D01*
X126147678Y-84028476D01*
X126141050Y-84025378D01*
X126069583Y-84010513D01*
X126065299Y-84009543D01*
X126050697Y-84005970D01*
X125994390Y-83992192D01*
X125988788Y-83991844D01*
X125988785Y-83991844D01*
X125983236Y-83991500D01*
X125983238Y-83991464D01*
X125979245Y-83991225D01*
X125975053Y-83990851D01*
X125967885Y-83989360D01*
X125901675Y-83991151D01*
X125890479Y-83991454D01*
X125887072Y-83991500D01*
X124855707Y-83991500D01*
X124785964Y-83999631D01*
X124731589Y-84005970D01*
X124731585Y-84005971D01*
X124724319Y-84006818D01*
X124717444Y-84009313D01*
X124717442Y-84009314D01*
X124573840Y-84061440D01*
X124558063Y-84067167D01*
X124551946Y-84071178D01*
X124551943Y-84071179D01*
X124494902Y-84108577D01*
X124410148Y-84164144D01*
X124288510Y-84292547D01*
X124199674Y-84445490D01*
X124197553Y-84452494D01*
X124197551Y-84452498D01*
X124178738Y-84514616D01*
X124148405Y-84614767D01*
X124137453Y-84791298D01*
X124138693Y-84798514D01*
X124138693Y-84798516D01*
X124162580Y-84937529D01*
X124167406Y-84965614D01*
X124236657Y-85128364D01*
X124240990Y-85134252D01*
X124240993Y-85134257D01*
X124267784Y-85170661D01*
X124341492Y-85270818D01*
X124347070Y-85275557D01*
X124347073Y-85275560D01*
X124470706Y-85380594D01*
X124470710Y-85380597D01*
X124476285Y-85385333D01*
X124509415Y-85402250D01*
X124627292Y-85462442D01*
X124627294Y-85462443D01*
X124633808Y-85465769D01*
X124640913Y-85467508D01*
X124640917Y-85467509D01*
X124723238Y-85487652D01*
X124805610Y-85507808D01*
X124811212Y-85508156D01*
X124811215Y-85508156D01*
X124814825Y-85508380D01*
X124814835Y-85508380D01*
X124816764Y-85508500D01*
X125533629Y-85508500D01*
X125601750Y-85528502D01*
X125622724Y-85545405D01*
X128104595Y-88027276D01*
X128138621Y-88089588D01*
X128141500Y-88116371D01*
X128141500Y-92700430D01*
X128140067Y-92719380D01*
X128136801Y-92740849D01*
X128137394Y-92748141D01*
X128137394Y-92748144D01*
X128141085Y-92793518D01*
X128141500Y-92803733D01*
X128141500Y-92811793D01*
X128141925Y-92815437D01*
X128144789Y-92840007D01*
X128145222Y-92844382D01*
X128151140Y-92917137D01*
X128153396Y-92924101D01*
X128154587Y-92930060D01*
X128155971Y-92935915D01*
X128156818Y-92943181D01*
X128181735Y-93011827D01*
X128183152Y-93015955D01*
X128198177Y-93062333D01*
X128205649Y-93085399D01*
X128209445Y-93091654D01*
X128211951Y-93097128D01*
X128214670Y-93102558D01*
X128217167Y-93109437D01*
X128221180Y-93115557D01*
X128221180Y-93115558D01*
X128257186Y-93170476D01*
X128259523Y-93174180D01*
X128297405Y-93236607D01*
X128301121Y-93240815D01*
X128301122Y-93240816D01*
X128304803Y-93244984D01*
X128304776Y-93245008D01*
X128307429Y-93248000D01*
X128310132Y-93251233D01*
X128314144Y-93257352D01*
X128319456Y-93262384D01*
X128370383Y-93310628D01*
X128372825Y-93313006D01*
X129204595Y-94144776D01*
X129238621Y-94207088D01*
X129241500Y-94233871D01*
X129241500Y-96382930D01*
X129240067Y-96401880D01*
X129238114Y-96414719D01*
X129236801Y-96423349D01*
X129237394Y-96430641D01*
X129237394Y-96430644D01*
X129241085Y-96476018D01*
X129241500Y-96486233D01*
X129241500Y-96494293D01*
X129241925Y-96497937D01*
X129244789Y-96522507D01*
X129245222Y-96526882D01*
X129251140Y-96599637D01*
X129253396Y-96606601D01*
X129254587Y-96612560D01*
X129255971Y-96618415D01*
X129256818Y-96625681D01*
X129281735Y-96694327D01*
X129283152Y-96698455D01*
X129295276Y-96735878D01*
X129305649Y-96767899D01*
X129309445Y-96774154D01*
X129311951Y-96779628D01*
X129314670Y-96785058D01*
X129317167Y-96791937D01*
X129321180Y-96798057D01*
X129321180Y-96798058D01*
X129357186Y-96852976D01*
X129359523Y-96856680D01*
X129397405Y-96919107D01*
X129401121Y-96923315D01*
X129401122Y-96923316D01*
X129404803Y-96927484D01*
X129404777Y-96927507D01*
X129407418Y-96930486D01*
X129408430Y-96931696D01*
X129437017Y-96998705D01*
X129455153Y-97162975D01*
X129514085Y-97324015D01*
X129609730Y-97466349D01*
X129736565Y-97581760D01*
X129887268Y-97663585D01*
X130053139Y-97707101D01*
X130142378Y-97708503D01*
X130217004Y-97709675D01*
X130217007Y-97709675D01*
X130224602Y-97709794D01*
X130229931Y-97708573D01*
X130282797Y-97715253D01*
X130283808Y-97715769D01*
X130290917Y-97717508D01*
X130296544Y-97719601D01*
X130302322Y-97721523D01*
X130308950Y-97724621D01*
X130316110Y-97726110D01*
X130316112Y-97726111D01*
X130380396Y-97739482D01*
X130384680Y-97740452D01*
X130455610Y-97757808D01*
X130461212Y-97758156D01*
X130461215Y-97758156D01*
X130466764Y-97758500D01*
X130466762Y-97758536D01*
X130470752Y-97758775D01*
X130474950Y-97759150D01*
X130482115Y-97760640D01*
X130559520Y-97758546D01*
X130562928Y-97758500D01*
X132183629Y-97758500D01*
X132251750Y-97778502D01*
X132272724Y-97795405D01*
X132404213Y-97926894D01*
X132438239Y-97989206D01*
X132433174Y-98060021D01*
X132390627Y-98116857D01*
X132324107Y-98141668D01*
X132315118Y-98141989D01*
X128416581Y-98141989D01*
X128397631Y-98140556D01*
X128383396Y-98138390D01*
X128383392Y-98138390D01*
X128376162Y-98137290D01*
X128368870Y-98137883D01*
X128368867Y-98137883D01*
X128323493Y-98141574D01*
X128313278Y-98141989D01*
X128305218Y-98141989D01*
X128301584Y-98142413D01*
X128301578Y-98142413D01*
X128288553Y-98143932D01*
X128276991Y-98145280D01*
X128272643Y-98145710D01*
X128250570Y-98147505D01*
X128207173Y-98151035D01*
X128207170Y-98151036D01*
X128199875Y-98151629D01*
X128192911Y-98153885D01*
X128186972Y-98155072D01*
X128181101Y-98156459D01*
X128173830Y-98157307D01*
X128166954Y-98159803D01*
X128166945Y-98159805D01*
X128105213Y-98182214D01*
X128101109Y-98183624D01*
X128031612Y-98206137D01*
X128025357Y-98209933D01*
X128019898Y-98212432D01*
X128014450Y-98215160D01*
X128007574Y-98217656D01*
X127946521Y-98257684D01*
X127942848Y-98260002D01*
X127880404Y-98297894D01*
X127872028Y-98305291D01*
X127872004Y-98305264D01*
X127869010Y-98307919D01*
X127865779Y-98310621D01*
X127859659Y-98314633D01*
X127854627Y-98319945D01*
X127806383Y-98370872D01*
X127804005Y-98373314D01*
X127411089Y-98766230D01*
X127396677Y-98778616D01*
X127385082Y-98787149D01*
X127385077Y-98787154D01*
X127379182Y-98791492D01*
X127374443Y-98797070D01*
X127374440Y-98797073D01*
X127344965Y-98831768D01*
X127338035Y-98839284D01*
X127332340Y-98844979D01*
X127330060Y-98847861D01*
X127314719Y-98867251D01*
X127311928Y-98870655D01*
X127269409Y-98920703D01*
X127264667Y-98926285D01*
X127261339Y-98932801D01*
X127257972Y-98937850D01*
X127254805Y-98942979D01*
X127250266Y-98948716D01*
X127219345Y-99014875D01*
X127217442Y-99018769D01*
X127184231Y-99083808D01*
X127182492Y-99090916D01*
X127180393Y-99096559D01*
X127178476Y-99102322D01*
X127175378Y-99108950D01*
X127173888Y-99116112D01*
X127173888Y-99116113D01*
X127160514Y-99180412D01*
X127159544Y-99184696D01*
X127142192Y-99255610D01*
X127141500Y-99266764D01*
X127141464Y-99266762D01*
X127141225Y-99270755D01*
X127140851Y-99274947D01*
X127139360Y-99282115D01*
X127139558Y-99289432D01*
X127141454Y-99359521D01*
X127141500Y-99362928D01*
X127141500Y-105460068D01*
X127140067Y-105479018D01*
X127136801Y-105500487D01*
X127137394Y-105507779D01*
X127137394Y-105507782D01*
X127141085Y-105553156D01*
X127141500Y-105563371D01*
X127141500Y-105571431D01*
X127141925Y-105575075D01*
X127144789Y-105599645D01*
X127145222Y-105604020D01*
X127151140Y-105676775D01*
X127153396Y-105683739D01*
X127154587Y-105689698D01*
X127155971Y-105695553D01*
X127156818Y-105702819D01*
X127181735Y-105771465D01*
X127183152Y-105775593D01*
X127205649Y-105845037D01*
X127209445Y-105851292D01*
X127211951Y-105856766D01*
X127214670Y-105862196D01*
X127217167Y-105869075D01*
X127221180Y-105875195D01*
X127221180Y-105875196D01*
X127257186Y-105930114D01*
X127259523Y-105933818D01*
X127297405Y-105996245D01*
X127301121Y-106000453D01*
X127301122Y-106000454D01*
X127304803Y-106004622D01*
X127304776Y-106004646D01*
X127307429Y-106007638D01*
X127310132Y-106010871D01*
X127314144Y-106016990D01*
X127319456Y-106022022D01*
X127370383Y-106070266D01*
X127372825Y-106072644D01*
X128476586Y-107176405D01*
X128510612Y-107238717D01*
X128505547Y-107309532D01*
X128463000Y-107366368D01*
X128396480Y-107391179D01*
X128387491Y-107391500D01*
X113630820Y-107391500D01*
X113562699Y-107371498D01*
X113516206Y-107317842D01*
X113504820Y-107265500D01*
X113504820Y-100837751D01*
X119886483Y-100837751D01*
X119886999Y-100843895D01*
X119898942Y-100986118D01*
X119903853Y-101044605D01*
X119961070Y-101244146D01*
X119963888Y-101249628D01*
X119963889Y-101249632D01*
X120053136Y-101423287D01*
X120055956Y-101428774D01*
X120059787Y-101433608D01*
X120059788Y-101433609D01*
X120080982Y-101460349D01*
X120184895Y-101591455D01*
X120189582Y-101595444D01*
X120189585Y-101595447D01*
X120268650Y-101662736D01*
X120342977Y-101725993D01*
X120524181Y-101827265D01*
X120721604Y-101891411D01*
X120927726Y-101915990D01*
X120933861Y-101915518D01*
X120933863Y-101915518D01*
X121128556Y-101900537D01*
X121128561Y-101900536D01*
X121134697Y-101900064D01*
X121140627Y-101898408D01*
X121140629Y-101898408D01*
X121234665Y-101872152D01*
X121334633Y-101844241D01*
X121374191Y-101824259D01*
X121514417Y-101753426D01*
X121514419Y-101753425D01*
X121519918Y-101750647D01*
X121683496Y-101622846D01*
X121819134Y-101465707D01*
X121921668Y-101285215D01*
X121987191Y-101088245D01*
X122013208Y-100882299D01*
X122013623Y-100852601D01*
X122012167Y-100837751D01*
X122886482Y-100837751D01*
X122886998Y-100843895D01*
X122898941Y-100986118D01*
X122903852Y-101044605D01*
X122961069Y-101244146D01*
X122963887Y-101249628D01*
X122963888Y-101249632D01*
X123053135Y-101423287D01*
X123055955Y-101428774D01*
X123059786Y-101433608D01*
X123059787Y-101433609D01*
X123080981Y-101460349D01*
X123184894Y-101591455D01*
X123189581Y-101595444D01*
X123189584Y-101595447D01*
X123268649Y-101662736D01*
X123342976Y-101725993D01*
X123524180Y-101827265D01*
X123721603Y-101891411D01*
X123927725Y-101915990D01*
X123933860Y-101915518D01*
X123933862Y-101915518D01*
X124128555Y-101900537D01*
X124128560Y-101900536D01*
X124134696Y-101900064D01*
X124140626Y-101898408D01*
X124140628Y-101898408D01*
X124234664Y-101872152D01*
X124334632Y-101844241D01*
X124374190Y-101824259D01*
X124514416Y-101753426D01*
X124514418Y-101753425D01*
X124519917Y-101750647D01*
X124683495Y-101622846D01*
X124819133Y-101465707D01*
X124921667Y-101285215D01*
X124987190Y-101088245D01*
X125013207Y-100882299D01*
X125013622Y-100852601D01*
X124993365Y-100646009D01*
X124933368Y-100447286D01*
X124835913Y-100264002D01*
X124787083Y-100204130D01*
X124708610Y-100107912D01*
X124708607Y-100107909D01*
X124704715Y-100103137D01*
X124697770Y-100097391D01*
X124549518Y-99974746D01*
X124549519Y-99974746D01*
X124544770Y-99970818D01*
X124539353Y-99967889D01*
X124539350Y-99967887D01*
X124367590Y-99875017D01*
X124367585Y-99875015D01*
X124362170Y-99872087D01*
X124163871Y-99810703D01*
X124157746Y-99810059D01*
X124157745Y-99810059D01*
X123963554Y-99789649D01*
X123963552Y-99789649D01*
X123957425Y-99789005D01*
X123871515Y-99796824D01*
X123756836Y-99807260D01*
X123756833Y-99807261D01*
X123750697Y-99807819D01*
X123744791Y-99809557D01*
X123744787Y-99809558D01*
X123596932Y-99853074D01*
X123551560Y-99866428D01*
X123367600Y-99962600D01*
X123205823Y-100092672D01*
X123201865Y-100097389D01*
X123201863Y-100097391D01*
X123197042Y-100103137D01*
X123072391Y-100251690D01*
X123069427Y-100257082D01*
X123069424Y-100257086D01*
X123065622Y-100264002D01*
X122972387Y-100433596D01*
X122909621Y-100631462D01*
X122908935Y-100637579D01*
X122908934Y-100637583D01*
X122907989Y-100646009D01*
X122886482Y-100837751D01*
X122012167Y-100837751D01*
X121993366Y-100646009D01*
X121933369Y-100447286D01*
X121835914Y-100264002D01*
X121787084Y-100204130D01*
X121708611Y-100107912D01*
X121708608Y-100107909D01*
X121704716Y-100103137D01*
X121697771Y-100097391D01*
X121549519Y-99974746D01*
X121549520Y-99974746D01*
X121544771Y-99970818D01*
X121539354Y-99967889D01*
X121539351Y-99967887D01*
X121367591Y-99875017D01*
X121367586Y-99875015D01*
X121362171Y-99872087D01*
X121163872Y-99810703D01*
X121157747Y-99810059D01*
X121157746Y-99810059D01*
X120963555Y-99789649D01*
X120963553Y-99789649D01*
X120957426Y-99789005D01*
X120871516Y-99796824D01*
X120756837Y-99807260D01*
X120756834Y-99807261D01*
X120750698Y-99807819D01*
X120744792Y-99809557D01*
X120744788Y-99809558D01*
X120596933Y-99853074D01*
X120551561Y-99866428D01*
X120367601Y-99962600D01*
X120205824Y-100092672D01*
X120201866Y-100097389D01*
X120201864Y-100097391D01*
X120197043Y-100103137D01*
X120072392Y-100251690D01*
X120069428Y-100257082D01*
X120069425Y-100257086D01*
X120065623Y-100264002D01*
X119972388Y-100433596D01*
X119909622Y-100631462D01*
X119908936Y-100637579D01*
X119908935Y-100637583D01*
X119907990Y-100646009D01*
X119886483Y-100837751D01*
X113504820Y-100837751D01*
X113504820Y-92042526D01*
X122886335Y-92042526D01*
X122895639Y-92126801D01*
X122902435Y-92188353D01*
X122905153Y-92212975D01*
X122907762Y-92220106D01*
X122907763Y-92220108D01*
X122915688Y-92241764D01*
X122964085Y-92374015D01*
X123059730Y-92516349D01*
X123186565Y-92631760D01*
X123337268Y-92713585D01*
X123503139Y-92757101D01*
X123590586Y-92758474D01*
X123667003Y-92759675D01*
X123667006Y-92759675D01*
X123674602Y-92759794D01*
X123682006Y-92758098D01*
X123682008Y-92758098D01*
X123757320Y-92740849D01*
X123841759Y-92721510D01*
X123994958Y-92644459D01*
X124000729Y-92639530D01*
X124000732Y-92639528D01*
X124119578Y-92538023D01*
X124125355Y-92533089D01*
X124225424Y-92393830D01*
X124289385Y-92234720D01*
X124302441Y-92142983D01*
X124312966Y-92069031D01*
X124312966Y-92069027D01*
X124313547Y-92064947D01*
X124313704Y-92050000D01*
X124293102Y-91879758D01*
X124287506Y-91864947D01*
X124269789Y-91818060D01*
X124232487Y-91719344D01*
X124228187Y-91713087D01*
X124224665Y-91706350D01*
X124227063Y-91705096D01*
X124208500Y-91645318D01*
X124208500Y-90805072D01*
X124223558Y-90746427D01*
X124225424Y-90743830D01*
X124289385Y-90584720D01*
X124313547Y-90414947D01*
X124313704Y-90400000D01*
X124293102Y-90229758D01*
X124232487Y-90069344D01*
X124135357Y-89928019D01*
X124129686Y-89922966D01*
X124012993Y-89818996D01*
X124012990Y-89818994D01*
X124007321Y-89813943D01*
X123999325Y-89809709D01*
X123862481Y-89737254D01*
X123862482Y-89737254D01*
X123855769Y-89733700D01*
X123838196Y-89729286D01*
X123696822Y-89693775D01*
X123696818Y-89693775D01*
X123689451Y-89691924D01*
X123681852Y-89691884D01*
X123681850Y-89691884D01*
X123610394Y-89691510D01*
X123517969Y-89691026D01*
X123510589Y-89692798D01*
X123510587Y-89692798D01*
X123358602Y-89729286D01*
X123358598Y-89729287D01*
X123351223Y-89731058D01*
X123198839Y-89809709D01*
X123069615Y-89922439D01*
X122971010Y-90062739D01*
X122908718Y-90222509D01*
X122886335Y-90392526D01*
X122905153Y-90562975D01*
X122907762Y-90570106D01*
X122907763Y-90570108D01*
X122913111Y-90584720D01*
X122964085Y-90724015D01*
X122968320Y-90730318D01*
X122968325Y-90730327D01*
X122970083Y-90732943D01*
X122970716Y-90735018D01*
X122971771Y-90737090D01*
X122971404Y-90737277D01*
X122991500Y-90803216D01*
X122991500Y-91644808D01*
X122976543Y-91704351D01*
X122975377Y-91706525D01*
X122971010Y-91712739D01*
X122968252Y-91719814D01*
X122913275Y-91860822D01*
X122908718Y-91872509D01*
X122907726Y-91880042D01*
X122907726Y-91880043D01*
X122887363Y-92034720D01*
X122886335Y-92042526D01*
X113504820Y-92042526D01*
X113504820Y-78534500D01*
X113524822Y-78466379D01*
X113578478Y-78419886D01*
X113630820Y-78408500D01*
X123831740Y-78408500D01*
X123899861Y-78428502D01*
G37*
%TD.AperFunction*%
%TA.AperFunction,Conductor*%
G36*
X136740251Y-100928013D02*
G01*
X136786744Y-100981669D01*
X136797393Y-101047619D01*
X136791500Y-101101866D01*
X136791500Y-102898134D01*
X136798255Y-102960316D01*
X136849385Y-103096705D01*
X136936739Y-103213261D01*
X137053295Y-103300615D01*
X137189684Y-103351745D01*
X137251866Y-103358500D01*
X137826761Y-103358500D01*
X137894882Y-103378502D01*
X137941375Y-103432158D01*
X137951479Y-103502432D01*
X137921985Y-103567012D01*
X137915856Y-103573595D01*
X136284856Y-105204595D01*
X136222544Y-105238621D01*
X136195761Y-105241500D01*
X136108240Y-105241500D01*
X136040119Y-105221498D01*
X135993626Y-105167842D01*
X135990374Y-105160038D01*
X135935171Y-105013946D01*
X135935170Y-105013943D01*
X135932487Y-105006844D01*
X135928188Y-105000589D01*
X135924665Y-104993850D01*
X135927063Y-104992596D01*
X135908500Y-104932818D01*
X135908500Y-101054239D01*
X135928502Y-100986118D01*
X135945405Y-100965144D01*
X135965633Y-100944916D01*
X136027945Y-100910890D01*
X136054728Y-100908011D01*
X136672130Y-100908011D01*
X136740251Y-100928013D01*
G37*
%TD.AperFunction*%
%TA.AperFunction,Conductor*%
G36*
X134741328Y-97988064D02*
G01*
X134772968Y-98009108D01*
X134792242Y-98026646D01*
X134792246Y-98026649D01*
X134797863Y-98031760D01*
X134948566Y-98113585D01*
X135114437Y-98157101D01*
X135201884Y-98158474D01*
X135278301Y-98159675D01*
X135278304Y-98159675D01*
X135285900Y-98159794D01*
X135369714Y-98140598D01*
X135440580Y-98144887D01*
X135497878Y-98186809D01*
X135523416Y-98253054D01*
X135509085Y-98322589D01*
X135486938Y-98352513D01*
X130003766Y-103835685D01*
X129991375Y-103846552D01*
X129966013Y-103866013D01*
X129941526Y-103897925D01*
X129941523Y-103897928D01*
X129868476Y-103993124D01*
X129868476Y-103993125D01*
X129807162Y-104141150D01*
X129791500Y-104260115D01*
X129791500Y-104260120D01*
X129786250Y-104300000D01*
X129787328Y-104308188D01*
X129790422Y-104331690D01*
X129791500Y-104348136D01*
X129791500Y-104639676D01*
X129771498Y-104707797D01*
X129717842Y-104754290D01*
X129647568Y-104764394D01*
X129606541Y-104751030D01*
X129462481Y-104674754D01*
X129462482Y-104674754D01*
X129455769Y-104671200D01*
X129404294Y-104658271D01*
X129343099Y-104622277D01*
X129311077Y-104558912D01*
X129308989Y-104536067D01*
X129308989Y-102588893D01*
X129328991Y-102520772D01*
X129382647Y-102474279D01*
X129386470Y-102472721D01*
X129391759Y-102471510D01*
X129544958Y-102394459D01*
X129550729Y-102389530D01*
X129550732Y-102389528D01*
X129669578Y-102288023D01*
X129675355Y-102283089D01*
X129775424Y-102143830D01*
X129839385Y-101984720D01*
X129863547Y-101814947D01*
X129863704Y-101800000D01*
X129858068Y-101753426D01*
X129844015Y-101637299D01*
X129844014Y-101637296D01*
X129843102Y-101629758D01*
X129839487Y-101620189D01*
X129785171Y-101476447D01*
X129782487Y-101469344D01*
X129685357Y-101328019D01*
X129679686Y-101322966D01*
X129562993Y-101218996D01*
X129562990Y-101218994D01*
X129557321Y-101213943D01*
X129549325Y-101209709D01*
X129483665Y-101174944D01*
X129405769Y-101133700D01*
X129388196Y-101129286D01*
X129246822Y-101093775D01*
X129246818Y-101093775D01*
X129239451Y-101091924D01*
X129231852Y-101091884D01*
X129231850Y-101091884D01*
X129160394Y-101091510D01*
X129067969Y-101091026D01*
X129060589Y-101092798D01*
X129060587Y-101092798D01*
X128908602Y-101129286D01*
X128908598Y-101129287D01*
X128901223Y-101131058D01*
X128894481Y-101134538D01*
X128894475Y-101134540D01*
X128842289Y-101161475D01*
X128772582Y-101174944D01*
X128706658Y-101148588D01*
X128665449Y-101090775D01*
X128658500Y-101049509D01*
X128658500Y-99784989D01*
X128678502Y-99716868D01*
X128732158Y-99670375D01*
X128784500Y-99658989D01*
X133232441Y-99658989D01*
X133251391Y-99660422D01*
X133265626Y-99662588D01*
X133265630Y-99662588D01*
X133272860Y-99663688D01*
X133280152Y-99663095D01*
X133280155Y-99663095D01*
X133325529Y-99659404D01*
X133335744Y-99658989D01*
X133343804Y-99658989D01*
X133357094Y-99657440D01*
X133372018Y-99655700D01*
X133376393Y-99655267D01*
X133441850Y-99649943D01*
X133441853Y-99649942D01*
X133449148Y-99649349D01*
X133456112Y-99647093D01*
X133462071Y-99645902D01*
X133467926Y-99644518D01*
X133475192Y-99643671D01*
X133543838Y-99618754D01*
X133547966Y-99617337D01*
X133610447Y-99597096D01*
X133610449Y-99597095D01*
X133617410Y-99594840D01*
X133623665Y-99591044D01*
X133629139Y-99588538D01*
X133634569Y-99585819D01*
X133641448Y-99583322D01*
X133647569Y-99579309D01*
X133702487Y-99543303D01*
X133706191Y-99540966D01*
X133768618Y-99503084D01*
X133776995Y-99495686D01*
X133777019Y-99495713D01*
X133780011Y-99493060D01*
X133783244Y-99490357D01*
X133789363Y-99486345D01*
X133842639Y-99430106D01*
X133845017Y-99427664D01*
X134188911Y-99083770D01*
X134203323Y-99071384D01*
X134214918Y-99062851D01*
X134214923Y-99062846D01*
X134220818Y-99058508D01*
X134225557Y-99052930D01*
X134225560Y-99052927D01*
X134255035Y-99018232D01*
X134261965Y-99010716D01*
X134267660Y-99005021D01*
X134285281Y-98982749D01*
X134288072Y-98979345D01*
X134330591Y-98929297D01*
X134330592Y-98929295D01*
X134335333Y-98923715D01*
X134338661Y-98917199D01*
X134342028Y-98912150D01*
X134345195Y-98907021D01*
X134349734Y-98901284D01*
X134380655Y-98835125D01*
X134382561Y-98831225D01*
X134394489Y-98807865D01*
X134415769Y-98766192D01*
X134417508Y-98759084D01*
X134419607Y-98753441D01*
X134421524Y-98747678D01*
X134424622Y-98741050D01*
X134439487Y-98669583D01*
X134440457Y-98665299D01*
X134456473Y-98599845D01*
X134457808Y-98594390D01*
X134458500Y-98583236D01*
X134458536Y-98583238D01*
X134458775Y-98579245D01*
X134459149Y-98575053D01*
X134460640Y-98567885D01*
X134458546Y-98490479D01*
X134458500Y-98487072D01*
X134458500Y-98217070D01*
X134459933Y-98198120D01*
X134462099Y-98183885D01*
X134462099Y-98183881D01*
X134463199Y-98176651D01*
X134462645Y-98169846D01*
X134484948Y-98102655D01*
X134531890Y-98061869D01*
X134555256Y-98050117D01*
X134561029Y-98045186D01*
X134561034Y-98045183D01*
X134606338Y-98006490D01*
X134671128Y-97977459D01*
X134741328Y-97988064D01*
G37*
%TD.AperFunction*%
%TA.AperFunction,Conductor*%
G36*
X134409532Y-86655183D02*
G01*
X134466368Y-86697730D01*
X134491179Y-86764250D01*
X134491500Y-86773239D01*
X134491500Y-95590489D01*
X134471498Y-95658610D01*
X134454595Y-95679584D01*
X133703766Y-96430413D01*
X133691375Y-96441280D01*
X133666013Y-96460741D01*
X133641526Y-96492653D01*
X133641523Y-96492656D01*
X133641517Y-96492664D01*
X133595650Y-96552439D01*
X133568476Y-96587852D01*
X133558318Y-96612376D01*
X133535800Y-96666739D01*
X133491251Y-96722019D01*
X133423888Y-96744440D01*
X133355097Y-96726882D01*
X133330296Y-96707615D01*
X133133770Y-96511089D01*
X133121384Y-96496677D01*
X133112851Y-96485082D01*
X133112846Y-96485077D01*
X133108508Y-96479182D01*
X133102930Y-96474443D01*
X133102927Y-96474440D01*
X133068232Y-96444965D01*
X133060716Y-96438035D01*
X133055021Y-96432340D01*
X133034513Y-96416115D01*
X133032749Y-96414719D01*
X133029345Y-96411928D01*
X132979297Y-96369409D01*
X132979295Y-96369408D01*
X132973715Y-96364667D01*
X132967199Y-96361339D01*
X132962150Y-96357972D01*
X132957021Y-96354805D01*
X132951284Y-96350266D01*
X132885125Y-96319345D01*
X132881225Y-96317439D01*
X132816192Y-96284231D01*
X132809084Y-96282492D01*
X132803441Y-96280393D01*
X132797678Y-96278476D01*
X132791050Y-96275378D01*
X132719583Y-96260513D01*
X132715299Y-96259543D01*
X132644390Y-96242192D01*
X132638788Y-96241844D01*
X132638785Y-96241844D01*
X132633236Y-96241500D01*
X132633238Y-96241464D01*
X132629245Y-96241225D01*
X132625053Y-96240851D01*
X132617885Y-96239360D01*
X132551675Y-96241151D01*
X132540479Y-96241454D01*
X132537072Y-96241500D01*
X131269560Y-96241500D01*
X131201439Y-96221498D01*
X131154946Y-96167842D01*
X131144842Y-96097568D01*
X131174336Y-96032988D01*
X131212946Y-96002935D01*
X131264188Y-95977163D01*
X131270972Y-95973751D01*
X131276743Y-95968822D01*
X131276746Y-95968820D01*
X131395592Y-95867315D01*
X131401369Y-95862381D01*
X131501438Y-95723122D01*
X131565399Y-95564012D01*
X131579691Y-95463590D01*
X131588980Y-95398323D01*
X131588980Y-95398319D01*
X131589561Y-95394239D01*
X131589718Y-95379292D01*
X131580713Y-95304881D01*
X131570029Y-95216591D01*
X131570028Y-95216588D01*
X131569116Y-95209050D01*
X131508501Y-95048636D01*
X131504201Y-95042379D01*
X131500679Y-95035642D01*
X131503077Y-95034388D01*
X131484514Y-94974610D01*
X131484514Y-89528225D01*
X131504516Y-89460104D01*
X131521419Y-89439130D01*
X134276405Y-86684144D01*
X134338717Y-86650118D01*
X134409532Y-86655183D01*
G37*
%TD.AperFunction*%
%TA.AperFunction,Conductor*%
G36*
X137732026Y-84575144D02*
G01*
X137759875Y-84606994D01*
X137819987Y-84705088D01*
X137966250Y-84873938D01*
X138138126Y-85016632D01*
X138331000Y-85129338D01*
X138335825Y-85131180D01*
X138335826Y-85131181D01*
X138408612Y-85158975D01*
X138539692Y-85209030D01*
X138544760Y-85210061D01*
X138544763Y-85210062D01*
X138652017Y-85231883D01*
X138758597Y-85253567D01*
X138763772Y-85253757D01*
X138763774Y-85253757D01*
X138976673Y-85261564D01*
X138976677Y-85261564D01*
X138981837Y-85261753D01*
X138986957Y-85261097D01*
X138986959Y-85261097D01*
X139100932Y-85246497D01*
X139171042Y-85257682D01*
X139223976Y-85304995D01*
X139242942Y-85371476D01*
X139242942Y-88010456D01*
X139241864Y-88026899D01*
X139237692Y-88058592D01*
X139242942Y-88098472D01*
X139242942Y-88098477D01*
X139251253Y-88161606D01*
X139258604Y-88217443D01*
X139319918Y-88365468D01*
X139324945Y-88372019D01*
X139324946Y-88372021D01*
X139392955Y-88460652D01*
X139392959Y-88460657D01*
X139392965Y-88460664D01*
X139392968Y-88460667D01*
X139415464Y-88489984D01*
X139441063Y-88556203D01*
X139441500Y-88566686D01*
X139441500Y-92126801D01*
X139421498Y-92194922D01*
X139367842Y-92241415D01*
X139297568Y-92251519D01*
X139256541Y-92238155D01*
X139162482Y-92188353D01*
X139162479Y-92188352D01*
X139155769Y-92184799D01*
X139138196Y-92180385D01*
X138996822Y-92144874D01*
X138996818Y-92144874D01*
X138989451Y-92143023D01*
X138981852Y-92142983D01*
X138981850Y-92142983D01*
X138910394Y-92142609D01*
X138817969Y-92142125D01*
X138810589Y-92143897D01*
X138810587Y-92143897D01*
X138658602Y-92180385D01*
X138658598Y-92180386D01*
X138651223Y-92182157D01*
X138498839Y-92260808D01*
X138369615Y-92373538D01*
X138271010Y-92513838D01*
X138208718Y-92673608D01*
X138207726Y-92681141D01*
X138207726Y-92681142D01*
X138188621Y-92826264D01*
X138186335Y-92843625D01*
X138205153Y-93014074D01*
X138207762Y-93021205D01*
X138207763Y-93021207D01*
X138242291Y-93115558D01*
X138264085Y-93175114D01*
X138268320Y-93181417D01*
X138268325Y-93181426D01*
X138270083Y-93184042D01*
X138270716Y-93186117D01*
X138271771Y-93188189D01*
X138271404Y-93188376D01*
X138291500Y-93254315D01*
X138291500Y-94167677D01*
X138290422Y-94184120D01*
X138286250Y-94215813D01*
X138291500Y-94255693D01*
X138291500Y-94255698D01*
X138303315Y-94345439D01*
X138307162Y-94374664D01*
X138368476Y-94522689D01*
X138430826Y-94603944D01*
X138434973Y-94609349D01*
X138460574Y-94675569D01*
X138461011Y-94686053D01*
X138461011Y-96228167D01*
X138441009Y-96296288D01*
X138387353Y-96342781D01*
X138364425Y-96350686D01*
X138328603Y-96359286D01*
X138328601Y-96359287D01*
X138321223Y-96361058D01*
X138168839Y-96439709D01*
X138041234Y-96551027D01*
X138041232Y-96551028D01*
X138039615Y-96552439D01*
X138039380Y-96552169D01*
X137982765Y-96587050D01*
X137949573Y-96591500D01*
X136224820Y-96591500D01*
X136156699Y-96571498D01*
X136110206Y-96517842D01*
X136099898Y-96449053D01*
X136100437Y-96444965D01*
X136108019Y-96387370D01*
X136108019Y-96387365D01*
X136113269Y-96347485D01*
X136109097Y-96315792D01*
X136108019Y-96299349D01*
X136108019Y-86215852D01*
X136128021Y-86147731D01*
X136177406Y-86103287D01*
X136188172Y-86097872D01*
X136194958Y-86094459D01*
X136200729Y-86089530D01*
X136200732Y-86089528D01*
X136319578Y-85988023D01*
X136325355Y-85983089D01*
X136425424Y-85843830D01*
X136489385Y-85684720D01*
X136513547Y-85514947D01*
X136513704Y-85500000D01*
X136509159Y-85462442D01*
X136499248Y-85380541D01*
X136510921Y-85310511D01*
X136558602Y-85257909D01*
X136608325Y-85240425D01*
X136663416Y-85233368D01*
X136668366Y-85231883D01*
X136872429Y-85170661D01*
X136872434Y-85170659D01*
X136877384Y-85169174D01*
X137077994Y-85070896D01*
X137259860Y-84941173D01*
X137418096Y-84783489D01*
X137477594Y-84700689D01*
X137548453Y-84602077D01*
X137549776Y-84603028D01*
X137596645Y-84559857D01*
X137666580Y-84547625D01*
X137732026Y-84575144D01*
G37*
%TD.AperFunction*%
%TA.AperFunction,Conductor*%
G36*
X142143680Y-80728991D02*
G01*
X142190173Y-80782647D01*
X142201558Y-80834476D01*
X142202842Y-81149785D01*
X142208251Y-82478496D01*
X142188526Y-82546698D01*
X142171347Y-82568104D01*
X140893106Y-83846345D01*
X140830794Y-83880371D01*
X140759979Y-83875306D01*
X140703143Y-83832759D01*
X140678332Y-83766239D01*
X140678011Y-83757250D01*
X140678011Y-83471992D01*
X140679089Y-83455546D01*
X140682183Y-83432044D01*
X140683261Y-83423856D01*
X140678011Y-83383976D01*
X140678011Y-83383971D01*
X140662349Y-83265006D01*
X140659800Y-83258851D01*
X140601035Y-83116980D01*
X140527989Y-83021785D01*
X140527985Y-83021781D01*
X140527982Y-83021777D01*
X140508527Y-82996422D01*
X140508524Y-82996419D01*
X140503498Y-82989869D01*
X140496943Y-82984839D01*
X140478132Y-82970404D01*
X140465741Y-82959537D01*
X139860459Y-82354255D01*
X139849592Y-82341864D01*
X139835157Y-82323052D01*
X139830131Y-82316502D01*
X139798219Y-82292015D01*
X139798216Y-82292012D01*
X139703020Y-82218965D01*
X139641580Y-82193516D01*
X139606894Y-82179148D01*
X139566017Y-82151834D01*
X138338267Y-80924084D01*
X138304241Y-80861772D01*
X138309306Y-80790957D01*
X138351853Y-80734121D01*
X138418373Y-80709310D01*
X138427362Y-80708989D01*
X142075559Y-80708989D01*
X142143680Y-80728991D01*
G37*
%TD.AperFunction*%
%TD*%
%TA.AperFunction,NonConductor*%
G36*
X137544861Y-78428502D02*
G01*
X137591354Y-78482158D01*
X137601458Y-78552432D01*
X137588248Y-78593167D01*
X137551389Y-78663225D01*
X137549675Y-78668746D01*
X137549673Y-78668750D01*
X137535696Y-78713766D01*
X137488032Y-78867267D01*
X137462920Y-79079439D01*
X137463298Y-79085205D01*
X137463147Y-79090975D01*
X137460335Y-79090901D01*
X137447561Y-79148593D01*
X137397173Y-79198609D01*
X137327743Y-79213443D01*
X137261316Y-79188386D01*
X137248103Y-79176893D01*
X136784976Y-78713766D01*
X136774109Y-78701375D01*
X136759674Y-78682563D01*
X136754648Y-78676013D01*
X136722736Y-78651526D01*
X136722733Y-78651523D01*
X136700497Y-78634461D01*
X136658631Y-78577124D01*
X136654410Y-78506253D01*
X136689175Y-78444350D01*
X136751888Y-78411069D01*
X136777203Y-78408500D01*
X137476740Y-78408500D01*
X137544861Y-78428502D01*
G37*
%TD.AperFunction*%
%TA.AperFunction,NonConductor*%
G36*
X142134315Y-78428502D02*
G01*
X142180808Y-78482158D01*
X142192193Y-78533987D01*
X142195401Y-79321893D01*
X142195578Y-79365476D01*
X142175853Y-79433678D01*
X142122387Y-79480389D01*
X142069579Y-79491989D01*
X139894940Y-79491989D01*
X139826819Y-79471987D01*
X139780326Y-79418331D01*
X139770244Y-79347909D01*
X139781852Y-79267849D01*
X139795880Y-79171101D01*
X139797480Y-79110000D01*
X139777930Y-78897244D01*
X139771092Y-78872996D01*
X139721504Y-78697172D01*
X139721503Y-78697170D01*
X139719936Y-78691613D01*
X139715474Y-78682563D01*
X139669939Y-78590228D01*
X139657749Y-78520286D01*
X139685309Y-78454856D01*
X139743867Y-78414713D01*
X139782945Y-78408500D01*
X142066194Y-78408500D01*
X142134315Y-78428502D01*
G37*
%TD.AperFunction*%
%TA.AperFunction,NonConductor*%
G36*
X128344861Y-78428502D02*
G01*
X128391354Y-78482158D01*
X128401458Y-78552432D01*
X128388248Y-78593167D01*
X128351389Y-78663225D01*
X128349675Y-78668746D01*
X128349673Y-78668750D01*
X128335696Y-78713766D01*
X128288032Y-78867267D01*
X128262920Y-79079439D01*
X128276894Y-79292634D01*
X128324578Y-79480389D01*
X128325618Y-79484485D01*
X128323000Y-79555433D01*
X128282439Y-79613703D01*
X128216815Y-79640794D01*
X128203495Y-79641500D01*
X126429239Y-79641500D01*
X126361118Y-79621498D01*
X126340144Y-79604595D01*
X126164617Y-79429068D01*
X126130591Y-79366756D01*
X126129016Y-79321893D01*
X126134095Y-79286866D01*
X126150880Y-79171101D01*
X126152480Y-79110000D01*
X126132930Y-78897244D01*
X126126092Y-78872996D01*
X126076504Y-78697172D01*
X126076503Y-78697170D01*
X126074936Y-78691613D01*
X126070474Y-78682563D01*
X126024939Y-78590228D01*
X126012749Y-78520286D01*
X126040309Y-78454856D01*
X126098867Y-78414713D01*
X126137945Y-78408500D01*
X128276740Y-78408500D01*
X128344861Y-78428502D01*
G37*
%TD.AperFunction*%
%TA.AperFunction,NonConductor*%
G36*
X133099861Y-78428502D02*
G01*
X133146354Y-78482158D01*
X133156458Y-78552432D01*
X133143248Y-78593167D01*
X133106389Y-78663225D01*
X133104675Y-78668746D01*
X133104673Y-78668750D01*
X133090696Y-78713766D01*
X133043032Y-78867267D01*
X133017920Y-79079439D01*
X133031894Y-79292634D01*
X133079578Y-79480389D01*
X133080618Y-79484485D01*
X133078000Y-79555433D01*
X133037439Y-79613703D01*
X132971815Y-79640794D01*
X132958495Y-79641500D01*
X130653151Y-79641500D01*
X130585030Y-79621498D01*
X130538537Y-79567842D01*
X130528433Y-79497568D01*
X130533838Y-79474999D01*
X130563366Y-79388012D01*
X130563367Y-79388007D01*
X130565222Y-79382543D01*
X130578259Y-79292634D01*
X130584610Y-79248826D01*
X130595880Y-79171101D01*
X130597480Y-79110000D01*
X130577930Y-78897244D01*
X130571092Y-78872996D01*
X130521504Y-78697172D01*
X130521503Y-78697170D01*
X130519936Y-78691613D01*
X130515474Y-78682563D01*
X130469939Y-78590228D01*
X130457749Y-78520286D01*
X130485309Y-78454856D01*
X130543867Y-78414713D01*
X130582945Y-78408500D01*
X133031740Y-78408500D01*
X133099861Y-78428502D01*
G37*
%TD.AperFunction*%
%TA.AperFunction,NonConductor*%
G36*
X142139978Y-85724737D02*
G01*
X142196814Y-85767284D01*
X142221625Y-85833804D01*
X142221945Y-85842280D01*
X142227282Y-87153260D01*
X142207557Y-87221462D01*
X142154091Y-87268173D01*
X142083859Y-87278562D01*
X142019159Y-87249333D01*
X142001969Y-87230793D01*
X142001155Y-87229452D01*
X141993757Y-87221076D01*
X141993783Y-87221053D01*
X141991134Y-87218063D01*
X141988426Y-87214824D01*
X141984416Y-87208708D01*
X141979109Y-87203681D01*
X141979106Y-87203677D01*
X141928177Y-87155432D01*
X141925735Y-87153054D01*
X141705021Y-86932340D01*
X141601284Y-86850266D01*
X141594653Y-86847167D01*
X141594650Y-86847165D01*
X141447682Y-86778477D01*
X141447678Y-86778476D01*
X141441050Y-86775378D01*
X141359323Y-86758379D01*
X141296703Y-86724924D01*
X141262110Y-86662925D01*
X141258981Y-86635019D01*
X141258981Y-86553758D01*
X141278983Y-86485637D01*
X141295886Y-86464663D01*
X142006851Y-85753698D01*
X142069163Y-85719672D01*
X142139978Y-85724737D01*
G37*
%TD.AperFunction*%
%TA.AperFunction,NonConductor*%
G36*
X138525604Y-97817392D02*
G01*
X138578701Y-97864521D01*
X138597898Y-97931373D01*
X138597898Y-99244035D01*
X138577896Y-99312156D01*
X138570874Y-99321351D01*
X138569615Y-99322450D01*
X138471010Y-99462750D01*
X138413295Y-99610781D01*
X138369914Y-99666982D01*
X138295902Y-99691011D01*
X136738734Y-99691011D01*
X136670613Y-99671009D01*
X136624120Y-99617353D01*
X136614016Y-99547079D01*
X136643510Y-99482499D01*
X136649639Y-99475916D01*
X137276467Y-98849088D01*
X137338779Y-98815062D01*
X137351050Y-98813743D01*
X137350987Y-98813261D01*
X137350989Y-98813261D01*
X137383915Y-98808926D01*
X137402328Y-98807865D01*
X137458592Y-98808749D01*
X137517504Y-98809675D01*
X137517507Y-98809675D01*
X137525102Y-98809794D01*
X137532506Y-98808098D01*
X137532508Y-98808098D01*
X137623975Y-98787149D01*
X137692259Y-98771510D01*
X137845458Y-98694459D01*
X137851229Y-98689530D01*
X137851232Y-98689528D01*
X137970078Y-98588023D01*
X137975855Y-98583089D01*
X138075924Y-98443830D01*
X138139885Y-98284720D01*
X138149513Y-98217070D01*
X138163466Y-98119031D01*
X138163466Y-98119027D01*
X138164047Y-98114947D01*
X138164204Y-98100000D01*
X138158580Y-98053526D01*
X138146008Y-97949637D01*
X138157681Y-97879607D01*
X138205362Y-97827005D01*
X138271095Y-97808500D01*
X138351864Y-97808500D01*
X138368307Y-97809578D01*
X138400000Y-97813750D01*
X138408189Y-97812672D01*
X138439874Y-97808501D01*
X138439881Y-97808500D01*
X138439885Y-97808500D01*
X138455456Y-97806450D01*
X138525604Y-97817392D01*
G37*
%TD.AperFunction*%
%TA.AperFunction,NonConductor*%
G36*
X134609532Y-101620189D02*
G01*
X134666368Y-101662736D01*
X134691179Y-101729256D01*
X134691500Y-101738245D01*
X134691500Y-104932308D01*
X134676543Y-104991851D01*
X134675377Y-104994025D01*
X134671010Y-105000239D01*
X134608718Y-105160009D01*
X134605867Y-105158897D01*
X134576712Y-105207856D01*
X134513174Y-105239534D01*
X134491001Y-105241500D01*
X132408240Y-105241500D01*
X132340119Y-105221498D01*
X132293626Y-105167842D01*
X132290374Y-105160038D01*
X132235171Y-105013946D01*
X132235170Y-105013943D01*
X132232487Y-105006844D01*
X132228188Y-105000589D01*
X132224665Y-104993850D01*
X132227063Y-104992596D01*
X132208500Y-104932818D01*
X132208500Y-103969245D01*
X132228502Y-103901124D01*
X132245405Y-103880150D01*
X134476405Y-101649150D01*
X134538717Y-101615124D01*
X134609532Y-101620189D01*
G37*
%TD.AperFunction*%
M02*
