%TF.GenerationSoftware,KiCad,Pcbnew,(6.0.6)*%
%TF.CreationDate,2022-10-19T18:58:46+02:00*%
%TF.ProjectId,test,74657374-2e6b-4696-9361-645f70636258,rev?*%
%TF.SameCoordinates,Original*%
%TF.FileFunction,Legend,Bot*%
%TF.FilePolarity,Positive*%
%FSLAX46Y46*%
G04 Gerber Fmt 4.6, Leading zero omitted, Abs format (unit mm)*
G04 Created by KiCad (PCBNEW (6.0.6)) date 2022-10-19 18:58:46*
%MOMM*%
%LPD*%
G01*
G04 APERTURE LIST*
%ADD10C,0.150000*%
%ADD11C,0.127000*%
G04 APERTURE END LIST*
D10*
%TO.C,BATTERY1*%
X169661666Y-122539000D02*
X169461666Y-122605666D01*
X169395000Y-122672333D01*
X169328333Y-122805666D01*
X169328333Y-123005666D01*
X169395000Y-123139000D01*
X169461666Y-123205666D01*
X169595000Y-123272333D01*
X170128333Y-123272333D01*
X170128333Y-121872333D01*
X169661666Y-121872333D01*
X169528333Y-121939000D01*
X169461666Y-122005666D01*
X169395000Y-122139000D01*
X169395000Y-122272333D01*
X169461666Y-122405666D01*
X169528333Y-122472333D01*
X169661666Y-122539000D01*
X170128333Y-122539000D01*
X168795000Y-122872333D02*
X168128333Y-122872333D01*
X168928333Y-123272333D02*
X168461666Y-121872333D01*
X167995000Y-123272333D01*
X167728333Y-121872333D02*
X166928333Y-121872333D01*
X167328333Y-123272333D02*
X167328333Y-121872333D01*
X166661666Y-121872333D02*
X165861666Y-121872333D01*
X166261666Y-123272333D02*
X166261666Y-121872333D01*
X165395000Y-122539000D02*
X164928333Y-122539000D01*
X164728333Y-123272333D02*
X165395000Y-123272333D01*
X165395000Y-121872333D01*
X164728333Y-121872333D01*
X163328333Y-123272333D02*
X163795000Y-122605666D01*
X164128333Y-123272333D02*
X164128333Y-121872333D01*
X163595000Y-121872333D01*
X163461666Y-121939000D01*
X163395000Y-122005666D01*
X163328333Y-122139000D01*
X163328333Y-122339000D01*
X163395000Y-122472333D01*
X163461666Y-122539000D01*
X163595000Y-122605666D01*
X164128333Y-122605666D01*
X162461666Y-122605666D02*
X162461666Y-123272333D01*
X162928333Y-121872333D02*
X162461666Y-122605666D01*
X161995000Y-121872333D01*
X160795000Y-123272333D02*
X161595000Y-123272333D01*
X161195000Y-123272333D02*
X161195000Y-121872333D01*
X161328333Y-122072333D01*
X161461666Y-122205666D01*
X161595000Y-122272333D01*
D11*
X161000000Y-115120000D02*
X161000000Y-119800000D01*
X161000000Y-119800000D02*
X165550000Y-119800000D01*
X177550000Y-119800000D02*
X182100000Y-119800000D01*
X182100000Y-119800000D02*
X182100000Y-115120000D01*
X161000000Y-109380000D02*
X161000000Y-104300000D01*
X161000000Y-104300000D02*
X166050000Y-104300000D01*
X177050000Y-104300000D02*
X182100000Y-104300000D01*
X182100000Y-104300000D02*
X182100000Y-109380000D01*
%TD*%
M02*
