%TF.GenerationSoftware,KiCad,Pcbnew,6.0.4-6f826c9f35~116~ubuntu18.04.1*%
%TF.CreationDate,2022-08-05T10:58:23+02:00*%
%TF.ProjectId,test,74657374-2e6b-4696-9361-645f70636258,rev?*%
%TF.SameCoordinates,Original*%
%TF.FileFunction,Copper,L1,Top*%
%TF.FilePolarity,Positive*%
%FSLAX46Y46*%
G04 Gerber Fmt 4.6, Leading zero omitted, Abs format (unit mm)*
G04 Created by KiCad (PCBNEW 6.0.4-6f826c9f35~116~ubuntu18.04.1) date 2022-08-05 10:58:23*
%MOMM*%
%LPD*%
G01*
G04 APERTURE LIST*
G04 Aperture macros list*
%AMRoundRect*
0 Rectangle with rounded corners*
0 $1 Rounding radius*
0 $2 $3 $4 $5 $6 $7 $8 $9 X,Y pos of 4 corners*
0 Add a 4 corners polygon primitive as box body*
4,1,4,$2,$3,$4,$5,$6,$7,$8,$9,$2,$3,0*
0 Add four circle primitives for the rounded corners*
1,1,$1+$1,$2,$3*
1,1,$1+$1,$4,$5*
1,1,$1+$1,$6,$7*
1,1,$1+$1,$8,$9*
0 Add four rect primitives between the rounded corners*
20,1,$1+$1,$2,$3,$4,$5,0*
20,1,$1+$1,$4,$5,$6,$7,0*
20,1,$1+$1,$6,$7,$8,$9,0*
20,1,$1+$1,$8,$9,$2,$3,0*%
%AMOutline5P*
0 Free polygon, 5 corners , with rotation*
0 The origin of the aperture is its center*
0 number of corners: always 5*
0 $1 to $10 corner X, Y*
0 $11 Rotation angle, in degrees counterclockwise*
0 create outline with 5 corners*
4,1,5,$1,$2,$3,$4,$5,$6,$7,$8,$9,$10,$1,$2,$11*%
%AMOutline6P*
0 Free polygon, 6 corners , with rotation*
0 The origin of the aperture is its center*
0 number of corners: always 6*
0 $1 to $12 corner X, Y*
0 $13 Rotation angle, in degrees counterclockwise*
0 create outline with 6 corners*
4,1,6,$1,$2,$3,$4,$5,$6,$7,$8,$9,$10,$11,$12,$1,$2,$13*%
%AMOutline7P*
0 Free polygon, 7 corners , with rotation*
0 The origin of the aperture is its center*
0 number of corners: always 7*
0 $1 to $14 corner X, Y*
0 $15 Rotation angle, in degrees counterclockwise*
0 create outline with 7 corners*
4,1,7,$1,$2,$3,$4,$5,$6,$7,$8,$9,$10,$11,$12,$13,$14,$1,$2,$15*%
%AMOutline8P*
0 Free polygon, 8 corners , with rotation*
0 The origin of the aperture is its center*
0 number of corners: always 8*
0 $1 to $16 corner X, Y*
0 $17 Rotation angle, in degrees counterclockwise*
0 create outline with 8 corners*
4,1,8,$1,$2,$3,$4,$5,$6,$7,$8,$9,$10,$11,$12,$13,$14,$15,$16,$1,$2,$17*%
G04 Aperture macros list end*
%TA.AperFunction,NonConductor*%
%ADD10C,0.000000*%
%TD*%
%TA.AperFunction,SMDPad,CuDef*%
%ADD11R,0.635000X0.508000*%
%TD*%
%TA.AperFunction,SMDPad,CuDef*%
%ADD12Outline8P,-0.300000X0.075000X-0.225000X0.150000X0.225000X0.150000X0.300000X0.075000X0.300000X-0.075000X0.225000X-0.150000X-0.225000X-0.150000X-0.300000X-0.075000X90.000000*%
%TD*%
%TA.AperFunction,SMDPad,CuDef*%
%ADD13Outline8P,-0.300000X0.075000X-0.225000X0.150000X0.225000X0.150000X0.300000X0.075000X0.300000X-0.075000X0.225000X-0.150000X-0.225000X-0.150000X-0.300000X-0.075000X180.000000*%
%TD*%
%TA.AperFunction,SMDPad,CuDef*%
%ADD14R,5.600000X5.600000*%
%TD*%
%TA.AperFunction,ComponentPad*%
%ADD15C,0.400000*%
%TD*%
%TA.AperFunction,ComponentPad*%
%ADD16R,1.700000X1.700000*%
%TD*%
%TA.AperFunction,ComponentPad*%
%ADD17O,1.700000X1.700000*%
%TD*%
%TA.AperFunction,SMDPad,CuDef*%
%ADD18R,0.800000X1.000000*%
%TD*%
%TA.AperFunction,SMDPad,CuDef*%
%ADD19R,0.300000X0.650000*%
%TD*%
%TA.AperFunction,SMDPad,CuDef*%
%ADD20C,0.254000*%
%TD*%
%TA.AperFunction,SMDPad,CuDef*%
%ADD21R,2.000000X2.400000*%
%TD*%
%TA.AperFunction,SMDPad,CuDef*%
%ADD22R,1.270000X0.508000*%
%TD*%
%TA.AperFunction,SMDPad,CuDef*%
%ADD23R,1.000000X0.800000*%
%TD*%
%TA.AperFunction,SMDPad,CuDef*%
%ADD24R,1.270000X1.524000*%
%TD*%
%TA.AperFunction,SMDPad,CuDef*%
%ADD25R,0.508000X0.635000*%
%TD*%
%TA.AperFunction,ComponentPad*%
%ADD26C,1.800000*%
%TD*%
%TA.AperFunction,ComponentPad*%
%ADD27C,1.308000*%
%TD*%
%TA.AperFunction,SMDPad,CuDef*%
%ADD28R,1.250000X1.000000*%
%TD*%
%TA.AperFunction,ComponentPad*%
%ADD29C,1.100000*%
%TD*%
%TA.AperFunction,SMDPad,CuDef*%
%ADD30R,0.700000X1.100000*%
%TD*%
%TA.AperFunction,SMDPad,CuDef*%
%ADD31RoundRect,0.125000X-0.875000X0.125000X-0.875000X-0.125000X0.875000X-0.125000X0.875000X0.125000X0*%
%TD*%
%TA.AperFunction,SMDPad,CuDef*%
%ADD32RoundRect,0.125000X-0.125000X0.175000X-0.125000X-0.175000X0.125000X-0.175000X0.125000X0.175000X0*%
%TD*%
%TA.AperFunction,SMDPad,CuDef*%
%ADD33R,2.200000X0.500000*%
%TD*%
%TA.AperFunction,SMDPad,CuDef*%
%ADD34R,1.700000X1.300000*%
%TD*%
%TA.AperFunction,ComponentPad*%
%ADD35C,2.850000*%
%TD*%
%TA.AperFunction,SMDPad,CuDef*%
%ADD36R,0.800000X0.500000*%
%TD*%
%TA.AperFunction,SMDPad,CuDef*%
%ADD37R,0.280000X0.550000*%
%TD*%
%TA.AperFunction,SMDPad,CuDef*%
%ADD38R,0.400000X0.600000*%
%TD*%
%TA.AperFunction,SMDPad,CuDef*%
%ADD39R,0.750000X0.850000*%
%TD*%
%TA.AperFunction,ViaPad*%
%ADD40C,0.400000*%
%TD*%
%TA.AperFunction,Conductor*%
%ADD41C,0.500000*%
%TD*%
%TA.AperFunction,Conductor*%
%ADD42C,0.300000*%
%TD*%
%TA.AperFunction,Conductor*%
%ADD43C,0.250000*%
%TD*%
%TA.AperFunction,Conductor*%
%ADD44C,0.200000*%
%TD*%
%TA.AperFunction,Conductor*%
%ADD45C,0.150000*%
%TD*%
G04 APERTURE END LIST*
D10*
G36*
X126862000Y-85799999D02*
G01*
X126499999Y-85799999D01*
X126000000Y-85300000D01*
X126499999Y-84800001D01*
X126862000Y-84800001D01*
X126862000Y-85799999D01*
G37*
G36*
X128402155Y-100265001D02*
G01*
X127902156Y-100765000D01*
X127402157Y-100265001D01*
X127402157Y-99903000D01*
X128402155Y-99903000D01*
X128402155Y-100265001D01*
G37*
G36*
X128402155Y-101300000D02*
G01*
X127402157Y-101300000D01*
X127402157Y-100515001D01*
X127902156Y-101015000D01*
X128402155Y-100515001D01*
X128402155Y-101300000D01*
G37*
G36*
X141350000Y-94207500D02*
G01*
X140850001Y-94707499D01*
X140350002Y-94207500D01*
X140350002Y-93845499D01*
X141350000Y-93845499D01*
X141350000Y-94207500D01*
G37*
G36*
X128229500Y-93267499D02*
G01*
X127867499Y-93267499D01*
X127367500Y-92767500D01*
X127867499Y-92267501D01*
X128229500Y-92267501D01*
X128229500Y-93267499D01*
G37*
G36*
X141350000Y-95242499D02*
G01*
X140350002Y-95242499D01*
X140350002Y-94457500D01*
X140850001Y-94957499D01*
X141350000Y-94457500D01*
X141350000Y-95242499D01*
G37*
G36*
X127117501Y-92767500D02*
G01*
X127617500Y-93267499D01*
X126832500Y-93267499D01*
X126832500Y-92267501D01*
X127617500Y-92267501D01*
X127117501Y-92767500D01*
G37*
G36*
X125750001Y-85300000D02*
G01*
X126250000Y-85799999D01*
X125465000Y-85799999D01*
X125465000Y-84800001D01*
X126250000Y-84800001D01*
X125750001Y-85300000D01*
G37*
D11*
%TO.P,C20,1,1*%
%TO.N,GND*%
X129202056Y-97000000D03*
%TO.P,C20,2,2*%
%TO.N,3V3*%
X130400001Y-97000000D03*
%TD*%
D12*
%TO.P,U1,1,VBAT*%
%TO.N,3V3*%
X132253686Y-96498398D03*
%TO.P,U1,2,PC14-OSC32_IN*%
%TO.N,Net-(C17-Pad1)*%
X132760797Y-96498398D03*
%TO.P,U1,3,PC15-OSC32_OUT*%
%TO.N,Net-(C18-Pad1)*%
X133260798Y-96498398D03*
%TO.P,U1,4,PH3-BOOT0*%
%TO.N,BOOT0*%
X133760797Y-96498398D03*
%TO.P,U1,5,PB8*%
%TO.N,Net-(FIXATION_ECRAN1-Pad3)*%
X134260799Y-96498398D03*
%TO.P,U1,6,PB9*%
%TO.N,Net-(FIXATION_ECRAN1-Pad4)*%
X134760798Y-96498398D03*
%TO.P,U1,7,NRST*%
%TO.N,Net-(C12-Pad1)*%
X135260797Y-96498398D03*
%TO.P,U1,8,VDDA/VREF+*%
%TO.N,Net-(C22-Pad1)*%
X135760798Y-96498398D03*
%TO.P,U1,9,PA0*%
%TO.N,PA0*%
X136260797Y-96498398D03*
%TO.P,U1,10,PA1*%
%TO.N,PA1*%
X136760799Y-96498398D03*
%TO.P,U1,11,PA2*%
%TO.N,PA2*%
X137260798Y-96498398D03*
%TO.P,U1,12,PA3*%
%TO.N,PA3*%
X137760797Y-96498398D03*
D13*
%TO.P,U1,13,PA4*%
%TO.N,PA4*%
X138398799Y-95851597D03*
%TO.P,U1,14,PA5*%
%TO.N,PA5*%
X138398799Y-95351598D03*
%TO.P,U1,15,PA6*%
%TO.N,PA6*%
X138398799Y-94851599D03*
%TO.P,U1,16,PA7*%
%TO.N,PA7*%
X138398799Y-94351598D03*
%TO.P,U1,17,PA8*%
%TO.N,PA8*%
X138398799Y-93851599D03*
%TO.P,U1,18,PA9*%
%TO.N,PA9*%
X138398799Y-93351597D03*
%TO.P,U1,19,PB2*%
%TO.N,PB2*%
X138398799Y-92851598D03*
%TO.P,U1,20,VDD/VDDT*%
%TO.N,Net-(C19-Pad1)*%
X138398799Y-92351599D03*
%TO.P,U1,21,RF1*%
%TO.N,Net-(C30-Pad2)*%
X138398799Y-91851598D03*
%TO.P,U1,22,RF0*%
%TO.N,GND*%
X138398799Y-91351599D03*
%TO.P,U1,23,VDDRF*%
%TO.N,3V3*%
X138398799Y-90851597D03*
%TO.P,U1,24,OSC_OUT*%
%TO.N,Net-(U1-Pad24)*%
X138398799Y-90351598D03*
D12*
%TO.P,U1,25,OSC_IN*%
%TO.N,Net-(U1-Pad25)*%
X137760797Y-89701597D03*
%TO.P,U1,26,AT0*%
%TO.N,unconnected-(U1-Pad26)*%
X137260798Y-89701597D03*
%TO.P,U1,27,AT1*%
%TO.N,unconnected-(U1-Pad27)*%
X136760799Y-89701597D03*
%TO.P,U1,28,PB0*%
%TO.N,unconnected-(U1-Pad28)*%
X136260797Y-89701597D03*
%TO.P,U1,29,PB1*%
%TO.N,unconnected-(U1-Pad29)*%
X135760798Y-89701597D03*
%TO.P,U1,30,PE4*%
%TO.N,unconnected-(U1-Pad30)*%
X135260797Y-89701597D03*
%TO.P,U1,31,VFBSMPS*%
%TO.N,Net-(C10-Pad1)*%
X134760798Y-89701597D03*
%TO.P,U1,32,VSSSMPS*%
%TO.N,GND*%
X134260799Y-89701597D03*
%TO.P,U1,33,VLXSMPS*%
%TO.N,Net-(L2-Pad2)*%
X133760797Y-89701597D03*
%TO.P,U1,34,VDDSMPS*%
%TO.N,3V3*%
X133260798Y-89701597D03*
%TO.P,U1,35,VDD*%
X132760797Y-89701597D03*
%TO.P,U1,36,PA10*%
%TO.N,unconnected-(U1-Pad36)*%
X132260798Y-89701597D03*
D13*
%TO.P,U1,37,PA11*%
%TO.N,/USB_N*%
X131601198Y-90351598D03*
%TO.P,U1,38,PA12*%
%TO.N,/USB_P*%
X131601198Y-90851597D03*
%TO.P,U1,39,PA13-SWDIO*%
%TO.N,unconnected-(U1-Pad39)*%
X131601198Y-91351599D03*
%TO.P,U1,40,VDDUSB*%
%TO.N,3V3*%
X131601198Y-91851598D03*
%TO.P,U1,41,PA14-SWCLK*%
%TO.N,unconnected-(U1-Pad41)*%
X131601198Y-92351599D03*
%TO.P,U1,42,PA15*%
%TO.N,unconnected-(U1-Pad42)*%
X131601198Y-92851598D03*
%TO.P,U1,43,PB3-SWO*%
%TO.N,unconnected-(U1-Pad43)*%
X131601198Y-93351597D03*
%TO.P,U1,44,PB4*%
%TO.N,unconnected-(U1-Pad44)*%
X131601198Y-93851599D03*
%TO.P,U1,45,PB5*%
%TO.N,unconnected-(U1-Pad45)*%
X131601198Y-94351598D03*
%TO.P,U1,46,PB6*%
%TO.N,unconnected-(U1-Pad46)*%
X131601198Y-94851599D03*
%TO.P,U1,47,PB7*%
%TO.N,Net-(FIXATION_ECRAN1-Pad2)*%
X131601198Y-95351598D03*
%TO.P,U1,48,VDD*%
%TO.N,3V3*%
X131601198Y-95851597D03*
D14*
%TO.P,U1,49,VSS_(ExPAD)*%
%TO.N,GND*%
X135000000Y-93100000D03*
%TD*%
D15*
%TO.P,,2*%
%TO.N,3V3*%
X130150000Y-97000000D03*
%TD*%
D16*
%TO.P,FIXATION_ECRAN1,1,1*%
%TO.N,GND*%
X131300000Y-83900000D03*
D17*
%TO.P,FIXATION_ECRAN1,2,2*%
%TO.N,Net-(FIXATION_ECRAN1-Pad2)*%
X133840000Y-83900000D03*
%TO.P,FIXATION_ECRAN1,3,3*%
%TO.N,Net-(FIXATION_ECRAN1-Pad3)*%
X136380000Y-83900000D03*
%TO.P,FIXATION_ECRAN1,4,4*%
%TO.N,Net-(FIXATION_ECRAN1-Pad4)*%
X138920000Y-83900000D03*
%TD*%
D18*
%TO.P,L3,1,1*%
%TO.N,3V3*%
X133957398Y-99300000D03*
%TO.P,L3,2,2*%
%TO.N,Net-(C22-Pad1)*%
X135760798Y-99300000D03*
%TD*%
D15*
%TO.P,,1*%
%TO.N,GND*%
X120200000Y-94250000D03*
%TD*%
D19*
%TO.P,D4,A,A*%
%TO.N,Net-(C12-Pad1)*%
X138500000Y-97425000D03*
%TO.P,D4,K,K*%
%TO.N,NRST*%
X138500000Y-98775000D03*
%TD*%
D11*
%TO.P,C28,1,1*%
%TO.N,Net-(C28-Pad1)*%
X146098972Y-94100000D03*
%TO.P,C28,2,2*%
%TO.N,GND*%
X144901027Y-94100000D03*
%TD*%
D15*
%TO.P,,1*%
%TO.N,GND*%
X130050000Y-92700000D03*
%TD*%
%TO.P,,1*%
%TO.N,GND*%
X132400000Y-95700000D03*
%TD*%
D20*
%TO.P,SB3,1,1*%
%TO.N,3V3*%
X127900000Y-100200001D03*
%TO.P,SB3,2,2*%
%TO.N,BOOT0*%
X127900000Y-101208000D03*
%TD*%
D11*
%TO.P,R2,1,1*%
%TO.N,BOOT0*%
X130435000Y-100100000D03*
%TO.P,R2,2,2*%
%TO.N,GND*%
X129165000Y-100100000D03*
%TD*%
D21*
%TO.P,BUZZER1,N*%
%TO.N,GND*%
X145300000Y-101650000D03*
%TO.P,BUZZER1,P*%
%TO.N,PB2*%
X141300000Y-101650000D03*
%TD*%
D15*
%TO.P,,1*%
%TO.N,GND*%
X121050000Y-95300000D03*
%TD*%
D22*
%TO.P,U2,1,1*%
%TO.N,/USB_N*%
X121969200Y-92362850D03*
%TO.P,U2,2,2*%
%TO.N,GND*%
X121969200Y-91412849D03*
%TO.P,U2,3,3*%
%TO.N,/USB_P*%
X121969200Y-90462851D03*
%TO.P,U2,4,4*%
%TO.N,Net-(U2-Pad4)*%
X119669200Y-90462851D03*
%TO.P,U2,5,5*%
%TO.N,5V_USB*%
X119669200Y-91412849D03*
%TO.P,U2,6,6*%
%TO.N,Net-(U2-Pad6)*%
X119669200Y-92362850D03*
%TD*%
D23*
%TO.P,C26,1,1*%
%TO.N,GND*%
X127200000Y-96301700D03*
%TO.P,C26,2,2*%
%TO.N,Net-(C26-Pad2)*%
X127200000Y-94498300D03*
%TD*%
D15*
%TO.P,,1*%
%TO.N,GND*%
X124600000Y-89250000D03*
%TD*%
%TO.P,,1*%
%TO.N,GND*%
X122700000Y-91300000D03*
%TD*%
D11*
%TO.P,C18,1,1*%
%TO.N,Net-(C18-Pad1)*%
X130400000Y-99000000D03*
%TO.P,C18,2,2*%
%TO.N,GND*%
X129202055Y-99000000D03*
%TD*%
%TO.P,C19,1,1*%
%TO.N,Net-(C19-Pad1)*%
X140001028Y-92900000D03*
%TO.P,C19,2,2*%
%TO.N,GND*%
X141198973Y-92900000D03*
%TD*%
D15*
%TO.P,,1*%
%TO.N,GND*%
X134350000Y-86850000D03*
%TD*%
%TO.P,,1*%
%TO.N,GND*%
X133250000Y-100400000D03*
%TD*%
%TO.P,,1*%
%TO.N,GND*%
X142600000Y-92900000D03*
%TD*%
%TO.P,,1*%
%TO.N,GND*%
X137650000Y-90400000D03*
%TD*%
D11*
%TO.P,C7,1,1*%
%TO.N,GND*%
X151848972Y-90798975D03*
%TO.P,C7,2,2*%
%TO.N,/ANT*%
X150651027Y-90798975D03*
%TD*%
D15*
%TO.P,,1*%
%TO.N,GND*%
X144350000Y-97600000D03*
%TD*%
%TO.P,,1*%
%TO.N,GND*%
X144200000Y-91350000D03*
%TD*%
D24*
%TO.P,L2,1,1*%
%TO.N,Net-(C10-Pad1)*%
X127960797Y-85257000D03*
%TO.P,L2,2,2*%
%TO.N,Net-(L2-Pad2)*%
X127960797Y-87543000D03*
%TD*%
D25*
%TO.P,C8,1,1*%
%TO.N,Net-(C4-Pad1)*%
X146000000Y-91850000D03*
%TO.P,C8,2,2*%
%TO.N,Net-(C28-Pad1)*%
X146000000Y-93047945D03*
%TD*%
D15*
%TO.P,,1*%
%TO.N,GND*%
X136243811Y-92969054D03*
%TD*%
D26*
%TO.P,BUTTON3,GND1*%
%TO.N,GND*%
X130700000Y-81650000D03*
%TO.P,BUTTON3,GND2*%
X123715000Y-81650000D03*
D27*
%TO.P,BUTTON3,P$1*%
%TO.N,3V3*%
X129430000Y-79110000D03*
%TO.P,BUTTON3,P$2*%
%TO.N,PA9*%
X124985000Y-79110000D03*
%TD*%
D15*
%TO.P,,1*%
%TO.N,GND*%
X142300000Y-99050000D03*
%TD*%
%TO.P,,1*%
%TO.N,GND*%
X129350000Y-99550000D03*
%TD*%
%TO.P,,1*%
%TO.N,GND*%
X142150000Y-90450000D03*
%TD*%
D28*
%TO.P,X2,1,OSC1*%
%TO.N,Net-(C17-Pad1)*%
X131800000Y-97650000D03*
%TO.P,X2,2,OSC2*%
%TO.N,Net-(C18-Pad1)*%
X131800000Y-99150000D03*
%TD*%
D15*
%TO.P,,1*%
%TO.N,GND*%
X132350000Y-90450000D03*
%TD*%
D22*
%TO.P,U3,1,VIN*%
%TO.N,5V_USB*%
X121930000Y-94447500D03*
%TO.P,U3,2,VSS*%
%TO.N,GND*%
X121930000Y-95387300D03*
%TO.P,U3,3,CE*%
%TO.N,5V_USB*%
X121930000Y-96352500D03*
%TO.P,U3,4,BYPASS*%
%TO.N,Net-(C25-Pad2)*%
X124470000Y-96352500D03*
%TO.P,U3,5,VOUT*%
%TO.N,Net-(C26-Pad2)*%
X124470000Y-94447500D03*
%TD*%
D15*
%TO.P,,1*%
%TO.N,GND*%
X132400000Y-92850000D03*
%TD*%
D25*
%TO.P,C6,1,1*%
%TO.N,Net-(C4-Pad2)*%
X148400000Y-91850000D03*
%TO.P,C6,2,2*%
%TO.N,GND*%
X148400000Y-93047945D03*
%TD*%
D15*
%TO.P,,1*%
%TO.N,GND*%
X136500000Y-101900000D03*
%TD*%
D11*
%TO.P,C4,1,1*%
%TO.N,Net-(C4-Pad1)*%
X146151028Y-91850000D03*
%TO.P,C4,2,2*%
%TO.N,Net-(C4-Pad2)*%
X147348973Y-91850000D03*
%TD*%
D15*
%TO.P,,1*%
%TO.N,GND*%
X125550000Y-92800000D03*
%TD*%
D11*
%TO.P,L6,1,1*%
%TO.N,Net-(C30-Pad2)*%
X140701030Y-91850000D03*
%TO.P,L6,2,2*%
%TO.N,Net-(C3-Pad2)*%
X141898975Y-91850000D03*
%TD*%
D15*
%TO.P,,1*%
%TO.N,GND*%
X142100000Y-95200000D03*
%TD*%
%TO.P,,1*%
%TO.N,GND*%
X139550000Y-90950000D03*
%TD*%
D23*
%TO.P,C23,1,1*%
%TO.N,GND*%
X119400000Y-94498300D03*
%TO.P,C23,2,2*%
%TO.N,5V_USB*%
X119400000Y-96301700D03*
%TD*%
D15*
%TO.P,,1*%
%TO.N,GND*%
X130300000Y-101900000D03*
%TD*%
D26*
%TO.P,BUTTON2,GND1*%
%TO.N,GND*%
X139900000Y-81650000D03*
%TO.P,BUTTON2,GND2*%
X132915000Y-81650000D03*
D27*
%TO.P,BUTTON2,P$1*%
%TO.N,3V3*%
X138630000Y-79110000D03*
%TO.P,BUTTON2,P$2*%
%TO.N,PA8*%
X134185000Y-79110000D03*
%TD*%
D15*
%TO.P,,1*%
%TO.N,GND*%
X134150000Y-88250000D03*
%TD*%
D11*
%TO.P,C16,1,1*%
%TO.N,3V3*%
X125598972Y-88900000D03*
%TO.P,C16,2,2*%
%TO.N,GND*%
X124401027Y-88900000D03*
%TD*%
D26*
%TO.P,BUTTON1,GND1*%
%TO.N,N/C*%
X149100000Y-81650000D03*
%TO.P,BUTTON1,GND2*%
%TO.N,GND*%
X142115000Y-81650000D03*
D27*
%TO.P,BUTTON1,P$1*%
%TO.N,3V3*%
X147830000Y-79110000D03*
%TO.P,BUTTON1,P$2*%
%TO.N,PA7*%
X143385000Y-79110000D03*
%TD*%
D15*
%TO.P,,1*%
%TO.N,GND*%
X138900000Y-88300000D03*
%TD*%
D20*
%TO.P,SB1,1,1*%
%TO.N,Net-(C10-Pad1)*%
X126599999Y-85300000D03*
%TO.P,SB1,2,2*%
%TO.N,3V3*%
X125592000Y-85300000D03*
%TD*%
D15*
%TO.P,,1*%
%TO.N,GND*%
X125100000Y-95350000D03*
%TD*%
D25*
%TO.P,R1,1,1*%
%TO.N,3V3*%
X140550000Y-98235000D03*
%TO.P,R1,2,2*%
%TO.N,Net-(C12-Pad1)*%
X140550000Y-96965000D03*
%TD*%
D15*
%TO.P,,3*%
%TO.N,3V3*%
X129000000Y-91850000D03*
%TD*%
D11*
%TO.P,C22,1,1*%
%TO.N,Net-(C22-Pad1)*%
X135760798Y-98100000D03*
%TO.P,C22,2,2*%
%TO.N,GND*%
X134562853Y-98100000D03*
%TD*%
%TO.P,C29,1,1*%
%TO.N,Net-(C29-Pad1)*%
X146000000Y-97600000D03*
%TO.P,C29,2,2*%
%TO.N,GND*%
X144802055Y-97600000D03*
%TD*%
D15*
%TO.P,,1*%
%TO.N,GND*%
X123000000Y-89450000D03*
%TD*%
D25*
%TO.P,C30,1,1*%
%TO.N,GND*%
X139650000Y-90652055D03*
%TO.P,C30,2,2*%
%TO.N,Net-(C30-Pad2)*%
X139650000Y-91850000D03*
%TD*%
D11*
%TO.P,L1,1,1*%
%TO.N,Net-(C4-Pad2)*%
X149401030Y-91850000D03*
%TO.P,L1,2,2*%
%TO.N,/ANT*%
X150598975Y-91850000D03*
%TD*%
D23*
%TO.P,SW2,0*%
%TO.N,N/C*%
X118700000Y-99702600D03*
X118700000Y-102002601D03*
X126200000Y-102002601D03*
X126200000Y-99702600D03*
D29*
X123950000Y-100852601D03*
X120950001Y-100852601D03*
D30*
%TO.P,SW2,1,1*%
%TO.N,unconnected-(SW2-Pad1)*%
X120200000Y-98802600D03*
%TO.P,SW2,2,2*%
%TO.N,3V3*%
X123200001Y-98802600D03*
%TO.P,SW2,3,3*%
%TO.N,BOOT0*%
X124700001Y-98802600D03*
%TD*%
D25*
%TO.P,C25,1,1*%
%TO.N,GND*%
X125700000Y-95101028D03*
%TO.P,C25,2,2*%
%TO.N,Net-(C25-Pad2)*%
X125700000Y-96298973D03*
%TD*%
%TO.P,L4,1,1*%
%TO.N,Net-(C28-Pad1)*%
X146000000Y-95251030D03*
%TO.P,L4,2,2*%
%TO.N,Net-(C29-Pad1)*%
X146000000Y-96448975D03*
%TD*%
D15*
%TO.P,,1*%
%TO.N,3V3*%
X130150000Y-96000000D03*
%TD*%
%TO.P,,1*%
%TO.N,GND*%
X128650000Y-96800000D03*
%TD*%
%TO.P,,4*%
%TO.N,3V3*%
X141200000Y-87500000D03*
%TD*%
%TO.P,,1*%
%TO.N,GND*%
X144200000Y-92350000D03*
%TD*%
%TO.P,,1*%
%TO.N,GND*%
X145050000Y-93750000D03*
%TD*%
D25*
%TO.P,C9,1,1*%
%TO.N,3V3*%
X126600000Y-88198972D03*
%TO.P,C9,2,2*%
%TO.N,GND*%
X126600000Y-87001027D03*
%TD*%
D15*
%TO.P,,1*%
%TO.N,GND*%
X137600000Y-95700000D03*
%TD*%
%TO.P,,1*%
%TO.N,GND*%
X134500000Y-90550000D03*
%TD*%
D31*
%TO.P,CN5,1,X*%
%TO.N,Net-(C29-Pad1)*%
X147914200Y-99100000D03*
D32*
%TO.P,CN5,2,Y*%
%TO.N,GND*%
X150022400Y-99100000D03*
D33*
X148600000Y-100575001D03*
X148600000Y-97624999D03*
%TD*%
D11*
%TO.P,C15,1,1*%
%TO.N,3V3*%
X130400000Y-96000000D03*
%TO.P,C15,2,2*%
%TO.N,GND*%
X129202055Y-96000000D03*
%TD*%
D15*
%TO.P,,1*%
%TO.N,GND*%
X142200000Y-93600000D03*
%TD*%
%TO.P,,1*%
%TO.N,GND*%
X136300000Y-90450000D03*
%TD*%
D25*
%TO.P,C3,1,1*%
%TO.N,GND*%
X142900000Y-93047945D03*
%TO.P,C3,2,2*%
%TO.N,Net-(C3-Pad2)*%
X142900000Y-91850000D03*
%TD*%
D20*
%TO.P,SB5,1,1*%
%TO.N,Net-(C19-Pad1)*%
X140850001Y-94100001D03*
%TO.P,SB5,2,2*%
%TO.N,3V3*%
X140850001Y-95108000D03*
%TD*%
D15*
%TO.P,,1*%
%TO.N,GND*%
X150400000Y-99100000D03*
%TD*%
%TO.P,,1*%
%TO.N,GND*%
X136200000Y-87500000D03*
%TD*%
%TO.P,,1*%
%TO.N,GND*%
X134300000Y-92900000D03*
%TD*%
D11*
%TO.P,C10,1,1*%
%TO.N,Net-(C10-Pad1)*%
X129501028Y-86900000D03*
%TO.P,C10,2,2*%
%TO.N,GND*%
X130698973Y-86900000D03*
%TD*%
%TO.P,C27,1,1*%
%TO.N,GND*%
X125598972Y-93400000D03*
%TO.P,C27,2,2*%
%TO.N,Net-(C26-Pad2)*%
X124401027Y-93400000D03*
%TD*%
D25*
%TO.P,C12,1,1*%
%TO.N,Net-(C12-Pad1)*%
X139400000Y-97401028D03*
%TO.P,C12,2,2*%
%TO.N,GND*%
X139400000Y-98598973D03*
%TD*%
%TO.P,C21,1,1*%
%TO.N,GND*%
X130100000Y-93049543D03*
%TO.P,C21,2,2*%
%TO.N,3V3*%
X130100000Y-91851598D03*
%TD*%
D34*
%TO.P,USB1,1,VBUS*%
%TO.N,5V_USB*%
X117550000Y-96300000D03*
%TO.P,USB1,2,D-*%
%TO.N,Net-(U2-Pad6)*%
X117550000Y-93800000D03*
%TO.P,USB1,3,D+*%
%TO.N,Net-(U2-Pad4)*%
X117550000Y-91800000D03*
%TO.P,USB1,4,GND*%
%TO.N,GND*%
X117550000Y-89300000D03*
D35*
%TO.P,USB1,SHELL,SHIELD*%
X115200000Y-90550000D03*
%TO.P,USB1,SHELL1,SHIELD*%
X115200000Y-95050000D03*
%TD*%
D15*
%TO.P,,1*%
%TO.N,GND*%
X132000000Y-100600000D03*
%TD*%
D36*
%TO.P,OXYMETER1,1*%
%TO.N,PA4*%
X135260000Y-104400000D03*
%TO.P,OXYMETER1,2*%
%TO.N,GND*%
X134040000Y-104400000D03*
%TO.P,OXYMETER1,3*%
X132812000Y-104400000D03*
%TO.P,OXYMETER1,4*%
%TO.N,PA2*%
X131588000Y-104400000D03*
%TO.P,OXYMETER1,5*%
%TO.N,PA1*%
X130360000Y-104400000D03*
%TO.P,OXYMETER1,6*%
%TO.N,PA5*%
X129140000Y-104400000D03*
%TO.P,OXYMETER1,7*%
%TO.N,PA6*%
X129140000Y-102600000D03*
%TO.P,OXYMETER1,8*%
%TO.N,GND*%
X130360000Y-102600000D03*
%TO.P,OXYMETER1,9*%
%TO.N,PA0*%
X131588000Y-102600000D03*
%TO.P,OXYMETER1,10*%
%TO.N,GND*%
X132812000Y-102600000D03*
%TO.P,OXYMETER1,11*%
X134040000Y-102600000D03*
%TO.P,OXYMETER1,12*%
%TO.N,PA3*%
X135260000Y-102600000D03*
%TD*%
D11*
%TO.P,C17,1,1*%
%TO.N,Net-(C17-Pad1)*%
X130400000Y-98000000D03*
%TO.P,C17,2,2*%
%TO.N,GND*%
X129202055Y-98000000D03*
%TD*%
D15*
%TO.P,,1*%
%TO.N,GND*%
X128650000Y-96000000D03*
%TD*%
D20*
%TO.P,SB4,1,1*%
%TO.N,3V3*%
X127932499Y-92767500D03*
%TO.P,SB4,2,2*%
%TO.N,Net-(C26-Pad2)*%
X126924500Y-92767500D03*
%TD*%
D16*
%TO.P,CONNECTEUR_NRST1,1,Pin_1*%
%TO.N,NRST*%
X138150000Y-102000000D03*
%TD*%
D37*
%TO.P,FLT1,1,I/O*%
%TO.N,Net-(C3-Pad2)*%
X143640001Y-91850000D03*
D38*
%TO.P,FLT1,2,GND*%
%TO.N,GND*%
X144200000Y-91849998D03*
D37*
%TO.P,FLT1,3,I/O*%
%TO.N,Net-(C4-Pad1)*%
X144759999Y-91850000D03*
%TD*%
D15*
%TO.P,,1*%
%TO.N,GND*%
X128000000Y-91600000D03*
%TD*%
D25*
%TO.P,C24,1,1*%
%TO.N,GND*%
X120600000Y-95101028D03*
%TO.P,C24,2,2*%
%TO.N,5V_USB*%
X120600000Y-96298973D03*
%TD*%
D15*
%TO.P,,1*%
%TO.N,GND*%
X138850000Y-91350000D03*
%TD*%
%TO.P,,1*%
%TO.N,GND*%
X137600000Y-86850000D03*
%TD*%
%TO.P,,1*%
%TO.N,GND*%
X137450000Y-93100000D03*
%TD*%
%TO.P,,1*%
%TO.N,GND*%
X134900000Y-98400000D03*
%TD*%
D11*
%TO.P,C1,1,1*%
%TO.N,GND*%
X140798972Y-89500000D03*
%TO.P,C1,2,2*%
%TO.N,3V3*%
X139601027Y-89500000D03*
%TD*%
D15*
%TO.P,,1*%
%TO.N,GND*%
X123450000Y-97250000D03*
%TD*%
D11*
%TO.P,C2,1,1*%
%TO.N,GND*%
X139651028Y-87350000D03*
%TO.P,C2,2,2*%
%TO.N,3V3*%
X140848973Y-87350000D03*
%TD*%
D15*
%TO.P,,1*%
%TO.N,GND*%
X131100000Y-86800000D03*
%TD*%
%TO.P,,1*%
%TO.N,GND*%
X148050000Y-93000000D03*
%TD*%
D39*
%TO.P,X1,1,OSC1*%
%TO.N,Net-(U1-Pad25)*%
X136129801Y-86583400D03*
%TO.P,X1,2,2*%
%TO.N,GND*%
X136129801Y-87933400D03*
%TO.P,X1,3,OSC2*%
%TO.N,Net-(U1-Pad24)*%
X137179801Y-87933400D03*
%TO.P,X1,4,4*%
%TO.N,GND*%
X137179801Y-86583400D03*
%TD*%
D15*
%TO.P,,1*%
%TO.N,GND*%
X126350000Y-86650000D03*
%TD*%
D40*
%TO.N,3V3*%
X133700000Y-98150000D03*
X124900000Y-84750000D03*
X127900000Y-99350000D03*
X128900000Y-92767500D03*
X141050000Y-95400000D03*
%TO.N,Net-(FIXATION_ECRAN1-Pad2)*%
X130876014Y-95379292D03*
X134500000Y-85600000D03*
%TO.N,Net-(FIXATION_ECRAN1-Pad3)*%
X134160298Y-97455658D03*
X135100000Y-85300000D03*
%TO.N,Net-(FIXATION_ECRAN1-Pad4)*%
X135800000Y-85500000D03*
X134686113Y-97160891D03*
%TO.N,Net-(C12-Pad1)*%
X135211298Y-97450000D03*
X138570000Y-97030000D03*
%TO.N,PA1*%
X130400000Y-105337500D03*
X137000000Y-97700000D03*
%TO.N,PA2*%
X137450500Y-98100000D03*
X131600000Y-105337500D03*
%TO.N,PA4*%
X135300000Y-105337500D03*
X139605918Y-96599473D03*
%TO.N,PA5*%
X129200000Y-105337500D03*
X139604924Y-95911527D03*
%TO.N,PA6*%
X139604924Y-95312024D03*
X129150000Y-101800000D03*
%TO.N,PA7*%
X139834246Y-94758118D03*
%TO.N,PA8*%
X139554540Y-94163937D03*
%TO.N,PA9*%
X139562625Y-93534767D03*
%TO.N,PB2*%
X139100000Y-99800011D03*
X138900000Y-92851099D03*
%TO.N,/USB_P*%
X123600000Y-92050000D03*
X123600000Y-90400000D03*
%TD*%
D41*
%TO.N,Net-(C26-Pad2)*%
X126800000Y-92767500D02*
X126400000Y-92767500D01*
X126365983Y-92800000D02*
X126365983Y-94150000D01*
X124400000Y-94377500D02*
X124400000Y-93401027D01*
X124470000Y-94447500D02*
X124400000Y-94377500D01*
X124400000Y-93401027D02*
X124401027Y-93400000D01*
D42*
%TO.N,3V3*%
X125598972Y-88898972D02*
X125600000Y-88897944D01*
D43*
X139023319Y-90561018D02*
X139023319Y-90077708D01*
D41*
X124900000Y-86500000D02*
X124900000Y-85500000D01*
D43*
X138424278Y-90826118D02*
X138758219Y-90826118D01*
D41*
X124900000Y-85500000D02*
X124900000Y-84750000D01*
X141150000Y-80250000D02*
X130570000Y-80250000D01*
X139601027Y-89399462D02*
X140850000Y-88150489D01*
X143600000Y-80700000D02*
X143150000Y-80250000D01*
X125600000Y-87200000D02*
X124900000Y-86500000D01*
X130570000Y-80250000D02*
X129430000Y-79110000D01*
X133700000Y-99042602D02*
X133957398Y-99300000D01*
D42*
X131993099Y-89100000D02*
X125802056Y-89100000D01*
D44*
X124702601Y-97300000D02*
X125899998Y-97300000D01*
D43*
X138758219Y-90826118D02*
X139023319Y-90561018D01*
D42*
X133260798Y-89701597D02*
X133260798Y-89060798D01*
D41*
X141150000Y-80250000D02*
X139770000Y-80250000D01*
X146890000Y-79110000D02*
X147830000Y-79110000D01*
D42*
X132760797Y-89332300D02*
X132480574Y-89052077D01*
D43*
X139023319Y-90077708D02*
X139601027Y-89500000D01*
D42*
X132041022Y-89052077D02*
X131993099Y-89100000D01*
D41*
X143600000Y-82050000D02*
X143600000Y-80700000D01*
X125600000Y-88200000D02*
X125600000Y-87200000D01*
D44*
X131048403Y-95851597D02*
X131601198Y-95851597D01*
D41*
X139601027Y-89500000D02*
X139601027Y-89399462D01*
D42*
X127055539Y-88654511D02*
X126600000Y-88198972D01*
X132854511Y-88654511D02*
X127055539Y-88654511D01*
D44*
X130900000Y-97000000D02*
X131401602Y-96498398D01*
D41*
X141253511Y-96197989D02*
X141253511Y-97531489D01*
X126600000Y-88198972D02*
X125601028Y-88198972D01*
X128900000Y-92767500D02*
X127932499Y-92767500D01*
X139770000Y-80250000D02*
X138630000Y-79110000D01*
D44*
X123200001Y-98802600D02*
X124702601Y-97300000D01*
X126300000Y-96899998D02*
X126300000Y-95800000D01*
X125899998Y-97300000D02*
X126300000Y-96899998D01*
D42*
X125802056Y-89100000D02*
X125600000Y-88897944D01*
D44*
X128900000Y-94200000D02*
X128900000Y-92767500D01*
D41*
X140850000Y-85150000D02*
X143600000Y-82400000D01*
D44*
X126700000Y-95400000D02*
X127700000Y-95400000D01*
D41*
X140850001Y-95794479D02*
X141253511Y-96197989D01*
X140850001Y-95250000D02*
X140850001Y-95794479D01*
D44*
X127900000Y-100200001D02*
X127900000Y-99350000D01*
X126300000Y-95800000D02*
X126700000Y-95400000D01*
D42*
X132480574Y-89052077D02*
X132041022Y-89052077D01*
X132760797Y-89701597D02*
X132760797Y-89332300D01*
D44*
X131401602Y-96498398D02*
X132253686Y-96498398D01*
D41*
X143600000Y-82400000D02*
X143600000Y-82050000D01*
D44*
X130900000Y-96000000D02*
X131048403Y-95851597D01*
D42*
X130100000Y-91851598D02*
X129000000Y-91851598D01*
D44*
X130400001Y-97000000D02*
X130900000Y-97000000D01*
D41*
X143600000Y-82400000D02*
X146890000Y-79110000D01*
D42*
X133260798Y-89060798D02*
X132854511Y-88654511D01*
D44*
X127700000Y-95400000D02*
X128900000Y-94200000D01*
D41*
X143150000Y-80250000D02*
X141150000Y-80250000D01*
X125600000Y-88897944D02*
X125600000Y-88200000D01*
D43*
X138398799Y-90851597D02*
X138424278Y-90826118D01*
D41*
X141253511Y-97531489D02*
X140550000Y-98235000D01*
D42*
X125601028Y-88198972D02*
X125600000Y-88200000D01*
D41*
X124900000Y-85300000D02*
X125450000Y-85300000D01*
X133700000Y-98150000D02*
X133700000Y-99042602D01*
D44*
X130400000Y-96000000D02*
X130900000Y-96000000D01*
D41*
X140850000Y-88150489D02*
X140850000Y-85150000D01*
D42*
X130100000Y-91851598D02*
X131601198Y-91851598D01*
D43*
%TO.N,GND*%
X134260799Y-92360799D02*
X135000000Y-93100000D01*
X135000000Y-93100000D02*
X136748401Y-91351599D01*
X134260799Y-89701597D02*
X134260799Y-92360799D01*
X136748401Y-91351599D02*
X138398799Y-91351599D01*
X134260799Y-89701597D02*
X134260799Y-88360799D01*
X134260799Y-88360799D02*
X134150000Y-88250000D01*
D44*
%TO.N,Net-(FIXATION_ECRAN1-Pad2)*%
X133840000Y-84940000D02*
X133840000Y-83900000D01*
D43*
X130876014Y-95379292D02*
X130903708Y-95351598D01*
D44*
X130903708Y-95351598D02*
X131601198Y-95351598D01*
X134500000Y-85600000D02*
X133840000Y-84940000D01*
%TO.N,Net-(FIXATION_ECRAN1-Pad3)*%
X134160298Y-97455658D02*
X134160298Y-96980290D01*
X136380000Y-84020000D02*
X136380000Y-83900000D01*
X134160298Y-96980290D02*
X134260799Y-96879789D01*
X134260799Y-96879789D02*
X134260799Y-96498398D01*
X135100000Y-85300000D02*
X136380000Y-84020000D01*
%TO.N,Net-(FIXATION_ECRAN1-Pad4)*%
X137320000Y-85500000D02*
X138920000Y-83900000D01*
X134686113Y-97160891D02*
X134686113Y-96913887D01*
X134686113Y-96913887D02*
X134760798Y-96839202D01*
X135800000Y-85500000D02*
X137320000Y-85500000D01*
X134760798Y-96839202D02*
X134760798Y-96498398D01*
%TO.N,NRST*%
X138500000Y-98775000D02*
X138150000Y-99125000D01*
X138150000Y-99125000D02*
X138150000Y-102000000D01*
D41*
%TO.N,Net-(C29-Pad1)*%
X146000000Y-97600000D02*
X146000000Y-98200000D01*
X146000000Y-96448975D02*
X146000000Y-97600000D01*
X146900000Y-99100000D02*
X147914200Y-99100000D01*
X146000000Y-98200000D02*
X146900000Y-99100000D01*
D44*
%TO.N,Net-(C17-Pad1)*%
X132760797Y-96825907D02*
X132760797Y-96498398D01*
X130400000Y-98000000D02*
X131586704Y-98000000D01*
X131586704Y-98000000D02*
X132760797Y-96825907D01*
%TO.N,Net-(C18-Pad1)*%
X132724511Y-97427199D02*
X133260798Y-96890912D01*
X130400000Y-99000000D02*
X132174022Y-99000000D01*
X132724511Y-98449511D02*
X132724511Y-97427199D01*
X133260798Y-96890912D02*
X133260798Y-96498398D01*
X132174022Y-99000000D02*
X132724511Y-98449511D01*
%TO.N,BOOT0*%
X133760797Y-96955919D02*
X133760797Y-96498398D01*
X133124031Y-97592685D02*
X133760797Y-96955919D01*
X130435000Y-100100000D02*
X130585489Y-99949511D01*
X132724511Y-99949511D02*
X133124031Y-99549991D01*
X127900000Y-101208000D02*
X126999511Y-100307511D01*
X126999511Y-99003089D02*
X126799022Y-98802600D01*
X133124031Y-99549991D02*
X133124031Y-97592685D01*
X126999511Y-100307511D02*
X126999511Y-99003089D01*
X129327000Y-101208000D02*
X130435000Y-100100000D01*
X126799022Y-98802600D02*
X124700001Y-98802600D01*
X130585489Y-99949511D02*
X132724511Y-99949511D01*
X129327000Y-101208000D02*
X127900000Y-101208000D01*
%TO.N,Net-(C12-Pad1)*%
X140150000Y-97365000D02*
X138635000Y-97365000D01*
X138570000Y-97300000D02*
X138635000Y-97365000D01*
X138570000Y-97030000D02*
X138570000Y-97300000D01*
X138500000Y-97100000D02*
X138570000Y-97030000D01*
X140550000Y-96965000D02*
X140150000Y-97365000D01*
X135260797Y-96498398D02*
X135260797Y-97400501D01*
X138560000Y-97365000D02*
X138500000Y-97425000D01*
X135260797Y-97400501D02*
X135211298Y-97450000D01*
X138635000Y-97365000D02*
X138560000Y-97365000D01*
D42*
%TO.N,Net-(C22-Pad1)*%
X135760798Y-98000000D02*
X135760798Y-97200000D01*
X135760798Y-98000000D02*
X135760798Y-99300000D01*
D44*
X135760798Y-96498398D02*
X135760798Y-97200000D01*
%TO.N,PA0*%
X136260797Y-96498398D02*
X136260797Y-97360797D01*
X134810798Y-101750000D02*
X132438000Y-101750000D01*
X132438000Y-101750000D02*
X131588000Y-102600000D01*
X136260797Y-97360797D02*
X136475084Y-97575084D01*
X136475084Y-100085714D02*
X134810798Y-101750000D01*
X136475084Y-97575084D02*
X136475084Y-100085714D01*
%TO.N,PA1*%
X136760799Y-97278108D02*
X136760799Y-96498398D01*
X130400000Y-105337500D02*
X130400000Y-104440000D01*
X137000000Y-97700000D02*
X137000000Y-97517309D01*
X137000000Y-97517309D02*
X136760799Y-97278108D01*
X130400000Y-104440000D02*
X130360000Y-104400000D01*
%TO.N,PA2*%
X137450500Y-98049500D02*
X137525000Y-97975000D01*
X131600000Y-105337500D02*
X131600000Y-104412000D01*
X137525000Y-97441268D02*
X137260798Y-97177066D01*
X137260798Y-97177066D02*
X137260798Y-96498398D01*
X137525000Y-97975000D02*
X137525000Y-97441268D01*
X131600000Y-104412000D02*
X131588000Y-104400000D01*
X137450500Y-98100000D02*
X137450500Y-98049500D01*
%TO.N,PA3*%
X135260000Y-101865804D02*
X135260000Y-102600000D01*
X136874604Y-100251200D02*
X135260000Y-101865804D01*
X137760797Y-96498398D02*
X137950000Y-96687601D01*
X137950000Y-98350000D02*
X136874604Y-99425396D01*
X136874604Y-99425396D02*
X136874604Y-100251200D01*
X137950000Y-96687601D02*
X137950000Y-98350000D01*
%TO.N,PA4*%
X138398799Y-95851597D02*
X139146675Y-96599473D01*
X135300000Y-104440000D02*
X135260000Y-104400000D01*
X139146675Y-96599473D02*
X139605918Y-96599473D01*
X135300000Y-105337500D02*
X135300000Y-104440000D01*
%TO.N,PA5*%
X129200000Y-105337500D02*
X129200000Y-104460000D01*
X139604924Y-95911527D02*
X139593397Y-95900000D01*
X138698064Y-95351598D02*
X138398799Y-95351598D01*
X139593397Y-95900000D02*
X139246466Y-95900000D01*
X139246466Y-95900000D02*
X138698064Y-95351598D01*
X129200000Y-104460000D02*
X129140000Y-104400000D01*
%TO.N,PA6*%
X138784872Y-94851599D02*
X138398799Y-94851599D01*
X139451018Y-95158118D02*
X139091391Y-95158118D01*
X139091391Y-95158118D02*
X138784872Y-94851599D01*
X129150000Y-101800000D02*
X129140000Y-101810000D01*
X129140000Y-101810000D02*
X129140000Y-102600000D01*
X139604924Y-95312024D02*
X139451018Y-95158118D01*
%TO.N,PA7*%
X139257077Y-94758118D02*
X139834246Y-94758118D01*
X138850557Y-94351598D02*
X139257077Y-94758118D01*
X138398799Y-94351598D02*
X138850557Y-94351598D01*
%TO.N,PA8*%
X139554540Y-94163937D02*
X139263937Y-94163937D01*
X138951599Y-93851599D02*
X138398799Y-93851599D01*
X139263937Y-94163937D02*
X138951599Y-93851599D01*
%TO.N,PA9*%
X138418301Y-93371099D02*
X138398799Y-93351597D01*
X139398957Y-93371099D02*
X138418301Y-93371099D01*
X139562625Y-93534767D02*
X139398957Y-93371099D01*
%TO.N,PB2*%
X139100000Y-99800011D02*
X139450011Y-99800011D01*
X139450011Y-99800011D02*
X141300000Y-101650000D01*
X138900000Y-92851099D02*
X138899501Y-92851598D01*
X138899501Y-92851598D02*
X138398799Y-92851598D01*
%TO.N,Net-(C19-Pad1)*%
X138398799Y-92351599D02*
X139106916Y-92351599D01*
X140001028Y-92900000D02*
X140001028Y-93251028D01*
X140001028Y-93251028D02*
X140850001Y-94100001D01*
X139655317Y-92900000D02*
X140001028Y-92900000D01*
X140850001Y-94094684D02*
X140850001Y-94100001D01*
X139106916Y-92351599D02*
X139655317Y-92900000D01*
D41*
%TO.N,Net-(C30-Pad2)*%
X139650000Y-91850000D02*
X140701030Y-91850000D01*
D43*
X138398799Y-91851598D02*
X138424280Y-91877079D01*
X138424280Y-91877079D02*
X138758219Y-91877079D01*
X139572921Y-91927079D02*
X139650000Y-91850000D01*
X138808219Y-91927079D02*
X139572921Y-91927079D01*
X138758219Y-91877079D02*
X138808219Y-91927079D01*
D44*
%TO.N,Net-(U1-Pad24)*%
X138398799Y-90351598D02*
X138398799Y-89152398D01*
X138398799Y-89152398D02*
X137179801Y-87933400D01*
%TO.N,Net-(U1-Pad25)*%
X135450000Y-87263201D02*
X136129801Y-86583400D01*
X135455290Y-88657911D02*
X135450000Y-88652621D01*
X137760797Y-89139203D02*
X137760797Y-89701597D01*
X135450000Y-88652621D02*
X135450000Y-87263201D01*
X137279505Y-88657911D02*
X135455290Y-88657911D01*
X137760797Y-89139203D02*
X137279505Y-88657911D01*
D42*
%TO.N,Net-(C10-Pad1)*%
X126599999Y-85300000D02*
X127917797Y-85300000D01*
X134760798Y-87760798D02*
X134503511Y-87503511D01*
X134760798Y-89701597D02*
X134760798Y-87760798D01*
X129501028Y-86900000D02*
X129501028Y-86001028D01*
X128757000Y-85257000D02*
X127960797Y-85257000D01*
X134503511Y-87503511D02*
X130104539Y-87503511D01*
X127917797Y-85300000D02*
X127960797Y-85257000D01*
X130104539Y-87503511D02*
X129501028Y-86900000D01*
X129501028Y-86001028D02*
X128757000Y-85257000D01*
%TO.N,Net-(L2-Pad2)*%
X133061420Y-88154992D02*
X133760797Y-88854369D01*
X128743000Y-87543000D02*
X129354991Y-88154991D01*
X129354991Y-88154991D02*
X133061420Y-88154992D01*
X127960797Y-87543000D02*
X128743000Y-87543000D01*
X133760797Y-88854369D02*
X133760797Y-89701597D01*
D44*
%TO.N,/USB_N*%
X124519451Y-90351598D02*
X122508199Y-92362850D01*
X122508199Y-92362850D02*
X121969200Y-92362850D01*
X124519451Y-90351598D02*
X131601198Y-90351598D01*
%TO.N,/USB_P*%
X124798403Y-90851597D02*
X123600000Y-92050000D01*
X121969200Y-90462851D02*
X123562851Y-90462851D01*
X131601198Y-90851597D02*
X124798403Y-90851597D01*
D45*
%TO.N,Net-(U2-Pad4)*%
X117570000Y-91750000D02*
X118857149Y-90462851D01*
X118857149Y-90462851D02*
X119669200Y-90462851D01*
D41*
%TO.N,5V_USB*%
X120800000Y-91666851D02*
X120545998Y-91412849D01*
X122701027Y-96298973D02*
X123150000Y-95850000D01*
D43*
X120551027Y-96250000D02*
X120600000Y-96298973D01*
D41*
X123150000Y-95850000D02*
X123150000Y-94850000D01*
X123150000Y-94850000D02*
X122747500Y-94447500D01*
X120545998Y-91412849D02*
X119669200Y-91412849D01*
X121930000Y-94447500D02*
X120800000Y-93317500D01*
X120800000Y-93317500D02*
X120800000Y-91666851D01*
X117570000Y-96250000D02*
X120551027Y-96250000D01*
X120600000Y-96298973D02*
X122701027Y-96298973D01*
X122747500Y-94447500D02*
X121930000Y-94447500D01*
D45*
%TO.N,Net-(U2-Pad6)*%
X118282050Y-93750000D02*
X119669200Y-92362850D01*
X117570000Y-93750000D02*
X118282050Y-93750000D01*
D41*
%TO.N,Net-(C25-Pad2)*%
X125646473Y-96352500D02*
X125700000Y-96298973D01*
X124470000Y-96352500D02*
X125646473Y-96352500D01*
%TO.N,Net-(C26-Pad2)*%
X126871700Y-94170000D02*
X127200000Y-94498300D01*
X124470000Y-94170000D02*
X126871700Y-94170000D01*
X124470000Y-94447500D02*
X124470000Y-94170000D01*
%TO.N,Net-(C3-Pad2)*%
X141898975Y-91850000D02*
X143500000Y-91850000D01*
%TO.N,Net-(C4-Pad1)*%
X144900000Y-91850000D02*
X146000000Y-91850000D01*
%TO.N,Net-(C28-Pad1)*%
X146000000Y-93047945D02*
X146000000Y-95251030D01*
%TO.N,Net-(C4-Pad2)*%
X147348973Y-91850000D02*
X149401030Y-91850000D01*
%TO.N,/ANT*%
X150600000Y-91848975D02*
X150600000Y-90050000D01*
X150598975Y-91850000D02*
X150600000Y-91848975D01*
%TD*%
%TA.AperFunction,Conductor*%
%TO.N,GND*%
G36*
X123899861Y-78428502D02*
G01*
X123946354Y-78482158D01*
X123956458Y-78552432D01*
X123943248Y-78593167D01*
X123906389Y-78663225D01*
X123904675Y-78668746D01*
X123904673Y-78668750D01*
X123899183Y-78686433D01*
X123843032Y-78867267D01*
X123817920Y-79079439D01*
X123831894Y-79292634D01*
X123884485Y-79499713D01*
X123973933Y-79693740D01*
X124097241Y-79868218D01*
X124250281Y-80017302D01*
X124427927Y-80136001D01*
X124433230Y-80138279D01*
X124433233Y-80138281D01*
X124600509Y-80210148D01*
X124624229Y-80220339D01*
X124711630Y-80240116D01*
X124826977Y-80266217D01*
X124826980Y-80266217D01*
X124832613Y-80267492D01*
X124838384Y-80267719D01*
X124838386Y-80267719D01*
X124903363Y-80270272D01*
X125046101Y-80275880D01*
X125151822Y-80260551D01*
X125251829Y-80246051D01*
X125251834Y-80246050D01*
X125257543Y-80245222D01*
X125263007Y-80243367D01*
X125263012Y-80243366D01*
X125454389Y-80178402D01*
X125459857Y-80176546D01*
X125646268Y-80072151D01*
X125810533Y-79935533D01*
X125947151Y-79771268D01*
X126051546Y-79584857D01*
X126090026Y-79471498D01*
X126118366Y-79388012D01*
X126118367Y-79388007D01*
X126120222Y-79382543D01*
X126127191Y-79334484D01*
X126150347Y-79174775D01*
X126150880Y-79171101D01*
X126152480Y-79110000D01*
X126132930Y-78897244D01*
X126126092Y-78872996D01*
X126076504Y-78697172D01*
X126076503Y-78697170D01*
X126074936Y-78691613D01*
X126063662Y-78668750D01*
X126024939Y-78590228D01*
X126012749Y-78520286D01*
X126040309Y-78454856D01*
X126098867Y-78414713D01*
X126137945Y-78408500D01*
X128276740Y-78408500D01*
X128344861Y-78428502D01*
X128391354Y-78482158D01*
X128401458Y-78552432D01*
X128388248Y-78593167D01*
X128351389Y-78663225D01*
X128349675Y-78668746D01*
X128349673Y-78668750D01*
X128344183Y-78686433D01*
X128288032Y-78867267D01*
X128262920Y-79079439D01*
X128276894Y-79292634D01*
X128329485Y-79499713D01*
X128418933Y-79693740D01*
X128542241Y-79868218D01*
X128695281Y-80017302D01*
X128872927Y-80136001D01*
X128878230Y-80138279D01*
X128878233Y-80138281D01*
X129045509Y-80210148D01*
X129069229Y-80220339D01*
X129156630Y-80240116D01*
X129271977Y-80266217D01*
X129271980Y-80266217D01*
X129277613Y-80267492D01*
X129283384Y-80267719D01*
X129283386Y-80267719D01*
X129475236Y-80275257D01*
X129542519Y-80297918D01*
X129559384Y-80312065D01*
X129986230Y-80738911D01*
X129998616Y-80753323D01*
X130007149Y-80764918D01*
X130007154Y-80764923D01*
X130011492Y-80770818D01*
X130017070Y-80775557D01*
X130017073Y-80775560D01*
X130051768Y-80805035D01*
X130059284Y-80811965D01*
X130064979Y-80817660D01*
X130067861Y-80819940D01*
X130087251Y-80835281D01*
X130090655Y-80838072D01*
X130140703Y-80880591D01*
X130146285Y-80885333D01*
X130152801Y-80888661D01*
X130157838Y-80892020D01*
X130162977Y-80895194D01*
X130168716Y-80899734D01*
X130175349Y-80902834D01*
X130234837Y-80930636D01*
X130238791Y-80932569D01*
X130303808Y-80965769D01*
X130310924Y-80967510D01*
X130316554Y-80969604D01*
X130322321Y-80971523D01*
X130328950Y-80974621D01*
X130336110Y-80976110D01*
X130336112Y-80976111D01*
X130400396Y-80989482D01*
X130404680Y-80990452D01*
X130475610Y-81007808D01*
X130481212Y-81008156D01*
X130481215Y-81008156D01*
X130486764Y-81008500D01*
X130486762Y-81008536D01*
X130490752Y-81008775D01*
X130494950Y-81009150D01*
X130502115Y-81010640D01*
X130579520Y-81008546D01*
X130582928Y-81008500D01*
X139682058Y-81008500D01*
X139693258Y-81008999D01*
X139694953Y-81009150D01*
X139702115Y-81010640D01*
X139779520Y-81008546D01*
X139782928Y-81008500D01*
X142076779Y-81008500D01*
X142144900Y-81028502D01*
X142191393Y-81082158D01*
X142202778Y-81133989D01*
X142202842Y-81149785D01*
X142208506Y-82540948D01*
X142209013Y-82665602D01*
X142189288Y-82733804D01*
X142172109Y-82755210D01*
X140395313Y-84532006D01*
X140333001Y-84566032D01*
X140262186Y-84560967D01*
X140205350Y-84518420D01*
X140180539Y-84451900D01*
X140188214Y-84402049D01*
X140187430Y-84401811D01*
X140250865Y-84193023D01*
X140250865Y-84193021D01*
X140252370Y-84188069D01*
X140281529Y-83966590D01*
X140283156Y-83900000D01*
X140264852Y-83677361D01*
X140210431Y-83460702D01*
X140121354Y-83255840D01*
X140000014Y-83068277D01*
X139849670Y-82903051D01*
X139845619Y-82899852D01*
X139845615Y-82899848D01*
X139678414Y-82767800D01*
X139678410Y-82767798D01*
X139674359Y-82764598D01*
X139478789Y-82656638D01*
X139473920Y-82654914D01*
X139473916Y-82654912D01*
X139273087Y-82583795D01*
X139273083Y-82583794D01*
X139268212Y-82582069D01*
X139263119Y-82581162D01*
X139263116Y-82581161D01*
X139053373Y-82543800D01*
X139053367Y-82543799D01*
X139048284Y-82542894D01*
X138974452Y-82541992D01*
X138830081Y-82540228D01*
X138830079Y-82540228D01*
X138824911Y-82540165D01*
X138604091Y-82573955D01*
X138391756Y-82643357D01*
X138361443Y-82659137D01*
X138226289Y-82729494D01*
X138193607Y-82746507D01*
X138189474Y-82749610D01*
X138189471Y-82749612D01*
X138019100Y-82877530D01*
X138014965Y-82880635D01*
X138011393Y-82884373D01*
X137922852Y-82977026D01*
X137860629Y-83042138D01*
X137753201Y-83199621D01*
X137698293Y-83244621D01*
X137627768Y-83252792D01*
X137564021Y-83221538D01*
X137543324Y-83197054D01*
X137462822Y-83072617D01*
X137462820Y-83072614D01*
X137460014Y-83068277D01*
X137309670Y-82903051D01*
X137305619Y-82899852D01*
X137305615Y-82899848D01*
X137138414Y-82767800D01*
X137138410Y-82767798D01*
X137134359Y-82764598D01*
X136938789Y-82656638D01*
X136933920Y-82654914D01*
X136933916Y-82654912D01*
X136733087Y-82583795D01*
X136733083Y-82583794D01*
X136728212Y-82582069D01*
X136723119Y-82581162D01*
X136723116Y-82581161D01*
X136513373Y-82543800D01*
X136513367Y-82543799D01*
X136508284Y-82542894D01*
X136434452Y-82541992D01*
X136290081Y-82540228D01*
X136290079Y-82540228D01*
X136284911Y-82540165D01*
X136064091Y-82573955D01*
X135851756Y-82643357D01*
X135821443Y-82659137D01*
X135686289Y-82729494D01*
X135653607Y-82746507D01*
X135649474Y-82749610D01*
X135649471Y-82749612D01*
X135479100Y-82877530D01*
X135474965Y-82880635D01*
X135471393Y-82884373D01*
X135382852Y-82977026D01*
X135320629Y-83042138D01*
X135213201Y-83199621D01*
X135158293Y-83244621D01*
X135087768Y-83252792D01*
X135024021Y-83221538D01*
X135003324Y-83197054D01*
X134922822Y-83072617D01*
X134922820Y-83072614D01*
X134920014Y-83068277D01*
X134769670Y-82903051D01*
X134765619Y-82899852D01*
X134765615Y-82899848D01*
X134598414Y-82767800D01*
X134598410Y-82767798D01*
X134594359Y-82764598D01*
X134398789Y-82656638D01*
X134393920Y-82654914D01*
X134393916Y-82654912D01*
X134193087Y-82583795D01*
X134193083Y-82583794D01*
X134188212Y-82582069D01*
X134183119Y-82581162D01*
X134183116Y-82581161D01*
X133973373Y-82543800D01*
X133973367Y-82543799D01*
X133968284Y-82542894D01*
X133894452Y-82541992D01*
X133750081Y-82540228D01*
X133750079Y-82540228D01*
X133744911Y-82540165D01*
X133524091Y-82573955D01*
X133311756Y-82643357D01*
X133281443Y-82659137D01*
X133146289Y-82729494D01*
X133113607Y-82746507D01*
X133109474Y-82749610D01*
X133109471Y-82749612D01*
X132939100Y-82877530D01*
X132934965Y-82880635D01*
X132931393Y-82884373D01*
X132842852Y-82977026D01*
X132780629Y-83042138D01*
X132654743Y-83226680D01*
X132639003Y-83260590D01*
X132586716Y-83373233D01*
X132560688Y-83429305D01*
X132500989Y-83644570D01*
X132477251Y-83866695D01*
X132477548Y-83871848D01*
X132477548Y-83871851D01*
X132484995Y-84000999D01*
X132490110Y-84089715D01*
X132491247Y-84094761D01*
X132491248Y-84094767D01*
X132514738Y-84198998D01*
X132539222Y-84307639D01*
X132623266Y-84514616D01*
X132625965Y-84519020D01*
X132735832Y-84698307D01*
X132739987Y-84705088D01*
X132886250Y-84873938D01*
X133058126Y-85016632D01*
X133150747Y-85070755D01*
X133225986Y-85114721D01*
X133274710Y-85166359D01*
X133278825Y-85175292D01*
X133305314Y-85239244D01*
X133305317Y-85239249D01*
X133308476Y-85246876D01*
X133313503Y-85253427D01*
X133313504Y-85253429D01*
X133381520Y-85342069D01*
X133381526Y-85342075D01*
X133406013Y-85373987D01*
X133412563Y-85379013D01*
X133412564Y-85379014D01*
X133431376Y-85393449D01*
X133443766Y-85404315D01*
X133618512Y-85579060D01*
X133787056Y-85747604D01*
X133816287Y-85793399D01*
X133864085Y-85924015D01*
X133868322Y-85930321D01*
X133868324Y-85930324D01*
X133890653Y-85963552D01*
X133959730Y-86066349D01*
X133965346Y-86071459D01*
X134069662Y-86166379D01*
X134086565Y-86181760D01*
X134237268Y-86263585D01*
X134403139Y-86307101D01*
X134490586Y-86308474D01*
X134567003Y-86309675D01*
X134567006Y-86309675D01*
X134574602Y-86309794D01*
X134582006Y-86308098D01*
X134582008Y-86308098D01*
X134675759Y-86286626D01*
X134741759Y-86271510D01*
X134894958Y-86194459D01*
X134900729Y-86189530D01*
X134900732Y-86189528D01*
X135019577Y-86088024D01*
X135025355Y-86083089D01*
X135028413Y-86078833D01*
X135088383Y-86042747D01*
X135159349Y-86044840D01*
X135217917Y-86084968D01*
X135245493Y-86150391D01*
X135246301Y-86164637D01*
X135246301Y-86554161D01*
X135226299Y-86622282D01*
X135209396Y-86643256D01*
X135053766Y-86798886D01*
X135041375Y-86809753D01*
X135016013Y-86829214D01*
X134991526Y-86861126D01*
X134991523Y-86861129D01*
X134972970Y-86885308D01*
X134915633Y-86927174D01*
X134844762Y-86931395D01*
X134822969Y-86924240D01*
X134798977Y-86913858D01*
X134788316Y-86908635D01*
X134754795Y-86890206D01*
X134754793Y-86890205D01*
X134747848Y-86886387D01*
X134727070Y-86881052D01*
X134708380Y-86874653D01*
X134688687Y-86866131D01*
X134643063Y-86858905D01*
X134631440Y-86856498D01*
X134598566Y-86848058D01*
X134586699Y-86845011D01*
X134565252Y-86845011D01*
X134545542Y-86843460D01*
X134532188Y-86841345D01*
X134524359Y-86840105D01*
X134478370Y-86844452D01*
X134466515Y-86845011D01*
X130453028Y-86845011D01*
X130384907Y-86825009D01*
X130338414Y-86771353D01*
X130327028Y-86719011D01*
X130327028Y-86597866D01*
X130320273Y-86535684D01*
X130269143Y-86399295D01*
X130184702Y-86286626D01*
X130159854Y-86220120D01*
X130159528Y-86211061D01*
X130159528Y-86083084D01*
X130160087Y-86071228D01*
X130160087Y-86071225D01*
X130161816Y-86063491D01*
X130159590Y-85992659D01*
X130159528Y-85988701D01*
X130159528Y-85959596D01*
X130158972Y-85955196D01*
X130158040Y-85943358D01*
X130157433Y-85924015D01*
X130156590Y-85897197D01*
X130150608Y-85876607D01*
X130146598Y-85857244D01*
X130144903Y-85843824D01*
X130144903Y-85843823D01*
X130143910Y-85835964D01*
X130140994Y-85828599D01*
X130140993Y-85828595D01*
X130126904Y-85793010D01*
X130123059Y-85781781D01*
X130112384Y-85745038D01*
X130110173Y-85737427D01*
X130099258Y-85718971D01*
X130090559Y-85701215D01*
X130090210Y-85700335D01*
X130082663Y-85681272D01*
X130055508Y-85643896D01*
X130048993Y-85633977D01*
X130029520Y-85601051D01*
X130029517Y-85601047D01*
X130025480Y-85594221D01*
X130010319Y-85579060D01*
X129997477Y-85564025D01*
X129984869Y-85546671D01*
X129949276Y-85517226D01*
X129940495Y-85509236D01*
X129280651Y-84849391D01*
X129272663Y-84840612D01*
X129268416Y-84833920D01*
X129241447Y-84808594D01*
X129216742Y-84785395D01*
X129213900Y-84782640D01*
X129193333Y-84762073D01*
X129189826Y-84759353D01*
X129180804Y-84751647D01*
X129147133Y-84720028D01*
X129148812Y-84718240D01*
X129112885Y-84671655D01*
X129104297Y-84625934D01*
X129104297Y-84446866D01*
X129097542Y-84384684D01*
X129046412Y-84248295D01*
X128959058Y-84131739D01*
X128842502Y-84044385D01*
X128706113Y-83993255D01*
X128643931Y-83986500D01*
X127277663Y-83986500D01*
X127215481Y-83993255D01*
X127079092Y-84044385D01*
X126962536Y-84131739D01*
X126957155Y-84138919D01*
X126880600Y-84241066D01*
X126823741Y-84283581D01*
X126779774Y-84291501D01*
X126571072Y-84291501D01*
X126558943Y-84290146D01*
X126558904Y-84290628D01*
X126549953Y-84289908D01*
X126541199Y-84287927D01*
X126491262Y-84291025D01*
X126487490Y-84291259D01*
X126479688Y-84291501D01*
X126463486Y-84291501D01*
X126454570Y-84292778D01*
X126453121Y-84292985D01*
X126443071Y-84294014D01*
X126410250Y-84296051D01*
X126395821Y-84296946D01*
X126389923Y-84299075D01*
X126338377Y-84298602D01*
X126299956Y-84289908D01*
X126299954Y-84289908D01*
X126291200Y-84287927D01*
X126241263Y-84291025D01*
X126237491Y-84291259D01*
X126229689Y-84291501D01*
X125569158Y-84291501D01*
X125501037Y-84271499D01*
X125482505Y-84256973D01*
X125362772Y-84143548D01*
X125362768Y-84143545D01*
X125357453Y-84138510D01*
X125204510Y-84049674D01*
X125197506Y-84047553D01*
X125197502Y-84047551D01*
X125066512Y-84007879D01*
X125035233Y-83998405D01*
X124858702Y-83987453D01*
X124851486Y-83988693D01*
X124851484Y-83988693D01*
X124691602Y-84016166D01*
X124684386Y-84017406D01*
X124521636Y-84086657D01*
X124515748Y-84090990D01*
X124515743Y-84090993D01*
X124451176Y-84138510D01*
X124379182Y-84191492D01*
X124374443Y-84197070D01*
X124374440Y-84197073D01*
X124269406Y-84320706D01*
X124269403Y-84320710D01*
X124264667Y-84326285D01*
X124184231Y-84483808D01*
X124182492Y-84490913D01*
X124182491Y-84490917D01*
X124175615Y-84519020D01*
X124142192Y-84655610D01*
X124141500Y-84666764D01*
X124141500Y-85272165D01*
X124141258Y-85279966D01*
X124137453Y-85341298D01*
X124138693Y-85348514D01*
X124139680Y-85354257D01*
X124141500Y-85375596D01*
X124141500Y-86432930D01*
X124140067Y-86451880D01*
X124138637Y-86461282D01*
X124136801Y-86473349D01*
X124137394Y-86480641D01*
X124137394Y-86480644D01*
X124141085Y-86526018D01*
X124141500Y-86536233D01*
X124141500Y-86544293D01*
X124143049Y-86557583D01*
X124144789Y-86572507D01*
X124145222Y-86576882D01*
X124149055Y-86624000D01*
X124151140Y-86649637D01*
X124153396Y-86656601D01*
X124154587Y-86662560D01*
X124155971Y-86668415D01*
X124156818Y-86675681D01*
X124181735Y-86744327D01*
X124183152Y-86748455D01*
X124199939Y-86800272D01*
X124205649Y-86817899D01*
X124209445Y-86824154D01*
X124211951Y-86829628D01*
X124214670Y-86835058D01*
X124217167Y-86841937D01*
X124221180Y-86848057D01*
X124221180Y-86848058D01*
X124257186Y-86902976D01*
X124259523Y-86906680D01*
X124297405Y-86969107D01*
X124301121Y-86973315D01*
X124301122Y-86973316D01*
X124304803Y-86977484D01*
X124304776Y-86977508D01*
X124307429Y-86980500D01*
X124310132Y-86983733D01*
X124314144Y-86989852D01*
X124319456Y-86994884D01*
X124370383Y-87043128D01*
X124372825Y-87045506D01*
X124804595Y-87477276D01*
X124838621Y-87539588D01*
X124841500Y-87566371D01*
X124841500Y-88187707D01*
X124841258Y-88195508D01*
X124838481Y-88240270D01*
X124839722Y-88247491D01*
X124839758Y-88248160D01*
X124841500Y-88268586D01*
X124841500Y-88350271D01*
X124829123Y-88398645D01*
X124830857Y-88399295D01*
X124779727Y-88535684D01*
X124772972Y-88597866D01*
X124772972Y-89202134D01*
X124779727Y-89264316D01*
X124830857Y-89400705D01*
X124918211Y-89517261D01*
X124925391Y-89522642D01*
X124930752Y-89528003D01*
X124964778Y-89590315D01*
X124959713Y-89661130D01*
X124917166Y-89717966D01*
X124850646Y-89742777D01*
X124841657Y-89743098D01*
X124567587Y-89743098D01*
X124551144Y-89742020D01*
X124519451Y-89737848D01*
X124511262Y-89738926D01*
X124479577Y-89743097D01*
X124479568Y-89743098D01*
X124479566Y-89743098D01*
X124479560Y-89743099D01*
X124479558Y-89743099D01*
X124379994Y-89756207D01*
X124368787Y-89757682D01*
X124368785Y-89757683D01*
X124360600Y-89758760D01*
X124212575Y-89820074D01*
X124188688Y-89838403D01*
X124122471Y-89864003D01*
X124052922Y-89849739D01*
X124028171Y-89832520D01*
X124007321Y-89813943D01*
X123999325Y-89809709D01*
X123946723Y-89781858D01*
X123855769Y-89733700D01*
X123838196Y-89729286D01*
X123696822Y-89693775D01*
X123696818Y-89693775D01*
X123689451Y-89691924D01*
X123681852Y-89691884D01*
X123681850Y-89691884D01*
X123610394Y-89691510D01*
X123517969Y-89691026D01*
X123510589Y-89692798D01*
X123510587Y-89692798D01*
X123358602Y-89729286D01*
X123358598Y-89729287D01*
X123351223Y-89731058D01*
X123198839Y-89809709D01*
X123193117Y-89814701D01*
X123193115Y-89814702D01*
X123183258Y-89823301D01*
X123118776Y-89853008D01*
X123100430Y-89854351D01*
X123021126Y-89854351D01*
X122953005Y-89834349D01*
X122945561Y-89829177D01*
X122933415Y-89820074D01*
X122850905Y-89758236D01*
X122714516Y-89707106D01*
X122652334Y-89700351D01*
X121286066Y-89700351D01*
X121223884Y-89707106D01*
X121087495Y-89758236D01*
X120970939Y-89845590D01*
X120965558Y-89852770D01*
X120920026Y-89913523D01*
X120863167Y-89956038D01*
X120792348Y-89961064D01*
X120730055Y-89927004D01*
X120718374Y-89913523D01*
X120672842Y-89852770D01*
X120667461Y-89845590D01*
X120550905Y-89758236D01*
X120414516Y-89707106D01*
X120352334Y-89700351D01*
X118986066Y-89700351D01*
X118923884Y-89707106D01*
X118787495Y-89758236D01*
X118741698Y-89792559D01*
X118678122Y-89840206D01*
X118678119Y-89840209D01*
X118670939Y-89845590D01*
X118665558Y-89852770D01*
X118665553Y-89852775D01*
X118623373Y-89909056D01*
X118577133Y-89944956D01*
X118577664Y-89945876D01*
X118570974Y-89949739D01*
X118570767Y-89949899D01*
X118570515Y-89950003D01*
X118570513Y-89950004D01*
X118562882Y-89953165D01*
X118471595Y-90023211D01*
X118471592Y-90023214D01*
X118440992Y-90046694D01*
X118435964Y-90053247D01*
X118422537Y-90070745D01*
X118411670Y-90083136D01*
X117890211Y-90604595D01*
X117827899Y-90638621D01*
X117801116Y-90641500D01*
X116651866Y-90641500D01*
X116589684Y-90648255D01*
X116453295Y-90699385D01*
X116336739Y-90786739D01*
X116249385Y-90903295D01*
X116198255Y-91039684D01*
X116191500Y-91101866D01*
X116191500Y-92498134D01*
X116198255Y-92560316D01*
X116249385Y-92696705D01*
X116254771Y-92703891D01*
X116270168Y-92724436D01*
X116295015Y-92790943D01*
X116279961Y-92860325D01*
X116270168Y-92875564D01*
X116249385Y-92903295D01*
X116198255Y-93039684D01*
X116191500Y-93101866D01*
X116191500Y-94498134D01*
X116198255Y-94560316D01*
X116249385Y-94696705D01*
X116336739Y-94813261D01*
X116453295Y-94900615D01*
X116461703Y-94903767D01*
X116537062Y-94932018D01*
X116593826Y-94974660D01*
X116618526Y-95041221D01*
X116603319Y-95110570D01*
X116553033Y-95160688D01*
X116537062Y-95167982D01*
X116453295Y-95199385D01*
X116336739Y-95286739D01*
X116249385Y-95403295D01*
X116198255Y-95539684D01*
X116191500Y-95601866D01*
X116191500Y-96998134D01*
X116198255Y-97060316D01*
X116249385Y-97196705D01*
X116336739Y-97313261D01*
X116453295Y-97400615D01*
X116589684Y-97451745D01*
X116651866Y-97458500D01*
X118448134Y-97458500D01*
X118510316Y-97451745D01*
X118646705Y-97400615D01*
X118763261Y-97313261D01*
X118802702Y-97260635D01*
X118859561Y-97218120D01*
X118903528Y-97210200D01*
X119948134Y-97210200D01*
X120010316Y-97203445D01*
X120146705Y-97152315D01*
X120157938Y-97143896D01*
X120224442Y-97119048D01*
X120247107Y-97119459D01*
X120297866Y-97124973D01*
X120902134Y-97124973D01*
X120964316Y-97118218D01*
X121043572Y-97088506D01*
X121114378Y-97083323D01*
X121132029Y-97088505D01*
X121184684Y-97108245D01*
X121246866Y-97115000D01*
X122613134Y-97115000D01*
X122675316Y-97108245D01*
X122811705Y-97057115D01*
X122812346Y-97058825D01*
X122836535Y-97051579D01*
X122836192Y-97049861D01*
X122843372Y-97048426D01*
X122850664Y-97047833D01*
X122857624Y-97045578D01*
X122863570Y-97044390D01*
X122869442Y-97043002D01*
X122876708Y-97042155D01*
X122945354Y-97017238D01*
X122949482Y-97015821D01*
X123011963Y-96995580D01*
X123011965Y-96995579D01*
X123018926Y-96993324D01*
X123025181Y-96989528D01*
X123030655Y-96987022D01*
X123036085Y-96984303D01*
X123042964Y-96981806D01*
X123104003Y-96941787D01*
X123107707Y-96939450D01*
X123170134Y-96901568D01*
X123178511Y-96894170D01*
X123178535Y-96894197D01*
X123181527Y-96891544D01*
X123184761Y-96888840D01*
X123190879Y-96884829D01*
X123195908Y-96879520D01*
X123195912Y-96879517D01*
X123209426Y-96865251D01*
X123270796Y-96829554D01*
X123341723Y-96832702D01*
X123401723Y-96876340D01*
X123471739Y-96969761D01*
X123588295Y-97057115D01*
X123724684Y-97108245D01*
X123742073Y-97110134D01*
X123807635Y-97137376D01*
X123848061Y-97195739D01*
X123850517Y-97266693D01*
X123817560Y-97324492D01*
X123434857Y-97707195D01*
X123372545Y-97741221D01*
X123345762Y-97744100D01*
X122801867Y-97744100D01*
X122739685Y-97750855D01*
X122603296Y-97801985D01*
X122486740Y-97889339D01*
X122399386Y-98005895D01*
X122348256Y-98142284D01*
X122341501Y-98204466D01*
X122341501Y-99400734D01*
X122348256Y-99462916D01*
X122399386Y-99599305D01*
X122486740Y-99715861D01*
X122603296Y-99803215D01*
X122739685Y-99854345D01*
X122795561Y-99860415D01*
X122797633Y-99860640D01*
X122801867Y-99861100D01*
X123136044Y-99861100D01*
X123204165Y-99881102D01*
X123250658Y-99934758D01*
X123260762Y-100005032D01*
X123231268Y-100069612D01*
X123214994Y-100085298D01*
X123205823Y-100092672D01*
X123201865Y-100097389D01*
X123201863Y-100097391D01*
X123119029Y-100196109D01*
X123072391Y-100251690D01*
X123069427Y-100257082D01*
X123069424Y-100257086D01*
X122991698Y-100398469D01*
X122972387Y-100433596D01*
X122909621Y-100631462D01*
X122908935Y-100637579D01*
X122908934Y-100637583D01*
X122897278Y-100741498D01*
X122886482Y-100837751D01*
X122903852Y-101044605D01*
X122961069Y-101244146D01*
X122963887Y-101249628D01*
X122963888Y-101249632D01*
X123017408Y-101353770D01*
X123055955Y-101428774D01*
X123184894Y-101591455D01*
X123189581Y-101595444D01*
X123189584Y-101595447D01*
X123338284Y-101722000D01*
X123342976Y-101725993D01*
X123524180Y-101827265D01*
X123721603Y-101891411D01*
X123927725Y-101915990D01*
X123933860Y-101915518D01*
X123933862Y-101915518D01*
X124128555Y-101900537D01*
X124128560Y-101900536D01*
X124134696Y-101900064D01*
X124140626Y-101898408D01*
X124140628Y-101898408D01*
X124256635Y-101866018D01*
X124334632Y-101844241D01*
X124340132Y-101841463D01*
X124514416Y-101753426D01*
X124514418Y-101753425D01*
X124519917Y-101750647D01*
X124674648Y-101629758D01*
X124678634Y-101626644D01*
X124678635Y-101626643D01*
X124683495Y-101622846D01*
X124819133Y-101465707D01*
X124921667Y-101285215D01*
X124987190Y-101088245D01*
X125013207Y-100882299D01*
X125013622Y-100852601D01*
X125002728Y-100741498D01*
X124993966Y-100652135D01*
X124993965Y-100652132D01*
X124993365Y-100646009D01*
X124938292Y-100463596D01*
X124935152Y-100453194D01*
X124935151Y-100453191D01*
X124933368Y-100447286D01*
X124926089Y-100433596D01*
X124838809Y-100269448D01*
X124838808Y-100269446D01*
X124835913Y-100264002D01*
X124780541Y-100196109D01*
X124708610Y-100107912D01*
X124708607Y-100107909D01*
X124704715Y-100103137D01*
X124697770Y-100097391D01*
X124681805Y-100084184D01*
X124642067Y-100025350D01*
X124640446Y-99954372D01*
X124677455Y-99893785D01*
X124741345Y-99862825D01*
X124762121Y-99861100D01*
X125065500Y-99861100D01*
X125133621Y-99881102D01*
X125180114Y-99934758D01*
X125191500Y-99987100D01*
X125191500Y-100150734D01*
X125198255Y-100212916D01*
X125249385Y-100349305D01*
X125336739Y-100465861D01*
X125453295Y-100553215D01*
X125589684Y-100604345D01*
X125651866Y-100611100D01*
X126403329Y-100611100D01*
X126471450Y-100631102D01*
X126503289Y-100660393D01*
X126541034Y-100709583D01*
X126541037Y-100709586D01*
X126565524Y-100741498D01*
X126572079Y-100746528D01*
X126590890Y-100760963D01*
X126603281Y-100771830D01*
X126710457Y-100879006D01*
X126744483Y-100941318D01*
X126739418Y-101012133D01*
X126696871Y-101068969D01*
X126630351Y-101093780D01*
X126621362Y-101094101D01*
X125651866Y-101094101D01*
X125589684Y-101100856D01*
X125453295Y-101151986D01*
X125336739Y-101239340D01*
X125249385Y-101355896D01*
X125198255Y-101492285D01*
X125191500Y-101554467D01*
X125191500Y-102450735D01*
X125198255Y-102512917D01*
X125249385Y-102649306D01*
X125336739Y-102765862D01*
X125453295Y-102853216D01*
X125589684Y-102904346D01*
X125651866Y-102911101D01*
X126748134Y-102911101D01*
X126810316Y-102904346D01*
X126946705Y-102853216D01*
X127063261Y-102765862D01*
X127150615Y-102649306D01*
X127201745Y-102512917D01*
X127208500Y-102450735D01*
X127208500Y-101934139D01*
X127228502Y-101866018D01*
X127282158Y-101819525D01*
X127335268Y-101808141D01*
X127360664Y-101808296D01*
X127361445Y-101808329D01*
X127362543Y-101808500D01*
X127393534Y-101808500D01*
X127394304Y-101808502D01*
X127467942Y-101808952D01*
X127467943Y-101808952D01*
X127471878Y-101808976D01*
X127473222Y-101808592D01*
X127474567Y-101808500D01*
X127668237Y-101808500D01*
X127700210Y-101812624D01*
X127813119Y-101842245D01*
X127892938Y-101843499D01*
X127959318Y-101844542D01*
X127959321Y-101844542D01*
X127966916Y-101844661D01*
X127974320Y-101842965D01*
X127974322Y-101842965D01*
X128075989Y-101819680D01*
X128104118Y-101816500D01*
X128252435Y-101816500D01*
X128320556Y-101836502D01*
X128367049Y-101890158D01*
X128377153Y-101960432D01*
X128353261Y-102018065D01*
X128294771Y-102096108D01*
X128294770Y-102096110D01*
X128289385Y-102103295D01*
X128238255Y-102239684D01*
X128231500Y-102301866D01*
X128231500Y-102898134D01*
X128238255Y-102960316D01*
X128289385Y-103096705D01*
X128376739Y-103213261D01*
X128493295Y-103300615D01*
X128629684Y-103351745D01*
X128691866Y-103358500D01*
X129588134Y-103358500D01*
X129650316Y-103351745D01*
X129786705Y-103300615D01*
X129903261Y-103213261D01*
X129990615Y-103096705D01*
X130041745Y-102960316D01*
X130048500Y-102898134D01*
X130048500Y-102301866D01*
X130041745Y-102239684D01*
X129990615Y-102103295D01*
X129903261Y-101986739D01*
X129896080Y-101981357D01*
X129891386Y-101976663D01*
X129857360Y-101914351D01*
X129855738Y-101869814D01*
X129856279Y-101866018D01*
X129863547Y-101814947D01*
X129863704Y-101800000D01*
X129843102Y-101629758D01*
X129844385Y-101629603D01*
X129847217Y-101566458D01*
X129877306Y-101518243D01*
X130496144Y-100899405D01*
X130558456Y-100865379D01*
X130585239Y-100862500D01*
X130800634Y-100862500D01*
X130862816Y-100855745D01*
X130999205Y-100804615D01*
X131115761Y-100717261D01*
X131197314Y-100608445D01*
X131254172Y-100565931D01*
X131298139Y-100558011D01*
X132676375Y-100558011D01*
X132692818Y-100559089D01*
X132724511Y-100563261D01*
X132732700Y-100562183D01*
X132764385Y-100558012D01*
X132764395Y-100558011D01*
X132764396Y-100558011D01*
X132776884Y-100556367D01*
X132863968Y-100544902D01*
X132875175Y-100543427D01*
X132875177Y-100543426D01*
X132883362Y-100542349D01*
X133031387Y-100481035D01*
X133044150Y-100471242D01*
X133126583Y-100407988D01*
X133126586Y-100407985D01*
X133151945Y-100388526D01*
X133158498Y-100383498D01*
X133164776Y-100375317D01*
X133177963Y-100358132D01*
X133188830Y-100345741D01*
X133233883Y-100300688D01*
X133296195Y-100266662D01*
X133367206Y-100271801D01*
X133447082Y-100301745D01*
X133509264Y-100308500D01*
X134405532Y-100308500D01*
X134467714Y-100301745D01*
X134604103Y-100250615D01*
X134720659Y-100163261D01*
X134758272Y-100113074D01*
X134815131Y-100070559D01*
X134885950Y-100065533D01*
X134948243Y-100099593D01*
X134959923Y-100113073D01*
X134997537Y-100163261D01*
X135114093Y-100250615D01*
X135122501Y-100253767D01*
X135174897Y-100273410D01*
X135231662Y-100316052D01*
X135256361Y-100382614D01*
X135241153Y-100451963D01*
X135219762Y-100480487D01*
X134595654Y-101104595D01*
X134533342Y-101138621D01*
X134506559Y-101141500D01*
X132486144Y-101141500D01*
X132469698Y-101140422D01*
X132446188Y-101137327D01*
X132438000Y-101136249D01*
X132429812Y-101137327D01*
X132318466Y-101151986D01*
X132279150Y-101157162D01*
X132271523Y-101160321D01*
X132271520Y-101160322D01*
X132205137Y-101187819D01*
X132131124Y-101218476D01*
X132094577Y-101246520D01*
X132035937Y-101291515D01*
X132035921Y-101291529D01*
X132010566Y-101310984D01*
X132010563Y-101310987D01*
X132004013Y-101316013D01*
X131998983Y-101322568D01*
X131984548Y-101341379D01*
X131973681Y-101353770D01*
X131522856Y-101804595D01*
X131460544Y-101838621D01*
X131433761Y-101841500D01*
X131139866Y-101841500D01*
X131077684Y-101848255D01*
X130941295Y-101899385D01*
X130824739Y-101986739D01*
X130737385Y-102103295D01*
X130686255Y-102239684D01*
X130679500Y-102301866D01*
X130679500Y-102898134D01*
X130686255Y-102960316D01*
X130737385Y-103096705D01*
X130824739Y-103213261D01*
X130941295Y-103300615D01*
X131077684Y-103351745D01*
X131139866Y-103358500D01*
X132036134Y-103358500D01*
X132098316Y-103351745D01*
X132234705Y-103300615D01*
X132351261Y-103213261D01*
X132438615Y-103096705D01*
X132489745Y-102960316D01*
X132496500Y-102898134D01*
X132496500Y-102604239D01*
X132516502Y-102536118D01*
X132533405Y-102515144D01*
X132653144Y-102395405D01*
X132715456Y-102361379D01*
X132742239Y-102358500D01*
X134225500Y-102358500D01*
X134293621Y-102378502D01*
X134340114Y-102432158D01*
X134351500Y-102484500D01*
X134351500Y-102898134D01*
X134358255Y-102960316D01*
X134409385Y-103096705D01*
X134496739Y-103213261D01*
X134613295Y-103300615D01*
X134749684Y-103351745D01*
X134811866Y-103358500D01*
X135708134Y-103358500D01*
X135770316Y-103351745D01*
X135906705Y-103300615D01*
X136023261Y-103213261D01*
X136110615Y-103096705D01*
X136161745Y-102960316D01*
X136168500Y-102898134D01*
X136168500Y-102301866D01*
X136161745Y-102239684D01*
X136110615Y-102103295D01*
X136105232Y-102096112D01*
X136105230Y-102096109D01*
X136078644Y-102060636D01*
X136053797Y-101994130D01*
X136068850Y-101924747D01*
X136090376Y-101895977D01*
X136576405Y-101409948D01*
X136638717Y-101375922D01*
X136709532Y-101380987D01*
X136766368Y-101423534D01*
X136791179Y-101490054D01*
X136791500Y-101499043D01*
X136791500Y-102898134D01*
X136798255Y-102960316D01*
X136849385Y-103096705D01*
X136936739Y-103213261D01*
X137053295Y-103300615D01*
X137189684Y-103351745D01*
X137251866Y-103358500D01*
X139048134Y-103358500D01*
X139110316Y-103351745D01*
X139246705Y-103300615D01*
X139363261Y-103213261D01*
X139450615Y-103096705D01*
X139501745Y-102960316D01*
X139508500Y-102898134D01*
X139508500Y-101101866D01*
X139501745Y-101039684D01*
X139501360Y-101038658D01*
X139504905Y-100970771D01*
X139546351Y-100913128D01*
X139612382Y-100887042D01*
X139682033Y-100900796D01*
X139712881Y-100923430D01*
X139754595Y-100965144D01*
X139788621Y-101027456D01*
X139791500Y-101054239D01*
X139791500Y-102898134D01*
X139798255Y-102960316D01*
X139849385Y-103096705D01*
X139936739Y-103213261D01*
X140053295Y-103300615D01*
X140189684Y-103351745D01*
X140251866Y-103358500D01*
X142348134Y-103358500D01*
X142410316Y-103351745D01*
X142546705Y-103300615D01*
X142663261Y-103213261D01*
X142750615Y-103096705D01*
X142801745Y-102960316D01*
X142808500Y-102898134D01*
X142808500Y-100401866D01*
X142801745Y-100339684D01*
X142750615Y-100203295D01*
X142663261Y-100086739D01*
X142546705Y-99999385D01*
X142410316Y-99948255D01*
X142348134Y-99941500D01*
X140504239Y-99941500D01*
X140436118Y-99921498D01*
X140415144Y-99904595D01*
X139914326Y-99403777D01*
X139903459Y-99391386D01*
X139889024Y-99372574D01*
X139883998Y-99366024D01*
X139852086Y-99341537D01*
X139852083Y-99341534D01*
X139822026Y-99318470D01*
X139763440Y-99273515D01*
X139763438Y-99273514D01*
X139756887Y-99268487D01*
X139608862Y-99207173D01*
X139600675Y-99206095D01*
X139600674Y-99206095D01*
X139589469Y-99204620D01*
X139489897Y-99191511D01*
X139489889Y-99191510D01*
X139479154Y-99190097D01*
X139436638Y-99176529D01*
X139362482Y-99137265D01*
X139362480Y-99137264D01*
X139355769Y-99133711D01*
X139253804Y-99108099D01*
X139192609Y-99072106D01*
X139160588Y-99008740D01*
X139158500Y-98985896D01*
X139158500Y-98401866D01*
X139157101Y-98388982D01*
X139154673Y-98366635D01*
X139167201Y-98296753D01*
X139215522Y-98244737D01*
X139279936Y-98227028D01*
X139661500Y-98227028D01*
X139729621Y-98247030D01*
X139776114Y-98300686D01*
X139787500Y-98353028D01*
X139787500Y-98600634D01*
X139794255Y-98662816D01*
X139845385Y-98799205D01*
X139932739Y-98915761D01*
X140049295Y-99003115D01*
X140185684Y-99054245D01*
X140247866Y-99061000D01*
X140852134Y-99061000D01*
X140914316Y-99054245D01*
X141050705Y-99003115D01*
X141167261Y-98915761D01*
X141254615Y-98799205D01*
X141305745Y-98662816D01*
X141312500Y-98600634D01*
X141312500Y-98597217D01*
X141312684Y-98593820D01*
X141313529Y-98593866D01*
X141332502Y-98529250D01*
X141349405Y-98508276D01*
X141742422Y-98115259D01*
X141756834Y-98102873D01*
X141768429Y-98094340D01*
X141768434Y-98094335D01*
X141774329Y-98089997D01*
X141779068Y-98084419D01*
X141779071Y-98084416D01*
X141808546Y-98049721D01*
X141815476Y-98042205D01*
X141821172Y-98036509D01*
X141823435Y-98033648D01*
X141823440Y-98033643D01*
X141838804Y-98014223D01*
X141841593Y-98010822D01*
X141860927Y-97988064D01*
X141888844Y-97955204D01*
X141892170Y-97948691D01*
X141895531Y-97943652D01*
X141898707Y-97938510D01*
X141903245Y-97932773D01*
X141934166Y-97866614D01*
X141936072Y-97862714D01*
X141950385Y-97834684D01*
X141969280Y-97797681D01*
X141971019Y-97790572D01*
X141973115Y-97784938D01*
X141975034Y-97779168D01*
X141978133Y-97772539D01*
X141982067Y-97753629D01*
X141993001Y-97701060D01*
X141993972Y-97696771D01*
X141994104Y-97696233D01*
X142011319Y-97625879D01*
X142012011Y-97614725D01*
X142012046Y-97614727D01*
X142012286Y-97610755D01*
X142012663Y-97606534D01*
X142014152Y-97599374D01*
X142012057Y-97521947D01*
X142012011Y-97518539D01*
X142012011Y-96265058D01*
X142013444Y-96246107D01*
X142015610Y-96231872D01*
X142015610Y-96231870D01*
X142016710Y-96224640D01*
X142012426Y-96171971D01*
X142012011Y-96161756D01*
X142012011Y-96153696D01*
X142008722Y-96125482D01*
X142008289Y-96121107D01*
X142002965Y-96055650D01*
X142002964Y-96055647D01*
X142002371Y-96048352D01*
X142000115Y-96041388D01*
X141998924Y-96035429D01*
X141997540Y-96029574D01*
X141996693Y-96022308D01*
X141971776Y-95953662D01*
X141970359Y-95949534D01*
X141950118Y-95887053D01*
X141950117Y-95887051D01*
X141947862Y-95880090D01*
X141944066Y-95873835D01*
X141941560Y-95868361D01*
X141938841Y-95862931D01*
X141936344Y-95856052D01*
X141896320Y-95795005D01*
X141893983Y-95791301D01*
X141859020Y-95733682D01*
X141859016Y-95733677D01*
X141856106Y-95728881D01*
X141848708Y-95720505D01*
X141848734Y-95720482D01*
X141846085Y-95717492D01*
X141843376Y-95714252D01*
X141839367Y-95708137D01*
X141834061Y-95703110D01*
X141834053Y-95703101D01*
X141803663Y-95674313D01*
X141767965Y-95612944D01*
X141771113Y-95542017D01*
X141779618Y-95524660D01*
X141779378Y-95524547D01*
X141783231Y-95516342D01*
X141791943Y-95497786D01*
X141800263Y-95482808D01*
X141811471Y-95465516D01*
X141811473Y-95465511D01*
X141816352Y-95457984D01*
X141818922Y-95449391D01*
X141818924Y-95449386D01*
X141823711Y-95433379D01*
X141830372Y-95415935D01*
X141837467Y-95400823D01*
X141837468Y-95400821D01*
X141841281Y-95392699D01*
X141845830Y-95363482D01*
X141849613Y-95346767D01*
X141855515Y-95327033D01*
X141855516Y-95327027D01*
X141858086Y-95318433D01*
X141858296Y-95283993D01*
X141858329Y-95283210D01*
X141858500Y-95282113D01*
X141858500Y-95251122D01*
X141858502Y-95250352D01*
X141858952Y-95176714D01*
X141858952Y-95176713D01*
X141858976Y-95172778D01*
X141858592Y-95171434D01*
X141858500Y-95170089D01*
X141858500Y-94481577D01*
X141858847Y-94472239D01*
X141861874Y-94431510D01*
X141861874Y-94431509D01*
X141862539Y-94422559D01*
X141860666Y-94413786D01*
X141860666Y-94413782D01*
X141851847Y-94372470D01*
X141850344Y-94364033D01*
X141849613Y-94358930D01*
X141851071Y-94319611D01*
X141851744Y-94317816D01*
X141855252Y-94270611D01*
X141856406Y-94260563D01*
X141857750Y-94251929D01*
X141858500Y-94247114D01*
X141858500Y-94231577D01*
X141858847Y-94222239D01*
X141861874Y-94181510D01*
X141861874Y-94181509D01*
X141862539Y-94172559D01*
X141860666Y-94163784D01*
X141860103Y-94155527D01*
X141858500Y-94140338D01*
X141858500Y-93854122D01*
X141858502Y-93853352D01*
X141858791Y-93806077D01*
X141858976Y-93775778D01*
X141850850Y-93747346D01*
X141847272Y-93730584D01*
X141844352Y-93710197D01*
X141843080Y-93701312D01*
X141832451Y-93677935D01*
X141826004Y-93660412D01*
X141825087Y-93657205D01*
X141818949Y-93635728D01*
X141814156Y-93628131D01*
X141803170Y-93610719D01*
X141795030Y-93595634D01*
X141793427Y-93592109D01*
X141782792Y-93568717D01*
X141766030Y-93549264D01*
X141754927Y-93534260D01*
X141741224Y-93512541D01*
X141734499Y-93506602D01*
X141734496Y-93506598D01*
X141719062Y-93492967D01*
X141707018Y-93480775D01*
X141693573Y-93465172D01*
X141693570Y-93465170D01*
X141687713Y-93458372D01*
X141666165Y-93444405D01*
X141651291Y-93433114D01*
X141638783Y-93422068D01*
X141638782Y-93422067D01*
X141632049Y-93416121D01*
X141605287Y-93403556D01*
X141590309Y-93395236D01*
X141573017Y-93384028D01*
X141573012Y-93384026D01*
X141565485Y-93379147D01*
X141556892Y-93376577D01*
X141556887Y-93376575D01*
X141540880Y-93371788D01*
X141523436Y-93365127D01*
X141508324Y-93358032D01*
X141508322Y-93358031D01*
X141500200Y-93354218D01*
X141491333Y-93352837D01*
X141491332Y-93352837D01*
X141481690Y-93351336D01*
X141470983Y-93349669D01*
X141454268Y-93345886D01*
X141434534Y-93339984D01*
X141434528Y-93339983D01*
X141425934Y-93337413D01*
X141416963Y-93337358D01*
X141416962Y-93337358D01*
X141406903Y-93337297D01*
X141391494Y-93337203D01*
X141390711Y-93337170D01*
X141389614Y-93336999D01*
X141358623Y-93336999D01*
X141357853Y-93336997D01*
X141284215Y-93336547D01*
X141284214Y-93336547D01*
X141280279Y-93336523D01*
X141278935Y-93336907D01*
X141277590Y-93336999D01*
X140999738Y-93336999D01*
X140931617Y-93316997D01*
X140910643Y-93300094D01*
X140863933Y-93253384D01*
X140829907Y-93191072D01*
X140827028Y-93164289D01*
X140827028Y-92738500D01*
X140847030Y-92670379D01*
X140900686Y-92623886D01*
X140953028Y-92612500D01*
X141066664Y-92612500D01*
X141128846Y-92605745D01*
X141255773Y-92558162D01*
X141326581Y-92552979D01*
X141344227Y-92558160D01*
X141471159Y-92605745D01*
X141533341Y-92612500D01*
X142264609Y-92612500D01*
X142268006Y-92612131D01*
X142294646Y-92609237D01*
X142308254Y-92608500D01*
X142352148Y-92608500D01*
X142398458Y-92620347D01*
X142399295Y-92618115D01*
X142535684Y-92669245D01*
X142597866Y-92676000D01*
X143202134Y-92676000D01*
X143205531Y-92675631D01*
X143256466Y-92670098D01*
X143256468Y-92670098D01*
X143264316Y-92669245D01*
X143271709Y-92666473D01*
X143271711Y-92666473D01*
X143352329Y-92636251D01*
X143410165Y-92628970D01*
X143448468Y-92633131D01*
X143448472Y-92633131D01*
X143451867Y-92633500D01*
X143828135Y-92633500D01*
X143890317Y-92626745D01*
X144026706Y-92575615D01*
X144124435Y-92502371D01*
X144190941Y-92477523D01*
X144260324Y-92492576D01*
X144275564Y-92502371D01*
X144373294Y-92575615D01*
X144509683Y-92626745D01*
X144571865Y-92633500D01*
X144948133Y-92633500D01*
X145010315Y-92626745D01*
X145037595Y-92616518D01*
X145081825Y-92608500D01*
X145111500Y-92608500D01*
X145179621Y-92628502D01*
X145226114Y-92682158D01*
X145237500Y-92734500D01*
X145237500Y-93413579D01*
X145237869Y-93416975D01*
X145237869Y-93416976D01*
X145240763Y-93443616D01*
X145241500Y-93457224D01*
X145241500Y-94841751D01*
X145240763Y-94855359D01*
X145237500Y-94885396D01*
X145237500Y-95616664D01*
X145244255Y-95678846D01*
X145291838Y-95805773D01*
X145297021Y-95876581D01*
X145291840Y-95894227D01*
X145244255Y-96021159D01*
X145237500Y-96083341D01*
X145237500Y-96814609D01*
X145237869Y-96818005D01*
X145237869Y-96818006D01*
X145240763Y-96844646D01*
X145241500Y-96858254D01*
X145241500Y-97052148D01*
X145229653Y-97098458D01*
X145231885Y-97099295D01*
X145180755Y-97235684D01*
X145174000Y-97297866D01*
X145174000Y-97902134D01*
X145180755Y-97964316D01*
X145220502Y-98070341D01*
X145231722Y-98100270D01*
X145237820Y-98158782D01*
X145238157Y-98158794D01*
X145238073Y-98161205D01*
X145238307Y-98163450D01*
X145236801Y-98173349D01*
X145237394Y-98180641D01*
X145237394Y-98180644D01*
X145241085Y-98226018D01*
X145241500Y-98236233D01*
X145241500Y-98244293D01*
X145241925Y-98247937D01*
X145244789Y-98272507D01*
X145245222Y-98276882D01*
X145250494Y-98341693D01*
X145251140Y-98349637D01*
X145253396Y-98356601D01*
X145254587Y-98362560D01*
X145255971Y-98368415D01*
X145256818Y-98375681D01*
X145281735Y-98444327D01*
X145283152Y-98448455D01*
X145302532Y-98508276D01*
X145305649Y-98517899D01*
X145309445Y-98524154D01*
X145311951Y-98529628D01*
X145314670Y-98535058D01*
X145317167Y-98541937D01*
X145321180Y-98548057D01*
X145321180Y-98548058D01*
X145357186Y-98602976D01*
X145359523Y-98606680D01*
X145397405Y-98669107D01*
X145401121Y-98673315D01*
X145401122Y-98673316D01*
X145404803Y-98677484D01*
X145404776Y-98677508D01*
X145407429Y-98680500D01*
X145410132Y-98683733D01*
X145414144Y-98689852D01*
X145419456Y-98694884D01*
X145470383Y-98743128D01*
X145472825Y-98745506D01*
X146316230Y-99588911D01*
X146328616Y-99603323D01*
X146337149Y-99614918D01*
X146337154Y-99614923D01*
X146341492Y-99620818D01*
X146347070Y-99625557D01*
X146347073Y-99625560D01*
X146381768Y-99655035D01*
X146389284Y-99661965D01*
X146394979Y-99667660D01*
X146397861Y-99669940D01*
X146417251Y-99685281D01*
X146420655Y-99688072D01*
X146470703Y-99730591D01*
X146476285Y-99735333D01*
X146482803Y-99738661D01*
X146487843Y-99742023D01*
X146492977Y-99745193D01*
X146498716Y-99749734D01*
X146564875Y-99780655D01*
X146568769Y-99782558D01*
X146633808Y-99815769D01*
X146640916Y-99817508D01*
X146646559Y-99819607D01*
X146652322Y-99821524D01*
X146658950Y-99824622D01*
X146666112Y-99826112D01*
X146666113Y-99826112D01*
X146730412Y-99839486D01*
X146734696Y-99840456D01*
X146805610Y-99857808D01*
X146811212Y-99858156D01*
X146811215Y-99858156D01*
X146816764Y-99858500D01*
X146816762Y-99858536D01*
X146820755Y-99858775D01*
X146824947Y-99859149D01*
X146832115Y-99860640D01*
X146909520Y-99858546D01*
X146912928Y-99858500D01*
X147958493Y-99858500D01*
X147958496Y-99858499D01*
X148853178Y-99858499D01*
X148861962Y-99857808D01*
X148882674Y-99856179D01*
X148882677Y-99856178D01*
X148889089Y-99855674D01*
X149042793Y-99811018D01*
X149070776Y-99794469D01*
X149173743Y-99733576D01*
X149173747Y-99733573D01*
X149180563Y-99729542D01*
X149293742Y-99616363D01*
X149297773Y-99609547D01*
X149297776Y-99609543D01*
X149371184Y-99485414D01*
X149375218Y-99478593D01*
X149382055Y-99455060D01*
X149418078Y-99331072D01*
X149418079Y-99331069D01*
X149419874Y-99324889D01*
X149420870Y-99312238D01*
X149422507Y-99291438D01*
X149422508Y-99291425D01*
X149422700Y-99288979D01*
X149422699Y-98911022D01*
X149419874Y-98875111D01*
X149375218Y-98721407D01*
X149349242Y-98677484D01*
X149297776Y-98590457D01*
X149297773Y-98590453D01*
X149293742Y-98583637D01*
X149180563Y-98470458D01*
X149173747Y-98466427D01*
X149173743Y-98466424D01*
X149049614Y-98393016D01*
X149049615Y-98393016D01*
X149042793Y-98388982D01*
X148951850Y-98362560D01*
X148895272Y-98346122D01*
X148895269Y-98346121D01*
X148889089Y-98344326D01*
X148876438Y-98343330D01*
X148855638Y-98341693D01*
X148855625Y-98341692D01*
X148853179Y-98341500D01*
X147266371Y-98341500D01*
X147198250Y-98321498D01*
X147177276Y-98304595D01*
X146862905Y-97990224D01*
X146828879Y-97927912D01*
X146826000Y-97901129D01*
X146826000Y-97297866D01*
X146819245Y-97235684D01*
X146768115Y-97099295D01*
X146770347Y-97098458D01*
X146758500Y-97052148D01*
X146758500Y-96858254D01*
X146759237Y-96844646D01*
X146762131Y-96818006D01*
X146762131Y-96818005D01*
X146762500Y-96814609D01*
X146762500Y-96083341D01*
X146755745Y-96021159D01*
X146708162Y-95894231D01*
X146702979Y-95823426D01*
X146708162Y-95805773D01*
X146755745Y-95678846D01*
X146762500Y-95616664D01*
X146762500Y-94885396D01*
X146759237Y-94855359D01*
X146758500Y-94841751D01*
X146758500Y-94787568D01*
X146778502Y-94719447D01*
X146783674Y-94712003D01*
X146861701Y-94607892D01*
X146861702Y-94607890D01*
X146867087Y-94600705D01*
X146918217Y-94464316D01*
X146924972Y-94402134D01*
X146924972Y-93797866D01*
X146918217Y-93735684D01*
X146867087Y-93599295D01*
X146787462Y-93493052D01*
X146762614Y-93426546D01*
X146762499Y-93413588D01*
X146762500Y-93413579D01*
X146762500Y-92726479D01*
X146782502Y-92658358D01*
X146836158Y-92611865D01*
X146906432Y-92601761D01*
X146914759Y-92603346D01*
X146921157Y-92605745D01*
X146946518Y-92608500D01*
X146977494Y-92611865D01*
X146983339Y-92612500D01*
X147714607Y-92612500D01*
X147718004Y-92612131D01*
X147744644Y-92609237D01*
X147758252Y-92608500D01*
X147852148Y-92608500D01*
X147898458Y-92620347D01*
X147899295Y-92618115D01*
X148035684Y-92669245D01*
X148097866Y-92676000D01*
X148702134Y-92676000D01*
X148764316Y-92669245D01*
X148900705Y-92618115D01*
X148901542Y-92620347D01*
X148947852Y-92608500D01*
X148991751Y-92608500D01*
X149005359Y-92609237D01*
X149031999Y-92612131D01*
X149035396Y-92612500D01*
X149766664Y-92612500D01*
X149828846Y-92605745D01*
X149955773Y-92558162D01*
X150026581Y-92552979D01*
X150044227Y-92558160D01*
X150171159Y-92605745D01*
X150233341Y-92612500D01*
X150567729Y-92612500D01*
X150567729Y-92613220D01*
X150569778Y-92612812D01*
X150572324Y-92613199D01*
X150579621Y-92612606D01*
X150581670Y-92612677D01*
X150586031Y-92612500D01*
X150964609Y-92612500D01*
X151026791Y-92605745D01*
X151163180Y-92554615D01*
X151279736Y-92467261D01*
X151367090Y-92350705D01*
X151418220Y-92214316D01*
X151424975Y-92152134D01*
X151424975Y-91547866D01*
X151418220Y-91485684D01*
X151415448Y-91478289D01*
X151415446Y-91478282D01*
X151396263Y-91427112D01*
X151391080Y-91356305D01*
X151409917Y-91314995D01*
X151409448Y-91314738D01*
X151412954Y-91308335D01*
X151413415Y-91307323D01*
X151413759Y-91306864D01*
X151413762Y-91306858D01*
X151419142Y-91299680D01*
X151470272Y-91163291D01*
X151477027Y-91101109D01*
X151477027Y-90496841D01*
X151470272Y-90434659D01*
X151419142Y-90298270D01*
X151394492Y-90265379D01*
X151383674Y-90250945D01*
X151358826Y-90184438D01*
X151358500Y-90175380D01*
X151358500Y-90167791D01*
X151359783Y-90149859D01*
X151362860Y-90128458D01*
X151362861Y-90128445D01*
X151363500Y-90124000D01*
X151363500Y-90119504D01*
X151363655Y-90117336D01*
X151388463Y-90050814D01*
X151445297Y-90008265D01*
X151489307Y-90000319D01*
X152565473Y-90000088D01*
X152633598Y-90020075D01*
X152680102Y-90073721D01*
X152691500Y-90126088D01*
X152691500Y-107265500D01*
X152671498Y-107333621D01*
X152617842Y-107380114D01*
X152565500Y-107391500D01*
X113630820Y-107391500D01*
X113562699Y-107371498D01*
X113516206Y-107317842D01*
X113504820Y-107265500D01*
X113504820Y-104698134D01*
X128231500Y-104698134D01*
X128238255Y-104760316D01*
X128289385Y-104896705D01*
X128376739Y-105013261D01*
X128383919Y-105018642D01*
X128455473Y-105072269D01*
X128497988Y-105129128D01*
X128504830Y-105189541D01*
X128486335Y-105330026D01*
X128505153Y-105500475D01*
X128507762Y-105507606D01*
X128507763Y-105507608D01*
X128515688Y-105529264D01*
X128564085Y-105661515D01*
X128568322Y-105667821D01*
X128568324Y-105667824D01*
X128612621Y-105733744D01*
X128659730Y-105803849D01*
X128786565Y-105919260D01*
X128937268Y-106001085D01*
X129103139Y-106044601D01*
X129190586Y-106045974D01*
X129267003Y-106047175D01*
X129267006Y-106047175D01*
X129274602Y-106047294D01*
X129282006Y-106045598D01*
X129282008Y-106045598D01*
X129344846Y-106031206D01*
X129441759Y-106009010D01*
X129594958Y-105931959D01*
X129600731Y-105927028D01*
X129600736Y-105927025D01*
X129719691Y-105825428D01*
X129784480Y-105796397D01*
X129854680Y-105807002D01*
X129886321Y-105828045D01*
X129986565Y-105919260D01*
X130137268Y-106001085D01*
X130303139Y-106044601D01*
X130390586Y-106045974D01*
X130467003Y-106047175D01*
X130467006Y-106047175D01*
X130474602Y-106047294D01*
X130482006Y-106045598D01*
X130482008Y-106045598D01*
X130544846Y-106031206D01*
X130641759Y-106009010D01*
X130794958Y-105931959D01*
X130800731Y-105927028D01*
X130800736Y-105927025D01*
X130919691Y-105825428D01*
X130984480Y-105796397D01*
X131054680Y-105807002D01*
X131086321Y-105828045D01*
X131186565Y-105919260D01*
X131337268Y-106001085D01*
X131503139Y-106044601D01*
X131590586Y-106045974D01*
X131667003Y-106047175D01*
X131667006Y-106047175D01*
X131674602Y-106047294D01*
X131682006Y-106045598D01*
X131682008Y-106045598D01*
X131744846Y-106031206D01*
X131841759Y-106009010D01*
X131994958Y-105931959D01*
X132000729Y-105927030D01*
X132000732Y-105927028D01*
X132119578Y-105825523D01*
X132125355Y-105820589D01*
X132225424Y-105681330D01*
X132289385Y-105522220D01*
X132313547Y-105352447D01*
X132313704Y-105337500D01*
X132293102Y-105167258D01*
X132290416Y-105160150D01*
X132289279Y-105155520D01*
X132292457Y-105084594D01*
X132336077Y-105024642D01*
X132344075Y-105018648D01*
X132344081Y-105018642D01*
X132351261Y-105013261D01*
X132356642Y-105006081D01*
X132356645Y-105006078D01*
X132433229Y-104903891D01*
X132438615Y-104896705D01*
X132489745Y-104760316D01*
X132496500Y-104698134D01*
X134351500Y-104698134D01*
X134358255Y-104760316D01*
X134409385Y-104896705D01*
X134496739Y-105013261D01*
X134503919Y-105018642D01*
X134503920Y-105018643D01*
X134557269Y-105058626D01*
X134599784Y-105115486D01*
X134606626Y-105175898D01*
X134586335Y-105330026D01*
X134605153Y-105500475D01*
X134607762Y-105507606D01*
X134607763Y-105507608D01*
X134615688Y-105529264D01*
X134664085Y-105661515D01*
X134668322Y-105667821D01*
X134668324Y-105667824D01*
X134712621Y-105733744D01*
X134759730Y-105803849D01*
X134886565Y-105919260D01*
X135037268Y-106001085D01*
X135203139Y-106044601D01*
X135290586Y-106045974D01*
X135367003Y-106047175D01*
X135367006Y-106047175D01*
X135374602Y-106047294D01*
X135382006Y-106045598D01*
X135382008Y-106045598D01*
X135444846Y-106031206D01*
X135541759Y-106009010D01*
X135694958Y-105931959D01*
X135700729Y-105927030D01*
X135700732Y-105927028D01*
X135819578Y-105825523D01*
X135825355Y-105820589D01*
X135925424Y-105681330D01*
X135989385Y-105522220D01*
X136013547Y-105352447D01*
X136013704Y-105337500D01*
X135994148Y-105175898D01*
X135994015Y-105174799D01*
X135994014Y-105174796D01*
X135993102Y-105167258D01*
X135990417Y-105160153D01*
X135990416Y-105160148D01*
X135987404Y-105152176D01*
X135982038Y-105081383D01*
X136016154Y-105018587D01*
X136023261Y-105013261D01*
X136110615Y-104896705D01*
X136161745Y-104760316D01*
X136168500Y-104698134D01*
X136168500Y-104101866D01*
X136161745Y-104039684D01*
X136110615Y-103903295D01*
X136023261Y-103786739D01*
X135906705Y-103699385D01*
X135770316Y-103648255D01*
X135708134Y-103641500D01*
X134811866Y-103641500D01*
X134749684Y-103648255D01*
X134613295Y-103699385D01*
X134496739Y-103786739D01*
X134409385Y-103903295D01*
X134358255Y-104039684D01*
X134351500Y-104101866D01*
X134351500Y-104698134D01*
X132496500Y-104698134D01*
X132496500Y-104101866D01*
X132489745Y-104039684D01*
X132438615Y-103903295D01*
X132351261Y-103786739D01*
X132234705Y-103699385D01*
X132098316Y-103648255D01*
X132036134Y-103641500D01*
X131139866Y-103641500D01*
X131136469Y-103641869D01*
X131085534Y-103647402D01*
X131085532Y-103647402D01*
X131077684Y-103648255D01*
X131070289Y-103651027D01*
X131070286Y-103651028D01*
X131018228Y-103670543D01*
X130947421Y-103675726D01*
X130929772Y-103670543D01*
X130877714Y-103651028D01*
X130877711Y-103651027D01*
X130870316Y-103648255D01*
X130862468Y-103647402D01*
X130862466Y-103647402D01*
X130811531Y-103641869D01*
X130808134Y-103641500D01*
X129911866Y-103641500D01*
X129849684Y-103648255D01*
X129794230Y-103669044D01*
X129723423Y-103674227D01*
X129705770Y-103669044D01*
X129650316Y-103648255D01*
X129588134Y-103641500D01*
X128691866Y-103641500D01*
X128629684Y-103648255D01*
X128493295Y-103699385D01*
X128376739Y-103786739D01*
X128289385Y-103903295D01*
X128238255Y-104039684D01*
X128231500Y-104101866D01*
X128231500Y-104698134D01*
X113504820Y-104698134D01*
X113504820Y-102450735D01*
X117691500Y-102450735D01*
X117698255Y-102512917D01*
X117749385Y-102649306D01*
X117836739Y-102765862D01*
X117953295Y-102853216D01*
X118089684Y-102904346D01*
X118151866Y-102911101D01*
X119248134Y-102911101D01*
X119310316Y-102904346D01*
X119446705Y-102853216D01*
X119563261Y-102765862D01*
X119650615Y-102649306D01*
X119701745Y-102512917D01*
X119708500Y-102450735D01*
X119708500Y-101554467D01*
X119701745Y-101492285D01*
X119650615Y-101355896D01*
X119563261Y-101239340D01*
X119446705Y-101151986D01*
X119310316Y-101100856D01*
X119248134Y-101094101D01*
X118151866Y-101094101D01*
X118089684Y-101100856D01*
X117953295Y-101151986D01*
X117836739Y-101239340D01*
X117749385Y-101355896D01*
X117698255Y-101492285D01*
X117691500Y-101554467D01*
X117691500Y-102450735D01*
X113504820Y-102450735D01*
X113504820Y-100150734D01*
X117691500Y-100150734D01*
X117698255Y-100212916D01*
X117749385Y-100349305D01*
X117836739Y-100465861D01*
X117953295Y-100553215D01*
X118089684Y-100604345D01*
X118151866Y-100611100D01*
X119248134Y-100611100D01*
X119310316Y-100604345D01*
X119446705Y-100553215D01*
X119563261Y-100465861D01*
X119650615Y-100349305D01*
X119701745Y-100212916D01*
X119708500Y-100150734D01*
X119708500Y-99987100D01*
X119728502Y-99918979D01*
X119782158Y-99872486D01*
X119834500Y-99861100D01*
X120136045Y-99861100D01*
X120204166Y-99881102D01*
X120250659Y-99934758D01*
X120260763Y-100005032D01*
X120231269Y-100069612D01*
X120214995Y-100085298D01*
X120205824Y-100092672D01*
X120201866Y-100097389D01*
X120201864Y-100097391D01*
X120119030Y-100196109D01*
X120072392Y-100251690D01*
X120069428Y-100257082D01*
X120069425Y-100257086D01*
X119991699Y-100398469D01*
X119972388Y-100433596D01*
X119909622Y-100631462D01*
X119908936Y-100637579D01*
X119908935Y-100637583D01*
X119897279Y-100741498D01*
X119886483Y-100837751D01*
X119903853Y-101044605D01*
X119961070Y-101244146D01*
X119963888Y-101249628D01*
X119963889Y-101249632D01*
X120017409Y-101353770D01*
X120055956Y-101428774D01*
X120184895Y-101591455D01*
X120189582Y-101595444D01*
X120189585Y-101595447D01*
X120338285Y-101722000D01*
X120342977Y-101725993D01*
X120524181Y-101827265D01*
X120721604Y-101891411D01*
X120927726Y-101915990D01*
X120933861Y-101915518D01*
X120933863Y-101915518D01*
X121128556Y-101900537D01*
X121128561Y-101900536D01*
X121134697Y-101900064D01*
X121140627Y-101898408D01*
X121140629Y-101898408D01*
X121256636Y-101866018D01*
X121334633Y-101844241D01*
X121340133Y-101841463D01*
X121514417Y-101753426D01*
X121514419Y-101753425D01*
X121519918Y-101750647D01*
X121674649Y-101629758D01*
X121678635Y-101626644D01*
X121678636Y-101626643D01*
X121683496Y-101622846D01*
X121819134Y-101465707D01*
X121921668Y-101285215D01*
X121987191Y-101088245D01*
X122013208Y-100882299D01*
X122013623Y-100852601D01*
X122002729Y-100741498D01*
X121993967Y-100652135D01*
X121993966Y-100652132D01*
X121993366Y-100646009D01*
X121938293Y-100463596D01*
X121935153Y-100453194D01*
X121935152Y-100453191D01*
X121933369Y-100447286D01*
X121926090Y-100433596D01*
X121838810Y-100269448D01*
X121838809Y-100269446D01*
X121835914Y-100264002D01*
X121780542Y-100196109D01*
X121708611Y-100107912D01*
X121708608Y-100107909D01*
X121704716Y-100103137D01*
X121697771Y-100097391D01*
X121549519Y-99974746D01*
X121549520Y-99974746D01*
X121544771Y-99970818D01*
X121539354Y-99967889D01*
X121539351Y-99967887D01*
X121367591Y-99875017D01*
X121367586Y-99875015D01*
X121362171Y-99872087D01*
X121163872Y-99810703D01*
X121157747Y-99810059D01*
X121157746Y-99810059D01*
X121086481Y-99802569D01*
X121020824Y-99775556D01*
X120980194Y-99717334D01*
X120977491Y-99646389D01*
X120992392Y-99615166D01*
X120990921Y-99614360D01*
X120995229Y-99606491D01*
X121000615Y-99599305D01*
X121051745Y-99462916D01*
X121058500Y-99400734D01*
X121058500Y-98204466D01*
X121051745Y-98142284D01*
X121000615Y-98005895D01*
X120913261Y-97889339D01*
X120796705Y-97801985D01*
X120660316Y-97750855D01*
X120598134Y-97744100D01*
X119801866Y-97744100D01*
X119739684Y-97750855D01*
X119603295Y-97801985D01*
X119486739Y-97889339D01*
X119399385Y-98005895D01*
X119348255Y-98142284D01*
X119341500Y-98204466D01*
X119341500Y-98668100D01*
X119321498Y-98736221D01*
X119267842Y-98782714D01*
X119215500Y-98794100D01*
X118151866Y-98794100D01*
X118089684Y-98800855D01*
X117953295Y-98851985D01*
X117836739Y-98939339D01*
X117749385Y-99055895D01*
X117698255Y-99192284D01*
X117691500Y-99254466D01*
X117691500Y-100150734D01*
X113504820Y-100150734D01*
X113504820Y-78534500D01*
X113524822Y-78466379D01*
X113578478Y-78419886D01*
X113630820Y-78408500D01*
X123831740Y-78408500D01*
X123899861Y-78428502D01*
G37*
%TD.AperFunction*%
%TA.AperFunction,Conductor*%
G36*
X130742684Y-92624503D02*
G01*
X130785295Y-92681290D01*
X130792965Y-92732785D01*
X130792698Y-92734915D01*
X130792697Y-92968279D01*
X130793196Y-92972213D01*
X130793196Y-92972218D01*
X130794197Y-92980111D01*
X130803609Y-93054357D01*
X130806844Y-93062149D01*
X130808717Y-93069193D01*
X130807063Y-93133327D01*
X130808756Y-93133774D01*
X130806603Y-93141923D01*
X130803387Y-93149706D01*
X130802339Y-93158062D01*
X130802338Y-93158065D01*
X130793192Y-93230977D01*
X130792698Y-93234914D01*
X130792697Y-93468278D01*
X130793196Y-93472212D01*
X130793196Y-93472217D01*
X130795854Y-93493181D01*
X130803609Y-93554356D01*
X130806843Y-93562144D01*
X130808717Y-93569194D01*
X130807065Y-93633330D01*
X130808756Y-93633777D01*
X130806604Y-93641923D01*
X130803387Y-93649708D01*
X130798458Y-93689000D01*
X130793530Y-93728285D01*
X130792698Y-93734916D01*
X130792698Y-93851595D01*
X130792697Y-93968280D01*
X130803609Y-94054358D01*
X130806844Y-94062150D01*
X130808717Y-94069194D01*
X130807063Y-94133328D01*
X130808756Y-94133775D01*
X130806603Y-94141924D01*
X130803387Y-94149707D01*
X130802339Y-94158063D01*
X130802338Y-94158066D01*
X130794288Y-94222239D01*
X130792698Y-94234915D01*
X130792697Y-94468279D01*
X130803392Y-94552643D01*
X130792116Y-94622737D01*
X130744733Y-94675609D01*
X130707806Y-94691007D01*
X130634617Y-94708578D01*
X130634615Y-94708579D01*
X130627237Y-94710350D01*
X130474853Y-94789001D01*
X130345629Y-94901731D01*
X130247024Y-95042031D01*
X130207426Y-95143595D01*
X130202094Y-95157270D01*
X130158713Y-95213471D01*
X130084701Y-95237500D01*
X130034366Y-95237500D01*
X129972184Y-95244255D01*
X129835795Y-95295385D01*
X129719239Y-95382739D01*
X129631885Y-95499295D01*
X129628733Y-95507704D01*
X129627445Y-95510056D01*
X129618973Y-95521988D01*
X129619615Y-95522439D01*
X129521010Y-95662739D01*
X129503310Y-95708137D01*
X129468963Y-95796233D01*
X129458718Y-95822509D01*
X129457726Y-95830042D01*
X129457726Y-95830043D01*
X129450221Y-95887053D01*
X129436335Y-95992526D01*
X129443304Y-96055650D01*
X129454129Y-96153696D01*
X129455153Y-96162975D01*
X129457762Y-96170106D01*
X129457763Y-96170108D01*
X129477719Y-96224640D01*
X129514085Y-96324015D01*
X129518322Y-96330321D01*
X129518324Y-96330324D01*
X129585530Y-96430336D01*
X129606923Y-96498033D01*
X129588319Y-96566549D01*
X129584041Y-96573056D01*
X129521010Y-96662739D01*
X129458718Y-96822509D01*
X129457726Y-96830042D01*
X129457726Y-96830043D01*
X129438275Y-96977793D01*
X129436335Y-96992526D01*
X129442952Y-97052460D01*
X129453382Y-97146931D01*
X129455153Y-97162975D01*
X129514085Y-97324015D01*
X129595725Y-97445507D01*
X129617116Y-97513202D01*
X129609124Y-97560009D01*
X129580755Y-97635684D01*
X129574000Y-97697866D01*
X129574000Y-98302134D01*
X129580755Y-98364316D01*
X129610519Y-98443711D01*
X129615040Y-98455770D01*
X129620223Y-98526577D01*
X129615041Y-98544228D01*
X129580755Y-98635684D01*
X129574000Y-98697866D01*
X129574000Y-99302134D01*
X129580755Y-99364316D01*
X129631885Y-99500705D01*
X129637264Y-99507883D01*
X129637269Y-99507891D01*
X129638481Y-99509508D01*
X129639183Y-99511386D01*
X129641579Y-99515763D01*
X129640947Y-99516109D01*
X129663328Y-99576015D01*
X129655636Y-99629300D01*
X129618529Y-99728282D01*
X129618527Y-99728288D01*
X129615755Y-99735684D01*
X129609000Y-99797866D01*
X129609000Y-100013261D01*
X129588998Y-100081382D01*
X129572095Y-100102356D01*
X129127306Y-100547145D01*
X129064994Y-100581171D01*
X128994179Y-100576106D01*
X128937343Y-100533559D01*
X128917283Y-100479506D01*
X128914694Y-100480059D01*
X128904002Y-100429971D01*
X128902499Y-100421534D01*
X128901768Y-100416431D01*
X128903226Y-100377112D01*
X128903899Y-100375317D01*
X128907407Y-100328112D01*
X128908561Y-100318064D01*
X128909905Y-100309430D01*
X128910655Y-100304615D01*
X128910655Y-100289078D01*
X128911002Y-100279740D01*
X128914029Y-100239011D01*
X128914029Y-100239010D01*
X128914694Y-100230060D01*
X128912821Y-100221285D01*
X128912258Y-100213028D01*
X128910655Y-100197839D01*
X128910655Y-99911623D01*
X128910657Y-99910853D01*
X128910975Y-99858775D01*
X128911131Y-99833279D01*
X128903005Y-99804847D01*
X128899427Y-99788085D01*
X128898359Y-99780629D01*
X128895235Y-99758813D01*
X128884606Y-99735436D01*
X128878159Y-99717913D01*
X128871104Y-99693229D01*
X128866311Y-99685632D01*
X128855325Y-99668220D01*
X128847185Y-99653135D01*
X128844118Y-99646389D01*
X128834947Y-99626218D01*
X128818185Y-99606765D01*
X128807082Y-99591761D01*
X128793379Y-99570042D01*
X128786654Y-99564103D01*
X128786651Y-99564099D01*
X128771217Y-99550468D01*
X128759173Y-99538276D01*
X128745728Y-99522673D01*
X128745725Y-99522671D01*
X128739868Y-99515873D01*
X128727554Y-99507891D01*
X128718320Y-99501906D01*
X128703446Y-99490615D01*
X128690936Y-99479567D01*
X128690934Y-99479566D01*
X128684204Y-99473622D01*
X128676078Y-99469807D01*
X128670420Y-99466090D01*
X128624467Y-99411972D01*
X128613605Y-99359460D01*
X128613661Y-99354136D01*
X128613661Y-99354129D01*
X128613704Y-99350000D01*
X128606617Y-99291438D01*
X128594015Y-99187299D01*
X128594014Y-99187296D01*
X128593102Y-99179758D01*
X128577046Y-99137265D01*
X128535171Y-99026447D01*
X128532487Y-99019344D01*
X128464995Y-98921142D01*
X128439659Y-98884278D01*
X128439658Y-98884276D01*
X128435357Y-98878019D01*
X128425159Y-98868933D01*
X128312993Y-98768996D01*
X128312990Y-98768994D01*
X128307321Y-98763943D01*
X128268009Y-98743128D01*
X128182524Y-98697866D01*
X128155769Y-98683700D01*
X128131022Y-98677484D01*
X127996822Y-98643775D01*
X127996818Y-98643775D01*
X127989451Y-98641924D01*
X127981852Y-98641884D01*
X127981850Y-98641884D01*
X127910394Y-98641510D01*
X127817969Y-98641026D01*
X127810589Y-98642798D01*
X127810587Y-98642798D01*
X127658602Y-98679286D01*
X127658598Y-98679287D01*
X127651223Y-98681058D01*
X127644480Y-98684538D01*
X127637353Y-98687189D01*
X127636245Y-98684211D01*
X127580715Y-98694942D01*
X127514791Y-98668589D01*
X127492660Y-98646203D01*
X127489849Y-98642539D01*
X127457994Y-98601025D01*
X127457988Y-98601017D01*
X127457985Y-98601014D01*
X127433498Y-98569102D01*
X127426943Y-98564072D01*
X127408132Y-98549637D01*
X127395741Y-98538770D01*
X127263337Y-98406366D01*
X127252470Y-98393975D01*
X127238035Y-98375163D01*
X127233009Y-98368613D01*
X127201097Y-98344126D01*
X127201094Y-98344123D01*
X127171609Y-98321498D01*
X127112451Y-98276104D01*
X127112449Y-98276103D01*
X127105898Y-98271076D01*
X126957873Y-98209762D01*
X126949686Y-98208684D01*
X126949685Y-98208684D01*
X126932601Y-98206435D01*
X126838915Y-98194101D01*
X126838913Y-98194101D01*
X126838907Y-98194100D01*
X126838905Y-98194100D01*
X126838896Y-98194099D01*
X126807211Y-98189928D01*
X126799022Y-98188850D01*
X126767329Y-98193022D01*
X126750886Y-98194100D01*
X125658499Y-98194100D01*
X125590378Y-98174098D01*
X125543885Y-98120442D01*
X125540517Y-98112329D01*
X125527921Y-98078729D01*
X125522738Y-98007922D01*
X125556659Y-97945553D01*
X125618915Y-97911424D01*
X125645903Y-97908500D01*
X125851862Y-97908500D01*
X125868305Y-97909578D01*
X125899998Y-97913750D01*
X125908187Y-97912672D01*
X125939872Y-97908501D01*
X125939882Y-97908500D01*
X125939883Y-97908500D01*
X126039455Y-97895391D01*
X126050662Y-97893916D01*
X126050664Y-97893915D01*
X126058849Y-97892838D01*
X126206874Y-97831524D01*
X126242485Y-97804199D01*
X126302070Y-97758477D01*
X126302073Y-97758474D01*
X126327435Y-97739013D01*
X126333985Y-97733987D01*
X126353456Y-97708613D01*
X126364314Y-97696233D01*
X126696234Y-97364313D01*
X126708625Y-97353446D01*
X126727437Y-97339011D01*
X126733987Y-97333985D01*
X126758474Y-97302073D01*
X126758480Y-97302067D01*
X126826496Y-97213427D01*
X126826497Y-97213425D01*
X126831524Y-97206874D01*
X126862213Y-97132783D01*
X126892838Y-97058848D01*
X126908500Y-96939883D01*
X126908500Y-96939876D01*
X126913750Y-96899998D01*
X126909578Y-96868305D01*
X126908500Y-96851862D01*
X126908500Y-96134500D01*
X126928502Y-96066379D01*
X126982158Y-96019886D01*
X127034500Y-96008500D01*
X127651864Y-96008500D01*
X127668307Y-96009578D01*
X127700000Y-96013750D01*
X127708189Y-96012672D01*
X127739874Y-96008501D01*
X127739884Y-96008500D01*
X127739885Y-96008500D01*
X127846507Y-95994463D01*
X127850664Y-95993916D01*
X127850666Y-95993916D01*
X127858851Y-95992838D01*
X128006876Y-95931524D01*
X128102072Y-95858477D01*
X128102075Y-95858474D01*
X128133987Y-95833987D01*
X128153458Y-95808613D01*
X128164316Y-95796233D01*
X129296231Y-94664318D01*
X129308623Y-94653450D01*
X129327433Y-94639017D01*
X129327437Y-94639013D01*
X129333987Y-94633987D01*
X129358474Y-94602075D01*
X129358477Y-94602072D01*
X129425813Y-94514318D01*
X129431524Y-94506875D01*
X129434683Y-94499248D01*
X129434685Y-94499245D01*
X129489678Y-94366479D01*
X129492838Y-94358850D01*
X129508500Y-94239885D01*
X129508500Y-94239878D01*
X129513750Y-94200000D01*
X129509578Y-94168307D01*
X129508500Y-94151864D01*
X129508500Y-93264039D01*
X129525546Y-93200754D01*
X129564710Y-93133327D01*
X129600326Y-93072010D01*
X129605936Y-93053489D01*
X129649473Y-92909739D01*
X129651595Y-92902733D01*
X129658277Y-92795034D01*
X129682459Y-92728283D01*
X129738891Y-92685202D01*
X129790998Y-92678410D01*
X129791072Y-92677045D01*
X129794469Y-92677229D01*
X129797866Y-92677598D01*
X130402134Y-92677598D01*
X130464316Y-92670843D01*
X130552274Y-92637869D01*
X130592303Y-92622863D01*
X130592304Y-92622862D01*
X130600705Y-92619713D01*
X130607201Y-92614845D01*
X130676136Y-92599767D01*
X130742684Y-92624503D01*
G37*
%TD.AperFunction*%
%TA.AperFunction,Conductor*%
G36*
X134741328Y-97988064D02*
G01*
X134772968Y-98009108D01*
X134792242Y-98026646D01*
X134792246Y-98026649D01*
X134797863Y-98031760D01*
X134830943Y-98049721D01*
X134868920Y-98070341D01*
X134919242Y-98120424D01*
X134934798Y-98181072D01*
X134934798Y-98348487D01*
X134914796Y-98416608D01*
X134861140Y-98463101D01*
X134790866Y-98473205D01*
X134726286Y-98443711D01*
X134724957Y-98442473D01*
X134720659Y-98436739D01*
X134604103Y-98349385D01*
X134540270Y-98325455D01*
X134483506Y-98282813D01*
X134458806Y-98216252D01*
X134458500Y-98207473D01*
X134458500Y-98176448D01*
X134478502Y-98108327D01*
X134527885Y-98063884D01*
X134548469Y-98053531D01*
X134548472Y-98053529D01*
X134555256Y-98050117D01*
X134561029Y-98045186D01*
X134561034Y-98045183D01*
X134606338Y-98006490D01*
X134671128Y-97977459D01*
X134741328Y-97988064D01*
G37*
%TD.AperFunction*%
%TA.AperFunction,Conductor*%
G36*
X134304830Y-90355859D02*
G01*
X134349893Y-90384820D01*
X134352888Y-90387815D01*
X134352896Y-90387822D01*
X134355709Y-90390635D01*
X134424289Y-90443785D01*
X134558907Y-90499408D01*
X134567267Y-90500457D01*
X134567268Y-90500457D01*
X134640206Y-90509607D01*
X134640212Y-90509607D01*
X134644115Y-90510097D01*
X134760266Y-90510097D01*
X134873505Y-90510098D01*
X134877479Y-90510098D01*
X134881413Y-90509599D01*
X134881418Y-90509599D01*
X134953531Y-90500457D01*
X134963557Y-90499186D01*
X134971349Y-90495951D01*
X134978393Y-90494078D01*
X135042527Y-90495732D01*
X135042974Y-90494039D01*
X135051123Y-90496192D01*
X135058906Y-90499408D01*
X135067262Y-90500456D01*
X135067265Y-90500457D01*
X135140205Y-90509607D01*
X135140211Y-90509607D01*
X135144114Y-90510097D01*
X135260265Y-90510097D01*
X135373504Y-90510098D01*
X135377478Y-90510098D01*
X135381412Y-90509599D01*
X135381417Y-90509599D01*
X135455189Y-90500247D01*
X135455191Y-90500246D01*
X135463556Y-90499186D01*
X135471346Y-90495951D01*
X135478392Y-90494078D01*
X135542530Y-90495730D01*
X135542977Y-90494039D01*
X135551120Y-90496190D01*
X135558907Y-90499408D01*
X135567267Y-90500457D01*
X135567268Y-90500457D01*
X135640206Y-90509607D01*
X135640212Y-90509607D01*
X135644115Y-90510097D01*
X135760266Y-90510097D01*
X135873505Y-90510098D01*
X135877479Y-90510098D01*
X135881413Y-90509599D01*
X135881418Y-90509599D01*
X135953531Y-90500457D01*
X135963557Y-90499186D01*
X135971349Y-90495951D01*
X135978393Y-90494078D01*
X136042527Y-90495732D01*
X136042974Y-90494039D01*
X136051123Y-90496192D01*
X136058906Y-90499408D01*
X136067262Y-90500456D01*
X136067265Y-90500457D01*
X136140205Y-90509607D01*
X136140211Y-90509607D01*
X136144114Y-90510097D01*
X136260265Y-90510097D01*
X136373504Y-90510098D01*
X136377478Y-90510098D01*
X136381412Y-90509599D01*
X136381417Y-90509599D01*
X136414509Y-90505404D01*
X136463556Y-90499186D01*
X136471344Y-90495952D01*
X136478394Y-90494078D01*
X136542530Y-90495730D01*
X136542977Y-90494039D01*
X136551123Y-90496191D01*
X136558908Y-90499408D01*
X136602909Y-90504928D01*
X136640207Y-90509607D01*
X136640213Y-90509607D01*
X136644116Y-90510097D01*
X136760267Y-90510097D01*
X136873506Y-90510098D01*
X136877480Y-90510098D01*
X136881414Y-90509599D01*
X136881419Y-90509599D01*
X136953532Y-90500457D01*
X136963558Y-90499186D01*
X136971350Y-90495951D01*
X136978394Y-90494078D01*
X137042528Y-90495732D01*
X137042975Y-90494039D01*
X137051124Y-90496192D01*
X137058907Y-90499408D01*
X137067263Y-90500456D01*
X137067266Y-90500457D01*
X137140206Y-90509607D01*
X137140212Y-90509607D01*
X137144115Y-90510097D01*
X137260266Y-90510097D01*
X137373505Y-90510098D01*
X137377479Y-90510098D01*
X137381413Y-90509599D01*
X137381418Y-90509599D01*
X137462692Y-90499296D01*
X137532788Y-90510573D01*
X137585659Y-90557956D01*
X137604520Y-90626401D01*
X137601450Y-90648587D01*
X137600988Y-90649706D01*
X137599939Y-90658068D01*
X137594180Y-90703979D01*
X137590299Y-90734914D01*
X137590298Y-90968278D01*
X137590797Y-90972212D01*
X137590797Y-90972217D01*
X137600149Y-91045989D01*
X137601210Y-91054356D01*
X137657068Y-91188878D01*
X137709762Y-91256688D01*
X137712543Y-91259469D01*
X137712551Y-91259478D01*
X137715576Y-91262503D01*
X137749602Y-91324815D01*
X137744537Y-91395630D01*
X137715576Y-91440693D01*
X137712581Y-91443688D01*
X137712574Y-91443696D01*
X137709761Y-91446509D01*
X137656611Y-91515089D01*
X137600988Y-91649707D01*
X137599939Y-91658067D01*
X137599939Y-91658068D01*
X137598128Y-91672509D01*
X137590299Y-91734915D01*
X137590298Y-91968279D01*
X137590797Y-91972213D01*
X137590797Y-91972218D01*
X137597294Y-92023470D01*
X137601210Y-92054357D01*
X137604445Y-92062147D01*
X137606318Y-92069193D01*
X137604666Y-92133331D01*
X137606357Y-92133778D01*
X137604206Y-92141921D01*
X137600988Y-92149708D01*
X137599939Y-92158068D01*
X137599939Y-92158069D01*
X137592001Y-92221352D01*
X137590299Y-92234916D01*
X137590298Y-92468280D01*
X137590797Y-92472214D01*
X137590797Y-92472219D01*
X137595599Y-92510098D01*
X137601210Y-92554358D01*
X137604445Y-92562150D01*
X137606318Y-92569194D01*
X137604664Y-92633328D01*
X137606357Y-92633775D01*
X137604204Y-92641924D01*
X137600988Y-92649707D01*
X137599940Y-92658063D01*
X137599939Y-92658066D01*
X137591392Y-92726202D01*
X137590299Y-92734915D01*
X137590298Y-92968279D01*
X137590797Y-92972213D01*
X137590797Y-92972218D01*
X137591798Y-92980111D01*
X137601210Y-93054357D01*
X137604445Y-93062149D01*
X137606318Y-93069193D01*
X137604664Y-93133327D01*
X137606357Y-93133774D01*
X137604204Y-93141923D01*
X137600988Y-93149706D01*
X137599940Y-93158062D01*
X137599939Y-93158065D01*
X137590793Y-93230977D01*
X137590299Y-93234914D01*
X137590298Y-93468278D01*
X137590797Y-93472212D01*
X137590797Y-93472217D01*
X137593455Y-93493181D01*
X137601210Y-93554356D01*
X137604444Y-93562144D01*
X137606318Y-93569194D01*
X137604666Y-93633330D01*
X137606357Y-93633777D01*
X137604205Y-93641923D01*
X137600988Y-93649708D01*
X137596059Y-93689000D01*
X137591131Y-93728285D01*
X137590299Y-93734916D01*
X137590299Y-93851595D01*
X137590298Y-93968280D01*
X137601210Y-94054358D01*
X137604445Y-94062150D01*
X137606318Y-94069194D01*
X137604664Y-94133328D01*
X137606357Y-94133775D01*
X137604204Y-94141924D01*
X137600988Y-94149707D01*
X137599940Y-94158063D01*
X137599939Y-94158066D01*
X137591889Y-94222239D01*
X137590299Y-94234915D01*
X137590298Y-94468279D01*
X137590797Y-94472213D01*
X137590797Y-94472218D01*
X137596021Y-94513427D01*
X137601210Y-94554357D01*
X137604445Y-94562147D01*
X137606318Y-94569193D01*
X137604666Y-94633331D01*
X137606357Y-94633778D01*
X137604206Y-94641921D01*
X137600988Y-94649708D01*
X137599939Y-94658068D01*
X137599939Y-94658069D01*
X137592240Y-94719447D01*
X137590299Y-94734916D01*
X137590298Y-94968280D01*
X137590797Y-94972214D01*
X137590797Y-94972219D01*
X137595411Y-95008616D01*
X137601210Y-95054358D01*
X137604445Y-95062150D01*
X137606318Y-95069194D01*
X137604664Y-95133328D01*
X137606357Y-95133775D01*
X137604204Y-95141924D01*
X137600988Y-95149707D01*
X137599940Y-95158063D01*
X137599939Y-95158066D01*
X137592989Y-95213471D01*
X137590299Y-95234915D01*
X137590298Y-95468279D01*
X137590797Y-95472213D01*
X137590797Y-95472218D01*
X137601210Y-95554357D01*
X137599082Y-95554627D01*
X137597556Y-95614061D01*
X137557652Y-95672782D01*
X137492336Y-95700608D01*
X137461929Y-95700491D01*
X137381392Y-95690388D01*
X137381382Y-95690387D01*
X137377481Y-95689898D01*
X137261330Y-95689898D01*
X137148091Y-95689897D01*
X137144117Y-95689897D01*
X137140183Y-95690396D01*
X137140178Y-95690396D01*
X137076529Y-95698465D01*
X137058039Y-95700809D01*
X137050247Y-95704044D01*
X137043203Y-95705917D01*
X136979069Y-95704263D01*
X136978622Y-95705956D01*
X136970473Y-95703803D01*
X136962690Y-95700587D01*
X136954334Y-95699539D01*
X136954331Y-95699538D01*
X136881391Y-95690388D01*
X136881385Y-95690388D01*
X136877482Y-95689898D01*
X136761331Y-95689898D01*
X136648092Y-95689897D01*
X136644118Y-95689897D01*
X136640184Y-95690396D01*
X136640179Y-95690396D01*
X136607087Y-95694591D01*
X136558040Y-95700809D01*
X136550252Y-95704043D01*
X136543202Y-95705917D01*
X136479066Y-95704265D01*
X136478619Y-95705956D01*
X136470473Y-95703804D01*
X136462688Y-95700587D01*
X136418687Y-95695067D01*
X136381389Y-95690388D01*
X136381383Y-95690388D01*
X136377480Y-95689898D01*
X136261329Y-95689898D01*
X136148090Y-95689897D01*
X136144116Y-95689897D01*
X136140182Y-95690396D01*
X136140177Y-95690396D01*
X136076528Y-95698465D01*
X136058038Y-95700809D01*
X136050246Y-95704044D01*
X136043202Y-95705917D01*
X135979068Y-95704263D01*
X135978621Y-95705956D01*
X135970472Y-95703803D01*
X135962689Y-95700587D01*
X135954333Y-95699539D01*
X135954330Y-95699538D01*
X135881390Y-95690388D01*
X135881384Y-95690388D01*
X135877481Y-95689898D01*
X135761330Y-95689898D01*
X135648091Y-95689897D01*
X135644117Y-95689897D01*
X135640183Y-95690396D01*
X135640178Y-95690396D01*
X135566406Y-95699748D01*
X135566404Y-95699749D01*
X135558039Y-95700809D01*
X135550249Y-95704044D01*
X135543203Y-95705917D01*
X135479065Y-95704265D01*
X135478618Y-95705956D01*
X135470475Y-95703805D01*
X135462688Y-95700587D01*
X135454328Y-95699538D01*
X135454327Y-95699538D01*
X135381389Y-95690388D01*
X135381383Y-95690388D01*
X135377480Y-95689898D01*
X135261329Y-95689898D01*
X135148090Y-95689897D01*
X135144116Y-95689897D01*
X135140182Y-95690396D01*
X135140177Y-95690396D01*
X135076528Y-95698465D01*
X135058038Y-95700809D01*
X135050246Y-95704044D01*
X135043202Y-95705917D01*
X134979068Y-95704263D01*
X134978621Y-95705956D01*
X134970472Y-95703803D01*
X134962689Y-95700587D01*
X134954333Y-95699539D01*
X134954330Y-95699538D01*
X134881390Y-95690388D01*
X134881384Y-95690388D01*
X134877481Y-95689898D01*
X134761330Y-95689898D01*
X134648091Y-95689897D01*
X134644117Y-95689897D01*
X134640183Y-95690396D01*
X134640178Y-95690396D01*
X134576529Y-95698465D01*
X134558039Y-95700809D01*
X134550247Y-95704044D01*
X134543203Y-95705917D01*
X134479069Y-95704263D01*
X134478622Y-95705956D01*
X134470473Y-95703803D01*
X134462690Y-95700587D01*
X134454334Y-95699539D01*
X134454331Y-95699538D01*
X134381391Y-95690388D01*
X134381385Y-95690388D01*
X134377482Y-95689898D01*
X134261331Y-95689898D01*
X134148092Y-95689897D01*
X134144118Y-95689897D01*
X134140184Y-95690396D01*
X134140179Y-95690396D01*
X134107087Y-95694591D01*
X134058040Y-95700809D01*
X134050252Y-95704043D01*
X134043202Y-95705917D01*
X133979066Y-95704265D01*
X133978619Y-95705956D01*
X133970473Y-95703804D01*
X133962688Y-95700587D01*
X133918687Y-95695067D01*
X133881389Y-95690388D01*
X133881383Y-95690388D01*
X133877480Y-95689898D01*
X133761329Y-95689898D01*
X133648090Y-95689897D01*
X133644116Y-95689897D01*
X133640182Y-95690396D01*
X133640177Y-95690396D01*
X133576528Y-95698465D01*
X133558038Y-95700809D01*
X133550246Y-95704044D01*
X133543202Y-95705917D01*
X133479068Y-95704263D01*
X133478621Y-95705956D01*
X133470472Y-95703803D01*
X133462689Y-95700587D01*
X133454333Y-95699539D01*
X133454330Y-95699538D01*
X133381390Y-95690388D01*
X133381384Y-95690388D01*
X133377481Y-95689898D01*
X133261330Y-95689898D01*
X133148091Y-95689897D01*
X133144117Y-95689897D01*
X133140183Y-95690396D01*
X133140178Y-95690396D01*
X133066406Y-95699748D01*
X133066404Y-95699749D01*
X133058039Y-95700809D01*
X133050249Y-95704044D01*
X133043203Y-95705917D01*
X132979065Y-95704265D01*
X132978618Y-95705956D01*
X132970475Y-95703805D01*
X132962688Y-95700587D01*
X132954328Y-95699538D01*
X132954327Y-95699538D01*
X132881389Y-95690388D01*
X132881383Y-95690388D01*
X132877480Y-95689898D01*
X132761329Y-95689898D01*
X132648090Y-95689897D01*
X132644116Y-95689897D01*
X132640182Y-95690396D01*
X132640177Y-95690396D01*
X132576528Y-95698465D01*
X132558038Y-95700809D01*
X132552163Y-95703249D01*
X132482172Y-95701446D01*
X132423454Y-95661537D01*
X132395633Y-95596219D01*
X132398583Y-95554520D01*
X132399009Y-95553489D01*
X132403669Y-95516342D01*
X132409208Y-95472190D01*
X132409208Y-95472184D01*
X132409698Y-95468281D01*
X132409699Y-95234917D01*
X132406981Y-95213471D01*
X132399848Y-95157209D01*
X132398787Y-95148839D01*
X132395552Y-95141047D01*
X132393679Y-95134003D01*
X132395333Y-95069869D01*
X132393640Y-95069422D01*
X132395793Y-95061273D01*
X132399009Y-95053490D01*
X132400447Y-95042031D01*
X132409208Y-94972191D01*
X132409208Y-94972185D01*
X132409698Y-94968282D01*
X132409699Y-94734918D01*
X132404133Y-94691007D01*
X132399848Y-94657207D01*
X132399847Y-94657205D01*
X132398787Y-94648840D01*
X132395552Y-94641050D01*
X132393679Y-94634004D01*
X132395331Y-94569866D01*
X132393640Y-94569419D01*
X132395791Y-94561276D01*
X132399009Y-94553489D01*
X132408616Y-94476908D01*
X132409208Y-94472190D01*
X132409208Y-94472184D01*
X132409698Y-94468281D01*
X132409699Y-94234917D01*
X132398787Y-94148839D01*
X132395552Y-94141047D01*
X132393679Y-94134003D01*
X132395333Y-94069869D01*
X132393640Y-94069422D01*
X132395793Y-94061273D01*
X132399009Y-94053490D01*
X132401601Y-94032834D01*
X132409208Y-93972191D01*
X132409208Y-93972185D01*
X132409698Y-93968282D01*
X132409699Y-93734918D01*
X132408892Y-93728547D01*
X132403371Y-93685000D01*
X132398787Y-93648840D01*
X132395553Y-93641052D01*
X132393679Y-93634002D01*
X132395331Y-93569866D01*
X132393640Y-93569419D01*
X132395792Y-93561273D01*
X132399009Y-93553488D01*
X132406574Y-93493181D01*
X132409208Y-93472189D01*
X132409208Y-93472183D01*
X132409698Y-93468280D01*
X132409699Y-93234916D01*
X132406201Y-93207318D01*
X132399848Y-93157208D01*
X132398787Y-93148838D01*
X132395552Y-93141046D01*
X132393679Y-93134002D01*
X132395333Y-93069868D01*
X132393640Y-93069421D01*
X132395793Y-93061272D01*
X132399009Y-93053489D01*
X132409698Y-92968281D01*
X132409699Y-92734917D01*
X132408717Y-92727166D01*
X132399848Y-92657209D01*
X132398787Y-92648839D01*
X132395552Y-92641047D01*
X132393679Y-92634003D01*
X132395333Y-92569869D01*
X132393640Y-92569422D01*
X132395793Y-92561273D01*
X132399009Y-92553490D01*
X132400587Y-92540917D01*
X132409208Y-92472191D01*
X132409208Y-92472185D01*
X132409698Y-92468282D01*
X132409699Y-92234918D01*
X132408824Y-92228011D01*
X132399848Y-92157207D01*
X132399847Y-92157205D01*
X132398787Y-92148840D01*
X132395552Y-92141050D01*
X132393679Y-92134004D01*
X132395331Y-92069866D01*
X132393640Y-92069419D01*
X132395791Y-92061276D01*
X132399009Y-92053489D01*
X132402355Y-92026814D01*
X132409208Y-91972190D01*
X132409208Y-91972184D01*
X132409698Y-91968281D01*
X132409699Y-91734917D01*
X132398787Y-91648839D01*
X132395552Y-91641047D01*
X132393679Y-91634003D01*
X132395333Y-91569869D01*
X132393640Y-91569422D01*
X132395793Y-91561273D01*
X132399009Y-91553490D01*
X132403827Y-91515089D01*
X132409208Y-91472191D01*
X132409208Y-91472185D01*
X132409698Y-91468282D01*
X132409699Y-91234918D01*
X132398787Y-91148840D01*
X132395553Y-91141052D01*
X132393679Y-91134002D01*
X132395331Y-91069866D01*
X132393640Y-91069419D01*
X132395792Y-91061273D01*
X132399009Y-91053488D01*
X132409698Y-90968280D01*
X132409699Y-90734916D01*
X132398787Y-90648838D01*
X132398184Y-90647385D01*
X132399928Y-90579657D01*
X132439838Y-90520940D01*
X132505157Y-90493120D01*
X132551648Y-90496409D01*
X132558906Y-90499408D01*
X132567266Y-90500457D01*
X132567267Y-90500457D01*
X132640205Y-90509607D01*
X132640211Y-90509607D01*
X132644114Y-90510097D01*
X132760265Y-90510097D01*
X132873504Y-90510098D01*
X132877478Y-90510098D01*
X132881412Y-90509599D01*
X132881417Y-90509599D01*
X132955189Y-90500247D01*
X132955191Y-90500246D01*
X132963556Y-90499186D01*
X132971346Y-90495951D01*
X132978392Y-90494078D01*
X133042530Y-90495730D01*
X133042977Y-90494039D01*
X133051120Y-90496190D01*
X133058907Y-90499408D01*
X133067267Y-90500457D01*
X133067268Y-90500457D01*
X133140206Y-90509607D01*
X133140212Y-90509607D01*
X133144115Y-90510097D01*
X133260266Y-90510097D01*
X133373505Y-90510098D01*
X133377479Y-90510098D01*
X133381413Y-90509599D01*
X133381418Y-90509599D01*
X133453531Y-90500457D01*
X133463557Y-90499186D01*
X133471349Y-90495951D01*
X133478393Y-90494078D01*
X133542527Y-90495732D01*
X133542974Y-90494039D01*
X133551123Y-90496192D01*
X133558906Y-90499408D01*
X133567262Y-90500456D01*
X133567265Y-90500457D01*
X133640205Y-90509607D01*
X133640211Y-90509607D01*
X133644114Y-90510097D01*
X133760265Y-90510097D01*
X133873504Y-90510098D01*
X133877478Y-90510098D01*
X133881412Y-90509599D01*
X133881417Y-90509599D01*
X133955189Y-90500247D01*
X133955191Y-90500246D01*
X133963556Y-90499186D01*
X134098078Y-90443328D01*
X134118756Y-90427260D01*
X134162749Y-90393073D01*
X134165888Y-90390634D01*
X134168669Y-90387853D01*
X134168678Y-90387845D01*
X134171703Y-90384820D01*
X134234015Y-90350794D01*
X134304830Y-90355859D01*
G37*
%TD.AperFunction*%
%TA.AperFunction,Conductor*%
G36*
X126074882Y-94948502D02*
G01*
X126121375Y-95002158D01*
X126131479Y-95072432D01*
X126101985Y-95137012D01*
X126095856Y-95143595D01*
X125903766Y-95335685D01*
X125891375Y-95346552D01*
X125866013Y-95366013D01*
X125841526Y-95397925D01*
X125841523Y-95397928D01*
X125841515Y-95397939D01*
X125841507Y-95397948D01*
X125821764Y-95423677D01*
X125764426Y-95465544D01*
X125721802Y-95472973D01*
X125397866Y-95472973D01*
X125335684Y-95479728D01*
X125199295Y-95530858D01*
X125153972Y-95564826D01*
X125087466Y-95589674D01*
X125078407Y-95590000D01*
X124034500Y-95590000D01*
X123966379Y-95569998D01*
X123919886Y-95516342D01*
X123908500Y-95464000D01*
X123908500Y-95336000D01*
X123928502Y-95267879D01*
X123982158Y-95221386D01*
X124034500Y-95210000D01*
X124510540Y-95210000D01*
X124510540Y-95210919D01*
X124511572Y-95211163D01*
X124511572Y-95210000D01*
X125153134Y-95210000D01*
X125215316Y-95203245D01*
X125351705Y-95152115D01*
X125468261Y-95064761D01*
X125532584Y-94978935D01*
X125589443Y-94936420D01*
X125633410Y-94928500D01*
X126006761Y-94928500D01*
X126074882Y-94948502D01*
G37*
%TD.AperFunction*%
%TA.AperFunction,Conductor*%
G36*
X119983481Y-93145352D02*
G01*
X120029974Y-93199008D01*
X120039927Y-93270300D01*
X120036801Y-93290849D01*
X120037394Y-93298141D01*
X120037394Y-93298144D01*
X120041085Y-93343518D01*
X120041500Y-93353733D01*
X120041500Y-93361793D01*
X120041925Y-93365437D01*
X120044789Y-93390007D01*
X120045222Y-93394382D01*
X120050334Y-93457224D01*
X120051140Y-93467137D01*
X120053396Y-93474101D01*
X120054587Y-93480060D01*
X120055971Y-93485915D01*
X120056818Y-93493181D01*
X120081735Y-93561827D01*
X120083152Y-93565955D01*
X120097654Y-93610719D01*
X120105649Y-93635399D01*
X120109445Y-93641654D01*
X120111951Y-93647128D01*
X120114670Y-93652558D01*
X120117167Y-93659437D01*
X120121180Y-93665557D01*
X120121180Y-93665558D01*
X120157186Y-93720476D01*
X120159523Y-93724180D01*
X120197405Y-93786607D01*
X120201121Y-93790815D01*
X120201122Y-93790816D01*
X120204803Y-93794984D01*
X120204776Y-93795008D01*
X120207429Y-93798000D01*
X120210132Y-93801233D01*
X120214144Y-93807352D01*
X120219456Y-93812384D01*
X120270383Y-93860628D01*
X120272825Y-93863006D01*
X120749595Y-94339776D01*
X120783621Y-94402088D01*
X120786500Y-94428871D01*
X120786500Y-94749634D01*
X120793255Y-94811816D01*
X120844385Y-94948205D01*
X120931739Y-95064761D01*
X121048295Y-95152115D01*
X121184684Y-95203245D01*
X121246866Y-95210000D01*
X122265500Y-95210000D01*
X122333621Y-95230002D01*
X122380114Y-95283658D01*
X122391500Y-95336000D01*
X122391500Y-95414473D01*
X122371498Y-95482594D01*
X122317842Y-95529087D01*
X122265500Y-95540473D01*
X121147852Y-95540473D01*
X121101542Y-95528626D01*
X121100705Y-95530858D01*
X120964316Y-95479728D01*
X120902134Y-95472973D01*
X120297866Y-95472973D01*
X120294471Y-95473342D01*
X120294467Y-95473342D01*
X120240754Y-95479177D01*
X120170872Y-95466649D01*
X120158256Y-95458861D01*
X120153893Y-95456472D01*
X120146705Y-95451085D01*
X120010316Y-95399955D01*
X119948134Y-95393200D01*
X118906076Y-95393200D01*
X118837955Y-95373198D01*
X118805250Y-95342765D01*
X118763261Y-95286739D01*
X118646705Y-95199385D01*
X118562938Y-95167982D01*
X118506174Y-95125340D01*
X118481474Y-95058779D01*
X118496681Y-94989430D01*
X118546967Y-94939312D01*
X118562938Y-94932018D01*
X118638297Y-94903767D01*
X118646705Y-94900615D01*
X118763261Y-94813261D01*
X118850615Y-94696705D01*
X118901745Y-94560316D01*
X118908500Y-94498134D01*
X118908500Y-94000933D01*
X118928502Y-93932812D01*
X118945405Y-93911838D01*
X119694988Y-93162255D01*
X119757300Y-93128229D01*
X119784083Y-93125350D01*
X119915360Y-93125350D01*
X119983481Y-93145352D01*
G37*
%TD.AperFunction*%
%TA.AperFunction,Conductor*%
G36*
X128275292Y-91480099D02*
G01*
X128321785Y-91533755D01*
X128331889Y-91604029D01*
X128324565Y-91631863D01*
X128308718Y-91672509D01*
X128308718Y-91672510D01*
X128307156Y-91671901D01*
X128275521Y-91725046D01*
X128211989Y-91756736D01*
X128189025Y-91758704D01*
X128166814Y-91758568D01*
X128163714Y-91758549D01*
X128163713Y-91758549D01*
X128159779Y-91758525D01*
X128158435Y-91758909D01*
X128157090Y-91759001D01*
X127938572Y-91759001D01*
X127926443Y-91757646D01*
X127926404Y-91758128D01*
X127917453Y-91757408D01*
X127908699Y-91755427D01*
X127854990Y-91758759D01*
X127847188Y-91759001D01*
X127830986Y-91759001D01*
X127822070Y-91760278D01*
X127820621Y-91760485D01*
X127810571Y-91761514D01*
X127777750Y-91763551D01*
X127763321Y-91764446D01*
X127757423Y-91766575D01*
X127705877Y-91766102D01*
X127667456Y-91757408D01*
X127667454Y-91757408D01*
X127658700Y-91755427D01*
X127604991Y-91758759D01*
X127597189Y-91759001D01*
X126841123Y-91759001D01*
X126840353Y-91758999D01*
X126839537Y-91758994D01*
X126762779Y-91758525D01*
X126744008Y-91763890D01*
X126734347Y-91766651D01*
X126717585Y-91770229D01*
X126688313Y-91774421D01*
X126680145Y-91778135D01*
X126680144Y-91778135D01*
X126664938Y-91785049D01*
X126647414Y-91791497D01*
X126622729Y-91798552D01*
X126615135Y-91803344D01*
X126615132Y-91803345D01*
X126597720Y-91814331D01*
X126582637Y-91822470D01*
X126555718Y-91834709D01*
X126548916Y-91840570D01*
X126536265Y-91851471D01*
X126521261Y-91862574D01*
X126499542Y-91876277D01*
X126493603Y-91883002D01*
X126493599Y-91883005D01*
X126479968Y-91898439D01*
X126467776Y-91910483D01*
X126452173Y-91923928D01*
X126452171Y-91923931D01*
X126445373Y-91929788D01*
X126440493Y-91937317D01*
X126440492Y-91937318D01*
X126431406Y-91951336D01*
X126420121Y-91966204D01*
X126417320Y-91969376D01*
X126357237Y-92007198D01*
X126337465Y-92011127D01*
X126313658Y-92013902D01*
X126231589Y-92023470D01*
X126231585Y-92023471D01*
X126224319Y-92024318D01*
X126217444Y-92026813D01*
X126217442Y-92026814D01*
X126098838Y-92069866D01*
X126058063Y-92084667D01*
X126051946Y-92088678D01*
X126051943Y-92088679D01*
X125958859Y-92149708D01*
X125910148Y-92181644D01*
X125905110Y-92186962D01*
X125905109Y-92186963D01*
X125880268Y-92213185D01*
X125863482Y-92228011D01*
X125851064Y-92237150D01*
X125851060Y-92237154D01*
X125845165Y-92241492D01*
X125840426Y-92247070D01*
X125840423Y-92247073D01*
X125735389Y-92370706D01*
X125735386Y-92370710D01*
X125730650Y-92376285D01*
X125712129Y-92412556D01*
X125666696Y-92501531D01*
X125650214Y-92533808D01*
X125648475Y-92540913D01*
X125648474Y-92540917D01*
X125629585Y-92618115D01*
X125608175Y-92705610D01*
X125607483Y-92716764D01*
X125607483Y-93285500D01*
X125587481Y-93353621D01*
X125533825Y-93400114D01*
X125481483Y-93411500D01*
X125353027Y-93411500D01*
X125284906Y-93391498D01*
X125238413Y-93337842D01*
X125227027Y-93285500D01*
X125227027Y-93097866D01*
X125220272Y-93035684D01*
X125169142Y-92899295D01*
X125081788Y-92782739D01*
X124965232Y-92695385D01*
X124828843Y-92644255D01*
X124766661Y-92637500D01*
X124432266Y-92637500D01*
X124432266Y-92636780D01*
X124430218Y-92637188D01*
X124427678Y-92636802D01*
X124420379Y-92637396D01*
X124418324Y-92637324D01*
X124413984Y-92637500D01*
X124296026Y-92637500D01*
X124227905Y-92617498D01*
X124181412Y-92563842D01*
X124171308Y-92493568D01*
X124193704Y-92437974D01*
X124220989Y-92400002D01*
X124220989Y-92400001D01*
X124225424Y-92393830D01*
X124288894Y-92235940D01*
X124316707Y-92193842D01*
X125013547Y-91497002D01*
X125075859Y-91462976D01*
X125102642Y-91460097D01*
X128207171Y-91460097D01*
X128275292Y-91480099D01*
G37*
%TD.AperFunction*%
%TA.AperFunction,Conductor*%
G36*
X122549080Y-91245353D02*
G01*
X122595573Y-91299009D01*
X122605677Y-91369283D01*
X122576183Y-91433863D01*
X122570054Y-91440446D01*
X122447055Y-91563445D01*
X122384743Y-91597471D01*
X122357960Y-91600350D01*
X121667808Y-91600350D01*
X121599687Y-91580348D01*
X121553194Y-91526692D01*
X121545188Y-91503338D01*
X121544029Y-91498435D01*
X121543182Y-91491170D01*
X121518265Y-91422524D01*
X121516848Y-91418396D01*
X121507708Y-91390182D01*
X121505743Y-91319213D01*
X121542458Y-91258447D01*
X121606198Y-91227178D01*
X121627575Y-91225351D01*
X122480959Y-91225351D01*
X122549080Y-91245353D01*
G37*
%TD.AperFunction*%
%TA.AperFunction,Conductor*%
G36*
X142137189Y-85039658D02*
G01*
X142194025Y-85082205D01*
X142218836Y-85148725D01*
X142219156Y-85157201D01*
X142238701Y-89958194D01*
X142238881Y-90002305D01*
X145073402Y-90001696D01*
X149710618Y-90000701D01*
X149778743Y-90020688D01*
X149825247Y-90074334D01*
X149836464Y-90119958D01*
X149836500Y-90120630D01*
X149836500Y-90123999D01*
X149836860Y-90127346D01*
X149836860Y-90127349D01*
X149840778Y-90163793D01*
X149841500Y-90177261D01*
X149841500Y-90385895D01*
X149835435Y-90419352D01*
X149836382Y-90419577D01*
X149834554Y-90427265D01*
X149831782Y-90434659D01*
X149830929Y-90442507D01*
X149830929Y-90442509D01*
X149830489Y-90446558D01*
X149825027Y-90496841D01*
X149825027Y-90961500D01*
X149805025Y-91029621D01*
X149751369Y-91076114D01*
X149699027Y-91087500D01*
X149035396Y-91087500D01*
X149032000Y-91087869D01*
X149031999Y-91087869D01*
X149005359Y-91090763D01*
X148991751Y-91091500D01*
X148947852Y-91091500D01*
X148901542Y-91079653D01*
X148900705Y-91081885D01*
X148764316Y-91030755D01*
X148702134Y-91024000D01*
X148097866Y-91024000D01*
X148035684Y-91030755D01*
X147899295Y-91081885D01*
X147898458Y-91079653D01*
X147852148Y-91091500D01*
X147758252Y-91091500D01*
X147744644Y-91090763D01*
X147718004Y-91087869D01*
X147718003Y-91087869D01*
X147714607Y-91087500D01*
X146983339Y-91087500D01*
X146921157Y-91094255D01*
X146794230Y-91141838D01*
X146723422Y-91147021D01*
X146705776Y-91141840D01*
X146578844Y-91094255D01*
X146546699Y-91090763D01*
X146531052Y-91089063D01*
X146500432Y-91081782D01*
X146371718Y-91033529D01*
X146371712Y-91033527D01*
X146364316Y-91030755D01*
X146302134Y-91024000D01*
X145697866Y-91024000D01*
X145635684Y-91030755D01*
X145499295Y-91081885D01*
X145498458Y-91079653D01*
X145452148Y-91091500D01*
X145081825Y-91091500D01*
X145037595Y-91083482D01*
X145033335Y-91081885D01*
X145010315Y-91073255D01*
X144948133Y-91066500D01*
X144571865Y-91066500D01*
X144509683Y-91073255D01*
X144373294Y-91124385D01*
X144297621Y-91181099D01*
X144275565Y-91197629D01*
X144209059Y-91222477D01*
X144139676Y-91207424D01*
X144124435Y-91197629D01*
X144102379Y-91181099D01*
X144026706Y-91124385D01*
X143890317Y-91073255D01*
X143828135Y-91066500D01*
X143451867Y-91066500D01*
X143448472Y-91066869D01*
X143448468Y-91066869D01*
X143410165Y-91071030D01*
X143352329Y-91063749D01*
X143271711Y-91033527D01*
X143271709Y-91033527D01*
X143264316Y-91030755D01*
X143256468Y-91029902D01*
X143256466Y-91029902D01*
X143205531Y-91024369D01*
X143202134Y-91024000D01*
X142597866Y-91024000D01*
X142535684Y-91030755D01*
X142399295Y-91081885D01*
X142398458Y-91079653D01*
X142352148Y-91091500D01*
X142308254Y-91091500D01*
X142294646Y-91090763D01*
X142268006Y-91087869D01*
X142268005Y-91087869D01*
X142264609Y-91087500D01*
X141533341Y-91087500D01*
X141471159Y-91094255D01*
X141344232Y-91141838D01*
X141273424Y-91147021D01*
X141255778Y-91141840D01*
X141128846Y-91094255D01*
X141066664Y-91087500D01*
X140335396Y-91087500D01*
X140332000Y-91087869D01*
X140331999Y-91087869D01*
X140305359Y-91090763D01*
X140291751Y-91091500D01*
X140197852Y-91091500D01*
X140151542Y-91079653D01*
X140150705Y-91081885D01*
X140014316Y-91030755D01*
X139952134Y-91024000D01*
X139705057Y-91024000D01*
X139636936Y-91003998D01*
X139590443Y-90950342D01*
X139580339Y-90880068D01*
X139589424Y-90847950D01*
X139590497Y-90845471D01*
X139595710Y-90834831D01*
X139617014Y-90796078D01*
X139622052Y-90776455D01*
X139628456Y-90757752D01*
X139633352Y-90746438D01*
X139633352Y-90746437D01*
X139636500Y-90739163D01*
X139637739Y-90731340D01*
X139637742Y-90731330D01*
X139643418Y-90695494D01*
X139645824Y-90683874D01*
X139654847Y-90648729D01*
X139654847Y-90648728D01*
X139656819Y-90641048D01*
X139656819Y-90620794D01*
X139658370Y-90601083D01*
X139660299Y-90588904D01*
X139661539Y-90581075D01*
X139657378Y-90537056D01*
X139656819Y-90525199D01*
X139656819Y-90392302D01*
X139676821Y-90324181D01*
X139693724Y-90303207D01*
X139697526Y-90299405D01*
X139759838Y-90265379D01*
X139786621Y-90262500D01*
X139966661Y-90262500D01*
X140028843Y-90255745D01*
X140165232Y-90204615D01*
X140281788Y-90117261D01*
X140369142Y-90000705D01*
X140420272Y-89864316D01*
X140427027Y-89802134D01*
X140427027Y-89698333D01*
X140447029Y-89630212D01*
X140463932Y-89609238D01*
X141338911Y-88734259D01*
X141353323Y-88721873D01*
X141364918Y-88713340D01*
X141364923Y-88713335D01*
X141370818Y-88708997D01*
X141375557Y-88703419D01*
X141375560Y-88703416D01*
X141405035Y-88668721D01*
X141411965Y-88661205D01*
X141417661Y-88655509D01*
X141419924Y-88652648D01*
X141419929Y-88652643D01*
X141435293Y-88633223D01*
X141438082Y-88629822D01*
X141480592Y-88579785D01*
X141480594Y-88579783D01*
X141485333Y-88574204D01*
X141488662Y-88567684D01*
X141492028Y-88562637D01*
X141495193Y-88557513D01*
X141499735Y-88551772D01*
X141503583Y-88543540D01*
X141530634Y-88485659D01*
X141532565Y-88481707D01*
X141562442Y-88423197D01*
X141562443Y-88423195D01*
X141565769Y-88416681D01*
X141567508Y-88409575D01*
X141569609Y-88403925D01*
X141571524Y-88398168D01*
X141574622Y-88391539D01*
X141589491Y-88320054D01*
X141590461Y-88315771D01*
X141602007Y-88268586D01*
X141607808Y-88244879D01*
X141608500Y-88233725D01*
X141608535Y-88233727D01*
X141608775Y-88229755D01*
X141609152Y-88225534D01*
X141610641Y-88218374D01*
X141608637Y-88144310D01*
X141626789Y-88075673D01*
X141652761Y-88045091D01*
X141719575Y-87988027D01*
X141719581Y-87988021D01*
X141725355Y-87983089D01*
X141825424Y-87843830D01*
X141889385Y-87684720D01*
X141897742Y-87625998D01*
X141912966Y-87519031D01*
X141912966Y-87519027D01*
X141913547Y-87514947D01*
X141913704Y-87500000D01*
X141893102Y-87329758D01*
X141881599Y-87299314D01*
X141835171Y-87176447D01*
X141832487Y-87169344D01*
X141761645Y-87066268D01*
X141739659Y-87034278D01*
X141739658Y-87034276D01*
X141735357Y-87028019D01*
X141729691Y-87022971D01*
X141729685Y-87022964D01*
X141681614Y-86980136D01*
X141647450Y-86930287D01*
X141617088Y-86849294D01*
X141619820Y-86848270D01*
X141608500Y-86804025D01*
X141608500Y-85516371D01*
X141628502Y-85448250D01*
X141645405Y-85427276D01*
X142004062Y-85068619D01*
X142066374Y-85034593D01*
X142137189Y-85039658D01*
G37*
%TD.AperFunction*%
%TA.AperFunction,Conductor*%
G36*
X140037255Y-84808594D02*
G01*
X140094016Y-84851240D01*
X140118710Y-84917803D01*
X140116375Y-84952232D01*
X140110513Y-84980413D01*
X140109544Y-84984696D01*
X140092192Y-85055610D01*
X140091500Y-85066764D01*
X140091464Y-85066762D01*
X140091225Y-85070755D01*
X140090851Y-85074947D01*
X140089360Y-85082115D01*
X140090745Y-85133325D01*
X140091454Y-85159521D01*
X140091500Y-85162928D01*
X140091500Y-86800272D01*
X140079125Y-86848645D01*
X140080858Y-86849295D01*
X140029728Y-86985684D01*
X140022973Y-87047866D01*
X140022973Y-87652134D01*
X140029728Y-87714316D01*
X140051358Y-87772015D01*
X140056541Y-87842819D01*
X140022471Y-87905337D01*
X139209060Y-88718748D01*
X139164194Y-88747635D01*
X139052554Y-88789487D01*
X139036822Y-88795385D01*
X139030017Y-88800485D01*
X138960895Y-88815604D01*
X138894346Y-88790869D01*
X138869779Y-88766620D01*
X138857277Y-88750327D01*
X138857273Y-88750323D01*
X138857270Y-88750319D01*
X138837815Y-88724964D01*
X138837812Y-88724961D01*
X138832786Y-88718411D01*
X138826231Y-88713381D01*
X138807420Y-88698946D01*
X138795029Y-88688079D01*
X138100206Y-87993256D01*
X138066180Y-87930944D01*
X138063301Y-87904161D01*
X138063301Y-87460266D01*
X138056546Y-87398084D01*
X138005416Y-87261695D01*
X137918062Y-87145139D01*
X137801506Y-87057785D01*
X137665117Y-87006655D01*
X137602935Y-86999900D01*
X137139301Y-86999900D01*
X137071180Y-86979898D01*
X137024687Y-86926242D01*
X137013301Y-86873900D01*
X137013301Y-86234500D01*
X137033303Y-86166379D01*
X137086959Y-86119886D01*
X137139301Y-86108500D01*
X137271864Y-86108500D01*
X137288307Y-86109578D01*
X137320000Y-86113750D01*
X137328189Y-86112672D01*
X137359874Y-86108501D01*
X137359884Y-86108500D01*
X137359885Y-86108500D01*
X137459457Y-86095391D01*
X137470664Y-86093916D01*
X137470666Y-86093915D01*
X137478851Y-86092838D01*
X137626876Y-86031524D01*
X137677526Y-85992659D01*
X137722072Y-85958477D01*
X137722075Y-85958474D01*
X137734029Y-85949301D01*
X137753987Y-85933987D01*
X137767115Y-85916879D01*
X137773452Y-85908621D01*
X137784319Y-85896230D01*
X138435171Y-85245378D01*
X138497483Y-85211352D01*
X138549385Y-85211002D01*
X138758597Y-85253567D01*
X138763772Y-85253757D01*
X138763774Y-85253757D01*
X138976673Y-85261564D01*
X138976677Y-85261564D01*
X138981837Y-85261753D01*
X138986957Y-85261097D01*
X138986959Y-85261097D01*
X139198288Y-85234025D01*
X139198289Y-85234025D01*
X139203416Y-85233368D01*
X139276799Y-85211352D01*
X139412429Y-85170661D01*
X139412434Y-85170659D01*
X139417384Y-85169174D01*
X139617994Y-85070896D01*
X139799860Y-84941173D01*
X139803515Y-84937531D01*
X139803523Y-84937524D01*
X139904077Y-84837321D01*
X139966448Y-84803405D01*
X140037255Y-84808594D01*
G37*
%TD.AperFunction*%
%TA.AperFunction,Conductor*%
G36*
X126387890Y-86301071D02*
G01*
X126389683Y-86301743D01*
X126398628Y-86302408D01*
X126398629Y-86302408D01*
X126436888Y-86305251D01*
X126446936Y-86306405D01*
X126451407Y-86307101D01*
X126460385Y-86308499D01*
X126475922Y-86308499D01*
X126485260Y-86308846D01*
X126525989Y-86311873D01*
X126525990Y-86311873D01*
X126534940Y-86312538D01*
X126543715Y-86310665D01*
X126551972Y-86310102D01*
X126567161Y-86308499D01*
X126792516Y-86308499D01*
X126860637Y-86328501D01*
X126907130Y-86382157D01*
X126917234Y-86452431D01*
X126893342Y-86510064D01*
X126875182Y-86534295D01*
X126824052Y-86670684D01*
X126817297Y-86732866D01*
X126817297Y-87246972D01*
X126797295Y-87315093D01*
X126743639Y-87361586D01*
X126691297Y-87372972D01*
X126487556Y-87372972D01*
X126419435Y-87352970D01*
X126372942Y-87299314D01*
X126364850Y-87241309D01*
X126361842Y-87241204D01*
X126362098Y-87233885D01*
X126363198Y-87226651D01*
X126358915Y-87173990D01*
X126358500Y-87163777D01*
X126358500Y-87155707D01*
X126358078Y-87152087D01*
X126358077Y-87152069D01*
X126355208Y-87127461D01*
X126354775Y-87123086D01*
X126349454Y-87057661D01*
X126349453Y-87057658D01*
X126348860Y-87050363D01*
X126346604Y-87043399D01*
X126345413Y-87037440D01*
X126344029Y-87031585D01*
X126343182Y-87024319D01*
X126318265Y-86955673D01*
X126316848Y-86951545D01*
X126296607Y-86889064D01*
X126296606Y-86889062D01*
X126294351Y-86882101D01*
X126290555Y-86875846D01*
X126288049Y-86870372D01*
X126285330Y-86864942D01*
X126282833Y-86858063D01*
X126277085Y-86849295D01*
X126268212Y-86835762D01*
X126242809Y-86797016D01*
X126240472Y-86793312D01*
X126205509Y-86735693D01*
X126205505Y-86735688D01*
X126202595Y-86730892D01*
X126195197Y-86722516D01*
X126195223Y-86722493D01*
X126192574Y-86719503D01*
X126189866Y-86716264D01*
X126185856Y-86710148D01*
X126180549Y-86705121D01*
X126180546Y-86705117D01*
X126129617Y-86656872D01*
X126127175Y-86654494D01*
X125996275Y-86523594D01*
X125962249Y-86461282D01*
X125967314Y-86390467D01*
X126009861Y-86333631D01*
X126076381Y-86308820D01*
X126085370Y-86308499D01*
X126225923Y-86308499D01*
X126235261Y-86308846D01*
X126275990Y-86311873D01*
X126275991Y-86311873D01*
X126284941Y-86312538D01*
X126293714Y-86310665D01*
X126293718Y-86310665D01*
X126335030Y-86301846D01*
X126343467Y-86300343D01*
X126348570Y-86299612D01*
X126387890Y-86301071D01*
G37*
%TD.AperFunction*%
%TD*%
%TA.AperFunction,NonConductor*%
G36*
X142134315Y-78428502D02*
G01*
X142180808Y-78482158D01*
X142192193Y-78533987D01*
X142195576Y-79364987D01*
X142175851Y-79433189D01*
X142122385Y-79479900D01*
X142069577Y-79491500D01*
X140136371Y-79491500D01*
X140068250Y-79471498D01*
X140047276Y-79454595D01*
X139833340Y-79240659D01*
X139799314Y-79178347D01*
X139796478Y-79148266D01*
X139797383Y-79113704D01*
X139797480Y-79110000D01*
X139777930Y-78897244D01*
X139771092Y-78872996D01*
X139721504Y-78697172D01*
X139721503Y-78697170D01*
X139719936Y-78691613D01*
X139708662Y-78668750D01*
X139669939Y-78590228D01*
X139657749Y-78520286D01*
X139685309Y-78454856D01*
X139743867Y-78414713D01*
X139782945Y-78408500D01*
X142066194Y-78408500D01*
X142134315Y-78428502D01*
G37*
%TD.AperFunction*%
%TA.AperFunction,NonConductor*%
G36*
X133099861Y-78428502D02*
G01*
X133146354Y-78482158D01*
X133156458Y-78552432D01*
X133143248Y-78593167D01*
X133106389Y-78663225D01*
X133104675Y-78668746D01*
X133104673Y-78668750D01*
X133099183Y-78686433D01*
X133043032Y-78867267D01*
X133017920Y-79079439D01*
X133031894Y-79292634D01*
X133042523Y-79334486D01*
X133039905Y-79405432D01*
X132999345Y-79463702D01*
X132933720Y-79490794D01*
X132920400Y-79491500D01*
X130936371Y-79491500D01*
X130868250Y-79471498D01*
X130847276Y-79454595D01*
X130633340Y-79240659D01*
X130599314Y-79178347D01*
X130596478Y-79148266D01*
X130597383Y-79113704D01*
X130597480Y-79110000D01*
X130577930Y-78897244D01*
X130571092Y-78872996D01*
X130521504Y-78697172D01*
X130521503Y-78697170D01*
X130519936Y-78691613D01*
X130508662Y-78668750D01*
X130469939Y-78590228D01*
X130457749Y-78520286D01*
X130485309Y-78454856D01*
X130543867Y-78414713D01*
X130582945Y-78408500D01*
X133031740Y-78408500D01*
X133099861Y-78428502D01*
G37*
%TD.AperFunction*%
%TA.AperFunction,NonConductor*%
G36*
X137544861Y-78428502D02*
G01*
X137591354Y-78482158D01*
X137601458Y-78552432D01*
X137588248Y-78593167D01*
X137551389Y-78663225D01*
X137549675Y-78668746D01*
X137549673Y-78668750D01*
X137544183Y-78686433D01*
X137488032Y-78867267D01*
X137462920Y-79079439D01*
X137476894Y-79292634D01*
X137487523Y-79334486D01*
X137484905Y-79405432D01*
X137444345Y-79463702D01*
X137378720Y-79490794D01*
X137365400Y-79491500D01*
X135450011Y-79491500D01*
X135381890Y-79471498D01*
X135335397Y-79417842D01*
X135325315Y-79347420D01*
X135350347Y-79174775D01*
X135350880Y-79171101D01*
X135352480Y-79110000D01*
X135332930Y-78897244D01*
X135326092Y-78872996D01*
X135276504Y-78697172D01*
X135276503Y-78697170D01*
X135274936Y-78691613D01*
X135263662Y-78668750D01*
X135224939Y-78590228D01*
X135212749Y-78520286D01*
X135240309Y-78454856D01*
X135298867Y-78414713D01*
X135337945Y-78408500D01*
X137476740Y-78408500D01*
X137544861Y-78428502D01*
G37*
%TD.AperFunction*%
%TA.AperFunction,NonConductor*%
G36*
X123276564Y-92680625D02*
G01*
X123337268Y-92713585D01*
X123503139Y-92757101D01*
X123510739Y-92757220D01*
X123518257Y-92758250D01*
X123517917Y-92760735D01*
X123574184Y-92778221D01*
X123619829Y-92832600D01*
X123628828Y-92903024D01*
X123622390Y-92927363D01*
X123581782Y-93035684D01*
X123575027Y-93097866D01*
X123575027Y-93689802D01*
X123555025Y-93757923D01*
X123524592Y-93790628D01*
X123471739Y-93830239D01*
X123443735Y-93867604D01*
X123386878Y-93910119D01*
X123316059Y-93915145D01*
X123258746Y-93883828D01*
X123257833Y-93884854D01*
X123255120Y-93882439D01*
X123252521Y-93879840D01*
X123237054Y-93867603D01*
X123230249Y-93862219D01*
X123226845Y-93859428D01*
X123176797Y-93816909D01*
X123176795Y-93816908D01*
X123171215Y-93812167D01*
X123164699Y-93808839D01*
X123159650Y-93805472D01*
X123154521Y-93802305D01*
X123148784Y-93797766D01*
X123082625Y-93766845D01*
X123078725Y-93764939D01*
X123047534Y-93749012D01*
X123013692Y-93731731D01*
X123006584Y-93729992D01*
X123000941Y-93727893D01*
X122995178Y-93725976D01*
X122988550Y-93722878D01*
X122917083Y-93708013D01*
X122912799Y-93707043D01*
X122855993Y-93693143D01*
X122841890Y-93689692D01*
X122836288Y-93689344D01*
X122836285Y-93689344D01*
X122830736Y-93689000D01*
X122830738Y-93688964D01*
X122826745Y-93688725D01*
X122822553Y-93688351D01*
X122815385Y-93686860D01*
X122763523Y-93688263D01*
X122737979Y-93688954D01*
X122734572Y-93689000D01*
X122656779Y-93689000D01*
X122643171Y-93688263D01*
X122616531Y-93685369D01*
X122616530Y-93685369D01*
X122613134Y-93685000D01*
X122292371Y-93685000D01*
X122224250Y-93664998D01*
X122203276Y-93648095D01*
X121895626Y-93340445D01*
X121861600Y-93278133D01*
X121866665Y-93207318D01*
X121909212Y-93150482D01*
X121975732Y-93125671D01*
X121984721Y-93125350D01*
X122652334Y-93125350D01*
X122714516Y-93118595D01*
X122850905Y-93067465D01*
X122967461Y-92980111D01*
X123054815Y-92863555D01*
X123098462Y-92747127D01*
X123141104Y-92690363D01*
X123207665Y-92665663D01*
X123276564Y-92680625D01*
G37*
%TD.AperFunction*%
%TA.AperFunction,Conductor*%
%TO.N,/ANT*%
G36*
X152567122Y-83895001D02*
G01*
X152613615Y-83948657D01*
X152625001Y-84000999D01*
X152625001Y-85424000D01*
X152604999Y-85492121D01*
X152551343Y-85538614D01*
X152499001Y-85550000D01*
X143675001Y-85550000D01*
X143675001Y-86274999D01*
X152474000Y-86274999D01*
X152542121Y-86295001D01*
X152588614Y-86348657D01*
X152600000Y-86400999D01*
X152600000Y-87798999D01*
X152579998Y-87867120D01*
X152526342Y-87913613D01*
X152474000Y-87924999D01*
X143675001Y-87924999D01*
X143675001Y-88649998D01*
X150724000Y-88649998D01*
X150792121Y-88670000D01*
X150838614Y-88723656D01*
X150850000Y-88775998D01*
X150850000Y-90124000D01*
X150829998Y-90192121D01*
X150776342Y-90238614D01*
X150724000Y-90250000D01*
X150476000Y-90250000D01*
X150407879Y-90229998D01*
X150361386Y-90176342D01*
X150350000Y-90124000D01*
X150350001Y-89749998D01*
X150350001Y-89150000D01*
X143350999Y-89150000D01*
X143282878Y-89129998D01*
X143236385Y-89076342D01*
X143224999Y-89024000D01*
X143224999Y-87625998D01*
X143245001Y-87557877D01*
X143298657Y-87511384D01*
X143350999Y-87499998D01*
X152124999Y-87499998D01*
X152124999Y-86750000D01*
X143350999Y-86750000D01*
X143282878Y-86729998D01*
X143236385Y-86676342D01*
X143224999Y-86624000D01*
X143224999Y-85200999D01*
X143245001Y-85132878D01*
X143298657Y-85086385D01*
X143350999Y-85074999D01*
X152150001Y-85074999D01*
X152150001Y-84324998D01*
X145776001Y-84324998D01*
X145707880Y-84304996D01*
X145661387Y-84251340D01*
X145650001Y-84198998D01*
X145650001Y-84000999D01*
X145670003Y-83932878D01*
X145723659Y-83886385D01*
X145776001Y-83874999D01*
X152499001Y-83874999D01*
X152567122Y-83895001D01*
G37*
%TD.AperFunction*%
%TD*%
M02*
