%TF.GenerationSoftware,KiCad,Pcbnew,(6.0.6)*%
%TF.CreationDate,2022-10-19T18:58:46+02:00*%
%TF.ProjectId,test,74657374-2e6b-4696-9361-645f70636258,rev?*%
%TF.SameCoordinates,Original*%
%TF.FileFunction,Legend,Top*%
%TF.FilePolarity,Positive*%
%FSLAX46Y46*%
G04 Gerber Fmt 4.6, Leading zero omitted, Abs format (unit mm)*
G04 Created by KiCad (PCBNEW (6.0.6)) date 2022-10-19 18:58:46*
%MOMM*%
%LPD*%
G01*
G04 APERTURE LIST*
%ADD10C,0.150000*%
%ADD11C,0.098425*%
%ADD12C,0.120000*%
%ADD13C,0.125000*%
%ADD14C,0.127000*%
%ADD15C,0.200000*%
%ADD16C,0.025400*%
%ADD17C,0.050000*%
%ADD18C,0.025000*%
%ADD19C,0.254000*%
%ADD20C,0.075000*%
%ADD21C,0.100000*%
G04 APERTURE END LIST*
D10*
X120700000Y-109500000D02*
X120700000Y-79550000D01*
X120700000Y-79550000D02*
X152700000Y-79550000D01*
X130150000Y-109500000D02*
X120700000Y-109500000D01*
X130150000Y-111550000D02*
X130150000Y-109500000D01*
X152700000Y-79550000D02*
X152700000Y-111550000D01*
X152700000Y-111550000D02*
X130150000Y-111550000D01*
%TO.C,*%
D11*
%TO.C,C40*%
X178906906Y-87470607D02*
X178888158Y-87489355D01*
X178831915Y-87508102D01*
X178794420Y-87508102D01*
X178738177Y-87489355D01*
X178700682Y-87451859D01*
X178681934Y-87414364D01*
X178663186Y-87339373D01*
X178663186Y-87283130D01*
X178681934Y-87208140D01*
X178700682Y-87170644D01*
X178738177Y-87133149D01*
X178794420Y-87114401D01*
X178831915Y-87114401D01*
X178888158Y-87133149D01*
X178906906Y-87151897D01*
X179244364Y-87245635D02*
X179244364Y-87508102D01*
X179150626Y-87095654D02*
X179056887Y-87376869D01*
X179300607Y-87376869D01*
X179525579Y-87114401D02*
X179563074Y-87114401D01*
X179600570Y-87133149D01*
X179619317Y-87151897D01*
X179638065Y-87189392D01*
X179656813Y-87264383D01*
X179656813Y-87358121D01*
X179638065Y-87433112D01*
X179619317Y-87470607D01*
X179600570Y-87489355D01*
X179563074Y-87508102D01*
X179525579Y-87508102D01*
X179488084Y-87489355D01*
X179469336Y-87470607D01*
X179450588Y-87433112D01*
X179431841Y-87358121D01*
X179431841Y-87264383D01*
X179450588Y-87189392D01*
X179469336Y-87151897D01*
X179488084Y-87133149D01*
X179525579Y-87114401D01*
%TO.C,C41*%
X175656906Y-91020607D02*
X175638158Y-91039355D01*
X175581915Y-91058102D01*
X175544420Y-91058102D01*
X175488177Y-91039355D01*
X175450682Y-91001859D01*
X175431934Y-90964364D01*
X175413186Y-90889373D01*
X175413186Y-90833130D01*
X175431934Y-90758140D01*
X175450682Y-90720644D01*
X175488177Y-90683149D01*
X175544420Y-90664401D01*
X175581915Y-90664401D01*
X175638158Y-90683149D01*
X175656906Y-90701897D01*
X175994364Y-90795635D02*
X175994364Y-91058102D01*
X175900626Y-90645654D02*
X175806887Y-90926869D01*
X176050607Y-90926869D01*
X176406813Y-91058102D02*
X176181841Y-91058102D01*
X176294327Y-91058102D02*
X176294327Y-90664401D01*
X176256831Y-90720644D01*
X176219336Y-90758140D01*
X176181841Y-90776887D01*
%TO.C,C42*%
X159156906Y-92570607D02*
X159138158Y-92589355D01*
X159081915Y-92608102D01*
X159044420Y-92608102D01*
X158988177Y-92589355D01*
X158950682Y-92551859D01*
X158931934Y-92514364D01*
X158913186Y-92439373D01*
X158913186Y-92383130D01*
X158931934Y-92308140D01*
X158950682Y-92270644D01*
X158988177Y-92233149D01*
X159044420Y-92214401D01*
X159081915Y-92214401D01*
X159138158Y-92233149D01*
X159156906Y-92251897D01*
X159494364Y-92345635D02*
X159494364Y-92608102D01*
X159400626Y-92195654D02*
X159306887Y-92476869D01*
X159550607Y-92476869D01*
X159681841Y-92251897D02*
X159700588Y-92233149D01*
X159738084Y-92214401D01*
X159831822Y-92214401D01*
X159869317Y-92233149D01*
X159888065Y-92251897D01*
X159906813Y-92289392D01*
X159906813Y-92326887D01*
X159888065Y-92383130D01*
X159663093Y-92608102D01*
X159906813Y-92608102D01*
%TO.C,C43*%
X161336906Y-93160607D02*
X161318158Y-93179355D01*
X161261915Y-93198102D01*
X161224420Y-93198102D01*
X161168177Y-93179355D01*
X161130682Y-93141859D01*
X161111934Y-93104364D01*
X161093186Y-93029373D01*
X161093186Y-92973130D01*
X161111934Y-92898140D01*
X161130682Y-92860644D01*
X161168177Y-92823149D01*
X161224420Y-92804401D01*
X161261915Y-92804401D01*
X161318158Y-92823149D01*
X161336906Y-92841897D01*
X161674364Y-92935635D02*
X161674364Y-93198102D01*
X161580626Y-92785654D02*
X161486887Y-93066869D01*
X161730607Y-93066869D01*
X161843093Y-92804401D02*
X162086813Y-92804401D01*
X161955579Y-92954383D01*
X162011822Y-92954383D01*
X162049317Y-92973130D01*
X162068065Y-92991878D01*
X162086813Y-93029373D01*
X162086813Y-93123112D01*
X162068065Y-93160607D01*
X162049317Y-93179355D01*
X162011822Y-93198102D01*
X161899336Y-93198102D01*
X161861841Y-93179355D01*
X161843093Y-93160607D01*
%TO.C,R4*%
X176374383Y-89898102D02*
X176243149Y-89710626D01*
X176149411Y-89898102D02*
X176149411Y-89504401D01*
X176299392Y-89504401D01*
X176336887Y-89523149D01*
X176355635Y-89541897D01*
X176374383Y-89579392D01*
X176374383Y-89635635D01*
X176355635Y-89673130D01*
X176336887Y-89691878D01*
X176299392Y-89710626D01*
X176149411Y-89710626D01*
X176711841Y-89635635D02*
X176711841Y-89898102D01*
X176618102Y-89485654D02*
X176524364Y-89766869D01*
X176768084Y-89766869D01*
%TO.C,R6*%
X160994383Y-91658102D02*
X160863149Y-91470626D01*
X160769411Y-91658102D02*
X160769411Y-91264401D01*
X160919392Y-91264401D01*
X160956887Y-91283149D01*
X160975635Y-91301897D01*
X160994383Y-91339392D01*
X160994383Y-91395635D01*
X160975635Y-91433130D01*
X160956887Y-91451878D01*
X160919392Y-91470626D01*
X160769411Y-91470626D01*
X161331841Y-91264401D02*
X161256850Y-91264401D01*
X161219355Y-91283149D01*
X161200607Y-91301897D01*
X161163112Y-91358140D01*
X161144364Y-91433130D01*
X161144364Y-91583112D01*
X161163112Y-91620607D01*
X161181859Y-91639355D01*
X161219355Y-91658102D01*
X161294345Y-91658102D01*
X161331841Y-91639355D01*
X161350588Y-91620607D01*
X161369336Y-91583112D01*
X161369336Y-91489373D01*
X161350588Y-91451878D01*
X161331841Y-91433130D01*
X161294345Y-91414383D01*
X161219355Y-91414383D01*
X161181859Y-91433130D01*
X161163112Y-91451878D01*
X161144364Y-91489373D01*
%TO.C,R12*%
X174186906Y-100728102D02*
X174055672Y-100540626D01*
X173961934Y-100728102D02*
X173961934Y-100334401D01*
X174111915Y-100334401D01*
X174149411Y-100353149D01*
X174168158Y-100371897D01*
X174186906Y-100409392D01*
X174186906Y-100465635D01*
X174168158Y-100503130D01*
X174149411Y-100521878D01*
X174111915Y-100540626D01*
X173961934Y-100540626D01*
X174561859Y-100728102D02*
X174336887Y-100728102D01*
X174449373Y-100728102D02*
X174449373Y-100334401D01*
X174411878Y-100390644D01*
X174374383Y-100428140D01*
X174336887Y-100446887D01*
X174711841Y-100371897D02*
X174730588Y-100353149D01*
X174768084Y-100334401D01*
X174861822Y-100334401D01*
X174899317Y-100353149D01*
X174918065Y-100371897D01*
X174936813Y-100409392D01*
X174936813Y-100446887D01*
X174918065Y-100503130D01*
X174693093Y-100728102D01*
X174936813Y-100728102D01*
%TO.C,R11*%
X163628102Y-94263093D02*
X163440626Y-94394327D01*
X163628102Y-94488065D02*
X163234401Y-94488065D01*
X163234401Y-94338084D01*
X163253149Y-94300588D01*
X163271897Y-94281841D01*
X163309392Y-94263093D01*
X163365635Y-94263093D01*
X163403130Y-94281841D01*
X163421878Y-94300588D01*
X163440626Y-94338084D01*
X163440626Y-94488065D01*
X163628102Y-93888140D02*
X163628102Y-94113112D01*
X163628102Y-94000626D02*
X163234401Y-94000626D01*
X163290644Y-94038121D01*
X163328140Y-94075616D01*
X163346887Y-94113112D01*
X163628102Y-93513186D02*
X163628102Y-93738158D01*
X163628102Y-93625672D02*
X163234401Y-93625672D01*
X163290644Y-93663168D01*
X163328140Y-93700663D01*
X163346887Y-93738158D01*
%TO.C,R10*%
X175178102Y-92413093D02*
X174990626Y-92544327D01*
X175178102Y-92638065D02*
X174784401Y-92638065D01*
X174784401Y-92488084D01*
X174803149Y-92450588D01*
X174821897Y-92431841D01*
X174859392Y-92413093D01*
X174915635Y-92413093D01*
X174953130Y-92431841D01*
X174971878Y-92450588D01*
X174990626Y-92488084D01*
X174990626Y-92638065D01*
X175178102Y-92038140D02*
X175178102Y-92263112D01*
X175178102Y-92150626D02*
X174784401Y-92150626D01*
X174840644Y-92188121D01*
X174878140Y-92225616D01*
X174896887Y-92263112D01*
X174784401Y-91794420D02*
X174784401Y-91756925D01*
X174803149Y-91719429D01*
X174821897Y-91700682D01*
X174859392Y-91681934D01*
X174934383Y-91663186D01*
X175028121Y-91663186D01*
X175103112Y-91681934D01*
X175140607Y-91700682D01*
X175159355Y-91719429D01*
X175178102Y-91756925D01*
X175178102Y-91794420D01*
X175159355Y-91831915D01*
X175140607Y-91850663D01*
X175103112Y-91869411D01*
X175028121Y-91888158D01*
X174934383Y-91888158D01*
X174859392Y-91869411D01*
X174821897Y-91850663D01*
X174803149Y-91831915D01*
X174784401Y-91794420D01*
D10*
%TO.C,TSU1*%
X166663095Y-86867380D02*
X167234523Y-86867380D01*
X166948809Y-87867380D02*
X166948809Y-86867380D01*
X167520238Y-87819761D02*
X167663095Y-87867380D01*
X167901190Y-87867380D01*
X167996428Y-87819761D01*
X168044047Y-87772142D01*
X168091666Y-87676904D01*
X168091666Y-87581666D01*
X168044047Y-87486428D01*
X167996428Y-87438809D01*
X167901190Y-87391190D01*
X167710714Y-87343571D01*
X167615476Y-87295952D01*
X167567857Y-87248333D01*
X167520238Y-87153095D01*
X167520238Y-87057857D01*
X167567857Y-86962619D01*
X167615476Y-86915000D01*
X167710714Y-86867380D01*
X167948809Y-86867380D01*
X168091666Y-86915000D01*
X168520238Y-86867380D02*
X168520238Y-87676904D01*
X168567857Y-87772142D01*
X168615476Y-87819761D01*
X168710714Y-87867380D01*
X168901190Y-87867380D01*
X168996428Y-87819761D01*
X169044047Y-87772142D01*
X169091666Y-87676904D01*
X169091666Y-86867380D01*
X170091666Y-87867380D02*
X169520238Y-87867380D01*
X169805952Y-87867380D02*
X169805952Y-86867380D01*
X169710714Y-87010238D01*
X169615476Y-87105476D01*
X169520238Y-87153095D01*
%TO.C,JOYSTICK1*%
X133394047Y-108727380D02*
X133394047Y-109441666D01*
X133346428Y-109584523D01*
X133251190Y-109679761D01*
X133108333Y-109727380D01*
X133013095Y-109727380D01*
X134060714Y-108727380D02*
X134251190Y-108727380D01*
X134346428Y-108775000D01*
X134441666Y-108870238D01*
X134489285Y-109060714D01*
X134489285Y-109394047D01*
X134441666Y-109584523D01*
X134346428Y-109679761D01*
X134251190Y-109727380D01*
X134060714Y-109727380D01*
X133965476Y-109679761D01*
X133870238Y-109584523D01*
X133822619Y-109394047D01*
X133822619Y-109060714D01*
X133870238Y-108870238D01*
X133965476Y-108775000D01*
X134060714Y-108727380D01*
X135108333Y-109251190D02*
X135108333Y-109727380D01*
X134775000Y-108727380D02*
X135108333Y-109251190D01*
X135441666Y-108727380D01*
X135727380Y-109679761D02*
X135870238Y-109727380D01*
X136108333Y-109727380D01*
X136203571Y-109679761D01*
X136251190Y-109632142D01*
X136298809Y-109536904D01*
X136298809Y-109441666D01*
X136251190Y-109346428D01*
X136203571Y-109298809D01*
X136108333Y-109251190D01*
X135917857Y-109203571D01*
X135822619Y-109155952D01*
X135775000Y-109108333D01*
X135727380Y-109013095D01*
X135727380Y-108917857D01*
X135775000Y-108822619D01*
X135822619Y-108775000D01*
X135917857Y-108727380D01*
X136155952Y-108727380D01*
X136298809Y-108775000D01*
X136584523Y-108727380D02*
X137155952Y-108727380D01*
X136870238Y-109727380D02*
X136870238Y-108727380D01*
X137489285Y-109727380D02*
X137489285Y-108727380D01*
X138536904Y-109632142D02*
X138489285Y-109679761D01*
X138346428Y-109727380D01*
X138251190Y-109727380D01*
X138108333Y-109679761D01*
X138013095Y-109584523D01*
X137965476Y-109489285D01*
X137917857Y-109298809D01*
X137917857Y-109155952D01*
X137965476Y-108965476D01*
X138013095Y-108870238D01*
X138108333Y-108775000D01*
X138251190Y-108727380D01*
X138346428Y-108727380D01*
X138489285Y-108775000D01*
X138536904Y-108822619D01*
X138965476Y-109727380D02*
X138965476Y-108727380D01*
X139536904Y-109727380D02*
X139108333Y-109155952D01*
X139536904Y-108727380D02*
X138965476Y-109298809D01*
X140489285Y-109727380D02*
X139917857Y-109727380D01*
X140203571Y-109727380D02*
X140203571Y-108727380D01*
X140108333Y-108870238D01*
X140013095Y-108965476D01*
X139917857Y-109013095D01*
%TO.C,HEADER1*%
X148902380Y-106695238D02*
X147902380Y-106695238D01*
X148378571Y-106695238D02*
X148378571Y-106123809D01*
X148902380Y-106123809D02*
X147902380Y-106123809D01*
X148378571Y-105647619D02*
X148378571Y-105314285D01*
X148902380Y-105171428D02*
X148902380Y-105647619D01*
X147902380Y-105647619D01*
X147902380Y-105171428D01*
X148616666Y-104790476D02*
X148616666Y-104314285D01*
X148902380Y-104885714D02*
X147902380Y-104552380D01*
X148902380Y-104219047D01*
X148902380Y-103885714D02*
X147902380Y-103885714D01*
X147902380Y-103647619D01*
X147950000Y-103504761D01*
X148045238Y-103409523D01*
X148140476Y-103361904D01*
X148330952Y-103314285D01*
X148473809Y-103314285D01*
X148664285Y-103361904D01*
X148759523Y-103409523D01*
X148854761Y-103504761D01*
X148902380Y-103647619D01*
X148902380Y-103885714D01*
X148378571Y-102885714D02*
X148378571Y-102552380D01*
X148902380Y-102409523D02*
X148902380Y-102885714D01*
X147902380Y-102885714D01*
X147902380Y-102409523D01*
X148902380Y-101409523D02*
X148426190Y-101742857D01*
X148902380Y-101980952D02*
X147902380Y-101980952D01*
X147902380Y-101600000D01*
X147950000Y-101504761D01*
X147997619Y-101457142D01*
X148092857Y-101409523D01*
X148235714Y-101409523D01*
X148330952Y-101457142D01*
X148378571Y-101504761D01*
X148426190Y-101600000D01*
X148426190Y-101980952D01*
X148902380Y-100457142D02*
X148902380Y-101028571D01*
X148902380Y-100742857D02*
X147902380Y-100742857D01*
X148045238Y-100838095D01*
X148140476Y-100933333D01*
X148188095Y-101028571D01*
%TO.C,HEADER2*%
X157052380Y-106295238D02*
X156052380Y-106295238D01*
X156528571Y-106295238D02*
X156528571Y-105723809D01*
X157052380Y-105723809D02*
X156052380Y-105723809D01*
X156528571Y-105247619D02*
X156528571Y-104914285D01*
X157052380Y-104771428D02*
X157052380Y-105247619D01*
X156052380Y-105247619D01*
X156052380Y-104771428D01*
X156766666Y-104390476D02*
X156766666Y-103914285D01*
X157052380Y-104485714D02*
X156052380Y-104152380D01*
X157052380Y-103819047D01*
X157052380Y-103485714D02*
X156052380Y-103485714D01*
X156052380Y-103247619D01*
X156100000Y-103104761D01*
X156195238Y-103009523D01*
X156290476Y-102961904D01*
X156480952Y-102914285D01*
X156623809Y-102914285D01*
X156814285Y-102961904D01*
X156909523Y-103009523D01*
X157004761Y-103104761D01*
X157052380Y-103247619D01*
X157052380Y-103485714D01*
X156528571Y-102485714D02*
X156528571Y-102152380D01*
X157052380Y-102009523D02*
X157052380Y-102485714D01*
X156052380Y-102485714D01*
X156052380Y-102009523D01*
X157052380Y-101009523D02*
X156576190Y-101342857D01*
X157052380Y-101580952D02*
X156052380Y-101580952D01*
X156052380Y-101200000D01*
X156100000Y-101104761D01*
X156147619Y-101057142D01*
X156242857Y-101009523D01*
X156385714Y-101009523D01*
X156480952Y-101057142D01*
X156528571Y-101104761D01*
X156576190Y-101200000D01*
X156576190Y-101580952D01*
X156147619Y-100628571D02*
X156100000Y-100580952D01*
X156052380Y-100485714D01*
X156052380Y-100247619D01*
X156100000Y-100152380D01*
X156147619Y-100104761D01*
X156242857Y-100057142D01*
X156338095Y-100057142D01*
X156480952Y-100104761D01*
X157052380Y-100676190D01*
X157052380Y-100057142D01*
%TO.C,BZR1*%
X143169047Y-102253571D02*
X143311904Y-102301190D01*
X143359523Y-102348809D01*
X143407142Y-102444047D01*
X143407142Y-102586904D01*
X143359523Y-102682142D01*
X143311904Y-102729761D01*
X143216666Y-102777380D01*
X142835714Y-102777380D01*
X142835714Y-101777380D01*
X143169047Y-101777380D01*
X143264285Y-101825000D01*
X143311904Y-101872619D01*
X143359523Y-101967857D01*
X143359523Y-102063095D01*
X143311904Y-102158333D01*
X143264285Y-102205952D01*
X143169047Y-102253571D01*
X142835714Y-102253571D01*
X143740476Y-101777380D02*
X144407142Y-101777380D01*
X143740476Y-102777380D01*
X144407142Y-102777380D01*
X145359523Y-102777380D02*
X145026190Y-102301190D01*
X144788095Y-102777380D02*
X144788095Y-101777380D01*
X145169047Y-101777380D01*
X145264285Y-101825000D01*
X145311904Y-101872619D01*
X145359523Y-101967857D01*
X145359523Y-102110714D01*
X145311904Y-102205952D01*
X145264285Y-102253571D01*
X145169047Y-102301190D01*
X144788095Y-102301190D01*
X146311904Y-102777380D02*
X145740476Y-102777380D01*
X146026190Y-102777380D02*
X146026190Y-101777380D01*
X145930952Y-101920238D01*
X145835714Y-102015476D01*
X145740476Y-102063095D01*
%TO.C,U4*%
X168122380Y-93519123D02*
X168122380Y-94037219D01*
X168152857Y-94098171D01*
X168183333Y-94128647D01*
X168244285Y-94159123D01*
X168366190Y-94159123D01*
X168427142Y-94128647D01*
X168457619Y-94098171D01*
X168488095Y-94037219D01*
X168488095Y-93519123D01*
X169067142Y-93732457D02*
X169067142Y-94159123D01*
X168914761Y-93488647D02*
X168762380Y-93945790D01*
X169158571Y-93945790D01*
%TO.C,*%
%TO.C,U1*%
X129776071Y-89414285D02*
X129776071Y-90021428D01*
X129811785Y-90092857D01*
X129847500Y-90128571D01*
X129918928Y-90164285D01*
X130061785Y-90164285D01*
X130133214Y-90128571D01*
X130168928Y-90092857D01*
X130204642Y-90021428D01*
X130204642Y-89414285D01*
X130954642Y-90164285D02*
X130526071Y-90164285D01*
X130740357Y-90164285D02*
X130740357Y-89414285D01*
X130668928Y-89521428D01*
X130597500Y-89592857D01*
X130526071Y-89628571D01*
%TO.C,*%
D12*
%TO.C,X2*%
X131163714Y-100171428D02*
X131563714Y-100771428D01*
X131563714Y-100171428D02*
X131163714Y-100771428D01*
X131763714Y-100228571D02*
X131792285Y-100200000D01*
X131849428Y-100171428D01*
X131992285Y-100171428D01*
X132049428Y-100200000D01*
X132078000Y-100228571D01*
X132106571Y-100285714D01*
X132106571Y-100342857D01*
X132078000Y-100428571D01*
X131735142Y-100771428D01*
X132106571Y-100771428D01*
D10*
%TO.C,*%
D12*
%TO.C,L6*%
X141456170Y-91246240D02*
X141170456Y-91246240D01*
X141170456Y-90646240D01*
X141913313Y-90646240D02*
X141799027Y-90646240D01*
X141741884Y-90674812D01*
X141713313Y-90703383D01*
X141656170Y-90789097D01*
X141627599Y-90903383D01*
X141627599Y-91131954D01*
X141656170Y-91189097D01*
X141684741Y-91217669D01*
X141741884Y-91246240D01*
X141856170Y-91246240D01*
X141913313Y-91217669D01*
X141941884Y-91189097D01*
X141970456Y-91131954D01*
X141970456Y-90989097D01*
X141941884Y-90931954D01*
X141913313Y-90903383D01*
X141856170Y-90874812D01*
X141741884Y-90874812D01*
X141684741Y-90903383D01*
X141656170Y-90931954D01*
X141627599Y-90989097D01*
D10*
%TO.C,*%
%TO.C,BOOT1*%
X144116666Y-117828571D02*
X144259523Y-117876190D01*
X144307142Y-117923809D01*
X144354761Y-118019047D01*
X144354761Y-118161904D01*
X144307142Y-118257142D01*
X144259523Y-118304761D01*
X144164285Y-118352380D01*
X143783333Y-118352380D01*
X143783333Y-117352380D01*
X144116666Y-117352380D01*
X144211904Y-117400000D01*
X144259523Y-117447619D01*
X144307142Y-117542857D01*
X144307142Y-117638095D01*
X144259523Y-117733333D01*
X144211904Y-117780952D01*
X144116666Y-117828571D01*
X143783333Y-117828571D01*
X144973809Y-117352380D02*
X145164285Y-117352380D01*
X145259523Y-117400000D01*
X145354761Y-117495238D01*
X145402380Y-117685714D01*
X145402380Y-118019047D01*
X145354761Y-118209523D01*
X145259523Y-118304761D01*
X145164285Y-118352380D01*
X144973809Y-118352380D01*
X144878571Y-118304761D01*
X144783333Y-118209523D01*
X144735714Y-118019047D01*
X144735714Y-117685714D01*
X144783333Y-117495238D01*
X144878571Y-117400000D01*
X144973809Y-117352380D01*
X146021428Y-117352380D02*
X146211904Y-117352380D01*
X146307142Y-117400000D01*
X146402380Y-117495238D01*
X146450000Y-117685714D01*
X146450000Y-118019047D01*
X146402380Y-118209523D01*
X146307142Y-118304761D01*
X146211904Y-118352380D01*
X146021428Y-118352380D01*
X145926190Y-118304761D01*
X145830952Y-118209523D01*
X145783333Y-118019047D01*
X145783333Y-117685714D01*
X145830952Y-117495238D01*
X145926190Y-117400000D01*
X146021428Y-117352380D01*
X146735714Y-117352380D02*
X147307142Y-117352380D01*
X147021428Y-118352380D02*
X147021428Y-117352380D01*
X148164285Y-118352380D02*
X147592857Y-118352380D01*
X147878571Y-118352380D02*
X147878571Y-117352380D01*
X147783333Y-117495238D01*
X147688095Y-117590476D01*
X147592857Y-117638095D01*
%TO.C,*%
%TO.C,SCREEN1*%
X123809523Y-82654761D02*
X123952380Y-82702380D01*
X124190476Y-82702380D01*
X124285714Y-82654761D01*
X124333333Y-82607142D01*
X124380952Y-82511904D01*
X124380952Y-82416666D01*
X124333333Y-82321428D01*
X124285714Y-82273809D01*
X124190476Y-82226190D01*
X124000000Y-82178571D01*
X123904761Y-82130952D01*
X123857142Y-82083333D01*
X123809523Y-81988095D01*
X123809523Y-81892857D01*
X123857142Y-81797619D01*
X123904761Y-81750000D01*
X124000000Y-81702380D01*
X124238095Y-81702380D01*
X124380952Y-81750000D01*
X125380952Y-82607142D02*
X125333333Y-82654761D01*
X125190476Y-82702380D01*
X125095238Y-82702380D01*
X124952380Y-82654761D01*
X124857142Y-82559523D01*
X124809523Y-82464285D01*
X124761904Y-82273809D01*
X124761904Y-82130952D01*
X124809523Y-81940476D01*
X124857142Y-81845238D01*
X124952380Y-81750000D01*
X125095238Y-81702380D01*
X125190476Y-81702380D01*
X125333333Y-81750000D01*
X125380952Y-81797619D01*
X126380952Y-82702380D02*
X126047619Y-82226190D01*
X125809523Y-82702380D02*
X125809523Y-81702380D01*
X126190476Y-81702380D01*
X126285714Y-81750000D01*
X126333333Y-81797619D01*
X126380952Y-81892857D01*
X126380952Y-82035714D01*
X126333333Y-82130952D01*
X126285714Y-82178571D01*
X126190476Y-82226190D01*
X125809523Y-82226190D01*
X126809523Y-82178571D02*
X127142857Y-82178571D01*
X127285714Y-82702380D02*
X126809523Y-82702380D01*
X126809523Y-81702380D01*
X127285714Y-81702380D01*
X127714285Y-82178571D02*
X128047619Y-82178571D01*
X128190476Y-82702380D02*
X127714285Y-82702380D01*
X127714285Y-81702380D01*
X128190476Y-81702380D01*
X128619047Y-82702380D02*
X128619047Y-81702380D01*
X129190476Y-82702380D01*
X129190476Y-81702380D01*
X130190476Y-82702380D02*
X129619047Y-82702380D01*
X129904761Y-82702380D02*
X129904761Y-81702380D01*
X129809523Y-81845238D01*
X129714285Y-81940476D01*
X129619047Y-81988095D01*
%TO.C,*%
D12*
%TO.C,SB1*%
X128292285Y-83899857D02*
X128378000Y-83928428D01*
X128520857Y-83928428D01*
X128578000Y-83899857D01*
X128606571Y-83871285D01*
X128635142Y-83814142D01*
X128635142Y-83757000D01*
X128606571Y-83699857D01*
X128578000Y-83671285D01*
X128520857Y-83642714D01*
X128406571Y-83614142D01*
X128349428Y-83585571D01*
X128320857Y-83557000D01*
X128292285Y-83499857D01*
X128292285Y-83442714D01*
X128320857Y-83385571D01*
X128349428Y-83357000D01*
X128406571Y-83328428D01*
X128549428Y-83328428D01*
X128635142Y-83357000D01*
X129092285Y-83614142D02*
X129178000Y-83642714D01*
X129206571Y-83671285D01*
X129235142Y-83728428D01*
X129235142Y-83814142D01*
X129206571Y-83871285D01*
X129178000Y-83899857D01*
X129120857Y-83928428D01*
X128892285Y-83928428D01*
X128892285Y-83328428D01*
X129092285Y-83328428D01*
X129149428Y-83357000D01*
X129178000Y-83385571D01*
X129206571Y-83442714D01*
X129206571Y-83499857D01*
X129178000Y-83557000D01*
X129149428Y-83585571D01*
X129092285Y-83614142D01*
X128892285Y-83614142D01*
X129806571Y-83928428D02*
X129463714Y-83928428D01*
X129635142Y-83928428D02*
X129635142Y-83328428D01*
X129578000Y-83414142D01*
X129520857Y-83471285D01*
X129463714Y-83499857D01*
D13*
X126795535Y-84776190D02*
X126890773Y-84776190D01*
X126938392Y-84800000D01*
X126986011Y-84847619D01*
X127009821Y-84942857D01*
X127009821Y-85109523D01*
X126986011Y-85204761D01*
X126938392Y-85252380D01*
X126890773Y-85276190D01*
X126795535Y-85276190D01*
X126747916Y-85252380D01*
X126700297Y-85204761D01*
X126676488Y-85109523D01*
X126676488Y-84942857D01*
X126700297Y-84847619D01*
X126747916Y-84800000D01*
X126795535Y-84776190D01*
X127224107Y-84942857D02*
X127224107Y-85442857D01*
X127224107Y-84966666D02*
X127271726Y-84942857D01*
X127366964Y-84942857D01*
X127414583Y-84966666D01*
X127438392Y-84990476D01*
X127462202Y-85038095D01*
X127462202Y-85180952D01*
X127438392Y-85228571D01*
X127414583Y-85252380D01*
X127366964Y-85276190D01*
X127271726Y-85276190D01*
X127224107Y-85252380D01*
X127866964Y-85252380D02*
X127819345Y-85276190D01*
X127724107Y-85276190D01*
X127676488Y-85252380D01*
X127652678Y-85204761D01*
X127652678Y-85014285D01*
X127676488Y-84966666D01*
X127724107Y-84942857D01*
X127819345Y-84942857D01*
X127866964Y-84966666D01*
X127890773Y-85014285D01*
X127890773Y-85061904D01*
X127652678Y-85109523D01*
X128105059Y-84942857D02*
X128105059Y-85276190D01*
X128105059Y-84990476D02*
X128128869Y-84966666D01*
X128176488Y-84942857D01*
X128247916Y-84942857D01*
X128295535Y-84966666D01*
X128319345Y-85014285D01*
X128319345Y-85276190D01*
D10*
%TO.C,*%
D12*
%TO.C,L1*%
X150106571Y-93171428D02*
X149820857Y-93171428D01*
X149820857Y-92571428D01*
X150620857Y-93171428D02*
X150278000Y-93171428D01*
X150449428Y-93171428D02*
X150449428Y-92571428D01*
X150392285Y-92657142D01*
X150335142Y-92714285D01*
X150278000Y-92742857D01*
D10*
%TO.C,*%
D12*
%TO.C,SB5*%
X142442857Y-97957714D02*
X142471428Y-97872000D01*
X142471428Y-97729142D01*
X142442857Y-97672000D01*
X142414285Y-97643428D01*
X142357142Y-97614857D01*
X142300000Y-97614857D01*
X142242857Y-97643428D01*
X142214285Y-97672000D01*
X142185714Y-97729142D01*
X142157142Y-97843428D01*
X142128571Y-97900571D01*
X142100000Y-97929142D01*
X142042857Y-97957714D01*
X141985714Y-97957714D01*
X141928571Y-97929142D01*
X141900000Y-97900571D01*
X141871428Y-97843428D01*
X141871428Y-97700571D01*
X141900000Y-97614857D01*
X142157142Y-97157714D02*
X142185714Y-97072000D01*
X142214285Y-97043428D01*
X142271428Y-97014857D01*
X142357142Y-97014857D01*
X142414285Y-97043428D01*
X142442857Y-97072000D01*
X142471428Y-97129142D01*
X142471428Y-97357714D01*
X141871428Y-97357714D01*
X141871428Y-97157714D01*
X141900000Y-97100571D01*
X141928571Y-97072000D01*
X141985714Y-97043428D01*
X142042857Y-97043428D01*
X142100000Y-97072000D01*
X142128571Y-97100571D01*
X142157142Y-97157714D01*
X142157142Y-97357714D01*
X141871428Y-96472000D02*
X141871428Y-96757714D01*
X142157142Y-96786285D01*
X142128571Y-96757714D01*
X142100000Y-96700571D01*
X142100000Y-96557714D01*
X142128571Y-96500571D01*
X142157142Y-96472000D01*
X142214285Y-96443428D01*
X142357142Y-96443428D01*
X142414285Y-96472000D01*
X142442857Y-96500571D01*
X142471428Y-96557714D01*
X142471428Y-96700571D01*
X142442857Y-96757714D01*
X142414285Y-96786285D01*
D10*
%TO.C,*%
D12*
%TO.C,SB4*%
X129492285Y-94442857D02*
X129578000Y-94471428D01*
X129720857Y-94471428D01*
X129778000Y-94442857D01*
X129806571Y-94414285D01*
X129835142Y-94357142D01*
X129835142Y-94300000D01*
X129806571Y-94242857D01*
X129778000Y-94214285D01*
X129720857Y-94185714D01*
X129606571Y-94157142D01*
X129549428Y-94128571D01*
X129520857Y-94100000D01*
X129492285Y-94042857D01*
X129492285Y-93985714D01*
X129520857Y-93928571D01*
X129549428Y-93900000D01*
X129606571Y-93871428D01*
X129749428Y-93871428D01*
X129835142Y-93900000D01*
X130292285Y-94157142D02*
X130378000Y-94185714D01*
X130406571Y-94214285D01*
X130435142Y-94271428D01*
X130435142Y-94357142D01*
X130406571Y-94414285D01*
X130378000Y-94442857D01*
X130320857Y-94471428D01*
X130092285Y-94471428D01*
X130092285Y-93871428D01*
X130292285Y-93871428D01*
X130349428Y-93900000D01*
X130378000Y-93928571D01*
X130406571Y-93985714D01*
X130406571Y-94042857D01*
X130378000Y-94100000D01*
X130349428Y-94128571D01*
X130292285Y-94157142D01*
X130092285Y-94157142D01*
X130949428Y-94071428D02*
X130949428Y-94471428D01*
X130806571Y-93842857D02*
X130663714Y-94271428D01*
X131035142Y-94271428D01*
D10*
%TO.C,*%
D12*
%TO.C,FLT1*%
X143620857Y-90457142D02*
X143420857Y-90457142D01*
X143420857Y-90771428D02*
X143420857Y-90171428D01*
X143706571Y-90171428D01*
X144220857Y-90771428D02*
X143935142Y-90771428D01*
X143935142Y-90171428D01*
X144335142Y-90171428D02*
X144678000Y-90171428D01*
X144506571Y-90771428D02*
X144506571Y-90171428D01*
X145192285Y-90771428D02*
X144849428Y-90771428D01*
X145020857Y-90771428D02*
X145020857Y-90171428D01*
X144963714Y-90257142D01*
X144906571Y-90314285D01*
X144849428Y-90342857D01*
D10*
%TO.C,*%
D12*
%TO.C,X1*%
X135513714Y-86871428D02*
X135913714Y-87471428D01*
X135913714Y-86871428D02*
X135513714Y-87471428D01*
X136456571Y-87471428D02*
X136113714Y-87471428D01*
X136285142Y-87471428D02*
X136285142Y-86871428D01*
X136228000Y-86957142D01*
X136170857Y-87014285D01*
X136113714Y-87042857D01*
D10*
%TO.C,*%
D14*
%TO.C,R11*%
X162850000Y-94330000D02*
X162850000Y-94570000D01*
X161450000Y-94330000D02*
X161450000Y-94570000D01*
%TO.C,R10*%
X174400000Y-92480000D02*
X174400000Y-92720000D01*
X173000000Y-92480000D02*
X173000000Y-92720000D01*
D15*
%TO.C,TSU1*%
X164410000Y-89190000D02*
G75*
G03*
X164410000Y-89190000I-100000J0D01*
G01*
D14*
X166550000Y-89050000D02*
X170950000Y-89050000D01*
X166550000Y-94050000D02*
X170950000Y-94050000D01*
D15*
%TO.C,JOYSTICK1*%
X132600000Y-113125000D02*
G75*
G03*
X132600000Y-113125000I-100000J0D01*
G01*
D14*
X135250000Y-111900000D02*
X134750000Y-111900000D01*
X134750000Y-111900000D02*
X133350000Y-113300000D01*
X138150000Y-111900000D02*
X138650000Y-111900000D01*
X138650000Y-111900000D02*
X140050000Y-113300000D01*
X135300000Y-119600000D02*
X134750000Y-119600000D01*
X134750000Y-119600000D02*
X133350000Y-118200000D01*
X138050000Y-119600000D02*
X138650000Y-119600000D01*
X138650000Y-119600000D02*
X140050000Y-118200000D01*
%TO.C,HEADER1*%
X149580000Y-94130000D02*
X151920000Y-94130000D01*
X151920000Y-119130000D02*
X149580000Y-119130000D01*
X151920000Y-119130000D02*
X151920000Y-94130000D01*
X149580000Y-119130000D02*
X149580000Y-94130000D01*
D15*
X150850000Y-93480000D02*
G75*
G03*
X150850000Y-93480000I-100000J0D01*
G01*
D14*
%TO.C,HEADER2*%
X153430000Y-94137500D02*
X155770000Y-94137500D01*
X155770000Y-119137500D02*
X153430000Y-119137500D01*
X155770000Y-119137500D02*
X155770000Y-94137500D01*
X153430000Y-119137500D02*
X153430000Y-94137500D01*
D15*
X154700000Y-93487500D02*
G75*
G03*
X154700000Y-93487500I-100000J0D01*
G01*
D14*
%TO.C,BZR1*%
X146680000Y-95100000D02*
X145520000Y-95100000D01*
X147600000Y-100100000D02*
X145520000Y-100100000D01*
X141820000Y-95700000D02*
X142820000Y-95700000D01*
X142320000Y-95200000D02*
X142320000Y-96200000D01*
X141780000Y-99500000D02*
X142780000Y-99500000D01*
X148600000Y-97100000D02*
X148600000Y-99100000D01*
X143600000Y-98100000D02*
X143600000Y-97100000D01*
X148600000Y-99100000D02*
X147600000Y-100100000D01*
%TO.C,U4*%
X170750000Y-102360000D02*
X166850000Y-102360000D01*
D15*
X166320000Y-95600000D02*
G75*
G03*
X166320000Y-95600000I-100000J0D01*
G01*
D14*
X170750000Y-94840000D02*
X166850000Y-94840000D01*
%TO.C,C20*%
X129420028Y-97381000D02*
X128708828Y-97381000D01*
X130893228Y-96593600D02*
X130182028Y-96593600D01*
X130893228Y-97381000D02*
X130182028Y-97381000D01*
X129420028Y-96593600D02*
X128708828Y-96593600D01*
X130893228Y-96593600D02*
X130893228Y-97381000D01*
X128708828Y-96593600D02*
X128708828Y-97381000D01*
D16*
%TO.C,U1*%
X138102798Y-96601599D02*
X138498799Y-96601599D01*
D17*
X131315598Y-96791639D02*
X131315598Y-96690039D01*
X131036198Y-96664639D02*
X131391798Y-96994839D01*
X131366398Y-96715439D02*
X131417198Y-96690039D01*
X131366398Y-96893239D02*
X131366398Y-96715439D01*
X131264798Y-96690039D02*
X131340998Y-96715439D01*
X138498799Y-96601599D02*
X138498799Y-96179400D01*
X131498798Y-96601599D02*
X131498798Y-96144399D01*
X131188598Y-96690039D02*
X131417198Y-96690039D01*
X131112398Y-96664639D02*
X131391798Y-96918639D01*
X131036198Y-96664639D02*
X131417198Y-97045639D01*
X131036198Y-96664639D02*
X131417198Y-96664639D01*
D16*
X138498799Y-96601599D02*
X138498799Y-96179400D01*
D17*
X138066999Y-89601597D02*
X138498799Y-89601597D01*
X131498798Y-89601597D02*
X131955998Y-89601597D01*
X131498798Y-90022999D02*
X131498798Y-89601597D01*
X131188598Y-96690039D02*
X131391798Y-96867839D01*
X131315598Y-96791639D02*
X131340998Y-96715439D01*
X131417198Y-97045639D02*
X131417198Y-96664639D01*
X131112398Y-96664639D02*
X131366398Y-96944039D01*
X138102798Y-96601599D02*
X138498799Y-96601599D01*
X131391798Y-96994839D02*
X131391798Y-96918639D01*
X138498799Y-90022999D02*
X138498799Y-89601597D01*
D16*
X138066999Y-89601597D02*
X138498799Y-89601597D01*
X131498798Y-96601599D02*
X131510797Y-96601599D01*
X131498798Y-90022999D02*
X131498798Y-89601597D01*
D17*
X131510797Y-96601599D02*
X131981398Y-96601599D01*
X131264798Y-96690039D02*
X131366398Y-96893239D01*
X131366398Y-96944039D02*
X131391798Y-96867839D01*
D16*
X131921113Y-96362899D02*
G75*
G03*
X131921113Y-96362899I-179606J0D01*
G01*
D14*
%TO.C,L3*%
X135140400Y-99932500D02*
X135140400Y-98840300D01*
X136359600Y-101659700D02*
X136359600Y-100694500D01*
X136359600Y-99932500D02*
X136359600Y-98840300D01*
X136359600Y-101659700D02*
X135140400Y-101659700D01*
X135140400Y-101659700D02*
X135140400Y-100694500D01*
X136359600Y-98840300D02*
X135140400Y-98840300D01*
D18*
%TO.C,D4*%
X138093600Y-98912800D02*
X138093600Y-97287201D01*
D17*
X138093600Y-98963600D02*
X138271400Y-98963600D01*
D18*
X138093600Y-98912800D02*
X138271400Y-98912800D01*
D17*
X138906400Y-98862000D02*
X138906400Y-98811201D01*
X138728600Y-98862000D02*
X138906400Y-98862000D01*
D18*
X138728600Y-97287201D02*
X138906400Y-97287201D01*
D17*
X138881000Y-98836600D02*
X138906400Y-98811201D01*
X138728600Y-98989000D02*
X138881000Y-98989000D01*
D18*
X138906400Y-98912800D02*
X138906400Y-97287201D01*
D17*
X138093600Y-98862000D02*
X138093600Y-98811201D01*
X138728600Y-99014400D02*
X138728600Y-98963600D01*
X138093600Y-98989000D02*
X138246000Y-98989000D01*
X138271400Y-99014400D02*
X138271400Y-98963600D01*
X138728600Y-98862000D02*
X138728600Y-98811201D01*
D18*
X138093600Y-97287201D02*
X138271400Y-97287201D01*
D17*
X138728600Y-98836600D02*
X138881000Y-98836600D01*
D18*
X138728600Y-98912800D02*
X138906400Y-98912800D01*
D17*
X138093600Y-99014400D02*
X138093600Y-98963600D01*
X138246000Y-98836600D02*
X138271400Y-98811201D01*
X138881000Y-98989000D02*
X138906400Y-98963600D01*
X138093600Y-98862000D02*
X138271400Y-98862000D01*
X138728600Y-99014400D02*
X138906400Y-99014400D01*
X138728600Y-98811201D02*
X138906400Y-98811201D01*
X138271400Y-98862000D02*
X138271400Y-98811201D01*
X138906400Y-99014400D02*
X138906400Y-98963600D01*
X138093600Y-98836600D02*
X138246000Y-98836600D01*
X138728600Y-98963600D02*
X138906400Y-98963600D01*
X138093600Y-99014400D02*
X138271400Y-99014400D01*
X138093600Y-98811201D02*
X138271400Y-98811201D01*
X138246000Y-98989000D02*
X138271400Y-98963600D01*
D14*
%TO.C,R3*%
X179092200Y-89981000D02*
X178381000Y-89981000D01*
X179092200Y-89193600D02*
X178381000Y-89193600D01*
X179092200Y-89193600D02*
X179092200Y-89981000D01*
X177619000Y-89981000D02*
X176907800Y-89981000D01*
X176907800Y-89193600D02*
X176907800Y-89981000D01*
X177619000Y-89193600D02*
X176907800Y-89193600D01*
%TO.C,C1*%
X138707800Y-89706400D02*
X139419000Y-89706400D01*
X138707800Y-88919000D02*
X139419000Y-88919000D01*
X140892200Y-89706400D02*
X140892200Y-88919000D01*
X140181000Y-89706400D02*
X140892200Y-89706400D01*
X140181000Y-88919000D02*
X140892200Y-88919000D01*
X138707800Y-89706400D02*
X138707800Y-88919000D01*
%TO.C,R2*%
X128707800Y-100506400D02*
X128707800Y-99719000D01*
X130181000Y-100506400D02*
X130892200Y-100506400D01*
X130181000Y-99719000D02*
X130892200Y-99719000D01*
X130892200Y-100506400D02*
X130892200Y-99719000D01*
X128707800Y-100506400D02*
X129419000Y-100506400D01*
X128707800Y-99719000D02*
X129419000Y-99719000D01*
%TO.C,C2*%
X138857800Y-88806400D02*
X139569000Y-88806400D01*
X138857800Y-88806400D02*
X138857800Y-88019000D01*
X138857800Y-88019000D02*
X139569000Y-88019000D01*
X140331000Y-88806400D02*
X141042200Y-88806400D01*
X141042200Y-88806400D02*
X141042200Y-88019000D01*
X140331000Y-88019000D02*
X141042200Y-88019000D01*
D17*
%TO.C,U2*%
X125816000Y-93074699D02*
X126019200Y-92973099D01*
X125816000Y-93150899D02*
X125816000Y-92922299D01*
X125841400Y-92973099D02*
X126019200Y-92973099D01*
X125790600Y-92922299D02*
X126171600Y-92922299D01*
D14*
X125689000Y-92807999D02*
X125689000Y-92426999D01*
D17*
X125790600Y-93227099D02*
X126070000Y-92973099D01*
X125816000Y-93150899D02*
X125993800Y-92947699D01*
X125790600Y-93303299D02*
X125790600Y-92922299D01*
D14*
X125308000Y-92807999D02*
X125689000Y-92807999D01*
D17*
X125790600Y-93227099D02*
X126044600Y-92947699D01*
X125816000Y-93023899D02*
X125917600Y-93023899D01*
X125790600Y-93303299D02*
X126171600Y-92922299D01*
X125993800Y-92947699D02*
X126070000Y-92973099D01*
X125841400Y-92998499D02*
X125917600Y-93023899D01*
X125816000Y-92922299D02*
X125841400Y-92973099D01*
X126044600Y-92947699D02*
X126120800Y-92947699D01*
X125816000Y-93074699D02*
X125841400Y-92998499D01*
X125790600Y-93303299D02*
X126120800Y-92947699D01*
D14*
%TO.C,C26*%
X125503000Y-93790400D02*
X125503000Y-95009600D01*
X125503000Y-93790400D02*
X126595200Y-93790400D01*
X127357200Y-95009600D02*
X128322400Y-95009600D01*
X127357200Y-93790400D02*
X128322400Y-93790400D01*
X125503000Y-95009600D02*
X126595200Y-95009600D01*
X128322400Y-93790400D02*
X128322400Y-95009600D01*
%TO.C,C18*%
X128708828Y-99406400D02*
X128708828Y-98619000D01*
X128708828Y-99406400D02*
X129420028Y-99406400D01*
X130182028Y-98619000D02*
X130893228Y-98619000D01*
X130893228Y-99406400D02*
X130893228Y-98619000D01*
X128708828Y-98619000D02*
X129420028Y-98619000D01*
X130182028Y-99406400D02*
X130893228Y-99406400D01*
%TO.C,C19*%
X141692200Y-93281000D02*
X140981000Y-93281000D01*
X140219000Y-93281000D02*
X139507800Y-93281000D01*
X140219000Y-92493600D02*
X139507800Y-92493600D01*
X141692200Y-92493600D02*
X141692200Y-93281000D01*
X141692200Y-92493600D02*
X140981000Y-92493600D01*
X139507800Y-92493600D02*
X139507800Y-93281000D01*
%TO.C,R14*%
X139106400Y-86092200D02*
X138319000Y-86092200D01*
X139106400Y-84619000D02*
X139106400Y-83907800D01*
X139106400Y-86092200D02*
X139106400Y-85381000D01*
X139106400Y-83907800D02*
X138319000Y-83907800D01*
X138319000Y-84619000D02*
X138319000Y-83907800D01*
X138319000Y-86092200D02*
X138319000Y-85381000D01*
%TO.C,C7*%
X150157800Y-90417975D02*
X150869000Y-90417975D01*
X152342200Y-91205375D02*
X152342200Y-90417975D01*
X151631000Y-91205375D02*
X152342200Y-91205375D01*
X150157800Y-91205375D02*
X150869000Y-91205375D01*
X151631000Y-90417975D02*
X152342200Y-90417975D01*
X150157800Y-91205375D02*
X150157800Y-90417975D01*
D19*
%TO.C,L2*%
X130987200Y-88239800D02*
X130987200Y-86665000D01*
X132612800Y-85649000D02*
X132612800Y-84074201D01*
X130987200Y-88239800D02*
X132612800Y-88239800D01*
X130987200Y-85649000D02*
X130987200Y-84074201D01*
X130987200Y-84074201D02*
X132612800Y-84074201D01*
X132612800Y-88239800D02*
X132612800Y-86665000D01*
D14*
%TO.C,X2*%
X131038000Y-98539000D02*
X131038000Y-98285000D01*
X132562000Y-98539000D02*
X132562000Y-98285000D01*
D17*
%TO.C,U3*%
X125261700Y-100711400D02*
X125185500Y-100686000D01*
X125287100Y-100940000D02*
X125033100Y-100660600D01*
X125287100Y-100889200D02*
X125287100Y-100711400D01*
X125337900Y-100686000D02*
X125109300Y-100686000D01*
X125287100Y-100940000D02*
X125312500Y-100863800D01*
X125337900Y-100660600D02*
X124956900Y-100660600D01*
D14*
X125452200Y-100559000D02*
X125452200Y-100178000D01*
D17*
X125287100Y-100711400D02*
X125337900Y-100686000D01*
X125312500Y-100914600D02*
X125033100Y-100660600D01*
X125312500Y-100863800D02*
X125109300Y-100686000D01*
X125312500Y-100990800D02*
X125312500Y-100914600D01*
X125236300Y-100787600D02*
X125236300Y-100686000D01*
X125236300Y-100787600D02*
X125261700Y-100711400D01*
D14*
X127103200Y-97003000D02*
X126722200Y-97003000D01*
D17*
X125337900Y-101041600D02*
X124956900Y-100660600D01*
X125312500Y-100990800D02*
X124956900Y-100660600D01*
D14*
X125833200Y-100559000D02*
X125452200Y-100559000D01*
D17*
X125337900Y-101041600D02*
X125337900Y-100660600D01*
X125287100Y-100889200D02*
X125185500Y-100686000D01*
D14*
%TO.C,C6*%
X148806400Y-92067972D02*
X148806400Y-91356772D01*
X148019000Y-92067972D02*
X148019000Y-91356772D01*
X148019000Y-93541172D02*
X148019000Y-92829972D01*
X148806400Y-93541172D02*
X148019000Y-93541172D01*
X148806400Y-93541172D02*
X148806400Y-92829972D01*
X148806400Y-91356772D02*
X148019000Y-91356772D01*
%TO.C,C4*%
X147842200Y-92231000D02*
X147131000Y-92231000D01*
X147842200Y-91443600D02*
X147842200Y-92231000D01*
X145657800Y-91443600D02*
X145657800Y-92231000D01*
X147842200Y-91443600D02*
X147131000Y-91443600D01*
X146369000Y-92231000D02*
X145657800Y-92231000D01*
X146369000Y-91443600D02*
X145657800Y-91443600D01*
%TO.C,L6*%
X142392200Y-92231000D02*
X142392200Y-91443600D01*
X141681000Y-91443600D02*
X142392200Y-91443600D01*
X140207800Y-92231000D02*
X140207800Y-91443600D01*
X141681000Y-92231000D02*
X142392200Y-92231000D01*
X140207800Y-92231000D02*
X140919000Y-92231000D01*
X140207800Y-91443600D02*
X140919000Y-91443600D01*
%TO.C,C23*%
X128322400Y-101590400D02*
X127230200Y-101590400D01*
X128322400Y-102809600D02*
X127230200Y-102809600D01*
X126468200Y-101590400D02*
X125503000Y-101590400D01*
X125503000Y-102809600D02*
X125503000Y-101590400D01*
X126468200Y-102809600D02*
X125503000Y-102809600D01*
X128322400Y-102809600D02*
X128322400Y-101590400D01*
D12*
%TO.C,BOOT1*%
X144610000Y-116480000D02*
X143280000Y-116480000D01*
X148480000Y-116480000D02*
X148480000Y-113820000D01*
X145880000Y-116480000D02*
X148480000Y-116480000D01*
X143280000Y-116480000D02*
X143280000Y-115150000D01*
X145880000Y-113820000D02*
X148480000Y-113820000D01*
X145880000Y-116480000D02*
X145880000Y-113820000D01*
D14*
%TO.C,C16*%
X127747003Y-88276000D02*
X128458203Y-88276000D01*
X129931403Y-89063400D02*
X129931403Y-88276000D01*
X129220203Y-88276000D02*
X129931403Y-88276000D01*
X127747003Y-89063400D02*
X127747003Y-88276000D01*
X129220203Y-89063400D02*
X129931403Y-89063400D01*
X127747003Y-89063400D02*
X128458203Y-89063400D01*
D12*
%TO.C,SCREEN1*%
X131550000Y-83380000D02*
X131550000Y-82050000D01*
X132880000Y-83380000D02*
X131550000Y-83380000D01*
X141830000Y-83380000D02*
X141830000Y-80720000D01*
X134150000Y-83380000D02*
X134150000Y-80720000D01*
X134150000Y-83380000D02*
X141830000Y-83380000D01*
X134150000Y-80720000D02*
X141830000Y-80720000D01*
D20*
%TO.C,SB1*%
X129253403Y-85641200D02*
X130752003Y-85641200D01*
X129253403Y-84472800D02*
X130752003Y-84472800D01*
X130752003Y-84472800D02*
X130752003Y-85641200D01*
X129253403Y-84472800D02*
X129253403Y-85641200D01*
D14*
%TO.C,R1*%
X140143600Y-98692200D02*
X140931000Y-98692200D01*
X140143600Y-97981000D02*
X140143600Y-98692200D01*
X140143600Y-96507800D02*
X140931000Y-96507800D01*
X140931000Y-96507800D02*
X140931000Y-97219000D01*
X140931000Y-97981000D02*
X140931000Y-98692200D01*
X140143600Y-96507800D02*
X140143600Y-97219000D01*
%TO.C,C22*%
X136254026Y-98506400D02*
X136254026Y-97719000D01*
X135542826Y-98506400D02*
X136254026Y-98506400D01*
X134069626Y-97719000D02*
X134780826Y-97719000D01*
X134069626Y-98506400D02*
X134069626Y-97719000D01*
X134069626Y-98506400D02*
X134780826Y-98506400D01*
X135542826Y-97719000D02*
X136254026Y-97719000D01*
%TO.C,C30*%
X139369000Y-92342200D02*
X139369000Y-91631000D01*
X140156400Y-92342200D02*
X139369000Y-92342200D01*
X139369000Y-90869000D02*
X139369000Y-90157800D01*
X140156400Y-90869000D02*
X140156400Y-90157800D01*
X140156400Y-90157800D02*
X139369000Y-90157800D01*
X140156400Y-92342200D02*
X140156400Y-91631000D01*
%TO.C,L1*%
X148907800Y-92231000D02*
X149619000Y-92231000D01*
X150381000Y-91443600D02*
X151092200Y-91443600D01*
X150381000Y-92231000D02*
X151092200Y-92231000D01*
X148907800Y-91443600D02*
X149619000Y-91443600D01*
X151092200Y-92231000D02*
X151092200Y-91443600D01*
X148907800Y-92231000D02*
X148907800Y-91443600D01*
%TO.C,C25*%
X126831700Y-95493600D02*
X126120500Y-95493600D01*
X126120500Y-95493600D02*
X126120500Y-96281000D01*
X128304900Y-95493600D02*
X128304900Y-96281000D01*
X128304900Y-96281000D02*
X127593700Y-96281000D01*
X128304900Y-95493600D02*
X127593700Y-95493600D01*
X126831700Y-96281000D02*
X126120500Y-96281000D01*
%TO.C,C9*%
X130820203Y-86264800D02*
X130820203Y-86976000D01*
X130820203Y-87738000D02*
X130820203Y-88449200D01*
X130032803Y-86264800D02*
X130032803Y-86976000D01*
X130032803Y-88449200D02*
X130820203Y-88449200D01*
X130032803Y-86264800D02*
X130820203Y-86264800D01*
X130032803Y-87738000D02*
X130032803Y-88449200D01*
%TO.C,C15*%
X128708828Y-96406400D02*
X129420028Y-96406400D01*
X130182028Y-95619000D02*
X130893228Y-95619000D01*
X128708828Y-96406400D02*
X128708828Y-95619000D01*
X130182028Y-96406400D02*
X130893228Y-96406400D01*
X130893228Y-96406400D02*
X130893228Y-95619000D01*
X128708828Y-95619000D02*
X129420028Y-95619000D01*
%TO.C,C3*%
X143281000Y-91356773D02*
X143281000Y-92067973D01*
X142493600Y-91356773D02*
X143281000Y-91356773D01*
X142493600Y-91356773D02*
X142493600Y-92067973D01*
X142493600Y-92829973D02*
X142493600Y-93541173D01*
X143281000Y-92829973D02*
X143281000Y-93541173D01*
X142493600Y-93541173D02*
X143281000Y-93541173D01*
D20*
%TO.C,SB5*%
X140265801Y-95285800D02*
X141434201Y-95285800D01*
X140265801Y-95285800D02*
X140265801Y-93787200D01*
X141434201Y-95285800D02*
X141434201Y-93787200D01*
X140265801Y-93787200D02*
X141434201Y-93787200D01*
D14*
%TO.C,R5*%
X158407800Y-89219000D02*
X159119000Y-89219000D01*
X158407800Y-90006400D02*
X159119000Y-90006400D01*
X159881000Y-89219000D02*
X160592200Y-89219000D01*
X159881000Y-90006400D02*
X160592200Y-90006400D01*
X158407800Y-90006400D02*
X158407800Y-89219000D01*
X160592200Y-90006400D02*
X160592200Y-89219000D01*
%TO.C,C10*%
X135031403Y-87038000D02*
X134320203Y-87038000D01*
X132847003Y-86250600D02*
X132847003Y-87038000D01*
X135031403Y-86250600D02*
X135031403Y-87038000D01*
X135031403Y-86250600D02*
X134320203Y-86250600D01*
X133558203Y-86250600D02*
X132847003Y-86250600D01*
X133558203Y-87038000D02*
X132847003Y-87038000D01*
%TO.C,C27*%
X125319100Y-95507800D02*
X124531700Y-95507800D01*
X124531700Y-96219000D02*
X124531700Y-95507800D01*
X124531700Y-97692200D02*
X124531700Y-96981000D01*
X125319100Y-97692200D02*
X124531700Y-97692200D01*
X125319100Y-96219000D02*
X125319100Y-95507800D01*
X125319100Y-97692200D02*
X125319100Y-96981000D01*
%TO.C,C12*%
X139806400Y-97619000D02*
X139806400Y-96907800D01*
X139806400Y-96907800D02*
X139019000Y-96907800D01*
X139019000Y-97619000D02*
X139019000Y-96907800D01*
X139019000Y-99092200D02*
X139019000Y-98381000D01*
X139806400Y-99092200D02*
X139019000Y-99092200D01*
X139806400Y-99092200D02*
X139806400Y-98381000D01*
%TO.C,C21*%
X130481000Y-92831571D02*
X130481000Y-93542771D01*
X129693600Y-92831571D02*
X129693600Y-93542771D01*
X129693600Y-91358371D02*
X129693600Y-92069571D01*
X129693600Y-93542771D02*
X130481000Y-93542771D01*
X130481000Y-91358371D02*
X130481000Y-92069571D01*
X129693600Y-91358371D02*
X130481000Y-91358371D01*
%TO.C,C17*%
X128708828Y-98406400D02*
X128708828Y-97619000D01*
X128708828Y-98406400D02*
X129420028Y-98406400D01*
X130182028Y-97619000D02*
X130893228Y-97619000D01*
X130182028Y-98406400D02*
X130893228Y-98406400D01*
X130893228Y-98406400D02*
X130893228Y-97619000D01*
X128708828Y-97619000D02*
X129420028Y-97619000D01*
D20*
%TO.C,SB4*%
X126746700Y-93351700D02*
X128245300Y-93351700D01*
X128245300Y-92183300D02*
X128245300Y-93351700D01*
X126746700Y-92183300D02*
X128245300Y-92183300D01*
X126746700Y-92183300D02*
X126746700Y-93351700D01*
D14*
%TO.C,R13*%
X139243600Y-85207800D02*
X140031000Y-85207800D01*
X139243600Y-85207800D02*
X139243600Y-85919000D01*
X140031000Y-86681000D02*
X140031000Y-87392200D01*
X139243600Y-86681000D02*
X139243600Y-87392200D01*
X139243600Y-87392200D02*
X140031000Y-87392200D01*
X140031000Y-85207800D02*
X140031000Y-85919000D01*
D17*
%TO.C,FLT1*%
X145000001Y-92249999D02*
X145000001Y-91450001D01*
X143399999Y-92249999D02*
X145000001Y-92249999D01*
X143399999Y-92249999D02*
X143399999Y-91450001D01*
X143399999Y-91450001D02*
X145000001Y-91450001D01*
D10*
X143862236Y-91850000D02*
G75*
G03*
X143862236Y-91850000I-2235J0D01*
G01*
D14*
%TO.C,C24*%
X128304900Y-100593600D02*
X128304900Y-101381000D01*
X126831700Y-100593600D02*
X126120500Y-100593600D01*
X126120500Y-100593600D02*
X126120500Y-101381000D01*
X126831700Y-101381000D02*
X126120500Y-101381000D01*
X128304900Y-100593600D02*
X127593700Y-100593600D01*
X128304900Y-101381000D02*
X127593700Y-101381000D01*
D17*
%TO.C,X1*%
X137473000Y-86484000D02*
X137727000Y-86484000D01*
D21*
X136440399Y-86602202D02*
X136627396Y-86602202D01*
X136609400Y-86433200D02*
X136627396Y-86433200D01*
D17*
X136787200Y-87728600D02*
X136787200Y-87271400D01*
X138412800Y-87728600D02*
X138412800Y-87271400D01*
X137473000Y-88516000D02*
X137727000Y-88516000D01*
D21*
X136440399Y-86602202D02*
X136609400Y-86433200D01*
X136627396Y-86602202D02*
X136627396Y-86433200D01*
%TD*%
M02*
