%TF.GenerationSoftware,KiCad,Pcbnew,6.0.4-6f826c9f35~116~ubuntu18.04.1*%
%TF.CreationDate,2022-08-05T10:58:23+02:00*%
%TF.ProjectId,test,74657374-2e6b-4696-9361-645f70636258,rev?*%
%TF.SameCoordinates,Original*%
%TF.FileFunction,Soldermask,Top*%
%TF.FilePolarity,Negative*%
%FSLAX46Y46*%
G04 Gerber Fmt 4.6, Leading zero omitted, Abs format (unit mm)*
G04 Created by KiCad (PCBNEW 6.0.4-6f826c9f35~116~ubuntu18.04.1) date 2022-08-05 10:58:23*
%MOMM*%
%LPD*%
G01*
G04 APERTURE LIST*
G04 Aperture macros list*
%AMRoundRect*
0 Rectangle with rounded corners*
0 $1 Rounding radius*
0 $2 $3 $4 $5 $6 $7 $8 $9 X,Y pos of 4 corners*
0 Add a 4 corners polygon primitive as box body*
4,1,4,$2,$3,$4,$5,$6,$7,$8,$9,$2,$3,0*
0 Add four circle primitives for the rounded corners*
1,1,$1+$1,$2,$3*
1,1,$1+$1,$4,$5*
1,1,$1+$1,$6,$7*
1,1,$1+$1,$8,$9*
0 Add four rect primitives between the rounded corners*
20,1,$1+$1,$2,$3,$4,$5,0*
20,1,$1+$1,$4,$5,$6,$7,0*
20,1,$1+$1,$6,$7,$8,$9,0*
20,1,$1+$1,$8,$9,$2,$3,0*%
%AMFreePoly0*
4,1,17,0.267426,0.192426,0.342426,0.117426,0.360000,0.075000,0.360000,-0.075000,0.342426,-0.117426,0.267426,-0.192426,0.225000,-0.210000,-0.225000,-0.210000,-0.267426,-0.192426,-0.342426,-0.117426,-0.360000,-0.075000,-0.360000,0.075000,-0.342426,0.117426,-0.267426,0.192426,-0.225000,0.210000,0.225000,0.210000,0.267426,0.192426,0.267426,0.192426,$1*%
G04 Aperture macros list end*
%ADD10C,0.000000*%
%ADD11C,0.010000*%
%ADD12R,0.635000X0.508000*%
%ADD13FreePoly0,90.000000*%
%ADD14FreePoly0,180.000000*%
%ADD15RoundRect,0.080000X2.800000X2.800000X-2.800000X2.800000X-2.800000X-2.800000X2.800000X-2.800000X0*%
%ADD16R,1.700000X1.700000*%
%ADD17O,1.700000X1.700000*%
%ADD18R,0.800000X1.000000*%
%ADD19RoundRect,0.050000X-0.150000X0.325000X-0.150000X-0.325000X0.150000X-0.325000X0.150000X0.325000X0*%
%ADD20C,0.256000*%
%ADD21R,2.000000X2.400000*%
%ADD22R,1.270000X0.508000*%
%ADD23R,1.000000X0.800000*%
%ADD24R,1.270000X1.524000*%
%ADD25R,0.508000X0.635000*%
%ADD26C,1.800000*%
%ADD27C,1.308000*%
%ADD28R,1.250000X1.000000*%
%ADD29R,0.980000X0.780000*%
%ADD30C,1.080000*%
%ADD31R,0.680000X1.080000*%
%ADD32RoundRect,0.125000X-0.875000X0.125000X-0.875000X-0.125000X0.875000X-0.125000X0.875000X0.125000X0*%
%ADD33RoundRect,0.125000X-0.125000X0.175000X-0.125000X-0.175000X0.125000X-0.175000X0.125000X0.175000X0*%
%ADD34R,2.200000X0.500000*%
%ADD35R,1.700000X1.300000*%
%ADD36C,2.850000*%
%ADD37R,0.260000X0.530000*%
%ADD38R,0.380000X0.580000*%
%ADD39R,0.730000X0.830000*%
G04 APERTURE END LIST*
D10*
G36*
X126862000Y-85849999D02*
G01*
X125465000Y-85849999D01*
X125465000Y-84750001D01*
X126862000Y-84750001D01*
X126862000Y-85849999D01*
G37*
G36*
X141400000Y-95242499D02*
G01*
X140300002Y-95242499D01*
X140300002Y-93845499D01*
X141400000Y-93845499D01*
X141400000Y-95242499D01*
G37*
G36*
X128229500Y-93317499D02*
G01*
X126832500Y-93317499D01*
X126832500Y-92217501D01*
X128229500Y-92217501D01*
X128229500Y-93317499D01*
G37*
G36*
X128452155Y-101300000D02*
G01*
X127352157Y-101300000D01*
X127352157Y-99903000D01*
X128452155Y-99903000D01*
X128452155Y-101300000D01*
G37*
%TO.C,OXYMETER1*%
G36*
X135950000Y-104900000D02*
G01*
X128450000Y-104900000D01*
X128450000Y-102100000D01*
X135950000Y-102100000D01*
X135950000Y-104900000D01*
G37*
D11*
X135950000Y-104900000D02*
X128450000Y-104900000D01*
X128450000Y-102100000D01*
X135950000Y-102100000D01*
X135950000Y-104900000D01*
%TD*%
D12*
%TO.C,C20*%
X129202056Y-97000000D03*
X130400001Y-97000000D03*
%TD*%
D13*
%TO.C,U1*%
X132253686Y-96498398D03*
X132760797Y-96498398D03*
X133260798Y-96498398D03*
X133760797Y-96498398D03*
X134260799Y-96498398D03*
X134760798Y-96498398D03*
X135260797Y-96498398D03*
X135760798Y-96498398D03*
X136260797Y-96498398D03*
X136760799Y-96498398D03*
X137260798Y-96498398D03*
X137760797Y-96498398D03*
D14*
X138398799Y-95851597D03*
X138398799Y-95351598D03*
X138398799Y-94851599D03*
X138398799Y-94351598D03*
X138398799Y-93851599D03*
X138398799Y-93351597D03*
X138398799Y-92851598D03*
X138398799Y-92351599D03*
X138398799Y-91851598D03*
X138398799Y-91351599D03*
X138398799Y-90851597D03*
X138398799Y-90351598D03*
D13*
X137760797Y-89701597D03*
X137260798Y-89701597D03*
X136760799Y-89701597D03*
X136260797Y-89701597D03*
X135760798Y-89701597D03*
X135260797Y-89701597D03*
X134760798Y-89701597D03*
X134260799Y-89701597D03*
X133760797Y-89701597D03*
X133260798Y-89701597D03*
X132760797Y-89701597D03*
X132260798Y-89701597D03*
D14*
X131601198Y-90351598D03*
X131601198Y-90851597D03*
X131601198Y-91351599D03*
X131601198Y-91851598D03*
X131601198Y-92351599D03*
X131601198Y-92851598D03*
X131601198Y-93351597D03*
X131601198Y-93851599D03*
X131601198Y-94351598D03*
X131601198Y-94851599D03*
X131601198Y-95351598D03*
X131601198Y-95851597D03*
D15*
X135000000Y-93100000D03*
%TD*%
D16*
%TO.C,FIXATION_ECRAN1*%
X131300000Y-83900000D03*
D17*
X133840000Y-83900000D03*
X136380000Y-83900000D03*
X138920000Y-83900000D03*
%TD*%
D18*
%TO.C,L3*%
X133957398Y-99300000D03*
X135760798Y-99300000D03*
%TD*%
D19*
%TO.C,D4*%
X138500000Y-97425000D03*
X138500000Y-98775000D03*
%TD*%
D12*
%TO.C,C28*%
X146098972Y-94100000D03*
X144901027Y-94100000D03*
%TD*%
D20*
%TO.C,SB3*%
X127900000Y-100200001D03*
X127900000Y-101208000D03*
%TD*%
D12*
%TO.C,R2*%
X130435000Y-100100000D03*
X129165000Y-100100000D03*
%TD*%
D21*
%TO.C,BUZZER1*%
X145300000Y-101650000D03*
X141300000Y-101650000D03*
%TD*%
D22*
%TO.C,U2*%
X121969200Y-92362850D03*
X121969200Y-91412849D03*
X121969200Y-90462851D03*
X119669200Y-90462851D03*
X119669200Y-91412849D03*
X119669200Y-92362850D03*
%TD*%
D23*
%TO.C,C26*%
X127200000Y-96301700D03*
X127200000Y-94498300D03*
%TD*%
D12*
%TO.C,C18*%
X130400000Y-99000000D03*
X129202055Y-99000000D03*
%TD*%
%TO.C,C19*%
X140001028Y-92900000D03*
X141198973Y-92900000D03*
%TD*%
%TO.C,C7*%
X151848972Y-90798975D03*
X150651027Y-90798975D03*
%TD*%
D24*
%TO.C,L2*%
X127960797Y-85257000D03*
X127960797Y-87543000D03*
%TD*%
D25*
%TO.C,C8*%
X146000000Y-91850000D03*
X146000000Y-93047945D03*
%TD*%
D26*
%TO.C,BUTTON3*%
X130700000Y-81650000D03*
X123715000Y-81650000D03*
D27*
X129430000Y-79110000D03*
X124985000Y-79110000D03*
%TD*%
D28*
%TO.C,X2*%
X131800000Y-97650000D03*
X131800000Y-99150000D03*
%TD*%
D22*
%TO.C,U3*%
X121930000Y-94447500D03*
X121930000Y-95387300D03*
X121930000Y-96352500D03*
X124470000Y-96352500D03*
X124470000Y-94447500D03*
%TD*%
D25*
%TO.C,C6*%
X148400000Y-91850000D03*
X148400000Y-93047945D03*
%TD*%
D12*
%TO.C,C4*%
X146151028Y-91850000D03*
X147348973Y-91850000D03*
%TD*%
%TO.C,L6*%
X140701030Y-91850000D03*
X141898975Y-91850000D03*
%TD*%
D23*
%TO.C,C23*%
X119400000Y-94498300D03*
X119400000Y-96301700D03*
%TD*%
D26*
%TO.C,BUTTON2*%
X139900000Y-81650000D03*
X132915000Y-81650000D03*
D27*
X138630000Y-79110000D03*
X134185000Y-79110000D03*
%TD*%
D12*
%TO.C,C16*%
X125598972Y-88900000D03*
X124401027Y-88900000D03*
%TD*%
D26*
%TO.C,BUTTON1*%
X149100000Y-81650000D03*
X142115000Y-81650000D03*
D27*
X147830000Y-79110000D03*
X143385000Y-79110000D03*
%TD*%
D20*
%TO.C,SB1*%
X126599999Y-85300000D03*
X125592000Y-85300000D03*
%TD*%
D25*
%TO.C,R1*%
X140550000Y-98235000D03*
X140550000Y-96965000D03*
%TD*%
D12*
%TO.C,C22*%
X135760798Y-98100000D03*
X134562853Y-98100000D03*
%TD*%
%TO.C,C29*%
X146000000Y-97600000D03*
X144802055Y-97600000D03*
%TD*%
D25*
%TO.C,C30*%
X139650000Y-90652055D03*
X139650000Y-91850000D03*
%TD*%
D12*
%TO.C,L1*%
X149401030Y-91850000D03*
X150598975Y-91850000D03*
%TD*%
D29*
%TO.C,SW2*%
X118700000Y-99702600D03*
X118700000Y-102002601D03*
X126200000Y-102002601D03*
X126200000Y-99702600D03*
D30*
X123950000Y-100852601D03*
X120950001Y-100852601D03*
D31*
X120200000Y-98802600D03*
X123200001Y-98802600D03*
X124700001Y-98802600D03*
%TD*%
D25*
%TO.C,C25*%
X125700000Y-95101028D03*
X125700000Y-96298973D03*
%TD*%
%TO.C,L4*%
X146000000Y-95251030D03*
X146000000Y-96448975D03*
%TD*%
%TO.C,C9*%
X126600000Y-88198972D03*
X126600000Y-87001027D03*
%TD*%
D32*
%TO.C,CN5*%
X147914200Y-99100000D03*
D33*
X150022400Y-99100000D03*
D34*
X148600000Y-100575001D03*
X148600000Y-97624999D03*
%TD*%
D12*
%TO.C,C15*%
X130400000Y-96000000D03*
X129202055Y-96000000D03*
%TD*%
D25*
%TO.C,C3*%
X142900000Y-93047945D03*
X142900000Y-91850000D03*
%TD*%
D20*
%TO.C,SB5*%
X140850001Y-94100001D03*
X140850001Y-95108000D03*
%TD*%
D12*
%TO.C,C10*%
X129501028Y-86900000D03*
X130698973Y-86900000D03*
%TD*%
%TO.C,C27*%
X125598972Y-93400000D03*
X124401027Y-93400000D03*
%TD*%
D25*
%TO.C,C12*%
X139400000Y-97401028D03*
X139400000Y-98598973D03*
%TD*%
%TO.C,C21*%
X130100000Y-93049543D03*
X130100000Y-91851598D03*
%TD*%
D35*
%TO.C,USB1*%
X117550000Y-96300000D03*
X117550000Y-93800000D03*
X117550000Y-91800000D03*
X117550000Y-89300000D03*
D36*
X115200000Y-90550000D03*
X115200000Y-95050000D03*
%TD*%
D12*
%TO.C,C17*%
X130400000Y-98000000D03*
X129202055Y-98000000D03*
%TD*%
D20*
%TO.C,SB4*%
X127932499Y-92767500D03*
X126924500Y-92767500D03*
%TD*%
D16*
%TO.C,CONNECTEUR_NRST1*%
X138150000Y-102000000D03*
%TD*%
D37*
%TO.C,FLT1*%
X143640001Y-91850000D03*
D38*
X144200000Y-91849998D03*
D37*
X144759999Y-91850000D03*
%TD*%
D25*
%TO.C,C24*%
X120600000Y-95101028D03*
X120600000Y-96298973D03*
%TD*%
D12*
%TO.C,C1*%
X140798972Y-89500000D03*
X139601027Y-89500000D03*
%TD*%
%TO.C,C2*%
X139651028Y-87350000D03*
X140848973Y-87350000D03*
%TD*%
D39*
%TO.C,X1*%
X136129801Y-86583400D03*
X136129801Y-87933400D03*
X137179801Y-87933400D03*
X137179801Y-86583400D03*
%TD*%
M02*
