M48
; DRILL file {KiCad (6.0.6)} date Wed Oct 19 18:58:43 2022
; FORMAT={-:-/ absolute / inch / decimal}
; #@! TF.CreationDate,2022-10-19T18:58:43+02:00
; #@! TF.GenerationSoftware,Kicad,Pcbnew,(6.0.6)
; #@! TF.FileFunction,Plated,1,2,PTH
FMAT,2
INCH
; #@! TA.AperFunction,Plated,PTH,ViaDrill
T1C0.0118
; #@! TA.AperFunction,Plated,PTH,ComponentDrill
T2C0.0118
; #@! TA.AperFunction,Plated,PTH,ComponentDrill
T3C0.0350
; #@! TA.AperFunction,Plated,PTH,ComponentDrill
T4C0.0394
%
G90
G05
T1
X4.9776Y-3.5566
X4.9776Y-3.6215
X5.0295Y-3.5315
X5.0685Y-3.327
X5.0748Y-3.6523
X5.0925Y-3.749
X5.1526Y-3.749
X5.2712Y-3.9837
X5.2768Y-3.8344
X5.2953Y-3.3701
X5.3026Y-3.8252
X5.3091Y-4.1555
X5.3189Y-3.3583
X5.3233Y-3.8366
X5.3504Y-3.3661
X5.3602Y-3.9695
X5.4114Y-4.1496
X5.435Y-4.1496
X5.4453Y-3.8071
X5.4586Y-4.1496
X5.4685Y-3.6556
X5.4822Y-4.1496
X5.4827Y-3.7146
X5.4846Y-3.6752
X5.498Y-3.4724
X5.5Y-3.7343
X5.5007Y-3.6949
X5.5059Y-3.7874
X5.5116Y-3.7645
X5.5276Y-3.9331
X5.5276Y-3.9016
X5.5531Y-3.7559
X5.6457Y-3.6949
X5.6831Y-3.7087
X6.4488Y-3.5531
X6.4764Y-3.6043
X6.5157Y-3.7854
X6.5528Y-3.9055
X6.5531Y-3.9528
X6.5551Y-3.7441
X6.7402Y-3.811
X6.7409Y-4.0
X6.8031Y-4.0
X6.8071Y-3.5531
X6.9075Y-4.0512
T2
X4.9094Y-3.7756
X4.9422Y-3.592
X4.9513Y-3.9921
X4.9926Y-3.9587
X4.9961Y-3.7547
X4.9961Y-3.7941
X5.002Y-4.0866
X5.0197Y-3.4941
X5.065Y-3.7795
X5.065Y-3.811
X5.0748Y-3.9606
X5.0787Y-3.6161
X5.0787Y-3.7126
X5.0925Y-3.9193
X5.1201Y-3.6496
X5.124Y-3.7795
X5.124Y-3.8189
X5.1256Y-3.4019
X5.1673Y-4.0335
X5.1732Y-4.3366
X5.2126Y-3.9783
X5.2165Y-3.5669
X5.2165Y-3.6555
X5.2165Y-3.7638
X5.2657Y-3.3465
X5.2776Y-4.3878
X5.2795Y-3.4764
X5.2835Y-3.7638
X5.2874Y-3.6575
X5.2953Y-3.4213
X5.2953Y-3.565
X5.311Y-3.874
X5.3445Y-4.1801
X5.3573Y-4.3406
X5.3639Y-3.6602
X5.3661Y-3.5669
X5.3701Y-3.7638
X5.378Y-3.4646
X5.4045Y-4.2156
X5.4114Y-3.6654
X5.4134Y-3.5669
X5.4134Y-3.7638
X5.4173Y-4.0817
X5.4587Y-3.4193
X5.4744Y-3.5984
X5.4764Y-3.7972
X5.4803Y-3.8701
X5.4892Y-3.936
X5.4911Y-4.2598
X5.5167Y-4.0
X5.6024Y-3.5571
X5.6427Y-4.0984
X5.6772Y-3.5965
X5.6772Y-3.6358
X5.6772Y-3.6693
X5.7559Y-3.9911
X5.8287Y-3.6614
X6.0118Y-3.2106
X6.0118Y-3.2441
X6.0118Y-3.2776
X6.0118Y-3.311
X6.0118Y-3.3445
X6.0118Y-3.378
X6.0118Y-3.4114
X6.0118Y-3.4449
X6.0118Y-3.4783
X6.0118Y-3.5118
X6.0118Y-3.5453
X6.0118Y-3.5787
X6.0118Y-3.6122
X6.0118Y-3.6457
X6.0118Y-3.6791
X6.0118Y-3.7126
X6.0118Y-3.7461
X6.0118Y-3.7795
X6.0118Y-3.813
X6.0118Y-3.8819
X6.0118Y-3.9154
X6.0118Y-3.9803
X6.0118Y-4.0138
X6.0118Y-4.0807
X6.0118Y-4.1142
X6.0118Y-4.1811
X6.0118Y-4.2146
X6.0118Y-4.2815
X6.0118Y-4.315
X6.0118Y-4.3819
X6.0118Y-4.4154
X6.0118Y-4.4823
X6.0118Y-4.5157
X6.0118Y-4.5787
X6.0118Y-4.6122
X6.0118Y-4.6929
X6.0118Y-4.7264
X6.1535Y-4.2894
X6.2579Y-4.5512
X6.2657Y-4.1654
X6.2972Y-3.8228
X6.3228Y-4.5512
X6.3898Y-4.1457
X6.4488Y-3.9744
X6.5945Y-3.5118
X6.5945Y-3.5787
X6.7146Y-3.7126
T3
X5.935Y-3.748
X5.935Y-3.848
X5.935Y-3.948
X5.935Y-4.048
X5.935Y-4.148
X5.935Y-4.248
X5.935Y-4.348
X5.935Y-4.448
X5.935Y-4.548
X5.935Y-4.648
X6.0866Y-3.7483
X6.0866Y-3.8483
X6.0866Y-3.9483
X6.0866Y-4.0483
X6.0866Y-4.1483
X6.0866Y-4.2483
X6.0866Y-4.3483
X6.0866Y-4.4483
X6.0866Y-4.5483
X6.0866Y-4.6483
T4
X5.2315Y-3.2303
X5.3315Y-3.2303
X5.4315Y-3.2303
X5.5315Y-3.2303
X5.6933Y-4.5335
X5.7933Y-4.5335
T0
M30
