%TF.GenerationSoftware,KiCad,Pcbnew,6.0.4-6f826c9f35~116~ubuntu18.04.1*%
%TF.CreationDate,2022-08-05T10:58:23+02:00*%
%TF.ProjectId,test,74657374-2e6b-4696-9361-645f70636258,rev?*%
%TF.SameCoordinates,Original*%
%TF.FileFunction,Legend,Bot*%
%TF.FilePolarity,Positive*%
%FSLAX46Y46*%
G04 Gerber Fmt 4.6, Leading zero omitted, Abs format (unit mm)*
G04 Created by KiCad (PCBNEW 6.0.4-6f826c9f35~116~ubuntu18.04.1) date 2022-08-05 10:58:23*
%MOMM*%
%LPD*%
G01*
G04 APERTURE LIST*
%ADD10C,0.127000*%
G04 APERTURE END LIST*
D10*
%TO.C,BUTTON3*%
X128795000Y-72760000D02*
X125620000Y-72760000D01*
X128160000Y-75300000D02*
X126255000Y-75300000D01*
X126255000Y-75300000D02*
X126255000Y-77205000D01*
X128795000Y-75300000D02*
X128795000Y-72760000D01*
X125620000Y-77205000D02*
X126255000Y-77205000D01*
X125620000Y-77205000D02*
X125620000Y-77840000D01*
X128795000Y-77205000D02*
X128160000Y-77205000D01*
X128795000Y-77840000D02*
X128795000Y-77205000D01*
X125620000Y-72760000D02*
X125620000Y-75300000D01*
X128160000Y-77205000D02*
X126255000Y-77205000D01*
X128160000Y-77205000D02*
X128160000Y-75300000D01*
%TO.C,BUTTON2*%
X134820000Y-72760000D02*
X134820000Y-75300000D01*
X137360000Y-75300000D02*
X135455000Y-75300000D01*
X134820000Y-77205000D02*
X134820000Y-77840000D01*
X137995000Y-75300000D02*
X137995000Y-72760000D01*
X135455000Y-75300000D02*
X135455000Y-77205000D01*
X137995000Y-72760000D02*
X134820000Y-72760000D01*
X137995000Y-77205000D02*
X137360000Y-77205000D01*
X137360000Y-77205000D02*
X137360000Y-75300000D01*
X137995000Y-77840000D02*
X137995000Y-77205000D01*
X134820000Y-77205000D02*
X135455000Y-77205000D01*
X137360000Y-77205000D02*
X135455000Y-77205000D01*
%TO.C,BUTTON1*%
X146560000Y-77205000D02*
X144655000Y-77205000D01*
X147195000Y-72760000D02*
X144020000Y-72760000D01*
X147195000Y-75300000D02*
X147195000Y-72760000D01*
X144020000Y-77205000D02*
X144655000Y-77205000D01*
X147195000Y-77840000D02*
X147195000Y-77205000D01*
X146560000Y-77205000D02*
X146560000Y-75300000D01*
X144020000Y-72760000D02*
X144020000Y-75300000D01*
X144655000Y-75300000D02*
X144655000Y-77205000D01*
X147195000Y-77205000D02*
X146560000Y-77205000D01*
X144020000Y-77205000D02*
X144020000Y-77840000D01*
X146560000Y-75300000D02*
X144655000Y-75300000D01*
%TD*%
M02*
