%TF.GenerationSoftware,KiCad,Pcbnew,(6.0.6)*%
%TF.CreationDate,2022-10-19T18:58:46+02:00*%
%TF.ProjectId,test,74657374-2e6b-4696-9361-645f70636258,rev?*%
%TF.SameCoordinates,Original*%
%TF.FileFunction,Soldermask,Top*%
%TF.FilePolarity,Negative*%
%FSLAX46Y46*%
G04 Gerber Fmt 4.6, Leading zero omitted, Abs format (unit mm)*
G04 Created by KiCad (PCBNEW (6.0.6)) date 2022-10-19 18:58:46*
%MOMM*%
%LPD*%
G01*
G04 APERTURE LIST*
G04 Aperture macros list*
%AMRoundRect*
0 Rectangle with rounded corners*
0 $1 Rounding radius*
0 $2 $3 $4 $5 $6 $7 $8 $9 X,Y pos of 4 corners*
0 Add a 4 corners polygon primitive as box body*
4,1,4,$2,$3,$4,$5,$6,$7,$8,$9,$2,$3,0*
0 Add four circle primitives for the rounded corners*
1,1,$1+$1,$2,$3*
1,1,$1+$1,$4,$5*
1,1,$1+$1,$6,$7*
1,1,$1+$1,$8,$9*
0 Add four rect primitives between the rounded corners*
20,1,$1+$1,$2,$3,$4,$5,0*
20,1,$1+$1,$4,$5,$6,$7,0*
20,1,$1+$1,$6,$7,$8,$9,0*
20,1,$1+$1,$8,$9,$2,$3,0*%
%AMFreePoly0*
4,1,17,0.267426,0.192426,0.342426,0.117426,0.360000,0.075000,0.360000,-0.075000,0.342426,-0.117426,0.267426,-0.192426,0.225000,-0.210000,-0.225000,-0.210000,-0.267426,-0.192426,-0.342426,-0.117426,-0.360000,-0.075000,-0.360000,0.075000,-0.342426,0.117426,-0.267426,0.192426,-0.225000,0.210000,0.225000,0.210000,0.267426,0.192426,0.267426,0.192426,$1*%
G04 Aperture macros list end*
%ADD10C,0.000000*%
%ADD11C,0.010000*%
%ADD12R,0.920000X0.970000*%
%ADD13R,0.560000X0.600000*%
%ADD14R,0.870000X0.930000*%
%ADD15R,1.420000X1.000000*%
%ADD16RoundRect,0.020500X-0.759500X-0.184500X0.759500X-0.184500X0.759500X0.184500X-0.759500X0.184500X0*%
%ADD17R,2.000000X1.000000*%
%ADD18R,2.000000X1.800000*%
%ADD19C,0.800000*%
%ADD20C,1.100000*%
%ADD21R,1.240000X1.240000*%
%ADD22C,1.240000*%
%ADD23R,1.700000X2.100000*%
%ADD24R,0.635000X0.508000*%
%ADD25FreePoly0,90.000000*%
%ADD26FreePoly0,180.000000*%
%ADD27RoundRect,0.080000X2.800000X2.800000X-2.800000X2.800000X-2.800000X-2.800000X2.800000X-2.800000X0*%
%ADD28R,1.000000X0.800000*%
%ADD29RoundRect,0.050000X-0.150000X0.325000X-0.150000X-0.325000X0.150000X-0.325000X0.150000X0.325000X0*%
%ADD30R,1.270000X0.508000*%
%ADD31R,0.800000X1.000000*%
%ADD32R,0.508000X0.635000*%
%ADD33R,1.270000X1.524000*%
%ADD34R,1.250000X1.000000*%
%ADD35R,0.508000X1.270000*%
%ADD36R,1.700000X1.700000*%
%ADD37O,1.700000X1.700000*%
%ADD38C,0.256000*%
%ADD39R,8.000000X1.900000*%
%ADD40R,7.500000X2.000000*%
%ADD41R,0.260000X0.530000*%
%ADD42R,0.380000X0.580000*%
%ADD43R,0.730000X0.830000*%
G04 APERTURE END LIST*
D10*
G36*
X138825000Y-99750000D02*
G01*
X138150002Y-99750000D01*
X138150002Y-99203000D01*
X138825000Y-99203000D01*
X138825000Y-99750000D01*
G37*
G36*
X130701203Y-85606999D02*
G01*
X129304203Y-85606999D01*
X129304203Y-84507001D01*
X130701203Y-84507001D01*
X130701203Y-85606999D01*
G37*
G36*
X141400000Y-95242499D02*
G01*
X140300002Y-95242499D01*
X140300002Y-93845499D01*
X141400000Y-93845499D01*
X141400000Y-95242499D01*
G37*
G36*
X128229500Y-93317499D02*
G01*
X126832500Y-93317499D01*
X126832500Y-92217501D01*
X128229500Y-92217501D01*
X128229500Y-93317499D01*
G37*
%TO.C,U4*%
G36*
X172700000Y-100700000D02*
G01*
X164900000Y-100700000D01*
X164900000Y-96500000D01*
X172700000Y-96500000D01*
X172700000Y-100700000D01*
G37*
D11*
X172700000Y-100700000D02*
X164900000Y-100700000D01*
X164900000Y-96500000D01*
X172700000Y-96500000D01*
X172700000Y-100700000D01*
%TD*%
D12*
%TO.C,C40*%
X178625000Y-88400000D03*
X180175000Y-88400000D03*
%TD*%
%TO.C,C41*%
X175375000Y-91950000D03*
X176925000Y-91950000D03*
%TD*%
%TO.C,C42*%
X158875000Y-93500000D03*
X160425000Y-93500000D03*
%TD*%
%TO.C,C43*%
X162125000Y-91950000D03*
X160575000Y-91950000D03*
%TD*%
D13*
%TO.C,R4*%
X175715000Y-90600000D03*
X176585000Y-90600000D03*
%TD*%
%TO.C,R6*%
X161785000Y-90600000D03*
X160915000Y-90600000D03*
%TD*%
D14*
%TO.C,R12*%
X173870000Y-101600000D03*
X175430000Y-101600000D03*
%TD*%
D15*
%TO.C,R11*%
X162150000Y-93515000D03*
X162150000Y-95385000D03*
%TD*%
%TO.C,R10*%
X173700000Y-91665000D03*
X173700000Y-93535000D03*
%TD*%
D16*
%TO.C,TSU1*%
X165870000Y-89600000D03*
X165870000Y-90250000D03*
X165870000Y-90900000D03*
X165870000Y-91550000D03*
X165870000Y-92200000D03*
X165870000Y-92850000D03*
X165870000Y-93500000D03*
X171630000Y-93500000D03*
X171630000Y-92850000D03*
X171630000Y-92200000D03*
X171630000Y-91550000D03*
X171630000Y-90900000D03*
X171630000Y-90250000D03*
X171630000Y-89600000D03*
%TD*%
D17*
%TO.C,JOYSTICK1*%
X132700000Y-114325000D03*
X132700000Y-115750000D03*
X132700000Y-117175000D03*
X140700000Y-114325000D03*
X140700000Y-115750000D03*
X140700000Y-117175000D03*
D18*
X136700000Y-111700000D03*
X136700000Y-119800000D03*
D19*
X136700000Y-113850000D03*
D20*
X136700000Y-117650000D03*
%TD*%
D21*
%TO.C,HEADER1*%
X150750000Y-95200000D03*
D22*
X150750000Y-97740000D03*
X150750000Y-100280000D03*
X150750000Y-102820000D03*
X150750000Y-105360000D03*
X150750000Y-107900000D03*
X150750000Y-110440000D03*
X150750000Y-112980000D03*
X150750000Y-115520000D03*
X150750000Y-118060000D03*
%TD*%
D21*
%TO.C,HEADER2*%
X154600000Y-95207500D03*
D22*
X154600000Y-97747500D03*
X154600000Y-100287500D03*
X154600000Y-102827500D03*
X154600000Y-105367500D03*
X154600000Y-107907500D03*
X154600000Y-110447500D03*
X154600000Y-112987500D03*
X154600000Y-115527500D03*
X154600000Y-118067500D03*
%TD*%
D23*
%TO.C,BZR1*%
X144350000Y-95700000D03*
X144350000Y-99500000D03*
X147850000Y-95700000D03*
%TD*%
D24*
%TO.C,C20*%
X129202056Y-97000000D03*
X130400001Y-97000000D03*
%TD*%
D25*
%TO.C,U1*%
X132253686Y-96498398D03*
X132760797Y-96498398D03*
X133260798Y-96498398D03*
X133760797Y-96498398D03*
X134260799Y-96498398D03*
X134760798Y-96498398D03*
X135260797Y-96498398D03*
X135760798Y-96498398D03*
X136260797Y-96498398D03*
X136760799Y-96498398D03*
X137260798Y-96498398D03*
X137760797Y-96498398D03*
D26*
X138398799Y-95851597D03*
X138398799Y-95351598D03*
X138398799Y-94851599D03*
X138398799Y-94351598D03*
X138398799Y-93851599D03*
X138398799Y-93351597D03*
X138398799Y-92851598D03*
X138398799Y-92351599D03*
X138398799Y-91851598D03*
X138398799Y-91351599D03*
X138398799Y-90851597D03*
X138398799Y-90351598D03*
D25*
X137760797Y-89701597D03*
X137260798Y-89701597D03*
X136760799Y-89701597D03*
X136260797Y-89701597D03*
X135760798Y-89701597D03*
X135260797Y-89701597D03*
X134760798Y-89701597D03*
X134260799Y-89701597D03*
X133760797Y-89701597D03*
X133260798Y-89701597D03*
X132760797Y-89701597D03*
X132260798Y-89701597D03*
D26*
X131601198Y-90351598D03*
X131601198Y-90851597D03*
X131601198Y-91351599D03*
X131601198Y-91851598D03*
X131601198Y-92351599D03*
X131601198Y-92851598D03*
X131601198Y-93351597D03*
X131601198Y-93851599D03*
X131601198Y-94351598D03*
X131601198Y-94851599D03*
X131601198Y-95351598D03*
X131601198Y-95851597D03*
D27*
X135000000Y-93100000D03*
%TD*%
D28*
%TO.C,L3*%
X135750000Y-99348300D03*
X135750000Y-101151700D03*
%TD*%
D29*
%TO.C,D4*%
X138500000Y-97425000D03*
X138500000Y-98775000D03*
%TD*%
D24*
%TO.C,R3*%
X177365000Y-89600000D03*
X178635000Y-89600000D03*
%TD*%
%TO.C,C1*%
X140398972Y-89300000D03*
X139201027Y-89300000D03*
%TD*%
%TO.C,R2*%
X130435000Y-100100000D03*
X129165000Y-100100000D03*
%TD*%
%TO.C,C2*%
X140548972Y-88400000D03*
X139351027Y-88400000D03*
%TD*%
D30*
%TO.C,U2*%
X124800000Y-92299999D03*
X124800000Y-91349998D03*
X124800000Y-90400000D03*
X122500000Y-90400000D03*
X122500000Y-91349998D03*
X122500000Y-92299999D03*
%TD*%
D31*
%TO.C,C26*%
X127814400Y-94400000D03*
X126011000Y-94400000D03*
%TD*%
D24*
%TO.C,C18*%
X130400000Y-99000000D03*
X129202055Y-99000000D03*
%TD*%
%TO.C,C19*%
X140001028Y-92900000D03*
X141198973Y-92900000D03*
%TD*%
D32*
%TO.C,R14*%
X138700000Y-84365000D03*
X138700000Y-85635000D03*
%TD*%
D24*
%TO.C,C7*%
X151848972Y-90798975D03*
X150651027Y-90798975D03*
%TD*%
D33*
%TO.C,L2*%
X131800000Y-85014000D03*
X131800000Y-87300000D03*
%TD*%
D34*
%TO.C,X2*%
X131800000Y-97650000D03*
X131800000Y-99150000D03*
%TD*%
D35*
%TO.C,U3*%
X125960200Y-99670000D03*
X126900000Y-99670000D03*
X127865200Y-99670000D03*
X127865200Y-97130000D03*
X125960200Y-97130000D03*
%TD*%
D32*
%TO.C,C6*%
X148400000Y-91850000D03*
X148400000Y-93047945D03*
%TD*%
D24*
%TO.C,C4*%
X146151028Y-91850000D03*
X147348973Y-91850000D03*
%TD*%
%TO.C,L6*%
X140701030Y-91850000D03*
X141898975Y-91850000D03*
%TD*%
D31*
%TO.C,C23*%
X126011000Y-102200000D03*
X127814400Y-102200000D03*
%TD*%
D36*
%TO.C,BOOT1*%
X144610000Y-115150000D03*
D37*
X147150000Y-115150000D03*
%TD*%
D24*
%TO.C,C16*%
X129438175Y-88657000D03*
X128240230Y-88657000D03*
%TD*%
D36*
%TO.C,SCREEN1*%
X132880000Y-82050000D03*
D37*
X135420000Y-82050000D03*
X137960000Y-82050000D03*
X140500000Y-82050000D03*
%TD*%
D38*
%TO.C,SB1*%
X130439202Y-85057000D03*
X129431203Y-85057000D03*
%TD*%
D32*
%TO.C,R1*%
X140550000Y-98235000D03*
X140550000Y-96965000D03*
%TD*%
D24*
%TO.C,C22*%
X135760798Y-98100000D03*
X134562853Y-98100000D03*
%TD*%
D32*
%TO.C,C30*%
X139750000Y-90651028D03*
X139750000Y-91848973D03*
%TD*%
D24*
%TO.C,L1*%
X149401030Y-91850000D03*
X150598975Y-91850000D03*
%TD*%
%TO.C,C25*%
X126613728Y-95900000D03*
X127811673Y-95900000D03*
%TD*%
D32*
%TO.C,C9*%
X130439203Y-87955972D03*
X130439203Y-86758027D03*
%TD*%
D39*
%TO.C,USB1*%
X125537500Y-119330000D03*
D40*
X125787500Y-116820000D03*
X125787500Y-114220000D03*
D39*
X125537500Y-111710000D03*
%TD*%
D24*
%TO.C,C15*%
X130400000Y-96000000D03*
X129202055Y-96000000D03*
%TD*%
D32*
%TO.C,C3*%
X142900000Y-93047945D03*
X142900000Y-91850000D03*
%TD*%
D38*
%TO.C,SB5*%
X140850001Y-94100001D03*
X140850001Y-95108000D03*
%TD*%
D24*
%TO.C,R5*%
X160135000Y-89600000D03*
X158865000Y-89600000D03*
%TD*%
%TO.C,C10*%
X133340231Y-86657000D03*
X134538176Y-86657000D03*
%TD*%
D32*
%TO.C,C27*%
X124912700Y-96001028D03*
X124912700Y-97198973D03*
%TD*%
%TO.C,C12*%
X139400000Y-97401028D03*
X139400000Y-98598973D03*
%TD*%
%TO.C,C21*%
X130100000Y-93049543D03*
X130100000Y-91851598D03*
%TD*%
D24*
%TO.C,C17*%
X130400000Y-98000000D03*
X129202055Y-98000000D03*
%TD*%
D38*
%TO.C,SB4*%
X126924500Y-92767500D03*
X127932499Y-92767500D03*
%TD*%
D32*
%TO.C,R13*%
X139650000Y-86935000D03*
X139650000Y-85665000D03*
%TD*%
D41*
%TO.C,FLT1*%
X143640001Y-91850000D03*
D42*
X144200000Y-91849998D03*
D41*
X144759999Y-91850000D03*
%TD*%
D24*
%TO.C,C24*%
X126613728Y-101000000D03*
X127811673Y-101000000D03*
%TD*%
D43*
%TO.C,X1*%
X137075000Y-86825000D03*
X137075000Y-88175000D03*
X138125000Y-88175000D03*
X138125000Y-86825000D03*
%TD*%
M02*
