%TF.GenerationSoftware,KiCad,Pcbnew,(6.0.6)*%
%TF.CreationDate,2022-10-19T18:58:46+02:00*%
%TF.ProjectId,test,74657374-2e6b-4696-9361-645f70636258,rev?*%
%TF.SameCoordinates,Original*%
%TF.FileFunction,Profile,NP*%
%FSLAX46Y46*%
G04 Gerber Fmt 4.6, Leading zero omitted, Abs format (unit mm)*
G04 Created by KiCad (PCBNEW (6.0.6)) date 2022-10-19 18:58:46*
%MOMM*%
%LPD*%
G01*
G04 APERTURE LIST*
%TA.AperFunction,Profile*%
%ADD10C,0.100000*%
%TD*%
G04 APERTURE END LIST*
D10*
X121650000Y-109490000D02*
X131650000Y-109490000D01*
X121650000Y-109490000D02*
G75*
G03*
X120650000Y-110490000I0J-1000000D01*
G01*
X120650000Y-120550000D02*
G75*
G03*
X121650000Y-121550000I1047000J47000D01*
G01*
X184737874Y-80550000D02*
X184718639Y-120582814D01*
X152700000Y-80550000D02*
G75*
G03*
X151700000Y-79550000I-1000000J0D01*
G01*
X151680765Y-121582814D02*
X121650000Y-121550000D01*
X152680786Y-120582814D02*
G75*
G03*
X153680765Y-121582814I1000014J14D01*
G01*
X120650000Y-120550000D02*
X120650000Y-110490000D01*
X121650000Y-105297892D02*
X131650000Y-105309614D01*
X183718639Y-121582839D02*
G75*
G03*
X184718639Y-120582814I-39J1000039D01*
G01*
X151680765Y-121582765D02*
G75*
G03*
X152680765Y-120582814I35J999965D01*
G01*
X183718639Y-121582814D02*
X153680765Y-121582814D01*
X121662126Y-79550000D02*
X151700000Y-79550000D01*
X120662121Y-104245787D02*
G75*
G03*
X121650000Y-105297892I1054179J-13D01*
G01*
X120662126Y-104245787D02*
X120662126Y-80550000D01*
X132650000Y-108490000D02*
X132650000Y-106302507D01*
X131650000Y-109490000D02*
G75*
G03*
X132650000Y-108490000I0J1000000D01*
G01*
X153700000Y-79550000D02*
X183737874Y-79550000D01*
X132649961Y-106302507D02*
G75*
G03*
X131650000Y-105309614I-999961J-7093D01*
G01*
X121662126Y-79550026D02*
G75*
G03*
X120662126Y-80550000I-26J-999974D01*
G01*
X153700000Y-79550000D02*
G75*
G03*
X152700000Y-80550000I0J-1000000D01*
G01*
X184737900Y-80550000D02*
G75*
G03*
X183737874Y-79550000I-1000000J0D01*
G01*
M02*
