%TF.GenerationSoftware,KiCad,Pcbnew,6.0.4-6f826c9f35~116~ubuntu18.04.1*%
%TF.CreationDate,2022-08-05T10:58:23+02:00*%
%TF.ProjectId,test,74657374-2e6b-4696-9361-645f70636258,rev?*%
%TF.SameCoordinates,Original*%
%TF.FileFunction,Paste,Top*%
%TF.FilePolarity,Positive*%
%FSLAX46Y46*%
G04 Gerber Fmt 4.6, Leading zero omitted, Abs format (unit mm)*
G04 Created by KiCad (PCBNEW 6.0.4-6f826c9f35~116~ubuntu18.04.1) date 2022-08-05 10:58:23*
%MOMM*%
%LPD*%
G01*
G04 APERTURE LIST*
G04 Aperture macros list*
%AMRoundRect*
0 Rectangle with rounded corners*
0 $1 Rounding radius*
0 $2 $3 $4 $5 $6 $7 $8 $9 X,Y pos of 4 corners*
0 Add a 4 corners polygon primitive as box body*
4,1,4,$2,$3,$4,$5,$6,$7,$8,$9,$2,$3,0*
0 Add four circle primitives for the rounded corners*
1,1,$1+$1,$2,$3*
1,1,$1+$1,$4,$5*
1,1,$1+$1,$6,$7*
1,1,$1+$1,$8,$9*
0 Add four rect primitives between the rounded corners*
20,1,$1+$1,$2,$3,$4,$5,0*
20,1,$1+$1,$4,$5,$6,$7,0*
20,1,$1+$1,$6,$7,$8,$9,0*
20,1,$1+$1,$8,$9,$2,$3,0*%
%AMOutline5P*
0 Free polygon, 5 corners , with rotation*
0 The origin of the aperture is its center*
0 number of corners: always 5*
0 $1 to $10 corner X, Y*
0 $11 Rotation angle, in degrees counterclockwise*
0 create outline with 5 corners*
4,1,5,$1,$2,$3,$4,$5,$6,$7,$8,$9,$10,$1,$2,$11*%
%AMOutline6P*
0 Free polygon, 6 corners , with rotation*
0 The origin of the aperture is its center*
0 number of corners: always 6*
0 $1 to $12 corner X, Y*
0 $13 Rotation angle, in degrees counterclockwise*
0 create outline with 6 corners*
4,1,6,$1,$2,$3,$4,$5,$6,$7,$8,$9,$10,$11,$12,$1,$2,$13*%
%AMOutline7P*
0 Free polygon, 7 corners , with rotation*
0 The origin of the aperture is its center*
0 number of corners: always 7*
0 $1 to $14 corner X, Y*
0 $15 Rotation angle, in degrees counterclockwise*
0 create outline with 7 corners*
4,1,7,$1,$2,$3,$4,$5,$6,$7,$8,$9,$10,$11,$12,$13,$14,$1,$2,$15*%
%AMOutline8P*
0 Free polygon, 8 corners , with rotation*
0 The origin of the aperture is its center*
0 number of corners: always 8*
0 $1 to $16 corner X, Y*
0 $17 Rotation angle, in degrees counterclockwise*
0 create outline with 8 corners*
4,1,8,$1,$2,$3,$4,$5,$6,$7,$8,$9,$10,$11,$12,$13,$14,$15,$16,$1,$2,$17*%
G04 Aperture macros list end*
%ADD10C,0.010000*%
%ADD11R,0.635000X0.508000*%
%ADD12Outline8P,-0.300000X0.075000X-0.225000X0.150000X0.225000X0.150000X0.300000X0.075000X0.300000X-0.075000X0.225000X-0.150000X-0.225000X-0.150000X-0.300000X-0.075000X90.000000*%
%ADD13Outline8P,-0.300000X0.075000X-0.225000X0.150000X0.225000X0.150000X0.300000X0.075000X0.300000X-0.075000X0.225000X-0.150000X-0.225000X-0.150000X-0.300000X-0.075000X180.000000*%
%ADD14R,0.800000X1.000000*%
%ADD15R,0.300000X0.650000*%
%ADD16R,2.000000X2.400000*%
%ADD17R,1.270000X0.508000*%
%ADD18R,1.000000X0.800000*%
%ADD19R,1.270000X1.524000*%
%ADD20R,0.508000X0.635000*%
%ADD21R,1.250000X1.000000*%
%ADD22R,0.700000X1.100000*%
%ADD23RoundRect,0.125000X-0.875000X0.125000X-0.875000X-0.125000X0.875000X-0.125000X0.875000X0.125000X0*%
%ADD24RoundRect,0.125000X-0.125000X0.175000X-0.125000X-0.175000X0.125000X-0.175000X0.125000X0.175000X0*%
%ADD25R,2.200000X0.500000*%
%ADD26R,1.700000X1.300000*%
%ADD27R,0.280000X0.550000*%
%ADD28R,0.400000X0.600000*%
%ADD29R,0.750000X0.850000*%
G04 APERTURE END LIST*
%TO.C,OXYMETER1*%
G36*
X130710000Y-104600000D02*
G01*
X130010000Y-104600000D01*
X130010000Y-104200000D01*
X130710000Y-104200000D01*
X130710000Y-104600000D01*
G37*
D10*
X130710000Y-104600000D02*
X130010000Y-104600000D01*
X130010000Y-104200000D01*
X130710000Y-104200000D01*
X130710000Y-104600000D01*
G36*
X135610000Y-104600000D02*
G01*
X134910000Y-104600000D01*
X134910000Y-104200000D01*
X135610000Y-104200000D01*
X135610000Y-104600000D01*
G37*
X135610000Y-104600000D02*
X134910000Y-104600000D01*
X134910000Y-104200000D01*
X135610000Y-104200000D01*
X135610000Y-104600000D01*
G36*
X131938000Y-104600000D02*
G01*
X131238000Y-104600000D01*
X131238000Y-104200000D01*
X131938000Y-104200000D01*
X131938000Y-104600000D01*
G37*
X131938000Y-104600000D02*
X131238000Y-104600000D01*
X131238000Y-104200000D01*
X131938000Y-104200000D01*
X131938000Y-104600000D01*
G36*
X133162000Y-102800000D02*
G01*
X132462000Y-102800000D01*
X132462000Y-102400000D01*
X133162000Y-102400000D01*
X133162000Y-102800000D01*
G37*
X133162000Y-102800000D02*
X132462000Y-102800000D01*
X132462000Y-102400000D01*
X133162000Y-102400000D01*
X133162000Y-102800000D01*
G36*
X129490000Y-102800000D02*
G01*
X128790000Y-102800000D01*
X128790000Y-102400000D01*
X129490000Y-102400000D01*
X129490000Y-102800000D01*
G37*
X129490000Y-102800000D02*
X128790000Y-102800000D01*
X128790000Y-102400000D01*
X129490000Y-102400000D01*
X129490000Y-102800000D01*
G36*
X134390000Y-102800000D02*
G01*
X133690000Y-102800000D01*
X133690000Y-102400000D01*
X134390000Y-102400000D01*
X134390000Y-102800000D01*
G37*
X134390000Y-102800000D02*
X133690000Y-102800000D01*
X133690000Y-102400000D01*
X134390000Y-102400000D01*
X134390000Y-102800000D01*
G36*
X135610000Y-102800000D02*
G01*
X134910000Y-102800000D01*
X134910000Y-102400000D01*
X135610000Y-102400000D01*
X135610000Y-102800000D01*
G37*
X135610000Y-102800000D02*
X134910000Y-102800000D01*
X134910000Y-102400000D01*
X135610000Y-102400000D01*
X135610000Y-102800000D01*
G36*
X134390000Y-104600000D02*
G01*
X133690000Y-104600000D01*
X133690000Y-104200000D01*
X134390000Y-104200000D01*
X134390000Y-104600000D01*
G37*
X134390000Y-104600000D02*
X133690000Y-104600000D01*
X133690000Y-104200000D01*
X134390000Y-104200000D01*
X134390000Y-104600000D01*
G36*
X131938000Y-102800000D02*
G01*
X131238000Y-102800000D01*
X131238000Y-102400000D01*
X131938000Y-102400000D01*
X131938000Y-102800000D01*
G37*
X131938000Y-102800000D02*
X131238000Y-102800000D01*
X131238000Y-102400000D01*
X131938000Y-102400000D01*
X131938000Y-102800000D01*
G36*
X130710000Y-102800000D02*
G01*
X130010000Y-102800000D01*
X130010000Y-102400000D01*
X130710000Y-102400000D01*
X130710000Y-102800000D01*
G37*
X130710000Y-102800000D02*
X130010000Y-102800000D01*
X130010000Y-102400000D01*
X130710000Y-102400000D01*
X130710000Y-102800000D01*
G36*
X133162000Y-104600000D02*
G01*
X132462000Y-104600000D01*
X132462000Y-104200000D01*
X133162000Y-104200000D01*
X133162000Y-104600000D01*
G37*
X133162000Y-104600000D02*
X132462000Y-104600000D01*
X132462000Y-104200000D01*
X133162000Y-104200000D01*
X133162000Y-104600000D01*
G36*
X129490000Y-104600000D02*
G01*
X128790000Y-104600000D01*
X128790000Y-104200000D01*
X129490000Y-104200000D01*
X129490000Y-104600000D01*
G37*
X129490000Y-104600000D02*
X128790000Y-104600000D01*
X128790000Y-104200000D01*
X129490000Y-104200000D01*
X129490000Y-104600000D01*
%TD*%
D11*
%TO.C,C20*%
X129202056Y-97000000D03*
X130400001Y-97000000D03*
%TD*%
D12*
%TO.C,U1*%
X132253686Y-96498398D03*
X132760797Y-96498398D03*
X133260798Y-96498398D03*
X133760797Y-96498398D03*
X134260799Y-96498398D03*
X134760798Y-96498398D03*
X135260797Y-96498398D03*
X135760798Y-96498398D03*
X136260797Y-96498398D03*
X136760799Y-96498398D03*
X137260798Y-96498398D03*
X137760797Y-96498398D03*
D13*
X138398799Y-95851597D03*
X138398799Y-95351598D03*
X138398799Y-94851599D03*
X138398799Y-94351598D03*
X138398799Y-93851599D03*
X138398799Y-93351597D03*
X138398799Y-92851598D03*
X138398799Y-92351599D03*
X138398799Y-91851598D03*
X138398799Y-91351599D03*
X138398799Y-90851597D03*
X138398799Y-90351598D03*
D12*
X137760797Y-89701597D03*
X137260798Y-89701597D03*
X136760799Y-89701597D03*
X136260797Y-89701597D03*
X135760798Y-89701597D03*
X135260797Y-89701597D03*
X134760798Y-89701597D03*
X134260799Y-89701597D03*
X133760797Y-89701597D03*
X133260798Y-89701597D03*
X132760797Y-89701597D03*
X132260798Y-89701597D03*
D13*
X131601198Y-90351598D03*
X131601198Y-90851597D03*
X131601198Y-91351599D03*
X131601198Y-91851598D03*
X131601198Y-92351599D03*
X131601198Y-92851598D03*
X131601198Y-93351597D03*
X131601198Y-93851599D03*
X131601198Y-94351598D03*
X131601198Y-94851599D03*
X131601198Y-95351598D03*
X131601198Y-95851597D03*
%TD*%
D14*
%TO.C,L3*%
X133957398Y-99300000D03*
X135760798Y-99300000D03*
%TD*%
D15*
%TO.C,D4*%
X138500000Y-97425000D03*
X138500000Y-98775000D03*
%TD*%
D11*
%TO.C,C28*%
X146098972Y-94100000D03*
X144901027Y-94100000D03*
%TD*%
%TO.C,R2*%
X130435000Y-100100000D03*
X129165000Y-100100000D03*
%TD*%
D16*
%TO.C,BUZZER1*%
X145300000Y-101650000D03*
X141300000Y-101650000D03*
%TD*%
D17*
%TO.C,U2*%
X121969200Y-92362850D03*
X121969200Y-91412849D03*
X121969200Y-90462851D03*
X119669200Y-90462851D03*
X119669200Y-91412849D03*
X119669200Y-92362850D03*
%TD*%
D18*
%TO.C,C26*%
X127200000Y-96301700D03*
X127200000Y-94498300D03*
%TD*%
D11*
%TO.C,C18*%
X130400000Y-99000000D03*
X129202055Y-99000000D03*
%TD*%
%TO.C,C19*%
X140001028Y-92900000D03*
X141198973Y-92900000D03*
%TD*%
%TO.C,C7*%
X151848972Y-90798975D03*
X150651027Y-90798975D03*
%TD*%
D19*
%TO.C,L2*%
X127960797Y-85257000D03*
X127960797Y-87543000D03*
%TD*%
D20*
%TO.C,C8*%
X146000000Y-91850000D03*
X146000000Y-93047945D03*
%TD*%
D21*
%TO.C,X2*%
X131800000Y-97650000D03*
X131800000Y-99150000D03*
%TD*%
D17*
%TO.C,U3*%
X121930000Y-94447500D03*
X121930000Y-95387300D03*
X121930000Y-96352500D03*
X124470000Y-96352500D03*
X124470000Y-94447500D03*
%TD*%
D20*
%TO.C,C6*%
X148400000Y-91850000D03*
X148400000Y-93047945D03*
%TD*%
D11*
%TO.C,C4*%
X146151028Y-91850000D03*
X147348973Y-91850000D03*
%TD*%
%TO.C,L6*%
X140701030Y-91850000D03*
X141898975Y-91850000D03*
%TD*%
D18*
%TO.C,C23*%
X119400000Y-94498300D03*
X119400000Y-96301700D03*
%TD*%
D11*
%TO.C,C16*%
X125598972Y-88900000D03*
X124401027Y-88900000D03*
%TD*%
D20*
%TO.C,R1*%
X140550000Y-98235000D03*
X140550000Y-96965000D03*
%TD*%
D11*
%TO.C,C22*%
X135760798Y-98100000D03*
X134562853Y-98100000D03*
%TD*%
%TO.C,C29*%
X146000000Y-97600000D03*
X144802055Y-97600000D03*
%TD*%
D20*
%TO.C,C30*%
X139650000Y-90652055D03*
X139650000Y-91850000D03*
%TD*%
D11*
%TO.C,L1*%
X149401030Y-91850000D03*
X150598975Y-91850000D03*
%TD*%
D18*
%TO.C,SW2*%
X118700000Y-99702600D03*
X118700000Y-102002601D03*
X126200000Y-102002601D03*
X126200000Y-99702600D03*
D22*
X120200000Y-98802600D03*
X123200001Y-98802600D03*
X124700001Y-98802600D03*
%TD*%
D20*
%TO.C,C25*%
X125700000Y-95101028D03*
X125700000Y-96298973D03*
%TD*%
%TO.C,L4*%
X146000000Y-95251030D03*
X146000000Y-96448975D03*
%TD*%
%TO.C,C9*%
X126600000Y-88198972D03*
X126600000Y-87001027D03*
%TD*%
D23*
%TO.C,CN5*%
X147914200Y-99100000D03*
D24*
X150022400Y-99100000D03*
D25*
X148600000Y-100575001D03*
X148600000Y-97624999D03*
%TD*%
D11*
%TO.C,C15*%
X130400000Y-96000000D03*
X129202055Y-96000000D03*
%TD*%
D20*
%TO.C,C3*%
X142900000Y-93047945D03*
X142900000Y-91850000D03*
%TD*%
D11*
%TO.C,C10*%
X129501028Y-86900000D03*
X130698973Y-86900000D03*
%TD*%
%TO.C,C27*%
X125598972Y-93400000D03*
X124401027Y-93400000D03*
%TD*%
D20*
%TO.C,C12*%
X139400000Y-97401028D03*
X139400000Y-98598973D03*
%TD*%
%TO.C,C21*%
X130100000Y-93049543D03*
X130100000Y-91851598D03*
%TD*%
D26*
%TO.C,USB1*%
X117550000Y-96300000D03*
X117550000Y-93800000D03*
X117550000Y-91800000D03*
X117550000Y-89300000D03*
%TD*%
D11*
%TO.C,C17*%
X130400000Y-98000000D03*
X129202055Y-98000000D03*
%TD*%
D27*
%TO.C,FLT1*%
X143640001Y-91850000D03*
D28*
X144200000Y-91849998D03*
D27*
X144759999Y-91850000D03*
%TD*%
D20*
%TO.C,C24*%
X120600000Y-95101028D03*
X120600000Y-96298973D03*
%TD*%
D11*
%TO.C,C1*%
X140798972Y-89500000D03*
X139601027Y-89500000D03*
%TD*%
%TO.C,C2*%
X139651028Y-87350000D03*
X140848973Y-87350000D03*
%TD*%
D29*
%TO.C,X1*%
X136129801Y-86583400D03*
X136129801Y-87933400D03*
X137179801Y-87933400D03*
X137179801Y-86583400D03*
%TD*%
M02*
