M48
;Layer_Color=9474304
;FILE_FORMAT=2:5
INCH,LZ
;TYPE=PLATED
T1F00S00C0.01181
T3F00S00C0.03937
T5F00S00C0.04331
%
T01
X0051464Y0020215
X0056169Y0023412
X0061Y002142
X006344Y0021329
X0061046Y0018534
X00626Y00167
X0063743Y0013636
X00637Y00098
X00685Y000712
X00786Y000702
X007883Y0013514
X00837Y00134
X00868Y00146
X00934Y0014
X00947Y00162
X0101745Y0016449
X0109345Y0016549
X0108345Y0010049
X01087Y000722
X01186
X0117945Y0010249
X0118031Y0014176
X01239Y00129
X0126023Y0014648
X0128842Y0013597
X01287Y000782
X01388Y000752
X0138484Y0013743
X0134Y00161
X01335Y0025
X01372Y00251
X0141023Y0025605
X0138787Y0027994
X01357Y00308
X01335Y00333
X01324Y00284
X01284Y0028
X01296Y0025
X01252Y00248
X0118031Y0025593
X01159Y00302
X0114094Y0028546
X0114369Y0034451
X01188Y00348
X0122098Y0035467
X01229Y003942
X0126129Y004118
X0127298Y0037884
X01288Y00348
Y00318
X01312Y0038802
X0136Y00376
X0135495Y0042593
X0140117Y0046038
X0143858Y0049132
X0141298Y005279
X01351Y00526
X01324Y00523
X01299Y00484
X0127Y00481
X01261Y0052
X01281Y00581
X0135Y00575
Y00607
X013618Y0063798
X0142078Y0063436
X014733Y0063483
X01463Y00582
X01432Y00576
X01394Y00577
X0152861Y0058317
X0156153Y0058455
X0162456
X0168901Y0058408
X0169586Y0062979
X0169495Y0067684
Y007166
X0169405Y0075404
X0169495Y0079062
X0170133Y0083038
X0169952Y0087471
X015757Y008779
X0148424Y0088774
X0149846Y0084042
X01496Y00785
X0151535Y0076365
X0155275Y0076333
X0160149Y0076187
X0164594Y0076908
X0162873Y007031
X0156562Y0070022
X01522Y0072
X0153696Y0063357
X0159861Y0063786
X0165027
X0165976Y0051739
X0162732Y0048904
X0165247Y0044837
X0169495Y0044699
Y0041227
X0169771Y003716
X0165338Y0038711
X0164763Y0035132
X0164684Y0031865
X0161102
Y0035054
X0157401Y0035014
X0157361Y0031786
X0154917Y003227
X015172Y0030577
X0150484Y0033046
X015035Y0036475
X0155602Y0038164
X0155511Y0044471
X0155905Y0047849
X0150531Y0047577
X0150578Y0043786
X0144086Y004255
X0143858Y0039581
X0143952Y003588
X0140235Y0033046
X0143586Y0029392
X014559Y0027062
X0147952Y002529
X015055Y0025014
X0153228Y0024621
X0157519Y0023518
X01576Y00202
X01615Y00203
X01618Y00175
X01662Y001722
X01649Y00202
X0164763Y0023479
X0161535
X0165196Y0027652
X0168346
X0169633Y0025097
X0169905Y0021258
X01702Y00162
X01701Y00119
X01664Y0013
X0169814Y0007317
X01588Y000802
X01591Y00153
X01548Y001662
X01514Y00157
Y002062
X01467Y00204
X01488Y00182
X01439Y00229
X01488Y000782
X0169861Y0030672
X0168897Y0048046
X0159078Y0051872
X0152405Y0051601
X0160676Y004118
X0115432Y0041341
Y004331
X0115511Y0045278
X0115302Y0047325
X0117637Y0047876
X011496Y0051183
X0114842Y0057089
X01191Y00596
X01184Y00631
X01144Y00658
X0109704Y0060376
X010457Y0060188
X0104495Y0055691
X0100979Y0056183
X0096602Y0055994
X0092106Y0056372
X00894Y005422
X0089539Y0060148
X0094484Y0060073
X0098527
X0096692Y0065435
X01008Y00667
X01011Y00696
X0106Y00683
X01049Y00746
X01047Y00783
X01063Y00799
X01008
X0098125Y0074939
X0091672Y0075077
X00896Y007262
X0086661Y0071609
X00789Y00701
X00786Y006782
X00757Y00683
X00696Y00677
X0069224Y0074148
X00644Y00766
X0063771Y0081762
X0057735Y0083841
X0051783Y008364
X00579Y00766
X0073724Y0080022
X00768Y00789
X00776Y008182
X00794Y008412
X00815Y00791
X00843Y008122
X00818Y008972
X00758Y0091
X00675Y00926
X0063484Y0092231
X0063629Y0099117
X00684Y010052
X00787Y010102
X00987Y010072
X00989Y00941
X009885Y0089463
X0089845Y0089149
X01078Y00914
X01087Y00942
X01088Y010072
X01187Y010032
X0118795Y009501
X01243Y00896
X01289Y008752
X0130948Y0085821
X0139295Y0084105
X01396Y008762
X01415Y00781
X0146968Y0080203
X01488Y010042
X01388Y010052
X01288Y010062
X01289Y0073
X0127Y00668
X01301Y00659
X0124Y00644
X01229Y00683
X01207Y00732
X01227Y00759
X01226Y00779
X01213Y00802
X0108609Y0050857
X0107665Y004712
X0101472
X0101889Y0050857
X0097243Y0051085
X00935Y005072
X009505Y0047042
X0089247Y003981
X0082952Y0043585
X00806Y004372
X0076Y0043
X0074251Y0038743
X007433Y0034648
X0074409Y0030514
X0074369Y0026459
X00714Y00261
X00704Y0023
X0074527Y0022325
X00788Y00243
X0082Y0019
X007929Y0034412
Y0038585
X00786Y00519
X0080747Y0052483
X0084015Y0053152
X0083936Y0057128
X00755Y00561
X00667Y0053942
X00645Y00567
X00563Y00552
X00523Y00535
X0056456Y0049057
X00616Y00498
X0069594Y0047782
X0071881Y0045581
X00646Y00409
X0061377Y0039569
X0059094
X00642Y00359
X0064775Y0029987
X00618Y003152
X00683Y00334
X00649Y00252
X005181Y0042207
X00508Y0061
X00531Y00615
X00768Y0074
X0096653Y0034648
X009685Y003264
X010059Y0034097
X0104802Y0029451
X0108464Y0025042
X01066Y00227
X00977Y002752
X00987Y000712
Y00027
X00887Y000722
X0115354Y0039373
X01588Y010072
X0170043Y0100286
X0046562Y0083707
X0039247Y0074754
X0032263Y0074211
X00353Y00698
X00346Y00646
X00285Y00656
X0027472Y0057376
Y0054117
X00286Y00487
X00326Y00491
X0039389Y0050518
X0046275Y0048798
X00477Y00535
X00482Y005629
X0048109Y0061105
X0044287Y0059018
X00419Y00644
X0023168Y0060502
X0023326Y0071455
X0023472Y0075617
X0019732Y0070258
X0013913Y0069388
X0006755Y0069254
X0002271Y0067046
Y0059821
X0002338Y0051928
X0002271Y0043097
X0002405Y0033928
X0006755Y003366
X0012306Y0033727
X0018661Y0032125
X0022035Y0032589
X0020747Y002427
X0021464Y0019825
X0015294Y0020113
X0011853Y002255
X0006976Y0020254
X0003822Y0023554
X0030861Y0020349
X0040381Y0020215
X0039676Y003101
X0038098Y0033018
X0035948Y0031156
X0036417Y0041262
X0034172Y0040357
X0029527Y0042562
X0024735Y004225
X0019909Y004238
X0040511Y0041184
X0017302Y0079487
X002046Y0083361
X0013287Y0083215
X0007696Y0083073
X0002389Y0078628
T03
X00737Y000642
X00837
X00937
X01037
X01137
X01237
X01337
X01437
X01537
X01637
Y009642
X01537
X01437
X01337
X01237
X01137
X01037
X00937
X00837
X00737
X0046535Y0023152
X0034724
T05
X0011023Y0042562
Y0060278
M30
