M48
;Layer_Color=9474304
;FILE_FORMAT=2:5
INCH,LZ
;TYPE=PLATED
T2F00S00C0.02362
T4F00S00C0.03937
%
G90
G05
T02
G00X0072519Y-0000019
M15
G01X0074881
M16
G00X0082519Y-0000019
M15
G01X0084881
M16
G00X0092519Y-0000019
M15
G01X0094881
M16
G00X0102519Y-0000019
M15
G01X0104881
M16
G00X0112519Y-0000019
M15
G01X0114881
M16
G00X0122519Y0000039
M15
G01X0124881
M16
G00X0132519Y-0000019
M15
G01X0134881
M16
G00X0142519Y-0000019
M15
G01X0144881
M16
G00X0152519Y-0000019
M15
G01X0154881
M16
G00X0162519Y-0000019
M15
G01X0164881
M16
G00X0164881Y0102898
M15
G01X0162519
M16
G00X0154881Y0102898
M15
G01X0152519
M16
G00X0144881Y0102898
M15
G01X0142519
M16
G00X0134881Y0102898
M15
G01X0132519
M16
G00X0124881Y0102898
M15
G01X0122519
M16
G00X0114881Y010284
M15
G01X0112519
M16
G00X0104881Y0102898
M15
G01X0102519
M16
G00X0094881Y0102898
M15
G01X0092519
M16
G00X0084881Y0102898
M15
G01X0082519
M16
G00X0074881Y0102898
M15
G01X0072519
M16
T04
G00X0013385Y0028388
M15
G01X000748
M16
G00X0013385Y0074451
M15
G01X000748
M16
M17
M30
