G04*
G04 #@! TF.GenerationSoftware,Altium Limited,Altium Designer,18.0.12 (696)*
G04*
G04 Layer_Color=4660084*
%FSLAX25Y25*%
%MOIN*%
G70*
G01*
G75*
%ADD52R,0.02800X0.03300*%
%ADD53R,0.05800X0.06800*%
%ADD54R,0.03300X0.02800*%
%ADD55R,0.03950X0.04737*%
%ADD56R,0.01575X0.02953*%
%ADD57R,0.05800X0.02800*%
%ADD58R,0.04737X0.03950*%
%ADD59C,0.01008*%
%ADD60R,0.04921X0.05315*%
%ADD61R,0.03347X0.02559*%
%ADD62R,0.02480X0.02559*%
%ADD63R,0.05315X0.04921*%
%ADD64R,0.02559X0.03347*%
%ADD65R,0.02559X0.02480*%
%ADD66R,0.02677X0.04252*%
%ADD67R,0.03858X0.03071*%
%ADD68R,0.01024X0.02087*%
%ADD69R,0.01496X0.02284*%
%ADD70R,0.05721X0.04737*%
%ADD71R,0.02874X0.03268*%
G04:AMPARAMS|DCode=72|XSize=28.35mil|YSize=16.54mil|CornerRadius=0mil|HoleSize=0mil|Usage=FLASHONLY|Rotation=90.000|XOffset=0mil|YOffset=0mil|HoleType=Round|Shape=Octagon|*
%AMOCTAGOND72*
4,1,8,0.00413,0.01417,-0.00413,0.01417,-0.00827,0.01004,-0.00827,-0.01004,-0.00413,-0.01417,0.00413,-0.01417,0.00827,-0.01004,0.00827,0.01004,0.00413,0.01417,0.0*
%
%ADD72OCTAGOND72*%

G04:AMPARAMS|DCode=73|XSize=28.35mil|YSize=16.54mil|CornerRadius=0mil|HoleSize=0mil|Usage=FLASHONLY|Rotation=180.000|XOffset=0mil|YOffset=0mil|HoleType=Round|Shape=Octagon|*
%AMOCTAGOND73*
4,1,8,-0.01417,0.00413,-0.01417,-0.00413,-0.01004,-0.00827,0.01004,-0.00827,0.01417,-0.00413,0.01417,0.00413,0.01004,0.00827,-0.01004,0.00827,-0.01417,0.00413,0.0*
%
%ADD73OCTAGOND73*%

%ADD74R,0.22677X0.22677*%
%ADD75R,0.04343X0.04737*%
%ADD76R,0.08674X0.05524*%
G04:AMPARAMS|DCode=77|XSize=31.62mil|YSize=27.69mil|CornerRadius=8.92mil|HoleSize=0mil|Usage=FLASHONLY|Rotation=270.000|XOffset=0mil|YOffset=0mil|HoleType=Round|Shape=RoundedRectangle|*
%AMROUNDEDRECTD77*
21,1,0.03162,0.00984,0,0,270.0*
21,1,0.01378,0.02769,0,0,270.0*
1,1,0.01784,-0.00492,-0.00689*
1,1,0.01784,-0.00492,0.00689*
1,1,0.01784,0.00492,0.00689*
1,1,0.01784,0.00492,-0.00689*
%
%ADD77ROUNDEDRECTD77*%
G04:AMPARAMS|DCode=78|XSize=27.69mil|YSize=86.74mil|CornerRadius=8.92mil|HoleSize=0mil|Usage=FLASHONLY|Rotation=270.000|XOffset=0mil|YOffset=0mil|HoleType=Round|Shape=RoundedRectangle|*
%AMROUNDEDRECTD78*
21,1,0.02769,0.06890,0,0,270.0*
21,1,0.00984,0.08674,0,0,270.0*
1,1,0.01784,-0.03445,-0.00492*
1,1,0.01784,-0.03445,0.00492*
1,1,0.01784,0.03445,0.00492*
1,1,0.01784,0.03445,-0.00492*
%
%ADD78ROUNDEDRECTD78*%
%ADD79R,0.09461X0.02769*%
%ADD80C,0.01496*%
%ADD81C,0.04252*%
%ADD82O,0.16548X0.07099*%
%ADD83C,0.05524*%
%ADD84R,0.07008X0.07008*%
%ADD85C,0.07887*%
%ADD86R,0.07887X0.07887*%
G36*
X90500Y76854D02*
X85000D01*
Y81185D01*
X90500D01*
Y76854D01*
D02*
G37*
G36*
X63800Y51535D02*
X58300D01*
Y55865D01*
X63800D01*
Y51535D01*
D02*
G37*
G36*
X124765Y39800D02*
X120435D01*
Y45300D01*
X124765D01*
Y39800D01*
D02*
G37*
G36*
X70565Y37300D02*
X66235D01*
Y42800D01*
X70565D01*
Y37300D01*
D02*
G37*
G36*
X70510Y26549D02*
X66180D01*
Y32049D01*
X70510D01*
Y26549D01*
D02*
G37*
G36*
X70565Y13800D02*
X66235D01*
Y19300D01*
X70565D01*
Y13800D01*
D02*
G37*
D52*
X78200Y55058D02*
D03*
Y50342D02*
D03*
X89100Y69220D02*
D03*
Y74220D02*
D03*
X122125Y27227D02*
D03*
Y32227D02*
D03*
X118031Y32266D02*
D03*
Y27266D02*
D03*
X33600Y37462D02*
D03*
Y42178D02*
D03*
X54000Y37562D02*
D03*
Y42278D02*
D03*
X130000Y50242D02*
D03*
Y54958D02*
D03*
X146771Y37144D02*
D03*
Y41861D02*
D03*
X117400Y59958D02*
D03*
Y55242D02*
D03*
X155944Y49719D02*
D03*
Y54719D02*
D03*
X146731Y49955D02*
D03*
Y54955D02*
D03*
X168897Y54538D02*
D03*
Y49821D02*
D03*
D53*
X94842Y79609D02*
D03*
Y70609D02*
D03*
D54*
X100924Y72837D02*
D03*
X105924D02*
D03*
X127800Y69700D02*
D03*
X122800D02*
D03*
X122200Y64400D02*
D03*
X117200D02*
D03*
X125158Y48200D02*
D03*
X120442D02*
D03*
X76224Y26341D02*
D03*
X80940D02*
D03*
X76145Y30514D02*
D03*
X80861D02*
D03*
X80901Y34530D02*
D03*
X76184D02*
D03*
X80861Y38703D02*
D03*
X76145D02*
D03*
X78586Y66302D02*
D03*
X83302D02*
D03*
X101688Y29924D02*
D03*
X96972D02*
D03*
X80940Y22246D02*
D03*
X76224D02*
D03*
X62400Y67900D02*
D03*
X57400D02*
D03*
X53100D02*
D03*
X48100D02*
D03*
X38326Y70475D02*
D03*
X43326D02*
D03*
X27145D02*
D03*
X32145D02*
D03*
X50003Y49176D02*
D03*
X54720D02*
D03*
X126158Y55000D02*
D03*
X121442D02*
D03*
X147058Y32900D02*
D03*
X142342D02*
D03*
X146958Y46000D02*
D03*
X142242D02*
D03*
X164838Y54935D02*
D03*
X160121D02*
D03*
X151987Y55014D02*
D03*
X146987D02*
D03*
D55*
X101620Y25357D02*
D03*
X94520D02*
D03*
D56*
X114094Y27148D02*
D03*
Y32463D02*
D03*
D57*
X31456Y61105D02*
D03*
Y53624D02*
D03*
X40511Y57365D02*
D03*
Y61105D02*
D03*
Y53624D02*
D03*
X31456Y57365D02*
D03*
X49331Y37226D02*
D03*
Y44726D02*
D03*
X39331Y41026D02*
D03*
Y37226D02*
D03*
Y44726D02*
D03*
D58*
X29100Y37470D02*
D03*
Y44570D02*
D03*
X60235Y44615D02*
D03*
Y37515D02*
D03*
X49079Y72944D02*
D03*
Y80045D02*
D03*
X60733Y80084D02*
D03*
Y72984D02*
D03*
X54985Y72905D02*
D03*
Y80005D02*
D03*
D59*
X68345Y31017D02*
D03*
Y27049D02*
D03*
X68400Y38331D02*
D03*
Y42300D02*
D03*
X85500Y79020D02*
D03*
X89468D02*
D03*
X68400Y14300D02*
D03*
Y18269D02*
D03*
X58800Y53700D02*
D03*
X62769D02*
D03*
X122600Y40300D02*
D03*
Y44269D02*
D03*
D60*
X105709Y85749D02*
D03*
Y18820D02*
D03*
D61*
X101379Y85749D02*
D03*
X110040D02*
D03*
X101379Y18820D02*
D03*
X110040D02*
D03*
D62*
X112835Y85749D02*
D03*
X98584D02*
D03*
X112835Y18820D02*
D03*
X98584D02*
D03*
D63*
X139174Y69600D02*
D03*
X72245Y52284D02*
D03*
D64*
X139174Y73931D02*
D03*
Y65269D02*
D03*
X72245Y56615D02*
D03*
Y47954D02*
D03*
D65*
X139174Y62474D02*
D03*
Y76726D02*
D03*
X72245Y45158D02*
D03*
Y59410D02*
D03*
D66*
X49487Y31223D02*
D03*
X43582D02*
D03*
X31771D02*
D03*
D67*
X55393Y27680D02*
D03*
Y18624D02*
D03*
X25865Y27680D02*
D03*
Y18624D02*
D03*
D68*
X137205Y55000D02*
D03*
X132795D02*
D03*
D69*
X135000Y55000D02*
D03*
D70*
X86495Y26144D02*
D03*
Y32050D02*
D03*
D71*
X112733Y75958D02*
D03*
Y70643D02*
D03*
X116867D02*
D03*
Y75958D02*
D03*
D72*
X88782Y63618D02*
D03*
X90750D02*
D03*
X92719D02*
D03*
X94687D02*
D03*
X96656D02*
D03*
X98624D02*
D03*
X100593D02*
D03*
X102561D02*
D03*
X104530D02*
D03*
X106498D02*
D03*
X108467D02*
D03*
X110435D02*
D03*
X88754Y36859D02*
D03*
X90750D02*
D03*
X92719D02*
D03*
X94687D02*
D03*
X96656D02*
D03*
X98624D02*
D03*
X100593D02*
D03*
X102561D02*
D03*
X104530D02*
D03*
X106498D02*
D03*
X108467D02*
D03*
X110435D02*
D03*
D73*
X86185Y45311D02*
D03*
X112947Y39406D02*
D03*
Y41374D02*
D03*
Y43343D02*
D03*
Y45311D02*
D03*
Y47280D02*
D03*
Y49248D02*
D03*
Y51217D02*
D03*
Y53185D02*
D03*
Y55154D02*
D03*
Y57122D02*
D03*
Y59091D02*
D03*
Y61059D02*
D03*
X86185Y39406D02*
D03*
Y41374D02*
D03*
Y43343D02*
D03*
Y47280D02*
D03*
Y49248D02*
D03*
Y51217D02*
D03*
Y53185D02*
D03*
Y55154D02*
D03*
Y57122D02*
D03*
Y61059D02*
D03*
Y59091D02*
D03*
D74*
X99566Y50239D02*
D03*
D75*
X27046Y75711D02*
D03*
X43188D02*
D03*
Y82010D02*
D03*
X27046D02*
D03*
D76*
X21653Y65199D02*
D03*
Y37640D02*
D03*
Y55357D02*
D03*
Y47483D02*
D03*
D77*
X166741Y27652D02*
D03*
D78*
X158441D02*
D03*
D79*
X161141Y21845D02*
D03*
Y33459D02*
D03*
D80*
X78600Y51900D02*
D03*
X76000Y43000D02*
D03*
D81*
X46535Y23152D02*
D03*
X34724D02*
D03*
D82*
X10432Y74451D02*
D03*
Y28388D02*
D03*
D83*
X11023Y60278D02*
D03*
Y42562D02*
D03*
D84*
X73700Y3525D02*
D03*
X83700D02*
D03*
X93700D02*
D03*
X103700D02*
D03*
X113700D02*
D03*
X123700Y3583D02*
D03*
X133700Y3525D02*
D03*
X143700D02*
D03*
X153700D02*
D03*
X163700D02*
D03*
X73700Y99354D02*
D03*
X83700D02*
D03*
X93700D02*
D03*
X103700D02*
D03*
X113700Y99296D02*
D03*
X123700Y99354D02*
D03*
X133700D02*
D03*
X143700D02*
D03*
X153700D02*
D03*
X163700D02*
D03*
D85*
X73700Y96420D02*
D03*
X83700D02*
D03*
X93700D02*
D03*
X103700D02*
D03*
X113700D02*
D03*
X133700D02*
D03*
X143700D02*
D03*
X153700D02*
D03*
X123700D02*
D03*
X73700Y6420D02*
D03*
X83700D02*
D03*
X93700D02*
D03*
X103700D02*
D03*
X113700D02*
D03*
X133700D02*
D03*
X143700D02*
D03*
X153700D02*
D03*
X123700D02*
D03*
D86*
X163700Y96420D02*
D03*
Y6420D02*
D03*
M02*
