G04*
G04 #@! TF.GenerationSoftware,Altium Limited,Altium Designer,18.0.12 (696)*
G04*
G04 Layer_Physical_Order=1*
G04 Layer_Color=255*
%FSLAX25Y25*%
%MOIN*%
G70*
G01*
G75*
%ADD10C,0.00591*%
%ADD14C,0.01181*%
%ADD20C,0.00787*%
%ADD26R,0.02000X0.02500*%
%ADD27R,0.05000X0.06000*%
%ADD28R,0.02500X0.02000*%
%ADD29R,0.03150X0.03937*%
%ADD30R,0.01181X0.02559*%
%ADD31R,0.05000X0.02000*%
%ADD32R,0.03937X0.03150*%
%ADD33R,0.04331X0.04724*%
%ADD34R,0.02756X0.01968*%
%ADD35R,0.01890X0.01968*%
%ADD36R,0.04724X0.04331*%
%ADD37R,0.01968X0.02756*%
%ADD38R,0.01968X0.01890*%
%ADD39R,0.02756X0.04331*%
%ADD40R,0.03937X0.03150*%
%ADD41R,0.01102X0.02165*%
%ADD42R,0.01575X0.02362*%
%ADD43R,0.04921X0.03937*%
%ADD44R,0.02953X0.03347*%
G04:AMPARAMS|DCode=45|XSize=23.62mil|YSize=11.81mil|CornerRadius=0mil|HoleSize=0mil|Usage=FLASHONLY|Rotation=90.000|XOffset=0mil|YOffset=0mil|HoleType=Round|Shape=Octagon|*
%AMOCTAGOND45*
4,1,8,0.00295,0.01181,-0.00295,0.01181,-0.00591,0.00886,-0.00591,-0.00886,-0.00295,-0.01181,0.00295,-0.01181,0.00591,-0.00886,0.00591,0.00886,0.00295,0.01181,0.0*
%
%ADD45OCTAGOND45*%

G04:AMPARAMS|DCode=46|XSize=23.62mil|YSize=11.81mil|CornerRadius=0mil|HoleSize=0mil|Usage=FLASHONLY|Rotation=180.000|XOffset=0mil|YOffset=0mil|HoleType=Round|Shape=Octagon|*
%AMOCTAGOND46*
4,1,8,-0.01181,0.00295,-0.01181,-0.00295,-0.00886,-0.00591,0.00886,-0.00591,0.01181,-0.00295,0.01181,0.00295,0.00886,0.00591,-0.00886,0.00591,-0.01181,0.00295,0.0*
%
%ADD46OCTAGOND46*%

%ADD47R,0.03543X0.03937*%
%ADD48R,0.07874X0.04724*%
G04:AMPARAMS|DCode=49|XSize=23.62mil|YSize=19.68mil|CornerRadius=4.92mil|HoleSize=0mil|Usage=FLASHONLY|Rotation=270.000|XOffset=0mil|YOffset=0mil|HoleType=Round|Shape=RoundedRectangle|*
%AMROUNDEDRECTD49*
21,1,0.02362,0.00984,0,0,270.0*
21,1,0.01378,0.01968,0,0,270.0*
1,1,0.00984,-0.00492,-0.00689*
1,1,0.00984,-0.00492,0.00689*
1,1,0.00984,0.00492,0.00689*
1,1,0.00984,0.00492,-0.00689*
%
%ADD49ROUNDEDRECTD49*%
G04:AMPARAMS|DCode=50|XSize=19.68mil|YSize=78.74mil|CornerRadius=4.92mil|HoleSize=0mil|Usage=FLASHONLY|Rotation=270.000|XOffset=0mil|YOffset=0mil|HoleType=Round|Shape=RoundedRectangle|*
%AMROUNDEDRECTD50*
21,1,0.01968,0.06890,0,0,270.0*
21,1,0.00984,0.07874,0,0,270.0*
1,1,0.00984,-0.03445,-0.00492*
1,1,0.00984,-0.03445,0.00492*
1,1,0.00984,0.03445,0.00492*
1,1,0.00984,0.03445,-0.00492*
%
%ADD50ROUNDEDRECTD50*%
%ADD51R,0.08661X0.01968*%
%ADD87C,0.01968*%
%ADD88C,0.01000*%
%ADD89R,0.22047X0.22047*%
%ADD90C,0.01575*%
%ADD91C,0.01575*%
%ADD92C,0.04331*%
%ADD93O,0.15748X0.06299*%
%ADD94C,0.04724*%
%ADD95R,0.07087X0.07087*%
%ADD96C,0.07087*%
G36*
X171369Y102189D02*
Y102189D01*
X171545Y102194D01*
X172000Y101997D01*
Y56775D01*
X171500Y56368D01*
X171335Y56401D01*
X164838D01*
X164775Y56388D01*
X163135D01*
Y53483D01*
X164775D01*
X164838Y53470D01*
X167444D01*
Y52835D01*
X170350D01*
Y53470D01*
X171335D01*
X171500Y53503D01*
X172000Y53096D01*
Y1077D01*
X171500Y638D01*
X171377Y642D01*
Y642D01*
X171371Y639D01*
X167637D01*
Y2483D01*
Y10357D01*
X159763D01*
Y2483D01*
Y639D01*
X157637D01*
Y6162D01*
X157671Y6420D01*
X157637Y6678D01*
Y7462D01*
X157530D01*
X157139Y8405D01*
X156508Y9228D01*
X155685Y9859D01*
X154728Y10255D01*
X153700Y10391D01*
X152672Y10255D01*
X151715Y9859D01*
X150892Y9228D01*
X150261Y8405D01*
X149870Y7462D01*
X149763D01*
Y6678D01*
X149729Y6420D01*
X149763Y6162D01*
Y639D01*
X147637D01*
Y6162D01*
X147671Y6420D01*
X147637Y6678D01*
Y7462D01*
X147530D01*
X147139Y8405D01*
X146508Y9228D01*
X145686Y9859D01*
X144728Y10255D01*
X143700Y10391D01*
X142672Y10255D01*
X141715Y9859D01*
X140892Y9228D01*
X140261Y8405D01*
X139870Y7462D01*
X139763D01*
Y6678D01*
X139729Y6420D01*
X139763Y6162D01*
Y639D01*
X137637D01*
Y6162D01*
X137671Y6420D01*
X137637Y6678D01*
Y7462D01*
X137530D01*
X137139Y8405D01*
X136508Y9228D01*
X135686Y9859D01*
X134728Y10255D01*
X133700Y10391D01*
X132672Y10255D01*
X131714Y9859D01*
X130892Y9228D01*
X130261Y8405D01*
X129870Y7462D01*
X129763D01*
Y6678D01*
X129729Y6420D01*
X129763Y6162D01*
Y639D01*
X127637D01*
Y6162D01*
X127671Y6420D01*
X127637Y6678D01*
Y7520D01*
X127506D01*
X127139Y8405D01*
X126508Y9228D01*
X125686Y9859D01*
X124728Y10255D01*
X123700Y10391D01*
X122672Y10255D01*
X121714Y9859D01*
X120892Y9228D01*
X120261Y8405D01*
X119894Y7520D01*
X119763D01*
Y6678D01*
X119729Y6420D01*
X119763Y6162D01*
Y639D01*
X117637D01*
Y6162D01*
X117671Y6420D01*
X117637Y6678D01*
Y7462D01*
X117530D01*
X117139Y8405D01*
X116508Y9228D01*
X115685Y9859D01*
X114728Y10255D01*
X113700Y10391D01*
X112672Y10255D01*
X111714Y9859D01*
X110892Y9228D01*
X110261Y8405D01*
X109870Y7462D01*
X109763D01*
Y6678D01*
X109729Y6420D01*
X109763Y6162D01*
Y639D01*
X107637D01*
Y6162D01*
X107671Y6420D01*
X107637Y6678D01*
Y7462D01*
X107530D01*
X107139Y8405D01*
X106508Y9228D01*
X105685Y9859D01*
X104728Y10255D01*
X103700Y10391D01*
X102672Y10255D01*
X101715Y9859D01*
X100892Y9228D01*
X100261Y8405D01*
X99870Y7462D01*
X99763D01*
Y6678D01*
X99729Y6420D01*
X99763Y6162D01*
Y639D01*
X97637D01*
Y6162D01*
X97671Y6420D01*
X97637Y6678D01*
Y7462D01*
X97530D01*
X97139Y8405D01*
X96508Y9228D01*
X95685Y9859D01*
X94728Y10255D01*
X94263Y10317D01*
Y13166D01*
X94513Y13539D01*
X94604Y14000D01*
X94513Y14461D01*
X94510Y14465D01*
X94596Y14679D01*
X94785Y14954D01*
X95030Y15003D01*
X95156Y15086D01*
X95161Y15087D01*
X95552Y15349D01*
X95813Y15739D01*
X95904Y16200D01*
X95813Y16661D01*
X95552Y17052D01*
X95161Y17313D01*
X94700Y17404D01*
X94239Y17313D01*
X94015Y17163D01*
X92700D01*
X92370Y17097D01*
X92090Y16910D01*
X90642Y15463D01*
X89980D01*
X89931Y15963D01*
X90130Y16003D01*
X90410Y16190D01*
X95458Y21237D01*
X103300D01*
X103630Y21303D01*
X103910Y21490D01*
X105531Y23110D01*
X105718Y23390D01*
X105783Y23720D01*
Y26850D01*
X107104Y28170D01*
X107124Y28170D01*
X107604Y28016D01*
Y25881D01*
X107351Y25503D01*
X107260Y25042D01*
X107351Y24581D01*
X107612Y24190D01*
X108003Y23929D01*
X108464Y23837D01*
X108925Y23929D01*
X109315Y24190D01*
X109576Y24581D01*
X109668Y25042D01*
X109625Y25260D01*
X110085Y25507D01*
X114442Y21150D01*
X114468Y21112D01*
X122700Y12880D01*
X122787Y12439D01*
X123048Y12049D01*
X123439Y11787D01*
X123900Y11696D01*
X124361Y11787D01*
X124751Y12049D01*
X125013Y12439D01*
X125104Y12900D01*
X125013Y13361D01*
X124751Y13751D01*
X124361Y14013D01*
X123920Y14100D01*
X115714Y22307D01*
X115688Y22345D01*
X113117Y24916D01*
X113324Y25416D01*
X113430Y25416D01*
X113430Y25416D01*
X113437Y25416D01*
X115137D01*
Y27981D01*
X115206Y28085D01*
X115298Y28546D01*
X115206Y29006D01*
X114945Y29397D01*
X114555Y29658D01*
X114094Y29750D01*
X113633Y29658D01*
X113242Y29397D01*
X112981Y29006D01*
X112890Y28546D01*
X112981Y28085D01*
X113050Y27981D01*
X113050Y25802D01*
Y25795D01*
Y25795D01*
X113050Y25690D01*
X112871Y25616D01*
X112550Y25483D01*
X111299Y26735D01*
Y35567D01*
X111479Y35747D01*
Y37971D01*
X110957Y38493D01*
X109914D01*
X109451Y38030D01*
X108989Y38493D01*
X107945D01*
X107483Y38030D01*
X107020Y38493D01*
X105977D01*
X105514Y38030D01*
X105052Y38493D01*
X104008D01*
X103546Y38030D01*
X103083Y38493D01*
X102040D01*
X101577Y38030D01*
X101114Y38493D01*
X100071D01*
X99609Y38030D01*
X99146Y38493D01*
X98103D01*
X97640Y38030D01*
X97177Y38493D01*
X96134D01*
X95672Y38030D01*
X95209Y38493D01*
X94166D01*
X93703Y38030D01*
X93240Y38493D01*
X92197D01*
X91735Y38030D01*
X91272Y38493D01*
X90229D01*
X89752Y38016D01*
X89275Y38493D01*
X88232D01*
X87711Y37971D01*
Y37036D01*
X87524Y36850D01*
X82804D01*
X82564Y37250D01*
X82564Y37340D01*
X82587Y37840D01*
X83385D01*
X83715Y37906D01*
X83995Y38093D01*
X84408Y38506D01*
X84930D01*
X85073Y38362D01*
X87297D01*
X87819Y38884D01*
Y39927D01*
X87356Y40390D01*
X87819Y40852D01*
Y41896D01*
X87356Y42358D01*
X87819Y42821D01*
Y43864D01*
X87356Y44327D01*
X87819Y44789D01*
Y45833D01*
X87356Y46295D01*
X87819Y46758D01*
Y47801D01*
X87356Y48264D01*
X87819Y48726D01*
Y49770D01*
X87356Y50232D01*
X87819Y50695D01*
Y51738D01*
X87356Y52201D01*
X87819Y52663D01*
Y53707D01*
X87356Y54169D01*
X87819Y54632D01*
Y55675D01*
X87356Y56138D01*
X87819Y56600D01*
Y57644D01*
X87356Y58106D01*
X87819Y58569D01*
Y59612D01*
X87356Y60075D01*
X87819Y60537D01*
Y61581D01*
X87297Y62102D01*
X85073D01*
X84893Y61922D01*
X76698D01*
X74810Y63810D01*
X74530Y63997D01*
X74200Y64063D01*
X69200D01*
X68870Y63997D01*
X68590Y63810D01*
X65943Y61163D01*
X55013D01*
X54683Y61097D01*
X54403Y60910D01*
X52783Y59291D01*
X46850D01*
X46519Y59225D01*
X46239Y59038D01*
X44586Y57384D01*
X44399Y57104D01*
X44333Y56774D01*
Y54809D01*
X44012Y54488D01*
X43464D01*
Y55077D01*
X37558Y55077D01*
X37409Y55515D01*
Y56026D01*
X37298Y56587D01*
X36980Y57062D01*
X35642Y58401D01*
X35166Y58718D01*
X34606Y58830D01*
X31456D01*
X31394Y58817D01*
X28503D01*
Y55912D01*
X31394D01*
X31456Y55900D01*
X33990D01*
X34299Y55524D01*
X34114Y55077D01*
X33979D01*
X28503D01*
Y53443D01*
X25358Y50298D01*
X17263D01*
Y44668D01*
X26043D01*
Y48825D01*
X29389Y52172D01*
X34409Y52172D01*
X34479Y51701D01*
Y47522D01*
X34591Y46961D01*
X34908Y46486D01*
X36378Y45016D01*
Y43274D01*
X41231D01*
X41835Y42669D01*
Y39727D01*
X41056Y38948D01*
X35053D01*
Y39164D01*
X32147D01*
Y39105D01*
X31521D01*
Y39497D01*
X26679D01*
Y39105D01*
X26043D01*
Y40455D01*
X17263D01*
Y34825D01*
X26043D01*
Y36175D01*
X26679D01*
Y35442D01*
X31521D01*
Y36175D01*
X32147D01*
Y35759D01*
X35053D01*
Y36018D01*
X36378D01*
Y35774D01*
X42284D01*
Y36169D01*
X42699Y36447D01*
X44336Y38084D01*
X44654Y38559D01*
X44765Y39120D01*
Y43276D01*
X44654Y43837D01*
X44336Y44313D01*
X42689Y45960D01*
X42213Y46277D01*
X41653Y46389D01*
X39149D01*
X37409Y48129D01*
Y51733D01*
X37558Y52172D01*
X37909Y52172D01*
X43464D01*
Y52761D01*
X44369D01*
X44699Y52827D01*
X44980Y53014D01*
X45806Y53841D01*
X45993Y54121D01*
X46059Y54451D01*
Y56417D01*
X46673Y57030D01*
X47087Y56751D01*
X46996Y56290D01*
X47087Y55829D01*
X47348Y55438D01*
X47739Y55177D01*
X48200Y55086D01*
X48661Y55177D01*
X49034Y55427D01*
X53531D01*
X53861Y55493D01*
X54141Y55680D01*
X55918Y57457D01*
X66847D01*
X67178Y57522D01*
X67458Y57709D01*
X70285Y60537D01*
X73043D01*
X75099Y58480D01*
X75379Y58293D01*
X75709Y58228D01*
X82649D01*
X82916Y57728D01*
X82824Y57589D01*
X82732Y57128D01*
X82812Y56724D01*
X82784Y56610D01*
X82519Y56224D01*
X79653D01*
Y56761D01*
X76747D01*
Y55110D01*
X75248Y53610D01*
X75017Y53265D01*
X74936Y52858D01*
Y43534D01*
X74887Y43461D01*
X74796Y43000D01*
X74848Y42737D01*
X74534Y42237D01*
X70859D01*
Y42800D01*
X70715Y43146D01*
X70368Y43290D01*
X66431D01*
X66085Y43146D01*
X65941Y42800D01*
Y39709D01*
X66001Y39566D01*
X66085Y39363D01*
X65997Y38858D01*
X65941Y38725D01*
Y37300D01*
X66085Y36953D01*
X66431Y36810D01*
X67537D01*
Y34311D01*
X67449Y34251D01*
X67187Y33861D01*
X67096Y33400D01*
X67168Y33039D01*
X66982Y32693D01*
X66853Y32539D01*
X66376D01*
X66030Y32395D01*
X65886Y32049D01*
Y30624D01*
X66030Y30277D01*
X66078Y30229D01*
X66030Y29986D01*
X65886Y29639D01*
Y26549D01*
X66030Y26202D01*
X66376Y26059D01*
X70204D01*
X70287Y25639D01*
X70548Y25249D01*
X70939Y24987D01*
X71400Y24896D01*
X71861Y24987D01*
X72251Y25249D01*
X72513Y25639D01*
X72604Y26100D01*
X72513Y26561D01*
X72251Y26952D01*
X71861Y27213D01*
X71420Y27300D01*
X70803Y27917D01*
Y29639D01*
X70744Y29783D01*
X70660Y29986D01*
X70748Y30490D01*
X70803Y30624D01*
Y32049D01*
X70660Y32395D01*
X70313Y32539D01*
X69747D01*
X69618Y32693D01*
X69432Y33039D01*
X69504Y33400D01*
X69413Y33861D01*
X69263Y34085D01*
Y36810D01*
X70368D01*
X70715Y36953D01*
X70859Y37300D01*
Y38725D01*
X70715Y39072D01*
X70667Y39120D01*
X70715Y39363D01*
X70859Y39709D01*
Y40511D01*
X78679D01*
X79041Y40107D01*
X78984Y39728D01*
X78830Y39698D01*
X78439Y39437D01*
X78178Y39046D01*
X78086Y38585D01*
X78178Y38124D01*
X78439Y37734D01*
X78830Y37473D01*
X79159Y37407D01*
Y37250D01*
X81748D01*
X81813Y37163D01*
X81865Y36597D01*
X81251Y35983D01*
X79198D01*
Y35598D01*
X78830Y35524D01*
X78439Y35263D01*
X78178Y34873D01*
X78086Y34412D01*
X78178Y33951D01*
X78439Y33560D01*
X78830Y33299D01*
X79198Y33226D01*
Y33077D01*
X82603D01*
Y34894D01*
X82833Y35124D01*
X87881D01*
X88212Y35189D01*
X88266Y35225D01*
X89275D01*
X89387Y35337D01*
X89887Y35130D01*
Y34522D01*
X89409Y34471D01*
Y34471D01*
X83582D01*
Y31377D01*
X82564D01*
Y31967D01*
X79159D01*
Y29061D01*
X82564D01*
Y29651D01*
X83582D01*
Y29628D01*
X88106D01*
X88297Y29166D01*
X87696Y28565D01*
X83582D01*
Y27007D01*
X82643D01*
Y27794D01*
X79237D01*
Y25811D01*
X78851Y25494D01*
X78800Y25504D01*
X78339Y25413D01*
X77948Y25152D01*
X77687Y24761D01*
X77596Y24300D01*
X77687Y23839D01*
X77937Y23466D01*
Y21677D01*
X77242Y20983D01*
X71020D01*
X70689Y20917D01*
X70410Y20730D01*
X69469Y19790D01*
X66431D01*
X66163Y19969D01*
Y22600D01*
X66097Y22930D01*
X65910Y23210D01*
X65606Y23514D01*
X65326Y23701D01*
X64996Y23767D01*
X64139D01*
X62949Y24958D01*
Y28191D01*
X62883Y28522D01*
X62696Y28802D01*
X59665Y31833D01*
X59385Y32020D01*
X59054Y32086D01*
X51318D01*
Y33457D01*
X55600D01*
X55930Y33522D01*
X56210Y33709D01*
X57210Y34710D01*
X57397Y34990D01*
X57463Y35320D01*
Y39243D01*
X58502Y40281D01*
X62244D01*
X62574Y40347D01*
X62854Y40534D01*
X64074Y41754D01*
X64261Y42033D01*
X64327Y42364D01*
Y52477D01*
X66700D01*
X67261Y52588D01*
X67736Y52906D01*
X68054Y53381D01*
X68165Y53942D01*
X68054Y54502D01*
X67736Y54978D01*
X67261Y55295D01*
X66700Y55407D01*
X64290D01*
Y55668D01*
X64147Y56015D01*
X63800Y56159D01*
X62375D01*
X62028Y56015D01*
X61980Y55967D01*
X61737Y56015D01*
X61391Y56159D01*
X58300D01*
X57954Y56015D01*
X57810Y55668D01*
Y52618D01*
X57622Y52336D01*
X57510Y51776D01*
Y47098D01*
X50598D01*
Y47699D01*
X50623Y47723D01*
X51706D01*
Y50628D01*
X50066D01*
X50003Y50641D01*
X49941Y50628D01*
X48300D01*
Y49545D01*
X48097Y49341D01*
X47779Y48866D01*
X47668Y48305D01*
Y46179D01*
X46378D01*
Y43274D01*
X52284D01*
Y44167D01*
X57814D01*
Y42588D01*
X61300D01*
X61567Y42088D01*
X61513Y42007D01*
X58144D01*
X57814Y41941D01*
X57534Y41754D01*
X55990Y40210D01*
X55803Y39930D01*
X55746Y39643D01*
X55620Y39481D01*
X55408Y39264D01*
X55237Y39264D01*
X52547D01*
Y38948D01*
X49133D01*
X48572Y38836D01*
X48337Y38679D01*
X46378D01*
Y35774D01*
X52083D01*
X52284Y35774D01*
X52284Y35774D01*
X52547Y35859D01*
X52547Y35859D01*
X54819D01*
X55076Y35359D01*
X54950Y35183D01*
X43924D01*
X43594Y35117D01*
X43314Y34930D01*
X42972Y34588D01*
X42785Y34308D01*
X42719Y33978D01*
Y33841D01*
X41751D01*
Y28605D01*
X45413D01*
Y33457D01*
X47657D01*
Y28605D01*
X51318D01*
Y30360D01*
X58697D01*
X61223Y27834D01*
Y24600D01*
X61288Y24270D01*
X61476Y23990D01*
X63172Y22294D01*
X63452Y22107D01*
X63782Y22041D01*
X64437D01*
Y15400D01*
X64503Y15070D01*
X64690Y14790D01*
X65290Y14190D01*
X65570Y14003D01*
X65900Y13937D01*
X65941D01*
Y13800D01*
X66085Y13453D01*
X66431Y13310D01*
X70368D01*
X70715Y13453D01*
X70791Y13637D01*
X70900D01*
X71230Y13703D01*
X71510Y13890D01*
X72356Y14736D01*
X72361Y14735D01*
X72837Y14509D01*
Y10277D01*
X72672Y10255D01*
X71715Y9859D01*
X70892Y9228D01*
X70261Y8405D01*
X69870Y7462D01*
X69763D01*
Y6678D01*
X69729Y6420D01*
X69763Y6162D01*
Y639D01*
X65708D01*
X65585Y588D01*
X64827Y688D01*
X64006Y1028D01*
X63301Y1569D01*
X62760Y2274D01*
X62419Y3095D01*
X62315Y3887D01*
X62352Y3977D01*
Y13106D01*
X62371Y13152D01*
X62362D01*
X62204Y14355D01*
X61739Y15475D01*
X61001Y16437D01*
X60039Y17176D01*
X58918Y17640D01*
X57886Y17776D01*
X57814Y17806D01*
Y20652D01*
X52972D01*
Y17846D01*
X28287D01*
Y20652D01*
X23444D01*
Y17846D01*
X9232D01*
X9084Y17785D01*
X7579Y17933D01*
X5951Y18427D01*
X4451Y19229D01*
X3137Y20308D01*
X2058Y21622D01*
X1256Y23122D01*
X762Y24750D01*
X604Y26357D01*
X638Y26440D01*
Y76289D01*
X606Y76368D01*
X765Y77982D01*
X1258Y79609D01*
X2060Y81109D01*
X3139Y82424D01*
X4454Y83503D01*
X5954Y84305D01*
X7581Y84798D01*
X8777Y84916D01*
X9274Y84925D01*
Y84925D01*
X9363Y84962D01*
X15235D01*
X15312Y84993D01*
X57597D01*
X57597Y84993D01*
Y84993D01*
X57628Y85006D01*
X58800Y85160D01*
X59921Y85624D01*
X60883Y86363D01*
X61621Y87325D01*
X62085Y88446D01*
X62239Y89615D01*
X62253Y89648D01*
X62252Y89650D01*
Y99033D01*
X62341Y99703D01*
X62681Y100524D01*
X63222Y101229D01*
X63927Y101770D01*
X64748Y102110D01*
X65144Y102162D01*
X65629Y102198D01*
Y102198D01*
X65637Y102202D01*
X69763D01*
Y96678D01*
X69729Y96420D01*
X69763Y96162D01*
Y95417D01*
X69861D01*
X69864Y95392D01*
X70261Y94434D01*
X70892Y93612D01*
X71715Y92981D01*
X72672Y92584D01*
X72861Y92559D01*
Y80856D01*
X72611Y80483D01*
X72519Y80022D01*
X72611Y79561D01*
X72872Y79171D01*
X73263Y78909D01*
X73724Y78818D01*
X74185Y78909D01*
X74575Y79171D01*
X74836Y79561D01*
X74928Y80022D01*
X74836Y80483D01*
X74587Y80856D01*
Y92566D01*
X74728Y92584D01*
X75686Y92981D01*
X76508Y93612D01*
X77139Y94434D01*
X77536Y95392D01*
X77539Y95417D01*
X77637D01*
Y96162D01*
X77671Y96420D01*
X77637Y96678D01*
Y102202D01*
X79763D01*
Y96678D01*
X79729Y96420D01*
X79763Y96162D01*
Y95417D01*
X79861D01*
X79864Y95392D01*
X80261Y94434D01*
X80362Y94302D01*
X76948Y90888D01*
X76761Y90608D01*
X76695Y90278D01*
Y82592D01*
X76487Y82281D01*
X76396Y81820D01*
X76487Y81359D01*
X76749Y80968D01*
X77139Y80707D01*
X77600Y80616D01*
X78061Y80707D01*
X78452Y80968D01*
X78713Y81359D01*
X78804Y81820D01*
X78713Y82281D01*
X78683Y82325D01*
X78741Y82576D01*
X78939Y83007D01*
X79400Y82916D01*
X79861Y83007D01*
X80234Y83257D01*
X80600D01*
X80930Y83322D01*
X81210Y83509D01*
X91130Y93429D01*
X91715Y92981D01*
X92672Y92584D01*
X93700Y92449D01*
X94728Y92584D01*
X95685Y92981D01*
X96508Y93612D01*
X97139Y94434D01*
X97536Y95392D01*
X97539Y95417D01*
X97637D01*
Y96162D01*
X97671Y96420D01*
X97637Y96678D01*
Y102202D01*
X99763D01*
Y96678D01*
X99729Y96420D01*
X99763Y96162D01*
Y95417D01*
X99861D01*
X99864Y95392D01*
X100261Y94434D01*
X100892Y93612D01*
X101715Y92981D01*
X102672Y92584D01*
X102837Y92562D01*
Y90900D01*
X102903Y90570D01*
X103090Y90290D01*
X104490Y88890D01*
X104770Y88703D01*
X105100Y88637D01*
X111943D01*
X114537Y86042D01*
Y83957D01*
X114042Y83462D01*
X109299D01*
X108969Y83397D01*
X108689Y83210D01*
X106537Y81057D01*
X106300Y81104D01*
X105839Y81013D01*
X105448Y80752D01*
X105187Y80361D01*
X105096Y79900D01*
X104700Y79504D01*
X104239Y79413D01*
X103849Y79151D01*
X103587Y78761D01*
X103496Y78300D01*
X103587Y77839D01*
X103849Y77448D01*
X104239Y77187D01*
X104700Y77096D01*
X105161Y77187D01*
X105552Y77448D01*
X105561Y77462D01*
X106686D01*
X107037Y77423D01*
X107168Y76981D01*
Y69510D01*
X106668Y69274D01*
X106461Y69413D01*
X106000Y69504D01*
X105539Y69413D01*
X105166Y69163D01*
X104858D01*
X103988Y70032D01*
Y75167D01*
X103922Y75498D01*
X103735Y75778D01*
X99863Y79650D01*
Y82820D01*
X99797Y83150D01*
X99610Y83430D01*
X98510Y84530D01*
X98230Y84717D01*
X97900Y84783D01*
X83620D01*
X83289Y84717D01*
X83009Y84530D01*
X79190Y80710D01*
X79003Y80430D01*
X78937Y80100D01*
Y74357D01*
X76543Y71963D01*
X66100D01*
X65770Y71897D01*
X65763Y71893D01*
X65263Y72160D01*
Y75766D01*
X65513Y76139D01*
X65604Y76600D01*
X65513Y77061D01*
X65251Y77451D01*
X64861Y77713D01*
X64400Y77804D01*
X63939Y77713D01*
X63548Y77451D01*
X63287Y77061D01*
X63196Y76600D01*
X63287Y76139D01*
X63537Y75766D01*
Y75295D01*
X63154Y75011D01*
X58312D01*
Y70956D01*
X58937D01*
Y69458D01*
X58842Y69363D01*
X57500D01*
X57448Y69353D01*
X55697D01*
Y66525D01*
X54803D01*
Y69353D01*
X53306D01*
X53115Y69815D01*
X54178Y70878D01*
X57406D01*
Y74933D01*
X52564D01*
Y71704D01*
X52001Y71141D01*
X51501Y71349D01*
Y74972D01*
X46658D01*
Y73808D01*
X46485D01*
X46154Y73742D01*
X45874Y73555D01*
X44247Y71928D01*
X41623D01*
Y69022D01*
X45029D01*
Y70268D01*
X46196Y71436D01*
X46658Y71244D01*
Y70917D01*
X48506D01*
X48600Y70782D01*
X48696Y70417D01*
X47632Y69353D01*
X46397D01*
Y67120D01*
X45935Y66928D01*
X44653Y68210D01*
X44374Y68397D01*
X44043Y68463D01*
X39775D01*
X39729Y68522D01*
X39972Y69022D01*
X40029D01*
Y71928D01*
X36623D01*
Y69022D01*
X37463D01*
Y68250D01*
X37529Y67920D01*
X37700Y67663D01*
X37655Y67443D01*
X37540Y67163D01*
X35476D01*
X34043Y68596D01*
X33848Y69022D01*
X33848D01*
X33848Y69022D01*
Y71928D01*
X30902D01*
Y81147D01*
X40964D01*
Y79589D01*
X45413D01*
Y84431D01*
X40964D01*
Y82873D01*
X29271D01*
Y84431D01*
X24822D01*
Y79589D01*
X29175D01*
Y72292D01*
X28848Y71928D01*
X25442D01*
Y69022D01*
X28848D01*
Y69612D01*
X28857D01*
X29188Y69678D01*
X29468Y69865D01*
X29980Y70377D01*
X30442Y70186D01*
Y69022D01*
X31332D01*
X31348Y68944D01*
X31535Y68664D01*
X34509Y65690D01*
X34789Y65503D01*
X35119Y65437D01*
X42548D01*
X45295Y62690D01*
X45575Y62503D01*
X45750Y62468D01*
X45701Y61968D01*
X43464D01*
Y62558D01*
X37558D01*
Y59652D01*
X43464D01*
Y60242D01*
X47275D01*
X47649Y59992D01*
X48109Y59900D01*
X48570Y59992D01*
X48961Y60253D01*
X49222Y60644D01*
X49314Y61105D01*
X49222Y61566D01*
X48974Y61937D01*
X48996Y62051D01*
X49142Y62437D01*
X65100D01*
X65430Y62503D01*
X65710Y62690D01*
X68257Y65237D01*
X74642D01*
X76872Y63008D01*
X77152Y62821D01*
X77482Y62755D01*
X87739D01*
Y62506D01*
X88260Y61984D01*
X89303D01*
X89766Y62447D01*
X90229Y61984D01*
X91272D01*
X91735Y62447D01*
X92197Y61984D01*
X93240D01*
X93703Y62447D01*
X94166Y61984D01*
X95209D01*
X95731Y62506D01*
Y63515D01*
X95751Y63618D01*
Y67156D01*
X97561D01*
Y63618D01*
X97581Y63515D01*
Y62506D01*
X98103Y61984D01*
X99146D01*
X99609Y62447D01*
X100071Y61984D01*
X101114D01*
X101577Y62447D01*
X102040Y61984D01*
X103083D01*
X103546Y62447D01*
X104008Y61984D01*
X105052D01*
X105514Y62447D01*
X105977Y61984D01*
X107020D01*
X107483Y62447D01*
X107945Y61984D01*
X108989D01*
X109451Y62447D01*
X109914Y61984D01*
X110957D01*
X111486Y61806D01*
X111495Y61762D01*
X111313Y61581D01*
Y60537D01*
X111776Y60075D01*
X111313Y59612D01*
Y58569D01*
X111835Y58047D01*
X112845D01*
X112947Y58027D01*
X114391D01*
X114798Y58108D01*
X115143Y58338D01*
X116052Y59248D01*
X116283Y59593D01*
X116364Y60000D01*
Y62059D01*
X116838Y62533D01*
X117433Y62421D01*
X117549Y62248D01*
X117939Y61987D01*
X118400Y61896D01*
X118861Y61987D01*
X119252Y62248D01*
X119513Y62639D01*
X119604Y63100D01*
X119513Y63561D01*
X119252Y63951D01*
X118903Y64185D01*
Y65853D01*
X119290Y66126D01*
X119391D01*
X119952Y66238D01*
X120427Y66555D01*
X121396Y67524D01*
X122040Y67461D01*
X122048Y67449D01*
X122439Y67187D01*
X122900Y67096D01*
X123361Y67187D01*
X123751Y67449D01*
X124013Y67839D01*
X124094Y68247D01*
X124503D01*
Y70631D01*
X126336Y72464D01*
X126654Y72939D01*
X126765Y73500D01*
Y79400D01*
X126654Y79961D01*
X126336Y80436D01*
X122465Y84307D01*
Y89120D01*
X122354Y89680D01*
X122036Y90156D01*
X117320Y94872D01*
X117522Y95359D01*
X117637D01*
Y96162D01*
X117671Y96420D01*
X117637Y96678D01*
Y102202D01*
X119763D01*
Y96678D01*
X119729Y96420D01*
X119763Y96162D01*
Y95417D01*
X119861D01*
X119864Y95392D01*
X120261Y94434D01*
X120892Y93612D01*
X121714Y92981D01*
X122672Y92584D01*
X123700Y92449D01*
X124728Y92584D01*
X125686Y92981D01*
X126508Y93612D01*
X127139Y94434D01*
X127536Y95392D01*
X127539Y95417D01*
X127637D01*
Y96162D01*
X127671Y96420D01*
X127637Y96678D01*
Y102202D01*
X129763D01*
Y96678D01*
X129729Y96420D01*
X129763Y96162D01*
Y95417D01*
X129861D01*
X129864Y95392D01*
X130261Y94434D01*
X130892Y93612D01*
X131714Y92981D01*
X132672Y92584D01*
X133700Y92449D01*
X134728Y92584D01*
X135686Y92981D01*
X136508Y93612D01*
X137139Y94434D01*
X137536Y95392D01*
X137539Y95417D01*
X137637D01*
Y96162D01*
X137671Y96420D01*
X137637Y96678D01*
Y102202D01*
X139763D01*
Y96678D01*
X139729Y96420D01*
X139763Y96162D01*
Y95417D01*
X139861D01*
X139864Y95392D01*
X140261Y94434D01*
X140892Y93612D01*
X141715Y92981D01*
X142672Y92584D01*
X143700Y92449D01*
X144728Y92584D01*
X145686Y92981D01*
X146508Y93612D01*
X147139Y94434D01*
X147536Y95392D01*
X147539Y95417D01*
X147637D01*
Y96162D01*
X147671Y96420D01*
X147637Y96678D01*
Y102202D01*
X149763D01*
Y96678D01*
X149729Y96420D01*
X149763Y96162D01*
Y95417D01*
X149861D01*
X149864Y95392D01*
X150261Y94434D01*
X150892Y93612D01*
X151715Y92981D01*
X152672Y92584D01*
X153700Y92449D01*
X154728Y92584D01*
X155685Y92981D01*
X156508Y93612D01*
X157139Y94434D01*
X157536Y95392D01*
X157539Y95417D01*
X157637D01*
Y96162D01*
X157671Y96420D01*
X157637Y96678D01*
Y102202D01*
X171339D01*
X171369Y102189D01*
D02*
G37*
G36*
X89763Y96678D02*
X89729Y96420D01*
X89763Y96162D01*
Y95417D01*
X89861D01*
X89864Y95392D01*
X90095Y94835D01*
X80243Y84983D01*
X80234D01*
X79861Y85232D01*
X79400Y85324D01*
X78939Y85232D01*
X78921Y85220D01*
X78421Y85488D01*
Y89921D01*
X81583Y93082D01*
X81714Y92981D01*
X82672Y92584D01*
X83700Y92449D01*
X84728Y92584D01*
X85685Y92981D01*
X86508Y93612D01*
X87139Y94434D01*
X87536Y95392D01*
X87539Y95417D01*
X87637D01*
Y96162D01*
X87671Y96420D01*
X87637Y96678D01*
Y102202D01*
X89763D01*
Y96678D01*
D02*
G37*
G36*
X109763D02*
X109729Y96420D01*
X109763Y96162D01*
Y95359D01*
X109878D01*
X110261Y94434D01*
X110892Y93612D01*
X111714Y92981D01*
X112240Y92763D01*
X112141Y92263D01*
X108634D01*
X108261Y92513D01*
X107800Y92604D01*
X107339Y92513D01*
X106948Y92251D01*
X106687Y91861D01*
X106596Y91400D01*
X106687Y90939D01*
X106738Y90863D01*
X106471Y90363D01*
X105457D01*
X104563Y91258D01*
Y92562D01*
X104728Y92584D01*
X105685Y92981D01*
X106508Y93612D01*
X107139Y94434D01*
X107536Y95392D01*
X107539Y95417D01*
X107637D01*
Y96162D01*
X107671Y96420D01*
X107637Y96678D01*
Y102202D01*
X109763D01*
Y96678D01*
D02*
G37*
G36*
X90500Y77051D02*
X89075D01*
X87106Y79020D01*
X89075Y80988D01*
X90500D01*
Y77051D01*
D02*
G37*
G36*
X86122Y79020D02*
X88090Y77051D01*
X85000D01*
Y80988D01*
X88090D01*
X86122Y79020D01*
D02*
G37*
G36*
X91889Y76156D02*
X97795D01*
X97795Y76156D01*
Y76156D01*
X98231Y75984D01*
X99426Y74790D01*
X99222Y74290D01*
X99222D01*
Y72639D01*
X98295Y71711D01*
X97798Y71917D01*
X97795Y71921D01*
Y74062D01*
X91889D01*
Y67829D01*
X91427Y67638D01*
X90553Y68512D01*
Y70922D01*
X87647D01*
Y70685D01*
X85765D01*
Y76561D01*
X88090D01*
X88234Y76621D01*
X88437Y76705D01*
X88942Y76616D01*
X89075Y76561D01*
X90500D01*
X90847Y76705D01*
X90990Y77051D01*
Y77956D01*
X91889D01*
Y76156D01*
D02*
G37*
G36*
X120577Y75290D02*
X120857Y75103D01*
X121188Y75037D01*
X121866D01*
X122239Y74787D01*
X122700Y74696D01*
X123161Y74787D01*
X123335Y74904D01*
X123835Y74641D01*
Y74107D01*
X119258Y69530D01*
X118796Y69721D01*
Y72768D01*
X114938D01*
Y69934D01*
X114387Y69383D01*
X114199Y69103D01*
X114190Y69057D01*
X114121Y68988D01*
X114076Y68979D01*
X113796Y68792D01*
X112090Y67086D01*
X111903Y66806D01*
X111837Y66476D01*
Y66441D01*
X111337Y66252D01*
X111256Y66344D01*
Y73135D01*
X111952Y73831D01*
X114662D01*
Y77812D01*
X118055D01*
X120577Y75290D01*
D02*
G37*
G36*
X82807Y81233D02*
X82835Y81207D01*
Y79120D01*
Y69527D01*
X82266Y68958D01*
X81949Y68483D01*
X81837Y67922D01*
Y67754D01*
X81599D01*
Y64849D01*
X81280Y64481D01*
X77839D01*
X75610Y66710D01*
X75330Y66897D01*
X75000Y66963D01*
X71084D01*
X70757Y67463D01*
X70804Y67700D01*
X70713Y68161D01*
X70451Y68551D01*
X70061Y68813D01*
X69600Y68904D01*
X69139Y68813D01*
X68766Y68563D01*
X67830D01*
X67499Y68497D01*
X67219Y68310D01*
X66225Y67316D01*
X65763Y67507D01*
Y69542D01*
X66457Y70237D01*
X76900D01*
X77230Y70303D01*
X77510Y70490D01*
X80410Y73390D01*
X80597Y73670D01*
X80663Y74000D01*
Y79742D01*
X82371Y81450D01*
X82807Y81233D01*
D02*
G37*
G36*
X63800Y51731D02*
X62375D01*
X60406Y53700D01*
X62375Y55668D01*
X63800D01*
Y51731D01*
D02*
G37*
G36*
X59422Y53700D02*
X61391Y51731D01*
X58300D01*
Y55668D01*
X61391D01*
X59422Y53700D01*
D02*
G37*
G36*
X79445Y53184D02*
X79617Y52855D01*
X79543Y52483D01*
X79635Y52022D01*
X79896Y51631D01*
X80286Y51370D01*
X80727Y51283D01*
X83372Y48638D01*
X83652Y48451D01*
X83982Y48385D01*
X84428D01*
X84635Y47885D01*
X84551Y47801D01*
Y46758D01*
X85014Y46295D01*
X84551Y45833D01*
Y44789D01*
X84635Y44706D01*
X84428Y44206D01*
X83958D01*
X83803Y44437D01*
X83413Y44698D01*
X82952Y44789D01*
X82491Y44698D01*
X82100Y44437D01*
X81839Y44046D01*
X81748Y43585D01*
X81839Y43124D01*
X82100Y42734D01*
X81943Y42237D01*
X77466D01*
X77152Y42737D01*
X77204Y43000D01*
X77113Y43461D01*
X77064Y43534D01*
Y52418D01*
X78002Y53355D01*
X79308D01*
X79445Y53184D01*
D02*
G37*
G36*
X70368Y39709D02*
X68400Y41678D01*
X66431Y39709D01*
Y42800D01*
X70368D01*
Y39709D01*
D02*
G37*
G36*
Y38725D02*
Y37300D01*
X66431D01*
Y38725D01*
X68400Y40694D01*
X70368Y38725D01*
D02*
G37*
G36*
X99738Y33245D02*
X100129Y32984D01*
X100565Y32898D01*
X100740Y32664D01*
X100825Y32430D01*
X100637Y32149D01*
X100556Y31741D01*
Y31376D01*
X99985D01*
Y28471D01*
X100556D01*
Y27778D01*
X99593D01*
Y22963D01*
X96548D01*
Y27778D01*
X92902D01*
X92694Y28278D01*
X94153Y29736D01*
X94340Y30016D01*
X94406Y30347D01*
Y31653D01*
X95178Y32425D01*
X95606Y32346D01*
X95718Y32274D01*
X95737Y32179D01*
X95998Y31789D01*
X96389Y31528D01*
X96850Y31436D01*
X97311Y31528D01*
X97701Y31789D01*
X97774Y31898D01*
X97972Y32030D01*
X99157Y33215D01*
X99615Y33257D01*
X99738Y33245D01*
D02*
G37*
G36*
X191830Y30565D02*
X194783D01*
Y38833D01*
Y56156D01*
X196554D01*
Y28695D01*
X189960D01*
Y63932D01*
X187106D01*
Y28794D01*
X180609D01*
Y63932D01*
X177755D01*
Y54188D01*
X171259D01*
Y55762D01*
X175787D01*
Y65605D01*
Y65703D01*
X182283D01*
Y30959D01*
Y30664D01*
X185235D01*
Y65605D01*
Y65703D01*
X191830D01*
Y30565D01*
D02*
G37*
G36*
X70313Y30624D02*
X68345Y28655D01*
X66376Y30624D01*
Y32049D01*
X70313D01*
Y30624D01*
D02*
G37*
G36*
Y26549D02*
X66376D01*
Y29639D01*
X68345Y27671D01*
X70313Y29639D01*
Y26549D01*
D02*
G37*
G36*
X70368Y17875D02*
X68400Y15906D01*
X66431Y17875D01*
Y19300D01*
X70368D01*
Y17875D01*
D02*
G37*
G36*
Y13800D02*
X66431D01*
Y16891D01*
X68400Y14922D01*
X70368Y16891D01*
Y13800D01*
D02*
G37*
G36*
X85922Y15527D02*
X85939Y15437D01*
X85687Y15061D01*
X85596Y14600D01*
X85687Y14139D01*
X85948Y13748D01*
X86339Y13487D01*
X86800Y13396D01*
X87261Y13487D01*
X87634Y13737D01*
X91000D01*
X91330Y13803D01*
X91610Y13990D01*
X91707Y14087D01*
X91902Y14052D01*
X92218Y13890D01*
X92287Y13539D01*
X92537Y13166D01*
Y10199D01*
X91715Y9859D01*
X90892Y9228D01*
X90261Y8405D01*
X89870Y7462D01*
X89763D01*
Y6678D01*
X89729Y6420D01*
X89763Y6162D01*
Y639D01*
X77637D01*
Y6162D01*
X77671Y6420D01*
X77637Y6678D01*
Y7462D01*
X77530D01*
X77139Y8405D01*
X76508Y9228D01*
X75686Y9859D01*
X74728Y10255D01*
X74563Y10277D01*
Y14330D01*
X76170Y15937D01*
X85775D01*
X85922Y15527D01*
D02*
G37*
%LPC*%
G36*
X15157Y78025D02*
X5708D01*
X4783Y77903D01*
X3921Y77546D01*
X3181Y76978D01*
X2613Y76238D01*
X2256Y75376D01*
X2134Y74451D01*
X2256Y73526D01*
X2613Y72664D01*
X3181Y71924D01*
X3921Y71356D01*
X4783Y70999D01*
X5708Y70877D01*
X15157D01*
X16082Y70999D01*
X16944Y71356D01*
X17684Y71924D01*
X18252Y72664D01*
X18609Y73526D01*
X18731Y74451D01*
X18609Y75376D01*
X18252Y76238D01*
X17684Y76978D01*
X16944Y77546D01*
X16082Y77903D01*
X15157Y78025D01*
D02*
G37*
G36*
X34409Y62558D02*
X28503D01*
Y61867D01*
X27401D01*
X27401Y61867D01*
X27109Y61809D01*
X26862Y61644D01*
X26862Y61644D01*
X23389Y58172D01*
X17263D01*
Y52542D01*
X26043D01*
Y58172D01*
X26043D01*
X25897Y58523D01*
X27717Y60342D01*
X28503D01*
Y59652D01*
X34409D01*
Y62558D01*
D02*
G37*
G36*
X148184Y56658D02*
X145279D01*
Y56465D01*
X138209D01*
Y56535D01*
X136201D01*
Y53465D01*
X138209D01*
Y53535D01*
X145279D01*
Y53252D01*
X148184D01*
Y53562D01*
X148690D01*
Y56467D01*
X148184D01*
Y56658D01*
D02*
G37*
G36*
X118853Y56945D02*
X115947D01*
Y56217D01*
X112947D01*
X112845Y56197D01*
X111835D01*
X111313Y55675D01*
Y54632D01*
X111776Y54169D01*
X111313Y53707D01*
Y52663D01*
X111776Y52201D01*
X111313Y51738D01*
Y50695D01*
X111776Y50232D01*
X111313Y49770D01*
Y48726D01*
X111776Y48264D01*
X111313Y47801D01*
Y46758D01*
X111776Y46295D01*
X111313Y45833D01*
Y44789D01*
X111776Y44327D01*
X111313Y43864D01*
Y42821D01*
X111776Y42358D01*
X111313Y41896D01*
Y40852D01*
X111776Y40390D01*
X111313Y39927D01*
Y38884D01*
X111835Y38362D01*
X114059D01*
X114502Y38521D01*
X114893Y38260D01*
X115354Y38168D01*
X115814Y38260D01*
X116205Y38521D01*
X116466Y38912D01*
X116558Y39373D01*
X116466Y39833D01*
X116384Y39955D01*
X116296Y40424D01*
X116415Y40685D01*
X116545Y40880D01*
X116636Y41341D01*
X116545Y41802D01*
X116439Y41960D01*
X116325Y42325D01*
X116439Y42690D01*
X116545Y42849D01*
X116636Y43310D01*
X116545Y43770D01*
X116463Y43892D01*
X116363Y44427D01*
X116624Y44817D01*
X116715Y45278D01*
X116624Y45739D01*
X116363Y46130D01*
X116337Y46748D01*
X116353Y46773D01*
X116534Y46878D01*
X116936Y46924D01*
X117176Y46764D01*
X117637Y46672D01*
X118098Y46764D01*
X118239Y46858D01*
X118739Y46747D01*
X119156Y46515D01*
X120209Y45462D01*
X120141Y45300D01*
Y43875D01*
X120285Y43528D01*
X120333Y43480D01*
X120285Y43237D01*
X120141Y42891D01*
Y39800D01*
X120285Y39454D01*
X120632Y39310D01*
X121389D01*
X121515Y38845D01*
X121408Y38309D01*
X121520Y37749D01*
X121837Y37273D01*
X124479Y34632D01*
Y29451D01*
X124043Y29015D01*
X123578Y28930D01*
Y28930D01*
X120672D01*
Y27289D01*
X120660Y27227D01*
X120672Y27165D01*
Y25524D01*
X123578D01*
Y25742D01*
X124307D01*
X124868Y25853D01*
X125343Y26171D01*
X126980Y27808D01*
X127298Y28283D01*
X127409Y28844D01*
Y35239D01*
X127298Y35799D01*
X126980Y36275D01*
X124445Y38810D01*
X124511Y39078D01*
X124627Y39334D01*
X124915Y39454D01*
X125059Y39800D01*
Y42891D01*
X124999Y43034D01*
X124915Y43237D01*
X125003Y43742D01*
X125059Y43875D01*
Y45300D01*
X124915Y45647D01*
X124568Y45790D01*
X122322D01*
X121827Y46285D01*
X122018Y46747D01*
X122145D01*
Y49653D01*
X120124D01*
X120058Y49751D01*
X119047Y50762D01*
X118767Y50949D01*
X118437Y51015D01*
X117506D01*
X117463Y51057D01*
Y51771D01*
X117397Y52101D01*
X117210Y52381D01*
X116514Y53077D01*
X116705Y53539D01*
X118853D01*
Y53577D01*
X119739D01*
Y53547D01*
X123145D01*
Y56453D01*
X121673D01*
X121400Y56507D01*
X118853D01*
Y56945D01*
D02*
G37*
G36*
X159931Y56485D02*
Y56479D01*
X151987D01*
X151925Y56467D01*
X150285D01*
Y53562D01*
X151925D01*
X151987Y53549D01*
X154491D01*
Y53016D01*
X157397D01*
Y53549D01*
X158419D01*
Y53483D01*
X159796D01*
X159931Y53427D01*
Y53427D01*
X160184Y53483D01*
X161824D01*
Y56388D01*
X160416D01*
X159931Y56485D01*
D02*
G37*
G36*
X131453Y56661D02*
Y56661D01*
X131343Y56661D01*
X128547D01*
Y56465D01*
X126258D01*
X126196Y56453D01*
X124455D01*
Y53547D01*
X126196D01*
X126258Y53535D01*
X128547D01*
Y53255D01*
X131453D01*
Y53255D01*
X131791Y53465D01*
X133799D01*
Y56535D01*
X131791D01*
X131791Y56536D01*
X131453Y56661D01*
D02*
G37*
G36*
X148184Y51658D02*
X145279D01*
Y50017D01*
X145266Y49955D01*
Y47453D01*
X145255D01*
Y45894D01*
X145174D01*
X145255Y45696D01*
Y44547D01*
X145306D01*
Y41861D01*
X145318Y41798D01*
Y40158D01*
X148224D01*
Y41798D01*
X148236Y41861D01*
Y44547D01*
X148661D01*
Y47453D01*
X148197D01*
Y49955D01*
X148184Y50017D01*
Y51658D01*
D02*
G37*
G36*
X114369Y35656D02*
X113908Y35564D01*
X113518Y35303D01*
X113257Y34912D01*
X113201Y34633D01*
X113050Y34195D01*
X113050D01*
Y30731D01*
X115137D01*
Y31600D01*
X116578D01*
Y30563D01*
X119483D01*
Y31600D01*
X120672D01*
Y30524D01*
X123578D01*
Y33930D01*
X120672D01*
Y33326D01*
X119483D01*
Y33969D01*
X116578D01*
Y33326D01*
X115639D01*
X115372Y33826D01*
X115482Y33990D01*
X115574Y34451D01*
X115482Y34912D01*
X115221Y35303D01*
X114830Y35564D01*
X114369Y35656D01*
D02*
G37*
G36*
X33602Y33841D02*
X29940D01*
Y28605D01*
X33602D01*
Y33841D01*
D02*
G37*
G36*
X148224Y38847D02*
X145318D01*
Y35441D01*
X145341D01*
Y33046D01*
X145355Y32974D01*
Y31447D01*
X145464D01*
X145630Y30186D01*
X146171Y28879D01*
X147033Y27756D01*
X148155Y26895D01*
X149462Y26353D01*
X150865Y26169D01*
Y26187D01*
X158441D01*
X158489Y26197D01*
X161886D01*
X162255Y26270D01*
X162567Y26479D01*
X162776Y26791D01*
X162849Y27160D01*
Y28144D01*
X162776Y28513D01*
X162567Y28825D01*
X162255Y29034D01*
X161886Y29107D01*
X158489D01*
X158441Y29117D01*
X150865D01*
X150800Y29104D01*
X149909Y29281D01*
X149099Y29823D01*
X148557Y30633D01*
X148467Y31089D01*
X148761Y31447D01*
X148761D01*
Y34353D01*
X148271D01*
Y37109D01*
X148224Y37349D01*
Y38847D01*
D02*
G37*
G36*
X57814Y29707D02*
X52972D01*
Y25652D01*
X57814D01*
Y29707D01*
D02*
G37*
G36*
X28287D02*
X23444D01*
Y25652D01*
X28287D01*
Y29707D01*
D02*
G37*
G36*
X15157Y31962D02*
X5708D01*
X4783Y31840D01*
X3921Y31483D01*
X3181Y30915D01*
X2613Y30175D01*
X2256Y29313D01*
X2134Y28388D01*
X2256Y27463D01*
X2613Y26601D01*
X3181Y25861D01*
X3921Y25293D01*
X4783Y24936D01*
X5708Y24814D01*
X15157D01*
X16082Y24936D01*
X16944Y25293D01*
X17684Y25861D01*
X18252Y26601D01*
X18609Y27463D01*
X18731Y28388D01*
X18609Y29313D01*
X18252Y30175D01*
X17684Y30915D01*
X16944Y31483D01*
X16082Y31840D01*
X15157Y31962D01*
D02*
G37*
G36*
X46535Y25733D02*
X45867Y25645D01*
X45244Y25387D01*
X44710Y24977D01*
X44299Y24443D01*
X44041Y23820D01*
X43953Y23152D01*
X44041Y22484D01*
X44299Y21861D01*
X44710Y21327D01*
X45244Y20917D01*
X45867Y20659D01*
X46535Y20571D01*
X47203Y20659D01*
X47825Y20917D01*
X48360Y21327D01*
X48770Y21861D01*
X49028Y22484D01*
X49116Y23152D01*
X49028Y23820D01*
X48770Y24443D01*
X48360Y24977D01*
X47825Y25387D01*
X47203Y25645D01*
X46535Y25733D01*
D02*
G37*
G36*
X34724D02*
X34056Y25645D01*
X33433Y25387D01*
X32899Y24977D01*
X32488Y24443D01*
X32230Y23820D01*
X32142Y23152D01*
X32230Y22484D01*
X32488Y21861D01*
X32899Y21327D01*
X33433Y20917D01*
X34056Y20659D01*
X34724Y20571D01*
X35392Y20659D01*
X36014Y20917D01*
X36549Y21327D01*
X36959Y21861D01*
X37217Y22484D01*
X37305Y23152D01*
X37217Y23820D01*
X36959Y24443D01*
X36549Y24977D01*
X36014Y25387D01*
X35392Y25645D01*
X34724Y25733D01*
D02*
G37*
%LPD*%
G36*
X124568Y43875D02*
X122600Y41906D01*
X120632Y43875D01*
Y45300D01*
X124568D01*
Y43875D01*
D02*
G37*
G36*
Y39800D02*
X120632D01*
Y42891D01*
X122600Y40922D01*
X124568Y42891D01*
Y39800D01*
D02*
G37*
D10*
X21653Y55357D02*
X27401Y61105D01*
X31456D01*
X21653Y47483D02*
X23621D01*
X29763Y53624D01*
X31456D01*
X43326Y70475D02*
X44015D01*
D14*
X98624Y63618D02*
Y70620D01*
X112947Y55154D02*
X117600D01*
X115300Y62500D02*
X117200Y64400D01*
X115300Y60000D02*
Y62500D01*
X78302Y55160D02*
X83494D01*
X78200Y55058D02*
X78302Y55160D01*
X76000Y52858D02*
X78200Y55058D01*
X76000Y43000D02*
Y52858D01*
X114391Y59091D02*
X115300Y60000D01*
X112947Y59091D02*
X114391D01*
X83302Y66302D02*
X88967D01*
X88341Y69220D02*
X92719Y64842D01*
X98707Y70620D02*
X100924Y72837D01*
X98624Y70620D02*
X98707D01*
X96111Y79609D02*
X100900Y74820D01*
X100924Y74844D01*
Y72837D02*
Y74844D01*
X94842Y79609D02*
X96111D01*
X94253Y79020D02*
X94842Y79609D01*
X89468Y79020D02*
X94253D01*
X99566Y50239D02*
X106450Y57122D01*
X112947D01*
X96656Y53149D02*
X99566Y50239D01*
X96656Y53149D02*
Y63618D01*
X94842Y70609D02*
Y72397D01*
X88341Y69220D02*
X89100D01*
X84300Y68920D02*
X84600Y69220D01*
X102561Y32683D02*
Y34100D01*
X101620Y31741D02*
X102561Y32683D01*
X101620Y25357D02*
Y31741D01*
X88967Y66302D02*
X90750Y64518D01*
Y63618D02*
Y64518D01*
X92719Y63618D02*
Y64842D01*
X93385Y69530D02*
X94687D01*
Y63618D02*
Y69530D01*
D20*
X116600Y50700D02*
Y51771D01*
X112947Y53185D02*
X115185D01*
X116600Y51771D01*
X106498Y64966D02*
X108031Y66499D01*
X106498Y63618D02*
Y64966D01*
X108031Y66499D02*
Y77409D01*
X108467Y63618D02*
Y64240D01*
X109212Y64985D01*
X102561Y63618D02*
Y68139D01*
X101100Y69600D02*
X102561Y68139D01*
X76341Y61059D02*
X86185D01*
X74200Y63200D02*
X76341Y61059D01*
X69200Y63200D02*
X74200D01*
X73400Y61400D02*
X75709Y59091D01*
X69928Y61400D02*
X73400D01*
X75709Y59091D02*
X86185D01*
X104700Y78325D02*
X107025D01*
X106300Y79900D02*
X106600D01*
X107025Y78325D02*
X110100Y81400D01*
X109299Y82599D02*
X114399D01*
X106600Y79900D02*
X109299Y82599D01*
X110100Y81400D02*
X118300D01*
X93542Y30347D02*
Y32010D01*
X90845Y27649D02*
X93542Y30347D01*
X90845Y24951D02*
Y27649D01*
X88180Y22286D02*
X90845Y24951D01*
X69600Y27900D02*
X71400Y26100D01*
X70368Y41255D02*
X70488Y41374D01*
X86185D01*
X93400Y6920D02*
X93800Y6520D01*
X93400Y6920D02*
Y14000D01*
X95100Y22100D02*
X103300D01*
X89800Y16800D02*
X95100Y22100D01*
X75813Y16800D02*
X89800D01*
X94200Y16300D02*
X94700Y15800D01*
X92700Y16300D02*
X94200D01*
X91000Y14600D02*
X92700Y16300D01*
X86800Y14600D02*
X91000D01*
X73700Y14687D02*
X75813Y16800D01*
X68400Y31168D02*
Y38831D01*
X93700Y6420D02*
X93800Y6520D01*
X77600Y20120D02*
X78800Y21320D01*
X71020Y20120D02*
X77600D01*
X78800Y21320D02*
Y24300D01*
Y24320D01*
X66300Y60300D02*
X69200Y63200D01*
X55013Y60300D02*
X66300D01*
X53141Y58428D02*
X55013Y60300D01*
X55561Y58320D02*
X66847D01*
X53531Y56290D02*
X55561Y58320D01*
X77482Y63618D02*
X88782D01*
X75000Y66100D02*
X77482Y63618D01*
X67900Y66100D02*
X75000D01*
X62400Y69600D02*
X64400Y71600D01*
Y76600D01*
X118300Y81400D02*
X119900D01*
X107800Y91400D02*
X114000D01*
X118300Y87100D01*
Y81400D02*
Y87100D01*
X105100Y89500D02*
X112300D01*
X103700Y90900D02*
X105100Y89500D01*
X103700Y90900D02*
Y96420D01*
X112300Y89500D02*
X115400Y86400D01*
X62400Y67900D02*
Y69600D01*
X42906Y66300D02*
X45906Y63300D01*
X35119Y66300D02*
X42906D01*
X32145Y69274D02*
X35119Y66300D01*
X79800Y80100D02*
X83620Y83920D01*
X79800Y74000D02*
Y80100D01*
X76900Y71100D02*
X79800Y74000D01*
X66100Y71100D02*
X76900D01*
X83620Y83920D02*
X97900D01*
X79400Y84120D02*
X80600D01*
X115078Y21722D02*
X123900Y12900D01*
X115078Y21722D02*
Y21735D01*
X72300Y17100D02*
X74020Y18820D01*
X72300Y15900D02*
Y17100D01*
X70900Y14500D02*
X72300Y15900D01*
X74020Y18820D02*
X78500D01*
X121188Y75900D02*
X122700D01*
X118413Y78675D02*
X121188Y75900D01*
X110967Y78675D02*
X118413D01*
X121300Y77900D02*
X122600D01*
X119200Y80000D02*
X121300Y77900D01*
X110622Y80000D02*
X119200D01*
X121100Y80200D02*
X121300D01*
X119900Y81400D02*
X121100Y80200D01*
X64611Y64481D02*
X67830Y67700D01*
X64062Y65662D02*
X64900Y66500D01*
X53638Y65662D02*
X64062D01*
X53100Y66200D02*
X53638Y65662D01*
X47162Y64481D02*
X64611D01*
X44043Y67600D02*
X47162Y64481D01*
X65100Y63300D02*
X67900Y66100D01*
X45906Y63300D02*
X65100D01*
X67830Y67700D02*
X69600D01*
X64900Y69900D02*
X66100Y71100D01*
X64900Y66500D02*
Y69900D01*
X109212Y76919D02*
X110967Y78675D01*
X109212Y64985D02*
Y76919D01*
X108031Y77409D02*
X110622Y80000D01*
X104500Y68300D02*
X106000D01*
X103125Y69675D02*
X104500Y68300D01*
X103125Y69675D02*
Y75167D01*
X99000Y79293D02*
X103125Y75167D01*
X104700Y68300D02*
X106000D01*
X104530Y68130D02*
X104700Y68300D01*
X104530Y63618D02*
Y68130D01*
X110393Y65661D02*
Y73493D01*
Y65661D02*
X110590Y65464D01*
X115400Y83600D02*
Y86400D01*
X114399Y82599D02*
X115400Y83600D01*
X66847Y58320D02*
X69928Y61400D01*
X53100Y66200D02*
Y67900D01*
X57500Y68500D02*
X59200D01*
X59800Y69100D01*
Y72051D01*
X60733Y72984D01*
X51980Y69900D02*
X54985Y72905D01*
X49400Y69900D02*
X51980D01*
X47700Y68200D02*
X49400Y69900D01*
X47700Y67500D02*
Y68200D01*
X38976Y67600D02*
X44043D01*
X38326Y68250D02*
X38976Y67600D01*
X69800Y18900D02*
X71020Y20120D01*
X69800Y14500D02*
X70900D01*
X65900Y14800D02*
X67000D01*
X65300Y15400D02*
X65900Y14800D01*
X65300Y15400D02*
Y22600D01*
X64996Y22904D02*
X65300Y22600D01*
X63782Y22904D02*
X64996D01*
X62086Y24600D02*
Y28191D01*
Y24600D02*
X63782Y22904D01*
X58144Y41144D02*
X62244D01*
X63464Y42364D01*
Y53861D01*
X43924Y34320D02*
X55600D01*
X56600Y35320D01*
Y39600D01*
X58144Y41144D01*
X83494Y55154D02*
X86185D01*
X48200Y56290D02*
X53531D01*
X40511Y61105D02*
X48109D01*
X46850Y58428D02*
X53141D01*
X45196Y56774D02*
X46850Y58428D01*
X45196Y54451D02*
Y56774D01*
X44369Y53624D02*
X45196Y54451D01*
X40511Y53624D02*
X44369D01*
X103300Y22100D02*
X104920Y23720D01*
Y27207D01*
X114997Y68772D02*
X116867Y70643D01*
X114997Y68643D02*
Y68772D01*
X114536Y68182D02*
X114997Y68643D01*
X114406Y68182D02*
X114536D01*
X112700Y66476D02*
X114406Y68182D01*
X112700Y61306D02*
Y66476D01*
Y61306D02*
X112947Y61059D01*
X116600Y50700D02*
X117148Y50151D01*
X118437D02*
X119448Y49140D01*
X117148Y50151D02*
X118437D01*
X114927Y51217D02*
X114960Y51183D01*
X119448Y47443D02*
Y49140D01*
X117243Y47876D02*
X117637D01*
X110393Y73493D02*
X113000Y76100D01*
X43582Y33978D02*
X43924Y34320D01*
X97900Y83920D02*
X99000Y82820D01*
X110435Y26377D02*
X115078Y21735D01*
X110435Y26377D02*
Y36859D01*
X73700Y5600D02*
Y14687D01*
X106498Y28785D02*
Y36859D01*
X104920Y27207D02*
X106498Y28785D01*
X108464Y25042D02*
X108467Y25045D01*
Y36859D01*
X104802Y29451D02*
Y31423D01*
X104530Y31695D02*
X104802Y31423D01*
X104530Y31695D02*
Y36859D01*
X80966Y21286D02*
Y22286D01*
X78500Y18820D02*
X80966Y21286D01*
Y22286D02*
X88180D01*
X80747Y52483D02*
X83982Y49248D01*
X43582Y31223D02*
Y33978D01*
X73724Y80022D02*
Y96396D01*
X73700Y96420D02*
X73724Y96396D01*
X99000Y79293D02*
Y82820D01*
X80600Y84120D02*
X92900Y96420D01*
X93700D01*
X77558Y82089D02*
Y90278D01*
X83700Y96420D01*
X77558Y81862D02*
X77600Y81820D01*
X153700Y96420D02*
Y102898D01*
X121889Y32463D02*
X122125Y32227D01*
X114094Y32463D02*
X121889D01*
X103700Y96420D02*
Y101857D01*
X83982Y49248D02*
X86185D01*
X93700Y96420D02*
Y101857D01*
X82952Y43585D02*
X83195Y43343D01*
X86185D01*
X73700Y96420D02*
Y101857D01*
X112947Y47280D02*
X115347D01*
X115354Y39373D02*
Y39399D01*
X115347Y39406D02*
X115354Y39399D01*
X112947Y39406D02*
X115347D01*
X115432Y41341D02*
Y41368D01*
X115426Y41374D02*
X115432Y41368D01*
X112947Y41374D02*
X115426D01*
X115432Y43310D02*
Y43336D01*
X115426Y43343D02*
X115432Y43336D01*
X112947Y43343D02*
X115426D01*
X115478Y45311D02*
X115511Y45278D01*
X112947Y45311D02*
X115478D01*
X115872Y49248D02*
X117243Y47876D01*
X112947Y49248D02*
X115872D01*
X112947Y51217D02*
X114927D01*
X114094Y32463D02*
Y34176D01*
X114369Y34451D01*
X27145Y70475D02*
X28857D01*
X30039Y71656D01*
Y82010D01*
X27046D02*
X30039D01*
X43188D01*
X32145Y69274D02*
Y70475D01*
X38326Y68250D02*
Y70475D01*
X44015D02*
X46485Y72944D01*
X49079D01*
X98624Y33903D02*
Y36859D01*
X100593Y34100D02*
Y36859D01*
X100590Y34097D02*
X100593Y34100D01*
X102561D02*
Y36859D01*
X96850Y32640D02*
X97361D01*
X98624Y33903D01*
X96656Y34648D02*
Y36859D01*
X115302Y47325D02*
X115347Y47280D01*
X49487Y31223D02*
X59054D01*
X94687Y33155D02*
Y36859D01*
X93542Y32010D02*
X94687Y33155D01*
X59054Y31223D02*
X62086Y28191D01*
X90750Y33864D02*
Y36859D01*
X88936Y32050D02*
X90750Y33864D01*
X86495Y32050D02*
X88936D01*
X92719Y33391D02*
Y36859D01*
X90511Y31183D02*
X92719Y33391D01*
X90511Y30160D02*
Y31183D01*
X86495Y26144D02*
X90511Y30160D01*
X81137Y26144D02*
X86495D01*
X80940Y26341D02*
X81137Y26144D01*
X80901Y30514D02*
X84960D01*
X86495Y32050D01*
X87881Y35987D02*
X88754Y36859D01*
X82476Y35987D02*
X87881D01*
X80704Y34215D02*
X82476Y35987D01*
X84087Y39406D02*
X86185D01*
X83385Y38703D02*
X84087Y39406D01*
X80664Y38703D02*
X83385D01*
X83943Y57122D02*
X86185D01*
X83936Y57128D02*
X83943Y57122D01*
X84048Y53185D02*
X86185D01*
X84015Y53152D02*
X84048Y53185D01*
X119448Y47443D02*
X121810Y45081D01*
X110435Y63618D02*
X110590Y63772D01*
Y65464D01*
X83700Y96420D02*
Y102898D01*
D26*
X78200Y55058D02*
D03*
Y50342D02*
D03*
X89100Y69220D02*
D03*
Y74220D02*
D03*
X122125Y27227D02*
D03*
Y32227D02*
D03*
X118031Y32266D02*
D03*
Y27266D02*
D03*
X33600Y37462D02*
D03*
Y42178D02*
D03*
X54000Y37562D02*
D03*
Y42278D02*
D03*
X130000Y50242D02*
D03*
Y54958D02*
D03*
X146771Y37144D02*
D03*
Y41861D02*
D03*
X117400Y59958D02*
D03*
Y55242D02*
D03*
X155944Y49719D02*
D03*
Y54719D02*
D03*
X146731Y49955D02*
D03*
Y54955D02*
D03*
X168897Y54538D02*
D03*
Y49821D02*
D03*
D27*
X94842Y79609D02*
D03*
Y70609D02*
D03*
D28*
X100924Y72837D02*
D03*
X105924D02*
D03*
X127800Y69700D02*
D03*
X122800D02*
D03*
X122200Y64400D02*
D03*
X117200D02*
D03*
X125158Y48200D02*
D03*
X120442D02*
D03*
X76224Y26341D02*
D03*
X80940D02*
D03*
X76145Y30514D02*
D03*
X80861D02*
D03*
X80901Y34530D02*
D03*
X76184D02*
D03*
X80861Y38703D02*
D03*
X76145D02*
D03*
X78586Y66302D02*
D03*
X83302D02*
D03*
X101688Y29924D02*
D03*
X96972D02*
D03*
X80940Y22246D02*
D03*
X76224D02*
D03*
X62400Y67900D02*
D03*
X57400D02*
D03*
X53100D02*
D03*
X48100D02*
D03*
X38326Y70475D02*
D03*
X43326D02*
D03*
X27145D02*
D03*
X32145D02*
D03*
X50003Y49176D02*
D03*
X54720D02*
D03*
X126158Y55000D02*
D03*
X121442D02*
D03*
X147058Y32900D02*
D03*
X142342D02*
D03*
X146958Y46000D02*
D03*
X142242D02*
D03*
X164838Y54935D02*
D03*
X160121D02*
D03*
X151987Y55014D02*
D03*
X146987D02*
D03*
D29*
X101620Y25357D02*
D03*
X94520D02*
D03*
D30*
X114094Y27148D02*
D03*
Y32463D02*
D03*
D31*
X31456Y61105D02*
D03*
Y53624D02*
D03*
X40511Y57365D02*
D03*
Y61105D02*
D03*
Y53624D02*
D03*
X31456Y57365D02*
D03*
X49331Y37226D02*
D03*
Y44726D02*
D03*
X39331Y41026D02*
D03*
Y37226D02*
D03*
Y44726D02*
D03*
D32*
X29100Y37470D02*
D03*
Y44570D02*
D03*
X60235Y44615D02*
D03*
Y37515D02*
D03*
X49079Y72944D02*
D03*
Y80045D02*
D03*
X60733Y80084D02*
D03*
Y72984D02*
D03*
X54985Y72905D02*
D03*
Y80005D02*
D03*
D33*
X105709Y85749D02*
D03*
Y18820D02*
D03*
D34*
X101379Y85749D02*
D03*
X110040D02*
D03*
X101379Y18820D02*
D03*
X110040D02*
D03*
D35*
X112835Y85749D02*
D03*
X98584D02*
D03*
X112835Y18820D02*
D03*
X98584D02*
D03*
D36*
X139174Y69600D02*
D03*
X72245Y52284D02*
D03*
D37*
X139174Y73931D02*
D03*
Y65269D02*
D03*
X72245Y56615D02*
D03*
Y47954D02*
D03*
D38*
X139174Y62474D02*
D03*
Y76726D02*
D03*
X72245Y45158D02*
D03*
Y59410D02*
D03*
D39*
X49487Y31223D02*
D03*
X43582D02*
D03*
X31771D02*
D03*
D40*
X55393Y27680D02*
D03*
Y18624D02*
D03*
X25865Y27680D02*
D03*
Y18624D02*
D03*
D41*
X137205Y55000D02*
D03*
X132795D02*
D03*
D42*
X135000Y55000D02*
D03*
D43*
X86495Y26144D02*
D03*
Y32050D02*
D03*
D44*
X112733Y75958D02*
D03*
Y70643D02*
D03*
X116867D02*
D03*
Y75958D02*
D03*
D45*
X88782Y63618D02*
D03*
X90750D02*
D03*
X92719D02*
D03*
X94687D02*
D03*
X96656D02*
D03*
X98624D02*
D03*
X100593D02*
D03*
X102561D02*
D03*
X104530D02*
D03*
X106498D02*
D03*
X108467D02*
D03*
X110435D02*
D03*
X88754Y36859D02*
D03*
X90750D02*
D03*
X92719D02*
D03*
X94687D02*
D03*
X96656D02*
D03*
X98624D02*
D03*
X100593D02*
D03*
X102561D02*
D03*
X104530D02*
D03*
X106498D02*
D03*
X108467D02*
D03*
X110435D02*
D03*
D46*
X86185Y45311D02*
D03*
X112947Y39406D02*
D03*
Y41374D02*
D03*
Y43343D02*
D03*
Y45311D02*
D03*
Y47280D02*
D03*
Y49248D02*
D03*
Y51217D02*
D03*
Y53185D02*
D03*
Y55154D02*
D03*
Y57122D02*
D03*
Y59091D02*
D03*
Y61059D02*
D03*
X86185Y39406D02*
D03*
Y41374D02*
D03*
Y43343D02*
D03*
Y47280D02*
D03*
Y49248D02*
D03*
Y51217D02*
D03*
Y53185D02*
D03*
Y55154D02*
D03*
Y57122D02*
D03*
Y61059D02*
D03*
Y59091D02*
D03*
D47*
X27046Y75711D02*
D03*
X43188D02*
D03*
Y82010D02*
D03*
X27046D02*
D03*
D48*
X21653Y65199D02*
D03*
Y37640D02*
D03*
Y55357D02*
D03*
Y47483D02*
D03*
D49*
X166741Y27652D02*
D03*
D50*
X158441D02*
D03*
D51*
X161141Y21845D02*
D03*
Y33459D02*
D03*
D87*
X146928Y31589D02*
G03*
X150865Y27652I3937J0D01*
G01*
X160121Y54935D02*
G03*
X159931Y55014I-190J-190D01*
G01*
X146771Y45894D02*
G03*
X146727Y45998I-148J0D01*
G01*
X113700Y96420D02*
X121000Y89120D01*
Y83700D02*
Y89120D01*
Y83700D02*
X125300Y79400D01*
Y73500D02*
Y79400D01*
X87973Y19000D02*
X94330Y25357D01*
X82000Y19000D02*
X87973D01*
X58976Y51776D02*
X59400Y52200D01*
X122145Y27207D02*
X124307D01*
X125944Y28844D01*
Y35239D01*
X119391Y67591D02*
X125300Y73500D01*
X117200Y64400D02*
Y66600D01*
X118191Y67591D01*
X119391D01*
X126258Y55000D02*
X132300D01*
X137900D02*
X146973D01*
X164838Y54935D02*
X171335D01*
X117600Y55042D02*
X121400D01*
X43300Y39120D02*
Y43276D01*
X41663Y37483D02*
X43300Y39120D01*
X34176Y37483D02*
X41663D01*
X41653Y44924D02*
X43300Y43276D01*
X146928Y31589D02*
Y32924D01*
X146806Y33046D02*
X146928Y32924D01*
X62734Y53942D02*
X66700D01*
X84500Y78920D02*
X85000D01*
X84300Y79120D02*
X84500Y78920D01*
X84300Y79120D02*
Y81220D01*
Y68920D02*
Y81220D01*
X84600Y69220D02*
X88341D01*
X83302Y67922D02*
X84300Y68920D01*
X83302Y66302D02*
Y67922D01*
X122873Y39420D02*
Y39800D01*
X151987Y55014D02*
X159931D01*
X146771Y41861D02*
Y45894D01*
X146731Y46003D02*
Y49955D01*
X146806Y33046D02*
Y37109D01*
X150865Y27652D02*
X158441D01*
X94330Y25357D02*
X94520D01*
X34172Y37487D02*
X34176Y37483D01*
X21653Y37640D02*
X34019D01*
X31456Y57365D02*
X34606D01*
X35944Y56026D01*
Y47522D02*
Y56026D01*
X38543Y44924D02*
X41653D01*
X35944Y47522D02*
X38543Y44924D01*
X49133Y37483D02*
X52987D01*
X53031Y37526D01*
X49133Y44963D02*
Y48305D01*
X50003Y49176D01*
X49133Y44963D02*
X49802Y45632D01*
X58976D02*
Y51776D01*
X49802Y45632D02*
X58976D01*
X60597D01*
X122873Y38309D02*
X125944Y35239D01*
X122125Y27227D02*
X122145Y27207D01*
D88*
X68345Y31017D02*
D03*
Y27049D02*
D03*
X68400Y38331D02*
D03*
Y42300D02*
D03*
X85500Y79020D02*
D03*
X89468D02*
D03*
X68400Y14300D02*
D03*
Y18269D02*
D03*
X58800Y53700D02*
D03*
X62769D02*
D03*
X122600Y40300D02*
D03*
Y44269D02*
D03*
D89*
X99566Y50239D02*
D03*
D90*
X171335Y54935D02*
X171400Y55000D01*
D91*
X100800Y66700D02*
D03*
X98700Y2700D02*
D03*
X115900Y30200D02*
D03*
X118800Y34800D02*
D03*
X128900Y73000D02*
D03*
X120700Y73200D02*
D03*
X64500Y56700D02*
D03*
X32600Y49100D02*
D03*
X28600Y48700D02*
D03*
X64600Y40900D02*
D03*
X78600Y51900D02*
D03*
X76000Y43000D02*
D03*
X67500Y92600D02*
D03*
X70400Y23000D02*
D03*
X64900Y25200D02*
D03*
X97700Y27520D02*
D03*
X146700Y20400D02*
D03*
X137200Y25100D02*
D03*
X132400Y28400D02*
D03*
X133500Y33300D02*
D03*
X154800Y16620D02*
D03*
X134000Y16100D02*
D03*
X170200Y16200D02*
D03*
X151400Y20620D02*
D03*
X161800Y17500D02*
D03*
X158800Y100720D02*
D03*
X148800Y100420D02*
D03*
X138800Y100520D02*
D03*
X128800Y100620D02*
D03*
X118700Y100320D02*
D03*
X108800Y100720D02*
D03*
X98700D02*
D03*
X78700Y101020D02*
D03*
X170100Y11900D02*
D03*
X158800Y8020D02*
D03*
X148800Y7820D02*
D03*
X138800Y7520D02*
D03*
X128700Y7820D02*
D03*
X118600Y7220D02*
D03*
X108700D02*
D03*
X98700Y7120D02*
D03*
X88700Y7220D02*
D03*
X78600Y7020D02*
D03*
X68500Y7120D02*
D03*
X68400Y100520D02*
D03*
X80600Y43720D02*
D03*
X129600Y25000D02*
D03*
X118031Y14176D02*
D03*
X83700Y13400D02*
D03*
X51464Y20215D02*
D03*
X40381D02*
D03*
X30861Y20349D02*
D03*
X19909Y42380D02*
D03*
X24735Y42250D02*
D03*
X27472Y54117D02*
D03*
Y57376D02*
D03*
X23168Y60502D02*
D03*
X62600Y16700D02*
D03*
X122098Y35467D02*
D03*
X125200Y24800D02*
D03*
X12306Y33727D02*
D03*
X6755Y33660D02*
D03*
Y69254D02*
D03*
X13913Y69388D02*
D03*
X19732Y70258D02*
D03*
X18661Y32125D02*
D03*
X2405Y33928D02*
D03*
X2271Y43097D02*
D03*
X2338Y51928D02*
D03*
X2271Y59821D02*
D03*
Y67046D02*
D03*
X46562Y83707D02*
D03*
X57735Y83841D02*
D03*
X51783Y83640D02*
D03*
X44287Y59018D02*
D03*
X41900Y64400D02*
D03*
X35300Y69800D02*
D03*
X32263Y74211D02*
D03*
X39247Y74754D02*
D03*
X63771Y81762D02*
D03*
X63629Y99117D02*
D03*
X63484Y92231D02*
D03*
X81800Y89720D02*
D03*
X78830Y13514D02*
D03*
X64775Y29987D02*
D03*
X64200Y35900D02*
D03*
X61600Y49800D02*
D03*
X39389Y50518D02*
D03*
X46275Y48798D02*
D03*
X52300Y53500D02*
D03*
X61046Y18534D02*
D03*
X61800Y31520D02*
D03*
X61000Y21420D02*
D03*
X56169Y23412D02*
D03*
X39676Y31010D02*
D03*
X35948Y31156D02*
D03*
X38098Y33018D02*
D03*
X22035Y32589D02*
D03*
X34600Y64600D02*
D03*
X28500Y65600D02*
D03*
X23326Y71455D02*
D03*
X23472Y75617D02*
D03*
X17302Y79487D02*
D03*
X20460Y83361D02*
D03*
X13287Y83215D02*
D03*
X7696Y83073D02*
D03*
X2389Y78628D02*
D03*
X11853Y22550D02*
D03*
X20747Y24270D02*
D03*
X21464Y19825D02*
D03*
X15294Y20113D02*
D03*
X6976Y20254D02*
D03*
X3822Y23554D02*
D03*
X162873Y70310D02*
D03*
X156562Y70022D02*
D03*
X160149Y76187D02*
D03*
X165027Y63786D02*
D03*
X159861D02*
D03*
X153696Y63357D02*
D03*
X164594Y76908D02*
D03*
X155275Y76333D02*
D03*
X160676Y41180D02*
D03*
X155602Y38164D02*
D03*
X165338Y38711D02*
D03*
X165247Y44837D02*
D03*
X155511Y44471D02*
D03*
X138787Y27994D02*
D03*
X128400Y28000D02*
D03*
X136000Y37600D02*
D03*
X131200Y38802D02*
D03*
X135495Y42593D02*
D03*
X127000Y48100D02*
D03*
X143858Y39581D02*
D03*
X154917Y32270D02*
D03*
X151720Y30577D02*
D03*
X150550Y25014D02*
D03*
X145590Y27062D02*
D03*
X143586Y29392D02*
D03*
X126129Y41180D02*
D03*
X143200Y57600D02*
D03*
X141298Y52790D02*
D03*
X143858Y49132D02*
D03*
X143952Y35880D02*
D03*
X144086Y42550D02*
D03*
X150484Y33046D02*
D03*
X150350Y36475D02*
D03*
X150578Y43786D02*
D03*
X165976Y51739D02*
D03*
X159078Y51872D02*
D03*
X162732Y48904D02*
D03*
X150531Y47577D02*
D03*
X152405Y51601D02*
D03*
X135100Y52600D02*
D03*
X126100Y52000D02*
D03*
X132400Y52300D02*
D03*
X147330Y63483D02*
D03*
X142078Y63436D02*
D03*
X136180Y63798D02*
D03*
X119100Y59600D02*
D03*
X152200Y72000D02*
D03*
X149600Y78500D02*
D03*
X75800Y91000D02*
D03*
X135000Y60700D02*
D03*
X141500Y78100D02*
D03*
X151535Y76365D02*
D03*
X157570Y87790D02*
D03*
X149846Y84042D02*
D03*
X146968Y80203D02*
D03*
X170133Y83038D02*
D03*
X169952Y87471D02*
D03*
X170043Y100286D02*
D03*
X169814Y7317D02*
D03*
X169905Y21258D02*
D03*
X169633Y25097D02*
D03*
X169861Y30672D02*
D03*
X169771Y37160D02*
D03*
X169495Y41227D02*
D03*
Y44699D02*
D03*
Y79062D02*
D03*
X169405Y75404D02*
D03*
X169495Y71660D02*
D03*
Y67684D02*
D03*
X169586Y62979D02*
D03*
X168901Y58408D02*
D03*
X162456Y58455D02*
D03*
X156153D02*
D03*
X152861Y58317D02*
D03*
X146300Y58200D02*
D03*
X139400Y57700D02*
D03*
X128100Y58100D02*
D03*
X130100Y65900D02*
D03*
X81500Y79100D02*
D03*
X76800Y74000D02*
D03*
X98125Y74939D02*
D03*
X91672Y75077D02*
D03*
X86661Y71609D02*
D03*
X100800Y79900D02*
D03*
X118795Y95010D02*
D03*
X98850Y89463D02*
D03*
X98900Y94100D02*
D03*
X124300Y89600D02*
D03*
X128900Y87520D02*
D03*
X130948Y85821D02*
D03*
X139600Y87620D02*
D03*
X139295Y84105D02*
D03*
X148424Y88774D02*
D03*
X75700Y68300D02*
D03*
X89845Y89149D02*
D03*
X78900Y70100D02*
D03*
X50800Y61000D02*
D03*
X47700Y53500D02*
D03*
X56300Y55200D02*
D03*
X57900Y76600D02*
D03*
X71881Y45581D02*
D03*
X69594Y47782D02*
D03*
X53100Y61500D02*
D03*
X69224Y74148D02*
D03*
X128800Y34800D02*
D03*
X127298Y37884D02*
D03*
X153228Y24621D02*
D03*
X147952Y25290D02*
D03*
X141023Y25605D02*
D03*
X133500Y25000D02*
D03*
X128800Y31800D02*
D03*
X166400Y13000D02*
D03*
X151400Y15700D02*
D03*
X166200Y17220D02*
D03*
X135700Y30800D02*
D03*
X148800Y18200D02*
D03*
X159100Y15300D02*
D03*
X143900Y22900D02*
D03*
X138484Y13743D02*
D03*
X128842Y13597D02*
D03*
X63743Y13636D02*
D03*
X63440Y21329D02*
D03*
X63700Y9800D02*
D03*
X126023Y14648D02*
D03*
X109345Y16549D02*
D03*
X101745Y16449D02*
D03*
X108345Y10049D02*
D03*
X106600Y22700D02*
D03*
X107665Y47120D02*
D03*
X101472D02*
D03*
X95050Y47042D02*
D03*
X100979Y56183D02*
D03*
X96602Y55994D02*
D03*
X92106Y56372D02*
D03*
X104495Y55691D02*
D03*
X101889Y50857D02*
D03*
X97243Y51085D02*
D03*
X94484Y60073D02*
D03*
X98527D02*
D03*
X89247Y39810D02*
D03*
X109704Y60376D02*
D03*
X108609Y50857D02*
D03*
X104570Y60188D02*
D03*
X93500Y50720D02*
D03*
X89400Y54220D02*
D03*
X89539Y60148D02*
D03*
X117945Y10249D02*
D03*
X75500Y56100D02*
D03*
X89600Y72620D02*
D03*
X78600Y67820D02*
D03*
X129900Y48400D02*
D03*
X164900Y20200D02*
D03*
X161500Y20300D02*
D03*
X157600Y20200D02*
D03*
X157519Y23518D02*
D03*
X161535Y23479D02*
D03*
X164763D02*
D03*
X165196Y27652D02*
D03*
X168346D02*
D03*
X164684Y31865D02*
D03*
X161102D02*
D03*
X157361Y31786D02*
D03*
X164763Y35132D02*
D03*
X161102Y35054D02*
D03*
X157401Y35014D02*
D03*
X140235Y33046D02*
D03*
X140117Y46038D02*
D03*
X155905Y47849D02*
D03*
X168897Y48046D02*
D03*
X96692Y65435D02*
D03*
X79290Y34412D02*
D03*
Y38585D02*
D03*
X74251Y38743D02*
D03*
X74330Y34648D02*
D03*
X74409Y30514D02*
D03*
X74369Y26459D02*
D03*
X74527Y22325D02*
D03*
X114842Y57089D02*
D03*
X108700Y94200D02*
D03*
X76800Y78900D02*
D03*
X56456Y49057D02*
D03*
X36417Y41262D02*
D03*
X61377Y39569D02*
D03*
X59094D02*
D03*
X51810Y42207D02*
D03*
X34172Y40357D02*
D03*
X40511Y41184D02*
D03*
X29527Y42562D02*
D03*
X118031Y25593D02*
D03*
X135000Y57500D02*
D03*
X127000Y66800D02*
D03*
X124000Y64400D02*
D03*
X118400Y63100D02*
D03*
X104900Y74600D02*
D03*
X114400Y65800D02*
D03*
X104700Y78300D02*
D03*
X106300Y79900D02*
D03*
X71400Y26100D02*
D03*
X93400Y14000D02*
D03*
X94700Y16200D02*
D03*
X86800Y14600D02*
D03*
X68300Y33400D02*
D03*
X78800Y24300D02*
D03*
X82000Y19000D02*
D03*
X64400Y76600D02*
D03*
X107800Y91400D02*
D03*
X123900Y12900D02*
D03*
X122700Y75900D02*
D03*
X122600Y77900D02*
D03*
X121300Y80200D02*
D03*
X106000Y68300D02*
D03*
X101100Y69600D02*
D03*
X122900Y68300D02*
D03*
X48109Y61105D02*
D03*
X48200Y56290D02*
D03*
X69600Y67700D02*
D03*
X66700Y53942D02*
D03*
X114960Y51183D02*
D03*
X117637Y47876D02*
D03*
X108464Y25042D02*
D03*
X104802Y29451D02*
D03*
X80747Y52483D02*
D03*
X73724Y80022D02*
D03*
X84300Y81220D02*
D03*
X79400Y84120D02*
D03*
X77600Y81820D02*
D03*
X122900Y39420D02*
D03*
X114094Y28546D02*
D03*
X82952Y43585D02*
D03*
X115354Y39373D02*
D03*
X115432Y41341D02*
D03*
Y43310D02*
D03*
X115511Y45278D02*
D03*
X114369Y34451D02*
D03*
X100590Y34097D02*
D03*
X96653Y34648D02*
D03*
X96850Y32640D02*
D03*
X115302Y47325D02*
D03*
X83936Y57128D02*
D03*
X84015Y53152D02*
D03*
D92*
X46535Y23152D02*
D03*
X34724D02*
D03*
D93*
X10432Y74451D02*
D03*
Y28388D02*
D03*
D94*
X11023Y60278D02*
D03*
Y42562D02*
D03*
D95*
X73700Y3525D02*
D03*
X163700Y96420D02*
D03*
Y6420D02*
D03*
X83700Y3525D02*
D03*
X93700D02*
D03*
X103700D02*
D03*
X113700D02*
D03*
X123700Y3583D02*
D03*
X133700Y3525D02*
D03*
X143700D02*
D03*
X153700D02*
D03*
X163700D02*
D03*
X73700Y99354D02*
D03*
X83700D02*
D03*
X93700D02*
D03*
X103700D02*
D03*
X113700Y99296D02*
D03*
X123700Y99354D02*
D03*
X133700D02*
D03*
X143700D02*
D03*
X153700D02*
D03*
X163700D02*
D03*
D96*
X73700Y96420D02*
D03*
X83700D02*
D03*
X93700D02*
D03*
X103700D02*
D03*
X113700D02*
D03*
X133700D02*
D03*
X143700D02*
D03*
X153700D02*
D03*
X123700D02*
D03*
X73700Y6420D02*
D03*
X83700D02*
D03*
X93700D02*
D03*
X103700D02*
D03*
X113700D02*
D03*
X133700D02*
D03*
X143700D02*
D03*
X153700D02*
D03*
X123700D02*
D03*
M02*
