G04*
G04 #@! TF.GenerationSoftware,Altium Limited,Altium Designer,18.0.12 (696)*
G04*
G04 Layer_Color=255*
%FSLAX25Y25*%
%MOIN*%
G70*
G01*
G75*
%ADD91C,0.01575*%
%ADD92C,0.04331*%
%ADD93O,0.15748X0.06299*%
%ADD94C,0.04724*%
%ADD95R,0.07087X0.07087*%
%ADD96C,0.07087*%
%ADD97R,0.03150X0.05906*%
D91*
X100800Y66700D02*
D03*
X98700Y2700D02*
D03*
X115900Y30200D02*
D03*
X118800Y34800D02*
D03*
X128900Y73000D02*
D03*
X120700Y73200D02*
D03*
X64500Y56700D02*
D03*
X32600Y49100D02*
D03*
X28600Y48700D02*
D03*
X64600Y40900D02*
D03*
X78600Y51900D02*
D03*
X76000Y43000D02*
D03*
X67500Y92600D02*
D03*
X70400Y23000D02*
D03*
X64900Y25200D02*
D03*
X97700Y27520D02*
D03*
X146700Y20400D02*
D03*
X137200Y25100D02*
D03*
X132400Y28400D02*
D03*
X133500Y33300D02*
D03*
X154800Y16620D02*
D03*
X134000Y16100D02*
D03*
X170200Y16200D02*
D03*
X151400Y20620D02*
D03*
X161800Y17500D02*
D03*
X158800Y100720D02*
D03*
X148800Y100420D02*
D03*
X138800Y100520D02*
D03*
X128800Y100620D02*
D03*
X118700Y100320D02*
D03*
X108800Y100720D02*
D03*
X98700D02*
D03*
X78700Y101020D02*
D03*
X170100Y11900D02*
D03*
X158800Y8020D02*
D03*
X148800Y7820D02*
D03*
X138800Y7520D02*
D03*
X128700Y7820D02*
D03*
X118600Y7220D02*
D03*
X108700D02*
D03*
X98700Y7120D02*
D03*
X88700Y7220D02*
D03*
X78600Y7020D02*
D03*
X68500Y7120D02*
D03*
X68400Y100520D02*
D03*
X80600Y43720D02*
D03*
X129600Y25000D02*
D03*
X118031Y14176D02*
D03*
X83700Y13400D02*
D03*
X51464Y20215D02*
D03*
X40381D02*
D03*
X30861Y20349D02*
D03*
X19909Y42380D02*
D03*
X24735Y42250D02*
D03*
X27472Y54117D02*
D03*
Y57376D02*
D03*
X23168Y60502D02*
D03*
X62600Y16700D02*
D03*
X122098Y35467D02*
D03*
X125200Y24800D02*
D03*
X12306Y33727D02*
D03*
X6755Y33660D02*
D03*
Y69254D02*
D03*
X13913Y69388D02*
D03*
X19732Y70258D02*
D03*
X18661Y32125D02*
D03*
X2405Y33928D02*
D03*
X2271Y43097D02*
D03*
X2338Y51928D02*
D03*
X2271Y59821D02*
D03*
Y67046D02*
D03*
X46562Y83707D02*
D03*
X57735Y83841D02*
D03*
X51783Y83640D02*
D03*
X44287Y59018D02*
D03*
X41900Y64400D02*
D03*
X35300Y69800D02*
D03*
X32263Y74211D02*
D03*
X39247Y74754D02*
D03*
X63771Y81762D02*
D03*
X63629Y99117D02*
D03*
X63484Y92231D02*
D03*
X81800Y89720D02*
D03*
X78830Y13514D02*
D03*
X64775Y29987D02*
D03*
X64200Y35900D02*
D03*
X61600Y49800D02*
D03*
X39389Y50518D02*
D03*
X46275Y48798D02*
D03*
X52300Y53500D02*
D03*
X61046Y18534D02*
D03*
X61800Y31520D02*
D03*
X61000Y21420D02*
D03*
X56169Y23412D02*
D03*
X39676Y31010D02*
D03*
X35948Y31156D02*
D03*
X38098Y33018D02*
D03*
X22035Y32589D02*
D03*
X34600Y64600D02*
D03*
X28500Y65600D02*
D03*
X23326Y71455D02*
D03*
X23472Y75617D02*
D03*
X17302Y79487D02*
D03*
X20460Y83361D02*
D03*
X13287Y83215D02*
D03*
X7696Y83073D02*
D03*
X2389Y78628D02*
D03*
X11853Y22550D02*
D03*
X20747Y24270D02*
D03*
X21464Y19825D02*
D03*
X15294Y20113D02*
D03*
X6976Y20254D02*
D03*
X3822Y23554D02*
D03*
X162873Y70310D02*
D03*
X156562Y70022D02*
D03*
X160149Y76187D02*
D03*
X165027Y63786D02*
D03*
X159861D02*
D03*
X153696Y63357D02*
D03*
X164594Y76908D02*
D03*
X155275Y76333D02*
D03*
X160676Y41180D02*
D03*
X155602Y38164D02*
D03*
X165338Y38711D02*
D03*
X165247Y44837D02*
D03*
X155511Y44471D02*
D03*
X138787Y27994D02*
D03*
X128400Y28000D02*
D03*
X136000Y37600D02*
D03*
X131200Y38802D02*
D03*
X135495Y42593D02*
D03*
X127000Y48100D02*
D03*
X143858Y39581D02*
D03*
X154917Y32270D02*
D03*
X151720Y30577D02*
D03*
X150550Y25014D02*
D03*
X145590Y27062D02*
D03*
X143586Y29392D02*
D03*
X126129Y41180D02*
D03*
X143200Y57600D02*
D03*
X141298Y52790D02*
D03*
X143858Y49132D02*
D03*
X143952Y35880D02*
D03*
X144086Y42550D02*
D03*
X150484Y33046D02*
D03*
X150350Y36475D02*
D03*
X150578Y43786D02*
D03*
X165976Y51739D02*
D03*
X159078Y51872D02*
D03*
X162732Y48904D02*
D03*
X150531Y47577D02*
D03*
X152405Y51601D02*
D03*
X135100Y52600D02*
D03*
X126100Y52000D02*
D03*
X132400Y52300D02*
D03*
X147330Y63483D02*
D03*
X142078Y63436D02*
D03*
X136180Y63798D02*
D03*
X119100Y59600D02*
D03*
X152200Y72000D02*
D03*
X149600Y78500D02*
D03*
X75800Y91000D02*
D03*
X135000Y60700D02*
D03*
X141500Y78100D02*
D03*
X151535Y76365D02*
D03*
X157570Y87790D02*
D03*
X149846Y84042D02*
D03*
X146968Y80203D02*
D03*
X170133Y83038D02*
D03*
X169952Y87471D02*
D03*
X170043Y100286D02*
D03*
X169814Y7317D02*
D03*
X169905Y21258D02*
D03*
X169633Y25097D02*
D03*
X169861Y30672D02*
D03*
X169771Y37160D02*
D03*
X169495Y41227D02*
D03*
Y44699D02*
D03*
Y79062D02*
D03*
X169405Y75404D02*
D03*
X169495Y71660D02*
D03*
Y67684D02*
D03*
X169586Y62979D02*
D03*
X168901Y58408D02*
D03*
X162456Y58455D02*
D03*
X156153D02*
D03*
X152861Y58317D02*
D03*
X146300Y58200D02*
D03*
X139400Y57700D02*
D03*
X128100Y58100D02*
D03*
X130100Y65900D02*
D03*
X81500Y79100D02*
D03*
X76800Y74000D02*
D03*
X98125Y74939D02*
D03*
X91672Y75077D02*
D03*
X86661Y71609D02*
D03*
X100800Y79900D02*
D03*
X118795Y95010D02*
D03*
X98850Y89463D02*
D03*
X98900Y94100D02*
D03*
X124300Y89600D02*
D03*
X128900Y87520D02*
D03*
X130948Y85821D02*
D03*
X139600Y87620D02*
D03*
X139295Y84105D02*
D03*
X148424Y88774D02*
D03*
X75700Y68300D02*
D03*
X89845Y89149D02*
D03*
X78900Y70100D02*
D03*
X50800Y61000D02*
D03*
X47700Y53500D02*
D03*
X56300Y55200D02*
D03*
X57900Y76600D02*
D03*
X71881Y45581D02*
D03*
X69594Y47782D02*
D03*
X53100Y61500D02*
D03*
X69224Y74148D02*
D03*
X128800Y34800D02*
D03*
X127298Y37884D02*
D03*
X153228Y24621D02*
D03*
X147952Y25290D02*
D03*
X141023Y25605D02*
D03*
X133500Y25000D02*
D03*
X128800Y31800D02*
D03*
X166400Y13000D02*
D03*
X151400Y15700D02*
D03*
X166200Y17220D02*
D03*
X135700Y30800D02*
D03*
X148800Y18200D02*
D03*
X159100Y15300D02*
D03*
X143900Y22900D02*
D03*
X138484Y13743D02*
D03*
X128842Y13597D02*
D03*
X63743Y13636D02*
D03*
X63440Y21329D02*
D03*
X63700Y9800D02*
D03*
X126023Y14648D02*
D03*
X109345Y16549D02*
D03*
X101745Y16449D02*
D03*
X108345Y10049D02*
D03*
X106600Y22700D02*
D03*
X107665Y47120D02*
D03*
X101472D02*
D03*
X95050Y47042D02*
D03*
X100979Y56183D02*
D03*
X96602Y55994D02*
D03*
X92106Y56372D02*
D03*
X104495Y55691D02*
D03*
X101889Y50857D02*
D03*
X97243Y51085D02*
D03*
X94484Y60073D02*
D03*
X98527D02*
D03*
X89247Y39810D02*
D03*
X109704Y60376D02*
D03*
X108609Y50857D02*
D03*
X104570Y60188D02*
D03*
X93500Y50720D02*
D03*
X89400Y54220D02*
D03*
X89539Y60148D02*
D03*
X117945Y10249D02*
D03*
X75500Y56100D02*
D03*
X89600Y72620D02*
D03*
X78600Y67820D02*
D03*
X129900Y48400D02*
D03*
X164900Y20200D02*
D03*
X161500Y20300D02*
D03*
X157600Y20200D02*
D03*
X157519Y23518D02*
D03*
X161535Y23479D02*
D03*
X164763D02*
D03*
X165196Y27652D02*
D03*
X168346D02*
D03*
X164684Y31865D02*
D03*
X161102D02*
D03*
X157361Y31786D02*
D03*
X164763Y35132D02*
D03*
X161102Y35054D02*
D03*
X157401Y35014D02*
D03*
X140235Y33046D02*
D03*
X140117Y46038D02*
D03*
X155905Y47849D02*
D03*
X168897Y48046D02*
D03*
X96692Y65435D02*
D03*
X79290Y34412D02*
D03*
Y38585D02*
D03*
X74251Y38743D02*
D03*
X74330Y34648D02*
D03*
X74409Y30514D02*
D03*
X74369Y26459D02*
D03*
X74527Y22325D02*
D03*
X114842Y57089D02*
D03*
X108700Y94200D02*
D03*
X76800Y78900D02*
D03*
X56456Y49057D02*
D03*
X36417Y41262D02*
D03*
X61377Y39569D02*
D03*
X59094D02*
D03*
X51810Y42207D02*
D03*
X34172Y40357D02*
D03*
X40511Y41184D02*
D03*
X29527Y42562D02*
D03*
X118031Y25593D02*
D03*
X135000Y57500D02*
D03*
X127000Y66800D02*
D03*
X124000Y64400D02*
D03*
X118400Y63100D02*
D03*
X104900Y74600D02*
D03*
X114400Y65800D02*
D03*
D92*
X46535Y23152D02*
D03*
X34724D02*
D03*
D93*
X10432Y74451D02*
D03*
Y28388D02*
D03*
D94*
X11023Y60278D02*
D03*
Y42562D02*
D03*
D95*
X73700Y3525D02*
D03*
X163700Y96420D02*
D03*
Y6420D02*
D03*
X83700Y3525D02*
D03*
X93700D02*
D03*
X103700D02*
D03*
X113700D02*
D03*
X123700Y3583D02*
D03*
X133700Y3525D02*
D03*
X143700D02*
D03*
X153700D02*
D03*
X163700D02*
D03*
X73700Y99354D02*
D03*
X83700D02*
D03*
X93700D02*
D03*
X103700D02*
D03*
X113700Y99296D02*
D03*
X123700Y99354D02*
D03*
X133700D02*
D03*
X143700D02*
D03*
X153700D02*
D03*
X163700D02*
D03*
D96*
X73700Y96420D02*
D03*
X83700D02*
D03*
X93700D02*
D03*
X103700D02*
D03*
X113700D02*
D03*
X133700D02*
D03*
X143700D02*
D03*
X153700D02*
D03*
X123700D02*
D03*
X73700Y6420D02*
D03*
X83700D02*
D03*
X93700D02*
D03*
X103700D02*
D03*
X113700D02*
D03*
X133700D02*
D03*
X143700D02*
D03*
X153700D02*
D03*
X123700D02*
D03*
D97*
X132800Y72100D02*
D03*
X137800D02*
D03*
X142800D02*
D03*
X147800D02*
D03*
M02*
