G04*
G04 #@! TF.GenerationSoftware,Altium Limited,Altium Designer,18.0.12 (696)*
G04*
G04 Layer_Color=32896*
%FSLAX25Y25*%
%MOIN*%
G70*
G01*
G75*
%ADD12C,0.00500*%
%ADD15C,0.00394*%
%ADD16C,0.01000*%
%ADD20C,0.00787*%
%ADD22C,0.00402*%
%ADD23C,0.00472*%
%ADD90C,0.01575*%
%ADD99C,0.00800*%
%ADD100R,0.00600X0.00600*%
%ADD101R,0.00700X0.01200*%
%ADD102R,0.01300X0.00400*%
%ADD103R,0.35433X0.01968*%
%ADD104R,0.01968X0.23622*%
G36*
X43032Y68664D02*
X48052Y65908D01*
X51989Y61774D01*
X53564Y57443D01*
X53957Y52621D01*
X53170Y47798D01*
X49922Y42384D01*
X47066Y40033D01*
X47068Y40022D01*
X47032Y40004D01*
X46576Y39628D01*
Y39776D01*
X43524Y38250D01*
X38898Y37266D01*
X34961Y37660D01*
X29154Y40121D01*
X25906Y43073D01*
X24445Y45534D01*
X24233D01*
X21772Y52916D01*
X22352D01*
X22265Y55967D01*
X24135Y61479D01*
X26989Y64924D01*
X28761Y66498D01*
X28662Y66400D01*
X29351Y65908D01*
X28564Y63250D01*
X29450Y60199D01*
X29942Y59313D01*
X29647Y59018D01*
X27973Y58821D01*
X25906Y57247D01*
X25316Y54294D01*
X25852Y52916D01*
X25906D01*
X28072Y50947D01*
X31418Y51439D01*
X32698Y53014D01*
X34272Y52817D01*
X34863Y49865D01*
X36241Y48388D01*
X39489Y48093D01*
X41654Y49668D01*
X42343Y52621D01*
X41261Y54884D01*
X41654Y55573D01*
X43032Y55967D01*
X46182Y59412D01*
X46576Y63447D01*
X44607Y64727D01*
X41359Y65219D01*
X39981Y64235D01*
X38209Y65121D01*
X37521Y64530D01*
X36930Y64727D01*
X36143Y66892D01*
X34076Y68664D01*
X38406Y69254D01*
X43032Y68664D01*
D02*
G37*
G36*
X166787Y82618D02*
X134339D01*
Y89427D01*
X166787D01*
Y82618D01*
D02*
G37*
%LPC*%
G36*
X35751Y45248D02*
X33278D01*
X34490D01*
X34446Y45243D01*
X34397D01*
X34343Y45237D01*
X34282Y45232D01*
X34217Y45221D01*
X34075Y45194D01*
X33939Y45156D01*
X33802Y45101D01*
X33747Y45068D01*
X33693Y45030D01*
X33687D01*
X33682Y45019D01*
X33649Y44992D01*
X33611Y44943D01*
X33562Y44877D01*
X33513Y44801D01*
X33469Y44708D01*
X33442Y44599D01*
X33436Y44539D01*
X33431Y44478D01*
Y44467D01*
Y44446D01*
X33436Y44407D01*
X33442Y44364D01*
X33458Y44309D01*
X33474Y44249D01*
X33502Y44189D01*
X33540Y44129D01*
X33545Y44124D01*
X33562Y44102D01*
X33584Y44074D01*
X33616Y44036D01*
X33660Y43998D01*
X33715Y43949D01*
X33780Y43900D01*
X33857Y43856D01*
X33851D01*
X33829Y43851D01*
X33797Y43840D01*
X33758Y43829D01*
X33676Y43796D01*
X33633Y43780D01*
X33595Y43758D01*
X33589Y43752D01*
X33573Y43741D01*
X33545Y43720D01*
X33513Y43692D01*
X33474Y43659D01*
X33436Y43616D01*
X33398Y43567D01*
X33365Y43512D01*
X33360Y43507D01*
X33349Y43485D01*
X33338Y43452D01*
X33321Y43414D01*
X33305Y43359D01*
X33289Y43299D01*
X33283Y43234D01*
X33278Y43157D01*
Y43113D01*
X33283Y43064D01*
X33294Y42999D01*
X33311Y42917D01*
X33338Y42835D01*
X33371Y42748D01*
X33420Y42655D01*
X33425Y42644D01*
X33447Y42617D01*
X33474Y42573D01*
X33518Y42518D01*
X33578Y42458D01*
X33644Y42398D01*
X33720Y42338D01*
X33813Y42284D01*
X33818D01*
X33824Y42278D01*
X33840Y42273D01*
X33862Y42262D01*
X33884Y42256D01*
X33917Y42245D01*
X33993Y42224D01*
X34091Y42196D01*
X34206Y42180D01*
X34343Y42163D01*
X34490Y42158D01*
X34695D01*
X34556D01*
X34588Y42163D01*
X34632D01*
X34719Y42169D01*
X34823Y42180D01*
X34932Y42196D01*
X35036Y42218D01*
X35134Y42251D01*
X35145Y42256D01*
X35173Y42267D01*
X35216Y42289D01*
X35271Y42322D01*
X35331Y42360D01*
X35396Y42409D01*
X35462Y42464D01*
X35522Y42529D01*
X35527Y42540D01*
X35549Y42562D01*
X35577Y42600D01*
X35609Y42655D01*
X35647Y42726D01*
X35680Y42802D01*
X35719Y42895D01*
X35751Y42993D01*
X34921Y43108D01*
Y43097D01*
X34910Y43070D01*
X34900Y43026D01*
X34883Y42972D01*
X34839Y42857D01*
X34807Y42802D01*
X34774Y42759D01*
X34768Y42753D01*
X34758Y42742D01*
X34730Y42731D01*
X34703Y42715D01*
X34665Y42693D01*
X34616Y42682D01*
X34566Y42671D01*
X34506Y42666D01*
X34479D01*
X34446Y42671D01*
X34408Y42682D01*
X34364Y42693D01*
X34315Y42715D01*
X34272Y42748D01*
X34228Y42786D01*
X34222Y42791D01*
X34212Y42808D01*
X34190Y42835D01*
X34168Y42873D01*
X34151Y42917D01*
X34130Y42977D01*
X34119Y43042D01*
X34113Y43113D01*
Y43124D01*
Y43146D01*
X34119Y43184D01*
X34124Y43234D01*
X34141Y43283D01*
X34157Y43337D01*
X34184Y43387D01*
X34222Y43436D01*
X34228Y43441D01*
X34244Y43452D01*
X34266Y43474D01*
X34299Y43496D01*
X34343Y43512D01*
X34392Y43534D01*
X34452Y43545D01*
X34517Y43550D01*
X34556D01*
X34588Y43545D01*
X34626Y43539D01*
X34670Y43528D01*
X34725Y43518D01*
X34785Y43501D01*
X34747Y44091D01*
X34708D01*
X34670Y44085D01*
X34610D01*
X34577Y44091D01*
X34539Y44096D01*
X34501Y44107D01*
X34452Y44129D01*
X34408Y44151D01*
X34364Y44184D01*
X34359Y44189D01*
X34348Y44200D01*
X34326Y44222D01*
X34304Y44255D01*
X34288Y44287D01*
X34266Y44331D01*
X34255Y44380D01*
X34250Y44429D01*
Y44435D01*
Y44451D01*
X34255Y44478D01*
X34261Y44506D01*
X34272Y44544D01*
X34282Y44577D01*
X34304Y44615D01*
X34332Y44648D01*
X34337Y44653D01*
X34348Y44659D01*
X34364Y44675D01*
X34392Y44691D01*
X34424Y44702D01*
X34463Y44719D01*
X34506Y44724D01*
X34561Y44730D01*
X34583D01*
X34610Y44724D01*
X34648Y44719D01*
X34686Y44708D01*
X34725Y44691D01*
X34763Y44670D01*
X34801Y44637D01*
X34807Y44631D01*
X34818Y44620D01*
X34828Y44599D01*
X34850Y44566D01*
X34867Y44522D01*
X34888Y44473D01*
X34905Y44407D01*
X34921Y44331D01*
X35708Y44467D01*
Y44473D01*
X35702Y44484D01*
X35697Y44506D01*
X35691Y44528D01*
X35675Y44560D01*
X35664Y44599D01*
X35626Y44681D01*
X35577Y44773D01*
X35511Y44872D01*
X35435Y44964D01*
X35336Y45046D01*
X35331D01*
X35325Y45057D01*
X35309Y45063D01*
X35282Y45079D01*
X35254Y45095D01*
X35222Y45112D01*
X35178Y45128D01*
X35129Y45150D01*
X35080Y45166D01*
X35020Y45183D01*
X34954Y45199D01*
X34883Y45216D01*
X34807Y45232D01*
X34725Y45237D01*
X34545Y45248D01*
X35751D01*
D01*
D02*
G37*
G36*
X31733D02*
X30499D01*
X31662D01*
X31624Y45243D01*
X31580D01*
X31482Y45237D01*
X31372Y45221D01*
X31258Y45205D01*
X31148Y45177D01*
X31050Y45145D01*
X31045D01*
X31039Y45139D01*
X31012Y45128D01*
X30963Y45101D01*
X30908Y45068D01*
X30848Y45024D01*
X30783Y44975D01*
X30717Y44910D01*
X30663Y44839D01*
X30657Y44828D01*
X30641Y44801D01*
X30619Y44762D01*
X30591Y44702D01*
X30564Y44637D01*
X30542Y44555D01*
X30526Y44467D01*
X30520Y44375D01*
Y44369D01*
Y44364D01*
Y44347D01*
Y44331D01*
X30531Y44276D01*
X30542Y44205D01*
X30559Y44129D01*
X30591Y44036D01*
X30630Y43943D01*
X30684Y43851D01*
X30690Y43840D01*
X30717Y43807D01*
X30755Y43758D01*
X30815Y43692D01*
X30897Y43610D01*
X30946Y43567D01*
X30996Y43518D01*
X31056Y43468D01*
X31121Y43414D01*
X31192Y43359D01*
X31269Y43305D01*
X31280Y43299D01*
X31307Y43277D01*
X31350Y43244D01*
X31405Y43206D01*
X31460Y43168D01*
X31520Y43130D01*
X31569Y43092D01*
X31607Y43059D01*
X31613Y43053D01*
X31624Y43048D01*
X31640Y43032D01*
X31662Y43015D01*
X31722Y42955D01*
X31804Y42884D01*
X30499D01*
Y42207D01*
X32999D01*
Y42224D01*
X32994Y42245D01*
X32989Y42267D01*
X32983Y42300D01*
X32978Y42338D01*
X32950Y42431D01*
X32917Y42535D01*
X32874Y42649D01*
X32814Y42775D01*
X32743Y42895D01*
X32737Y42900D01*
X32732Y42911D01*
X32721Y42928D01*
X32699Y42955D01*
X32672Y42982D01*
X32645Y43021D01*
X32601Y43064D01*
X32557Y43113D01*
X32508Y43168D01*
X32448Y43228D01*
X32382Y43288D01*
X32306Y43359D01*
X32224Y43430D01*
X32131Y43507D01*
X32033Y43583D01*
X31924Y43665D01*
X31918Y43670D01*
X31907Y43676D01*
X31891Y43692D01*
X31864Y43709D01*
X31804Y43758D01*
X31727Y43818D01*
X31651Y43889D01*
X31569Y43954D01*
X31503Y44020D01*
X31476Y44053D01*
X31454Y44080D01*
X31449Y44085D01*
X31438Y44102D01*
X31421Y44129D01*
X31400Y44167D01*
X31383Y44205D01*
X31367Y44255D01*
X31356Y44298D01*
X31350Y44347D01*
Y44353D01*
Y44369D01*
X31356Y44397D01*
X31361Y44429D01*
X31378Y44467D01*
X31394Y44506D01*
X31421Y44544D01*
X31454Y44582D01*
X31460Y44588D01*
X31471Y44599D01*
X31492Y44615D01*
X31525Y44631D01*
X31563Y44648D01*
X31607Y44664D01*
X31656Y44675D01*
X31711Y44681D01*
X31738D01*
X31765Y44675D01*
X31804Y44670D01*
X31842Y44653D01*
X31886Y44637D01*
X31929Y44609D01*
X31973Y44577D01*
X31978Y44571D01*
X31989Y44560D01*
X32006Y44533D01*
X32028Y44495D01*
X32049Y44446D01*
X32071Y44386D01*
X32088Y44315D01*
X32104Y44227D01*
X32939Y44293D01*
Y44298D01*
Y44309D01*
X32934Y44326D01*
X32928Y44353D01*
X32917Y44413D01*
X32901Y44495D01*
X32874Y44582D01*
X32847Y44670D01*
X32808Y44757D01*
X32765Y44839D01*
X32759Y44850D01*
X32743Y44872D01*
X32710Y44904D01*
X32666Y44948D01*
X32617Y44997D01*
X32552Y45046D01*
X32481Y45095D01*
X32393Y45139D01*
X32388D01*
X32382Y45145D01*
X32350Y45156D01*
X32295Y45172D01*
X32219Y45194D01*
X32126Y45216D01*
X32011Y45232D01*
X31880Y45243D01*
X31733Y45248D01*
D02*
G37*
G36*
X39551Y45199D02*
X37867D01*
X38334D01*
X37870Y43376D01*
X37400Y45199D01*
X36183D01*
Y42207D01*
X36941D01*
Y44489D01*
X37526Y42207D01*
X37046D01*
X38214D01*
X38792Y44489D01*
Y42207D01*
X38558D01*
X39551D01*
Y45199D01*
D02*
G37*
G36*
X42773D02*
X39961D01*
Y44462D01*
X40905D01*
Y42207D01*
X41828D01*
Y44462D01*
X42773D01*
Y42207D01*
Y45199D01*
D02*
G37*
G36*
X44356Y45248D02*
X44302D01*
X44263Y45243D01*
X44214D01*
X44160Y45237D01*
X44100Y45232D01*
X44034Y45221D01*
X43892Y45194D01*
X43745Y45156D01*
X43608Y45101D01*
X43543Y45068D01*
X43483Y45030D01*
X43477D01*
X43472Y45019D01*
X43433Y44992D01*
X43384Y44937D01*
X43324Y44866D01*
X43292Y44822D01*
X43264Y44773D01*
X43231Y44713D01*
X43204Y44653D01*
X43177Y44588D01*
X43155Y44517D01*
X43139Y44435D01*
X43122Y44353D01*
X43996Y44304D01*
Y44315D01*
X44001Y44337D01*
X44012Y44375D01*
X44029Y44418D01*
X44050Y44462D01*
X44072Y44511D01*
X44105Y44560D01*
X44143Y44599D01*
X44149Y44604D01*
X44165Y44615D01*
X44187Y44626D01*
X44220Y44648D01*
X44263Y44664D01*
X44318Y44675D01*
X44378Y44686D01*
X44449Y44691D01*
X44476D01*
X44504Y44686D01*
X44542Y44681D01*
X44624Y44664D01*
X44662Y44642D01*
X44695Y44620D01*
X44700Y44615D01*
X44706Y44609D01*
X44733Y44577D01*
X44760Y44522D01*
X44766Y44489D01*
X44771Y44457D01*
Y44451D01*
Y44446D01*
X44760Y44413D01*
X44744Y44369D01*
X44728Y44347D01*
X44706Y44326D01*
X44700D01*
X44689Y44315D01*
X44673Y44304D01*
X44640Y44287D01*
X44602Y44271D01*
X44547Y44255D01*
X44482Y44233D01*
X44400Y44216D01*
X44394D01*
X44373Y44211D01*
X44340Y44205D01*
X44302Y44194D01*
X44252Y44184D01*
X44192Y44167D01*
X44127Y44151D01*
X44061Y44135D01*
X43919Y44096D01*
X43772Y44047D01*
X43641Y43998D01*
X43581Y43976D01*
X43526Y43949D01*
X43521D01*
X43515Y43943D01*
X43483Y43927D01*
X43439Y43900D01*
X43379Y43861D01*
X43319Y43812D01*
X43253Y43758D01*
X43193Y43692D01*
X43144Y43621D01*
X43139Y43610D01*
X43128Y43589D01*
X43106Y43545D01*
X43084Y43490D01*
X43062Y43425D01*
X43040Y43354D01*
X43029Y43266D01*
X43024Y43179D01*
Y43130D01*
X43035Y43075D01*
X43046Y43004D01*
X43062Y42922D01*
X43095Y42830D01*
X43133Y42737D01*
X43188Y42644D01*
X43193Y42633D01*
X43215Y42606D01*
X43253Y42562D01*
X43302Y42507D01*
X43368Y42447D01*
X43444Y42387D01*
X43532Y42333D01*
X43635Y42278D01*
X43641D01*
X43646Y42273D01*
X43663Y42267D01*
X43685Y42262D01*
X43712Y42251D01*
X43750Y42240D01*
X43788Y42229D01*
X43832Y42218D01*
X43936Y42196D01*
X44061Y42174D01*
X44198Y42163D01*
X44356Y42158D01*
X43024D01*
X45743D01*
X44427D01*
X44482Y42163D01*
X44542Y42169D01*
X44613Y42174D01*
X44689Y42180D01*
X44777Y42196D01*
X44951Y42229D01*
X45126Y42278D01*
X45208Y42311D01*
X45284Y42355D01*
X45355Y42398D01*
X45415Y42447D01*
X45421Y42453D01*
X45426Y42464D01*
X45443Y42480D01*
X45459Y42502D01*
X45481Y42529D01*
X45508Y42562D01*
X45536Y42606D01*
X45563Y42649D01*
X45623Y42759D01*
X45678Y42890D01*
X45716Y43032D01*
X45732Y43113D01*
X45743Y43195D01*
X44864Y43255D01*
Y43244D01*
X44859Y43217D01*
X44853Y43179D01*
X44837Y43135D01*
X44804Y43026D01*
X44777Y42972D01*
X44749Y42928D01*
X44744Y42922D01*
X44722Y42900D01*
X44689Y42873D01*
X44646Y42840D01*
X44585Y42802D01*
X44515Y42775D01*
X44433Y42753D01*
X44340Y42748D01*
X44307D01*
X44274Y42753D01*
X44225Y42759D01*
X44176Y42770D01*
X44127Y42786D01*
X44078Y42808D01*
X44034Y42835D01*
X44029Y42840D01*
X44018Y42851D01*
X44001Y42873D01*
X43979Y42895D01*
X43958Y42928D01*
X43941Y42966D01*
X43930Y43010D01*
X43925Y43053D01*
Y43059D01*
Y43075D01*
X43930Y43097D01*
X43936Y43124D01*
X43952Y43157D01*
X43968Y43190D01*
X43996Y43228D01*
X44029Y43261D01*
X44034Y43266D01*
X44050Y43277D01*
X44083Y43294D01*
X44127Y43316D01*
X44192Y43343D01*
X44274Y43376D01*
X44323Y43392D01*
X44378Y43403D01*
X44438Y43419D01*
X44504Y43436D01*
X44509D01*
X44531Y43441D01*
X44564Y43452D01*
X44602Y43457D01*
X44651Y43474D01*
X44711Y43490D01*
X44771Y43507D01*
X44837Y43528D01*
X44984Y43583D01*
X45126Y43643D01*
X45257Y43714D01*
X45317Y43752D01*
X45372Y43796D01*
Y43801D01*
X45383Y43807D01*
X45410Y43834D01*
X45454Y43883D01*
X45497Y43954D01*
X45546Y44036D01*
X45590Y44135D01*
X45617Y44244D01*
X45623Y44304D01*
X45628Y44369D01*
Y44375D01*
Y44380D01*
Y44407D01*
X45623Y44457D01*
X45612Y44511D01*
X45596Y44577D01*
X45574Y44653D01*
X45541Y44730D01*
X45497Y44806D01*
X45492Y44817D01*
X45470Y44839D01*
X45437Y44877D01*
X45394Y44926D01*
X45339Y44975D01*
X45268Y45030D01*
X45186Y45079D01*
X45093Y45128D01*
X45088D01*
X45082Y45134D01*
X45066Y45139D01*
X45044Y45145D01*
X45017Y45156D01*
X44984Y45166D01*
X44946Y45177D01*
X44902Y45188D01*
X44853Y45199D01*
X44793Y45210D01*
X44667Y45232D01*
X44520Y45243D01*
X44356Y45248D01*
D02*
G37*
G36*
X154985Y88574D02*
Y87298D01*
X154978D01*
X154970Y87305D01*
X154948Y87313D01*
X154919Y87320D01*
X154846Y87356D01*
X154744Y87400D01*
X154620Y87458D01*
X154482Y87539D01*
X154329Y87641D01*
X154168Y87757D01*
X154161Y87765D01*
X154147Y87772D01*
X154125Y87794D01*
X154095Y87823D01*
X154015Y87896D01*
X153928Y87991D01*
X153826Y88107D01*
X153724Y88253D01*
X153629Y88406D01*
X153556Y88574D01*
X152769D01*
Y83500D01*
X154985D01*
D01*
X153738D01*
Y87152D01*
X153745Y87145D01*
X153760Y87130D01*
X153789Y87109D01*
X153833Y87072D01*
X153884Y87028D01*
X153942Y86985D01*
X154015Y86934D01*
X154095Y86875D01*
X154183Y86817D01*
X154278Y86759D01*
X154380Y86693D01*
X154489Y86635D01*
X154722Y86525D01*
X154985Y86423D01*
Y88574D01*
D02*
G37*
G36*
X141885D02*
X141819D01*
X141768Y88566D01*
X141702Y88559D01*
X141637Y88552D01*
X141557Y88537D01*
X141476Y88516D01*
X141294Y88464D01*
X141199Y88428D01*
X141097Y88377D01*
X141003Y88326D01*
X140915Y88268D01*
X140820Y88195D01*
X140740Y88115D01*
X140733Y88107D01*
X140726Y88100D01*
X140704Y88078D01*
X140682Y88049D01*
X140623Y87976D01*
X140558Y87874D01*
X140492Y87750D01*
X140441Y87604D01*
X140398Y87444D01*
X140390Y87364D01*
X140383Y87276D01*
Y87269D01*
Y87247D01*
X140390Y87211D01*
X140398Y87167D01*
X140405Y87109D01*
X140419Y87043D01*
X140441Y86970D01*
X140470Y86890D01*
X140514Y86810D01*
X140558Y86722D01*
X140616Y86635D01*
X140689Y86547D01*
X140777Y86460D01*
X140871Y86372D01*
X140981Y86292D01*
X141112Y86212D01*
X141105D01*
X141090Y86205D01*
X141068D01*
X141039Y86190D01*
X140959Y86168D01*
X140864Y86124D01*
X140755Y86066D01*
X140638Y85993D01*
X140522Y85898D01*
X140419Y85789D01*
X140405Y85774D01*
X140376Y85731D01*
X140339Y85665D01*
X140288Y85570D01*
X140237Y85461D01*
X140201Y85322D01*
X140172Y85177D01*
X140157Y85009D01*
Y84943D01*
X140164Y84900D01*
X140172Y84841D01*
X140186Y84776D01*
X140201Y84696D01*
X140215Y84615D01*
X140274Y84440D01*
X140317Y84346D01*
X140361Y84244D01*
X140419Y84149D01*
X140485Y84054D01*
X140558Y83959D01*
X140645Y83872D01*
X140653Y83864D01*
X140667Y83850D01*
X140696Y83828D01*
X140733Y83799D01*
X140784Y83762D01*
X140835Y83726D01*
X140908Y83682D01*
X140981Y83639D01*
X141061Y83595D01*
X141156Y83551D01*
X141258Y83515D01*
X141360Y83478D01*
X141476Y83449D01*
X141593Y83427D01*
X141724Y83412D01*
X141856Y83405D01*
X140157D01*
D01*
X143510D01*
D01*
X141921D01*
X141972Y83412D01*
X142031Y83420D01*
X142096Y83427D01*
X142169Y83442D01*
X142256Y83456D01*
X142431Y83500D01*
X142621Y83573D01*
X142723Y83617D01*
X142810Y83668D01*
X142905Y83733D01*
X142993Y83799D01*
X143000Y83806D01*
X143015Y83821D01*
X143036Y83843D01*
X143066Y83872D01*
X143102Y83908D01*
X143139Y83959D01*
X143182Y84010D01*
X143226Y84076D01*
X143270Y84149D01*
X143321Y84222D01*
X143401Y84397D01*
X143467Y84601D01*
X143496Y84710D01*
X143510Y84827D01*
X142577Y84943D01*
Y84936D01*
Y84929D01*
X142570Y84885D01*
X142555Y84820D01*
X142534Y84739D01*
X142497Y84652D01*
X142461Y84557D01*
X142402Y84470D01*
X142337Y84389D01*
X142329Y84382D01*
X142300Y84360D01*
X142256Y84331D01*
X142205Y84302D01*
X142132Y84265D01*
X142052Y84236D01*
X141965Y84214D01*
X141863Y84207D01*
X141848D01*
X141812Y84214D01*
X141761Y84222D01*
X141688Y84236D01*
X141608Y84265D01*
X141527Y84302D01*
X141440Y84360D01*
X141360Y84433D01*
X141352Y84440D01*
X141323Y84477D01*
X141294Y84528D01*
X141251Y84593D01*
X141214Y84681D01*
X141177Y84790D01*
X141156Y84914D01*
X141148Y85053D01*
Y85060D01*
Y85067D01*
Y85111D01*
X141156Y85177D01*
X141170Y85264D01*
X141199Y85359D01*
X141236Y85454D01*
X141287Y85549D01*
X141352Y85636D01*
X141360Y85643D01*
X141389Y85672D01*
X141433Y85709D01*
X141484Y85745D01*
X141557Y85789D01*
X141637Y85818D01*
X141724Y85847D01*
X141826Y85855D01*
X141899D01*
X141950Y85847D01*
X142016Y85840D01*
X142096Y85826D01*
X142176Y85804D01*
X142271Y85782D01*
X142169Y86562D01*
X142103D01*
X142031Y86569D01*
X141943Y86576D01*
X141848Y86598D01*
X141746Y86627D01*
X141651Y86671D01*
X141564Y86730D01*
X141557Y86737D01*
X141527Y86766D01*
X141498Y86802D01*
X141455Y86861D01*
X141418Y86926D01*
X141382Y87006D01*
X141360Y87101D01*
X141352Y87211D01*
Y87225D01*
Y87254D01*
X141360Y87298D01*
X141374Y87356D01*
X141389Y87422D01*
X141418Y87488D01*
X141455Y87560D01*
X141506Y87619D01*
X141513Y87626D01*
X141535Y87641D01*
X141564Y87670D01*
X141615Y87699D01*
X141673Y87721D01*
X141739Y87750D01*
X141826Y87765D01*
X141914Y87772D01*
X141958D01*
X142001Y87765D01*
X142060Y87750D01*
X142125Y87728D01*
X142198Y87699D01*
X142271Y87655D01*
X142337Y87597D01*
X142344Y87590D01*
X142366Y87568D01*
X142395Y87524D01*
X142431Y87466D01*
X142468Y87400D01*
X142497Y87313D01*
X142526Y87211D01*
X142548Y87094D01*
X143437Y87240D01*
Y87247D01*
X143430Y87262D01*
Y87283D01*
X143423Y87320D01*
X143401Y87400D01*
X143372Y87510D01*
X143328Y87626D01*
X143284Y87750D01*
X143226Y87867D01*
X143160Y87976D01*
X143153Y87991D01*
X143124Y88020D01*
X143080Y88071D01*
X143022Y88136D01*
X142949Y88202D01*
X142861Y88275D01*
X142752Y88348D01*
X142636Y88414D01*
X142628D01*
X142621Y88421D01*
X142577Y88435D01*
X142504Y88464D01*
X142417Y88494D01*
X142307Y88523D01*
X142176Y88552D01*
X142038Y88566D01*
X141885Y88574D01*
D02*
G37*
G36*
X151442D02*
X148052D01*
X149583D01*
X149532Y88566D01*
X149466Y88559D01*
X149393Y88552D01*
X149313Y88537D01*
X149226Y88523D01*
X149036Y88472D01*
X148847Y88399D01*
X148745Y88355D01*
X148657Y88304D01*
X148562Y88239D01*
X148482Y88166D01*
X148475Y88158D01*
X148460Y88151D01*
X148446Y88122D01*
X148416Y88093D01*
X148380Y88056D01*
X148344Y88005D01*
X148307Y87954D01*
X148263Y87889D01*
X148190Y87743D01*
X148118Y87575D01*
X148089Y87480D01*
X148074Y87378D01*
X148059Y87269D01*
X148052Y87160D01*
Y87546D01*
Y83500D01*
X151442D01*
Y83522D01*
X151435Y83551D01*
X151427Y83587D01*
X151420Y83631D01*
X151413Y83682D01*
X151383Y83814D01*
X151340Y83959D01*
X151281Y84120D01*
X151209Y84295D01*
X151114Y84462D01*
Y84470D01*
X151099Y84484D01*
X151085Y84513D01*
X151056Y84543D01*
X151026Y84593D01*
X150983Y84645D01*
X150932Y84710D01*
X150873Y84783D01*
X150808Y84870D01*
X150727Y84958D01*
X150640Y85060D01*
X150538Y85169D01*
X150429Y85279D01*
X150305Y85403D01*
X150173Y85534D01*
X150028Y85672D01*
X150020Y85680D01*
X149998Y85702D01*
X149969Y85731D01*
X149925Y85774D01*
X149867Y85818D01*
X149809Y85877D01*
X149678Y86008D01*
X149547Y86146D01*
X149415Y86285D01*
X149357Y86343D01*
X149299Y86409D01*
X149255Y86460D01*
X149226Y86503D01*
X149218Y86518D01*
X149197Y86554D01*
X149160Y86613D01*
X149124Y86693D01*
X149087Y86781D01*
X149051Y86883D01*
X149029Y86985D01*
X149022Y87094D01*
Y87101D01*
Y87109D01*
Y87145D01*
X149029Y87211D01*
X149044Y87283D01*
X149065Y87364D01*
X149094Y87444D01*
X149138Y87524D01*
X149197Y87597D01*
X149204Y87604D01*
X149226Y87626D01*
X149269Y87655D01*
X149320Y87685D01*
X149393Y87714D01*
X149474Y87743D01*
X149568Y87765D01*
X149678Y87772D01*
X149729D01*
X149787Y87765D01*
X149853Y87750D01*
X149933Y87728D01*
X150013Y87692D01*
X150093Y87648D01*
X150166Y87590D01*
X150173Y87582D01*
X150195Y87553D01*
X150224Y87510D01*
X150254Y87444D01*
X150290Y87364D01*
X150319Y87254D01*
X150348Y87130D01*
X150363Y86985D01*
X151325Y87079D01*
Y87087D01*
X151318Y87116D01*
Y87152D01*
X151303Y87211D01*
X151296Y87276D01*
X151274Y87349D01*
X151252Y87429D01*
X151231Y87524D01*
X151158Y87706D01*
X151070Y87896D01*
X151012Y87991D01*
X150946Y88078D01*
X150873Y88151D01*
X150793Y88224D01*
X150786Y88231D01*
X150771Y88239D01*
X150749Y88253D01*
X150713Y88282D01*
X150669Y88304D01*
X150611Y88333D01*
X150552Y88370D01*
X150480Y88399D01*
X150399Y88435D01*
X150312Y88464D01*
X150122Y88523D01*
X149896Y88559D01*
X149780Y88566D01*
X149656Y88574D01*
X151442D01*
D02*
G37*
G36*
X139515Y88639D02*
Y86037D01*
X139508Y86102D01*
Y86190D01*
X139494Y86292D01*
X139479Y86416D01*
X139464Y86547D01*
X139435Y86700D01*
X139399Y86853D01*
X139355Y87014D01*
X139304Y87174D01*
X139238Y87342D01*
X139165Y87502D01*
X139078Y87655D01*
X138983Y87801D01*
X138867Y87940D01*
X138859Y87947D01*
X138838Y87969D01*
X138801Y88005D01*
X138750Y88049D01*
X138684Y88100D01*
X138604Y88158D01*
X138517Y88224D01*
X138407Y88289D01*
X138291Y88355D01*
X138167Y88421D01*
X138021Y88479D01*
X137875Y88530D01*
X137707Y88574D01*
X137540Y88610D01*
X137350Y88632D01*
X137161Y88639D01*
X137073D01*
X137008Y88632D01*
X136927Y88625D01*
X136840Y88610D01*
X136738Y88596D01*
X136629Y88574D01*
X136512Y88545D01*
X136388Y88508D01*
X136264Y88464D01*
X136133Y88406D01*
X136009Y88348D01*
X135892Y88275D01*
X135768Y88187D01*
X135659Y88093D01*
X135652D01*
X135644Y88078D01*
X135623Y88056D01*
X135601Y88034D01*
X135572Y87998D01*
X135542Y87954D01*
X135462Y87852D01*
X135382Y87721D01*
X135294Y87560D01*
X135214Y87378D01*
X135141Y87167D01*
X136147Y86926D01*
Y86934D01*
X136155Y86941D01*
Y86963D01*
X136169Y86992D01*
X136191Y87058D01*
X136228Y87145D01*
X136279Y87247D01*
X136344Y87349D01*
X136432Y87451D01*
X136527Y87539D01*
X136541Y87546D01*
X136578Y87575D01*
X136636Y87612D01*
X136716Y87655D01*
X136818Y87699D01*
X136935Y87735D01*
X137066Y87765D01*
X137212Y87772D01*
X137263D01*
X137307Y87765D01*
X137350Y87757D01*
X137409Y87750D01*
X137532Y87721D01*
X137678Y87670D01*
X137831Y87597D01*
X137912Y87553D01*
X137985Y87502D01*
X138057Y87437D01*
X138123Y87364D01*
Y87356D01*
X138138Y87342D01*
X138152Y87320D01*
X138174Y87283D01*
X138203Y87240D01*
X138232Y87189D01*
X138262Y87123D01*
X138291Y87050D01*
X138327Y86963D01*
X138356Y86868D01*
X138385Y86759D01*
X138415Y86642D01*
X138436Y86511D01*
X138451Y86372D01*
X138458Y86219D01*
X138466Y86051D01*
Y86044D01*
Y86008D01*
Y85957D01*
X138458Y85898D01*
Y85818D01*
X138444Y85724D01*
X138436Y85629D01*
X138422Y85519D01*
X138378Y85293D01*
X138320Y85067D01*
X138283Y84958D01*
X138232Y84856D01*
X138181Y84761D01*
X138123Y84681D01*
X138116Y84674D01*
X138109Y84666D01*
X138087Y84645D01*
X138057Y84615D01*
X137985Y84557D01*
X137882Y84484D01*
X137759Y84404D01*
X137605Y84346D01*
X137431Y84295D01*
X137336Y84287D01*
X137234Y84280D01*
X137197D01*
X137168Y84287D01*
X137088Y84295D01*
X136993Y84309D01*
X136891Y84346D01*
X136774Y84389D01*
X136658Y84448D01*
X136541Y84535D01*
X136527Y84550D01*
X136490Y84586D01*
X136439Y84645D01*
X136381Y84732D01*
X136308Y84849D01*
X136242Y84987D01*
X136177Y85155D01*
X136118Y85352D01*
X135127Y85045D01*
Y85038D01*
X135134Y85009D01*
X135149Y84965D01*
X135171Y84907D01*
X135200Y84841D01*
X135229Y84761D01*
X135265Y84674D01*
X135309Y84579D01*
X135411Y84382D01*
X135542Y84178D01*
X135703Y83981D01*
X135790Y83894D01*
X135885Y83814D01*
X135892Y83806D01*
X135907Y83799D01*
X135936Y83777D01*
X135980Y83748D01*
X136031Y83719D01*
X136096Y83689D01*
X136169Y83653D01*
X136249Y83617D01*
X136344Y83573D01*
X136446Y83536D01*
X136556Y83507D01*
X136672Y83478D01*
X136796Y83449D01*
X136935Y83427D01*
X137073Y83420D01*
X137226Y83412D01*
X135127D01*
D01*
X139515Y83412D01*
Y88639D01*
D02*
G37*
G36*
X147469Y88574D02*
X145821D01*
X145785Y88566D01*
X145727D01*
X145661Y88559D01*
X145588Y88545D01*
X145501Y88523D01*
X145413Y88501D01*
X145311Y88464D01*
X145209Y88428D01*
X145107Y88377D01*
X144998Y88319D01*
X144896Y88253D01*
X144793Y88173D01*
X144691Y88078D01*
X144597Y87976D01*
X144589Y87969D01*
X144575Y87947D01*
X144553Y87910D01*
X144516Y87859D01*
X144480Y87794D01*
X144436Y87714D01*
X144392Y87619D01*
X144349Y87510D01*
X144305Y87378D01*
X144254Y87233D01*
X144218Y87072D01*
X144181Y86897D01*
X144145Y86700D01*
X144123Y86489D01*
X144108Y86263D01*
X144101Y86015D01*
Y85884D01*
X144108Y85789D01*
X144115Y85672D01*
X144130Y85541D01*
X144145Y85403D01*
X144167Y85250D01*
X144196Y85082D01*
X144225Y84922D01*
X144269Y84754D01*
X144319Y84586D01*
X144378Y84433D01*
X144451Y84280D01*
X144524Y84141D01*
X144618Y84018D01*
X144626Y84010D01*
X144640Y83988D01*
X144669Y83959D01*
X144713Y83923D01*
X144764Y83879D01*
X144823Y83821D01*
X144896Y83770D01*
X144976Y83711D01*
X145063Y83653D01*
X145165Y83602D01*
X145274Y83551D01*
X145391Y83500D01*
X145522Y83464D01*
X145654Y83434D01*
X145792Y83412D01*
X145945Y83405D01*
X144101D01*
X146003D01*
X146040Y83412D01*
X146091D01*
X146149Y83420D01*
X146288Y83442D01*
X146441Y83485D01*
X146594Y83536D01*
X146754Y83617D01*
X146827Y83660D01*
X146900Y83719D01*
X146907Y83726D01*
X146915Y83733D01*
X146937Y83755D01*
X146958Y83777D01*
X146988Y83814D01*
X147024Y83850D01*
X147053Y83901D01*
X147097Y83952D01*
X147134Y84018D01*
X147177Y84083D01*
X147214Y84163D01*
X147250Y84251D01*
X147287Y84338D01*
X147316Y84440D01*
X147345Y84543D01*
X147367Y84659D01*
X146434Y84768D01*
Y84754D01*
X146426Y84717D01*
X146419Y84666D01*
X146397Y84608D01*
X146375Y84535D01*
X146346Y84462D01*
X146310Y84397D01*
X146259Y84338D01*
X146251Y84331D01*
X146230Y84316D01*
X146200Y84295D01*
X146157Y84273D01*
X146098Y84251D01*
X146040Y84229D01*
X145960Y84214D01*
X145880Y84207D01*
X145865D01*
X145829Y84214D01*
X145777Y84222D01*
X145705Y84244D01*
X145624Y84273D01*
X145544Y84324D01*
X145457Y84389D01*
X145377Y84477D01*
X145369Y84491D01*
X145355Y84506D01*
X145340Y84535D01*
X145326Y84564D01*
X145304Y84608D01*
X145289Y84659D01*
X145260Y84725D01*
X145238Y84798D01*
X145216Y84878D01*
X145194Y84973D01*
X145173Y85075D01*
X145151Y85191D01*
X145136Y85322D01*
X145121Y85468D01*
X145107Y85621D01*
X145114Y85614D01*
X145121Y85607D01*
X145143Y85585D01*
X145173Y85556D01*
X145209Y85527D01*
X145253Y85490D01*
X145355Y85410D01*
X145486Y85330D01*
X145646Y85264D01*
X145734Y85235D01*
X145821Y85220D01*
X145916Y85206D01*
X146018Y85199D01*
X146076D01*
X146120Y85206D01*
X146171Y85213D01*
X146230Y85220D01*
X146368Y85257D01*
X146528Y85308D01*
X146609Y85352D01*
X146696Y85395D01*
X146784Y85446D01*
X146871Y85505D01*
X146958Y85578D01*
X147039Y85658D01*
X147046Y85665D01*
X147061Y85680D01*
X147075Y85709D01*
X147104Y85738D01*
X147141Y85789D01*
X147177Y85840D01*
X147214Y85906D01*
X147250Y85979D01*
X147294Y86059D01*
X147330Y86154D01*
X147367Y86248D01*
X147403Y86358D01*
X147432Y86467D01*
X147447Y86591D01*
X147461Y86722D01*
X147469Y86853D01*
Y83551D01*
Y86934D01*
Y86926D01*
X147461Y86985D01*
X147454Y87050D01*
X147447Y87123D01*
X147432Y87211D01*
X147411Y87298D01*
X147360Y87495D01*
X147323Y87604D01*
X147279Y87706D01*
X147228Y87808D01*
X147163Y87910D01*
X147097Y88005D01*
X147017Y88100D01*
X147010Y88107D01*
X146995Y88122D01*
X146973Y88144D01*
X146937Y88173D01*
X146886Y88209D01*
X146835Y88253D01*
X146769Y88289D01*
X146696Y88341D01*
X146623Y88384D01*
X146528Y88421D01*
X146434Y88464D01*
X146332Y88501D01*
X146222Y88530D01*
X146106Y88552D01*
X145989Y88566D01*
X145858Y88574D01*
X147469D01*
D02*
G37*
G36*
X166000Y88545D02*
X161145D01*
Y83500D01*
X162085D01*
X162093Y87466D01*
X163084Y83500D01*
X164068D01*
X165060Y87466D01*
Y83500D01*
X166000D01*
Y88545D01*
D02*
G37*
G36*
X160110D02*
X157894D01*
X157762Y88537D01*
X157616Y88530D01*
X157471Y88523D01*
X157332Y88508D01*
X157208Y88494D01*
X157194D01*
X157157Y88486D01*
X157106Y88472D01*
X157033Y88450D01*
X156953Y88421D01*
X156866Y88384D01*
X156771Y88341D01*
X156683Y88282D01*
X156676Y88275D01*
X156647Y88253D01*
X156603Y88217D01*
X156545Y88173D01*
X156487Y88107D01*
X156421Y88034D01*
X156355Y87954D01*
X156297Y87859D01*
X156290Y87845D01*
X156275Y87816D01*
X156246Y87757D01*
X156217Y87685D01*
X156188Y87597D01*
X156158Y87502D01*
X156144Y87386D01*
X156137Y87269D01*
Y87262D01*
Y87254D01*
Y87211D01*
X156144Y87145D01*
X156158Y87058D01*
X156188Y86955D01*
X156217Y86846D01*
X156268Y86737D01*
X156333Y86620D01*
X156341Y86606D01*
X156370Y86569D01*
X156414Y86518D01*
X156465Y86452D01*
X156538Y86387D01*
X156625Y86307D01*
X156727Y86241D01*
X156844Y86175D01*
X156836D01*
X156822Y86168D01*
X156800Y86161D01*
X156771Y86154D01*
X156683Y86117D01*
X156581Y86066D01*
X156472Y86008D01*
X156348Y85928D01*
X156239Y85833D01*
X156137Y85716D01*
X156129Y85702D01*
X156100Y85658D01*
X156056Y85592D01*
X156013Y85505D01*
X155969Y85388D01*
X155925Y85264D01*
X155896Y85118D01*
X155889Y84958D01*
Y83500D01*
Y84900D01*
X155896Y84834D01*
X155911Y84747D01*
X155925Y84645D01*
X155954Y84528D01*
X155998Y84411D01*
X156049Y84287D01*
X156056Y84273D01*
X156078Y84236D01*
X156115Y84178D01*
X156166Y84105D01*
X156224Y84018D01*
X156304Y83937D01*
X156385Y83850D01*
X156487Y83770D01*
X156501Y83762D01*
X156538Y83741D01*
X156596Y83704D01*
X156676Y83668D01*
X156778Y83624D01*
X156895Y83587D01*
X157026Y83551D01*
X157172Y83529D01*
X157201D01*
X157230Y83522D01*
X157303D01*
X157354Y83515D01*
X157493D01*
X157580Y83507D01*
X157799D01*
X157923Y83500D01*
X155889D01*
X160110D01*
Y88545D01*
D02*
G37*
%LPD*%
G36*
X148059Y87036D02*
X148067Y86955D01*
X148081Y86853D01*
X148103Y86744D01*
X148132Y86627D01*
X148176Y86511D01*
X148183Y86496D01*
X148198Y86460D01*
X148227Y86394D01*
X148271Y86314D01*
X148322Y86219D01*
X148387Y86110D01*
X148468Y85993D01*
X148562Y85869D01*
X148570Y85862D01*
X148599Y85826D01*
X148643Y85774D01*
X148708Y85702D01*
X148796Y85614D01*
X148905Y85497D01*
X149036Y85374D01*
X149197Y85220D01*
X149204Y85213D01*
X149218Y85206D01*
X149240Y85184D01*
X149269Y85155D01*
X149350Y85082D01*
X149444Y84994D01*
X149539Y84900D01*
X149634Y84805D01*
X149721Y84725D01*
X149751Y84688D01*
X149780Y84659D01*
X149787Y84652D01*
X149802Y84637D01*
X149823Y84608D01*
X149853Y84572D01*
X149918Y84491D01*
X149977Y84397D01*
X148052D01*
Y87101D01*
X148059Y87036D01*
D02*
G37*
G36*
X139515Y83412D02*
X137270Y83412D01*
X137321Y83420D01*
X137394Y83427D01*
X137474Y83434D01*
X137576Y83449D01*
X137686Y83471D01*
X137810Y83500D01*
X137934Y83536D01*
X138065Y83580D01*
X138203Y83639D01*
X138342Y83704D01*
X138480Y83777D01*
X138619Y83872D01*
X138750Y83974D01*
X138874Y84098D01*
X138881Y84105D01*
X138903Y84127D01*
X138932Y84171D01*
X138976Y84222D01*
X139020Y84295D01*
X139078Y84375D01*
X139136Y84477D01*
X139195Y84593D01*
X139253Y84717D01*
X139311Y84856D01*
X139370Y85016D01*
X139413Y85184D01*
X139457Y85359D01*
X139486Y85556D01*
X139508Y85760D01*
X139515Y85979D01*
Y83412D01*
D02*
G37*
G36*
X145996Y87757D02*
X146055Y87743D01*
X146127Y87721D01*
X146200Y87677D01*
X146273Y87626D01*
X146346Y87553D01*
X146353Y87546D01*
X146375Y87510D01*
X146405Y87458D01*
X146434Y87386D01*
X146463Y87291D01*
X146492Y87167D01*
X146514Y87021D01*
X146521Y86853D01*
Y86846D01*
Y86831D01*
Y86810D01*
Y86773D01*
X146514Y86686D01*
X146499Y86584D01*
X146477Y86460D01*
X146441Y86343D01*
X146397Y86226D01*
X146332Y86132D01*
X146324Y86124D01*
X146295Y86095D01*
X146259Y86059D01*
X146200Y86022D01*
X146127Y85979D01*
X146047Y85942D01*
X145952Y85913D01*
X145850Y85906D01*
X145836D01*
X145807Y85913D01*
X145756Y85920D01*
X145690Y85935D01*
X145617Y85957D01*
X145537Y86001D01*
X145457Y86051D01*
X145384Y86124D01*
X145377Y86132D01*
X145355Y86168D01*
X145318Y86219D01*
X145282Y86285D01*
X145253Y86379D01*
X145216Y86489D01*
X145194Y86620D01*
X145187Y86773D01*
Y86781D01*
Y86795D01*
Y86817D01*
Y86853D01*
X145202Y86934D01*
X145216Y87043D01*
X145238Y87160D01*
X145282Y87283D01*
X145333Y87400D01*
X145406Y87510D01*
X145413Y87524D01*
X145442Y87553D01*
X145486Y87590D01*
X145544Y87641D01*
X145617Y87692D01*
X145705Y87728D01*
X145799Y87757D01*
X145902Y87772D01*
X145945D01*
X145996Y87757D01*
D02*
G37*
G36*
X163572Y85097D02*
X162676Y88545D01*
X164476D01*
X163572Y85097D01*
D02*
G37*
G36*
X159089Y86540D02*
X158112D01*
X157988Y86547D01*
X157762D01*
X157719Y86554D01*
X157675D01*
X157646Y86562D01*
X157602Y86569D01*
X157536Y86591D01*
X157471Y86613D01*
X157405Y86642D01*
X157340Y86678D01*
X157281Y86730D01*
X157274Y86737D01*
X157259Y86759D01*
X157230Y86788D01*
X157201Y86839D01*
X157179Y86897D01*
X157150Y86963D01*
X157135Y87043D01*
X157128Y87130D01*
Y87138D01*
Y87167D01*
X157135Y87211D01*
X157143Y87269D01*
X157157Y87327D01*
X157186Y87386D01*
X157216Y87451D01*
X157259Y87510D01*
X157267Y87517D01*
X157281Y87531D01*
X157318Y87560D01*
X157354Y87590D01*
X157412Y87619D01*
X157478Y87648D01*
X157558Y87670D01*
X157646Y87685D01*
X157653D01*
X157682Y87692D01*
X157762D01*
X157806Y87699D01*
X157996D01*
X158076Y87706D01*
X159089D01*
Y86540D01*
D02*
G37*
G36*
Y84353D02*
X157966D01*
X157857Y84360D01*
X157740D01*
X157624Y84368D01*
X157529Y84375D01*
X157485D01*
X157456Y84382D01*
X157449D01*
X157420Y84389D01*
X157376Y84404D01*
X157325Y84418D01*
X157267Y84448D01*
X157201Y84484D01*
X157143Y84528D01*
X157084Y84579D01*
X157077Y84586D01*
X157062Y84608D01*
X157041Y84645D01*
X157011Y84696D01*
X156982Y84754D01*
X156960Y84827D01*
X156946Y84914D01*
X156939Y85009D01*
Y85016D01*
Y85045D01*
X156946Y85089D01*
X156953Y85140D01*
X156968Y85206D01*
X156990Y85264D01*
X157019Y85330D01*
X157055Y85395D01*
X157062Y85403D01*
X157077Y85425D01*
X157099Y85454D01*
X157135Y85483D01*
X157179Y85527D01*
X157237Y85563D01*
X157303Y85599D01*
X157376Y85629D01*
X157383D01*
X157420Y85643D01*
X157478Y85650D01*
X157514Y85658D01*
X157565Y85665D01*
X157616Y85672D01*
X157682Y85680D01*
X157755Y85687D01*
X157843D01*
X157930Y85694D01*
X158032Y85702D01*
X159089D01*
Y84353D01*
D02*
G37*
D12*
X155000Y61800D02*
X155500D01*
X154800Y61700D02*
X155800D01*
X154700Y61600D02*
X156000D01*
X154600Y61500D02*
X156200D01*
X154500Y61400D02*
X156400D01*
X154400Y61300D02*
X156600D01*
X154300Y61200D02*
X156800D01*
X154200Y61100D02*
X156900D01*
X154100Y61000D02*
X157000D01*
X154100Y60900D02*
X157200D01*
X154000Y60800D02*
X157200D01*
X153900Y60700D02*
X157300D01*
X153800Y60600D02*
X157400D01*
X153800Y60500D02*
X157400D01*
X153700Y60400D02*
X157500D01*
X153700Y60300D02*
X157600D01*
X153600Y60200D02*
X157600D01*
X153500Y60100D02*
X157700D01*
X153500Y60000D02*
X157700D01*
X153400Y59900D02*
X157800D01*
X153400Y59800D02*
X157800D01*
X153300Y59700D02*
X157900D01*
X153300Y59600D02*
X158000D01*
X153200Y59500D02*
X158000D01*
X153200Y59400D02*
X158100D01*
X153100Y59300D02*
X158100D01*
X153100Y59200D02*
X158200D01*
X153000Y59100D02*
X158300D01*
X153000Y59000D02*
X158300D01*
X152900Y58900D02*
X158400D01*
X152900Y58800D02*
X158400D01*
X152800Y58700D02*
X158500D01*
X152800Y58600D02*
X158500D01*
X152700Y58500D02*
X158600D01*
X152700Y58400D02*
X158700D01*
X152600Y58300D02*
X158700D01*
X152600Y58200D02*
X158800D01*
X152500Y58100D02*
X158800D01*
X152500Y58000D02*
X158900D01*
X152400Y57900D02*
X158900D01*
X152400Y57800D02*
X159000D01*
X152300Y57700D02*
X159100D01*
X152300Y57600D02*
X159100D01*
X152200Y57500D02*
X159200D01*
X152100Y57400D02*
X159200D01*
X152100Y57300D02*
X159300D01*
X152000Y57200D02*
X159400D01*
X152000Y57100D02*
X159400D01*
X151900Y57000D02*
X159500D01*
X151900Y56900D02*
X159500D01*
X151900Y56800D02*
X159600D01*
X151800Y56700D02*
X159600D01*
X151700Y56600D02*
X159700D01*
X151700Y56500D02*
X159800D01*
X151600Y56400D02*
X159800D01*
X151600Y56300D02*
X159900D01*
X151500Y56200D02*
X159900D01*
X151500Y56100D02*
X160000D01*
X151400Y56000D02*
X160100D01*
X151300Y55800D02*
X160100D01*
X151300Y55700D02*
X160200D01*
X151200Y55600D02*
X160300D01*
X151200Y55500D02*
X160300D01*
X151100Y55400D02*
X160400D01*
X151100Y55300D02*
X160500D01*
X151000Y55200D02*
X160500D01*
X151000Y55100D02*
X160600D01*
X150900Y55000D02*
X160600D01*
X150900Y54900D02*
X160700D01*
X150800Y54800D02*
X160700D01*
X150700Y54700D02*
X160800D01*
X150700Y54600D02*
X160900D01*
X150600Y54500D02*
X160900D01*
X150600Y54400D02*
X161000D01*
X150600Y54300D02*
X161000D01*
X150600Y54200D02*
X161100D01*
X150700Y54100D02*
X161200D01*
X150900Y54000D02*
X161200D01*
X151000Y53900D02*
X161300D01*
X151200Y53800D02*
X161300D01*
X151300Y53700D02*
X161400D01*
X151600Y53600D02*
X161400D01*
X151800Y53500D02*
X161500D01*
X152000Y53400D02*
X161600D01*
X152400Y53300D02*
X161600D01*
X152700Y53200D02*
X161600D01*
X152900Y53100D02*
X161700D01*
X153200Y53000D02*
X161800D01*
X153800Y52900D02*
X161900D01*
X154100Y52800D02*
X161900D01*
X154500Y52700D02*
X162000D01*
X155400Y52600D02*
X162000D01*
X156200Y52500D02*
X162100D01*
X156700Y52400D02*
X162100D01*
X157500Y52300D02*
X162200D01*
X159800Y52200D02*
X162300D01*
X159900Y52100D02*
X162300D01*
X160000Y52000D02*
X162400D01*
X160200Y51900D02*
X162400D01*
X160300Y51800D02*
X162500D01*
X160400Y51700D02*
X162600D01*
X160500Y51600D02*
X162600D01*
X160600Y51500D02*
X162600D01*
X160700Y51400D02*
X162600D01*
X160800Y51300D02*
X162600D01*
X160900Y51200D02*
X162400D01*
X161000Y51100D02*
X162100D01*
X161100Y51000D02*
X161900D01*
X161300Y50900D02*
X161600D01*
X163100Y49600D02*
X163600D01*
X163000Y49500D02*
X163700D01*
X162900Y49400D02*
X163800D01*
X162900Y49300D02*
X163900D01*
X162800Y49200D02*
X164000D01*
X147500Y49100D02*
X148400D01*
X162800D02*
X164000D01*
X147300Y49000D02*
X148700D01*
X162800D02*
X164000D01*
X147200Y48900D02*
X148800D01*
X162800D02*
X164100D01*
X147100Y48800D02*
X148900D01*
X162800D02*
X164100D01*
X147100Y48700D02*
X149000D01*
X162800D02*
X164200D01*
X147000Y48600D02*
X149000D01*
X162900D02*
X164300D01*
X147000Y48500D02*
X149100D01*
X162900D02*
X164300D01*
X146900Y48400D02*
X149200D01*
X162900D02*
X164400D01*
X146900Y48300D02*
X149300D01*
X162900D02*
X164400D01*
X146800Y48200D02*
X149400D01*
X163000D02*
X164500D01*
X146700Y48100D02*
X149400D01*
X163000D02*
X164500D01*
X146700Y48000D02*
X149500D01*
X163000D02*
X164600D01*
X146700Y47900D02*
X149500D01*
X163100D02*
X164700D01*
X146600Y47800D02*
X149600D01*
X163100D02*
X164700D01*
X146500Y47700D02*
X149700D01*
X163100D02*
X164800D01*
X146500Y47600D02*
X149700D01*
X163200D02*
X164800D01*
X146400Y47500D02*
X149800D01*
X163200D02*
X164800D01*
X146400Y47400D02*
X149800D01*
X163200D02*
X164900D01*
X146300Y47300D02*
X149900D01*
X163200D02*
X165000D01*
X146300Y47200D02*
X150000D01*
X163200D02*
X165000D01*
X146200Y47100D02*
X150000D01*
X159400D02*
X160100D01*
X163200D02*
X165100D01*
X146100Y47000D02*
X150100D01*
X159200D02*
X160200D01*
X163300D02*
X165100D01*
X146100Y46900D02*
X150200D01*
X159100D02*
X160300D01*
X163300D02*
X165200D01*
X146000Y46800D02*
X150200D01*
X158900D02*
X160400D01*
X163300D02*
X165200D01*
X146000Y46700D02*
X150400D01*
X158800D02*
X160500D01*
X163300D02*
X165300D01*
X145900Y46600D02*
X150400D01*
X158600D02*
X160500D01*
X163300D02*
X165400D01*
X145900Y46500D02*
X150500D01*
X158500D02*
X160600D01*
X163300D02*
X165400D01*
X145800Y46400D02*
X150600D01*
X158400D02*
X160700D01*
X163400D02*
X165500D01*
X145700Y46300D02*
X150800D01*
X158100D02*
X160800D01*
X163400D02*
X165500D01*
X145700Y46200D02*
X150900D01*
X157900D02*
X160900D01*
X163400D02*
X165600D01*
X145700Y46100D02*
X151000D01*
X157800D02*
X161000D01*
X163500D02*
X165700D01*
X145600Y46000D02*
X151200D01*
X157700D02*
X161100D01*
X163500D02*
X165700D01*
X145600Y45900D02*
X151400D01*
X157500D02*
X161200D01*
X163500D02*
X165800D01*
X145500Y45800D02*
X151500D01*
X157300D02*
X161200D01*
X163500D02*
X165800D01*
X145400Y45700D02*
X151600D01*
X157200D02*
X161300D01*
X163600D02*
X165800D01*
X145400Y45600D02*
X151800D01*
X157000D02*
X161300D01*
X163600D02*
X165900D01*
X145300Y45500D02*
X151900D01*
X156800D02*
X161300D01*
X163600D02*
X166000D01*
X145300Y45400D02*
X152000D01*
X156700D02*
X161400D01*
X163600D02*
X166100D01*
X145200Y45300D02*
X152000D01*
X156700D02*
X161400D01*
X163600D02*
X166100D01*
X145200Y45200D02*
X151900D01*
X156700D02*
X161300D01*
X163600D02*
X166100D01*
X145100Y45100D02*
X151800D01*
X156700D02*
X161300D01*
X163600D02*
X166200D01*
X145000Y45000D02*
X151700D01*
X156700D02*
X161200D01*
X163500D02*
X166200D01*
X145000Y44900D02*
X151600D01*
X156800D02*
X161200D01*
X163500D02*
X166300D01*
X144900Y44800D02*
X151400D01*
X156900D02*
X161200D01*
X163500D02*
X166400D01*
X144900Y44700D02*
X151200D01*
X157100D02*
X161200D01*
X163500D02*
X166400D01*
X144900Y44600D02*
X151000D01*
X157200D02*
X161200D01*
X163500D02*
X166500D01*
X144800Y44500D02*
X150900D01*
X157300D02*
X161200D01*
X163400D02*
X166500D01*
X144700Y44400D02*
X150800D01*
X157400D02*
X161200D01*
X163400D02*
X166600D01*
X144600Y44300D02*
X150600D01*
X157500D02*
X161200D01*
X163400D02*
X166600D01*
X144600Y44200D02*
X150500D01*
X157600D02*
X161200D01*
X163400D02*
X166700D01*
X144600Y44100D02*
X150300D01*
X157700D02*
X161200D01*
X163300D02*
X166800D01*
X144500Y44000D02*
X150100D01*
X157900D02*
X161300D01*
X163300D02*
X166800D01*
X144500Y43900D02*
X149900D01*
X158000D02*
X161300D01*
X163300D02*
X166900D01*
X144400Y43800D02*
X149800D01*
X158100D02*
X161300D01*
X163200D02*
X166900D01*
X144300Y43700D02*
X149600D01*
X158200D02*
X161300D01*
X163200D02*
X166900D01*
X144300Y43600D02*
X149400D01*
X158200D02*
X161300D01*
X163200D02*
X167000D01*
X144200Y43500D02*
X149300D01*
X158300D02*
X161300D01*
X163200D02*
X167100D01*
X144200Y43400D02*
X149100D01*
X153400D02*
X154500D01*
X158400D02*
X161300D01*
X163200D02*
X167100D01*
X144100Y43300D02*
X148900D01*
X153200D02*
X154700D01*
X158500D02*
X161300D01*
X163200D02*
X167200D01*
X144100Y43200D02*
X148700D01*
X153100D02*
X154800D01*
X158600D02*
X161300D01*
X163100D02*
X167200D01*
X144000Y43100D02*
X148600D01*
X152800D02*
X155100D01*
X158700D02*
X161300D01*
X163100D02*
X167300D01*
X143900Y43000D02*
X148400D01*
X152600D02*
X155200D01*
X158800D02*
X161300D01*
X163100D02*
X167300D01*
X143900Y42900D02*
X148300D01*
X152500D02*
X155300D01*
X158800D02*
X161200D01*
X163100D02*
X167400D01*
X143800Y42800D02*
X148100D01*
X152300D02*
X155500D01*
X158900D02*
X161200D01*
X163000D02*
X167500D01*
X143800Y42700D02*
X148000D01*
X152000D02*
X155600D01*
X158900D02*
X161200D01*
X163000D02*
X167500D01*
X143700Y42600D02*
X147700D01*
X151900D02*
X155700D01*
X159000D02*
X161200D01*
X162900D02*
X167600D01*
X143600Y42500D02*
X147500D01*
X151700D02*
X155800D01*
X159100D02*
X161200D01*
X162900D02*
X167600D01*
X143600Y42400D02*
X147400D01*
X151600D02*
X155900D01*
X159100D02*
X161200D01*
X162900D02*
X167700D01*
X143500Y42300D02*
X147300D01*
X151400D02*
X156000D01*
X159200D02*
X161200D01*
X162900D02*
X167700D01*
X143500Y42200D02*
X147100D01*
X151300D02*
X156100D01*
X159200D02*
X161200D01*
X162800D02*
X167800D01*
X143500Y42100D02*
X146900D01*
X151100D02*
X156200D01*
X159200D02*
X161100D01*
X162800D02*
X167900D01*
X143400Y42000D02*
X146800D01*
X150900D02*
X156300D01*
X159300D02*
X161100D01*
X162800D02*
X167900D01*
X143300Y41900D02*
X146600D01*
X150700D02*
X156400D01*
X159300D02*
X161100D01*
X162800D02*
X167900D01*
X143300Y41800D02*
X146400D01*
X150600D02*
X156500D01*
X159300D02*
X161100D01*
X162800D02*
X168000D01*
X143200Y41700D02*
X146300D01*
X150500D02*
X156500D01*
X159300D02*
X161100D01*
X162700D02*
X168000D01*
X143200Y41600D02*
X146100D01*
X150200D02*
X156600D01*
X159300D02*
X161000D01*
X162700D02*
X168100D01*
X143100Y41500D02*
X145900D01*
X150100D02*
X156600D01*
X159300D02*
X161000D01*
X162700D02*
X168200D01*
X143100Y41400D02*
X145800D01*
X150000D02*
X156700D01*
X159300D02*
X161000D01*
X162600D02*
X168300D01*
X143000Y41300D02*
X145600D01*
X149800D02*
X156700D01*
X159300D02*
X161000D01*
X162600D02*
X168300D01*
X142900Y41200D02*
X145500D01*
X149600D02*
X156800D01*
X159300D02*
X161000D01*
X162600D02*
X168300D01*
X142900Y41100D02*
X145200D01*
X149500D02*
X156900D01*
X159300D02*
X161000D01*
X162500D02*
X168400D01*
X142800Y41000D02*
X145100D01*
X149300D02*
X156900D01*
X159300D02*
X161000D01*
X162500D02*
X168400D01*
X142800Y40900D02*
X144900D01*
X149100D02*
X157000D01*
X159300D02*
X161100D01*
X162500D02*
X168500D01*
X142700Y40800D02*
X144800D01*
X149000D02*
X157000D01*
X159200D02*
X161100D01*
X162500D02*
X168600D01*
X142700Y40700D02*
X144600D01*
X148900D02*
X157100D01*
X159200D02*
X161100D01*
X162400D02*
X168600D01*
X142600Y40600D02*
X144500D01*
X148700D02*
X157100D01*
X159200D02*
X161100D01*
X162400D02*
X168700D01*
X142500Y40500D02*
X144300D01*
X148500D02*
X157200D01*
X159200D02*
X161100D01*
X162400D02*
X168700D01*
X142500Y40400D02*
X144100D01*
X148400D02*
X157200D01*
X159200D02*
X161100D01*
X162300D02*
X168800D01*
X142400Y40300D02*
X143900D01*
X148100D02*
X157200D01*
X159200D02*
X161100D01*
X162300D02*
X168800D01*
X142400Y40200D02*
X143800D01*
X148000D02*
X157300D01*
X159200D02*
X161100D01*
X162200D02*
X168900D01*
X142400Y40100D02*
X143600D01*
X147900D02*
X157300D01*
X159100D02*
X161100D01*
X162200D02*
X169000D01*
X142300Y40000D02*
X143400D01*
X147700D02*
X157400D01*
X159100D02*
X161100D01*
X162200D02*
X169000D01*
X142200Y39900D02*
X143300D01*
X147500D02*
X157400D01*
X159100D02*
X161100D01*
X162200D02*
X169000D01*
X142100Y39800D02*
X143100D01*
X147300D02*
X157500D01*
X159000D02*
X161200D01*
X162100D02*
X169100D01*
X142100Y39700D02*
X142900D01*
X147200D02*
X157600D01*
X159000D02*
X161200D01*
X162100D02*
X169100D01*
X142100Y39600D02*
X142800D01*
X147000D02*
X157600D01*
X159000D02*
X161200D01*
X162100D02*
X169200D01*
X142100Y39500D02*
X142700D01*
X146900D02*
X157700D01*
X158900D02*
X161200D01*
X162100D02*
X169200D01*
X142300Y39400D02*
X142400D01*
X146700D02*
X157700D01*
X158900D02*
X161300D01*
X162000D02*
X169200D01*
X146600Y39300D02*
X157800D01*
X158800D02*
X161300D01*
X161900D02*
X169200D01*
X146400Y39200D02*
X157900D01*
X158700D02*
X169200D01*
X146200Y39100D02*
X158000D01*
X158400D02*
X169200D01*
X146100Y39000D02*
X169200D01*
X145900Y38900D02*
X169200D01*
X145700Y38800D02*
X169200D01*
X145600Y38700D02*
X169200D01*
X145500Y38600D02*
X169200D01*
X145200Y38500D02*
X169200D01*
X145100Y38400D02*
X169200D01*
X144900Y38300D02*
X169200D01*
X144800Y38200D02*
X169100D01*
X144600Y38100D02*
X169100D01*
X144400Y38000D02*
X169000D01*
X144300Y37900D02*
X169000D01*
X144200Y37800D02*
X168900D01*
X143900Y37700D02*
X168800D01*
X143800Y37600D02*
X168500D01*
X143700Y37500D02*
X168400D01*
X143600Y37400D02*
X168200D01*
X143500Y37300D02*
X167900D01*
X143500Y37200D02*
X167600D01*
X143500Y37100D02*
X167400D01*
X151400Y55900D02*
X160100D01*
D15*
X101666Y65408D02*
G03*
X101582Y91392I-84J12992D01*
G01*
X101582Y69502D02*
G03*
X101582Y86825I0J8661D01*
G01*
X84757Y65349D02*
G03*
X84672Y91333I-84J12992D01*
G01*
X84672Y69443D02*
G03*
X84672Y86766I0J8661D01*
G01*
X84835Y65408D02*
G03*
X84751Y91392I-84J12992D01*
G01*
X84751Y69502D02*
G03*
X84751Y86825I0J8661D01*
G01*
X127900Y74000D02*
X129700Y75800D01*
Y74000D02*
Y75800D01*
X127900Y74000D02*
X129700D01*
X130300Y75900D02*
X150300D01*
Y68200D02*
Y75900D01*
X130300Y68200D02*
X150300D01*
X130300D02*
Y75900D01*
X101582Y91392D02*
X101582Y86825D01*
Y65492D02*
Y69502D01*
X84672Y86766D02*
Y91333D01*
Y65433D02*
Y69443D01*
X86995Y76412D02*
Y79876D01*
X87015Y76333D02*
X93117D01*
X93019D02*
X93098Y76254D01*
X86995Y79876D02*
X93058D01*
X93216Y80034D01*
X101897Y86963D02*
Y91294D01*
X101798Y87061D02*
X101897Y86963D01*
X101798Y87061D02*
X102192D01*
Y91195D01*
X102487D01*
Y86963D02*
Y91195D01*
X84751Y91392D02*
X84751Y86825D01*
Y65492D02*
Y69502D01*
X85066Y86963D02*
Y91294D01*
X84968Y87061D02*
X85066Y86963D01*
X84968Y87061D02*
X85361D01*
Y91195D01*
X85657D01*
Y86963D02*
Y91195D01*
X160400Y10700D02*
Y34322D01*
X73786D02*
X160400D01*
X73786Y10700D02*
Y34322D01*
Y10700D02*
X160400D01*
X73686Y11100D02*
X160300D01*
X73686D02*
Y34722D01*
X160300D01*
Y11100D02*
Y34722D01*
D16*
X46379Y63250D02*
G03*
X38307Y62321I-3766J-2807D01*
G01*
X41622Y55475D02*
G03*
X41064Y54884I17J-575D01*
G01*
X29347Y65972D02*
G03*
X30139Y59215I4939J-2846D01*
G01*
X41851Y55573D02*
G03*
X46411Y63184I-2198J6488D01*
G01*
X29952Y58889D02*
G03*
X32914Y53487I-669J-3880D01*
G01*
X34414Y52987D02*
G03*
X41206Y54662I3829J-917D01*
G01*
X36733Y62857D02*
G03*
X33784Y68427I-4260J1311D01*
G01*
X28662Y66302D02*
G03*
X33813Y68834I9521J-12864D01*
G01*
X38209Y65317D02*
X39489Y64727D01*
X36721Y62857D02*
X38111Y65317D01*
X33485Y52916D02*
X34442D01*
X32993Y53506D02*
X33563Y52936D01*
X38308Y62365D02*
X39674Y64641D01*
D20*
X6781Y38349D02*
X3969D01*
X3407Y38536D01*
X3032Y38911D01*
X2845Y39474D01*
Y39848D01*
X3032Y40411D01*
X3407Y40786D01*
X3969Y40973D01*
X6781D01*
X6219Y44684D02*
X6594Y44309D01*
X6781Y43747D01*
Y42997D01*
X6594Y42435D01*
X6219Y42060D01*
X5844D01*
X5469Y42248D01*
X5282Y42435D01*
X5094Y42810D01*
X4719Y43935D01*
X4532Y44309D01*
X4344Y44497D01*
X3969Y44684D01*
X3407D01*
X3032Y44309D01*
X2845Y43747D01*
Y42997D01*
X3032Y42435D01*
X3407Y42060D01*
X6781Y45565D02*
X2845D01*
X6781D02*
Y47252D01*
X6594Y47814D01*
X6406Y48002D01*
X6031Y48189D01*
X5656D01*
X5282Y48002D01*
X5094Y47814D01*
X4907Y47252D01*
Y45565D02*
Y47252D01*
X4719Y47814D01*
X4532Y48002D01*
X4157Y48189D01*
X3595D01*
X3220Y48002D01*
X3032Y47814D01*
X2845Y47252D01*
Y45565D01*
X1533Y49070D02*
Y52069D01*
X6781Y52575D02*
X3969D01*
X3407Y52763D01*
X3032Y53138D01*
X2845Y53700D01*
Y54075D01*
X3032Y54637D01*
X3407Y55012D01*
X3969Y55199D01*
X6781D01*
X6219Y58911D02*
X6594Y58536D01*
X6781Y57973D01*
Y57224D01*
X6594Y56661D01*
X6219Y56287D01*
X5844D01*
X5469Y56474D01*
X5282Y56661D01*
X5094Y57036D01*
X4719Y58161D01*
X4532Y58536D01*
X4344Y58723D01*
X3969Y58911D01*
X3407D01*
X3032Y58536D01*
X2845Y57973D01*
Y57224D01*
X3032Y56661D01*
X3407Y56287D01*
X6781Y62228D02*
Y59792D01*
X2845D01*
Y62228D01*
X4907Y59792D02*
Y61291D01*
X6781Y62884D02*
X2845D01*
X6781D02*
Y64571D01*
X6594Y65134D01*
X6406Y65321D01*
X6031Y65508D01*
X5656D01*
X5282Y65321D01*
X5094Y65134D01*
X4907Y64571D01*
Y62884D01*
Y64196D02*
X2845Y65508D01*
X109289Y49292D02*
X109814Y49816D01*
X110863D01*
X111388Y49292D01*
Y47192D01*
X110863Y46668D01*
X109814D01*
X109289Y47192D01*
X106665Y49816D02*
X107715D01*
X108240Y49292D01*
Y47192D01*
X107715Y46668D01*
X106665D01*
X106140Y47192D01*
Y49292D01*
X106665Y49816D01*
X105091Y46668D02*
Y49816D01*
X104042Y48767D01*
X102992Y49816D01*
Y46668D01*
X101942D02*
Y49816D01*
X100368D01*
X99843Y49292D01*
Y48242D01*
X100368Y47717D01*
X101942D01*
X98794Y49816D02*
Y46668D01*
X96695D01*
X95645Y49816D02*
X94596D01*
X95121D01*
Y46668D01*
X95645D01*
X94596D01*
X93021D02*
Y48767D01*
X91972Y49816D01*
X90922Y48767D01*
Y46668D01*
Y48242D01*
X93021D01*
X89873Y46668D02*
Y49816D01*
X87774Y46668D01*
Y49816D01*
X86724D02*
X84625D01*
X85675D01*
Y46668D01*
X111258Y41550D02*
X113357D01*
X111258Y43649D01*
Y44173D01*
X111782Y44698D01*
X112832D01*
X113357Y44173D01*
X110208D02*
X109683Y44698D01*
X108634D01*
X108109Y44173D01*
Y42074D01*
X108634Y41550D01*
X109683D01*
X110208Y42074D01*
Y44173D01*
X107060D02*
X106535Y44698D01*
X105485D01*
X104960Y44173D01*
Y42074D01*
X105485Y41550D01*
X106535D01*
X107060Y42074D01*
Y44173D01*
X101812Y41550D02*
X103911D01*
X101812Y43649D01*
Y44173D01*
X102337Y44698D01*
X103386D01*
X103911Y44173D01*
X100762Y41550D02*
X98663Y43649D01*
X97614Y42074D02*
X97089Y41550D01*
X96039D01*
X95515Y42074D01*
Y44173D01*
X96039Y44698D01*
X97089D01*
X97614Y44173D01*
Y43649D01*
X97089Y43124D01*
X95515D01*
X92366Y44698D02*
X94465D01*
Y43124D01*
X93416Y43649D01*
X92891D01*
X92366Y43124D01*
Y42074D01*
X92891Y41550D01*
X93940D01*
X94465Y42074D01*
X91317Y41550D02*
X89218Y43649D01*
X86069Y44698D02*
X88168D01*
Y41550D01*
X86069D01*
X88168Y43124D02*
X87118D01*
X82920Y44173D02*
X83445Y44698D01*
X84495D01*
X85019Y44173D01*
Y42074D01*
X84495Y41550D01*
X83445D01*
X82920Y42074D01*
D22*
X148545Y66125D02*
X146545Y66887D01*
X148545Y67649D01*
X147878Y67363D02*
Y66411D01*
X146545Y64992D02*
X148545D01*
X146545Y65659D02*
Y64326D01*
Y63897D02*
Y62850D01*
X147307Y63421D01*
Y63136D01*
X147402Y62945D01*
X147497Y62850D01*
X147783Y62755D01*
X147974D01*
X148259Y62850D01*
X148450Y63040D01*
X148545Y63326D01*
Y63612D01*
X148450Y63897D01*
X148354Y63993D01*
X148164Y64088D01*
X143445Y65925D02*
X141445Y66687D01*
X143445Y67449D01*
X142778Y67163D02*
Y66211D01*
X141445Y64792D02*
X143445D01*
X141445Y65459D02*
Y64126D01*
X141921Y63793D02*
X141826D01*
X141636Y63697D01*
X141541Y63602D01*
X141445Y63412D01*
Y63031D01*
X141541Y62840D01*
X141636Y62745D01*
X141826Y62650D01*
X142017D01*
X142207Y62745D01*
X142493Y62936D01*
X143445Y63888D01*
Y62555D01*
X138545Y66025D02*
X136545Y66787D01*
X138545Y67549D01*
X137878Y67263D02*
Y66311D01*
X136545Y64892D02*
X138545D01*
X136545Y65559D02*
Y64226D01*
X136926Y63988D02*
X136831Y63797D01*
X136545Y63512D01*
X138545D01*
X133545Y66025D02*
X131545Y66787D01*
X133545Y67549D01*
X132878Y67263D02*
Y66311D01*
X131545Y64892D02*
X133545D01*
X131545Y65559D02*
Y64226D01*
Y63416D02*
X131641Y63702D01*
X131926Y63893D01*
X132402Y63988D01*
X132688D01*
X133164Y63893D01*
X133450Y63702D01*
X133545Y63416D01*
Y63226D01*
X133450Y62940D01*
X133164Y62750D01*
X132688Y62655D01*
X132402D01*
X131926Y62750D01*
X131641Y62940D01*
X131545Y63226D01*
Y63416D01*
D23*
X147138Y61881D02*
X147363Y61656D01*
X147588Y61319D01*
X147813Y60869D01*
X147925Y60307D01*
Y59857D01*
X147813Y59294D01*
X147588Y58845D01*
X147363Y58507D01*
X147138Y58282D01*
X147363Y61656D02*
X147588Y61206D01*
X147700Y60869D01*
X147813Y60307D01*
Y59857D01*
X147700Y59294D01*
X147588Y58957D01*
X147363Y58507D01*
X146688Y61431D02*
Y59069D01*
Y61431D02*
X145676D01*
X145339Y61319D01*
X145226Y61206D01*
X145114Y60981D01*
Y60756D01*
X145226Y60531D01*
X145339Y60419D01*
X145676Y60307D01*
X146688D01*
X145901D02*
X145114Y59069D01*
X144585Y59969D02*
X143236D01*
Y60194D01*
X143348Y60419D01*
X143461Y60531D01*
X143685Y60644D01*
X144023D01*
X144248Y60531D01*
X144473Y60307D01*
X144585Y59969D01*
Y59744D01*
X144473Y59407D01*
X144248Y59182D01*
X144023Y59069D01*
X143685D01*
X143461Y59182D01*
X143236Y59407D01*
X141492Y60307D02*
X141605Y60531D01*
X141942Y60644D01*
X142280D01*
X142617Y60531D01*
X142730Y60307D01*
X142617Y60082D01*
X142392Y59969D01*
X141830Y59857D01*
X141605Y59744D01*
X141492Y59519D01*
Y59407D01*
X141605Y59182D01*
X141942Y59069D01*
X142280D01*
X142617Y59182D01*
X142730Y59407D01*
X140998Y59969D02*
X139648D01*
Y60194D01*
X139761Y60419D01*
X139873Y60531D01*
X140098Y60644D01*
X140435D01*
X140660Y60531D01*
X140885Y60307D01*
X140998Y59969D01*
Y59744D01*
X140885Y59407D01*
X140660Y59182D01*
X140435Y59069D01*
X140098D01*
X139873Y59182D01*
X139648Y59407D01*
X139142Y60644D02*
Y59069D01*
Y59969D02*
X139030Y60307D01*
X138805Y60531D01*
X138580Y60644D01*
X138242D01*
X138029D02*
X137354Y59069D01*
X136679Y60644D02*
X137354Y59069D01*
X136297Y59969D02*
X134947D01*
Y60194D01*
X135060Y60419D01*
X135172Y60531D01*
X135397Y60644D01*
X135734D01*
X135959Y60531D01*
X136184Y60307D01*
X136297Y59969D01*
Y59744D01*
X136184Y59407D01*
X135959Y59182D01*
X135734Y59069D01*
X135397D01*
X135172Y59182D01*
X134947Y59407D01*
X133092Y61431D02*
Y59069D01*
Y60307D02*
X133317Y60531D01*
X133542Y60644D01*
X133879D01*
X134104Y60531D01*
X134329Y60307D01*
X134441Y59969D01*
Y59744D01*
X134329Y59407D01*
X134104Y59182D01*
X133879Y59069D01*
X133542D01*
X133317Y59182D01*
X133092Y59407D01*
X132462Y61881D02*
X132237Y61656D01*
X132012Y61319D01*
X131787Y60869D01*
X131675Y60307D01*
Y59857D01*
X131787Y59294D01*
X132012Y58845D01*
X132237Y58507D01*
X132462Y58282D01*
X132237Y61656D02*
X132012Y61206D01*
X131900Y60869D01*
X131787Y60307D01*
Y59857D01*
X131900Y59294D01*
X132012Y58957D01*
X132237Y58507D01*
X147919Y77294D02*
X148819Y79656D01*
X149719Y77294D01*
X149381Y78082D02*
X148257D01*
X147368Y78869D02*
Y77294D01*
Y78419D02*
X147031Y78756D01*
X146806Y78869D01*
X146468D01*
X146244Y78756D01*
X146131Y78419D01*
Y77294D01*
X144163Y78869D02*
Y77294D01*
Y78531D02*
X144388Y78756D01*
X144613Y78869D01*
X144950D01*
X145175Y78756D01*
X145400Y78531D01*
X145513Y78194D01*
Y77969D01*
X145400Y77632D01*
X145175Y77407D01*
X144950Y77294D01*
X144613D01*
X144388Y77407D01*
X144163Y77632D01*
X143533Y79656D02*
Y77294D01*
X142476Y78869D02*
X142701Y78756D01*
X142926Y78531D01*
X143038Y78194D01*
Y77969D01*
X142926Y77632D01*
X142701Y77407D01*
X142476Y77294D01*
X142139D01*
X141914Y77407D01*
X141689Y77632D01*
X141576Y77969D01*
Y78194D01*
X141689Y78531D01*
X141914Y78756D01*
X142139Y78869D01*
X142476D01*
X139710D02*
Y77069D01*
X139822Y76732D01*
X139935Y76620D01*
X140159Y76507D01*
X140497D01*
X140722Y76620D01*
X139710Y78531D02*
X139935Y78756D01*
X140159Y78869D01*
X140497D01*
X140722Y78756D01*
X140947Y78531D01*
X141059Y78194D01*
Y77969D01*
X140947Y77632D01*
X140722Y77407D01*
X140497Y77294D01*
X140159D01*
X139935Y77407D01*
X139710Y77632D01*
X136437Y79656D02*
Y77294D01*
X137224Y79656D02*
X135650D01*
X135369Y78194D02*
X134019D01*
Y78419D01*
X134132Y78644D01*
X134244Y78756D01*
X134469Y78869D01*
X134806D01*
X135031Y78756D01*
X135256Y78531D01*
X135369Y78194D01*
Y77969D01*
X135256Y77632D01*
X135031Y77407D01*
X134806Y77294D01*
X134469D01*
X134244Y77407D01*
X134019Y77632D01*
X132276Y78531D02*
X132388Y78756D01*
X132726Y78869D01*
X133063D01*
X133400Y78756D01*
X133513Y78531D01*
X133400Y78307D01*
X133176Y78194D01*
X132613Y78082D01*
X132388Y77969D01*
X132276Y77744D01*
Y77632D01*
X132388Y77407D01*
X132726Y77294D01*
X133063D01*
X133400Y77407D01*
X133513Y77632D01*
X131444Y79656D02*
Y77744D01*
X131331Y77407D01*
X131106Y77294D01*
X130881D01*
X131781Y78869D02*
X130994D01*
X153468Y71074D02*
X153861Y70681D01*
Y69894D01*
X153468Y69500D01*
X151894D01*
X151500Y69894D01*
Y70681D01*
X151894Y71074D01*
X151500Y71861D02*
X153861D01*
X151500Y73436D01*
X153861D01*
X151500Y75404D02*
X153861D01*
X152681Y74223D01*
Y75797D01*
D90*
X109813Y52179D02*
Y58477D01*
X106665D01*
X105615Y57427D01*
Y55328D01*
X106665Y54279D01*
X109813D01*
X107714D02*
X105615Y52179D01*
X102467D02*
X100368D01*
X99318Y53229D01*
Y55328D01*
X100368Y56378D01*
X102467D01*
X103516Y55328D01*
Y53229D01*
X102467Y52179D01*
X97219Y58477D02*
Y52179D01*
Y55328D01*
X93021D01*
Y58477D01*
Y52179D01*
X86724Y57427D02*
X87773Y58477D01*
X89872D01*
X90922Y57427D01*
Y56378D01*
X89872Y55328D01*
X87773D01*
X86724Y54279D01*
Y53229D01*
X87773Y52179D01*
X89872D01*
X90922Y53229D01*
D99*
X102684Y86963D02*
Y90900D01*
X102684Y90900D01*
X103373D01*
Y86963D02*
Y90900D01*
Y86963D02*
X103865D01*
Y90802D01*
X103964Y90703D01*
X104456D01*
Y86766D02*
Y90703D01*
Y86766D02*
X104554Y86668D01*
X104948D01*
Y90506D01*
X105046Y90408D01*
X105539D01*
X105440Y90309D02*
X105539Y90408D01*
X105440Y86372D02*
Y90309D01*
Y86372D02*
X105637Y86176D01*
Y90211D01*
X105637Y90211D01*
X106228D01*
X106129Y90113D02*
X106228Y90211D01*
X106129Y85979D02*
Y90113D01*
Y85979D02*
X106424Y85684D01*
X106523D01*
X106720Y85880D01*
Y90014D01*
Y90014D02*
Y90014D01*
Y90014D02*
X107212Y89522D01*
Y85782D02*
Y89522D01*
X106818Y85388D02*
X107212Y85782D01*
X106818Y85388D02*
X107015D01*
X107409Y84995D01*
X107409D01*
X107507Y85093D01*
Y89522D01*
X107802Y89227D01*
X107901D01*
X107802Y84601D02*
X107901Y89227D01*
X107802Y84601D02*
X108196Y84306D01*
X108294Y89030D01*
X108885Y88636D01*
X108491Y84010D02*
X108885Y88636D01*
X108491Y84010D02*
X108885Y83420D01*
X109082Y88538D01*
X109476Y88144D01*
X109279Y83026D02*
X109476Y88144D01*
X109279Y83026D02*
X109476Y82435D01*
X109869Y87947D01*
X110361Y87554D01*
X109869Y81943D02*
X110361Y87554D01*
X109869Y81943D02*
X110165Y81058D01*
X110558Y87160D01*
X111050Y86865D01*
X110361Y80467D02*
X111050Y86865D01*
X110361Y80467D02*
X110460Y79975D01*
X110558Y78892D01*
X110657Y77809D01*
X110558Y76727D02*
X110657Y77809D01*
X110558Y76727D02*
X114102D01*
X114298Y78302D01*
X113806Y81058D02*
X114298Y78302D01*
X113314Y83124D02*
X113806Y81058D01*
X112724Y84404D02*
X113314Y83124D01*
X111739Y85880D02*
X112724Y84404D01*
X111346Y86274D02*
X111739Y85880D01*
X110854Y80270D02*
X111346Y86274D01*
X110854Y80270D02*
X111149Y77317D01*
X113806D01*
X113609Y79876D02*
X113806Y77317D01*
X112133Y85093D02*
X113609Y79876D01*
X111739Y85191D02*
X112133Y85093D01*
X111444Y79680D02*
X111739Y85191D01*
X111444Y79680D02*
X111739Y77711D01*
X113216Y77908D01*
X113117Y79975D02*
X113216Y77908D01*
X112035Y83813D02*
X113117Y79975D01*
X112035Y79187D02*
Y83813D01*
Y79187D02*
X112330Y78105D01*
X112724Y78400D01*
X112527Y81058D02*
X112724Y78400D01*
X110361Y76235D02*
X110558Y76333D01*
X110361Y76235D02*
X114003Y76333D01*
X113511Y73971D02*
X114003Y76333D01*
X111838Y71117D02*
X113511Y73971D01*
X109279Y68361D02*
X111838Y71117D01*
X107015Y67081D02*
X109279Y68361D01*
X104259Y65998D02*
X107015Y67081D01*
X102389Y65802D02*
X104259Y65998D01*
X101995Y65802D02*
X102389D01*
X101995D02*
X102094Y69050D01*
X105145Y69739D01*
X108098Y71707D01*
X109377Y73774D01*
X110361Y75841D01*
X113413Y75743D01*
X112035Y71904D02*
X113413Y75743D01*
X108984Y68754D02*
X112035Y71904D01*
X104653Y66687D02*
X108984Y68754D01*
X102586Y66392D02*
X104653Y66687D01*
X102586Y66392D02*
Y68853D01*
X105342Y69247D01*
X108294Y71313D01*
X110854Y75447D01*
X112920Y75250D01*
X110263Y69837D02*
X112920Y75250D01*
X110263Y69837D02*
X110361Y70624D01*
X104062Y66491D02*
X110361Y70624D01*
X104062Y66491D02*
X104554Y67081D01*
X103078Y66983D02*
X104554Y67081D01*
X103078Y66983D02*
X103373Y68459D01*
X102881Y68558D02*
X103373Y68459D01*
X102881Y68558D02*
X105539Y68853D01*
X108885Y71215D01*
X110854Y74955D01*
X112232Y74857D01*
X110165Y70723D02*
X112232Y74857D01*
X104358Y67081D02*
X110165Y70723D01*
X104259Y67376D02*
X104358Y67081D01*
X103668Y67475D02*
X104259Y67376D01*
X103668Y67475D02*
X103865Y68065D01*
X105932Y68656D01*
X110066Y71412D01*
X111444Y74660D01*
X109377Y71412D02*
X111444Y74660D01*
X103767Y67180D02*
X109377Y71412D01*
X85853Y86963D02*
Y90900D01*
X85854Y90900D01*
X86542D01*
Y86963D02*
Y90900D01*
Y86963D02*
X87035D01*
Y90802D01*
X87133Y90703D01*
X87625D01*
Y86766D02*
Y90703D01*
Y86766D02*
X87724Y86668D01*
X88117D01*
Y90506D01*
X88216Y90408D01*
X88708D01*
X88609Y90310D02*
X88708Y90408D01*
X88609Y86372D02*
Y90310D01*
Y86372D02*
X88806Y86176D01*
Y90211D01*
X88806Y90211D01*
X89397D01*
X89298Y90113D02*
X89397Y90211D01*
X89298Y85979D02*
Y90113D01*
Y85979D02*
X89594Y85684D01*
X89692D01*
X89889Y85880D01*
Y90014D01*
Y90014D02*
Y90014D01*
Y90014D02*
X90381Y89522D01*
Y85782D02*
Y89522D01*
X89987Y85388D02*
X90381Y85782D01*
X89987Y85388D02*
X90184D01*
X90578Y84995D01*
X90578D01*
X90676Y85093D01*
Y89522D01*
X90972Y89227D01*
X91070D01*
X90972Y84601D02*
X91070Y89227D01*
X90972Y84601D02*
X91365Y84306D01*
X91464Y89030D01*
X92054Y88636D01*
X91661Y84010D02*
X92054Y88636D01*
X91661Y84010D02*
X92054Y83420D01*
X92251Y88538D01*
X92645Y88144D01*
X92448Y83026D02*
X92645Y88144D01*
X92448Y83026D02*
X92645Y82435D01*
X93039Y87947D01*
X93531Y87554D01*
X93039Y81943D02*
X93531Y87554D01*
X93039Y81943D02*
X93334Y81058D01*
X93728Y87160D01*
X94220Y86865D01*
X93531Y80467D02*
X94220Y86865D01*
X93531Y80467D02*
X93629Y79975D01*
X93728Y78892D01*
X93826Y77810D01*
X93728Y76727D02*
X93826Y77810D01*
X93728Y76727D02*
X97271D01*
X97468Y78302D01*
X96976Y81058D02*
X97468Y78302D01*
X96483Y83124D02*
X96976Y81058D01*
X95893Y84404D02*
X96483Y83124D01*
X94909Y85880D02*
X95893Y84404D01*
X94515Y86274D02*
X94909Y85880D01*
X94023Y80270D02*
X94515Y86274D01*
X94023Y80270D02*
X94318Y77317D01*
X96976D01*
X96779Y79876D02*
X96976Y77317D01*
X95302Y85093D02*
X96779Y79876D01*
X94909Y85191D02*
X95302Y85093D01*
X94613Y79680D02*
X94909Y85191D01*
X94613Y79680D02*
X94909Y77711D01*
X96385Y77908D01*
X96287Y79975D02*
X96385Y77908D01*
X95204Y83813D02*
X96287Y79975D01*
X95204Y79187D02*
Y83813D01*
Y79187D02*
X95499Y78105D01*
X95893Y78400D01*
X95696Y81058D02*
X95893Y78400D01*
X93531Y76235D02*
X93728Y76333D01*
X93531Y76235D02*
X97172Y76333D01*
X96680Y73971D02*
X97172Y76333D01*
X95007Y71117D02*
X96680Y73971D01*
X92448Y68361D02*
X95007Y71117D01*
X90184Y67081D02*
X92448Y68361D01*
X87428Y65998D02*
X90184Y67081D01*
X85558Y65802D02*
X87428Y65998D01*
X85165Y65802D02*
X85558D01*
X85165D02*
X85263Y69050D01*
X88314Y69739D01*
X91267Y71707D01*
X92546Y73774D01*
X93531Y75841D01*
X96582Y75743D01*
X95204Y71904D02*
X96582Y75743D01*
X92153Y68754D02*
X95204Y71904D01*
X87822Y66687D02*
X92153Y68754D01*
X85755Y66392D02*
X87822Y66687D01*
X85755Y66392D02*
Y68853D01*
X88511Y69247D01*
X91464Y71313D01*
X94023Y75447D01*
X96090Y75250D01*
X93432Y69837D02*
X96090Y75250D01*
X93432Y69837D02*
X93531Y70624D01*
X87231Y66491D02*
X93531Y70624D01*
X87231Y66491D02*
X87724Y67081D01*
X86247Y66983D02*
X87724Y67081D01*
X86247Y66983D02*
X86542Y68459D01*
X86050Y68558D02*
X86542Y68459D01*
X86050Y68558D02*
X88708Y68853D01*
X92054Y71215D01*
X94023Y74955D01*
X95401Y74857D01*
X93334Y70723D02*
X95401Y74857D01*
X87527Y67081D02*
X93334Y70723D01*
X87428Y67376D02*
X87527Y67081D01*
X86838Y67475D02*
X87428Y67376D01*
X86838Y67475D02*
X87035Y68065D01*
X89102Y68656D01*
X93235Y71412D01*
X94613Y74660D01*
X92546Y71412D02*
X94613Y74660D01*
X86936Y67180D02*
X92546Y71412D01*
X87330Y79581D02*
X93334D01*
X87330Y76825D02*
Y79581D01*
Y76825D02*
X93432Y76727D01*
X92940Y79089D02*
X93432Y76727D01*
X87822Y78991D02*
X92940Y79089D01*
X87822Y77317D02*
Y78991D01*
Y77317D02*
X92842Y77219D01*
X92546Y78498D02*
X92842Y77219D01*
X88216Y78597D02*
X92546Y78498D01*
X88216Y78597D02*
X88314Y77908D01*
X92251Y77810D01*
D100*
X128900Y74600D02*
D03*
D101*
X129350Y74800D02*
D03*
D102*
X128950Y74300D02*
D03*
D103*
X99184Y39385D02*
D03*
Y61039D02*
D03*
D104*
X115922Y50211D02*
D03*
X80489D02*
D03*
M02*
