G04*
G04 #@! TF.GenerationSoftware,Altium Limited,Altium Designer,18.0.12 (696)*
G04*
G04 Layer_Color=8388736*
%FSLAX25Y25*%
%MOIN*%
G70*
G01*
G75*
%ADD15C,0.00394*%
%ADD16C,0.01000*%
%ADD105C,0.00600*%
%ADD106C,0.00606*%
D15*
X0Y-4980D02*
Y27820D01*
X-41700Y0D02*
X66700D01*
X0Y79244D02*
Y165354D01*
X198937Y-15680D02*
Y165354D01*
X170217Y102842D02*
X247600D01*
X165498Y1D02*
X246200D01*
X65200Y-10580D02*
Y6920D01*
X171421Y-8691D02*
Y8810D01*
X163700Y6420D02*
X240900D01*
X163700Y96420D02*
X215900D01*
X163700D02*
Y129400D01*
X61613Y98300D02*
Y152800D01*
X-41500Y17207D02*
X9400D01*
X-40400Y85632D02*
X57500D01*
X73700Y96420D02*
Y126700D01*
X83700Y96420D02*
Y126700D01*
D16*
X198937Y156480D02*
Y158480D01*
X0Y156480D02*
Y158480D01*
X192937Y155480D02*
X198937Y157480D01*
X192937Y159480D02*
X198937Y157480D01*
X0D02*
X6000Y155480D01*
X0Y157480D02*
X6000Y159480D01*
X120562Y157480D02*
X198937D01*
X0D02*
X78375D01*
X225378Y102842D02*
X227378D01*
X225378Y1D02*
X227378D01*
X226378Y102842D02*
X228378Y96842D01*
X224378D02*
X226378Y102842D01*
Y1D02*
X228378Y6001D01*
X224378D02*
X226378Y1D01*
Y75015D02*
Y102842D01*
Y1D02*
Y27829D01*
X171299Y-9581D02*
Y-7581D01*
X65082Y-9581D02*
Y-7581D01*
X165299Y-10581D02*
X171299Y-8581D01*
X165299Y-6581D02*
X171299Y-8581D01*
X65082D02*
X71082Y-10581D01*
X65082Y-8581D02*
X71082Y-6581D01*
X142283Y-8581D02*
X171299D01*
X65082D02*
X94098D01*
X198937Y121047D02*
Y123047D01*
X163700Y121047D02*
Y123047D01*
X198937Y122047D02*
X204937Y120047D01*
X198937Y122047D02*
X204937Y124047D01*
X157700Y120047D02*
X163700Y122047D01*
X157700Y124047D02*
X163700Y122047D01*
X198937D02*
X208937D01*
X153700D02*
X163700D01*
X207661Y96421D02*
X209661D01*
X207661Y6421D02*
X209661D01*
X208661Y96421D02*
X210661Y90421D01*
X206661D02*
X208661Y96421D01*
Y6421D02*
X210661Y12421D01*
X206661D02*
X208661Y6421D01*
Y72515D02*
Y96421D01*
Y6421D02*
Y30328D01*
X235221Y6421D02*
X237221D01*
X235221Y0D02*
X237221D01*
X236221Y6421D02*
X238221Y12421D01*
X234221D02*
X236221Y6421D01*
Y0D02*
X238221Y-6000D01*
X234221D02*
X236221Y0D01*
Y6421D02*
Y16421D01*
Y-10000D02*
Y0D01*
X198937Y136795D02*
Y138795D01*
X61614Y136795D02*
Y138795D01*
X192937Y135795D02*
X198937Y137795D01*
X192937Y139795D02*
X198937Y137795D01*
X61614D02*
X67614Y135795D01*
X61614Y137795D02*
X67614Y139795D01*
X151369Y137795D02*
X198937D01*
X61614D02*
X109182D01*
X-22654Y17209D02*
X-20653D01*
X-22654Y0D02*
X-20653D01*
X-21654Y17209D02*
X-19654Y23209D01*
X-23653D02*
X-21654Y17209D01*
Y0D02*
X-19654Y-6000D01*
X-23653D02*
X-21654Y0D01*
Y17209D02*
Y27209D01*
Y-10000D02*
Y0D01*
X-32496Y85634D02*
X-30496D01*
X-32496Y17209D02*
X-30496D01*
X-31496Y85634D02*
X-29496Y79634D01*
X-33496D02*
X-31496Y85634D01*
Y17209D02*
X-29496Y23209D01*
X-33496D02*
X-31496Y17209D01*
Y72015D02*
Y85634D01*
Y17209D02*
Y30827D01*
X83701Y121047D02*
Y123047D01*
X73701Y121047D02*
Y123047D01*
X83701Y122047D02*
X89701Y120047D01*
X83701Y122047D02*
X89701Y124047D01*
X67701Y120047D02*
X73701Y122047D01*
X67701Y124047D02*
X73701Y122047D01*
X83701D02*
X93701D01*
X63701D02*
X73701D01*
D105*
X83373Y159879D02*
X79375D01*
Y156880D01*
X81374Y157880D01*
X82374D01*
X83373Y156880D01*
Y154881D01*
X82374Y153881D01*
X80374D01*
X79375Y154881D01*
X85373Y158880D02*
X86373Y159879D01*
X88372D01*
X89372Y158880D01*
Y154881D01*
X88372Y153881D01*
X86373D01*
X85373Y154881D01*
Y158880D01*
X91371Y153881D02*
Y154881D01*
X92371D01*
Y153881D01*
X91371D01*
X100368Y159879D02*
X96369D01*
Y156880D01*
X98369Y157880D01*
X99368D01*
X100368Y156880D01*
Y154881D01*
X99368Y153881D01*
X97369D01*
X96369Y154881D01*
X102367Y158880D02*
X103367Y159879D01*
X105366D01*
X106366Y158880D01*
Y157880D01*
X105366Y156880D01*
X104367D01*
X105366D01*
X106366Y155881D01*
Y154881D01*
X105366Y153881D01*
X103367D01*
X102367Y154881D01*
X108365Y153881D02*
Y157880D01*
X109365D01*
X110365Y156880D01*
Y153881D01*
Y156880D01*
X111364Y157880D01*
X112364Y156880D01*
Y153881D01*
X114364D02*
Y157880D01*
X115363D01*
X116363Y156880D01*
Y153881D01*
Y156880D01*
X117362Y157880D01*
X118362Y156880D01*
Y153881D01*
X229977Y32827D02*
Y28829D01*
X225978Y32827D01*
X224979D01*
X223979Y31828D01*
Y29829D01*
X224979Y28829D01*
X223979Y38826D02*
X224979Y36826D01*
X226978Y34827D01*
X228977D01*
X229977Y35827D01*
Y37826D01*
X228977Y38826D01*
X227978D01*
X226978Y37826D01*
Y34827D01*
X229977Y40825D02*
X228977D01*
Y41825D01*
X229977D01*
Y40825D01*
Y45823D02*
Y47823D01*
Y46823D01*
X223979D01*
X224979Y45823D01*
X229977Y54820D02*
Y50822D01*
X225978Y54820D01*
X224979D01*
X223979Y53821D01*
Y51821D01*
X224979Y50822D01*
X229977Y60818D02*
Y56820D01*
X225978Y60818D01*
X224979D01*
X223979Y59819D01*
Y57819D01*
X224979Y56820D01*
X229977Y62818D02*
X225978D01*
Y63818D01*
X226978Y64817D01*
X229977D01*
X226978D01*
X225978Y65817D01*
X226978Y66817D01*
X229977D01*
Y68816D02*
X225978D01*
Y69815D01*
X226978Y70815D01*
X229977D01*
X226978D01*
X225978Y71815D01*
X226978Y72815D01*
X229977D01*
X99096Y-12180D02*
X95098D01*
X99096Y-8182D01*
Y-7182D01*
X98097Y-6182D01*
X96097D01*
X95098Y-7182D01*
X105094Y-6182D02*
X103095Y-7182D01*
X101096Y-9181D01*
Y-11181D01*
X102095Y-12180D01*
X104095D01*
X105094Y-11181D01*
Y-10181D01*
X104095Y-9181D01*
X101096D01*
X107094Y-12180D02*
Y-11181D01*
X108093D01*
Y-12180D01*
X107094D01*
X112092Y-11181D02*
X113092Y-12180D01*
X115091D01*
X116091Y-11181D01*
Y-7182D01*
X115091Y-6182D01*
X113092D01*
X112092Y-7182D01*
Y-8182D01*
X113092Y-9181D01*
X116091D01*
X118090Y-6182D02*
X122089D01*
Y-7182D01*
X118090Y-11181D01*
Y-12180D01*
X124088Y-11181D02*
X125088Y-12180D01*
X127087D01*
X128087Y-11181D01*
Y-7182D01*
X127087Y-6182D01*
X125088D01*
X124088Y-7182D01*
Y-8182D01*
X125088Y-9181D01*
X128087D01*
X130086Y-12180D02*
Y-8182D01*
X131086D01*
X132086Y-9181D01*
Y-12180D01*
Y-9181D01*
X133085Y-8182D01*
X134085Y-9181D01*
Y-12180D01*
X136084D02*
Y-8182D01*
X137084D01*
X138084Y-9181D01*
Y-12180D01*
Y-9181D01*
X139083Y-8182D01*
X140083Y-9181D01*
Y-12180D01*
X164224Y112650D02*
X165224Y113649D01*
X167223D01*
X168223Y112650D01*
Y111650D01*
X167223Y110650D01*
X168223Y109651D01*
Y108651D01*
X167223Y107651D01*
X165224D01*
X164224Y108651D01*
Y109651D01*
X165224Y110650D01*
X164224Y111650D01*
Y112650D01*
X165224Y110650D02*
X167223D01*
X170222Y107651D02*
Y108651D01*
X171222D01*
Y107651D01*
X170222D01*
X175220Y108651D02*
X176220Y107651D01*
X178219D01*
X179219Y108651D01*
Y112650D01*
X178219Y113649D01*
X176220D01*
X175220Y112650D01*
Y111650D01*
X176220Y110650D01*
X179219D01*
X185217Y113649D02*
X181218D01*
Y110650D01*
X183218Y111650D01*
X184217D01*
X185217Y110650D01*
Y108651D01*
X184217Y107651D01*
X182218D01*
X181218Y108651D01*
X187216Y107651D02*
Y111650D01*
X188216D01*
X189216Y110650D01*
Y107651D01*
Y110650D01*
X190215Y111650D01*
X191215Y110650D01*
Y107651D01*
X193214D02*
Y111650D01*
X194214D01*
X195214Y110650D01*
Y107651D01*
Y110650D01*
X196213Y111650D01*
X197213Y110650D01*
Y107651D01*
X212260Y35326D02*
Y31328D01*
X208262Y35326D01*
X207262D01*
X206262Y34327D01*
Y32327D01*
X207262Y31328D01*
X212260Y41324D02*
Y37326D01*
X208262Y41324D01*
X207262D01*
X206262Y40325D01*
Y38325D01*
X207262Y37326D01*
X212260Y43324D02*
X211261D01*
Y44323D01*
X212260D01*
Y43324D01*
X207262Y48322D02*
X206262Y49322D01*
Y51321D01*
X207262Y52321D01*
X208262D01*
X209261Y51321D01*
X210261Y52321D01*
X211261D01*
X212260Y51321D01*
Y49322D01*
X211261Y48322D01*
X210261D01*
X209261Y49322D01*
X208262Y48322D01*
X207262D01*
X209261Y49322D02*
Y51321D01*
X206262Y58319D02*
X207262Y56319D01*
X209261Y54320D01*
X211261D01*
X212260Y55320D01*
Y57319D01*
X211261Y58319D01*
X210261D01*
X209261Y57319D01*
Y54320D01*
X212260Y60318D02*
X208262D01*
Y61318D01*
X209261Y62318D01*
X212260D01*
X209261D01*
X208262Y63317D01*
X209261Y64317D01*
X212260D01*
Y66316D02*
X208262D01*
Y67316D01*
X209261Y68316D01*
X212260D01*
X209261D01*
X208262Y69315D01*
X209261Y70315D01*
X212260D01*
X250617Y-15883D02*
Y-13884D01*
Y-14884D01*
X244619D01*
X245618Y-15883D01*
X250617Y-10885D02*
X249617D01*
Y-9885D01*
X250617D01*
Y-10885D01*
X244619Y-1888D02*
X245618Y-3887D01*
X247618Y-5887D01*
X249617D01*
X250617Y-4887D01*
Y-2888D01*
X249617Y-1888D01*
X248617D01*
X247618Y-2888D01*
Y-5887D01*
X245618Y111D02*
X244619Y1111D01*
Y3111D01*
X245618Y4110D01*
X246618D01*
X247618Y3111D01*
Y2111D01*
Y3111D01*
X248617Y4110D01*
X249617D01*
X250617Y3111D01*
Y1111D01*
X249617Y111D01*
X250617Y6109D02*
Y8109D01*
Y7109D01*
X244619D01*
X245618Y6109D01*
X250617Y11108D02*
X246618D01*
Y12108D01*
X247618Y13107D01*
X250617D01*
X247618D01*
X246618Y14107D01*
X247618Y15107D01*
X250617D01*
Y17106D02*
X246618D01*
Y18106D01*
X247618Y19105D01*
X250617D01*
X247618D01*
X246618Y20105D01*
X247618Y21105D01*
X250617D01*
X110182Y139195D02*
X111182Y140194D01*
X113181D01*
X114181Y139195D01*
Y138195D01*
X113181Y137195D01*
X112181D01*
X113181D01*
X114181Y136196D01*
Y135196D01*
X113181Y134196D01*
X111182D01*
X110182Y135196D01*
X119179Y134196D02*
Y140194D01*
X116180Y137195D01*
X120179D01*
X122178Y134196D02*
Y135196D01*
X123178D01*
Y134196D01*
X122178D01*
X127176Y139195D02*
X128176Y140194D01*
X130175D01*
X131175Y139195D01*
Y138195D01*
X130175Y137195D01*
X131175Y136196D01*
Y135196D01*
X130175Y134196D01*
X128176D01*
X127176Y135196D01*
Y136196D01*
X128176Y137195D01*
X127176Y138195D01*
Y139195D01*
X128176Y137195D02*
X130175D01*
X133175Y139195D02*
X134174Y140194D01*
X136173D01*
X137173Y139195D01*
Y138195D01*
X136173Y137195D01*
X137173Y136196D01*
Y135196D01*
X136173Y134196D01*
X134174D01*
X133175Y135196D01*
Y136196D01*
X134174Y137195D01*
X133175Y138195D01*
Y139195D01*
X134174Y137195D02*
X136173D01*
X139172Y134196D02*
Y138195D01*
X140172D01*
X141172Y137195D01*
Y134196D01*
Y137195D01*
X142172Y138195D01*
X143171Y137195D01*
Y134196D01*
X145171D02*
Y138195D01*
X146170D01*
X147170Y137195D01*
Y134196D01*
Y137195D01*
X148170Y138195D01*
X149169Y137195D01*
Y134196D01*
X-7257Y-7991D02*
X-13255D01*
X-10256Y-10989D01*
Y-6991D01*
X-7257Y-4992D02*
X-8257D01*
Y-3992D01*
X-7257D01*
Y-4992D01*
X-12256Y7D02*
X-13255Y1007D01*
Y3006D01*
X-12256Y4006D01*
X-11256D01*
X-10256Y3006D01*
Y2006D01*
Y3006D01*
X-9257Y4006D01*
X-8257D01*
X-7257Y3006D01*
Y1007D01*
X-8257Y7D01*
X-13255Y6005D02*
Y10004D01*
X-12256D01*
X-8257Y6005D01*
X-7257D01*
Y12003D02*
Y14002D01*
Y13003D01*
X-13255D01*
X-12256Y12003D01*
X-7257Y17001D02*
X-11256D01*
Y18001D01*
X-10256Y19001D01*
X-7257D01*
X-10256D01*
X-11256Y20000D01*
X-10256Y21000D01*
X-7257D01*
Y22999D02*
X-11256D01*
Y23999D01*
X-10256Y24999D01*
X-7257D01*
X-10256D01*
X-11256Y25998D01*
X-10256Y26998D01*
X-7257D01*
X-27897Y31827D02*
Y33827D01*
Y32827D01*
X-33895D01*
X-32895Y31827D01*
X-33895Y36826D02*
Y40824D01*
X-32895D01*
X-28897Y36826D01*
X-27897D01*
Y42824D02*
X-28897D01*
Y43824D01*
X-27897D01*
Y42824D01*
X-32895Y47822D02*
X-33895Y48822D01*
Y50821D01*
X-32895Y51821D01*
X-31896D01*
X-30896Y50821D01*
Y49822D01*
Y50821D01*
X-29896Y51821D01*
X-28897D01*
X-27897Y50821D01*
Y48822D01*
X-28897Y47822D01*
X-32895Y53820D02*
X-33895Y54820D01*
Y56819D01*
X-32895Y57819D01*
X-31896D01*
X-30896Y56819D01*
X-29896Y57819D01*
X-28897D01*
X-27897Y56819D01*
Y54820D01*
X-28897Y53820D01*
X-29896D01*
X-30896Y54820D01*
X-31896Y53820D01*
X-32895D01*
X-30896Y54820D02*
Y56819D01*
X-27897Y59818D02*
X-31896D01*
Y60818D01*
X-30896Y61818D01*
X-27897D01*
X-30896D01*
X-31896Y62817D01*
X-30896Y63817D01*
X-27897D01*
Y65816D02*
X-31896D01*
Y66816D01*
X-30896Y67816D01*
X-27897D01*
X-30896D01*
X-31896Y68815D01*
X-30896Y69815D01*
X-27897D01*
X65605Y107651D02*
X61606D01*
X65605Y111650D01*
Y112650D01*
X64605Y113649D01*
X62606D01*
X61606Y112650D01*
X67604Y107651D02*
Y108651D01*
X68604D01*
Y107651D01*
X67604D01*
X76601Y113649D02*
X72603D01*
Y110650D01*
X74602Y111650D01*
X75602D01*
X76601Y110650D01*
Y108651D01*
X75602Y107651D01*
X73602D01*
X72603Y108651D01*
X81600Y107651D02*
Y113649D01*
X78601Y110650D01*
X82599D01*
X84599Y107651D02*
Y111650D01*
X85598D01*
X86598Y110650D01*
Y107651D01*
Y110650D01*
X87598Y111650D01*
X88597Y110650D01*
Y107651D01*
X90597D02*
Y111650D01*
X91596D01*
X92596Y110650D01*
Y107651D01*
Y110650D01*
X93596Y111650D01*
X94595Y110650D01*
Y107651D01*
D106*
X87023Y-20300D02*
X85000Y-18277D01*
Y-16254D01*
X87023Y-14231D01*
X90057Y-20300D02*
Y-14231D01*
X92080Y-16254D01*
X94103Y-14231D01*
Y-20300D01*
X97138D02*
X99161D01*
X100172Y-19288D01*
Y-17266D01*
X99161Y-16254D01*
X97138D01*
X96126Y-17266D01*
Y-19288D01*
X97138Y-20300D01*
X106241Y-14231D02*
Y-20300D01*
X103207D01*
X102195Y-19288D01*
Y-17266D01*
X103207Y-16254D01*
X106241D01*
X108264D02*
Y-19288D01*
X109276Y-20300D01*
X112310D01*
Y-16254D01*
X114333Y-20300D02*
X116356D01*
X115345D01*
Y-14231D01*
X114333D01*
X122425Y-20300D02*
X120402D01*
X119390Y-19288D01*
Y-17266D01*
X120402Y-16254D01*
X122425D01*
X123436Y-17266D01*
Y-18277D01*
X119390D01*
X131528Y-20300D02*
Y-14231D01*
X134563D01*
X135574Y-15243D01*
Y-17266D01*
X134563Y-18277D01*
X131528D01*
X138609Y-16254D02*
X140632D01*
X141643Y-17266D01*
Y-20300D01*
X138609D01*
X137597Y-19288D01*
X138609Y-18277D01*
X141643D01*
X143666Y-16254D02*
Y-20300D01*
Y-18277D01*
X144678Y-17266D01*
X145689Y-16254D01*
X146701D01*
X150747Y-15243D02*
Y-16254D01*
X149735D01*
X151758D01*
X150747D01*
Y-19288D01*
X151758Y-20300D01*
X154792D02*
X156815Y-18277D01*
Y-16254D01*
X154792Y-14231D01*
M02*
